<svg width="200" height="200" viewBox="0 0 200 200" fill="none" xmlns="http://www.w3.org/2000/svg">
<rect width="200" height="200" rx="28" fill="white"/>
<path d="M63.4297 168.006H78.0195V172.119H68.7031V177.691H75.9453V181.822H68.7031V187.711H78.0195V192H63.4297V168.006ZM80.1816 174.246H84.875V176.672C85.7188 174.82 87.1543 173.895 89.1816 173.895C91.291 173.895 92.5684 174.82 93.0137 176.672C93.8105 174.82 95.2461 173.895 97.3203 173.895C98.4805 173.895 99.4004 174.105 100.08 174.527C100.771 174.949 101.252 175.529 101.521 176.268C101.791 176.994 101.926 178.371 101.926 180.398V192H96.9863V180.908C96.9863 179.584 96.8926 178.723 96.7051 178.324C96.5176 177.926 96.1016 177.727 95.457 177.727C94.6836 177.727 94.1797 177.99 93.9453 178.518C93.7109 179.033 93.5938 180.082 93.5938 181.664V192H88.6367V180.75C88.6367 179.484 88.543 178.664 88.3555 178.289C88.1797 177.914 87.7695 177.727 87.125 177.727C86.3281 177.727 85.7949 178.002 85.5254 178.553C85.2676 179.092 85.1387 180.129 85.1387 181.664V192H80.1816V174.246ZM110.064 179.889L105.371 179.432C105.594 177.65 106.35 176.279 107.639 175.318C108.939 174.357 110.574 173.877 112.543 173.877C114.207 173.877 115.543 174.199 116.551 174.844C117.559 175.477 118.191 176.215 118.449 177.059C118.719 177.902 118.854 179.209 118.854 180.979V188.062C118.854 190.266 118.953 191.578 119.152 192H114.564C114.4 191.52 114.318 190.611 114.318 189.275C113.229 191.338 111.605 192.369 109.449 192.369C108.066 192.369 106.941 191.959 106.074 191.139C105.207 190.307 104.773 189.1 104.773 187.518C104.773 185.537 105.43 184.008 106.742 182.93C108.055 181.84 110.445 181.189 113.914 180.979V180.311C113.914 179.127 113.791 178.307 113.545 177.85C113.311 177.393 112.848 177.164 112.156 177.164C110.891 177.164 110.193 178.072 110.064 179.889ZM113.914 183.51C112.473 183.674 111.441 183.996 110.82 184.477C110.211 184.945 109.906 185.742 109.906 186.867C109.906 188.367 110.457 189.117 111.559 189.117C112.156 189.117 112.695 188.783 113.176 188.115C113.668 187.436 113.914 186.193 113.914 184.389V183.51ZM127.484 172.787H122.457V167.883H127.484V172.787ZM122.492 174.246H127.449V192H122.492V174.246ZM131.07 168.006H136.027V192H131.07V168.006Z" fill="black"/>
<path d="M160.84 159H39.1985C35.2095 159 31.3839 157.415 28.5633 154.595C25.7427 151.774 24.1581 147.949 24.1581 143.96V88.2296C24.1581 87.4203 24.323 86.6195 24.6426 85.876C24.9623 85.1325 25.4301 84.462 26.0174 83.9052L90.4752 22.8046C93.0523 20.3617 96.4681 19 100.019 19C103.57 19 106.986 20.3617 109.563 22.8046L171.02 81.0608C172.555 82.5161 173.778 84.2688 174.614 86.2122C175.449 88.1556 175.88 90.2488 175.88 92.3642V143.96C175.88 145.935 175.491 147.891 174.735 149.715C173.979 151.54 172.872 153.198 171.475 154.595C170.078 155.991 168.42 157.099 166.595 157.855C164.771 158.611 162.815 159 160.84 159V159Z" fill="#3F3D56"/>
<path opacity="0.1" d="M24.1581 89.1445H174.616V149.918C174.616 152.327 173.659 154.637 171.956 156.34C170.253 158.043 167.943 159 165.534 159H33.24C30.8313 159 28.5213 158.043 26.8181 156.34C25.1149 154.637 24.1581 152.327 24.1581 149.918V89.1445V89.1445Z" fill="black"/>
<path d="M147.533 41.2573H52.1891C47.6186 41.2573 43.9136 44.9624 43.9136 49.5328V144.877C43.9136 149.447 47.6186 153.152 52.1891 153.152H147.533C152.103 153.152 155.809 149.447 155.809 144.877V49.5328C155.809 44.9624 152.103 41.2573 147.533 41.2573Z" fill="#6C63FF"/>
<path opacity="0.1" d="M155.808 91.6577V153.153H43.9135V91.6577L99.861 118.699L155.808 91.6577Z" fill="black"/>
<path d="M99.861 122.176L28.1743 87.5272C27.7309 87.3128 27.2404 87.2146 26.7486 87.2417C26.2569 87.2688 25.7801 87.4203 25.3629 87.682C24.9457 87.9437 24.6018 88.3071 24.3634 88.738C24.1251 89.169 24 89.6534 24 90.1459V149.76C24 150.953 24.2349 152.134 24.6913 153.235C25.1477 154.337 25.8167 155.339 26.66 156.182C27.5034 157.025 28.5045 157.694 29.6064 158.151C30.7083 158.607 31.8893 158.842 33.0819 158.842H166.64C167.833 158.842 169.014 158.607 170.116 158.151C171.218 157.694 172.219 157.025 173.062 156.182C173.905 155.339 174.574 154.337 175.031 153.235C175.487 152.134 175.722 150.953 175.722 149.76V91.1671C175.722 90.5662 175.569 89.975 175.279 89.4492C174.988 88.9233 174.568 88.4799 174.059 88.1605C173.55 87.8412 172.968 87.6563 172.368 87.6233C171.768 87.5902 171.169 87.71 170.628 87.9716L99.861 122.176Z" fill="#3F3D56"/>
<path d="M84.8468 51.5303H53.5542V55.9555H84.8468V51.5303Z" fill="#F2F2F2"/>
<path d="M143.955 67.6506H51.0255V70.1793H143.955V67.6506Z" fill="#F2F2F2"/>
<path d="M143.955 76.1851H51.0255V78.7138H143.955V76.1851Z" fill="#F2F2F2"/>
<path d="M143.955 84.7195H51.0255V87.2482H143.955V84.7195Z" fill="#F2F2F2"/>
</svg>
