<svg width="200" height="200" viewBox="0 0 200 200" fill="none" xmlns="http://www.w3.org/2000/svg">
<rect width="200" height="200" rx="28" fill="white"/>
<path d="M61.8223 179.203H70.1543V192H67.9219L67.2363 189.258C65.9473 191.332 64.0137 192.369 61.4355 192.369C58.7051 192.369 56.5371 191.297 54.9316 189.152C53.3379 186.996 52.541 184.102 52.541 180.469C52.541 176.52 53.3262 173.396 54.8965 171.1C56.4785 168.791 58.8105 167.637 61.8926 167.637C66.8027 167.637 69.5566 170.379 70.1543 175.863L65.4082 176.637C65.0801 173.496 63.9434 171.926 61.998 171.926C60.8145 171.926 59.8652 172.506 59.1504 173.666C58.4473 174.826 58.0957 177.023 58.0957 180.258C58.0957 183.129 58.4414 185.15 59.1328 186.322C59.8242 187.494 60.8379 188.08 62.1738 188.08C64.3184 188.08 65.3965 186.498 65.4082 183.334H61.8223V179.203ZM78.8203 172.787H73.793V167.883H78.8203V172.787ZM73.8281 174.246H78.7852V192H73.8281V174.246ZM83.1621 168.797L87.9785 168.639V174.246H91.248V178.148H87.9785V184.67C87.9785 185.877 88.002 186.662 88.0488 187.025C88.1074 187.377 88.2832 187.676 88.5762 187.922C88.8809 188.156 89.3848 188.273 90.0879 188.273C90.4629 188.273 90.9316 188.262 91.4941 188.238V192C90.3926 192.246 89.3848 192.369 88.4707 192.369C86.9707 192.369 85.8223 192.082 85.0254 191.508C84.2285 190.934 83.7188 190.213 83.4961 189.346C83.2734 188.479 83.1621 187.102 83.1621 185.215V178.148H81.1934V174.246H83.1621V168.797ZM93.9023 168.006H99.1758V177.691H104.941V168.006H110.215V192H104.941V182.191H99.1758V192H93.9023V168.006ZM114.064 174.246H119.021V185.637C119.021 186.785 119.127 187.553 119.338 187.939C119.549 188.326 120.006 188.52 120.709 188.52C121.354 188.52 121.84 188.361 122.168 188.045C122.508 187.729 122.713 187.295 122.783 186.744C122.854 186.182 122.889 185.033 122.889 183.299V174.246H127.846V192H123.188V189.574C122.484 190.781 121.781 191.549 121.078 191.877C120.387 192.205 119.566 192.369 118.617 192.369C117.34 192.369 116.361 192.105 115.682 191.578C115.002 191.051 114.562 190.383 114.363 189.574C114.164 188.766 114.064 187.506 114.064 185.795V174.246ZM131.502 168.006H136.371V175.916C137.332 174.639 138.562 174 140.062 174C141.703 174 143.068 174.738 144.158 176.215C145.248 177.691 145.793 179.959 145.793 183.018C145.793 185.959 145.26 188.256 144.193 189.908C143.127 191.549 141.568 192.369 139.518 192.369C137.502 192.369 136.119 191.473 135.369 189.68C135.029 190.289 134.719 191.062 134.438 192H131.502V168.006ZM136.371 184.635C136.371 186.264 136.523 187.389 136.828 188.01C137.133 188.631 137.672 188.941 138.445 188.941C139.301 188.941 139.887 188.502 140.203 187.623C140.52 186.732 140.678 185.238 140.678 183.141C140.678 181.113 140.525 179.631 140.221 178.693C139.916 177.756 139.354 177.287 138.533 177.287C137.092 177.287 136.371 178.371 136.371 180.539V184.635Z" fill="black"/>
<path d="M163.939 49.3534C157.233 37.8623 148.135 28.7647 136.645 22.0587C125.153 15.3523 112.608 12 98.9993 12C85.3926 12 72.8429 15.3534 61.3534 22.0587C49.8623 28.7644 40.7654 37.8623 34.0587 49.3534C27.353 60.8442 24 73.3923 24 86.9973C24 103.34 28.768 118.036 38.3065 131.088C47.8439 144.142 60.1648 153.174 75.2683 158.187C77.0264 158.513 78.3278 158.284 79.174 157.504C80.0206 156.724 80.4433 155.746 80.4433 154.576C80.4433 154.38 80.4266 152.623 80.3941 149.302C80.3606 145.982 80.3448 143.085 80.3448 140.613L78.0987 141.001C76.6665 141.264 74.8599 141.375 72.6787 141.343C70.4985 141.313 68.2353 141.084 65.892 140.659C63.5476 140.238 61.3671 139.262 59.3487 137.732C57.3314 136.202 55.8993 134.199 55.0527 131.727L54.0762 129.48C53.4253 127.984 52.4006 126.322 51.0006 124.5C49.6006 122.677 48.1849 121.441 46.7528 120.79L46.0691 120.3C45.6135 119.975 45.1907 119.583 44.7998 119.127C44.4091 118.672 44.1167 118.217 43.9214 117.76C43.7258 117.304 43.8879 116.929 44.4095 116.635C44.9311 116.342 45.8738 116.199 47.2416 116.199L49.1939 116.491C50.4961 116.752 52.1067 117.531 54.028 118.834C55.9482 120.136 57.5267 121.828 58.7639 123.91C60.262 126.58 62.0669 128.615 64.1838 130.015C66.299 131.415 68.4316 132.114 70.5796 132.114C72.7276 132.114 74.5828 131.951 76.146 131.627C77.7074 131.301 79.1723 130.812 80.5401 130.161C81.126 125.798 82.7213 122.445 85.3246 120.102C81.6141 119.712 78.2782 119.125 75.3151 118.344C72.3538 117.562 69.2935 116.293 66.1365 114.533C62.9778 112.776 60.3574 110.595 58.2747 107.992C56.1917 105.387 54.4822 101.968 53.1486 97.7376C51.8143 93.5052 51.147 88.623 51.147 83.0895C51.147 75.2106 53.7191 68.5059 58.8624 62.9717C56.453 57.0483 56.6805 50.4079 59.5454 43.0514C61.4335 42.4648 64.2334 42.905 67.9439 44.3692C71.655 45.8342 74.3721 47.0891 76.0981 48.1296C77.824 49.1698 79.2069 50.0512 80.2487 50.7661C86.3045 49.074 92.5539 48.2278 98.9986 48.2278C105.443 48.2278 111.694 49.074 117.75 50.7661L121.461 48.4234C123.999 46.8603 126.995 45.4279 130.444 44.1257C133.894 42.8242 136.533 42.4658 138.356 43.0524C141.285 50.4093 141.546 57.0493 139.136 62.9728C144.279 68.507 146.852 75.2133 146.852 83.0905C146.852 88.624 146.182 93.5217 144.85 97.7866C143.516 102.052 141.792 105.468 139.677 108.041C137.559 110.613 134.922 112.778 131.765 114.535C128.607 116.293 125.546 117.562 122.585 118.343C119.622 119.125 116.286 119.713 112.576 120.104C115.96 123.032 117.652 127.655 117.652 133.97V154.573C117.652 155.743 118.059 156.721 118.874 157.502C119.688 158.281 120.973 158.511 122.731 158.184C137.836 153.172 150.157 144.139 159.694 131.085C169.23 118.033 174 103.337 174 86.9945C173.997 73.3913 170.642 60.8442 163.939 49.3534Z" fill="black"/>
</svg>
