<svg width="200" height="200" viewBox="0 0 200 200" fill="none" xmlns="http://www.w3.org/2000/svg">
<!-- <rect width="200" height="200" rx="28" fill="white"/> -->
<g className="subtitle-text">
<path pathLength="1" d="M42.2754 168.006H47.5488V187.5H55.2832V192H42.2754V168.006ZM62.1387 172.787H57.1113V167.883H62.1387V172.787ZM57.1465 174.246H62.1035V192H57.1465V174.246ZM65.7422 174.246H70.4355V176.672C71.2559 174.82 72.7383 173.895 74.8828 173.895C76.043 173.895 76.998 174.158 77.748 174.686C78.5098 175.201 78.9961 175.863 79.207 176.672C79.418 177.48 79.5234 178.711 79.5234 180.363V192H74.5664V180.363C74.5664 179.168 74.4141 178.43 74.1094 178.148C73.8047 177.867 73.3945 177.727 72.8789 177.727C71.9883 177.727 71.4023 178.002 71.1211 178.553C70.8398 179.092 70.6992 180.105 70.6992 181.594V192H65.7422V174.246ZM82.9336 168.006H87.8906V181.102L92.8828 174.246H97.3828L92.9004 180.205L97.8223 192H92.4785L89.7012 183.756L87.8906 186.252V192H82.9336V168.006ZM112.729 183.949H103.412V184.934C103.412 186.527 103.629 187.594 104.062 188.133C104.496 188.672 105.064 188.941 105.768 188.941C107.279 188.941 108.129 187.928 108.316 185.9L112.729 186.182C111.943 190.307 109.594 192.369 105.68 192.369C103.266 192.369 101.432 191.555 100.178 189.926C98.9238 188.297 98.2969 186.117 98.2969 183.387C98.2969 180.305 98.959 177.955 100.283 176.338C101.619 174.709 103.406 173.895 105.645 173.895C107.66 173.895 109.342 174.615 110.689 176.057C112.049 177.486 112.729 180.117 112.729 183.949ZM108.053 181.084C108.064 180.873 108.07 180.709 108.07 180.592C108.07 178.307 107.297 177.164 105.75 177.164C104.227 177.164 103.459 178.471 103.447 181.084H108.053ZM124.312 168.006H129.182V192H124.594V189.064C123.844 191.186 122.496 192.246 120.551 192.246C118.641 192.246 117.217 191.414 116.279 189.75C115.342 188.086 114.873 185.9 114.873 183.193C114.873 180.111 115.406 177.809 116.473 176.285C117.551 174.762 118.986 174 120.779 174C122.432 174 123.609 174.633 124.312 175.898V168.006ZM124.312 181.682C124.312 179.936 124.125 178.77 123.75 178.184C123.387 177.586 122.854 177.287 122.15 177.287C121.318 177.287 120.75 177.697 120.445 178.518C120.152 179.338 120.006 181.037 120.006 183.615C120.006 185.537 120.17 186.885 120.498 187.658C120.826 188.432 121.365 188.818 122.115 188.818C122.748 188.818 123.27 188.561 123.68 188.045C124.102 187.518 124.312 186.445 124.312 184.828V181.682ZM133.26 168.006H138.533V192H133.26V168.006ZM142.629 174.246H147.322V176.672C148.143 174.82 149.625 173.895 151.77 173.895C152.93 173.895 153.885 174.158 154.635 174.686C155.396 175.201 155.883 175.863 156.094 176.672C156.305 177.48 156.41 178.711 156.41 180.363V192H151.453V180.363C151.453 179.168 151.301 178.43 150.996 178.148C150.691 177.867 150.281 177.727 149.766 177.727C148.875 177.727 148.289 178.002 148.008 178.553C147.727 179.092 147.586 180.105 147.586 181.594V192H142.629V174.246Z" fill="black"/>
</g>
<path pathLength="1" d="M25 32.9032C25 27.4353 29.9627 23 36.0847 23H163.915C170.037 23 175 27.4353 175 32.9032V151.345C175 156.815 170.037 161.248 163.915 161.248H36.0847C29.9627 161.248 25 156.815 25 151.345V32.9032V32.9032Z" fill="#006699"/>
<path pathLength="1" fill-rule="evenodd" clip-rule="evenodd" d="M70.4696 138.728V76.3013H47.8134V138.728H70.4696V138.728ZM59.1414 67.778C67.0421 67.778 71.9596 62.9843 71.9596 56.9936C71.8123 50.868 67.0421 46.2074 59.2913 46.2074C51.5413 46.2074 46.4741 50.868 46.4741 56.9936C46.4741 62.9843 51.3906 67.778 58.9937 67.778H59.141H59.1414Z" fill="white"/>
<path pathLength="1" fill-rule="evenodd" clip-rule="evenodd" d="M83.006 138.728H105.662V103.866C105.662 102.001 105.809 100.137 106.407 98.8029C108.045 95.0751 111.773 91.2143 118.032 91.2143C126.23 91.2143 129.51 96.939 129.51 105.331V138.728H152.164V102.933C152.164 83.7587 140.986 74.8364 126.08 74.8364C113.858 74.8364 108.492 81.0931 105.511 85.3548H105.663V76.3013H83.0066C83.3039 82.159 83.0066 138.728 83.0066 138.728H83.006Z" fill="white"/>
</svg>
