<svg width="200" height="200" viewBox="0 0 200 200" fill="none" xmlns="http://www.w3.org/2000/svg">
<!-- <rect width="200" height="200" rx="28" fill="white"/> -->
<path pathLength="1" d="M52.918 168.006H67.877V172.506H62.9727V192H57.6992V172.506H52.918V168.006ZM66.2598 174.246H71.0762L73.168 185.039L75.1543 174.246H79.9707L81.5879 185.039L83.9785 174.246H87.8633L83.416 192H79.2676L76.9824 179.924L74.75 192H70.7246L66.2598 174.246ZM94.209 172.787H89.1816V167.883H94.209V172.787ZM89.2168 174.246H94.1738V192H89.2168V174.246ZM98.5508 168.797L103.367 168.639V174.246H106.637V178.148H103.367V184.67C103.367 185.877 103.391 186.662 103.438 187.025C103.496 187.377 103.672 187.676 103.965 187.922C104.27 188.156 104.773 188.273 105.477 188.273C105.852 188.273 106.32 188.262 106.883 188.238V192C105.781 192.246 104.773 192.369 103.859 192.369C102.359 192.369 101.211 192.082 100.414 191.508C99.6172 190.934 99.1074 190.213 98.8848 189.346C98.6621 188.479 98.5508 187.102 98.5508 185.215V178.148H96.582V174.246H98.5508V168.797ZM109.59 168.797L114.406 168.639V174.246H117.676V178.148H114.406V184.67C114.406 185.877 114.43 186.662 114.477 187.025C114.535 187.377 114.711 187.676 115.004 187.922C115.309 188.156 115.812 188.273 116.516 188.273C116.891 188.273 117.359 188.262 117.922 188.238V192C116.82 192.246 115.812 192.369 114.898 192.369C113.398 192.369 112.25 192.082 111.453 191.508C110.656 190.934 110.146 190.213 109.924 189.346C109.701 188.479 109.59 187.102 109.59 185.215V178.148H107.621V174.246H109.59V168.797ZM133.549 183.949H124.232V184.934C124.232 186.527 124.449 187.594 124.883 188.133C125.316 188.672 125.885 188.941 126.588 188.941C128.1 188.941 128.949 187.928 129.137 185.9L133.549 186.182C132.764 190.307 130.414 192.369 126.5 192.369C124.086 192.369 122.252 191.555 120.998 189.926C119.744 188.297 119.117 186.117 119.117 183.387C119.117 180.305 119.779 177.955 121.104 176.338C122.439 174.709 124.227 173.895 126.465 173.895C128.48 173.895 130.162 174.615 131.51 176.057C132.869 177.486 133.549 180.117 133.549 183.949ZM128.873 181.084C128.885 180.873 128.891 180.709 128.891 180.592C128.891 178.307 128.117 177.164 126.57 177.164C125.047 177.164 124.279 178.471 124.268 181.084H128.873ZM136.449 174.246H140.809V178.535C141.594 175.523 142.994 174.018 145.01 174.018C145.256 174.018 145.537 174.047 145.854 174.105V178.939C145.49 178.893 145.215 178.869 145.027 178.869C142.613 178.869 141.406 180.697 141.406 184.354V192H136.449V174.246Z" fill="black"/>
<path pathLength="1" d="M177 43.8153C171.334 46.3282 165.245 48.0265 158.853 48.7903C165.377 44.8799 170.386 38.6882 172.745 31.3106C166.641 34.931 159.879 37.5604 152.682 38.9777C146.919 32.8372 138.708 29 129.62 29C112.171 29 98.0245 43.1461 98.0245 60.5943C98.0245 63.0705 98.3045 65.482 98.843 67.7943C72.5843 66.4768 49.3038 53.8983 33.7207 34.7834C31.0011 39.4497 29.443 44.8771 29.443 50.6673C29.443 61.6285 35.0213 71.2992 43.499 76.9648C38.3194 76.8009 33.448 75.3797 29.1878 73.0133C29.1856 73.1451 29.1856 73.2775 29.1856 73.4104C29.1856 88.7186 40.0764 101.489 54.53 104.391C51.8786 105.113 49.0874 105.499 46.2056 105.499C44.1699 105.499 42.1904 105.301 40.2617 104.932C44.282 117.485 55.9501 126.619 69.7757 126.874C58.9626 135.348 45.3393 140.399 30.5369 140.399C27.9869 140.399 25.4718 140.25 23 139.958C36.9822 148.922 53.5899 154.152 71.4323 154.152C129.547 154.152 161.326 106.009 161.326 64.2579C161.326 62.888 161.295 61.5254 161.234 60.1707C167.407 55.7161 172.764 50.1513 177 43.8153Z" fill="#55ACEE"/>
</svg>
