<svg width="123" height="122" viewBox="0 0 123 122" fill="none" xmlns="http://www.w3.org/2000/svg">
<path pathLength="1" d="M119.238 55.6552L66.8417 3.26321C63.8269 0.245598 58.9333 0.245598 55.9148 3.26321L45.0353 14.1442L58.8356 27.9451C62.0438 26.8618 65.7211 27.5881 68.2772 30.1449C70.8466 32.7176 71.5677 36.4264 70.4573 39.6455L83.7584 52.9471C86.9763 51.8381 90.6891 52.5546 93.2586 55.1287C96.851 58.7202 96.851 64.5398 93.2586 68.1322C89.6657 71.7258 83.8463 71.7258 80.2514 68.1322C77.5503 65.4288 76.8822 61.4598 78.2503 58.1316L65.8456 45.7264L65.8445 78.3705C66.7203 78.8041 67.5469 79.3827 68.2767 80.1094C71.868 83.7005 71.868 89.519 68.2767 93.1161C64.6843 96.707 58.8623 96.707 55.2737 93.1161C51.6819 89.5194 51.6819 83.7008 55.2737 80.1094C56.1614 79.2233 57.1885 78.5526 58.2845 78.103V45.1556C57.188 44.7079 56.1621 44.0422 55.2731 43.149C52.5524 40.4303 51.8972 36.4371 53.2925 33.096L39.6881 19.489L3.76432 55.4131C0.745879 58.4331 0.745879 63.3269 3.76432 66.3447L56.1575 118.737C59.1739 121.754 64.0658 121.754 67.0865 118.737L119.237 66.5922C122.255 63.5732 122.255 58.6779 119.237 55.6596" fill="#F05133"/>
<path pathLength="1" d="M119.238 55.6552L66.8417 3.26321C63.8269 0.245598 58.9333 0.245598 55.9148 3.26321L45.0353 14.1442L58.8356 27.9451C62.0438 26.8618 65.7211 27.5881 68.2772 30.1449C70.8466 32.7176 71.5677 36.4264 70.4573 39.6455L83.7584 52.9471C86.9763 51.8381 90.6891 52.5546 93.2586 55.1287C96.851 58.7202 96.851 64.5398 93.2586 68.1322C89.6657 71.7258 83.8463 71.7258 80.2514 68.1322C77.5503 65.4288 76.8822 61.4598 78.2503 58.1316L65.8456 45.7264L65.8445 78.3705C66.7203 78.8041 67.5469 79.3827 68.2767 80.1094C71.868 83.7005 71.868 89.519 68.2767 93.1161C64.6843 96.707 58.8623 96.707 55.2737 93.1161C51.6819 89.5194 51.6819 83.7008 55.2737 80.1094C56.1614 79.2233 57.1885 78.5526 58.2845 78.103V45.1556C57.188 44.7079 56.1621 44.0422 55.2731 43.149C52.5524 40.4303 51.8972 36.4371 53.2925 33.096L39.6881 19.489L3.76432 55.4131C0.745879 58.4331 0.745879 63.3269 3.76432 66.3447L56.1575 118.737C59.1739 121.754 64.0658 121.754 67.0865 118.737L119.237 66.5922C122.255 63.5732 122.255 58.6779 119.237 55.6596" stroke="#F5F5F5" stroke-width="1.69999"/>
</svg>
