<svg width="138" height="122" viewBox="0 0 138 122" fill="none" xmlns="http://www.w3.org/2000/svg">
<path d="M136.965 1L129.672 82.2683L96.8924 91.3086L64.2029 82.2811L56.9182 1H136.965Z" fill="#264DE4" stroke="#F5F5F5" stroke-width="1.77804"/>
<path d="M123.429 77.0933L129.661 7.64575H96.9414V84.3984L123.429 77.0933Z" fill="#2965F1" stroke="#F5F5F5" stroke-width="1.77804"/>
<path d="M73.6187 37.7917L74.5168 47.7604H96.9418V37.7917H73.6187Z" fill="#EBEBEB" stroke="#F5F5F5" stroke-width="1.77804"/>
<path d="M96.9415 17.615H96.9069H71.8137L72.7247 27.5839H96.9415V17.615Z" fill="#EBEBEB" stroke="#F5F5F5" stroke-width="1.77804"/>
<path d="M96.9413 74.0536V63.6819L96.8974 63.6935L85.737 60.6957L85.0236 52.7451H79.6005H74.9641L76.368 68.3975L96.8952 74.0664L96.9413 74.0536Z" fill="#EBEBEB" stroke="#F5F5F5" stroke-width="1.77804"/>
<path d="M109.247 47.7608L108.084 60.6895L96.907 63.6904V74.0617L117.45 68.3977L117.601 66.7135L119.956 40.469L120.201 37.7921L122.01 17.615H96.907V27.5839H111.028L110.116 37.7921H96.907V47.7608H109.247Z" fill="white" stroke="#F5F5F5" stroke-width="1.77804"/>
<path d="M8.73871 112L1.45776 30.6914H81.5041L74.2231 111.956L41.4147 121" fill="#E44D26" stroke="#F5F5F5" stroke-width="1.77804"/>
<path d="M41.481 114.085V37.3647H74.2011L67.9571 106.732" fill="#F16529" stroke="#F5F5F5" stroke-width="1.77804"/>
<path d="M16.3284 47.3086H41.4807V57.2746H27.316L28.2426 67.4821H41.4807V77.4261H19.0642L16.3284 47.3086ZM19.5055 82.4311H29.5665L30.2725 90.3995L41.4807 93.3849V103.79L20.9176 98.0825" fill="#EBEBEB"/>
<path d="M19.5055 82.4311H29.5665L30.2725 90.3995L41.4807 93.3849V103.79L20.9176 98.0825M16.3284 47.3086H41.4807V57.2746H27.316L28.2426 67.4821H41.4807V77.4261H19.0642L16.3284 47.3086Z" stroke="#F5F5F5" stroke-width="1.77804"/>
<path d="M66.545 47.3086H41.4368V57.2746H65.6183L66.545 47.3086ZM64.7137 67.4821H41.4368V77.4481H53.7923L52.623 90.3995L41.4368 93.3849V103.746L61.9558 98.0825" fill="white"/>
<path d="M64.7137 67.4821H41.4368V77.4481H53.7923L52.623 90.3995L41.4368 93.3849V103.746L61.9558 98.0825M66.545 47.3086H41.4368V57.2746H65.6183L66.545 47.3086Z" stroke="#F5F5F5" stroke-width="1.77804"/>
</svg>
