<svg width="182" height="130" viewBox="0 0 182 130" fill="none" xmlns="http://www.w3.org/2000/svg">
<path pathLength="1" d="M180.965 1L173.672 82.2683L140.893 91.3086L108.203 82.2811L100.918 1H180.965Z" fill="#264DE4" stroke="#F5F5F5" stroke-width="1.77804"/>
<path pathLength="1" d="M167.429 77.0933L173.661 7.64575H140.942V84.3984L167.429 77.0933Z" fill="#2965F1"/>
<path pathLength="1" d="M117.619 37.7917L118.517 47.7604H140.942V37.7917H117.619Z" fill="#EBEBEB"/>
<path pathLength="1" d="M140.942 17.615H140.907H115.814L116.725 27.5839H140.942V17.615Z" fill="#EBEBEB"/>
<path pathLength="1" d="M140.942 74.0536V63.6819L140.898 63.6935L129.737 60.6957L129.024 52.7451H123.601H118.964L120.368 68.3975L140.895 74.0664L140.942 74.0536Z" fill="#EBEBEB"/>
<path pathLength="1" d="M153.247 47.7608L152.084 60.6895L140.907 63.6904V74.0617L161.451 68.3977L161.601 66.7135L163.956 40.469L164.201 37.7921L166.01 17.615H140.907V27.5839H155.028L154.116 37.7921H140.907V47.7608H153.247Z" fill="white"/>
<path pathLength="1" d="M59.2809 99.3085L52 18H132.046L124.765 99.2646L91.957 108.309" fill="#E44D26" stroke="#F5F5F5" stroke-width="1.77804"/>
<path pathLength="1" d="M92.0232 101.394V24.6733H124.743L118.499 94.0402" fill="#F16529"/>
<path pathLength="1" d="M66.8706 34.6172H92.023V44.5832H77.8582L78.7849 54.7907H92.023V64.7347H69.6065L66.8706 34.6172ZM70.0477 69.7397H80.1087L80.8147 77.7081L92.023 80.6935V91.0985L71.4598 85.3911" fill="#EBEBEB"/>
<path pathLength="1" d="M117.087 34.6172H91.979V44.5832H116.161L117.087 34.6172ZM115.256 54.7907H91.979V64.7567H104.335L103.165 77.7081L91.979 80.6935V91.0546L112.498 85.3911" fill="white"/>
<path pathLength="1" d="M1.26855 38L1.28114 39.0068C1.28807 39.5605 2.89227 57.8935 4.84606 79.7467L8.39839 119.48L24.3644 123.95C33.1457 126.409 40.5117 128.433 40.7332 128.448C40.9546 128.464 48.4179 126.46 57.3182 123.996C71.588 120.045 73.5144 119.45 73.6165 118.96C73.7589 118.279 80.7469 39.4475 80.7397 38.6041L80.7346 38H41.0014H1.26855Z" fill="white" stroke="#F5F5F5" stroke-width="2"/>
<path pathLength="1" d="M24.4908 124.218L8.38284 119.715L8.17233 118.524C7.98522 117.465 1 39.4465 1 38.4157C1 38.0426 5.07848 38.0002 41.0015 38.0002C78.9205 38.0002 81.0029 38.0247 81 38.4701C80.9874 40.3936 73.7571 119.445 73.5794 119.602C73.3549 119.801 42.1776 128.487 41.1358 128.641C40.8405 128.684 33.3502 126.694 24.4908 124.218ZM51.1585 108.308C56.5726 106.815 61.0804 105.516 61.1759 105.422C61.2714 105.328 61.905 98.9086 62.5838 91.1567C63.2626 83.4047 63.8866 76.5487 63.9703 75.9212L64.1226 74.7802H52.4278H40.7331V79.7468V84.7135H47.0472H53.3612L53.2356 85.3175C53.1666 85.6497 52.898 88.5047 52.6389 91.662C52.3643 95.0074 52.0388 97.5314 51.8587 97.7115C51.6887 97.8815 49.1159 98.6692 46.1414 99.4621L40.7331 100.904V105.963C40.7331 109.417 40.8254 111.023 41.0239 111.023C41.1839 111.023 45.7444 109.801 51.1585 108.308V108.308ZM63.9687 68.5383C63.7912 67.2228 62.2104 49.5786 62.2104 48.9134C62.2104 48.5093 61.2811 48.4704 51.606 48.4704H41.0015V53.664V58.8576L45.7668 59.0413C48.3877 59.1423 51.146 59.296 51.8963 59.3829L53.2605 59.5409L53.5916 63.6033C53.7738 65.8377 53.9908 68.1189 54.0739 68.6726L54.225 69.6793H59.1738H64.1226L63.9687 68.5383Z" fill="#EAEBEC"/>
<path pathLength="1" d="M24.3645 123.95L8.39846 119.48L4.84612 79.7468C2.89232 57.8936 1.28809 39.5607 1.28116 39.007L1.26855 38.0002H41.0016H80.7347L80.7399 38.6043C80.747 39.4477 73.7589 118.279 73.6166 118.961C73.5144 119.45 71.588 120.045 57.3183 123.996C48.418 126.46 40.9547 128.464 40.7332 128.449C40.5117 128.433 33.1458 126.409 24.3645 123.95H24.3645ZM51.1707 108.498C56.6899 106.964 61.2839 105.581 61.3796 105.427C61.4754 105.272 62.1347 98.5243 62.8448 90.4324C63.555 82.3405 64.1941 75.5084 64.2652 75.25C64.3873 74.8061 63.4482 74.7802 47.2483 74.7802H30.1023L30.8323 67.0618C31.2338 62.8166 31.572 59.3324 31.5838 59.3189C31.5956 59.3055 34.1121 59.2252 37.176 59.1406C42.1999 59.0017 52.5601 59.4025 52.9067 59.7491C53.0362 59.8786 53.888 68.2361 53.888 69.3769C53.888 69.9395 53.9639 69.9478 59.0902 69.9478H64.2923L64.1697 68.8068C64.1023 68.1793 63.6616 63.3167 63.1904 58.001L62.3338 48.3362L42.2714 48.2674C26.3106 48.2126 22.2085 48.2675 22.2068 48.5359C22.2053 48.7214 22.0886 49.9 21.9468 51.1551C21.6037 54.1922 18.9874 83.5367 18.9874 84.3472V84.9819H36.0586H53.1298L52.9776 85.9887C52.8939 86.5424 52.6286 89.3512 52.3879 92.2305C52.1473 95.1098 51.8729 97.54 51.7782 97.6309C51.5281 97.871 41.4854 100.554 40.8591 100.548C40.5684 100.545 37.9747 99.898 35.0954 99.1099L29.8603 97.6769L29.6683 95.4235C29.5627 94.1842 29.4021 92.4151 29.3113 91.4922L29.1464 89.8143H24.0669H18.9874L18.9986 90.8211C19.0196 92.7038 20.2405 105.386 20.4178 105.563C20.6228 105.768 40.1324 111.252 40.7332 111.274C40.9547 111.282 45.6516 110.033 51.1707 108.498H51.1707Z" fill="#F0BE25"/>
<path pathLength="1" d="M24.3645 123.95L8.39846 119.48L4.84612 79.7468C2.89232 57.8936 1.28809 39.5607 1.28116 39.007L1.26855 38.0002H41.0016H80.7347L80.7399 38.6043C80.747 39.4477 73.7589 118.279 73.6166 118.961C73.5144 119.45 71.588 120.045 57.3183 123.996C48.418 126.46 40.9547 128.464 40.7332 128.449C40.5117 128.433 33.1458 126.409 24.3645 123.95H24.3645ZM54.139 117.97C61.1623 116.032 67.0406 114.31 67.2018 114.144C67.4528 113.886 73.5186 47.4059 73.4942 45.1817L73.4861 44.4434H57.2439H41.0016V46.3227V48.202H31.6053C24.2684 48.202 22.2085 48.2755 22.2068 48.5376C22.2053 48.7221 22.0886 49.9 21.9468 51.1551C21.6037 54.1922 18.9874 83.5367 18.9874 84.3472V84.9819H29.9945H41.0016V92.7675C41.0016 98.8196 40.9269 100.552 40.666 100.548C40.4815 100.545 37.9747 99.898 35.0954 99.1099L29.8603 97.6769L29.6683 95.4235C29.5627 94.1842 29.4021 92.4151 29.3113 91.4922L29.1464 89.8143H24.0669H18.9874L18.9986 90.8211C19.0308 93.7007 20.2765 105.455 20.5686 105.636C20.7462 105.745 25.4163 107.087 30.9466 108.618L41.0016 111.4V116.447C41.0016 119.222 41.0844 121.493 41.1855 121.493C41.2866 121.493 47.1156 119.908 54.139 117.97ZM30.804 67.1339C31.19 62.9285 31.5584 59.44 31.6226 59.3819C31.6869 59.3237 33.8235 59.2185 36.3706 59.148L41.0016 59.0199V66.9V74.7802H35.552H30.1023L30.804 67.1339Z" fill="#E4A126"/>
</svg>
