<svg width="123" height="122" viewBox="0 0 123 122" fill="none" xmlns="http://www.w3.org/2000/svg">
<path pathLength="1" d="M121.5 1H1.5V121H121.5V1Z" fill="#F7DF1E" stroke="#F5F5F5" stroke-width="1.83206"/>
<path pathLength="1" d="M82.1095 94.7506C84.5267 98.6972 87.6714 101.598 93.2333 101.598C97.9057 101.598 100.89 99.2629 100.89 96.0363C100.89 92.1696 97.8238 90.8001 92.6809 88.5506L89.8619 87.341C81.7248 83.8744 76.319 79.5315 76.319 70.3506C76.319 61.8934 82.7629 55.4553 92.8333 55.4553C100.003 55.4553 105.157 57.9506 108.871 64.4839L100.09 70.122C98.1571 66.6553 96.0714 65.2896 92.8333 65.2896C89.5305 65.2896 87.4371 67.3848 87.4371 70.122C87.4371 73.5048 89.5324 74.8744 94.3705 76.9696L97.1895 78.1772C106.77 82.2858 112.18 86.4744 112.18 95.8915C112.18 106.044 104.205 111.606 93.4943 111.606C83.0219 111.606 76.2562 106.615 72.9457 100.074L82.1095 94.7506ZM42.2752 95.7277C44.0467 98.8706 45.6581 101.528 49.5324 101.528C53.2371 101.528 55.5743 100.078 55.5743 94.442V56.0991H66.8505V94.5944C66.8505 106.271 60.0048 111.585 50.0124 111.585C40.9838 111.585 35.7552 106.912 33.0962 101.285L42.2752 95.7277Z" fill="black" stroke="#F5F5F5" stroke-width="1.83206"/>
</svg>
