<svg width="162" height="110" viewBox="0 0 162 110" fill="none" xmlns="http://www.w3.org/2000/svg">
<path pathLength="1" d="M102.058 47.9124L57.0845 2.94259C54.4969 0.352471 50.2965 0.352471 47.7056 2.94259L38.3674 12.2821L50.2126 24.1279C52.9664 23.1981 56.1227 23.8215 58.3167 26.016C60.5221 28.2242 61.1411 31.4076 60.188 34.1707L71.6047 45.5879C74.3668 44.636 77.5536 45.251 79.7591 47.4605C82.8425 50.5432 82.8425 55.5383 79.7591 58.6218C76.6752 61.7063 71.6802 61.7063 68.5946 58.6218C66.2761 56.3014 65.7026 52.8947 66.8769 50.038L56.2295 39.3902L56.2286 67.4097C56.9804 67.7818 57.6898 68.2785 58.3163 68.9023C61.3988 71.9846 61.3988 76.9788 58.3163 80.0663C55.2328 83.1485 50.2356 83.1485 47.1554 80.0663C44.0724 76.9791 44.0724 71.9849 47.1554 68.9023C47.9173 68.1417 48.7989 67.566 49.7396 67.1801V38.9002C48.7985 38.516 47.9179 37.9446 47.1548 37.1779C44.8196 34.8444 44.2572 31.4168 45.4548 28.5491L33.7777 16.8697L2.94312 47.7046C0.352294 50.2967 0.352294 54.4972 2.94312 57.0875L47.9139 102.057C50.503 104.648 54.7019 104.648 57.2946 102.057L102.057 57.3C104.648 54.7086 104.648 50.5068 102.057 47.9162" fill="#F05133"/>
<path pathLength="1" d="M102.058 47.9124L57.0845 2.94259C54.4969 0.352471 50.2965 0.352471 47.7056 2.94259L38.3674 12.2821L50.2126 24.1279C52.9664 23.1981 56.1227 23.8215 58.3167 26.016C60.5221 28.2242 61.1411 31.4076 60.188 34.1707L71.6047 45.5879C74.3668 44.636 77.5536 45.251 79.7591 47.4605C82.8425 50.5432 82.8425 55.5383 79.7591 58.6218C76.6752 61.7063 71.6802 61.7063 68.5946 58.6218C66.2761 56.3014 65.7026 52.8947 66.8769 50.038L56.2295 39.3902L56.2286 67.4097C56.9804 67.7818 57.6898 68.2785 58.3163 68.9023C61.3988 71.9846 61.3988 76.9788 58.3163 80.0663C55.2328 83.1485 50.2356 83.1485 47.1554 80.0663C44.0724 76.9791 44.0724 71.9849 47.1554 68.9023C47.9173 68.1417 48.7989 67.566 49.7396 67.1801V38.9002C48.7985 38.516 47.9179 37.9446 47.1548 37.1779C44.8196 34.8444 44.2572 31.4168 45.4548 28.5491L33.7777 16.8697L2.94312 47.7046C0.352294 50.2967 0.352294 54.4972 2.94312 57.0875L47.9139 102.057C50.503 104.648 54.7019 104.648 57.2946 102.057L102.057 57.3C104.648 54.7086 104.648 50.5068 102.057 47.9162" stroke="#F5F5F5" stroke-width="1.69999"/>
<path pathLength="1" d="M115.951 31.1677C115.951 31.5087 115.612 31.5087 115.612 31.5087H115.273C114.934 31.5087 114.934 31.1677 114.595 30.8267C114.595 30.8267 114.256 30.4856 114.256 30.1446C114.256 29.8036 114.256 29.8036 114.595 29.8036L115.273 30.1446C115.612 30.4856 115.951 30.8267 115.951 31.1677ZM109.849 27.7574C109.849 26.0523 109.172 25.0292 108.155 25.0292C108.155 25.0292 108.155 25.3703 107.816 25.3703V26.0523H108.833C108.833 26.7344 109.172 27.0754 109.172 27.7574H109.849ZM121.713 26.0523C122.391 26.0523 122.73 26.7344 123.069 27.7574H123.747C123.408 27.4164 123.408 27.0754 123.408 26.7344C123.408 26.3933 123.408 26.0523 123.069 25.7113C122.73 25.3703 122.391 25.0292 122.052 25.0292C122.052 25.0292 121.713 25.3703 121.374 25.3703C121.374 25.7113 121.713 25.7113 121.713 26.0523ZM111.544 31.5087C111.205 31.5087 111.205 31.5087 111.205 31.1677C111.205 30.8267 111.205 30.4856 111.544 30.1446C112.222 30.1446 112.561 29.8036 112.561 29.8036C112.9 29.8036 112.9 30.1446 112.9 30.1446C112.9 30.4856 112.561 30.8267 111.883 31.5087H111.544ZM107.816 31.1677C106.46 30.4856 106.121 29.4626 106.121 27.7574C106.121 26.7344 106.121 26.0523 106.799 25.3703C107.138 24.6882 107.816 24.3472 108.494 24.3472C109.172 24.3472 109.51 24.6882 110.188 25.3703C110.527 26.3933 110.866 27.4164 110.866 28.4395V28.7805V29.1215H111.205V28.7805C111.544 28.7805 111.544 28.0985 111.544 26.7344C111.544 25.7113 111.544 24.6882 110.866 23.6651C110.188 22.6421 109.51 21.96 108.155 21.96C107.138 21.96 106.121 22.6421 105.782 23.6651C105.104 25.0292 104.968 26.0523 104.968 27.7574C104.968 29.1215 105.443 30.4856 106.799 31.8497C107.138 31.5087 107.477 31.5087 107.816 31.1677ZM150.187 79.2523C150.526 79.2523 150.526 79.1159 150.526 78.809C150.526 78.0587 150.187 77.1721 149.17 76.1831C148.153 75.16 146.458 74.5121 144.424 74.2392C144.085 74.2051 143.746 74.2051 143.746 74.2051C143.407 74.1369 143.407 74.1369 143.068 74.1369C142.73 74.1028 142.052 74.0346 141.713 73.9664C142.73 70.7949 143.068 67.9985 143.068 65.5431C143.068 62.1328 142.391 59.7457 141.035 57.6995C139.679 55.6533 138.323 54.6303 136.628 54.2892C136.289 54.6303 136.289 54.6303 136.289 54.9713C137.984 55.6533 139.679 57.0174 140.696 59.0636C141.713 61.4508 142.052 63.4969 142.052 65.8841C142.052 67.7939 141.713 70.6244 140.357 74.2392C139.001 74.7849 137.645 76.0467 136.628 78.0246C136.628 78.3316 136.628 78.5021 136.967 78.5021C136.967 78.5021 137.306 78.1951 137.645 77.6154C138.323 77.0357 138.662 76.4559 139.34 75.8762C140.357 75.2964 141.035 74.9895 142.052 74.9895C143.746 74.9895 145.441 75.2282 146.458 75.7057C147.814 76.149 148.492 76.6264 148.831 77.1721C149.17 77.6836 149.509 78.161 149.848 78.6044C149.848 79.0477 150.187 79.2523 150.187 79.2523V79.2523ZM119.002 29.8036C118.663 29.4626 118.663 28.7805 118.663 28.0985C118.663 26.7344 118.663 26.0523 119.341 25.0292C120.019 24.3472 120.696 24.0062 121.374 24.0062C122.391 24.0062 123.069 24.6882 123.747 25.3703C124.086 26.3933 124.425 27.0754 124.425 28.0985C124.425 29.8036 123.747 30.8267 122.391 31.1677C122.391 31.1677 122.73 31.5087 123.069 31.5087C123.747 31.5087 124.086 31.8497 124.764 32.1908C125.103 30.1446 125.442 28.7805 125.442 27.0754C125.442 25.0292 125.103 23.6651 124.425 22.6421C123.408 21.619 122.391 21.2779 121.035 21.2779C120.019 21.2779 119.002 21.619 117.985 22.301C117.307 23.3241 116.968 24.0062 116.968 25.0292C116.968 26.7344 117.307 28.0985 117.985 29.4626C118.324 29.4626 118.663 29.8036 119.002 29.8036ZM123.069 35.26C118.663 38.3292 115.273 39.6933 112.561 39.6933C110.188 39.6933 107.816 38.6703 105.782 36.9651C106.121 37.6472 106.46 38.3292 106.799 38.6703L108.833 40.7164C110.188 42.0805 111.883 42.7626 113.578 42.7626C115.951 42.7626 118.663 41.3985 122.052 39.0113L125.103 36.9651C125.781 36.2831 126.459 35.601 126.459 34.578C126.459 34.2369 126.459 33.8959 126.12 33.8959C125.781 33.2138 124.086 32.1908 120.696 31.1677C117.646 29.8036 115.273 29.1215 113.917 29.1215C112.9 29.1215 111.205 29.8036 108.833 31.1677C106.799 32.5318 105.443 33.8959 105.443 35.26C105.443 35.26 105.782 35.601 106.121 36.2831C108.155 37.9882 110.188 39.0113 112.222 39.0113C114.934 39.0113 118.324 37.6472 122.73 34.2369V34.919C123.069 34.919 123.069 35.26 123.069 35.26ZM130.866 104.147C132.221 106.712 134.594 108.001 137.306 108.001C137.984 108.001 138.662 107.898 139.34 107.694C140.018 107.557 140.696 107.319 141.035 107.046C141.374 106.807 141.713 106.568 142.052 106.296C142.73 106.057 142.73 105.886 143.068 105.716L148.831 100.703C150.187 99.615 151.543 98.6635 153.238 97.8382C154.593 97.0198 155.949 96.4741 156.627 96.1672C157.644 95.8944 158.322 95.4851 159 94.9395C159.339 94.428 159.678 93.78 159.678 92.9616C159.678 91.9726 159 91.2223 158.322 90.6767C157.644 90.131 156.966 89.7559 156.288 89.5172C155.61 89.2785 154.932 88.7328 153.916 87.8121C153.238 86.9254 152.56 85.6977 152.221 84.0949L151.882 82.1169C151.543 81.1962 151.543 80.5141 151.204 80.139C151.204 80.0367 151.204 80.0026 150.865 80.0026C150.526 80.0026 149.848 80.3095 149.509 80.8892C148.831 81.469 148.153 82.1169 147.475 82.799C147.136 83.481 146.119 84.0949 145.441 84.6746C144.424 85.2544 143.407 85.5613 142.73 85.5613C140.018 85.5613 138.662 84.811 137.645 83.3446C136.967 82.2534 136.628 80.9916 136.289 79.5592C135.611 78.9795 135.272 78.6726 134.594 78.6726C132.899 78.6726 132.221 80.4459 132.221 84.0267V85.1521V89.108V92.1431V93.6095V94.6326C132.221 94.9395 131.882 95.6216 131.882 96.6787C131.544 97.7359 131.544 98.9363 131.544 100.294L130.866 104.079V104.137V104.147ZM81.715 102.333C84.8674 102.797 88.4943 103.789 92.5959 105.303C96.6974 106.804 99.2058 107.588 100.121 107.588C102.494 107.588 104.46 106.531 106.087 104.488C106.426 103.827 106.426 103.049 106.426 102.156C106.426 98.9329 104.494 94.8577 100.629 89.9128L98.3245 86.8095C97.8499 86.1615 97.2737 85.1725 96.5279 83.8425C95.8161 82.5125 95.1721 81.4895 94.6636 80.7733C94.2229 79.9889 93.5111 79.2046 92.5959 78.4202C91.7146 77.6359 90.6977 77.1243 89.5791 76.8515C88.1554 77.1243 87.1724 77.6018 86.6978 78.2497C86.2233 78.8977 85.9521 79.6138 85.8843 80.3641C85.7826 81.0802 85.5792 81.5577 85.2402 81.7964C84.9013 82.001 84.325 82.1715 83.5454 82.342C83.3759 82.342 83.0708 82.342 82.6302 82.3761H81.715C79.9184 82.3761 78.6981 82.5807 78.0541 82.9218C77.2067 83.9107 76.766 85.0361 76.766 86.2297C76.766 86.7753 76.9016 87.6961 77.1728 88.992C77.4439 90.2538 77.5795 91.2769 77.5795 91.993C77.5795 93.3913 77.1728 94.7895 76.3253 96.1877C75.4779 97.6541 75.0372 98.7454 75.0372 99.5229C75.3762 100.846 77.6134 101.777 81.715 102.323V102.333ZM93.0027 71.3235C93.0027 68.9704 93.6128 66.3786 94.867 63.3094C96.0873 60.2401 97.3076 58.194 98.494 56.8299C98.4262 56.4889 98.2567 56.4889 97.9855 56.4889L97.6465 56.1478C96.6635 57.1709 95.4771 59.5581 94.0535 62.9683C92.6298 66.0376 91.884 68.8681 91.884 70.9483C91.884 72.483 92.2569 73.813 92.9349 74.9725C93.6806 76.0978 95.4771 77.7348 98.3245 79.815L101.918 82.1681C105.748 85.5101 107.782 87.8291 107.782 89.1932C107.782 89.9094 107.443 90.6255 106.426 91.4099C105.748 92.2284 104.833 92.6376 104.053 92.6376C103.985 92.6376 103.951 92.7058 103.951 92.8763C103.951 92.9104 104.29 93.5925 105.002 94.9225C106.426 96.8663 109.477 97.8212 113.544 97.8212C121.002 97.8212 126.764 94.7519 131.171 88.6135C131.171 86.9084 131.171 85.8512 130.832 85.4078V84.146C130.832 81.9294 131.171 80.2584 131.849 79.1671C132.527 78.0758 133.204 77.5642 134.221 77.5642C134.899 77.5642 135.577 77.803 136.255 78.3145C136.594 75.6886 136.594 73.4037 136.594 71.3576C136.594 68.2542 136.594 65.6966 135.916 63.3094C135.577 61.2632 134.899 59.5581 134.221 58.194C133.543 57.1709 132.865 56.1478 132.188 55.1248C131.51 54.1017 131.171 53.0786 130.493 52.0555C130.154 50.6914 129.815 49.6683 129.815 47.9632C128.798 46.2581 128.12 44.553 127.103 42.8478C126.425 41.1427 125.747 39.4376 125.069 38.0735L122.018 40.4606C118.629 42.8478 115.917 43.8709 113.544 43.8709C111.51 43.8709 109.816 43.5299 108.799 42.1658L106.765 40.4606C106.765 41.4837 106.426 42.8478 105.748 44.2119L103.612 48.3042C102.663 50.6914 102.155 52.0555 102.053 53.0786C101.918 53.7607 101.816 54.4427 101.748 54.4427L99.2058 59.5581C96.4601 64.6735 95.0704 69.4137 95.0704 73.3355C95.0704 74.1199 95.1382 74.9383 95.2737 75.7568C93.7484 74.6996 93.0027 73.2332 93.0027 71.3235V71.3235ZM117.273 103.585C112.866 103.585 109.477 104.185 107.104 105.375V105.273C105.409 107.319 103.511 108.376 100.867 108.376C99.2058 108.376 96.5957 107.728 93.0704 106.432C89.5113 105.204 86.3588 104.263 83.6132 103.642C83.342 103.564 82.7319 103.448 81.7489 103.291C80.7997 103.138 79.9184 102.981 79.1388 102.824C78.4269 102.671 77.6134 102.439 76.7321 102.125C75.8847 101.856 75.2067 101.504 74.6983 101.078C74.2305 100.648 74 100.164 74 99.6218C74 99.0762 74.1152 98.493 74.3457 97.8723C74.5627 97.4972 74.8 97.1221 75.0372 96.781C75.2745 96.4059 75.4779 96.0649 75.6135 95.7239C75.8169 95.4169 75.9525 95.11 76.0881 94.769C76.2236 94.4621 76.3592 94.1552 76.427 93.78C76.4948 93.439 76.5626 93.098 76.5626 92.7569C76.5626 92.4159 76.427 91.3928 76.1558 89.5854C75.8847 87.8121 75.7491 86.6867 75.7491 86.2092C75.7491 84.7087 76.0881 83.5151 76.8338 82.6626C77.5795 81.81 78.2914 81.3667 79.0371 81.3667H82.9352C83.2403 81.3667 83.7149 81.1962 84.4267 80.7869C84.664 80.2413 84.8674 79.798 85.003 79.3887C85.1724 78.9795 85.2402 78.6726 85.308 78.5362C85.3758 78.3316 85.4436 78.1269 85.5114 77.9564C85.647 77.7177 85.8165 77.4449 86.0538 77.1721C85.7826 76.831 85.647 76.3877 85.647 75.8421C85.647 75.4669 85.647 75.1259 85.7148 74.9213C85.7148 73.6936 86.291 71.9544 87.5113 69.6695L88.6977 67.521C89.6807 65.6795 90.4265 64.3154 90.9688 62.9513C91.5451 61.5872 92.1552 59.541 92.8332 56.8128C93.3755 54.4256 94.6636 52.0385 96.6974 49.6513L99.2397 46.5821C101.002 44.5359 102.155 42.8308 102.799 41.4667C103.443 40.1026 103.782 38.3974 103.782 37.0333C103.782 36.3513 103.612 34.3051 103.24 30.8949C102.901 27.4846 102.731 24.0744 102.731 21.0051C102.731 18.6179 102.934 16.9128 103.375 15.2077C103.816 13.5026 104.595 11.7974 105.748 10.4333C106.765 9.06923 108.121 7.70513 110.155 7.02308C112.188 6.34103 114.561 6 117.273 6C118.29 6 119.307 6 120.324 6.34103C121.341 6.34103 122.696 6.68205 124.391 7.3641C125.747 8.04615 127.103 8.72821 128.12 9.75128C129.476 10.7744 130.493 12.4795 131.51 14.1846C132.188 16.2308 132.865 18.2769 133.204 21.0051C133.543 22.7103 133.543 24.4154 133.882 26.8026C133.882 28.8487 134.221 30.2128 134.221 31.2359C134.56 32.259 134.56 33.6231 134.899 35.3282C135.238 36.6923 135.577 38.0564 136.255 39.0795C136.933 40.4436 137.611 41.8077 138.628 43.1718C139.645 44.8769 141.001 46.5821 142.357 48.6282C145.407 52.0385 147.78 55.7898 149.136 59.541C150.831 62.9513 151.848 67.3846 151.848 72.1249C151.848 74.478 151.509 76.7628 150.831 78.9795C151.509 78.9795 151.848 79.2523 152.187 79.7298C152.526 80.2072 152.865 81.2303 153.204 82.8331L153.543 85.3567C153.882 86.1069 154.221 86.8231 155.238 87.4369C155.915 88.0508 156.593 88.5623 157.61 88.9716C158.288 89.3126 159.305 89.79 159.983 90.4039C160.661 91.0859 161 91.8021 161 92.5523C161 93.7118 160.661 94.5644 159.983 95.1782C159.305 95.8603 158.627 96.3377 157.61 96.6446C156.932 96.9857 155.576 97.6677 153.543 98.6294C151.848 99.6388 150.153 100.863 148.458 102.312L145.068 105.215C143.713 106.545 142.357 107.499 141.34 108.079C140.323 108.693 138.967 109 137.611 109L135.238 108.727C132.527 108.011 130.832 106.647 129.815 104.567C124.391 103.905 119.985 103.578 117.273 103.578" fill="black"/>
<path pathLength="1" d="M117.273 103.585C112.866 103.585 109.477 104.185 107.104 105.375V105.273C105.409 107.319 103.511 108.376 100.867 108.376C99.2058 108.376 96.5957 107.728 93.0704 106.432C89.5113 105.204 86.3588 104.263 83.6132 103.642C83.342 103.564 82.7319 103.448 81.7489 103.291C80.7997 103.138 79.9184 102.981 79.1388 102.824C78.4269 102.671 77.6134 102.439 76.7321 102.125C75.8847 101.856 75.2067 101.504 74.6983 101.078C74.2305 100.648 74 100.164 74 99.6218C74 99.0762 74.1152 98.493 74.3457 97.8723C74.5627 97.4972 74.8 97.1221 75.0372 96.781C75.2745 96.4059 75.4779 96.0649 75.6135 95.7239C75.8169 95.4169 75.9525 95.11 76.0881 94.769C76.2236 94.4621 76.3592 94.1552 76.427 93.78C76.4948 93.439 76.5626 93.098 76.5626 92.7569C76.5626 92.4159 76.427 91.3928 76.1558 89.5854C75.8847 87.8121 75.7491 86.6867 75.7491 86.2092C75.7491 84.7087 76.0881 83.5151 76.8338 82.6626C77.5795 81.81 78.2914 81.3667 79.0371 81.3667H82.9352C83.2403 81.3667 83.7149 81.1962 84.4267 80.7869C84.664 80.2413 84.8674 79.798 85.003 79.3887C85.1724 78.9795 85.2402 78.6726 85.308 78.5362C85.3758 78.3316 85.4436 78.1269 85.5114 77.9564C85.647 77.7177 85.8165 77.4449 86.0538 77.1721C85.7826 76.831 85.647 76.3877 85.647 75.8421C85.647 75.4669 85.647 75.1259 85.7148 74.9213C85.7148 73.6936 86.291 71.9544 87.5113 69.6695L88.6977 67.521C89.6807 65.6795 90.4265 64.3154 90.9688 62.9513C91.5451 61.5872 92.1552 59.541 92.8332 56.8128C93.3755 54.4256 94.6636 52.0385 96.6974 49.6513L99.2397 46.5821C101.002 44.5359 102.155 42.8308 102.799 41.4667C103.443 40.1026 103.782 38.3974 103.782 37.0333C103.782 36.3513 103.612 34.3051 103.24 30.8949C102.901 27.4846 102.731 24.0744 102.731 21.0051C102.731 18.6179 102.934 16.9128 103.375 15.2077C103.816 13.5026 104.595 11.7974 105.748 10.4333C106.765 9.06923 108.121 7.70513 110.155 7.02308C112.188 6.34103 114.561 6 117.273 6C118.29 6 119.307 6 120.324 6.34103C121.341 6.34103 122.696 6.68205 124.391 7.3641C125.747 8.04615 127.103 8.72821 128.12 9.75128C129.476 10.7744 130.493 12.4795 131.51 14.1846C132.188 16.2308 132.865 18.2769 133.204 21.0051C133.543 22.7103 133.543 24.4154 133.882 26.8026C133.882 28.8487 134.221 30.2128 134.221 31.2359C134.56 32.259 134.56 33.6231 134.899 35.3282C135.238 36.6923 135.577 38.0564 136.255 39.0795C136.933 40.4436 137.611 41.8077 138.628 43.1718C139.645 44.8769 141.001 46.5821 142.357 48.6282C145.407 52.0385 147.78 55.7898 149.136 59.541C150.831 62.9513 151.848 67.3846 151.848 72.1249C151.848 74.478 151.509 76.7628 150.831 78.9795C151.509 78.9795 151.848 79.2523 152.187 79.7298C152.526 80.2072 152.865 81.2303 153.204 82.8331L153.543 85.3567C153.882 86.1069 154.221 86.8231 155.238 87.4369C155.915 88.0508 156.593 88.5623 157.61 88.9716C158.288 89.3126 159.305 89.79 159.983 90.4039C160.661 91.0859 161 91.8021 161 92.5523C161 93.7118 160.661 94.5644 159.983 95.1782C159.305 95.8603 158.627 96.3377 157.61 96.6446C156.932 96.9857 155.576 97.6677 153.543 98.6294C151.848 99.6388 150.153 100.863 148.458 102.312L145.068 105.215C143.713 106.545 142.357 107.499 141.34 108.079C140.323 108.693 138.967 109 137.611 109L135.238 108.727C132.527 108.011 130.832 106.647 129.815 104.567C124.391 103.905 119.985 103.578 117.273 103.578M115.951 31.1677C115.951 31.5087 115.612 31.5087 115.612 31.5087H115.273C114.934 31.5087 114.934 31.1677 114.595 30.8267C114.595 30.8267 114.256 30.4856 114.256 30.1446C114.256 29.8036 114.256 29.8036 114.595 29.8036L115.273 30.1446C115.612 30.4856 115.951 30.8267 115.951 31.1677ZM109.849 27.7574C109.849 26.0523 109.172 25.0292 108.155 25.0292C108.155 25.0292 108.155 25.3703 107.816 25.3703V26.0523H108.833C108.833 26.7344 109.172 27.0754 109.172 27.7574H109.849ZM121.713 26.0523C122.391 26.0523 122.73 26.7344 123.069 27.7574H123.747C123.408 27.4164 123.408 27.0754 123.408 26.7344C123.408 26.3933 123.408 26.0523 123.069 25.7113C122.73 25.3703 122.391 25.0292 122.052 25.0292C122.052 25.0292 121.713 25.3703 121.374 25.3703C121.374 25.7113 121.713 25.7113 121.713 26.0523ZM111.544 31.5087C111.205 31.5087 111.205 31.5087 111.205 31.1677C111.205 30.8267 111.205 30.4856 111.544 30.1446C112.222 30.1446 112.561 29.8036 112.561 29.8036C112.9 29.8036 112.9 30.1446 112.9 30.1446C112.9 30.4856 112.561 30.8267 111.883 31.5087H111.544ZM107.816 31.1677C106.46 30.4856 106.121 29.4626 106.121 27.7574C106.121 26.7344 106.121 26.0523 106.799 25.3703C107.138 24.6882 107.816 24.3472 108.494 24.3472C109.172 24.3472 109.51 24.6882 110.188 25.3703C110.527 26.3933 110.866 27.4164 110.866 28.4395V28.7805V29.1215H111.205V28.7805C111.544 28.7805 111.544 28.0985 111.544 26.7344C111.544 25.7113 111.544 24.6882 110.866 23.6651C110.188 22.6421 109.51 21.96 108.155 21.96C107.138 21.96 106.121 22.6421 105.782 23.6651C105.104 25.0292 104.968 26.0523 104.968 27.7574C104.968 29.1215 105.443 30.4856 106.799 31.8497C107.138 31.5087 107.477 31.5087 107.816 31.1677ZM150.187 79.2523C150.526 79.2523 150.526 79.1159 150.526 78.809C150.526 78.0587 150.187 77.1721 149.17 76.1831C148.153 75.16 146.458 74.5121 144.424 74.2392C144.085 74.2051 143.746 74.2051 143.746 74.2051C143.407 74.1369 143.407 74.1369 143.068 74.1369C142.73 74.1028 142.052 74.0346 141.713 73.9664C142.73 70.7949 143.068 67.9985 143.068 65.5431C143.068 62.1328 142.391 59.7457 141.035 57.6995C139.679 55.6533 138.323 54.6303 136.628 54.2892C136.289 54.6303 136.289 54.6303 136.289 54.9713C137.984 55.6533 139.679 57.0174 140.696 59.0636C141.713 61.4508 142.052 63.4969 142.052 65.8841C142.052 67.7939 141.713 70.6244 140.357 74.2392C139.001 74.7849 137.645 76.0467 136.628 78.0246C136.628 78.3316 136.628 78.5021 136.967 78.5021C136.967 78.5021 137.306 78.1951 137.645 77.6154C138.323 77.0357 138.662 76.4559 139.34 75.8762C140.357 75.2964 141.035 74.9895 142.052 74.9895C143.746 74.9895 145.441 75.2282 146.458 75.7057C147.814 76.149 148.492 76.6264 148.831 77.1721C149.17 77.6836 149.509 78.161 149.848 78.6044C149.848 79.0477 150.187 79.2523 150.187 79.2523V79.2523ZM119.002 29.8036C118.663 29.4626 118.663 28.7805 118.663 28.0985C118.663 26.7344 118.663 26.0523 119.341 25.0292C120.019 24.3472 120.696 24.0062 121.374 24.0062C122.391 24.0062 123.069 24.6882 123.747 25.3703C124.086 26.3933 124.425 27.0754 124.425 28.0985C124.425 29.8036 123.747 30.8267 122.391 31.1677C122.391 31.1677 122.73 31.5087 123.069 31.5087C123.747 31.5087 124.086 31.8497 124.764 32.1908C125.103 30.1446 125.442 28.7805 125.442 27.0754C125.442 25.0292 125.103 23.6651 124.425 22.6421C123.408 21.619 122.391 21.2779 121.035 21.2779C120.019 21.2779 119.002 21.619 117.985 22.301C117.307 23.3241 116.968 24.0062 116.968 25.0292C116.968 26.7344 117.307 28.0985 117.985 29.4626C118.324 29.4626 118.663 29.8036 119.002 29.8036ZM123.069 35.26C118.663 38.3292 115.273 39.6933 112.561 39.6933C110.188 39.6933 107.816 38.6703 105.782 36.9651C106.121 37.6472 106.46 38.3292 106.799 38.6703L108.833 40.7164C110.188 42.0805 111.883 42.7626 113.578 42.7626C115.951 42.7626 118.663 41.3985 122.052 39.0113L125.103 36.9651C125.781 36.2831 126.459 35.601 126.459 34.578C126.459 34.2369 126.459 33.8959 126.12 33.8959C125.781 33.2138 124.086 32.1908 120.696 31.1677C117.646 29.8036 115.273 29.1215 113.917 29.1215C112.9 29.1215 111.205 29.8036 108.833 31.1677C106.799 32.5318 105.443 33.8959 105.443 35.26C105.443 35.26 105.782 35.601 106.121 36.2831C108.155 37.9882 110.188 39.0113 112.222 39.0113C114.934 39.0113 118.324 37.6472 122.73 34.2369V34.919C123.069 34.919 123.069 35.26 123.069 35.26ZM130.866 104.147C132.221 106.712 134.594 108.001 137.306 108.001C137.984 108.001 138.662 107.898 139.34 107.694C140.018 107.557 140.696 107.319 141.035 107.046C141.374 106.807 141.713 106.568 142.052 106.296C142.73 106.057 142.73 105.886 143.068 105.716L148.831 100.703C150.187 99.615 151.543 98.6635 153.238 97.8382C154.593 97.0198 155.949 96.4741 156.627 96.1672C157.644 95.8944 158.322 95.4851 159 94.9395C159.339 94.428 159.678 93.78 159.678 92.9616C159.678 91.9726 159 91.2223 158.322 90.6767C157.644 90.131 156.966 89.7559 156.288 89.5172C155.61 89.2785 154.932 88.7328 153.916 87.8121C153.238 86.9254 152.56 85.6977 152.221 84.0949L151.882 82.1169C151.543 81.1962 151.543 80.5141 151.204 80.139C151.204 80.0367 151.204 80.0026 150.865 80.0026C150.526 80.0026 149.848 80.3095 149.509 80.8892C148.831 81.469 148.153 82.1169 147.475 82.799C147.136 83.481 146.119 84.0949 145.441 84.6746C144.424 85.2544 143.407 85.5613 142.73 85.5613C140.018 85.5613 138.662 84.811 137.645 83.3446C136.967 82.2534 136.628 80.9916 136.289 79.5592C135.611 78.9795 135.272 78.6726 134.594 78.6726C132.899 78.6726 132.221 80.4459 132.221 84.0267V85.1521V89.108V92.1431V93.6095V94.6326C132.221 94.9395 131.882 95.6216 131.882 96.6787C131.544 97.7359 131.544 98.9363 131.544 100.294L130.866 104.079V104.137V104.147ZM81.715 102.333C84.8674 102.797 88.4943 103.789 92.5959 105.303C96.6974 106.804 99.2058 107.588 100.121 107.588C102.494 107.588 104.46 106.531 106.087 104.488C106.426 103.827 106.426 103.049 106.426 102.156C106.426 98.9329 104.494 94.8577 100.629 89.9128L98.3245 86.8095C97.8499 86.1615 97.2737 85.1725 96.5279 83.8425C95.8161 82.5125 95.1721 81.4895 94.6636 80.7733C94.2229 79.9889 93.5111 79.2046 92.5959 78.4202C91.7146 77.6359 90.6977 77.1243 89.5791 76.8515C88.1554 77.1243 87.1724 77.6018 86.6978 78.2497C86.2233 78.8977 85.9521 79.6138 85.8843 80.3641C85.7826 81.0802 85.5792 81.5577 85.2402 81.7964C84.9013 82.001 84.325 82.1715 83.5454 82.342C83.3759 82.342 83.0708 82.342 82.6302 82.3761H81.715C79.9184 82.3761 78.6981 82.5807 78.0541 82.9218C77.2067 83.9107 76.766 85.0361 76.766 86.2297C76.766 86.7753 76.9016 87.6961 77.1728 88.992C77.4439 90.2538 77.5795 91.2769 77.5795 91.993C77.5795 93.3913 77.1728 94.7895 76.3253 96.1877C75.4779 97.6541 75.0372 98.7454 75.0372 99.5229C75.3762 100.846 77.6134 101.777 81.715 102.323V102.333ZM93.0027 71.3235C93.0027 68.9704 93.6128 66.3786 94.867 63.3094C96.0873 60.2401 97.3076 58.194 98.494 56.8299C98.4262 56.4889 98.2567 56.4889 97.9855 56.4889L97.6465 56.1478C96.6635 57.1709 95.4771 59.5581 94.0535 62.9683C92.6298 66.0376 91.884 68.8681 91.884 70.9483C91.884 72.483 92.2569 73.813 92.9349 74.9725C93.6806 76.0978 95.4771 77.7348 98.3245 79.815L101.918 82.1681C105.748 85.5101 107.782 87.8291 107.782 89.1932C107.782 89.9094 107.443 90.6255 106.426 91.4099C105.748 92.2284 104.833 92.6376 104.053 92.6376C103.985 92.6376 103.951 92.7058 103.951 92.8763C103.951 92.9104 104.29 93.5925 105.002 94.9225C106.426 96.8663 109.477 97.8212 113.544 97.8212C121.002 97.8212 126.764 94.7519 131.171 88.6135C131.171 86.9084 131.171 85.8512 130.832 85.4078V84.146C130.832 81.9294 131.171 80.2584 131.849 79.1671C132.527 78.0758 133.204 77.5642 134.221 77.5642C134.899 77.5642 135.577 77.803 136.255 78.3145C136.594 75.6886 136.594 73.4037 136.594 71.3576C136.594 68.2542 136.594 65.6966 135.916 63.3094C135.577 61.2632 134.899 59.5581 134.221 58.194C133.543 57.1709 132.865 56.1478 132.188 55.1248C131.51 54.1017 131.171 53.0786 130.493 52.0555C130.154 50.6914 129.815 49.6683 129.815 47.9632C128.798 46.2581 128.12 44.553 127.103 42.8478C126.425 41.1427 125.747 39.4376 125.069 38.0735L122.018 40.4606C118.629 42.8478 115.917 43.8709 113.544 43.8709C111.51 43.8709 109.816 43.5299 108.799 42.1658L106.765 40.4606C106.765 41.4837 106.426 42.8478 105.748 44.2119L103.612 48.3042C102.663 50.6914 102.155 52.0555 102.053 53.0786C101.918 53.7607 101.816 54.4427 101.748 54.4427L99.2058 59.5581C96.4601 64.6735 95.0704 69.4137 95.0704 73.3355C95.0704 74.1199 95.1382 74.9383 95.2737 75.7568C93.7484 74.6996 93.0027 73.2332 93.0027 71.3235V71.3235Z" stroke="#F5F5F5" stroke-width="1.68841"/>
</svg>
