<svg width="104" height="122" viewBox="0 0 104 122" fill="none" xmlns="http://www.w3.org/2000/svg">
<path pathLength="1" d="M50.1962 30.3216C50.1962 30.7189 49.8015 30.7189 49.8015 30.7189H49.4068C49.0121 30.7189 49.0121 30.3216 48.6174 29.9243C48.6174 29.9243 48.2227 29.527 48.2227 29.1297C48.2227 28.7323 48.2227 28.7323 48.6174 28.7323L49.4068 29.1297C49.8015 29.527 50.1962 29.9243 50.1962 30.3216ZM43.0916 26.3485C43.0916 24.3619 42.3022 23.17 41.118 23.17C41.118 23.17 41.118 23.5673 40.7233 23.5673V24.3619H41.9075C41.9075 25.1565 42.3022 25.5538 42.3022 26.3485H43.0916ZM56.9062 24.3619C57.6956 24.3619 58.0903 25.1565 58.485 26.3485H59.2744C58.8797 25.9512 58.8797 25.5538 58.8797 25.1565C58.8797 24.7592 58.8797 24.3619 58.485 23.9646C58.0903 23.5673 57.6956 23.17 57.3009 23.17C57.3009 23.17 56.9062 23.5673 56.5115 23.5673C56.5115 23.9646 56.9062 23.9646 56.9062 24.3619ZM45.0651 30.7189C44.6704 30.7189 44.6704 30.7189 44.6704 30.3216C44.6704 29.9243 44.6704 29.527 45.0651 29.1297C45.8545 29.1297 46.2492 28.7323 46.2492 28.7323C46.6439 28.7323 46.6439 29.1297 46.6439 29.1297C46.6439 29.527 46.2492 29.9243 45.4598 30.7189H45.0651ZM40.7233 30.3216C39.1445 29.527 38.7498 28.335 38.7498 26.3485C38.7498 25.1565 38.7498 24.3619 39.5392 23.5673C39.9339 22.7727 40.7233 22.3754 41.5127 22.3754C42.3022 22.3754 42.6969 22.7727 43.4863 23.5673C43.881 24.7592 44.2757 25.9512 44.2757 27.1431V27.5404V27.9377H44.6704V27.5404C45.0651 27.5404 45.0651 26.7458 45.0651 25.1565C45.0651 23.9646 45.0651 22.7727 44.2757 21.5807C43.4863 20.3888 42.6969 19.5942 41.118 19.5942C39.9339 19.5942 38.7498 20.3888 38.3551 21.5807C37.5657 23.17 37.4078 24.3619 37.4078 26.3485C37.4078 27.9377 37.9604 29.527 39.5392 31.1162C39.9339 30.7189 40.3286 30.7189 40.7233 30.3216ZM90.0614 86.3425C90.4561 86.3425 90.4561 86.1836 90.4561 85.826C90.4561 84.9519 90.0614 83.9189 88.8772 82.7667C87.6931 81.5748 85.7196 80.8199 83.3514 80.502C82.9567 80.4623 82.562 80.4623 82.562 80.4623C82.1673 80.3828 82.1673 80.3828 81.7726 80.3828C81.3779 80.3431 80.5885 80.2636 80.1938 80.1842C81.3779 76.4892 81.7726 73.2312 81.7726 70.3706C81.7726 66.3975 80.9832 63.6163 79.4043 61.2324C77.8255 58.8486 76.2467 57.6566 74.2732 57.2593C73.8785 57.6566 73.8785 57.6566 73.8785 58.0539C75.852 58.8486 77.8255 60.4378 79.0096 62.8217C80.1938 65.6029 80.5885 67.9867 80.5885 70.7679C80.5885 72.9928 80.1938 76.2905 78.6149 80.502C77.0361 81.1377 75.4573 82.6078 74.2732 84.9122C74.2732 85.2698 74.2732 85.4684 74.6679 85.4684C74.6679 85.4684 75.0626 85.1108 75.4573 84.4354C76.2467 83.76 76.6414 83.0846 77.4308 82.4091C78.6149 81.7337 79.4043 81.3761 80.5885 81.3761C82.562 81.3761 84.5355 81.6542 85.7196 82.2105C87.2984 82.727 88.0878 83.2832 88.4825 83.9189C88.8772 84.5149 89.2719 85.0711 89.6667 85.5876C89.6667 86.1041 90.0614 86.3425 90.0614 86.3425V86.3425ZM53.7486 28.7323C53.3539 28.335 53.3539 27.5404 53.3539 26.7458C53.3539 25.1565 53.3539 24.3619 54.1433 23.17C54.9327 22.3754 55.7221 21.978 56.5115 21.978C57.6956 21.978 58.485 22.7727 59.2744 23.5673C59.6691 24.7592 60.0638 25.5538 60.0638 26.7458C60.0638 28.7323 59.2744 29.9243 57.6956 30.3216C57.6956 30.3216 58.0903 30.7189 58.485 30.7189C59.2744 30.7189 59.6691 31.1162 60.4585 31.5135C60.8532 29.1297 61.248 27.5404 61.248 25.5538C61.248 23.17 60.8532 21.5807 60.0638 20.3888C58.8797 19.1969 57.6956 18.7996 56.1168 18.7996C54.9327 18.7996 53.7486 19.1969 52.5645 19.9915C51.7751 21.1834 51.3804 21.978 51.3804 23.17C51.3804 25.1565 51.7751 26.7458 52.5645 28.335C52.9592 28.335 53.3539 28.7323 53.7486 28.7323ZM58.485 35.0893C53.3539 38.6651 49.4068 40.2544 46.2492 40.2544C43.4863 40.2544 40.7233 39.0624 38.3551 37.0759C38.7498 37.8705 39.1445 38.6651 39.5392 39.0624L41.9075 41.4463C43.4863 43.0356 45.4598 43.8302 47.4333 43.8302C50.1962 43.8302 53.3539 42.2409 57.3009 39.4598L60.8532 37.0759C61.6427 36.2813 62.4321 35.4866 62.4321 34.2947C62.4321 33.8974 62.4321 33.5001 62.0374 33.5001C61.6427 32.7055 59.6691 31.5135 55.7221 30.3216C52.1698 28.7323 49.4068 27.9377 47.828 27.9377C46.6439 27.9377 44.6704 28.7323 41.9075 30.3216C39.5392 31.9108 37.9604 33.5001 37.9604 35.0893C37.9604 35.0893 38.3551 35.4866 38.7498 36.2813C41.118 38.2678 43.4863 39.4598 45.8545 39.4598C49.0121 39.4598 52.9592 37.8705 58.0903 33.8974V34.692C58.485 34.692 58.485 35.0893 58.485 35.0893ZM67.5632 115.346C69.142 118.334 71.905 119.836 75.0626 119.836C75.852 119.836 76.6414 119.717 77.4308 119.478C78.2202 119.319 79.0096 119.041 79.4043 118.723C79.799 118.445 80.1938 118.167 80.5885 117.849C81.3779 117.571 81.3779 117.373 81.7726 117.174L88.4825 111.333C90.0614 110.066 91.6402 108.957 93.6137 107.996C95.1925 107.042 96.7713 106.407 97.5607 106.049C98.7448 105.731 99.5343 105.255 100.324 104.619C100.718 104.023 101.113 103.268 101.113 102.314C101.113 101.162 100.324 100.288 99.5343 99.6525C98.7448 99.0168 97.9554 98.5797 97.166 98.3016C96.3766 98.0235 95.5872 97.3878 94.4031 96.315C93.6137 95.282 92.8243 93.8517 92.4296 91.9843L92.0349 89.6799C91.6402 88.6072 91.6402 87.8126 91.2455 87.3755C91.2455 87.2563 91.2455 87.2166 90.8508 87.2166C90.4561 87.2166 89.6667 87.5742 89.2719 88.2496C88.4825 88.925 87.6931 89.6799 86.9037 90.4746C86.509 91.2692 85.3249 91.9843 84.5355 92.6598C83.3514 93.3352 82.1673 93.6928 81.3779 93.6928C78.2202 93.6928 76.6414 92.8187 75.4573 91.1103C74.6679 89.8389 74.2732 88.3688 73.8785 86.7001C73.0891 86.0247 72.6944 85.6671 71.905 85.6671C69.9314 85.6671 69.142 87.7331 69.142 91.9049V93.216V97.8248V101.361V103.069V104.261C69.142 104.619 68.7473 105.413 68.7473 106.645C68.3526 107.877 68.3526 109.275 68.3526 110.857L67.5632 115.267V115.334V115.346ZM10.3311 113.233C14.0019 113.773 18.2252 114.929 23.0011 116.693C27.777 118.441 30.6979 119.355 31.7636 119.355C34.5265 119.355 36.8158 118.123 38.7104 115.744C39.1051 114.973 39.1051 114.067 39.1051 113.026C39.1051 109.271 36.8552 104.523 32.3556 98.7625L29.6716 95.1469C29.119 94.392 28.448 93.2398 27.5797 91.6903C26.7508 90.1408 26.0009 88.9489 25.4088 88.1145C24.8957 87.2007 24.0668 86.2869 23.0011 85.3731C21.9749 84.4593 20.7908 83.8633 19.4883 83.5454C17.8305 83.8633 16.6859 84.4195 16.1333 85.1744C15.5807 85.9293 15.2649 86.7637 15.186 87.6377C15.0676 88.4721 14.8308 89.0283 14.436 89.3065C14.0413 89.5448 13.3703 89.7435 12.4625 89.9422C12.2652 89.9422 11.9099 89.9422 11.3968 89.9819H10.3311C8.23919 89.9819 6.81826 90.2203 6.06832 90.6176C5.08156 91.7698 4.56844 93.0809 4.56844 94.4715C4.56844 95.1072 4.72632 96.1799 5.04209 97.6897C5.35785 99.1598 5.51573 100.352 5.51573 101.186C5.51573 102.815 5.04209 104.444 4.05533 106.073C3.06857 107.781 2.55545 109.053 2.55545 109.959C2.95016 111.5 5.5552 112.585 10.3311 113.221V113.233ZM23.4748 77.105C23.4748 74.3636 24.1852 71.344 25.6456 67.7682C27.0666 64.1924 28.4875 61.8085 29.869 60.2193C29.79 59.822 29.5927 59.822 29.2769 59.822L28.8822 59.4247C27.7376 60.6166 26.3561 63.3978 24.6984 67.3709C23.0406 70.9467 22.1722 74.2444 22.1722 76.668C22.1722 78.4559 22.6064 80.0054 23.3958 81.3563C24.2642 82.6674 26.3561 84.5745 29.6716 86.9981L33.8555 89.7395C38.3156 93.6332 40.6839 96.3349 40.6839 97.9241C40.6839 98.7585 40.2892 99.5929 39.1051 100.507C38.3156 101.46 37.2499 101.937 36.3421 101.937C36.2632 101.937 36.2237 102.016 36.2237 102.215C36.2237 102.255 36.6184 103.049 37.4473 104.599C39.1051 106.864 42.6574 107.976 47.3938 107.976C56.0773 107.976 62.7873 104.4 67.9185 97.2487C67.9185 95.2622 67.9185 94.0305 67.5237 93.514V92.0439C67.5237 89.4614 67.9185 87.5146 68.7079 86.2432C69.4973 84.9718 70.2867 84.3758 71.4708 84.3758C72.2602 84.3758 73.0496 84.6539 73.839 85.2499C74.2337 82.1906 74.2337 79.5286 74.2337 77.1448C74.2337 73.5292 74.2337 70.5494 73.4443 67.7682C73.0496 65.3843 72.2602 63.3978 71.4708 61.8085C70.6814 60.6166 69.892 59.4247 69.1026 58.2327C68.3132 57.0408 67.9185 55.8489 67.129 54.6569C66.7343 53.0677 66.3396 51.8757 66.3396 49.8892C65.1555 47.9026 64.3661 45.9161 63.182 43.9295C62.3926 41.9429 61.6032 39.9564 60.8138 38.3671L57.2614 41.1483C53.3144 43.9295 50.1568 45.1214 47.3938 45.1214C45.0256 45.1214 43.0521 44.7241 41.868 43.1349L39.4998 41.1483C39.4998 42.3403 39.1051 43.9295 38.3156 45.5188L35.829 50.2865C34.7238 53.0677 34.1318 54.6569 34.0134 55.8489C33.8555 56.6435 33.7371 57.4381 33.6581 57.4381L30.6979 63.3978C27.5008 69.3574 25.8825 74.8801 25.8825 79.4492C25.8825 80.363 25.9614 81.3165 26.1193 82.2701C24.3431 81.0384 23.4748 79.33 23.4748 77.105V77.105ZM51.7356 114.691C46.6044 114.691 42.6574 115.39 39.8945 116.777V116.657C37.9209 119.041 35.7106 120.273 32.6319 120.273C30.6979 120.273 27.6586 119.518 23.5537 118.008C19.4093 116.578 15.7386 115.481 12.5415 114.758C12.2257 114.667 11.5152 114.532 10.3706 114.349C9.26542 114.17 8.23919 113.987 7.33137 113.805C6.50249 113.626 5.5552 113.356 4.52897 112.99C3.54221 112.676 2.7528 112.267 2.16075 111.77C1.61606 111.27 1.34766 110.706 1.34766 110.074C1.34766 109.438 1.48186 108.759 1.75025 108.036C2.00287 107.599 2.27916 107.162 2.55545 106.764C2.83174 106.327 3.06857 105.93 3.22645 105.533C3.46327 105.175 3.62115 104.818 3.77903 104.42C3.93692 104.063 4.0948 103.705 4.17374 103.268C4.25268 102.871 4.33162 102.473 4.33162 102.076C4.33162 101.679 4.17374 100.487 3.85797 98.3811C3.54221 96.315 3.38433 95.0039 3.38433 94.4477C3.38433 92.6995 3.77903 91.3089 4.64738 90.3156C5.51573 89.3224 6.34461 88.8058 7.21296 88.8058H11.7521C12.1073 88.8058 12.6599 88.6072 13.4888 88.1304C13.765 87.4947 14.0019 86.9782 14.1598 86.5014C14.3571 86.0247 14.436 85.6671 14.515 85.5082C14.5939 85.2698 14.6729 85.0314 14.7518 84.8327C14.9097 84.5546 15.107 84.2368 15.3833 83.9189C15.0676 83.5216 14.9097 83.0051 14.9097 82.3694C14.9097 81.9324 14.9097 81.535 14.9886 81.2967C14.9886 79.8663 15.6596 77.84 17.0806 75.1781L18.462 72.675C19.6067 70.5295 20.475 68.9403 21.1065 67.351C21.7775 65.7618 22.488 63.3779 23.2774 60.1994C23.9089 57.4182 25.4088 54.6371 27.777 51.8559L30.7373 48.2801C32.7898 45.8962 34.1318 43.9096 34.8817 42.3204C35.6317 40.7311 36.0264 38.7446 36.0264 37.1553C36.0264 36.3607 35.829 33.9769 35.3948 30.0037C35.0001 26.0306 34.8028 22.0575 34.8028 18.4817C34.8028 15.7005 35.0396 13.714 35.5527 11.7274C36.0658 9.74085 36.9737 7.7543 38.3156 6.16505C39.4998 4.5758 41.0786 2.98656 43.4468 2.19193C45.815 1.39731 48.578 1 51.7356 1C52.9197 1 54.1038 1 55.2879 1.39731C56.472 1.39731 58.0508 1.79462 60.0244 2.58925C61.6032 3.38387 63.182 4.17849 64.3661 5.37043C65.9449 6.56236 67.129 8.54891 68.3132 10.5355C69.1026 12.9193 69.892 15.3032 70.2867 18.4817C70.6814 20.4683 70.6814 22.4548 71.0761 25.236C71.0761 27.6199 71.4708 29.2091 71.4708 30.401C71.8655 31.593 71.8655 33.1822 72.2602 35.1688C72.6549 36.758 73.0496 38.3473 73.839 39.5392C74.6284 41.1285 75.4178 42.7177 76.6019 44.307C77.7861 46.2935 79.3649 48.2801 80.9437 50.6639C84.496 54.6371 87.259 59.0075 88.8378 63.3779C90.8113 67.351 91.9954 72.5161 91.9954 78.0387C91.9954 80.7802 91.6007 83.4421 90.8113 86.0247C91.6007 86.0247 91.9954 86.3425 92.3901 86.8987C92.7848 87.455 93.1795 88.6469 93.5742 90.5143L93.9689 93.4544C94.3636 94.3285 94.7583 95.1628 95.9424 95.878C96.7319 96.5932 97.5213 97.1891 98.7054 97.6659C99.4948 98.0632 100.679 98.6194 101.468 99.3346C102.258 100.129 102.652 100.964 102.652 101.838C102.652 103.189 102.258 104.182 101.468 104.897C100.679 105.692 99.8895 106.248 98.7054 106.605C97.916 107.003 96.3371 107.797 93.9689 108.918C91.9954 110.094 90.0219 111.52 88.0484 113.209L84.1013 116.59C82.5225 118.139 80.9437 119.252 79.7596 119.927C78.5755 120.642 76.9966 121 75.4178 121L72.6549 120.682C69.4973 119.848 67.5237 118.259 66.3396 115.835C60.0244 115.064 54.8932 114.683 51.7356 114.683" fill="black"/>
<path pathLength="1" d="M51.7356 114.691C46.6044 114.691 42.6574 115.39 39.8945 116.777V116.657C37.9209 119.041 35.7106 120.273 32.6319 120.273C30.6979 120.273 27.6586 119.518 23.5537 118.008C19.4093 116.578 15.7386 115.481 12.5415 114.758C12.2257 114.667 11.5152 114.532 10.3706 114.349C9.26542 114.17 8.23919 113.987 7.33137 113.805C6.50249 113.626 5.5552 113.356 4.52897 112.99C3.54221 112.676 2.7528 112.267 2.16075 111.77C1.61606 111.27 1.34766 110.706 1.34766 110.074C1.34766 109.438 1.48186 108.759 1.75025 108.036C2.00287 107.599 2.27916 107.162 2.55545 106.764C2.83174 106.327 3.06857 105.93 3.22645 105.533C3.46327 105.175 3.62115 104.818 3.77903 104.42C3.93692 104.063 4.0948 103.705 4.17374 103.268C4.25268 102.871 4.33162 102.473 4.33162 102.076C4.33162 101.679 4.17374 100.487 3.85797 98.3811C3.54221 96.315 3.38433 95.0039 3.38433 94.4477C3.38433 92.6995 3.77903 91.3089 4.64738 90.3156C5.51573 89.3224 6.34461 88.8058 7.21296 88.8058H11.7521C12.1073 88.8058 12.6599 88.6072 13.4888 88.1304C13.765 87.4947 14.0019 86.9782 14.1598 86.5014C14.3571 86.0247 14.436 85.6671 14.515 85.5082C14.5939 85.2698 14.6729 85.0314 14.7518 84.8327C14.9097 84.5546 15.107 84.2368 15.3833 83.9189C15.0676 83.5216 14.9097 83.0051 14.9097 82.3694C14.9097 81.9324 14.9097 81.535 14.9886 81.2967C14.9886 79.8663 15.6596 77.84 17.0806 75.1781L18.462 72.675C19.6067 70.5295 20.475 68.9403 21.1065 67.351C21.7775 65.7618 22.488 63.3779 23.2774 60.1994C23.9089 57.4182 25.4088 54.6371 27.777 51.8559L30.7373 48.2801C32.7898 45.8962 34.1318 43.9096 34.8817 42.3204C35.6317 40.7311 36.0264 38.7446 36.0264 37.1553C36.0264 36.3607 35.829 33.9769 35.3948 30.0037C35.0001 26.0306 34.8028 22.0575 34.8028 18.4817C34.8028 15.7005 35.0396 13.714 35.5527 11.7274C36.0658 9.74085 36.9737 7.7543 38.3156 6.16505C39.4998 4.5758 41.0786 2.98656 43.4468 2.19193C45.815 1.39731 48.578 1 51.7356 1C52.9197 1 54.1038 1 55.2879 1.39731C56.472 1.39731 58.0508 1.79462 60.0244 2.58925C61.6032 3.38387 63.182 4.17849 64.3661 5.37043C65.9449 6.56236 67.129 8.54891 68.3132 10.5355C69.1026 12.9193 69.892 15.3032 70.2867 18.4817C70.6814 20.4683 70.6814 22.4548 71.0761 25.236C71.0761 27.6199 71.4708 29.2091 71.4708 30.401C71.8655 31.593 71.8655 33.1822 72.2602 35.1688C72.6549 36.758 73.0496 38.3473 73.839 39.5392C74.6284 41.1285 75.4178 42.7177 76.6019 44.307C77.7861 46.2935 79.3649 48.2801 80.9437 50.6639C84.496 54.6371 87.259 59.0075 88.8378 63.3779C90.8113 67.351 91.9954 72.5161 91.9954 78.0387C91.9954 80.7802 91.6007 83.4421 90.8113 86.0247C91.6007 86.0247 91.9954 86.3425 92.3901 86.8987C92.7848 87.455 93.1795 88.6469 93.5742 90.5143L93.9689 93.4544C94.3636 94.3285 94.7583 95.1628 95.9424 95.878C96.7319 96.5932 97.5213 97.1891 98.7054 97.6659C99.4948 98.0632 100.679 98.6194 101.468 99.3346C102.258 100.129 102.652 100.964 102.652 101.838C102.652 103.189 102.258 104.182 101.468 104.897C100.679 105.692 99.8895 106.248 98.7054 106.605C97.916 107.003 96.3371 107.797 93.9689 108.918C91.9954 110.094 90.0219 111.52 88.0484 113.209L84.1013 116.59C82.5225 118.139 80.9437 119.252 79.7596 119.927C78.5755 120.642 76.9966 121 75.4178 121L72.6549 120.682C69.4973 119.848 67.5237 118.259 66.3396 115.835C60.0244 115.064 54.8932 114.683 51.7356 114.683M50.1962 30.3216C50.1962 30.7189 49.8015 30.7189 49.8015 30.7189H49.4068C49.0121 30.7189 49.0121 30.3216 48.6174 29.9243C48.6174 29.9243 48.2227 29.527 48.2227 29.1297C48.2227 28.7323 48.2227 28.7323 48.6174 28.7323L49.4068 29.1297C49.8015 29.527 50.1962 29.9243 50.1962 30.3216ZM43.0916 26.3485C43.0916 24.3619 42.3022 23.17 41.118 23.17C41.118 23.17 41.118 23.5673 40.7233 23.5673V24.3619H41.9075C41.9075 25.1565 42.3022 25.5538 42.3022 26.3485H43.0916ZM56.9062 24.3619C57.6956 24.3619 58.0903 25.1565 58.485 26.3485H59.2744C58.8797 25.9512 58.8797 25.5538 58.8797 25.1565C58.8797 24.7592 58.8797 24.3619 58.485 23.9646C58.0903 23.5673 57.6956 23.17 57.3009 23.17C57.3009 23.17 56.9062 23.5673 56.5115 23.5673C56.5115 23.9646 56.9062 23.9646 56.9062 24.3619ZM45.0651 30.7189C44.6704 30.7189 44.6704 30.7189 44.6704 30.3216C44.6704 29.9243 44.6704 29.527 45.0651 29.1297C45.8545 29.1297 46.2492 28.7323 46.2492 28.7323C46.6439 28.7323 46.6439 29.1297 46.6439 29.1297C46.6439 29.527 46.2492 29.9243 45.4598 30.7189H45.0651ZM40.7233 30.3216C39.1445 29.527 38.7498 28.335 38.7498 26.3485C38.7498 25.1565 38.7498 24.3619 39.5392 23.5673C39.9339 22.7727 40.7233 22.3754 41.5127 22.3754C42.3022 22.3754 42.6969 22.7727 43.4863 23.5673C43.881 24.7592 44.2757 25.9512 44.2757 27.1431V27.5404V27.9377H44.6704V27.5404C45.0651 27.5404 45.0651 26.7458 45.0651 25.1565C45.0651 23.9646 45.0651 22.7727 44.2757 21.5807C43.4863 20.3888 42.6969 19.5942 41.118 19.5942C39.9339 19.5942 38.7498 20.3888 38.3551 21.5807C37.5657 23.17 37.4078 24.3619 37.4078 26.3485C37.4078 27.9377 37.9604 29.527 39.5392 31.1162C39.9339 30.7189 40.3286 30.7189 40.7233 30.3216ZM90.0614 86.3425C90.4561 86.3425 90.4561 86.1836 90.4561 85.826C90.4561 84.9519 90.0614 83.9189 88.8772 82.7667C87.6931 81.5748 85.7196 80.8199 83.3514 80.502C82.9567 80.4623 82.562 80.4623 82.562 80.4623C82.1673 80.3828 82.1673 80.3828 81.7726 80.3828C81.3779 80.3431 80.5885 80.2636 80.1938 80.1842C81.3779 76.4892 81.7726 73.2312 81.7726 70.3706C81.7726 66.3975 80.9832 63.6163 79.4043 61.2324C77.8255 58.8486 76.2467 57.6566 74.2732 57.2593C73.8785 57.6566 73.8785 57.6566 73.8785 58.0539C75.852 58.8486 77.8255 60.4378 79.0096 62.8217C80.1938 65.6029 80.5885 67.9867 80.5885 70.7679C80.5885 72.9928 80.1938 76.2905 78.6149 80.502C77.0361 81.1377 75.4573 82.6078 74.2732 84.9122C74.2732 85.2698 74.2732 85.4684 74.6679 85.4684C74.6679 85.4684 75.0626 85.1108 75.4573 84.4354C76.2467 83.76 76.6414 83.0846 77.4308 82.4091C78.6149 81.7337 79.4043 81.3761 80.5885 81.3761C82.562 81.3761 84.5355 81.6542 85.7196 82.2105C87.2984 82.727 88.0878 83.2832 88.4825 83.9189C88.8772 84.5149 89.2719 85.0711 89.6667 85.5876C89.6667 86.1041 90.0614 86.3425 90.0614 86.3425V86.3425ZM53.7486 28.7323C53.3539 28.335 53.3539 27.5404 53.3539 26.7458C53.3539 25.1565 53.3539 24.3619 54.1433 23.17C54.9327 22.3754 55.7221 21.978 56.5115 21.978C57.6956 21.978 58.485 22.7727 59.2744 23.5673C59.6691 24.7592 60.0638 25.5538 60.0638 26.7458C60.0638 28.7323 59.2744 29.9243 57.6956 30.3216C57.6956 30.3216 58.0903 30.7189 58.485 30.7189C59.2744 30.7189 59.6691 31.1162 60.4585 31.5135C60.8532 29.1297 61.248 27.5404 61.248 25.5538C61.248 23.17 60.8532 21.5807 60.0638 20.3888C58.8797 19.1969 57.6956 18.7996 56.1168 18.7996C54.9327 18.7996 53.7486 19.1969 52.5645 19.9915C51.7751 21.1834 51.3804 21.978 51.3804 23.17C51.3804 25.1565 51.7751 26.7458 52.5645 28.335C52.9592 28.335 53.3539 28.7323 53.7486 28.7323ZM58.485 35.0893C53.3539 38.6651 49.4068 40.2544 46.2492 40.2544C43.4863 40.2544 40.7233 39.0624 38.3551 37.0759C38.7498 37.8705 39.1445 38.6651 39.5392 39.0624L41.9075 41.4463C43.4863 43.0356 45.4598 43.8302 47.4333 43.8302C50.1962 43.8302 53.3539 42.2409 57.3009 39.4598L60.8532 37.0759C61.6427 36.2813 62.4321 35.4866 62.4321 34.2947C62.4321 33.8974 62.4321 33.5001 62.0374 33.5001C61.6427 32.7055 59.6691 31.5135 55.7221 30.3216C52.1698 28.7323 49.4068 27.9377 47.828 27.9377C46.6439 27.9377 44.6704 28.7323 41.9075 30.3216C39.5392 31.9108 37.9604 33.5001 37.9604 35.0893C37.9604 35.0893 38.3551 35.4866 38.7498 36.2813C41.118 38.2678 43.4863 39.4598 45.8545 39.4598C49.0121 39.4598 52.9592 37.8705 58.0903 33.8974V34.692C58.485 34.692 58.485 35.0893 58.485 35.0893ZM67.5632 115.346C69.142 118.334 71.905 119.836 75.0626 119.836C75.852 119.836 76.6414 119.717 77.4308 119.478C78.2202 119.319 79.0096 119.041 79.4043 118.723C79.799 118.445 80.1938 118.167 80.5885 117.849C81.3779 117.571 81.3779 117.373 81.7726 117.174L88.4825 111.333C90.0614 110.066 91.6402 108.957 93.6137 107.996C95.1925 107.042 96.7713 106.407 97.5607 106.049C98.7448 105.731 99.5343 105.255 100.324 104.619C100.718 104.023 101.113 103.268 101.113 102.314C101.113 101.162 100.324 100.288 99.5343 99.6525C98.7448 99.0168 97.9554 98.5797 97.166 98.3016C96.3766 98.0235 95.5872 97.3878 94.4031 96.315C93.6137 95.282 92.8243 93.8517 92.4296 91.9843L92.0349 89.6799C91.6402 88.6072 91.6402 87.8126 91.2455 87.3755C91.2455 87.2563 91.2455 87.2166 90.8508 87.2166C90.4561 87.2166 89.6667 87.5742 89.2719 88.2496C88.4825 88.925 87.6931 89.6799 86.9037 90.4746C86.509 91.2692 85.3249 91.9843 84.5355 92.6598C83.3514 93.3352 82.1673 93.6928 81.3779 93.6928C78.2202 93.6928 76.6414 92.8187 75.4573 91.1103C74.6679 89.8389 74.2732 88.3688 73.8785 86.7001C73.0891 86.0247 72.6944 85.6671 71.905 85.6671C69.9314 85.6671 69.142 87.7331 69.142 91.9049V93.216V97.8248V101.361V103.069V104.261C69.142 104.619 68.7473 105.413 68.7473 106.645C68.3526 107.877 68.3526 109.275 68.3526 110.857L67.5632 115.267V115.334V115.346ZM10.3311 113.233C14.0019 113.773 18.2252 114.929 23.0011 116.693C27.777 118.441 30.6979 119.355 31.7636 119.355C34.5265 119.355 36.8158 118.123 38.7104 115.744C39.1051 114.973 39.1051 114.067 39.1051 113.026C39.1051 109.271 36.8552 104.523 32.3556 98.7625L29.6716 95.1469C29.119 94.392 28.448 93.2398 27.5797 91.6903C26.7508 90.1408 26.0009 88.9489 25.4088 88.1145C24.8957 87.2007 24.0668 86.2869 23.0011 85.3731C21.9749 84.4593 20.7908 83.8633 19.4883 83.5454C17.8305 83.8633 16.6859 84.4195 16.1333 85.1744C15.5807 85.9293 15.2649 86.7637 15.186 87.6377C15.0676 88.4721 14.8308 89.0283 14.436 89.3065C14.0413 89.5448 13.3703 89.7435 12.4625 89.9422C12.2652 89.9422 11.9099 89.9422 11.3968 89.9819H10.3311C8.23919 89.9819 6.81826 90.2203 6.06832 90.6176C5.08156 91.7698 4.56844 93.0809 4.56844 94.4715C4.56844 95.1072 4.72632 96.1799 5.04209 97.6897C5.35785 99.1598 5.51573 100.352 5.51573 101.186C5.51573 102.815 5.04209 104.444 4.05533 106.073C3.06857 107.781 2.55545 109.053 2.55545 109.959C2.95016 111.5 5.5552 112.585 10.3311 113.221V113.233ZM23.4748 77.105C23.4748 74.3636 24.1852 71.344 25.6456 67.7682C27.0666 64.1924 28.4875 61.8085 29.869 60.2193C29.79 59.822 29.5927 59.822 29.2769 59.822L28.8822 59.4247C27.7376 60.6166 26.3561 63.3978 24.6984 67.3709C23.0406 70.9467 22.1722 74.2444 22.1722 76.668C22.1722 78.4559 22.6064 80.0054 23.3958 81.3563C24.2642 82.6674 26.3561 84.5745 29.6716 86.9981L33.8555 89.7395C38.3156 93.6332 40.6839 96.3349 40.6839 97.9241C40.6839 98.7585 40.2892 99.5929 39.1051 100.507C38.3156 101.46 37.2499 101.937 36.3421 101.937C36.2632 101.937 36.2237 102.016 36.2237 102.215C36.2237 102.255 36.6184 103.049 37.4473 104.599C39.1051 106.864 42.6574 107.976 47.3938 107.976C56.0773 107.976 62.7873 104.4 67.9185 97.2487C67.9185 95.2622 67.9185 94.0305 67.5237 93.514V92.0439C67.5237 89.4614 67.9185 87.5146 68.7079 86.2432C69.4973 84.9718 70.2867 84.3758 71.4708 84.3758C72.2602 84.3758 73.0496 84.6539 73.839 85.2499C74.2337 82.1906 74.2337 79.5286 74.2337 77.1448C74.2337 73.5292 74.2337 70.5494 73.4443 67.7682C73.0496 65.3843 72.2602 63.3978 71.4708 61.8085C70.6814 60.6166 69.892 59.4247 69.1026 58.2327C68.3132 57.0408 67.9185 55.8489 67.129 54.6569C66.7343 53.0677 66.3396 51.8757 66.3396 49.8892C65.1555 47.9026 64.3661 45.9161 63.182 43.9295C62.3926 41.9429 61.6032 39.9564 60.8138 38.3671L57.2614 41.1483C53.3144 43.9295 50.1568 45.1214 47.3938 45.1214C45.0256 45.1214 43.0521 44.7241 41.868 43.1349L39.4998 41.1483C39.4998 42.3403 39.1051 43.9295 38.3156 45.5188L35.829 50.2865C34.7238 53.0677 34.1318 54.6569 34.0134 55.8489C33.8555 56.6435 33.7371 57.4381 33.6581 57.4381L30.6979 63.3978C27.5008 69.3574 25.8825 74.8801 25.8825 79.4492C25.8825 80.363 25.9614 81.3165 26.1193 82.2701C24.3431 81.0384 23.4748 79.33 23.4748 77.105V77.105Z" stroke="#F5F5F5" stroke-width="1.68841"/>
</svg>
