<svg width="123" height="122" viewBox="0 0 123 122" fill="none" xmlns="http://www.w3.org/2000/svg">
<path d="M61.3469 1C30.7632 1 32.6731 14.28 32.6731 14.28L32.7072 28.0378H61.8924V32.1686H21.1149C21.1149 32.1686 1.54443 29.9463 1.54443 60.8451C1.54443 91.7439 18.626 90.6482 18.626 90.6482H28.8203V76.31C28.8203 76.31 28.2708 59.2065 45.6291 59.2065C62.9874 59.2065 74.5757 59.2065 74.5757 59.2065C74.5757 59.2065 90.8389 59.4697 90.8389 43.4685C90.8389 27.4674 90.8389 17.011 90.8389 17.011C90.8389 17.011 93.3082 1 61.3469 1ZM45.2541 10.2516C48.1578 10.2516 50.5047 12.6015 50.5047 15.5089C50.5047 18.4164 48.1578 20.7663 45.2541 20.7663C42.3504 20.7663 40.0035 18.4164 40.0035 15.5089C40.0035 12.6015 42.3504 10.2516 45.2541 10.2516Z" fill="url(#paint0_linear)" stroke="#F5F5F5" stroke-width="1.75155"/>
<path d="M62.2157 121C92.7994 121 90.8896 107.72 90.8896 107.72L90.8555 93.9621H61.6702V89.8313H102.448C102.448 89.8313 122.018 92.0536 122.018 61.1548C122.018 30.256 104.937 31.3517 104.937 31.3517H94.7423V45.69C94.7423 45.69 95.2918 62.7935 77.9335 62.7935C60.5752 62.7935 48.9869 62.7935 48.9869 62.7935C48.9869 62.7935 32.7237 62.5302 32.7237 78.5314C32.7237 94.5326 32.7237 104.989 32.7237 104.989C32.7237 104.989 30.2545 121 62.2157 121ZM78.3085 111.748C75.4048 111.748 73.0579 109.398 73.0579 106.491C73.0579 103.584 75.4048 101.234 78.3085 101.234C81.2123 101.234 83.5592 103.584 83.5592 106.491C83.5592 109.398 81.2123 111.748 78.3085 111.748Z" fill="url(#paint1_linear)" stroke="#F5F5F5" stroke-width="1.75155"/>
<defs>
<linearGradient id="paint0_linear" x1="13.1222" y1="11.4891" x2="72.7695" y2="71.2591" gradientUnits="userSpaceOnUse">
<stop stop-color="#387EB8"/>
<stop offset="1" stop-color="#366994"/>
</linearGradient>
<linearGradient id="paint1_linear" x1="49.7677" y1="49.5607" x2="113.825" y2="110.852" gradientUnits="userSpaceOnUse">
<stop stop-color="#FFE052"/>
<stop offset="1" stop-color="#FFC331"/>
</linearGradient>
</defs>
</svg>
