<svg width="134" height="124" viewBox="0 0 134 124" fill="none" xmlns="http://www.w3.org/2000/svg">
<path pathLength="1" d="M132.793 62.0137C132.793 53.0872 121.877 44.6276 105.14 39.3815C109.002 21.913 107.286 8.0151 99.7221 3.56557C97.9787 2.52186 95.9403 2.02747 93.7141 2.02747V8.15244C94.9479 8.15244 95.9403 8.39963 96.7717 8.86656C100.419 11.0089 102.002 19.1664 100.768 29.6585C100.473 32.2403 99.9903 34.9595 99.4002 37.7336C94.1432 36.4152 88.4034 35.3989 82.3686 34.7398C78.7477 29.6585 74.9927 25.0442 71.2109 21.0066C79.9547 12.6844 88.162 8.12497 93.7409 8.12497V2C86.365 2 76.7093 7.38338 66.9462 16.7219C57.1832 7.43832 47.5275 2.10987 40.1516 2.10987V8.23483C45.7036 8.23483 53.9378 12.7668 62.6816 21.0341C58.9266 25.0716 55.1716 29.6585 51.6044 34.7398C45.5427 35.3989 39.8029 36.4152 34.5459 37.761C33.929 35.0144 33.473 32.3502 33.1512 29.7958C31.8906 19.3037 33.4462 11.1463 37.0671 8.97642C37.8718 8.48203 38.9178 8.2623 40.1516 8.2623V2.13733C37.8986 2.13733 35.8601 2.63172 34.0899 3.67544C26.5531 8.12497 24.8633 21.9954 28.7525 39.409C12.0695 44.6825 1.20679 53.1147 1.20679 62.0137C1.20679 70.9402 12.1231 79.3998 28.8597 84.6459C24.9974 102.114 26.714 116.012 34.2777 120.462C36.0211 121.506 38.0595 122 40.3125 122C47.6884 122 57.3442 116.617 67.1072 107.278C76.8702 116.562 86.5259 121.89 93.9018 121.89C96.1548 121.89 98.1933 121.396 99.9635 120.352C107.5 115.902 109.19 102.032 105.301 84.6184C121.93 79.3724 132.793 70.9128 132.793 62.0137ZM97.8714 43.6937C96.879 47.2369 95.6452 50.8899 94.2505 54.5429C93.1508 52.3456 91.9975 50.1483 90.7369 47.951C89.5031 45.7537 88.1889 43.6113 86.8746 41.5239C90.6833 42.1007 94.3578 42.8148 97.8714 43.6937ZM85.5872 72.9453C83.4951 76.6532 81.3494 80.1689 79.1232 83.4374C75.1268 83.7944 71.0768 83.9867 66.9999 83.9867C62.9498 83.9867 58.8998 83.7944 54.9302 83.4649C52.704 80.1964 50.5315 76.7082 48.4394 73.0277C46.401 69.4296 44.5503 65.7766 42.8606 62.0961C44.5235 58.4156 46.401 54.7352 48.4126 51.1371C50.5047 47.4292 52.6504 43.9135 54.8766 40.645C58.873 40.2879 62.923 40.0957 66.9999 40.0957C71.0499 40.0957 75.1 40.2879 79.0696 40.6175C81.2957 43.886 83.4683 47.3742 85.5604 51.0547C87.5988 54.6528 89.4495 58.3058 91.1392 61.9863C89.4495 65.6667 87.5988 69.3472 85.5872 72.9453ZM94.2505 69.3747C95.6989 73.0551 96.9327 76.7356 97.9519 80.3062C94.4383 81.1852 90.7369 81.9267 86.9014 82.5035C88.2157 80.3886 89.5299 78.2188 90.7637 75.994C91.9975 73.7967 93.1508 71.572 94.2505 69.3747ZM67.0535 98.6811C64.5591 96.0444 62.0647 93.1055 59.5972 89.892C62.0111 90.0018 64.4787 90.0842 66.9731 90.0842C69.4943 90.0842 71.9887 90.0293 74.4294 89.892C72.0155 93.1055 69.5211 96.0444 67.0535 98.6811ZM47.0983 82.5035C43.2897 81.9267 39.6152 81.2126 36.1015 80.3337C37.0939 76.7906 38.3277 73.1376 39.7224 69.4845C40.8221 71.6818 41.9754 73.8791 43.2361 76.0764C44.4967 78.2737 45.7841 80.4161 47.0983 82.5035ZM66.9194 25.3463C69.4138 27.9831 71.9082 30.9219 74.3758 34.1355C71.9619 34.0256 69.4943 33.9432 66.9999 33.9432C64.4787 33.9432 61.9843 33.9982 59.5435 34.1355C61.9575 30.9219 64.4519 27.9831 66.9194 25.3463ZM47.0715 41.5239C45.7573 43.6388 44.443 45.8086 43.2092 48.0334C41.9754 50.2307 40.8221 52.428 39.7224 54.6253C38.2741 50.9448 37.0403 47.2644 36.0211 43.6937C39.5347 42.8423 43.2361 42.1007 47.0715 41.5239ZM22.7981 75.9116C13.3033 71.7642 7.16116 66.3259 7.16116 62.0137C7.16116 57.7015 13.3033 52.2357 22.7981 48.1158C25.1047 47.0996 27.6259 46.1932 30.2276 45.3417C31.7565 50.7251 33.7681 56.3282 36.2625 62.0687C33.7949 67.7816 31.8101 73.3573 30.3081 78.7132C27.6528 77.8617 25.1316 76.9279 22.7981 75.9116ZM37.228 115.161C33.5803 113.019 31.9979 104.861 33.2316 94.3689C33.5267 91.7871 34.0095 89.068 34.5995 86.2939C39.8566 87.6123 45.5963 88.6285 51.6312 89.2877C55.2521 94.3689 59.0071 98.9833 62.7889 103.021C54.0451 111.343 45.8377 115.902 40.2589 115.902C39.0519 115.875 38.0327 115.628 37.228 115.161ZM100.849 94.2316C102.109 104.724 100.554 112.881 96.9327 115.051C96.128 115.545 95.082 115.765 93.8482 115.765C88.2961 115.765 80.062 111.233 71.3182 102.966C75.0732 98.9283 78.8282 94.3415 82.3954 89.2602C88.4571 88.601 94.1969 87.5848 99.4539 86.2389C100.071 89.013 100.554 91.6773 100.849 94.2316ZM111.175 75.9116C108.868 76.9279 106.347 77.8343 103.745 78.6857C102.216 73.3023 100.205 67.6992 97.7105 61.9588C100.178 56.2458 102.163 50.6702 103.665 45.3143C106.32 46.1657 108.841 47.0996 111.202 48.1158C120.696 52.2632 126.839 57.7015 126.839 62.0137C126.812 66.3259 120.67 71.7917 111.175 75.9116Z" fill="#61DAFB" stroke="#F5F5F5" stroke-width="2.0244"/>
<path pathLength="1" d="M66.973 74.5658C73.7426 74.5658 79.2304 68.9461 79.2304 62.0137C79.2304 55.0814 73.7426 49.4617 66.973 49.4617C60.2034 49.4617 54.7156 55.0814 54.7156 62.0137C54.7156 68.9461 60.2034 74.5658 66.973 74.5658Z" fill="#61DAFB" stroke="#F5F5F5" stroke-width="2.0244"/>
</svg>
