<svg width="426" height="44" viewBox="0 0 426 44" fill="none" xmlns="http://www.w3.org/2000/svg">
<path pathLength="1" d="M23.8906 8.96875L18.0781 11.1953C17.25 8.55469 15.7344 7.23438 13.5312 7.23438C12.5 7.23438 11.6797 7.53125 11.0703 8.125C10.4766 8.70312 10.1797 9.38281 10.1797 10.1641C10.1797 11.0703 10.5312 11.7969 11.2344 12.3438C11.9531 12.875 13.4453 13.5781 15.7109 14.4531C17.7734 15.2188 19.3906 15.9766 20.5625 16.7266C21.75 17.4766 22.7031 18.5 23.4219 19.7969C24.1562 21.0781 24.5234 22.5703 24.5234 24.2734C24.5234 27.2578 23.4922 29.7109 21.4297 31.6328C19.3828 33.5391 16.6328 34.4922 13.1797 34.4922C7.38281 34.4922 3.67969 31.5625 2.07031 25.7031L8.21094 23.9453C8.96094 27.1641 10.6719 28.7734 13.3438 28.7734C14.5625 28.7734 15.5469 28.4609 16.2969 27.8359C17.0625 27.1953 17.4453 26.3594 17.4453 25.3281C17.4453 24.5469 17.1797 23.8516 16.6484 23.2422C16.1172 22.6172 14.8984 21.9609 12.9922 21.2734C10.5391 20.3984 8.71094 19.6094 7.50781 18.9062C6.30469 18.1875 5.3125 17.1719 4.53125 15.8594C3.75 14.5312 3.35938 13.0234 3.35938 11.3359C3.35938 8.46094 4.28125 6.10938 6.125 4.28125C7.98438 2.4375 10.4375 1.51562 13.4844 1.51562C19.0469 1.51562 22.5156 4 23.8906 8.96875ZM28.2969 2.00781H34.9062V19.4688L41.5625 10.3281H47.5625L41.5859 18.2734L48.1484 34H41.0234L37.3203 23.0078L34.9062 26.3359V34H28.2969V2.00781ZM57.0078 8.38281H50.3047V1.84375H57.0078V8.38281ZM50.3516 10.3281H56.9609V34H50.3516V10.3281ZM61.7891 2.00781H68.3984V34H61.7891V2.00781ZM73.2266 2.00781H79.8359V34H73.2266V2.00781ZM100.297 16.0234L95.5859 17.4297C94.9609 15.2891 93.8047 14.2188 92.1172 14.2188C90.7422 14.2188 90.0547 14.9062 90.0547 16.2812C90.0547 17.0625 90.3125 17.6562 90.8281 18.0625C91.3438 18.4688 92.4062 18.9531 94.0156 19.5156C95.8281 20.1562 97.1562 20.7188 98 21.2031C98.8438 21.6875 99.5547 22.4219 100.133 23.4062C100.711 24.375 101 25.4922 101 26.7578C101 28.9453 100.211 30.7812 98.6328 32.2656C97.0547 33.75 94.8516 34.4922 92.0234 34.4922C86.6953 34.4922 83.7422 32.1406 83.1641 27.4375L88.4141 26.5938C88.8516 28.9531 90.0938 30.1328 92.1406 30.1328C93.8906 30.1328 94.7656 29.3984 94.7656 27.9297C94.7656 27.1484 94.5078 26.5547 93.9922 26.1484C93.4766 25.7422 92.4766 25.3047 90.9922 24.8359C88.2734 23.9609 86.4062 22.9062 85.3906 21.6719C84.375 20.4375 83.8672 19.0078 83.8672 17.3828C83.8672 15.1016 84.6641 13.2734 86.2578 11.8984C87.8672 10.5234 89.875 9.83594 92.2812 9.83594C96.4844 9.83594 99.1562 11.8984 100.297 16.0234ZM119.609 17.8516L113.352 17.2422C113.648 14.8672 114.656 13.0391 116.375 11.7578C118.109 10.4766 120.289 9.83594 122.914 9.83594C125.133 9.83594 126.914 10.2656 128.258 11.125C129.602 11.9688 130.445 12.9531 130.789 14.0781C131.148 15.2031 131.328 16.9453 131.328 19.3047V28.75C131.328 31.6875 131.461 33.4375 131.727 34H125.609C125.391 33.3594 125.281 32.1484 125.281 30.3672C123.828 33.1172 121.664 34.4922 118.789 34.4922C116.945 34.4922 115.445 33.9453 114.289 32.8516C113.133 31.7422 112.555 30.1328 112.555 28.0234C112.555 25.3828 113.43 23.3438 115.18 21.9062C116.93 20.4531 120.117 19.5859 124.742 19.3047V18.4141C124.742 16.8359 124.578 15.7422 124.25 15.1328C123.938 14.5234 123.32 14.2188 122.398 14.2188C120.711 14.2188 119.781 15.4297 119.609 17.8516ZM124.742 22.6797C122.82 22.8984 121.445 23.3281 120.617 23.9688C119.805 24.5938 119.398 25.6562 119.398 27.1562C119.398 29.1562 120.133 30.1562 121.602 30.1562C122.398 30.1562 123.117 29.7109 123.758 28.8203C124.414 27.9141 124.742 26.2578 124.742 23.8516V22.6797ZM136.203 10.3281H142.461V13.5625C143.555 11.0938 145.531 9.85938 148.391 9.85938C149.938 9.85938 151.211 10.2109 152.211 10.9141C153.227 11.6016 153.875 12.4844 154.156 13.5625C154.438 14.6406 154.578 16.2812 154.578 18.4844V34H147.969V18.4844C147.969 16.8906 147.766 15.9062 147.359 15.5312C146.953 15.1562 146.406 14.9688 145.719 14.9688C144.531 14.9688 143.75 15.3359 143.375 16.0703C143 16.7891 142.812 18.1406 142.812 20.125V34H136.203V10.3281ZM170.703 2.00781H177.195V34H171.078V30.0859C170.078 32.9141 168.281 34.3281 165.688 34.3281C163.141 34.3281 161.242 33.2188 159.992 31C158.742 28.7812 158.117 25.8672 158.117 22.2578C158.117 18.1484 158.828 15.0781 160.25 13.0469C161.688 11.0156 163.602 10 165.992 10C168.195 10 169.766 10.8438 170.703 12.5312V2.00781ZM170.703 20.2422C170.703 17.9141 170.453 16.3594 169.953 15.5781C169.469 14.7812 168.758 14.3828 167.82 14.3828C166.711 14.3828 165.953 14.9297 165.547 16.0234C165.156 17.1172 164.961 19.3828 164.961 22.8203C164.961 25.3828 165.18 27.1797 165.617 28.2109C166.055 29.2422 166.773 29.7578 167.773 29.7578C168.617 29.7578 169.312 29.4141 169.859 28.7266C170.422 28.0234 170.703 26.5938 170.703 24.4375V20.2422ZM188 2.00781H207.945V8.00781H201.406V34H194.375V8.00781H188V2.00781ZM226.32 23.2656H213.898V24.5781C213.898 26.7031 214.188 28.125 214.766 28.8438C215.344 29.5625 216.102 29.9219 217.039 29.9219C219.055 29.9219 220.188 28.5703 220.438 25.8672L226.32 26.2422C225.273 31.7422 222.141 34.4922 216.922 34.4922C213.703 34.4922 211.258 33.4062 209.586 31.2344C207.914 29.0625 207.078 26.1562 207.078 22.5156C207.078 18.4062 207.961 15.2734 209.727 13.1172C211.508 10.9453 213.891 9.85938 216.875 9.85938C219.562 9.85938 221.805 10.8203 223.602 12.7422C225.414 14.6484 226.32 18.1562 226.32 23.2656ZM220.086 19.4453C220.102 19.1641 220.109 18.9453 220.109 18.7891C220.109 15.7422 219.078 14.2188 217.016 14.2188C214.984 14.2188 213.961 15.9609 213.945 19.4453H220.086ZM247.859 19.0469L241.719 19.2812C241.625 17.8281 241.391 16.7344 241.016 16C240.641 15.25 240.008 14.875 239.117 14.875C236.898 14.875 235.789 17.2031 235.789 21.8594C235.789 24.5625 236.055 26.4531 236.586 27.5312C237.133 28.6094 237.938 29.1484 239 29.1484C240.656 29.1484 241.562 27.6875 241.719 24.7656L247.859 25.1641C247.312 31.3828 244.219 34.4922 238.578 34.4922C235.531 34.4922 233.195 33.4688 231.57 31.4219C229.961 29.3594 229.156 26.2969 229.156 22.2344C229.156 18.2031 230 15.1328 231.688 13.0234C233.391 10.9141 235.773 9.85938 238.836 9.85938C244.367 9.85938 247.375 12.9219 247.859 19.0469ZM251.469 2.00781H258.078V12.8359C259.266 10.8359 261.203 9.83594 263.891 9.83594C265.5 9.83594 266.766 10.2109 267.688 10.9609C268.625 11.7109 269.219 12.6641 269.469 13.8203C269.719 14.9609 269.844 16.625 269.844 18.8125V34H263.234V18.8125C263.234 17.2656 263.086 16.2422 262.789 15.7422C262.508 15.2266 261.914 14.9688 261.008 14.9688C260.117 14.9688 259.406 15.2109 258.875 15.6953C258.344 16.1797 258.078 17.2812 258.078 19V34H251.469V2.00781ZM274.391 10.3281H280.648V13.5625C281.742 11.0938 283.719 9.85938 286.578 9.85938C288.125 9.85938 289.398 10.2109 290.398 10.9141C291.414 11.6016 292.062 12.4844 292.344 13.5625C292.625 14.6406 292.766 16.2812 292.766 18.4844V34H286.156V18.4844C286.156 16.8906 285.953 15.9062 285.547 15.5312C285.141 15.1562 284.594 14.9688 283.906 14.9688C282.719 14.9688 281.938 15.3359 281.562 16.0703C281.188 16.7891 281 18.1406 281 20.125V34H274.391V10.3281ZM315.547 22.1641C315.547 30.3828 312.344 34.4922 305.938 34.4922C299.516 34.4922 296.305 30.3828 296.305 22.1641C296.305 13.9609 299.516 9.85938 305.938 9.85938C312.344 9.85938 315.547 13.9609 315.547 22.1641ZM308.727 22.1641C308.727 19.1484 308.516 17.1094 308.094 16.0469C307.688 14.9844 306.969 14.4531 305.938 14.4531C304.938 14.4531 304.219 14.9609 303.781 15.9766C303.344 16.9766 303.125 19.0391 303.125 22.1641C303.125 25.0547 303.312 27.0625 303.688 28.1875C304.062 29.3125 304.812 29.875 305.938 29.875C307.016 29.875 307.75 29.3203 308.141 28.2109C308.531 27.0859 308.727 25.0703 308.727 22.1641ZM319.367 2.00781H325.977V34H319.367V2.00781ZM349.062 22.1641C349.062 30.3828 345.859 34.4922 339.453 34.4922C333.031 34.4922 329.82 30.3828 329.82 22.1641C329.82 13.9609 333.031 9.85938 339.453 9.85938C345.859 9.85938 349.062 13.9609 349.062 22.1641ZM342.242 22.1641C342.242 19.1484 342.031 17.1094 341.609 16.0469C341.203 14.9844 340.484 14.4531 339.453 14.4531C338.453 14.4531 337.734 14.9609 337.297 15.9766C336.859 16.9766 336.641 19.0391 336.641 22.1641C336.641 25.0547 336.828 27.0625 337.203 28.1875C337.578 29.3125 338.328 29.875 339.453 29.875C340.531 29.875 341.266 29.3203 341.656 28.2109C342.047 27.0859 342.242 25.0703 342.242 22.1641ZM373.039 6.4375V10.75C372.539 10.625 372.062 10.5625 371.609 10.5625C370.234 10.5625 369.398 11.2734 369.102 12.6953C370.273 13.9297 370.859 15.5078 370.859 17.4297C370.859 19.5703 370.062 21.2891 368.469 22.5859C366.875 23.8672 364.812 24.5078 362.281 24.5078C361.312 24.5078 360.289 24.375 359.211 24.1094C358.18 24.6719 357.664 25.3203 357.664 26.0547C357.664 26.6484 357.953 27.0391 358.531 27.2266C359.109 27.4141 360.688 27.5781 363.266 27.7188C365.641 27.8594 367.414 28.0938 368.586 28.4219C369.773 28.75 370.758 29.4219 371.539 30.4375C372.336 31.4531 372.734 32.7891 372.734 34.4453C372.734 39.7266 368.883 42.3672 361.18 42.3672C354.711 42.3672 351.477 40.4844 351.477 36.7188C351.477 34.6406 352.766 33.1719 355.344 32.3125C353.281 31.3438 352.25 29.9766 352.25 28.2109C352.25 26.1797 353.609 24.4453 356.328 23.0078C353.984 21.8516 352.812 19.8828 352.812 17.1016C352.812 14.7422 353.617 12.9453 355.227 11.7109C356.852 10.4766 359.016 9.85938 361.719 9.85938C363.516 9.85938 365.203 10.2031 366.781 10.8906C366.953 9.20312 367.375 8 368.047 7.28125C368.719 6.5625 369.773 6.20312 371.211 6.20312C371.898 6.20312 372.508 6.28125 373.039 6.4375ZM364.039 17.2188C364.039 14.6719 363.344 13.3984 361.953 13.3984C361.109 13.3984 360.508 13.7109 360.148 14.3359C359.805 14.9453 359.633 15.9609 359.633 17.3828C359.633 19.7734 360.391 20.9688 361.906 20.9688C362.672 20.9688 363.219 20.6875 363.547 20.125C363.875 19.5625 364.039 18.5938 364.039 17.2188ZM359 32.9688C357.609 33.6094 356.914 34.5625 356.914 35.8281C356.914 37.4219 358.727 38.2188 362.352 38.2188C365.461 38.2188 367.016 37.3906 367.016 35.7344C367.016 35.125 366.844 34.625 366.5 34.2344C366.172 33.8594 365.742 33.625 365.211 33.5312C364.695 33.4219 363.602 33.3281 361.93 33.25C360.945 33.1875 359.969 33.0938 359 32.9688ZM381.617 8.38281H374.914V1.84375H381.617V8.38281ZM374.961 10.3281H381.57V34H374.961V10.3281ZM404.633 23.2656H392.211V24.5781C392.211 26.7031 392.5 28.125 393.078 28.8438C393.656 29.5625 394.414 29.9219 395.352 29.9219C397.367 29.9219 398.5 28.5703 398.75 25.8672L404.633 26.2422C403.586 31.7422 400.453 34.4922 395.234 34.4922C392.016 34.4922 389.57 33.4062 387.898 31.2344C386.227 29.0625 385.391 26.1562 385.391 22.5156C385.391 18.4062 386.273 15.2734 388.039 13.1172C389.82 10.9453 392.203 9.85938 395.188 9.85938C397.875 9.85938 400.117 10.8203 401.914 12.7422C403.727 14.6484 404.633 18.1562 404.633 23.2656ZM398.398 19.4453C398.414 19.1641 398.422 18.9453 398.422 18.7891C398.422 15.7422 397.391 14.2188 395.328 14.2188C393.297 14.2188 392.273 15.9609 392.258 19.4453H398.398ZM424.109 16.0234L419.398 17.4297C418.773 15.2891 417.617 14.2188 415.93 14.2188C414.555 14.2188 413.867 14.9062 413.867 16.2812C413.867 17.0625 414.125 17.6562 414.641 18.0625C415.156 18.4688 416.219 18.9531 417.828 19.5156C419.641 20.1562 420.969 20.7188 421.812 21.2031C422.656 21.6875 423.367 22.4219 423.945 23.4062C424.523 24.375 424.812 25.4922 424.812 26.7578C424.812 28.9453 424.023 30.7812 422.445 32.2656C420.867 33.75 418.664 34.4922 415.836 34.4922C410.508 34.4922 407.555 32.1406 406.977 27.4375L412.227 26.5938C412.664 28.9531 413.906 30.1328 415.953 30.1328C417.703 30.1328 418.578 29.3984 418.578 27.9297C418.578 27.1484 418.32 26.5547 417.805 26.1484C417.289 25.7422 416.289 25.3047 414.805 24.8359C412.086 23.9609 410.219 22.9062 409.203 21.6719C408.188 20.4375 407.68 19.0078 407.68 17.3828C407.68 15.1016 408.477 13.2734 410.07 11.8984C411.68 10.5234 413.688 9.83594 416.094 9.83594C420.297 9.83594 422.969 11.8984 424.109 16.0234Z" fill="#F5F5F5" fill-opacity="0.5"/>
<path pathLength="1" d="M23.8906 8.96875L24.2483 9.90258L25.0967 9.57761L24.8544 8.70204L23.8906 8.96875ZM18.0781 11.1953L17.1239 11.4946L17.4423 12.5097L18.4358 12.1291L18.0781 11.1953ZM11.0703 8.125L11.7679 8.84147L11.7682 8.84123L11.0703 8.125ZM11.2344 12.3438L10.6204 13.1331L10.6301 13.1406L10.64 13.1479L11.2344 12.3438ZM15.7109 14.4531L15.3506 15.3861L15.3629 15.3906L15.7109 14.4531ZM20.5625 16.7266L20.0234 17.5688L20.0285 17.5721L20.5625 16.7266ZM23.4219 19.7969L22.5472 20.2816L22.5507 20.2879L22.5543 20.2942L23.4219 19.7969ZM21.4297 31.6328L22.1112 32.3646L22.1114 32.3644L21.4297 31.6328ZM2.07031 25.7031L1.79511 24.7417L0.843999 25.014L1.10602 25.968L2.07031 25.7031ZM8.21094 23.9453L9.18485 23.7184L8.94631 22.6946L7.93573 22.9839L8.21094 23.9453ZM16.2969 27.8359L16.9371 28.6042L16.9386 28.6029L16.2969 27.8359ZM16.6484 23.2422L15.8864 23.8899L15.8947 23.8993L16.6484 23.2422ZM12.9922 21.2734L13.3315 20.3327L13.3281 20.3316L12.9922 21.2734ZM7.50781 18.9062L6.99493 19.7648L7.00324 19.7696L7.50781 18.9062ZM4.53125 15.8594L3.6693 16.3664L3.67196 16.3709L4.53125 15.8594ZM6.125 4.28125L6.82909 4.99136L6.82912 4.99133L6.125 4.28125ZM23.5329 8.03492L17.7204 10.2615L18.4358 12.1291L24.2483 9.90258L23.5329 8.03492ZM19.0323 10.8961C18.583 9.46341 17.9172 8.28945 16.9772 7.47059C16.0193 6.63615 14.8493 6.23438 13.5312 6.23438V8.23438C14.4163 8.23438 15.1057 8.49276 15.6635 8.97863C16.2391 9.48008 16.7451 10.2866 17.1239 11.4946L19.0323 10.8961ZM13.5312 6.23438C12.298 6.23438 11.2068 6.59582 10.3724 7.40877L11.7682 8.84123C12.1526 8.46668 12.702 8.23438 13.5312 8.23438V6.23438ZM10.3727 7.40853C9.5987 8.16215 9.17969 9.09523 9.17969 10.1641H11.1797C11.1797 9.67039 11.3544 9.2441 11.7679 8.84147L10.3727 7.40853ZM9.17969 10.1641C9.17969 11.3726 9.66881 12.3929 10.6204 13.1331L11.8483 11.5544C11.3937 11.2008 11.1797 10.768 11.1797 10.1641H9.17969ZM10.64 13.1479C11.4824 13.7706 13.0976 14.5158 15.3507 15.386L16.0712 13.5203C13.793 12.6404 12.4239 11.9794 11.8288 11.5396L10.64 13.1479ZM15.3629 15.3906C17.3923 16.144 18.9359 16.8728 20.0234 17.5688L21.1016 15.8843C19.8454 15.0803 18.1545 14.2935 16.0589 13.5156L15.3629 15.3906ZM20.0285 17.5721C21.066 18.2273 21.9052 19.1232 22.5472 20.2816L24.2965 19.3121C23.501 17.8768 22.434 16.7258 21.0965 15.8811L20.0285 17.5721ZM22.5543 20.2942C23.1894 21.4022 23.5234 22.7177 23.5234 24.2734H25.5234C25.5234 22.4229 25.1231 20.7541 24.2895 19.2996L22.5543 20.2942ZM23.5234 24.2734C23.5234 26.9986 22.5945 29.1806 20.748 30.9012L22.1114 32.3644C24.3899 30.2413 25.5234 27.517 25.5234 24.2734H23.5234ZM20.7482 30.901C18.9274 32.5967 16.4421 33.4922 13.1797 33.4922V35.4922C16.8235 35.4922 19.8382 34.4814 22.1112 32.3646L20.7482 30.901ZM13.1797 33.4922C10.4538 33.4922 8.31277 32.8063 6.67514 31.5107C5.03293 30.2115 3.79911 28.2217 3.0346 25.4383L1.10602 25.968C1.95089 29.0439 3.37332 31.4487 5.43424 33.0792C7.49973 34.7133 10.1087 35.4922 13.1797 35.4922V33.4922ZM2.34552 26.6645L8.48614 24.9067L7.93573 22.9839L1.79511 24.7417L2.34552 26.6645ZM7.23703 24.1722C7.63926 25.8985 8.32503 27.3105 9.37148 28.2948C10.4382 29.2982 11.7909 29.7734 13.3438 29.7734V27.7734C12.2247 27.7734 11.386 27.444 10.7418 26.838C10.0773 26.213 9.53262 25.2109 9.18485 23.7184L7.23703 24.1722ZM13.3438 29.7734C14.7366 29.7734 15.9662 29.4132 16.9371 28.6042L15.6567 27.0677C15.1275 27.5087 14.3884 27.7734 13.3438 27.7734V29.7734ZM16.9386 28.6029C17.9398 27.7651 18.4453 26.6442 18.4453 25.3281H16.4453C16.4453 26.0746 16.1852 26.6255 15.6552 27.069L16.9386 28.6029ZM18.4453 25.3281C18.4453 24.2962 18.0862 23.3696 17.4022 22.5851L15.8947 23.8993C16.2732 24.3335 16.4453 24.7975 16.4453 25.3281H18.4453ZM17.4104 22.5945C17.0272 22.1438 16.4642 21.753 15.81 21.4008C15.1424 21.0413 14.3118 20.6863 13.3315 20.3327L12.6529 22.2141C13.5789 22.5481 14.3107 22.865 14.8618 23.1617C15.4265 23.4657 15.7384 23.7156 15.8865 23.8898L17.4104 22.5945ZM13.3281 20.3316C10.8925 19.4628 9.13412 18.6984 8.01238 18.0429L7.00324 19.7696C8.28776 20.5203 10.1857 21.3341 12.6562 22.2153L13.3281 20.3316ZM8.02067 18.0478C6.97259 17.4217 6.09471 16.5309 5.39054 15.3479L3.67196 16.3709C4.53029 17.8129 5.63678 18.9533 6.99496 19.7647L8.02067 18.0478ZM5.39318 15.3524C4.7108 14.1923 4.35938 12.8626 4.35938 11.3359H2.35938C2.35938 13.1843 2.7892 14.8702 3.66932 16.3664L5.39318 15.3524ZM4.35938 11.3359C4.35938 8.69621 5.19592 6.61069 6.82909 4.99136L5.42091 3.57114C3.36658 5.60806 2.35938 8.22566 2.35938 11.3359H4.35938ZM6.82912 4.99133C8.47055 3.3637 10.6547 2.51562 13.4844 2.51562V0.515625C10.2203 0.515625 7.4982 1.5113 5.42088 3.57117L6.82912 4.99133ZM13.4844 2.51562C16.1199 2.51562 18.156 3.10355 19.6755 4.1919C21.1875 5.27482 22.2872 6.92389 22.9268 9.23546L24.8544 8.70204C24.1191 6.04486 22.7968 3.96737 20.8401 2.56592C18.8909 1.16989 16.4113 0.515625 13.4844 0.515625V2.51562ZM28.2969 2.00781V1.00781H27.2969V2.00781H28.2969ZM34.9062 2.00781H35.9062V1.00781H34.9062V2.00781ZM34.9062 19.4688H33.9062V22.5407L35.7146 20.0574L34.9062 19.4688ZM41.5625 10.3281V9.32812H41.0537L40.7541 9.73946L41.5625 10.3281ZM47.5625 10.3281L48.3617 10.9293L49.566 9.32812H47.5625V10.3281ZM41.5859 18.2734L40.7868 17.6723L40.4425 18.13L40.6631 18.6585L41.5859 18.2734ZM48.1484 34V35H49.6493L49.0713 33.6149L48.1484 34ZM41.0234 34L40.0758 34.3193L40.3051 35H41.0234V34ZM37.3203 23.0078L38.268 22.6886L37.6491 20.8514L36.5108 22.4207L37.3203 23.0078ZM34.9062 26.3359L34.0968 25.7488L33.9062 26.0114V26.3359H34.9062ZM34.9062 34V35H35.9062V34H34.9062ZM28.2969 34H27.2969V35H28.2969V34ZM28.2969 3.00781H34.9062V1.00781H28.2969V3.00781ZM33.9062 2.00781V19.4688H35.9062V2.00781H33.9062ZM35.7146 20.0574L42.3709 10.9168L40.7541 9.73946L34.0979 18.8801L35.7146 20.0574ZM41.5625 11.3281H47.5625V9.32812H41.5625V11.3281ZM46.7633 9.72699L40.7868 17.6723L42.3851 18.8746L48.3617 10.9293L46.7633 9.72699ZM40.6631 18.6585L47.2256 34.3851L49.0713 33.6149L42.5088 17.8883L40.6631 18.6585ZM48.1484 33H41.0234V35H48.1484V33ZM41.9711 33.6807L38.268 22.6886L36.3726 23.3271L40.0758 34.3193L41.9711 33.6807ZM36.5108 22.4207L34.0968 25.7488L35.7157 26.9231L38.1298 23.595L36.5108 22.4207ZM33.9062 26.3359V34H35.9062V26.3359H33.9062ZM34.9062 33H28.2969V35H34.9062V33ZM29.2969 34V2.00781H27.2969V34H29.2969ZM57.0078 8.38281V9.38281H58.0078V8.38281H57.0078ZM50.3047 8.38281H49.3047V9.38281H50.3047V8.38281ZM50.3047 1.84375V0.84375H49.3047V1.84375H50.3047ZM57.0078 1.84375H58.0078V0.84375H57.0078V1.84375ZM50.3516 10.3281V9.32812H49.3516V10.3281H50.3516ZM56.9609 10.3281H57.9609V9.32812H56.9609V10.3281ZM56.9609 34V35H57.9609V34H56.9609ZM50.3516 34H49.3516V35H50.3516V34ZM57.0078 7.38281H50.3047V9.38281H57.0078V7.38281ZM51.3047 8.38281V1.84375H49.3047V8.38281H51.3047ZM50.3047 2.84375H57.0078V0.84375H50.3047V2.84375ZM56.0078 1.84375V8.38281H58.0078V1.84375H56.0078ZM50.3516 11.3281H56.9609V9.32812H50.3516V11.3281ZM55.9609 10.3281V34H57.9609V10.3281H55.9609ZM56.9609 33H50.3516V35H56.9609V33ZM51.3516 34V10.3281H49.3516V34H51.3516ZM61.7891 2.00781V1.00781H60.7891V2.00781H61.7891ZM68.3984 2.00781H69.3984V1.00781H68.3984V2.00781ZM68.3984 34V35H69.3984V34H68.3984ZM61.7891 34H60.7891V35H61.7891V34ZM61.7891 3.00781H68.3984V1.00781H61.7891V3.00781ZM67.3984 2.00781V34H69.3984V2.00781H67.3984ZM68.3984 33H61.7891V35H68.3984V33ZM62.7891 34V2.00781H60.7891V34H62.7891ZM73.2266 2.00781V1.00781H72.2266V2.00781H73.2266ZM79.8359 2.00781H80.8359V1.00781H79.8359V2.00781ZM79.8359 34V35H80.8359V34H79.8359ZM73.2266 34H72.2266V35H73.2266V34ZM73.2266 3.00781H79.8359V1.00781H73.2266V3.00781ZM78.8359 2.00781V34H80.8359V2.00781H78.8359ZM79.8359 33H73.2266V35H79.8359V33ZM74.2266 34V2.00781H72.2266V34H74.2266ZM100.297 16.0234L100.583 16.9817L101.522 16.7014L101.261 15.7569L100.297 16.0234ZM95.5859 17.4297L94.626 17.71L94.908 18.6757L95.872 18.3879L95.5859 17.4297ZM94.0156 19.5156L94.3489 18.5728L94.3456 18.5716L94.0156 19.5156ZM100.133 23.4062L99.2705 23.9127L99.2741 23.9187L100.133 23.4062ZM83.1641 27.4375L83.0054 26.4502L82.054 26.6031L82.1715 27.5595L83.1641 27.4375ZM88.4141 26.5938L89.3973 26.4114L89.2193 25.4515L88.2554 25.6064L88.4141 26.5938ZM90.9922 24.8359L90.6858 25.7879L90.6911 25.7895L90.9922 24.8359ZM86.2578 11.8984L85.6082 11.1381L85.6046 11.1413L86.2578 11.8984ZM100.011 15.0652L95.2999 16.4715L95.872 18.3879L100.583 16.9817L100.011 15.0652ZM96.5459 17.1494C96.2026 15.9738 95.6844 14.9866 94.9293 14.2876C94.1525 13.5685 93.1932 13.2188 92.1172 13.2188V15.2188C92.7286 15.2188 93.1913 15.4041 93.5707 15.7553C93.9718 16.1267 94.3443 16.7449 94.626 17.71L96.5459 17.1494ZM92.1172 13.2188C91.2755 13.2188 90.4606 13.4298 89.8632 14.0273C89.2658 14.6247 89.0547 15.4396 89.0547 16.2812H91.0547C91.0547 15.7479 91.1873 15.5316 91.2774 15.4415C91.3675 15.3514 91.5838 15.2188 92.1172 15.2188V13.2188ZM89.0547 16.2812C89.0547 17.3038 89.4061 18.2152 90.2093 18.848L91.447 17.277C91.2189 17.0973 91.0547 16.8212 91.0547 16.2812H89.0547ZM90.2093 18.848C90.8729 19.3709 92.0872 19.9009 93.6857 20.4596L94.3456 18.5716C92.7253 18.0053 91.8146 17.5666 91.447 17.277L90.2093 18.848ZM93.6824 20.4585C95.4816 21.0944 96.7398 21.6327 97.5021 22.0704L98.4979 20.3359C97.5727 19.8048 96.1746 19.2181 94.3489 18.5728L93.6824 20.4585ZM97.5021 22.0704C98.1708 22.4542 98.7651 23.052 99.2705 23.9127L100.995 22.8998C100.344 21.7917 99.5167 20.9208 98.4979 20.3359L97.5021 22.0704ZM99.2741 23.9187C99.7489 24.7142 100 25.6501 100 26.7578H102C102 25.3343 101.673 24.0358 100.992 22.8938L99.2741 23.9187ZM100 26.7578C100 28.6725 99.3227 30.2439 97.9477 31.5372L99.318 32.994C101.099 31.3186 102 29.2181 102 26.7578H100ZM97.9477 31.5372C96.6062 32.799 94.6771 33.4922 92.0234 33.4922V35.4922C95.026 35.4922 97.5032 34.701 99.318 32.994L97.9477 31.5372ZM92.0234 33.4922C89.4944 33.4922 87.6748 32.9331 86.4354 31.9462C85.2129 30.9728 84.4223 29.4768 84.1566 27.3155L82.1715 27.5595C82.484 30.1013 83.459 32.1327 85.1896 33.5108C86.9033 34.8755 89.2243 35.4922 92.0234 35.4922V33.4922ZM83.3227 28.4248L88.5727 27.5811L88.2554 25.6064L83.0054 26.4502L83.3227 28.4248ZM87.4308 26.7761C87.6731 28.0824 88.1607 29.1901 88.9852 29.9732C89.8274 30.7729 90.914 31.1328 92.1406 31.1328V29.1328C91.3204 29.1328 90.7625 28.9028 90.3625 28.5229C89.9448 28.1263 89.5926 27.4644 89.3973 26.4114L87.4308 26.7761ZM92.1406 31.1328C93.1312 31.1328 94.0604 30.9286 94.7522 30.348C95.4776 29.7392 95.7656 28.8687 95.7656 27.9297H93.7656C93.7656 28.4595 93.6161 28.6905 93.4665 28.8161C93.2833 28.9698 92.9 29.1328 92.1406 29.1328V31.1328ZM95.7656 27.9297C95.7656 26.9071 95.4142 25.9957 94.6111 25.3629L93.3733 26.9339C93.6014 27.1136 93.7656 27.3898 93.7656 27.9297H95.7656ZM94.6111 25.3629C93.9377 24.8324 92.7776 24.3511 91.2933 23.8824L90.6911 25.7895C92.1755 26.2583 93.0155 26.652 93.3733 26.9339L94.6111 25.3629ZM91.2986 23.884C88.6376 23.0276 86.9941 22.0468 86.1628 21.0365L84.6184 22.3072C85.8184 23.7657 87.9093 24.8943 90.6858 25.7879L91.2986 23.884ZM86.1628 21.0365C85.2971 19.9843 84.8672 18.7802 84.8672 17.3828H82.8672C82.8672 19.2354 83.4529 20.8907 84.6184 22.3072L86.1628 21.0365ZM84.8672 17.3828C84.8672 15.3648 85.5575 13.8234 86.911 12.6556L85.6046 11.1413C83.7706 12.7235 82.8672 14.8383 82.8672 17.3828H84.8672ZM86.9074 12.6587C88.311 11.4595 90.0785 10.8359 92.2812 10.8359V8.83594C89.6715 8.83594 87.4234 9.58734 85.6082 11.1381L86.9074 12.6587ZM92.2812 10.8359C94.217 10.8359 95.7048 11.3086 96.8264 12.1744C97.9499 13.0416 98.8048 14.3796 99.333 16.29L101.261 15.7569C100.648 13.5423 99.597 11.7865 98.0486 10.5912C96.4983 9.39456 94.5486 8.83594 92.2812 8.83594V10.8359ZM119.609 17.8516L119.512 18.8469L120.534 18.9463L120.607 17.9224L119.609 17.8516ZM113.352 17.2422L112.359 17.1182L112.232 18.1379L113.255 18.2375L113.352 17.2422ZM116.375 11.7578L115.781 10.9535L115.777 10.9561L116.375 11.7578ZM128.258 11.125L127.719 11.9675L127.726 11.9719L128.258 11.125ZM130.789 14.0781L129.833 14.3704L129.836 14.3824L130.789 14.0781ZM131.727 34V35H133.305L132.631 33.573L131.727 34ZM125.609 34L124.663 34.3231L124.894 35H125.609V34ZM125.281 30.3672H126.281L124.397 29.9L125.281 30.3672ZM114.289 32.8516L113.597 33.5732L113.602 33.578L114.289 32.8516ZM115.18 21.9062L115.814 22.679L115.819 22.6756L115.18 21.9062ZM124.742 19.3047L124.803 20.3028L125.742 20.2457V19.3047H124.742ZM124.25 15.1328L123.36 15.5891L123.365 15.5981L123.37 15.6069L124.25 15.1328ZM124.742 22.6797H125.742V21.5594L124.629 21.6861L124.742 22.6797ZM120.617 23.9688L121.227 24.7614L121.229 24.7597L120.617 23.9688ZM123.758 28.8203L122.948 28.2338L122.946 28.2364L123.758 28.8203ZM119.706 16.8563L113.448 16.2469L113.255 18.2375L119.512 18.8469L119.706 16.8563ZM114.344 17.3662C114.611 15.2268 115.499 13.6583 116.973 12.5596L115.777 10.9561C113.814 12.4198 112.686 14.5076 112.359 17.1182L114.344 17.3662ZM116.969 12.5621C118.497 11.4336 120.455 10.8359 122.914 10.8359V8.83594C120.123 8.83594 117.722 9.51955 115.781 10.9535L116.969 12.5621ZM122.914 10.8359C125.014 10.8359 126.587 11.2438 127.719 11.9674L128.797 10.2826C127.241 9.28747 125.252 8.83594 122.914 8.83594V10.8359ZM127.726 11.9719C128.938 12.7327 129.58 13.5449 129.833 14.3703L131.745 13.7859C131.31 12.3614 130.265 11.2048 128.79 10.2781L127.726 11.9719ZM129.836 14.3824C130.147 15.3535 130.328 16.9671 130.328 19.3047H132.328C132.328 16.9236 132.15 15.0527 131.742 13.7738L129.836 14.3824ZM130.328 19.3047V28.75H132.328V19.3047H130.328ZM130.328 28.75C130.328 30.2297 130.361 31.43 130.431 32.3413C130.465 32.7965 130.51 33.1939 130.567 33.5253C130.621 33.8395 130.697 34.1617 130.822 34.427L132.631 33.573C132.631 33.5734 132.618 33.5449 132.598 33.4723C132.58 33.4027 132.559 33.3085 132.538 33.1857C132.495 32.939 132.457 32.6097 132.425 32.1899C132.361 31.3512 132.328 30.2078 132.328 28.75H130.328ZM131.727 33H125.609V35H131.727V33ZM126.556 33.6769C126.398 33.2141 126.281 32.1616 126.281 30.3672H124.281C124.281 32.1353 124.384 33.5047 124.663 34.3231L126.556 33.6769ZM124.397 29.9C123.735 31.1539 122.939 32.0406 122.032 32.6169C121.129 33.1905 120.06 33.4922 118.789 33.4922V35.4922C120.393 35.4922 121.843 35.1064 123.105 34.305C124.362 33.5063 125.375 32.3305 126.165 30.8344L124.397 29.9ZM118.789 33.4922C117.157 33.4922 115.917 33.0154 114.976 32.1251L113.602 33.578C114.973 34.8752 116.733 35.4922 118.789 35.4922V33.4922ZM114.981 32.13C114.078 31.2636 113.555 29.9504 113.555 28.0234H111.555C111.555 30.3152 112.187 32.2208 113.597 33.5731L114.981 32.13ZM113.555 28.0234C113.555 25.6266 114.335 23.8939 115.814 22.679L114.545 21.1335C112.524 22.7936 111.555 25.139 111.555 28.0234H113.555ZM115.819 22.6756C117.306 21.4408 120.208 20.5823 124.803 20.3028L124.681 18.3065C120.026 18.5896 116.554 19.4655 114.541 21.1369L115.819 22.6756ZM125.742 19.3047V18.4141H123.742V19.3047H125.742ZM125.742 18.4141C125.742 16.8313 125.588 15.5093 125.13 14.6587L123.37 15.6069C123.568 15.9751 123.742 16.8406 123.742 18.4141H125.742ZM125.14 14.6765C124.597 13.6177 123.545 13.2188 122.398 13.2188V15.2188C123.096 15.2188 123.278 15.4292 123.36 15.5891L125.14 14.6765ZM122.398 13.2188C121.281 13.2188 120.318 13.6376 119.642 14.518C119.007 15.3458 118.704 16.48 118.612 17.7808L120.607 17.9224C120.686 16.8012 120.935 16.119 121.229 15.7359C121.483 15.4053 121.828 15.2188 122.398 15.2188V13.2188ZM124.629 21.6861C122.657 21.9106 121.055 22.3655 120.005 23.1778L121.229 24.7597C121.835 24.2907 122.984 23.8863 124.855 23.6733L124.629 21.6861ZM120.007 23.1761C118.85 24.0661 118.398 25.4957 118.398 27.1562H120.398C120.398 25.8168 120.759 25.1214 121.227 24.7614L120.007 23.1761ZM118.398 27.1562C118.398 28.2492 118.594 29.2501 119.143 29.9982C119.735 30.8038 120.615 31.1562 121.602 31.1562V29.1562C121.119 29.1562 120.898 29.0087 120.755 28.8143C120.57 28.5624 120.398 28.0633 120.398 27.1562H118.398ZM121.602 31.1562C122.832 31.1562 123.818 30.4498 124.57 29.4042L122.946 28.2364C122.417 28.9721 121.965 29.1562 121.602 29.1562V31.1562ZM124.568 29.4068C125.427 28.2208 125.742 26.2738 125.742 23.8516H123.742C123.742 26.2419 123.402 27.6073 122.948 28.2338L124.568 29.4068ZM125.742 23.8516V22.6797H123.742V23.8516H125.742ZM136.203 10.3281V9.32812H135.203V10.3281H136.203ZM142.461 10.3281H143.461V9.32812H142.461V10.3281ZM142.461 13.5625H141.461L143.375 13.9676L142.461 13.5625ZM152.211 10.9141L151.636 11.7321L151.643 11.7372L151.65 11.7422L152.211 10.9141ZM154.578 34V35H155.578V34H154.578ZM147.969 34H146.969V35H147.969V34ZM143.375 16.0703L144.262 16.5329L144.266 16.5251L143.375 16.0703ZM142.812 34V35H143.812V34H142.812ZM136.203 34H135.203V35H136.203V34ZM136.203 11.3281H142.461V9.32812H136.203V11.3281ZM141.461 10.3281V13.5625H143.461V10.3281H141.461ZM143.375 13.9676C143.854 12.8862 144.5 12.1285 145.293 11.6333C146.09 11.1357 147.106 10.8594 148.391 10.8594V8.85938C146.816 8.85938 145.414 9.20021 144.234 9.93697C143.05 10.6761 142.161 11.77 141.547 13.1574L143.375 13.9676ZM148.391 10.8594C149.786 10.8594 150.844 11.1754 151.636 11.7321L152.786 10.096C151.578 9.24644 150.089 8.85938 148.391 8.85938V10.8594ZM151.65 11.7422C152.487 12.3083 152.975 12.996 153.189 13.8149L155.124 13.3101C154.775 11.9727 153.966 10.8948 152.772 10.086L151.65 11.7422ZM153.189 13.8149C153.436 14.7649 153.578 16.3006 153.578 18.4844H155.578C155.578 16.2619 155.439 14.5164 155.124 13.3101L153.189 13.8149ZM153.578 18.4844V34H155.578V18.4844H153.578ZM154.578 33H147.969V35H154.578V33ZM148.969 34V18.4844H146.969V34H148.969ZM148.969 18.4844C148.969 17.6541 148.917 16.9343 148.796 16.3487C148.682 15.7977 148.476 15.2011 148.038 14.7964L146.681 16.2661C146.649 16.2364 146.748 16.3195 146.837 16.7529C146.919 17.1517 146.969 17.7209 146.969 18.4844H148.969ZM148.038 14.7964C147.404 14.212 146.594 13.9688 145.719 13.9688V15.9688C146.219 15.9688 146.502 16.1005 146.681 16.2661L148.038 14.7964ZM145.719 13.9688C144.343 13.9688 143.101 14.4075 142.484 15.6155L144.266 16.5251C144.399 16.2644 144.72 15.9688 145.719 15.9688V13.9688ZM142.488 15.6077C142.224 16.1149 142.063 16.7629 141.963 17.4856C141.86 18.2223 141.812 19.1055 141.812 20.125H143.812C143.812 19.1601 143.858 18.3754 143.944 17.7605C144.031 17.1316 144.151 16.7445 144.262 16.5329L142.488 15.6077ZM141.812 20.125V34H143.812V20.125H141.812ZM142.812 33H136.203V35H142.812V33ZM137.203 34V10.3281H135.203V34H137.203ZM170.703 2.00781V1.00781H169.703V2.00781H170.703ZM177.195 2.00781H178.195V1.00781H177.195V2.00781ZM177.195 34V35H178.195V34H177.195ZM171.078 34H170.078V35H171.078V34ZM171.078 30.0859H172.078L170.135 29.7526L171.078 30.0859ZM160.25 13.0469L159.434 12.4692L159.431 12.4734L160.25 13.0469ZM170.703 12.5312L169.829 13.0169L171.703 16.3904V12.5312H170.703ZM169.953 15.5781L169.099 16.0975L169.105 16.1074L169.111 16.1172L169.953 15.5781ZM165.547 16.0234L164.609 15.6752L164.605 15.6871L165.547 16.0234ZM169.859 28.7266L169.079 28.1019L169.077 28.104L169.859 28.7266ZM170.703 3.00781H177.195V1.00781H170.703V3.00781ZM176.195 2.00781V34H178.195V2.00781H176.195ZM177.195 33H171.078V35H177.195V33ZM172.078 34V30.0859H170.078V34H172.078ZM170.135 29.7526C169.679 31.0427 169.072 31.9231 168.362 32.4817C167.663 33.0316 166.792 33.3281 165.688 33.3281V35.3281C167.177 35.3281 168.501 34.9176 169.599 34.0534C170.686 33.198 171.477 31.9573 172.021 30.4193L170.135 29.7526ZM165.688 33.3281C163.502 33.3281 161.936 32.4133 160.863 30.5092L159.121 31.4908C160.548 34.0242 162.78 35.3281 165.688 35.3281V33.3281ZM160.863 30.5092C159.726 28.4899 159.117 25.763 159.117 22.2578H157.117C157.117 25.9714 157.759 29.0726 159.121 31.4908L160.863 30.5092ZM159.117 22.2578C159.117 18.2315 159.82 15.4055 161.069 13.6203L159.431 12.4734C157.837 14.7508 157.117 18.0654 157.117 22.2578H159.117ZM161.066 13.6245C162.325 11.8453 163.941 11 165.992 11V9C163.262 9 161.05 10.1859 159.434 12.4692L161.066 13.6245ZM165.992 11C167.894 11 169.096 11.6976 169.829 13.0169L171.577 12.0456C170.435 9.98992 168.496 9 165.992 9V11ZM171.703 12.5312V2.00781H169.703V12.5312H171.703ZM171.703 20.2422C171.703 19.0476 171.639 18.0196 171.503 17.1713C171.369 16.3401 171.154 15.5988 170.795 15.0391L169.111 16.1172C169.253 16.3387 169.412 16.7654 169.528 17.4888C169.642 18.1953 169.703 19.1087 169.703 20.2422H171.703ZM170.808 15.0587C170.141 13.9615 169.105 13.3828 167.82 13.3828V15.3828C168.411 15.3828 168.797 15.601 169.099 16.0975L170.808 15.0587ZM167.82 13.3828C167.096 13.3828 166.414 13.564 165.835 13.9821C165.259 14.3973 164.864 14.9889 164.609 15.6753L166.484 16.3716C166.636 15.9642 166.823 15.7355 167.005 15.6039C167.184 15.4751 167.435 15.3828 167.82 15.3828V13.3828ZM164.605 15.6871C164.365 16.3591 164.211 17.3039 164.111 18.4571C164.01 19.6289 163.961 21.0858 163.961 22.8203H165.961C165.961 21.1173 166.009 19.7226 166.104 18.6289C166.2 17.5164 166.338 16.7815 166.489 16.3598L164.605 15.6871ZM163.961 22.8203C163.961 25.3879 164.173 27.3667 164.697 28.6015L166.538 27.8204C166.187 26.9927 165.961 25.3778 165.961 22.8203H163.961ZM164.697 28.6015C164.968 29.2416 165.358 29.7938 165.901 30.1836C166.452 30.5789 167.093 30.7578 167.773 30.7578V28.7578C167.454 28.7578 167.235 28.6789 167.067 28.5586C166.892 28.4328 166.704 28.2115 166.538 27.8204L164.697 28.6015ZM167.773 30.7578C168.936 30.7578 169.914 30.2637 170.642 29.3491L169.077 28.104C168.711 28.5644 168.298 28.7578 167.773 28.7578V30.7578ZM170.64 29.3513C171.066 28.8194 171.319 28.1058 171.473 27.32C171.631 26.5192 171.703 25.5527 171.703 24.4375H169.703C169.703 25.4785 169.635 26.305 169.511 26.9339C169.384 27.5778 169.216 27.9306 169.079 28.1019L170.64 29.3513ZM171.703 24.4375V20.2422H169.703V24.4375H171.703ZM188 2.00781V1.00781H187V2.00781H188ZM207.945 2.00781H208.945V1.00781H207.945V2.00781ZM207.945 8.00781V9.00781H208.945V8.00781H207.945ZM201.406 8.00781V7.00781H200.406V8.00781H201.406ZM201.406 34V35H202.406V34H201.406ZM194.375 34H193.375V35H194.375V34ZM194.375 8.00781H195.375V7.00781H194.375V8.00781ZM188 8.00781H187V9.00781H188V8.00781ZM188 3.00781H207.945V1.00781H188V3.00781ZM206.945 2.00781V8.00781H208.945V2.00781H206.945ZM207.945 7.00781H201.406V9.00781H207.945V7.00781ZM200.406 8.00781V34H202.406V8.00781H200.406ZM201.406 33H194.375V35H201.406V33ZM195.375 34V8.00781H193.375V34H195.375ZM194.375 7.00781H188V9.00781H194.375V7.00781ZM189 8.00781V2.00781H187V8.00781H189ZM226.32 23.2656V24.2656H227.32V23.2656H226.32ZM213.898 23.2656V22.2656H212.898V23.2656H213.898ZM220.438 25.8672L220.501 24.8692L219.531 24.8074L219.442 25.7751L220.438 25.8672ZM226.32 26.2422L227.303 26.4292L227.515 25.3163L226.384 25.2442L226.32 26.2422ZM209.727 13.1172L208.953 12.483L208.953 12.4836L209.727 13.1172ZM223.602 12.7422L222.871 13.4252L222.877 13.4312L223.602 12.7422ZM220.086 19.4453V20.4453H221.032L221.084 19.5008L220.086 19.4453ZM213.945 19.4453L212.945 19.4408L212.941 20.4453H213.945V19.4453ZM226.32 22.2656H213.898V24.2656H226.32V22.2656ZM212.898 23.2656V24.5781H214.898V23.2656H212.898ZM212.898 24.5781C212.898 25.6797 212.973 26.6384 213.135 27.4375C213.295 28.2242 213.556 28.9353 213.986 29.4705L215.545 28.217C215.397 28.0334 215.224 27.6743 215.095 27.0391C214.969 26.4162 214.898 25.6015 214.898 24.5781H212.898ZM213.986 29.4705C214.758 30.4297 215.804 30.9219 217.039 30.9219V28.9219C216.399 28.9219 215.93 28.6953 215.545 28.217L213.986 29.4705ZM217.039 30.9219C218.295 30.9219 219.382 30.487 220.167 29.5506C220.917 28.6556 221.299 27.4115 221.433 25.9593L219.442 25.7751C219.326 27.026 219.017 27.8092 218.634 28.2658C218.286 28.681 217.798 28.9219 217.039 28.9219V30.9219ZM220.374 26.8652L226.257 27.2402L226.384 25.2442L220.501 24.8692L220.374 26.8652ZM225.338 26.0552C224.842 28.6611 223.875 30.4935 222.526 31.6782C221.184 32.8556 219.352 33.4922 216.922 33.4922V35.4922C219.711 35.4922 222.054 34.7537 223.845 33.1812C225.628 31.6159 226.752 29.3233 227.303 26.4292L225.338 26.0552ZM216.922 33.4922C213.953 33.4922 211.827 32.5058 210.378 30.6244L208.794 31.8444C210.689 34.3067 213.454 35.4922 216.922 35.4922V33.4922ZM210.378 30.6244C208.879 28.6771 208.078 26.0078 208.078 22.5156H206.078C206.078 26.3047 206.949 29.4479 208.794 31.8444L210.378 30.6244ZM208.078 22.5156C208.078 18.5312 208.936 15.6606 210.5 13.7507L208.953 12.4836C206.985 14.8863 206.078 18.2813 206.078 22.5156H208.078ZM210.5 13.7513C212.078 11.8272 214.169 10.8594 216.875 10.8594V8.85938C213.613 8.85938 210.938 10.0635 208.953 12.483L210.5 13.7513ZM216.875 10.8594C219.292 10.8594 221.268 11.7104 222.871 13.4251L224.332 12.0592C222.342 9.93024 219.833 8.85938 216.875 8.85938V10.8594ZM222.877 13.4312C224.407 15.0406 225.32 18.2014 225.32 23.2656H227.32C227.32 18.1111 226.421 14.2563 224.326 12.0531L222.877 13.4312ZM221.084 19.5008C221.1 19.2132 221.109 18.9729 221.109 18.7891H219.109C219.109 18.9177 219.103 19.115 219.087 19.3898L221.084 19.5008ZM221.109 18.7891C221.109 17.1841 220.843 15.8044 220.164 14.8008C219.437 13.7275 218.332 13.2188 217.016 13.2188V15.2188C217.762 15.2188 218.203 15.4718 218.508 15.9219C218.86 16.4417 219.109 17.3471 219.109 18.7891H221.109ZM217.016 13.2188C215.648 13.2188 214.555 13.8401 213.862 15.0189C213.218 16.1161 212.953 17.6339 212.945 19.4408L214.945 19.4498C214.953 17.7723 215.208 16.6769 215.587 16.0319C215.918 15.4685 216.352 15.2188 217.016 15.2188V13.2188ZM213.945 20.4453H220.086V18.4453H213.945V20.4453ZM247.859 19.0469L247.898 20.0461L248.938 20.0064L248.856 18.968L247.859 19.0469ZM241.719 19.2812L240.721 19.3456L240.784 20.3177L241.757 20.2805L241.719 19.2812ZM241.016 16L240.121 16.4472L240.125 16.4548L241.016 16ZM236.586 27.5312L235.689 27.9733L235.694 27.9836L236.586 27.5312ZM241.719 24.7656L241.783 23.7677L240.774 23.7022L240.72 24.7122L241.719 24.7656ZM247.859 25.1641L248.856 25.2517L248.945 24.2324L247.924 24.1662L247.859 25.1641ZM231.57 31.4219L230.782 32.0371L230.787 32.0436L231.57 31.4219ZM231.688 13.0234L230.909 12.3952L230.907 12.3987L231.688 13.0234ZM247.821 18.0476L241.681 18.282L241.757 20.2805L247.898 20.0461L247.821 18.0476ZM242.717 19.2169C242.62 17.716 242.374 16.4608 241.906 15.5452L240.125 16.4548C240.408 17.008 240.63 17.9402 240.721 19.3456L242.717 19.2169ZM241.91 15.5528C241.649 15.0307 241.273 14.5945 240.77 14.296C240.269 13.9995 239.704 13.875 239.117 13.875V15.875C239.421 15.875 239.617 15.938 239.75 16.0165C239.879 16.093 240.007 16.2193 240.121 16.4472L241.91 15.5528ZM239.117 13.875C238.377 13.875 237.688 14.0726 237.088 14.4921C236.497 14.9055 236.05 15.4942 235.718 16.1909C235.067 17.5578 234.789 19.4837 234.789 21.8594H236.789C236.789 19.5788 237.066 18.0125 237.524 17.0513C237.747 16.5839 237.993 16.2996 238.234 16.1309C238.467 15.9684 238.748 15.875 239.117 15.875V13.875ZM234.789 21.8594C234.789 24.5702 235.046 26.6691 235.689 27.9733L237.483 27.0892C237.063 26.2372 236.789 24.5548 236.789 21.8594H234.789ZM235.694 27.9836C236.026 28.6381 236.467 29.1892 237.043 29.5749C237.626 29.9654 238.291 30.1484 239 30.1484V28.1484C238.647 28.1484 238.378 28.0619 238.156 27.9133C237.927 27.76 237.693 27.5025 237.478 27.0789L235.694 27.9836ZM239 30.1484C240.19 30.1484 241.145 29.5908 241.772 28.5799C242.355 27.6389 242.636 26.3447 242.717 24.819L240.72 24.7122C240.646 26.1084 240.395 27.0057 240.072 27.5256C239.793 27.9756 239.466 28.1484 239 28.1484V30.1484ZM241.654 25.7635L247.795 26.162L247.924 24.1662L241.783 23.7677L241.654 25.7635ZM246.863 25.0765C246.602 28.0496 245.744 30.124 244.42 31.4548C243.11 32.7711 241.212 33.4922 238.578 33.4922V35.4922C241.585 35.4922 244.054 34.6586 245.838 32.8655C247.607 31.0869 248.57 28.4972 248.856 25.2517L246.863 25.0765ZM238.578 33.4922C235.78 33.4922 233.756 32.5668 232.354 30.8001L230.787 32.0436C232.635 34.3707 235.283 35.4922 238.578 35.4922V33.4922ZM232.359 30.8067C230.944 28.9936 230.156 26.19 230.156 22.2344H228.156C228.156 26.4037 228.978 29.7252 230.782 32.0371L232.359 30.8067ZM230.156 22.2344C230.156 18.3229 230.978 15.5114 232.468 13.6481L230.907 12.3987C229.022 14.7542 228.156 18.0834 228.156 22.2344H230.156ZM232.466 13.6516C233.953 11.8098 236.031 10.8594 238.836 10.8594V8.85938C235.515 8.85938 232.829 10.0183 230.909 12.3952L232.466 13.6516ZM238.836 10.8594C241.414 10.8594 243.261 11.5682 244.527 12.857C245.808 14.1613 246.631 16.1982 246.862 19.1257L248.856 18.968C248.603 15.7705 247.68 13.2137 245.954 11.4555C244.212 9.68179 241.789 8.85938 238.836 8.85938V10.8594ZM251.469 2.00781V1.00781H250.469V2.00781H251.469ZM258.078 2.00781H259.078V1.00781H258.078V2.00781ZM258.078 12.8359H257.078V16.4789L258.938 13.3465L258.078 12.8359ZM267.688 10.9609L267.056 11.7367L267.063 11.7418L267.688 10.9609ZM269.469 13.8203L268.491 14.0316L268.492 14.0344L269.469 13.8203ZM269.844 34V35H270.844V34H269.844ZM263.234 34H262.234V35H263.234V34ZM262.789 15.7422L261.911 16.221L261.92 16.237L261.929 16.2527L262.789 15.7422ZM258.078 34V35H259.078V34H258.078ZM251.469 34H250.469V35H251.469V34ZM251.469 3.00781H258.078V1.00781H251.469V3.00781ZM257.078 2.00781V12.8359H259.078V2.00781H257.078ZM258.938 13.3465C259.914 11.7021 261.491 10.8359 263.891 10.8359V8.83594C260.915 8.83594 258.617 9.9698 257.218 12.3254L258.938 13.3465ZM263.891 10.8359C265.351 10.8359 266.367 11.1758 267.056 11.7366L268.319 10.1852C267.164 9.24605 265.649 8.83594 263.891 8.83594V10.8359ZM267.063 11.7418C267.824 12.3505 268.291 13.1038 268.491 14.0316L270.446 13.609C270.147 12.2244 269.426 11.0714 268.312 10.1801L267.063 11.7418ZM268.492 14.0344C268.719 15.0682 268.844 16.6462 268.844 18.8125H270.844C270.844 16.6038 270.719 14.8537 270.446 13.6062L268.492 14.0344ZM268.844 18.8125V34H270.844V18.8125H268.844ZM269.844 33H263.234V35H269.844V33ZM264.234 34V18.8125H262.234V34H264.234ZM264.234 18.8125C264.234 18.0121 264.196 17.3176 264.113 16.7412C264.032 16.185 263.897 15.6501 263.649 15.2316L261.929 16.2527C261.978 16.3343 262.066 16.5611 262.133 17.0283C262.198 17.4754 262.234 18.066 262.234 18.8125H264.234ZM263.667 15.2633C263.127 14.2735 262.064 13.9688 261.008 13.9688V15.9688C261.764 15.9688 261.889 16.1796 261.911 16.221L263.667 15.2633ZM261.008 13.9688C259.93 13.9688 258.958 14.2664 258.201 14.9564L259.549 16.4343C259.854 16.1555 260.304 15.9688 261.008 15.9688V13.9688ZM258.201 14.9564C257.725 15.3902 257.46 16.0084 257.305 16.6503C257.147 17.3065 257.078 18.0978 257.078 19H259.078C259.078 18.1835 259.142 17.5646 259.249 17.1192C259.36 16.6595 259.493 16.4848 259.549 16.4343L258.201 14.9564ZM257.078 19V34H259.078V19H257.078ZM258.078 33H251.469V35H258.078V33ZM252.469 34V2.00781H250.469V34H252.469ZM274.391 10.3281V9.32812H273.391V10.3281H274.391ZM280.648 10.3281H281.648V9.32812H280.648V10.3281ZM280.648 13.5625H279.648L281.563 13.9676L280.648 13.5625ZM290.398 10.9141L289.823 11.7321L289.831 11.7372L289.838 11.7422L290.398 10.9141ZM292.766 34V35H293.766V34H292.766ZM286.156 34H285.156V35H286.156V34ZM281.562 16.0703L282.449 16.5329L282.453 16.5251L281.562 16.0703ZM281 34V35H282V34H281ZM274.391 34H273.391V35H274.391V34ZM274.391 11.3281H280.648V9.32812H274.391V11.3281ZM279.648 10.3281V13.5625H281.648V10.3281H279.648ZM281.563 13.9676C282.042 12.8862 282.688 12.1285 283.481 11.6333C284.278 11.1357 285.293 10.8594 286.578 10.8594V8.85938C285.004 8.85938 283.601 9.20021 282.421 9.93697C281.238 10.6761 280.349 11.77 279.734 13.1574L281.563 13.9676ZM286.578 10.8594C287.974 10.8594 289.032 11.1754 289.823 11.7321L290.974 10.096C289.765 9.24644 288.276 8.85938 286.578 8.85938V10.8594ZM289.838 11.7422C290.674 12.3083 291.163 12.996 291.376 13.8149L293.311 13.3101C292.962 11.9727 292.154 10.8948 290.959 10.086L289.838 11.7422ZM291.376 13.8149C291.624 14.7649 291.766 16.3006 291.766 18.4844H293.766C293.766 16.2619 293.626 14.5164 293.311 13.3101L291.376 13.8149ZM291.766 18.4844V34H293.766V18.4844H291.766ZM292.766 33H286.156V35H292.766V33ZM287.156 34V18.4844H285.156V34H287.156ZM287.156 18.4844C287.156 17.6541 287.104 16.9343 286.983 16.3487C286.87 15.7977 286.664 15.2011 286.225 14.7964L284.869 16.2661C284.836 16.2364 284.935 16.3195 285.025 16.7529C285.107 17.1517 285.156 17.7209 285.156 18.4844H287.156ZM286.225 14.7964C285.592 14.212 284.781 13.9688 283.906 13.9688V15.9688C284.406 15.9688 284.689 16.1005 284.869 16.2661L286.225 14.7964ZM283.906 13.9688C282.53 13.9688 281.289 14.4075 280.672 15.6155L282.453 16.5251C282.586 16.2644 282.907 15.9688 283.906 15.9688V13.9688ZM280.676 15.6077C280.411 16.1149 280.25 16.7629 280.15 17.4856C280.048 18.2223 280 19.1055 280 20.125H282C282 19.1601 282.046 18.3754 282.131 17.7605C282.218 17.1316 282.339 16.7445 282.449 16.5329L280.676 15.6077ZM280 20.125V34H282V20.125H280ZM281 33H274.391V35H281V33ZM275.391 34V10.3281H273.391V34H275.391ZM308.094 16.0469L307.16 16.404L307.164 16.4159L308.094 16.0469ZM303.781 15.9766L304.697 16.3774L304.7 16.3722L303.781 15.9766ZM308.141 28.2109L309.084 28.5431L309.085 28.5389L308.141 28.2109ZM314.547 22.1641C314.547 26.171 313.761 28.9922 312.356 30.7954C310.987 32.5512 308.911 33.4922 305.938 33.4922V35.4922C309.37 35.4922 312.099 34.3785 313.933 32.0249C315.731 29.7187 316.547 26.3758 316.547 22.1641H314.547ZM305.938 33.4922C302.956 33.4922 300.873 32.5506 299.501 30.7945C298.092 28.9914 297.305 26.1706 297.305 22.1641H295.305C295.305 26.3762 296.123 29.7196 297.925 32.0259C299.764 34.3791 302.498 35.4922 305.938 35.4922V33.4922ZM297.305 22.1641C297.305 18.1656 298.092 15.3511 299.5 13.552C300.872 11.7995 302.955 10.8594 305.938 10.8594V8.85938C302.498 8.85938 299.764 9.97006 297.925 12.3191C296.123 14.6216 295.305 17.9594 295.305 22.1641H297.305ZM305.938 10.8594C308.911 10.8594 310.988 11.7989 312.356 13.551C313.761 15.3502 314.547 18.1652 314.547 22.1641H316.547C316.547 17.9598 315.731 14.6224 313.933 12.32C312.098 9.97067 309.37 8.85938 305.938 8.85938V10.8594ZM309.727 22.1641C309.727 20.6363 309.673 19.3357 309.563 18.2701C309.454 17.2193 309.285 16.3365 309.023 15.6778L307.164 16.4159C307.325 16.8197 307.471 17.4877 307.574 18.4759C307.674 19.4495 307.727 20.6762 307.727 22.1641H309.727ZM309.028 15.6897C308.775 15.0283 308.394 14.4538 307.844 14.0474C307.287 13.6356 306.633 13.4531 305.938 13.4531V15.4531C306.273 15.4531 306.494 15.5362 306.656 15.6557C306.825 15.7806 307.006 16.0029 307.16 16.404L309.028 15.6897ZM305.938 13.4531C305.26 13.4531 304.622 13.6283 304.071 14.0173C303.527 14.4016 303.136 14.947 302.863 15.5809L304.7 16.3722C304.864 15.9905 305.051 15.7742 305.225 15.6507C305.394 15.5319 305.615 15.4531 305.938 15.4531V13.4531ZM302.865 15.5757C302.583 16.2197 302.407 17.1091 302.295 18.168C302.18 19.247 302.125 20.582 302.125 22.1641H304.125C304.125 20.6211 304.179 19.3624 304.283 18.3789C304.39 17.3753 304.542 16.7335 304.697 16.3774L302.865 15.5757ZM302.125 22.1641C302.125 25.0516 302.307 27.2081 302.739 28.5037L304.636 27.8713C304.318 26.9169 304.125 25.0578 304.125 22.1641H302.125ZM302.739 28.5037C302.974 29.208 303.355 29.821 303.931 30.2531C304.512 30.6886 305.203 30.875 305.938 30.875V28.875C305.547 28.875 305.301 28.7802 305.131 28.6531C304.957 28.5227 304.776 28.292 304.636 27.8713L302.739 28.5037ZM305.938 30.875C306.655 30.875 307.33 30.6869 307.9 30.2569C308.462 29.8322 308.841 29.2319 309.084 28.5431L307.197 27.8788C307.049 28.2993 306.866 28.5311 306.694 28.661C306.529 28.7857 306.298 28.875 305.938 28.875V30.875ZM309.085 28.5389C309.537 27.2373 309.727 25.0668 309.727 22.1641H307.727C307.727 25.0738 307.525 26.9346 307.196 27.8829L309.085 28.5389ZM319.367 2.00781V1.00781H318.367V2.00781H319.367ZM325.977 2.00781H326.977V1.00781H325.977V2.00781ZM325.977 34V35H326.977V34H325.977ZM319.367 34H318.367V35H319.367V34ZM319.367 3.00781H325.977V1.00781H319.367V3.00781ZM324.977 2.00781V34H326.977V2.00781H324.977ZM325.977 33H319.367V35H325.977V33ZM320.367 34V2.00781H318.367V34H320.367ZM341.609 16.0469L340.675 16.404L340.68 16.4159L341.609 16.0469ZM337.297 15.9766L338.213 16.3774L338.215 16.3722L337.297 15.9766ZM341.656 28.2109L342.599 28.5431L342.601 28.5389L341.656 28.2109ZM348.062 22.1641C348.062 26.171 347.277 28.9922 345.871 30.7954C344.503 32.5512 342.426 33.4922 339.453 33.4922V35.4922C342.886 35.4922 345.614 34.3785 347.449 32.0249C349.246 29.7187 350.062 26.3758 350.062 22.1641H348.062ZM339.453 33.4922C336.471 33.4922 334.389 32.5506 333.016 30.7945C331.608 28.9914 330.82 26.1706 330.82 22.1641H328.82C328.82 26.3762 329.638 29.7196 331.441 32.0259C333.279 34.3791 336.013 35.4922 339.453 35.4922V33.4922ZM330.82 22.1641C330.82 18.1656 331.608 15.3511 333.016 13.552C334.388 11.7995 336.471 10.8594 339.453 10.8594V8.85938C336.014 8.85938 333.28 9.97006 331.441 12.3191C329.639 14.6216 328.82 17.9594 328.82 22.1641H330.82ZM339.453 10.8594C342.427 10.8594 344.504 11.7989 345.872 13.551C347.277 15.3502 348.062 18.1652 348.062 22.1641H350.062C350.062 17.9598 349.246 14.6224 347.448 12.32C345.614 9.97067 342.885 8.85938 339.453 8.85938V10.8594ZM343.242 22.1641C343.242 20.6363 343.189 19.3357 343.079 18.2701C342.97 17.2193 342.8 16.3365 342.539 15.6778L340.68 16.4159C340.84 16.8197 340.987 17.4877 341.089 18.4759C341.19 19.4495 341.242 20.6762 341.242 22.1641H343.242ZM342.543 15.6897C342.291 15.0283 341.91 14.4538 341.36 14.0474C340.803 13.6356 340.149 13.4531 339.453 13.4531V15.4531C339.789 15.4531 340.01 15.5362 340.171 15.6557C340.34 15.7806 340.522 16.0029 340.675 16.404L342.543 15.6897ZM339.453 13.4531C338.776 13.4531 338.138 13.6283 337.587 14.0173C337.043 14.4016 336.652 14.947 336.378 15.5809L338.215 16.3722C338.38 15.9905 338.566 15.7742 338.741 15.6507C338.909 15.5319 339.131 15.4531 339.453 15.4531V13.4531ZM336.381 15.5757C336.099 16.2197 335.923 17.1091 335.81 18.168C335.696 19.247 335.641 20.582 335.641 22.1641H337.641C337.641 20.6211 337.695 19.3624 337.799 18.3789C337.906 17.3753 338.057 16.7335 338.213 16.3774L336.381 15.5757ZM335.641 22.1641C335.641 25.0516 335.823 27.2081 336.254 28.5037L338.152 27.8713C337.834 26.9169 337.641 25.0578 337.641 22.1641H335.641ZM336.254 28.5037C336.489 29.208 336.871 29.821 337.447 30.2531C338.027 30.6886 338.719 30.875 339.453 30.875V28.875C339.062 28.875 338.816 28.7802 338.647 28.6531C338.473 28.5227 338.292 28.292 338.152 27.8713L336.254 28.5037ZM339.453 30.875C340.171 30.875 340.846 30.6869 341.415 30.2569C341.978 29.8322 342.357 29.2319 342.599 28.5431L340.713 27.8788C340.565 28.2993 340.382 28.5311 340.21 28.661C340.045 28.7857 339.813 28.875 339.453 28.875V30.875ZM342.601 28.5389C343.053 27.2373 343.242 25.0668 343.242 22.1641H341.242C341.242 25.0738 341.041 26.9346 340.712 27.8829L342.601 28.5389ZM373.039 6.4375H374.039V5.68926L373.321 5.47813L373.039 6.4375ZM373.039 10.75L372.797 11.7201L374.039 12.0308V10.75H373.039ZM369.102 12.6953L368.123 12.4909L368.016 13.0038L368.376 13.3838L369.102 12.6953ZM368.469 22.5859L369.095 23.3653L369.1 23.3616L368.469 22.5859ZM359.211 24.1094L359.45 23.1384L359.073 23.0455L358.732 23.2315L359.211 24.1094ZM363.266 27.7188L363.325 26.7205L363.32 26.7202L363.266 27.7188ZM368.586 28.4219L368.316 29.3848L368.32 29.3858L368.586 28.4219ZM371.539 30.4375L370.746 31.0472L370.752 31.0548L371.539 30.4375ZM355.344 32.3125L355.66 33.2612L358.032 32.4704L355.769 31.4074L355.344 32.3125ZM356.328 23.0078L356.796 23.8918L358.526 22.977L356.771 22.111L356.328 23.0078ZM355.227 11.7109L354.622 10.9146L354.618 10.9175L355.227 11.7109ZM366.781 10.8906L366.382 11.8074L367.637 12.3543L367.776 10.992L366.781 10.8906ZM360.148 14.3359L359.282 13.8374L359.277 13.8446L360.148 14.3359ZM359 32.9688L359.128 31.977L358.843 31.9402L358.582 32.0605L359 32.9688ZM366.5 34.2344L365.747 34.8929L365.749 34.895L366.5 34.2344ZM365.211 33.5312L365.003 34.5095L365.02 34.513L365.037 34.516L365.211 33.5312ZM361.93 33.25L361.866 34.248L361.875 34.2485L361.883 34.2489L361.93 33.25ZM372.039 6.4375V10.75H374.039V6.4375H372.039ZM373.282 9.77986C372.713 9.63769 372.155 9.5625 371.609 9.5625V11.5625C371.97 11.5625 372.365 11.6123 372.797 11.7201L373.282 9.77986ZM371.609 9.5625C370.746 9.5625 369.944 9.78884 369.303 10.3339C368.669 10.8738 368.302 11.6329 368.123 12.4909L370.08 12.8997C370.198 12.3358 370.398 12.0286 370.599 11.8575C370.794 11.6916 371.097 11.5625 371.609 11.5625V9.5625ZM368.376 13.3838C369.349 14.4079 369.859 15.7282 369.859 17.4297H371.859C371.859 15.2874 371.198 13.4514 369.827 12.0068L368.376 13.3838ZM369.859 17.4297C369.859 19.284 369.187 20.7123 367.838 21.8103L369.1 23.3616C370.938 21.8658 371.859 19.8567 371.859 17.4297H369.859ZM367.842 21.8066C366.465 22.9137 364.64 23.5078 362.281 23.5078V25.5078C364.985 25.5078 367.285 24.8207 369.095 23.3653L367.842 21.8066ZM362.281 23.5078C361.404 23.5078 360.461 23.3875 359.45 23.1384L358.972 25.0803C360.117 25.3625 361.221 25.5078 362.281 25.5078V23.5078ZM358.732 23.2315C357.585 23.8569 356.664 24.7682 356.664 26.0547H358.664C358.664 25.8724 358.774 25.4868 359.69 24.9873L358.732 23.2315ZM356.664 26.0547C356.664 26.5172 356.779 26.9851 357.077 27.3878C357.374 27.7885 357.786 28.036 358.223 28.1778L358.84 26.2753C358.768 26.2522 358.727 26.2296 358.707 26.2158C358.696 26.209 358.691 26.204 358.688 26.2015C358.687 26.2002 358.686 26.1993 358.685 26.1988C358.685 26.1984 358.685 26.1982 358.685 26.1981C358.685 26.1981 358.685 26.198 358.685 26.1978C358.684 26.1977 358.684 26.1971 358.684 26.1961C358.683 26.1943 358.68 26.1893 358.678 26.1802C358.672 26.1617 358.664 26.1224 358.664 26.0547H356.664ZM358.223 28.1778C358.625 28.3082 359.263 28.4036 360.045 28.4849C360.857 28.5693 361.914 28.6465 363.211 28.7173L363.32 26.7202C362.039 26.6503 361.018 26.5752 360.252 26.4956C359.456 26.4128 359.016 26.3324 358.84 26.2753L358.223 28.1778ZM363.207 28.717C365.564 28.8566 367.251 29.0865 368.316 29.3848L368.856 27.4589C367.577 27.101 365.717 26.8621 363.325 26.7205L363.207 28.717ZM368.32 29.3858C369.289 29.6536 370.092 30.1962 370.746 31.0472L372.332 29.8278C371.424 28.6475 370.258 27.8464 368.852 27.458L368.32 29.3858ZM370.752 31.0548C371.376 31.8498 371.734 32.9488 371.734 34.4453H373.734C373.734 32.6293 373.296 31.0565 372.326 29.8202L370.752 31.0548ZM371.734 34.4453C371.734 36.8064 370.895 38.4548 369.28 39.5619C367.597 40.7156 364.948 41.3672 361.18 41.3672V43.3672C365.114 43.3672 368.242 42.6984 370.411 41.2115C372.648 39.678 373.734 37.3654 373.734 34.4453H371.734ZM361.18 41.3672C358.01 41.3672 355.796 40.9001 354.405 40.0908C353.098 39.3299 352.477 38.2483 352.477 36.7188H350.477C350.477 38.9548 351.472 40.6974 353.399 41.8193C355.244 42.8929 357.881 43.3672 361.18 43.3672V41.3672ZM352.477 36.7188C352.477 35.9057 352.721 35.258 353.195 34.7182C353.686 34.1592 354.476 33.6557 355.66 33.2612L355.028 31.3638C353.633 31.8287 352.49 32.4892 351.692 33.399C350.876 34.328 350.477 35.4537 350.477 36.7188H352.477ZM355.769 31.4074C353.935 30.5461 353.25 29.4701 353.25 28.2109H351.25C351.25 30.483 352.627 32.1414 354.919 33.2176L355.769 31.4074ZM353.25 28.2109C353.25 26.7212 354.219 25.2541 356.796 23.8918L355.861 22.1238C353 23.6365 351.25 25.6382 351.25 28.2109H353.25ZM356.771 22.111C355.747 21.606 355.024 20.9485 354.551 20.1526C354.075 19.353 353.812 18.3507 353.812 17.1016H351.812C351.812 18.6337 352.136 20.0064 352.832 21.1755C353.53 22.3484 354.566 23.2534 355.886 23.9046L356.771 22.111ZM353.812 17.1016C353.812 14.9958 354.515 13.5172 355.835 12.5044L354.618 10.9175C352.72 12.3735 351.812 14.4886 351.812 17.1016H353.812ZM355.831 12.5072C357.234 11.4422 359.163 10.8594 361.719 10.8594V8.85938C358.868 8.85938 356.47 9.51092 354.622 10.9146L355.831 12.5072ZM361.719 10.8594C363.384 10.8594 364.935 11.1772 366.382 11.8074L367.181 9.97384C365.471 9.22905 363.647 8.85938 361.719 8.85938V10.8594ZM367.776 10.992C367.94 9.38052 368.329 8.44359 368.777 7.96413L367.316 6.59837C366.421 7.55641 365.966 9.02573 365.786 10.7893L367.776 10.992ZM368.777 7.96413C369.187 7.5257 369.922 7.20312 371.211 7.20312V5.20312C369.625 5.20312 368.25 5.5993 367.316 6.59837L368.777 7.96413ZM371.211 7.20312C371.825 7.20312 372.336 7.27315 372.757 7.39687L373.321 5.47813C372.679 5.28935 371.972 5.20312 371.211 5.20312V7.20312ZM365.039 17.2188C365.039 15.887 364.863 14.7307 364.395 13.8743C364.153 13.431 363.823 13.05 363.387 12.7837C362.948 12.516 362.459 12.3984 361.953 12.3984V14.3984C362.143 14.3984 362.262 14.44 362.345 14.4907C362.43 14.5428 362.534 14.6393 362.64 14.8327C362.868 15.2497 363.039 16.0036 363.039 17.2188H365.039ZM361.953 12.3984C360.824 12.3984 359.853 12.844 359.282 13.8375L361.015 14.8344C361.163 14.5779 361.395 14.3984 361.953 14.3984V12.3984ZM359.277 13.8446C358.799 14.6927 358.633 15.9324 358.633 17.3828H360.633C360.633 15.9895 360.81 15.1979 361.019 14.8273L359.277 13.8446ZM358.633 17.3828C358.633 18.6516 358.828 19.7741 359.357 20.6077C359.934 21.5184 360.835 21.9688 361.906 21.9688V19.9688C361.462 19.9688 361.226 19.8214 361.046 19.5368C360.816 19.1752 360.633 18.5047 360.633 17.3828H358.633ZM361.906 21.9688C362.953 21.9688 363.869 21.5576 364.411 20.6289L362.683 19.6211C362.569 19.8174 362.39 19.9688 361.906 19.9688V21.9688ZM364.411 20.6289C364.883 19.8192 365.039 18.6144 365.039 17.2188H363.039C363.039 18.5731 362.867 19.3058 362.683 19.6211L364.411 20.6289ZM358.582 32.0605C357.776 32.4315 357.101 32.9253 356.628 33.5747C356.146 34.2351 355.914 34.9998 355.914 35.8281H357.914C357.914 35.3908 358.03 35.0461 358.243 34.7534C358.465 34.4497 358.833 34.1466 359.418 33.877L358.582 32.0605ZM355.914 35.8281C355.914 36.4302 356.09 36.9943 356.457 37.4782C356.814 37.9492 357.31 38.29 357.871 38.5365C358.97 39.0195 360.497 39.2188 362.352 39.2188V37.2188C360.581 37.2188 359.39 37.0195 358.676 36.7057C358.33 36.5537 358.147 36.3965 358.051 36.2699C357.965 36.1561 357.914 36.023 357.914 35.8281H355.914ZM362.352 39.2188C363.962 39.2188 365.326 39.0098 366.32 38.4803C366.832 38.2076 367.267 37.8381 367.572 37.3518C367.878 36.8622 368.016 36.311 368.016 35.7344H366.016C366.016 35.9859 365.959 36.1593 365.876 36.2908C365.792 36.4256 365.645 36.5737 365.379 36.7151C364.819 37.0137 363.85 37.2188 362.352 37.2188V39.2188ZM368.016 35.7344C368.016 34.9258 367.782 34.1775 367.251 33.5737L365.749 34.895C365.905 35.0725 366.016 35.3242 366.016 35.7344H368.016ZM367.253 33.5759C366.762 33.0148 366.121 32.6763 365.385 32.5465L365.037 34.516C365.364 34.5737 365.582 34.704 365.747 34.8929L367.253 33.5759ZM365.418 32.553C364.809 32.4237 363.631 32.3284 361.976 32.2511L361.883 34.2489C363.572 34.3278 364.582 34.42 365.003 34.5095L365.418 32.553ZM361.993 32.252C361.03 32.1909 360.075 32.0992 359.128 31.977L358.872 33.9605C359.862 34.0883 360.861 34.1841 361.866 34.248L361.993 32.252ZM381.617 8.38281V9.38281H382.617V8.38281H381.617ZM374.914 8.38281H373.914V9.38281H374.914V8.38281ZM374.914 1.84375V0.84375H373.914V1.84375H374.914ZM381.617 1.84375H382.617V0.84375H381.617V1.84375ZM374.961 10.3281V9.32812H373.961V10.3281H374.961ZM381.57 10.3281H382.57V9.32812H381.57V10.3281ZM381.57 34V35H382.57V34H381.57ZM374.961 34H373.961V35H374.961V34ZM381.617 7.38281H374.914V9.38281H381.617V7.38281ZM375.914 8.38281V1.84375H373.914V8.38281H375.914ZM374.914 2.84375H381.617V0.84375H374.914V2.84375ZM380.617 1.84375V8.38281H382.617V1.84375H380.617ZM374.961 11.3281H381.57V9.32812H374.961V11.3281ZM380.57 10.3281V34H382.57V10.3281H380.57ZM381.57 33H374.961V35H381.57V33ZM375.961 34V10.3281H373.961V34H375.961ZM404.633 23.2656V24.2656H405.633V23.2656H404.633ZM392.211 23.2656V22.2656H391.211V23.2656H392.211ZM398.75 25.8672L398.814 24.8692L397.844 24.8074L397.754 25.7751L398.75 25.8672ZM404.633 26.2422L405.615 26.4292L405.827 25.3163L404.696 25.2442L404.633 26.2422ZM388.039 13.1172L387.266 12.483L387.265 12.4836L388.039 13.1172ZM401.914 12.7422L401.184 13.4252L401.189 13.4312L401.914 12.7422ZM398.398 19.4453V20.4453H399.344L399.397 19.5008L398.398 19.4453ZM392.258 19.4453L391.258 19.4408L391.253 20.4453H392.258V19.4453ZM404.633 22.2656H392.211V24.2656H404.633V22.2656ZM391.211 23.2656V24.5781H393.211V23.2656H391.211ZM391.211 24.5781C391.211 25.6797 391.285 26.6384 391.448 27.4375C391.608 28.2242 391.868 28.9353 392.299 29.4705L393.857 28.217C393.71 28.0334 393.537 27.6743 393.408 27.0391C393.281 26.4162 393.211 25.6015 393.211 24.5781H391.211ZM392.299 29.4705C393.07 30.4297 394.117 30.9219 395.352 30.9219V28.9219C394.711 28.9219 394.242 28.6953 393.857 28.217L392.299 29.4705ZM395.352 30.9219C396.608 30.9219 397.694 30.487 398.479 29.5506C399.229 28.6556 399.611 27.4115 399.746 25.9593L397.754 25.7751C397.639 27.026 397.329 27.8092 396.946 28.2658C396.599 28.681 396.111 28.9219 395.352 28.9219V30.9219ZM398.686 26.8652L404.569 27.2402L404.696 25.2442L398.814 24.8692L398.686 26.8652ZM403.65 26.0552C403.154 28.6611 402.188 30.4935 400.838 31.6782C399.497 32.8556 397.664 33.4922 395.234 33.4922V35.4922C398.023 35.4922 400.366 34.7537 402.158 33.1812C403.941 31.6159 405.064 29.3233 405.615 26.4292L403.65 26.0552ZM395.234 33.4922C392.265 33.4922 390.139 32.5058 388.691 30.6244L387.106 31.8444C389.002 34.3067 391.766 35.4922 395.234 35.4922V33.4922ZM388.691 30.6244C387.192 28.6771 386.391 26.0078 386.391 22.5156H384.391C384.391 26.3047 385.261 29.4479 387.106 31.8444L388.691 30.6244ZM386.391 22.5156C386.391 18.5312 387.249 15.6606 388.813 13.7507L387.265 12.4836C385.298 14.8863 384.391 18.2813 384.391 22.5156H386.391ZM388.812 13.7513C390.39 11.8272 392.481 10.8594 395.188 10.8594V8.85938C391.925 8.85938 389.25 10.0635 387.266 12.483L388.812 13.7513ZM395.188 10.8594C397.605 10.8594 399.58 11.7104 401.184 13.4251L402.645 12.0592C400.654 9.93024 398.145 8.85938 395.188 8.85938V10.8594ZM401.189 13.4312C402.72 15.0406 403.633 18.2014 403.633 23.2656H405.633C405.633 18.1111 404.734 14.2563 402.639 12.0531L401.189 13.4312ZM399.397 19.5008C399.413 19.2132 399.422 18.9729 399.422 18.7891H397.422C397.422 18.9177 397.415 19.115 397.4 19.3898L399.397 19.5008ZM399.422 18.7891C399.422 17.1841 399.156 15.8044 398.477 14.8008C397.75 13.7275 396.644 13.2188 395.328 13.2188V15.2188C396.075 15.2188 396.516 15.4718 396.82 15.9219C397.172 16.4417 397.422 17.3471 397.422 18.7891H399.422ZM395.328 13.2188C393.96 13.2188 392.867 13.8401 392.175 15.0189C391.53 16.1161 391.266 17.6339 391.258 19.4408L393.258 19.4498C393.265 17.7723 393.52 16.6769 393.899 16.0319C394.23 15.4685 394.665 15.2188 395.328 15.2188V13.2188ZM392.258 20.4453H398.398V18.4453H392.258V20.4453ZM424.109 16.0234L424.395 16.9817L425.334 16.7014L425.073 15.7569L424.109 16.0234ZM419.398 17.4297L418.439 17.71L418.72 18.6757L419.684 18.3879L419.398 17.4297ZM417.828 19.5156L418.161 18.5728L418.158 18.5716L417.828 19.5156ZM423.945 23.4062L423.083 23.9127L423.087 23.9187L423.945 23.4062ZM406.977 27.4375L406.818 26.4502L405.866 26.6031L405.984 27.5595L406.977 27.4375ZM412.227 26.5938L413.21 26.4114L413.032 25.4515L412.068 25.6064L412.227 26.5938ZM414.805 24.8359L414.498 25.7879L414.504 25.7895L414.805 24.8359ZM410.07 11.8984L409.421 11.1381L409.417 11.1413L410.07 11.8984ZM423.823 15.0652L419.112 16.4715L419.684 18.3879L424.395 16.9817L423.823 15.0652ZM420.358 17.1494C420.015 15.9738 419.497 14.9866 418.742 14.2876C417.965 13.5685 417.006 13.2188 415.93 13.2188V15.2188C416.541 15.2188 417.004 15.4041 417.383 15.7553C417.784 16.1267 418.157 16.7449 418.439 17.71L420.358 17.1494ZM415.93 13.2188C415.088 13.2188 414.273 13.4298 413.676 14.0273C413.078 14.6247 412.867 15.4396 412.867 16.2812H414.867C414.867 15.7479 415 15.5316 415.09 15.4415C415.18 15.3514 415.396 15.2188 415.93 15.2188V13.2188ZM412.867 16.2812C412.867 17.3038 413.219 18.2152 414.022 18.848L415.259 17.277C415.031 17.0973 414.867 16.8212 414.867 16.2812H412.867ZM414.022 18.848C414.685 19.3709 415.9 19.9009 417.498 20.4596L418.158 18.5716C416.538 18.0053 415.627 17.5666 415.259 17.277L414.022 18.848ZM417.495 20.4585C419.294 21.0944 420.552 21.6327 421.315 22.0704L422.31 20.3359C421.385 19.8048 419.987 19.2181 418.161 18.5728L417.495 20.4585ZM421.315 22.0704C421.983 22.4542 422.578 23.052 423.083 23.9127L424.808 22.8998C424.157 21.7917 423.329 20.9208 422.31 20.3359L421.315 22.0704ZM423.087 23.9187C423.561 24.7142 423.812 25.6501 423.812 26.7578H425.812C425.812 25.3343 425.486 24.0358 424.804 22.8938L423.087 23.9187ZM423.812 26.7578C423.812 28.6725 423.135 30.2439 421.76 31.5372L423.13 32.994C424.912 31.3186 425.812 29.2181 425.812 26.7578H423.812ZM421.76 31.5372C420.419 32.799 418.49 33.4922 415.836 33.4922V35.4922C418.839 35.4922 421.316 34.701 423.13 32.994L421.76 31.5372ZM415.836 33.4922C413.307 33.4922 411.487 32.9331 410.248 31.9462C409.025 30.9728 408.235 29.4768 407.969 27.3155L405.984 27.5595C406.296 30.1013 407.271 32.1327 409.002 33.5108C410.716 34.8755 413.037 35.4922 415.836 35.4922V33.4922ZM407.135 28.4248L412.385 27.5811L412.068 25.6064L406.818 26.4502L407.135 28.4248ZM411.243 26.7761C411.486 28.0824 411.973 29.1901 412.798 29.9732C413.64 30.7729 414.726 31.1328 415.953 31.1328V29.1328C415.133 29.1328 414.575 28.9028 414.175 28.5229C413.757 28.1263 413.405 27.4644 413.21 26.4114L411.243 26.7761ZM415.953 31.1328C416.944 31.1328 417.873 30.9286 418.565 30.348C419.29 29.7392 419.578 28.8687 419.578 27.9297H417.578C417.578 28.4595 417.429 28.6905 417.279 28.8161C417.096 28.9698 416.713 29.1328 415.953 29.1328V31.1328ZM419.578 27.9297C419.578 26.9071 419.227 25.9957 418.424 25.3629L417.186 26.9339C417.414 27.1136 417.578 27.3898 417.578 27.9297H419.578ZM418.424 25.3629C417.75 24.8324 416.59 24.3511 415.106 23.8824L414.504 25.7895C415.988 26.2583 416.828 26.652 417.186 26.9339L418.424 25.3629ZM415.111 23.884C412.45 23.0276 410.807 22.0468 409.975 21.0365L408.431 22.3072C409.631 23.7657 411.722 24.8943 414.498 25.7879L415.111 23.884ZM409.975 21.0365C409.11 19.9843 408.68 18.7802 408.68 17.3828H406.68C406.68 19.2354 407.265 20.8907 408.431 22.3072L409.975 21.0365ZM408.68 17.3828C408.68 15.3648 409.37 13.8234 410.724 12.6556L409.417 11.1413C407.583 12.7235 406.68 14.8383 406.68 17.3828H408.68ZM410.72 12.6587C412.123 11.4595 413.891 10.8359 416.094 10.8359V8.83594C413.484 8.83594 411.236 9.58734 409.421 11.1381L410.72 12.6587ZM416.094 10.8359C418.029 10.8359 419.517 11.3086 420.639 12.1744C421.762 13.0416 422.617 14.3796 423.146 16.29L425.073 15.7569C424.461 13.5423 423.41 11.7865 421.861 10.5912C420.311 9.39456 418.361 8.83594 416.094 8.83594V10.8359Z" fill="#F5F5F5"/>
</svg>
