<svg width="440" height="671" viewBox="0 0 440 671" fill="none" xmlns="http://www.w3.org/2000/svg">
<path d="M155.43 599.18C150.8 610.06 155.56 620.3 157.68 627.06C159.8 633.82 152.56 638.43 146.06 640.06C139.56 641.69 123.06 659.43 123.06 659.43C123.06 659.43 103.06 671.8 96.1799 670.43C89.2999 669.06 103.8 654.68 103.8 654.68L121.18 623.3C121.43 620.06 126.8 606.3 126.8 606.3L136.74 556.1L138.06 549.43L173.3 547.3C173.3 547.3 171.45 553.02 168.9 560.75C164.61 573.75 158.33 592.39 155.43 599.18Z" fill="#CC818C"/>
<path d="M439.531 329.254C438.602 331.777 424.73 336.498 424.73 336.498L415.426 339.609C415.426 339.609 400.824 349.358 389.422 350.859L329.264 368.452L321.193 370.816L316.607 335.977C316.607 335.977 320.808 335.867 326.751 335.65C340.019 335.073 361.923 333.742 364.645 331.205C368.58 327.54 369.859 315.269 377.346 315.675C384.834 316.081 394.84 324.971 394.84 324.971C394.84 324.971 405.638 328.461 415.226 324.678C424.814 320.894 440.46 326.731 439.531 329.254Z" fill="#CC818C"/>
<path d="M210.803 391.669L232.5 396.24C238.758 398.809 263.856 397.899 270.414 396.24C280.459 393.712 290.734 387.312 303 387.24L307.293 382.604C307.293 382.604 320.795 378.871 322.228 373.439C323.065 370.235 324.132 367.095 325.42 364.044C325.42 364.044 327.979 338.471 314.831 335.015C314.831 335.015 301.504 335.148 297.944 332.601C294.383 330.054 275.549 329.313 270.414 331.32C265.28 333.327 250.047 339.053 250.047 339.053C250.047 339.053 241.782 334.057 239.27 335.635C236.759 337.213 226.5 332.601 226.5 332.601C226.5 332.601 224.5 331.32 216.569 324.758C210.9 315.924 194.199 317.394 194.199 317.394L210.803 391.669Z" fill="#EAABCB"/>
<path d="M189.93 188.46L186.25 189.15H186.02L185.48 189.25L179.18 190.42L177.24 192.72L177.16 192.8L170.93 200.18L165.68 205.33L165.63 205.39L161.19 209.71L153.68 217.18L152.42 220.29L149.68 227.18L148.97 228.93L141.47 236.93L136.68 247.18L125.48 253.68L113.43 247.43L107.93 239.43L109.18 227.97L109.43 225.68L113.1 219.79L116.43 214.43L122.93 205.18L135.43 196.68L137.67 196.09L140.18 195.43C140.372 195.156 140.549 194.873 140.71 194.58C140.922 194.228 141.112 193.864 141.28 193.49C144.09 187.43 143.1 178.42 141.2 170.43C139.744 164.453 137.814 158.601 135.43 152.93L168.43 148.18C168.43 148.18 168.11 154.58 168.11 164.56C168.11 167.06 168.11 169.77 168.18 172.67C168.34 181.67 176.7 185.57 183.01 187.23C184.635 187.663 186.285 187.997 187.95 188.23C189.17 188.42 189.93 188.46 189.93 188.46Z" fill="#CC818C"/>
<path d="M137.93 193.18C137.93 193.18 139.43 187.18 127.43 171.93C115.43 156.68 113.18 131.43 113.18 131.43C113.18 131.43 110.18 118.43 113.18 114.68C116.18 110.93 121.18 69.6803 121.18 69.6803L129.43 46.4303C129.43 46.4303 169.68 5.43033 152.93 0.430334C141.55 -2.96967 127.93 14.5403 120.44 26.1003C116.74 31.7813 114.349 38.2123 113.44 44.9303L90.6798 107.18C90.6798 107.18 88.4298 114.68 90.6798 127.68C92.9298 140.68 97.9298 163.68 97.9298 163.68L110.68 195.96C110.68 195.96 117.39 216.06 113.91 218.51L121.68 207.02L137.93 193.18Z" fill="#CC818C"/>
<path d="M357.57 208.3C357.57 208.3 342 216.937 337.5 218.27C333 219.603 291.5 224.18 291.5 224.18C291.5 224.18 261.25 223.46 254 223.71C243 222.24 203.401 225.293 203.43 223.71C203.43 223.71 201.09 226.79 198.48 230.03C195.64 233.58 192.48 237.33 191.68 237.46C190.18 237.71 166.93 240.96 166.93 240.96L151.18 233.71L149.68 227.18L148.97 224.18L152.46 220.29L157.05 215.18L165.66 205.36L165.71 205.3L177.2 192.81L177.28 192.73L184.64 189.73L186.06 189.15H186.29C187.17 189 190.55 188.69 195.08 191.25C198.235 193.037 201.738 194.121 205.35 194.43C213 197.74 222.68 199.21 227 199.74C231.32 200.27 249.026 203.974 280.25 204.4L334 199.74C334 199.74 356.32 181.99 364.82 188.24C373.32 194.49 357.57 208.3 357.57 208.3Z" fill="#CC818C"/>
<path d="M141.18 195.46L137.98 192.18C137.98 192.18 126.43 193.76 119.26 206.1C119.26 206.1 115.91 215.35 114.88 216.01C113.85 216.67 107.93 229.6 107.93 229.6C107.93 229.6 100.85 250.51 106.76 263.35C112.67 276.19 112.93 282.1 112.93 282.1L117.35 301.1L119.18 317.76L135.06 357.01L151 366.43C151 366.43 148.31 393.21 145.31 395.34C142.31 397.47 143.68 408.46 143.68 408.46L141.81 437.34C141.81 437.34 135.93 445.96 135.56 459.96C135.19 473.96 133.06 477.96 133.06 477.96C133.06 477.96 132.06 489.71 134.81 495.09C137.56 500.47 130.43 506.09 130.43 506.09L136.56 526.96L134.18 553.46C134.18 553.46 162.43 561.34 172.93 558.09C183.43 554.84 188.93 557.09 188.93 557.09L207.68 481.18L214.18 421.56C214.18 421.56 214.56 379.31 220.18 366.43C225 355.43 218.68 316.24 196.97 308.84C192.44 307.3 190.14 302.16 186.27 299.34C182.81 296.83 177.16 290.9 179.93 280.18C183.81 265.18 193.56 241.56 193.56 241.56L200.78 227.18C200.78 227.18 192.93 239.88 178.56 236.63H178.43C163.8 236.37 156.35 218.92 166.24 208.14L179.18 194C179.18 194 186.31 187.43 191.56 189.09L185.81 186.63C185.81 186.63 169.62 192.63 162.81 204.5L147.41 221.75C147.41 221.75 124.56 237.18 121.18 242.84C121.18 242.84 109.06 238.34 110.43 232.34C110.43 232.34 109.43 224.63 114.91 218.82C115.91 217.82 116.83 216.76 117.75 215.69C122.68 209.93 136.31 194.65 141.18 195.46Z" fill="#FDB1D1"/>
<g filter="url(#filter0_d)">
<path d="M14.0209 416.073C21.2729 399.755 81.0209 357.573 117.521 339.073C127.187 336.073 153.121 326.373 179.521 311.573C212.521 293.073 309.521 279.073 313.521 294.073C326.854 344.073 249.354 385.239 194.521 409.073C150.187 428.073 -17.9794 488.073 14.0209 416.073Z" fill="#FDB1D1"/>
</g>
<path opacity="0.1" d="M143.06 298.46C143.06 298.46 139.43 324.84 142.18 330.21L143.06 298.46Z" fill="black"/>
<path opacity="0.1" d="M145.43 308.71L149.31 323.84C149.31 323.84 150.68 314.59 145.43 308.71Z" fill="black"/>
<path opacity="0.1" d="M122.43 305.18C122.43 305.18 124 315.11 132.5 326.74L122.43 305.18Z" fill="black"/>
<path opacity="0.1" d="M176.581 371.923C176.581 371.923 163.331 384.423 158.201 383.513C158.201 383.513 178.581 384.393 184.951 373.643C184.951 373.673 180.831 370.673 176.581 371.923Z" fill="black"/>
<path opacity="0.1" d="M194.951 370.923C194.951 370.923 177.951 383.293 174.581 384.423C174.581 384.423 192.951 379.173 194.951 370.923Z" fill="black"/>
<path opacity="0.1" d="M137.93 258.71C137.93 258.71 129.43 269.59 125.18 268.34C125.18 268.34 135.56 268.71 137.93 258.71Z" fill="black"/>
<path opacity="0.1" d="M147.56 272.71C147.56 272.71 166.06 247.59 174.81 248.59C174.81 248.59 153.81 266.84 147.56 272.71Z" fill="black"/>
<path opacity="0.1" d="M48.5209 405.073C48.5209 405.073 94.6859 355.143 116.521 357.131C116.521 357.131 64.1169 393.405 48.5209 405.073Z" fill="black"/>
<path opacity="0.1" d="M103.521 428.573C103.521 428.573 129.521 359.131 141.521 359.131C141.521 359.131 119.117 416.905 103.521 428.573Z" fill="black"/>
<path opacity="0.1" d="M265.021 359.573C265.021 359.573 177.021 341.073 189.021 341.073C189.021 341.073 280.617 347.905 265.021 359.573Z" fill="black"/>
<path opacity="0.1" d="M278.021 295.073C278.021 295.073 200.521 333.573 194.021 329.073C194.021 329.073 293.617 283.405 278.021 295.073Z" fill="black"/>
<path opacity="0.1" d="M173.18 263.57C173.18 263.57 161.43 269.46 162.68 271.18C163.93 272.9 173.18 263.57 173.18 263.57Z" fill="black"/>
<path opacity="0.1" d="M181.68 456.46C181.68 456.46 142.43 479.34 138.81 480.46C138.81 480.46 145.56 485.59 151.93 483.09C158.3 480.59 181.68 456.46 181.68 456.46Z" fill="black"/>
<path opacity="0.1" d="M148.81 504.09C148.81 504.09 133.06 502.46 133.68 507.59C134.3 512.72 148.81 504.09 148.81 504.09Z" fill="black"/>
<path opacity="0.1" d="M168.43 148.18C168.43 148.18 168.11 154.58 168.11 164.56C164.407 167.595 160.038 169.708 155.36 170.726C150.682 171.745 145.829 171.64 141.2 170.42C139.744 164.443 137.814 158.591 135.43 152.92L168.43 148.18Z" fill="black"/>
<path d="M148.93 169.47C165.637 169.47 179.18 155.927 179.18 139.22C179.18 115.24 172.5 103.74 148.93 103.74C132.223 103.74 118.68 122.513 118.68 139.22C118.68 155.927 132.223 169.47 148.93 169.47Z" fill="#CC818C"/>
<path opacity="0.1" d="M121.41 241.82C121.874 237.873 123.175 234.071 125.225 230.667C127.275 227.263 130.028 224.336 133.3 222.08" fill="black"/>
<path d="M119.24 267.43L115.57 275.43L127.24 273.1L119.24 267.43Z" fill="#CC818C"/>
<path opacity="0.1" d="M119.24 267.43L116.22 275.43H115.57L119.24 267.43Z" fill="black"/>
<path d="M151 110.077C147.321 109.313 143.972 109.186 141 109.484C138.988 109.685 137.15 110.08 135.5 110.604C134.009 111.077 132.672 111.655 131.5 112.289C130.086 113.054 128.913 113.899 128 114.74C127.5 113.907 126.5 111.689 126.5 109.484C126.5 107.278 128.925 106.736 130.138 106.74C130.051 103.796 130.874 101.366 131.5 100.74C132.3 99.9403 134.431 102.073 135.397 103.24C135.836 99.0613 137.293 98.5933 138 98.2403C138.8 97.8403 140.819 100.407 141.729 101.74C142.535 97.6493 144.119 94.0003 147 94.2403C149.957 94.4863 151.042 98.4993 151.283 102.74C152.522 101.74 155.869 98.6093 157 99.7403C158.079 100.819 158.401 103.159 158.421 105.74C159.447 104.573 161.9 102.44 163.5 103.24C164.452 103.716 164.838 106.159 164.926 108.74C166.284 107.983 169.4 107.295 171 110.604C172.6 113.913 172.306 118.407 171.959 120.24C169.394 118.311 166.905 116.686 164.5 115.329C162.293 114.083 160.156 113.063 158.097 112.24C155.616 111.249 153.247 110.544 151 110.077Z" fill="#AEA8A8"/>
<path d="M144.5 104.24L146.5 101.24L148 104.24L146 107.24L144.5 104.24Z" fill="#F5F074"/>
<defs>
<filter id="filter0_d" x="0" y="287.74" width="325.037" height="182.847" filterUnits="userSpaceOnUse" color-interpolation-filters="sRGB">
<feFlood flood-opacity="0" result="BackgroundImageFix"/>
<feColorMatrix in="SourceAlpha" type="matrix" values="0 0 0 0 0 0 0 0 0 0 0 0 0 0 0 0 0 0 127 0"/>
<feOffset dy="10"/>
<feGaussianBlur stdDeviation="5"/>
<feColorMatrix type="matrix" values="0 0 0 0 0 0 0 0 0 0 0 0 0 0 0 0 0 0 0.1 0"/>
<feBlend mode="normal" in2="BackgroundImageFix" result="effect1_dropShadow"/>
<feBlend mode="normal" in="SourceGraphic" in2="effect1_dropShadow" result="shape"/>
</filter>
</defs>
</svg>
