<svg width="749" height="65" viewBox="0 0 749 65" fill="none" xmlns="http://www.w3.org/2000/svg">
<path pathLength="1" d="M1.43359 3.01172H11.9805V51H1.43359V3.01172ZM20.1719 15.4922H29.5586V20.3438C31.1992 16.6406 34.1641 14.7891 38.4531 14.7891C40.7734 14.7891 42.6836 15.3164 44.1836 16.3711C45.707 17.4023 46.6797 18.7266 47.1016 20.3438C47.5234 21.9609 47.7344 24.4219 47.7344 27.7266V51H37.8203V27.7266C37.8203 25.3359 37.5156 23.8594 36.9062 23.2969C36.2969 22.7344 35.4766 22.4531 34.4453 22.4531C32.6641 22.4531 31.4922 23.0039 30.9297 24.1055C30.3672 25.1836 30.0859 27.2109 30.0859 30.1875V51H20.1719V15.4922ZM67.9844 15.4922H77.3711V20.3438C79.0117 16.6406 81.9766 14.7891 86.2656 14.7891C88.5859 14.7891 90.4961 15.3164 91.9961 16.3711C93.5195 17.4023 94.4922 18.7266 94.9141 20.3438C95.3359 21.9609 95.5469 24.4219 95.5469 27.7266V51H85.6328V27.7266C85.6328 25.3359 85.3281 23.8594 84.7188 23.2969C84.1094 22.7344 83.2891 22.4531 82.2578 22.4531C80.4766 22.4531 79.3047 23.0039 78.7422 24.1055C78.1797 25.1836 77.8984 27.2109 77.8984 30.1875V51H67.9844V15.4922ZM129.684 34.8984H111.051V36.8672C111.051 40.0547 111.484 42.1875 112.352 43.2656C113.219 44.3438 114.355 44.8828 115.762 44.8828C118.785 44.8828 120.484 42.8555 120.859 38.8008L129.684 39.3633C128.113 47.6133 123.414 51.7383 115.586 51.7383C110.758 51.7383 107.09 50.1094 104.582 46.8516C102.074 43.5938 100.82 39.2344 100.82 33.7734C100.82 27.6094 102.145 22.9102 104.793 19.6758C107.465 16.418 111.039 14.7891 115.516 14.7891C119.547 14.7891 122.91 16.2305 125.605 19.1133C128.324 21.9727 129.684 27.2344 129.684 34.8984ZM120.332 29.168C120.355 28.7461 120.367 28.418 120.367 28.1836C120.367 23.6133 118.82 21.3281 115.727 21.3281C112.68 21.3281 111.145 23.9414 111.121 29.168H120.332ZM162.801 34.8984H144.168V36.8672C144.168 40.0547 144.602 42.1875 145.469 43.2656C146.336 44.3438 147.473 44.8828 148.879 44.8828C151.902 44.8828 153.602 42.8555 153.977 38.8008L162.801 39.3633C161.23 47.6133 156.531 51.7383 148.703 51.7383C143.875 51.7383 140.207 50.1094 137.699 46.8516C135.191 43.5938 133.938 39.2344 133.938 33.7734C133.938 27.6094 135.262 22.9102 137.91 19.6758C140.582 16.418 144.156 14.7891 148.633 14.7891C152.664 14.7891 156.027 16.2305 158.723 19.1133C161.441 21.9727 162.801 27.2344 162.801 34.8984ZM153.449 29.168C153.473 28.7461 153.484 28.418 153.484 28.1836C153.484 23.6133 151.938 21.3281 148.844 21.3281C145.797 21.3281 144.262 23.9414 144.238 29.168H153.449ZM185.969 3.01172H195.707V51H186.531V45.1289C185.031 49.3711 182.336 51.4922 178.445 51.4922C174.625 51.4922 171.777 49.8281 169.902 46.5C168.027 43.1719 167.09 38.8008 167.09 33.3867C167.09 27.2227 168.156 22.6172 170.289 19.5703C172.445 16.5234 175.316 15 178.902 15C182.207 15 184.562 16.2656 185.969 18.7969V3.01172ZM185.969 30.3633C185.969 26.8711 185.594 24.5391 184.844 23.3672C184.117 22.1719 183.051 21.5742 181.645 21.5742C179.98 21.5742 178.844 22.3945 178.234 24.0352C177.648 25.6758 177.355 29.0742 177.355 34.2305C177.355 38.0742 177.684 40.7695 178.34 42.3164C178.996 43.8633 180.074 44.6367 181.574 44.6367C182.84 44.6367 183.883 44.1211 184.703 43.0898C185.547 42.0352 185.969 39.8906 185.969 36.6562V30.3633ZM243.766 33.2461C243.766 45.5742 238.961 51.7383 229.352 51.7383C219.719 51.7383 214.902 45.5742 214.902 33.2461C214.902 20.9414 219.719 14.7891 229.352 14.7891C238.961 14.7891 243.766 20.9414 243.766 33.2461ZM233.535 33.2461C233.535 28.7227 233.219 25.6641 232.586 24.0703C231.977 22.4766 230.898 21.6797 229.352 21.6797C227.852 21.6797 226.773 22.4414 226.117 23.9648C225.461 25.4648 225.133 28.5586 225.133 33.2461C225.133 37.582 225.414 40.5938 225.977 42.2812C226.539 43.9688 227.664 44.8125 229.352 44.8125C230.969 44.8125 232.07 43.9805 232.656 42.3164C233.242 40.6289 233.535 37.6055 233.535 33.2461ZM260.711 15.4922H266.969V23.2969H260.711V51H251.219V23.2969H247.176V15.4922H251.219C251.242 12 251.512 9.38672 252.027 7.65234C252.543 5.91797 253.656 4.39453 255.367 3.08203C257.078 1.76953 259.41 1.11328 262.363 1.11328C264.098 1.11328 265.762 1.23047 267.355 1.46484V9.19922C266.559 9.10547 265.82 9.05859 265.141 9.05859C263.242 9.05859 262.023 9.46875 261.484 10.2891C260.969 11.0859 260.711 12.8203 260.711 15.4922ZM293.336 26.7773L283.949 25.8633C284.395 22.3008 285.906 19.5586 288.484 17.6367C291.086 15.7148 294.355 14.7539 298.293 14.7539C301.621 14.7539 304.293 15.3984 306.309 16.6875C308.324 17.9531 309.59 19.4297 310.105 21.1172C310.645 22.8047 310.914 25.418 310.914 28.957V43.125C310.914 47.5312 311.113 50.1562 311.512 51H302.336C302.008 50.0391 301.844 48.2227 301.844 45.5508C299.664 49.6758 296.418 51.7383 292.105 51.7383C289.34 51.7383 287.09 50.918 285.355 49.2773C283.621 47.6133 282.754 45.1992 282.754 42.0352C282.754 38.0742 284.066 35.0156 286.691 32.8594C289.316 30.6797 294.098 29.3789 301.035 28.957V27.6211C301.035 25.2539 300.789 23.6133 300.297 22.6992C299.828 21.7852 298.902 21.3281 297.52 21.3281C294.988 21.3281 293.594 23.1445 293.336 26.7773ZM301.035 34.0195C298.152 34.3477 296.09 34.9922 294.848 35.9531C293.629 36.8906 293.02 38.4844 293.02 40.7344C293.02 43.7344 294.121 45.2344 296.324 45.2344C297.52 45.2344 298.598 44.5664 299.559 43.2305C300.543 41.8711 301.035 39.3867 301.035 35.7773V34.0195ZM327.402 15.4922H337.035L341.219 37.0781L345.191 15.4922H354.824L358.059 37.0781L362.84 15.4922H370.609L361.715 51H353.418L348.848 26.8477L344.383 51H336.332L327.402 15.4922ZM400.668 34.8984H382.035V36.8672C382.035 40.0547 382.469 42.1875 383.336 43.2656C384.203 44.3438 385.34 44.8828 386.746 44.8828C389.77 44.8828 391.469 42.8555 391.844 38.8008L400.668 39.3633C399.098 47.6133 394.398 51.7383 386.57 51.7383C381.742 51.7383 378.074 50.1094 375.566 46.8516C373.059 43.5938 371.805 39.2344 371.805 33.7734C371.805 27.6094 373.129 22.9102 375.777 19.6758C378.449 16.418 382.023 14.7891 386.5 14.7891C390.531 14.7891 393.895 16.2305 396.59 19.1133C399.309 21.9727 400.668 27.2344 400.668 34.8984ZM391.316 29.168C391.34 28.7461 391.352 28.418 391.352 28.1836C391.352 23.6133 389.805 21.3281 386.711 21.3281C383.664 21.3281 382.129 23.9414 382.105 29.168H391.316ZM406.469 3.01172H416.207V18.832C418.129 16.2773 420.59 15 423.59 15C426.871 15 429.602 16.4766 431.781 19.4297C433.961 22.3828 435.051 26.918 435.051 33.0352C435.051 38.918 433.984 43.5117 431.852 46.8164C429.719 50.0977 426.602 51.7383 422.5 51.7383C418.469 51.7383 415.703 49.9453 414.203 46.3594C413.523 47.5781 412.902 49.125 412.34 51H406.469V3.01172ZM416.207 36.2695C416.207 39.5273 416.512 41.7773 417.121 43.0195C417.73 44.2617 418.809 44.8828 420.355 44.8828C422.066 44.8828 423.238 44.0039 423.871 42.2461C424.504 40.4648 424.82 37.4766 424.82 33.2812C424.82 29.2266 424.516 26.2617 423.906 24.3867C423.297 22.5117 422.172 21.5742 420.531 21.5742C417.648 21.5742 416.207 23.7422 416.207 28.0781V36.2695ZM471.648 3.01172H481.387V51H472.211V45.1289C470.711 49.3711 468.016 51.4922 464.125 51.4922C460.305 51.4922 457.457 49.8281 455.582 46.5C453.707 43.1719 452.77 38.8008 452.77 33.3867C452.77 27.2227 453.836 22.6172 455.969 19.5703C458.125 16.5234 460.996 15 464.582 15C467.887 15 470.242 16.2656 471.648 18.7969V3.01172ZM471.648 30.3633C471.648 26.8711 471.273 24.5391 470.523 23.3672C469.797 22.1719 468.73 21.5742 467.324 21.5742C465.66 21.5742 464.523 22.3945 463.914 24.0352C463.328 25.6758 463.035 29.0742 463.035 34.2305C463.035 38.0742 463.363 40.7695 464.02 42.3164C464.676 43.8633 465.754 44.6367 467.254 44.6367C468.52 44.6367 469.562 44.1211 470.383 43.0898C471.227 42.0352 471.648 39.8906 471.648 36.6562V30.3633ZM515.98 34.8984H497.348V36.8672C497.348 40.0547 497.781 42.1875 498.648 43.2656C499.516 44.3438 500.652 44.8828 502.059 44.8828C505.082 44.8828 506.781 42.8555 507.156 38.8008L515.98 39.3633C514.41 47.6133 509.711 51.7383 501.883 51.7383C497.055 51.7383 493.387 50.1094 490.879 46.8516C488.371 43.5938 487.117 39.2344 487.117 33.7734C487.117 27.6094 488.441 22.9102 491.09 19.6758C493.762 16.418 497.336 14.7891 501.812 14.7891C505.844 14.7891 509.207 16.2305 511.902 19.1133C514.621 21.9727 515.98 27.2344 515.98 34.8984ZM506.629 29.168C506.652 28.7461 506.664 28.418 506.664 28.1836C506.664 23.6133 505.117 21.3281 502.023 21.3281C498.977 21.3281 497.441 23.9414 497.418 29.168H506.629ZM517.07 15.4922H526.598L531.484 36.4805L536.441 15.4922H544.668L534.93 51H527.09L517.07 15.4922ZM574.621 34.8984H555.988V36.8672C555.988 40.0547 556.422 42.1875 557.289 43.2656C558.156 44.3438 559.293 44.8828 560.699 44.8828C563.723 44.8828 565.422 42.8555 565.797 38.8008L574.621 39.3633C573.051 47.6133 568.352 51.7383 560.523 51.7383C555.695 51.7383 552.027 50.1094 549.52 46.8516C547.012 43.5938 545.758 39.2344 545.758 33.7734C545.758 27.6094 547.082 22.9102 549.73 19.6758C552.402 16.418 555.977 14.7891 560.453 14.7891C564.484 14.7891 567.848 16.2305 570.543 19.1133C573.262 21.9727 574.621 27.2344 574.621 34.8984ZM565.27 29.168C565.293 28.7461 565.305 28.418 565.305 28.1836C565.305 23.6133 563.758 21.3281 560.664 21.3281C557.617 21.3281 556.082 23.9414 556.059 29.168H565.27ZM580.387 3.01172H590.301V51H580.387V3.01172ZM624.93 33.2461C624.93 45.5742 620.125 51.7383 610.516 51.7383C600.883 51.7383 596.066 45.5742 596.066 33.2461C596.066 20.9414 600.883 14.7891 610.516 14.7891C620.125 14.7891 624.93 20.9414 624.93 33.2461ZM614.699 33.2461C614.699 28.7227 614.383 25.6641 613.75 24.0703C613.141 22.4766 612.062 21.6797 610.516 21.6797C609.016 21.6797 607.938 22.4414 607.281 23.9648C606.625 25.4648 606.297 28.5586 606.297 33.2461C606.297 37.582 606.578 40.5938 607.141 42.2812C607.703 43.9688 608.828 44.8125 610.516 44.8125C612.133 44.8125 613.234 43.9805 613.82 42.3164C614.406 40.6289 614.699 37.6055 614.699 33.2461ZM630.695 15.4922H639.836V20.8008C641.781 16.957 644.477 15.0352 647.922 15.0352C651.18 15.0352 653.887 16.4883 656.043 19.3945C658.199 22.2773 659.277 26.6953 659.277 32.6484C659.277 38.8828 658.223 43.582 656.113 46.7461C654.004 49.9102 651.039 51.4922 647.219 51.4922C644.477 51.4922 642.215 50.4492 640.434 48.3633V63.0234H630.695V15.4922ZM640.434 36.4805C640.434 39.8789 640.703 42.0938 641.242 43.125C641.805 44.1328 642.93 44.6367 644.617 44.6367C646.117 44.6367 647.23 43.957 647.957 42.5977C648.684 41.2383 649.047 37.9453 649.047 32.7188C649.047 28.3594 648.73 25.4062 648.098 23.8594C647.465 22.3125 646.398 21.5391 644.898 21.5391C643.656 21.5391 642.602 22.0312 641.734 23.0156C640.867 23.9766 640.434 26.2266 640.434 29.7656V36.4805ZM692.395 34.8984H673.762V36.8672C673.762 40.0547 674.195 42.1875 675.062 43.2656C675.93 44.3438 677.066 44.8828 678.473 44.8828C681.496 44.8828 683.195 42.8555 683.57 38.8008L692.395 39.3633C690.824 47.6133 686.125 51.7383 678.297 51.7383C673.469 51.7383 669.801 50.1094 667.293 46.8516C664.785 43.5938 663.531 39.2344 663.531 33.7734C663.531 27.6094 664.855 22.9102 667.504 19.6758C670.176 16.418 673.75 14.7891 678.227 14.7891C682.258 14.7891 685.621 16.2305 688.316 19.1133C691.035 21.9727 692.395 27.2344 692.395 34.8984ZM683.043 29.168C683.066 28.7461 683.078 28.418 683.078 28.1836C683.078 23.6133 681.531 21.3281 678.438 21.3281C675.391 21.3281 673.855 23.9414 673.832 29.168H683.043ZM698.195 15.4922H706.914V24.0703C708.484 18.0469 711.285 15.0352 715.316 15.0352C715.809 15.0352 716.371 15.0938 717.004 15.2109V24.8789C716.277 24.7852 715.727 24.7383 715.352 24.7383C710.523 24.7383 708.109 28.3945 708.109 35.707V51H698.195V15.4922ZM727.691 19.5L718.691 18.2344C718.785 13.4766 720.098 9.63281 722.629 6.70312C725.16 3.75 728.758 2.27344 733.422 2.27344C738.344 2.27344 741.93 3.62109 744.18 6.31641C746.43 9.01172 747.555 12.1523 747.555 15.7383C747.555 18.5273 747.016 20.8711 745.938 22.7695C744.859 24.6445 743.043 26.7188 740.488 28.9922C738.684 30.6094 737.582 31.8398 737.184 32.6836C736.809 33.5039 736.621 35.0273 736.621 37.2539H728.184V35.6719C728.184 32.7422 728.336 30.6445 728.641 29.3789C728.969 28.0898 730.188 26.4141 732.297 24.3516C734.055 22.6406 735.262 21.1758 735.918 19.957C736.598 18.7148 736.938 17.2383 736.938 15.5273C736.938 13.957 736.527 12.7852 735.707 12.0117C734.887 11.2383 733.926 10.8516 732.824 10.8516C729.426 10.8516 727.715 13.7344 727.691 19.5ZM727.691 40.7695H737.113V51H727.691V40.7695Z" fill="#F5F5F5" fill-opacity="0.5"/>
<path pathLength="1" d="M1.43359 3.01172V2.01172H0.433594V3.01172H1.43359ZM11.9805 3.01172H12.9805V2.01172H11.9805V3.01172ZM11.9805 51V52H12.9805V51H11.9805ZM1.43359 51H0.433594V52H1.43359V51ZM1.43359 4.01172H11.9805V2.01172H1.43359V4.01172ZM10.9805 3.01172V51H12.9805V3.01172H10.9805ZM11.9805 50H1.43359V52H11.9805V50ZM2.43359 51V3.01172H0.433594V51H2.43359ZM20.1719 15.4922V14.4922H19.1719V15.4922H20.1719ZM29.5586 15.4922H30.5586V14.4922H29.5586V15.4922ZM29.5586 20.3438H28.5586L30.4729 20.7488L29.5586 20.3438ZM44.1836 16.3711L43.6084 17.1891L43.6157 17.1942L43.623 17.1992L44.1836 16.3711ZM47.7344 51V52H48.7344V51H47.7344ZM37.8203 51H36.8203V52H37.8203V51ZM30.9297 24.1055L31.8163 24.5681L31.8203 24.5602L30.9297 24.1055ZM30.0859 51V52H31.0859V51H30.0859ZM20.1719 51H19.1719V52H20.1719V51ZM20.1719 16.4922H29.5586V14.4922H20.1719V16.4922ZM28.5586 15.4922V20.3438H30.5586V15.4922H28.5586ZM30.4729 20.7488C31.2254 19.0503 32.2553 17.8297 33.5424 17.0259C34.8333 16.2197 36.4533 15.7891 38.4531 15.7891V13.7891C36.1639 13.7891 34.1569 14.2842 32.483 15.3295C30.8053 16.3773 29.5324 17.9341 28.6443 19.9387L30.4729 20.7488ZM38.4531 15.7891C40.6224 15.7891 42.3167 16.2809 43.6084 17.1891L44.7588 15.5531C43.0505 14.3519 40.9245 13.7891 38.4531 13.7891V15.7891ZM43.623 17.1992C44.9672 18.1091 45.7797 19.2382 46.1339 20.5962L48.0692 20.0913C47.5797 18.2149 46.4469 16.6956 44.7442 15.543L43.623 17.1992ZM46.1339 20.5962C46.5224 22.0852 46.7344 24.4412 46.7344 27.7266H48.7344C48.7344 24.4025 48.5245 21.8367 48.0692 20.0913L46.1339 20.5962ZM46.7344 27.7266V51H48.7344V27.7266H46.7344ZM47.7344 50H37.8203V52H47.7344V50ZM38.8203 51V27.7266H36.8203V51H38.8203ZM38.8203 27.7266C38.8203 26.4979 38.7428 25.4558 38.5712 24.6241C38.4067 23.827 38.1245 23.0605 37.5845 22.5621L36.228 24.0317C36.2974 24.0957 36.4722 24.3488 36.6124 25.0283C36.7455 25.6731 36.8203 26.5646 36.8203 27.7266H38.8203ZM37.5845 22.5621C36.7482 21.7901 35.664 21.4531 34.4453 21.4531V23.4531C35.2892 23.4531 35.8455 23.6786 36.228 24.0317L37.5845 22.5621ZM34.4453 21.4531C32.4754 21.4531 30.8435 22.0754 30.0391 23.6507L31.8203 24.5602C32.1409 23.9324 32.8528 23.4531 34.4453 23.4531V21.4531ZM30.0431 23.6429C29.6848 24.3297 29.4535 25.2365 29.3064 26.2972C29.1573 27.3717 29.0859 28.6719 29.0859 30.1875H31.0859C31.0859 28.7265 31.1552 27.5248 31.2874 26.572C31.4215 25.6053 31.6121 24.9593 31.8163 24.568L30.0431 23.6429ZM29.0859 30.1875V51H31.0859V30.1875H29.0859ZM30.0859 50H20.1719V52H30.0859V50ZM21.1719 51V15.4922H19.1719V51H21.1719ZM67.9844 15.4922V14.4922H66.9844V15.4922H67.9844ZM77.3711 15.4922H78.3711V14.4922H77.3711V15.4922ZM77.3711 20.3438H76.3711L78.2854 20.7488L77.3711 20.3438ZM91.9961 16.3711L91.4209 17.1891L91.4282 17.1942L91.4355 17.1992L91.9961 16.3711ZM95.5469 51V52H96.5469V51H95.5469ZM85.6328 51H84.6328V52H85.6328V51ZM78.7422 24.1055L79.6288 24.5681L79.6328 24.5602L78.7422 24.1055ZM77.8984 51V52H78.8984V51H77.8984ZM67.9844 51H66.9844V52H67.9844V51ZM67.9844 16.4922H77.3711V14.4922H67.9844V16.4922ZM76.3711 15.4922V20.3438H78.3711V15.4922H76.3711ZM78.2854 20.7488C79.0379 19.0503 80.0678 17.8297 81.3549 17.0259C82.6458 16.2197 84.2658 15.7891 86.2656 15.7891V13.7891C83.9764 13.7891 81.9694 14.2842 80.2955 15.3295C78.6178 16.3773 77.3449 17.9341 76.4568 19.9387L78.2854 20.7488ZM86.2656 15.7891C88.4349 15.7891 90.1292 16.2809 91.4209 17.1891L92.5713 15.5531C90.863 14.3519 88.737 13.7891 86.2656 13.7891V15.7891ZM91.4355 17.1992C92.7797 18.1091 93.5922 19.2382 93.9464 20.5962L95.8817 20.0913C95.3922 18.2149 94.2594 16.6956 92.5567 15.543L91.4355 17.1992ZM93.9464 20.5962C94.3349 22.0852 94.5469 24.4412 94.5469 27.7266H96.5469C96.5469 24.4025 96.337 21.8367 95.8817 20.0913L93.9464 20.5962ZM94.5469 27.7266V51H96.5469V27.7266H94.5469ZM95.5469 50H85.6328V52H95.5469V50ZM86.6328 51V27.7266H84.6328V51H86.6328ZM86.6328 27.7266C86.6328 26.4979 86.5553 25.4558 86.3837 24.6241C86.2192 23.827 85.937 23.0605 85.397 22.5621L84.0405 24.0317C84.1099 24.0957 84.2847 24.3488 84.4249 25.0283C84.558 25.6731 84.6328 26.5646 84.6328 27.7266H86.6328ZM85.397 22.5621C84.5607 21.7901 83.4765 21.4531 82.2578 21.4531V23.4531C83.1017 23.4531 83.658 23.6786 84.0405 24.0317L85.397 22.5621ZM82.2578 21.4531C80.2879 21.4531 78.656 22.0754 77.8516 23.6507L79.6328 24.5602C79.9534 23.9324 80.6653 23.4531 82.2578 23.4531V21.4531ZM77.8556 23.6429C77.4973 24.3297 77.266 25.2365 77.1189 26.2972C76.9698 27.3717 76.8984 28.6719 76.8984 30.1875H78.8984C78.8984 28.7265 78.9677 27.5248 79.0999 26.572C79.234 25.6053 79.4246 24.9593 79.6288 24.568L77.8556 23.6429ZM76.8984 30.1875V51H78.8984V30.1875H76.8984ZM77.8984 50H67.9844V52H77.8984V50ZM68.9844 51V15.4922H66.9844V51H68.9844ZM129.684 34.8984V35.8984H130.684V34.8984H129.684ZM111.051 34.8984V33.8984H110.051V34.8984H111.051ZM120.859 38.8008L120.923 37.8028L119.953 37.741L119.864 38.7087L120.859 38.8008ZM129.684 39.3633L130.666 39.5503L130.878 38.4374L129.747 38.3653L129.684 39.3633ZM104.793 19.6758L104.02 19.0416L104.019 19.0422L104.793 19.6758ZM125.605 19.1133L124.875 19.7963L124.881 19.8023L125.605 19.1133ZM120.332 29.168V30.168H121.278L121.33 29.2234L120.332 29.168ZM111.121 29.168L110.121 29.1635L110.117 30.168H111.121V29.168ZM129.684 33.8984H111.051V35.8984H129.684V33.8984ZM110.051 34.8984V36.8672H112.051V34.8984H110.051ZM110.051 36.8672C110.051 38.5 110.161 39.9021 110.396 41.0566C110.628 42.1988 110.997 43.1775 111.572 43.8924L113.131 42.6389C112.839 42.2756 112.557 41.6489 112.356 40.6582C112.157 39.6799 112.051 38.4218 112.051 36.8672H110.051ZM111.572 43.8924C112.633 45.211 114.058 45.8828 115.762 45.8828V43.8828C114.653 43.8828 113.805 43.4765 113.131 42.6389L111.572 43.8924ZM115.762 45.8828C117.522 45.8828 119.002 45.2789 120.07 44.0047C121.103 42.7718 121.658 41.0209 121.855 38.8929L119.864 38.7087C119.685 40.6354 119.203 41.9254 118.537 42.7199C117.906 43.473 117.025 43.8828 115.762 43.8828V45.8828ZM120.796 39.7988L129.62 40.3613L129.747 38.3653L120.923 37.8028L120.796 39.7988ZM128.701 39.1763C127.944 43.1572 126.455 46.0208 124.322 47.893C122.197 49.758 119.321 50.7383 115.586 50.7383V52.7383C119.679 52.7383 123.067 51.6561 125.641 49.3961C128.208 47.1432 129.853 43.8194 130.666 39.5503L128.701 39.1763ZM115.586 50.7383C111.007 50.7383 107.659 49.2089 105.374 46.2416L103.79 47.4615C106.521 51.0099 110.508 52.7383 115.586 52.7383V50.7383ZM105.374 46.2416C103.04 43.2083 101.82 39.086 101.82 33.7734H99.8203C99.8203 39.3828 101.109 43.9792 103.79 47.4615L105.374 46.2416ZM101.82 33.7734C101.82 27.7343 103.12 23.2973 105.567 20.3093L104.019 19.0422C101.169 22.523 99.8203 27.4844 99.8203 33.7734H101.82ZM105.566 20.3099C108.035 17.2998 111.317 15.7891 115.516 15.7891V13.7891C110.761 13.7891 106.895 15.5361 104.02 19.0416L105.566 20.3099ZM115.516 15.7891C119.277 15.7891 122.373 17.1205 124.875 19.7962L126.336 18.4303C123.447 15.3404 119.817 13.7891 115.516 13.7891V15.7891ZM124.881 19.8023C127.317 22.3648 128.684 27.2796 128.684 34.8984H130.684C130.684 27.1892 129.331 21.5805 126.33 18.4242L124.881 19.8023ZM121.33 29.2234C121.354 28.7952 121.367 28.4456 121.367 28.1836H119.367C119.367 28.3904 119.357 28.697 119.334 29.1125L121.33 29.2234ZM121.367 28.1836C121.367 25.8169 120.972 23.866 120.035 22.4814C119.051 21.0273 117.558 20.3281 115.727 20.3281V22.3281C116.989 22.3281 117.816 22.7716 118.379 23.6026C118.989 24.5032 119.367 25.9799 119.367 28.1836H121.367ZM115.727 20.3281C113.851 20.3281 112.376 21.1672 111.428 22.7816C110.527 24.3143 110.133 26.4855 110.121 29.1635L112.121 29.1725C112.133 26.6239 112.518 24.8752 113.152 23.7946C113.739 22.7957 114.555 22.3281 115.727 22.3281V20.3281ZM111.121 30.168H120.332V28.168H111.121V30.168ZM162.801 34.8984V35.8984H163.801V34.8984H162.801ZM144.168 34.8984V33.8984H143.168V34.8984H144.168ZM153.977 38.8008L154.04 37.8028L153.07 37.741L152.981 38.7087L153.977 38.8008ZM162.801 39.3633L163.783 39.5503L163.995 38.4374L162.864 38.3653L162.801 39.3633ZM137.91 19.6758L137.137 19.0416L137.136 19.0422L137.91 19.6758ZM158.723 19.1133L157.992 19.7963L157.998 19.8023L158.723 19.1133ZM153.449 29.168V30.168H154.395L154.448 29.2234L153.449 29.168ZM144.238 29.168L143.238 29.1635L143.234 30.168H144.238V29.168ZM162.801 33.8984H144.168V35.8984H162.801V33.8984ZM143.168 34.8984V36.8672H145.168V34.8984H143.168ZM143.168 36.8672C143.168 38.5 143.278 39.9021 143.513 41.0566C143.745 42.1988 144.115 43.1775 144.69 43.8924L146.248 42.6389C145.956 42.2756 145.675 41.6489 145.473 40.6582C145.274 39.6799 145.168 38.4218 145.168 36.8672H143.168ZM144.69 43.8924C145.75 45.211 147.176 45.8828 148.879 45.8828V43.8828C147.77 43.8828 146.922 43.4765 146.248 42.6389L144.69 43.8924ZM148.879 45.8828C150.639 45.8828 152.119 45.2789 153.187 44.0047C154.221 42.7718 154.776 41.0209 154.972 38.8929L152.981 38.7087C152.803 40.6354 152.32 41.9254 151.654 42.7199C151.023 43.473 150.142 43.8828 148.879 43.8828V45.8828ZM153.913 39.7988L162.737 40.3613L162.864 38.3653L154.04 37.8028L153.913 39.7988ZM161.818 39.1763C161.061 43.1572 159.572 46.0208 157.439 47.893C155.314 49.758 152.438 50.7383 148.703 50.7383V52.7383C152.797 52.7383 156.184 51.6561 158.758 49.3961C161.325 47.1432 162.971 43.8194 163.783 39.5503L161.818 39.1763ZM148.703 50.7383C144.124 50.7383 140.776 49.2089 138.492 46.2416L136.907 47.4615C139.638 51.0099 143.626 52.7383 148.703 52.7383V50.7383ZM138.492 46.2416C136.157 43.2083 134.938 39.086 134.938 33.7734H132.938C132.938 39.3828 134.226 43.9792 136.907 47.4615L138.492 46.2416ZM134.938 33.7734C134.938 27.7343 136.237 23.2973 138.684 20.3093L137.136 19.0422C134.286 22.523 132.938 27.4844 132.938 33.7734H134.938ZM138.683 20.3099C141.152 17.2998 144.434 15.7891 148.633 15.7891V13.7891C143.878 13.7891 140.012 15.5361 137.137 19.0416L138.683 20.3099ZM148.633 15.7891C152.394 15.7891 155.491 17.1205 157.992 19.7962L159.453 18.4303C156.564 15.3404 152.934 13.7891 148.633 13.7891V15.7891ZM157.998 19.8023C160.434 22.3648 161.801 27.2796 161.801 34.8984H163.801C163.801 27.1892 162.448 21.5805 159.447 18.4242L157.998 19.8023ZM154.448 29.2234C154.471 28.7952 154.484 28.4456 154.484 28.1836H152.484C152.484 28.3904 152.474 28.697 152.451 29.1125L154.448 29.2234ZM154.484 28.1836C154.484 25.8169 154.09 23.866 153.152 22.4814C152.168 21.0273 150.675 20.3281 148.844 20.3281V22.3281C150.106 22.3281 150.934 22.7716 151.496 23.6026C152.106 24.5032 152.484 25.9799 152.484 28.1836H154.484ZM148.844 20.3281C146.968 20.3281 145.493 21.1672 144.545 22.7816C143.645 24.3143 143.25 26.4855 143.238 29.1635L145.238 29.1725C145.25 26.6239 145.635 24.8752 146.269 23.7946C146.856 22.7957 147.673 22.3281 148.844 22.3281V20.3281ZM144.238 30.168H153.449V28.168H144.238V30.168ZM185.969 3.01172V2.01172H184.969V3.01172H185.969ZM195.707 3.01172H196.707V2.01172H195.707V3.01172ZM195.707 51V52H196.707V51H195.707ZM186.531 51H185.531V52H186.531V51ZM186.531 45.1289H187.531L185.588 44.7955L186.531 45.1289ZM170.289 19.5703L169.473 18.9926L169.47 18.9969L170.289 19.5703ZM185.969 18.7969L185.095 19.2825L186.969 22.656V18.7969H185.969ZM184.844 23.3672L183.989 23.8866L183.995 23.8965L184.001 23.9062L184.844 23.3672ZM178.234 24.0352L177.297 23.6869L177.293 23.6988L178.234 24.0352ZM184.703 43.0898L183.922 42.4651L183.921 42.4673L184.703 43.0898ZM185.969 4.01172H195.707V2.01172H185.969V4.01172ZM194.707 3.01172V51H196.707V3.01172H194.707ZM195.707 50H186.531V52H195.707V50ZM187.531 51V45.1289H185.531V51H187.531ZM185.588 44.7955C184.882 46.7927 183.925 48.2033 182.766 49.1155C181.618 50.0189 180.198 50.4922 178.445 50.4922V52.4922C180.583 52.4922 182.456 51.9049 184.003 50.6872C185.539 49.4783 186.68 47.7073 187.474 45.4623L185.588 44.7955ZM178.445 50.4922C174.986 50.4922 172.471 49.0227 170.774 46.0092L169.031 46.9908C171.083 50.6336 174.264 52.4922 178.445 52.4922V50.4922ZM170.774 46.0092C169.011 42.8805 168.09 38.6966 168.09 33.3867H166.09C166.09 38.905 167.044 43.4633 169.031 46.9908L170.774 46.0092ZM168.09 33.3867C168.09 27.3057 169.148 22.9445 171.108 20.1438L169.47 18.9969C167.165 22.2899 166.09 27.1396 166.09 33.3867H168.09ZM171.105 20.148C173.083 17.3531 175.656 16 178.902 16V14C174.976 14 171.807 15.6937 169.473 18.9926L171.105 20.148ZM178.902 16C181.906 16 183.893 17.1195 185.095 19.2825L186.843 18.3112C185.232 15.4118 182.508 14 178.902 14V16ZM186.969 18.7969V3.01172H184.969V18.7969H186.969ZM186.969 30.3633C186.969 28.5866 186.874 27.0733 186.675 25.8364C186.479 24.6165 186.169 23.5832 185.686 22.8281L184.001 23.9062C184.268 24.3231 184.521 25.0417 184.7 26.1539C184.876 27.249 184.969 28.6477 184.969 30.3633H186.969ZM185.698 22.8478C184.789 21.3521 183.398 20.5742 181.645 20.5742V22.5742C182.704 22.5742 183.445 22.9916 183.989 23.8866L185.698 22.8478ZM181.645 20.5742C180.643 20.5742 179.728 20.8238 178.959 21.3786C178.194 21.9305 177.653 22.7272 177.297 23.687L179.172 24.3833C179.425 23.7025 179.757 23.2687 180.129 23.0004C180.497 22.7348 180.982 22.5742 181.645 22.5742V20.5742ZM177.293 23.6988C176.955 24.6443 176.727 26.0089 176.579 27.7286C176.429 29.4668 176.355 31.6366 176.355 34.2305H178.355C178.355 31.6681 178.428 29.5605 178.572 27.9003C178.716 26.2215 178.928 25.0666 179.176 24.3715L177.293 23.6988ZM176.355 34.2305C176.355 38.0793 176.677 40.9565 177.419 42.707L179.26 41.9259C178.691 40.5825 178.355 38.0692 178.355 34.2305H176.355ZM177.419 42.707C177.8 43.6049 178.335 44.3504 179.058 44.8692C179.788 45.3934 180.644 45.6367 181.574 45.6367V43.6367C181.005 43.6367 180.571 43.4933 180.224 43.2441C179.869 42.9894 179.536 42.5748 179.26 41.9259L177.419 42.707ZM181.574 45.6367C183.159 45.6367 184.485 44.9707 185.486 43.7124L183.921 42.4673C183.281 43.2714 182.521 43.6367 181.574 43.6367V45.6367ZM185.484 43.7145C186.05 43.0069 186.409 42.0267 186.634 40.8835C186.861 39.7252 186.969 38.3105 186.969 36.6562H184.969C184.969 38.2363 184.865 39.5111 184.671 40.4974C184.474 41.4987 184.2 42.1181 183.922 42.4651L185.484 43.7145ZM186.969 36.6562V30.3633H184.969V36.6562H186.969ZM232.586 24.0703L231.652 24.4275L231.657 24.4393L232.586 24.0703ZM226.117 23.9648L227.033 24.3657L227.036 24.3605L226.117 23.9648ZM232.656 42.3164L233.599 42.6485L233.601 42.6444L232.656 42.3164ZM242.766 33.2461C242.766 39.3078 241.58 43.6699 239.373 46.5005C237.204 49.2836 233.926 50.7383 229.352 50.7383V52.7383C234.386 52.7383 238.316 51.1109 240.951 47.73C243.549 44.3965 244.766 39.5125 244.766 33.2461H242.766ZM229.352 50.7383C224.764 50.7383 221.478 49.283 219.303 46.4995C217.091 43.6691 215.902 39.3074 215.902 33.2461H213.902C213.902 39.513 215.122 44.3973 217.727 47.7309C220.368 51.1115 224.306 52.7383 229.352 52.7383V50.7383ZM215.902 33.2461C215.902 27.1969 217.091 22.8442 219.302 20.0197C221.477 17.2419 224.763 15.7891 229.352 15.7891V13.7891C224.307 13.7891 220.369 15.4124 217.727 18.7869C215.122 22.1148 213.902 26.9906 213.902 33.2461H215.902ZM229.352 15.7891C233.927 15.7891 237.205 17.2412 239.374 20.0188C241.58 22.8434 242.766 27.1965 242.766 33.2461H244.766C244.766 26.991 243.549 22.1156 240.95 18.7878C238.315 15.4131 234.385 13.7891 229.352 13.7891V15.7891ZM234.535 33.2461C234.535 30.9644 234.456 29.032 234.293 27.4567C234.131 25.8961 233.882 24.6256 233.515 23.7013L231.657 24.4393C231.922 25.1088 232.148 26.1645 232.303 27.6625C232.457 29.1458 232.535 31.0044 232.535 33.2461H234.535ZM233.52 23.7132C233.166 22.7862 232.644 22.0124 231.915 21.4732C231.178 20.9286 230.305 20.6797 229.352 20.6797V22.6797C229.945 22.6797 230.385 22.8292 230.726 23.0815C231.075 23.3392 231.397 23.7607 231.652 24.4274L233.52 23.7132ZM229.352 20.6797C228.424 20.6797 227.571 20.9183 226.841 21.4343C226.117 21.9455 225.581 22.6814 225.199 23.5692L227.036 24.3605C227.309 23.7248 227.64 23.3182 227.995 23.0677C228.343 22.8219 228.779 22.6797 229.352 22.6797V20.6797ZM225.201 23.564C224.81 24.4579 224.551 25.7302 224.384 27.3047C224.215 28.8994 224.133 30.8828 224.133 33.2461H226.133C226.133 30.9219 226.214 29.0147 226.373 27.5156C226.534 25.9964 226.768 24.9718 227.033 24.3657L225.201 23.564ZM224.133 33.2461C224.133 37.579 224.409 40.7394 225.028 42.5975L226.925 41.965C226.42 40.4481 226.133 37.5851 226.133 33.2461H224.133ZM225.028 42.5975C225.356 43.583 225.879 44.407 226.642 44.9797C227.41 45.5558 228.336 45.8125 229.352 45.8125V43.8125C228.68 43.8125 228.199 43.6474 227.842 43.3797C227.481 43.1087 227.159 42.667 226.925 41.965L225.028 42.5975ZM229.352 45.8125C230.339 45.8125 231.24 45.5551 231.993 44.9864C232.739 44.423 233.259 43.6147 233.599 42.6485L231.713 41.9843C231.467 42.6822 231.144 43.1219 230.788 43.3905C230.439 43.6539 229.981 43.8125 229.352 43.8125V45.8125ZM233.601 42.6444C234.248 40.7803 234.535 37.602 234.535 33.2461H232.535C232.535 37.609 232.236 40.4775 231.712 41.9884L233.601 42.6444ZM260.711 15.4922H259.711V16.4922H260.711V15.4922ZM266.969 15.4922H267.969V14.4922H266.969V15.4922ZM266.969 23.2969V24.2969H267.969V23.2969H266.969ZM260.711 23.2969V22.2969H259.711V23.2969H260.711ZM260.711 51V52H261.711V51H260.711ZM251.219 51H250.219V52H251.219V51ZM251.219 23.2969H252.219V22.2969H251.219V23.2969ZM247.176 23.2969H246.176V24.2969H247.176V23.2969ZM247.176 15.4922V14.4922H246.176V15.4922H247.176ZM251.219 15.4922V16.4922H252.212L252.219 15.4989L251.219 15.4922ZM267.355 1.46484H268.355V0.601147L267.501 0.475485L267.355 1.46484ZM267.355 9.19922L267.239 10.1924L268.355 10.3238V9.19922H267.355ZM261.484 10.2891L260.649 9.73987L260.645 9.74581L261.484 10.2891ZM260.711 16.4922H266.969V14.4922H260.711V16.4922ZM265.969 15.4922V23.2969H267.969V15.4922H265.969ZM266.969 22.2969H260.711V24.2969H266.969V22.2969ZM259.711 23.2969V51H261.711V23.2969H259.711ZM260.711 50H251.219V52H260.711V50ZM252.219 51V23.2969H250.219V51H252.219ZM251.219 22.2969H247.176V24.2969H251.219V22.2969ZM248.176 23.2969V15.4922H246.176V23.2969H248.176ZM247.176 16.4922H251.219V14.4922H247.176V16.4922ZM252.219 15.4989C252.242 12.0307 252.512 9.53242 252.986 7.93731L251.069 7.36737C250.512 9.24102 250.242 11.9693 250.219 15.4855L252.219 15.4989ZM252.986 7.93731C253.431 6.44154 254.399 5.08487 255.976 3.87546L254.759 2.2886C252.913 3.70419 251.655 5.3944 251.069 7.36737L252.986 7.93731ZM255.976 3.87546C257.458 2.73868 259.55 2.11328 262.363 2.11328V0.113281C259.27 0.113281 256.699 0.800378 254.759 2.2886L255.976 3.87546ZM262.363 2.11328C264.053 2.11328 265.668 2.22743 267.21 2.4542L267.501 0.475485C265.856 0.23351 264.143 0.113281 262.363 0.113281V2.11328ZM266.355 1.46484V9.19922H268.355V1.46484H266.355ZM267.472 8.20607C266.643 8.10854 265.866 8.05859 265.141 8.05859V10.0586C265.775 10.0586 266.474 10.1024 267.239 10.1924L267.472 8.20607ZM265.141 8.05859C263.202 8.05859 261.491 8.45776 260.649 9.73988L262.32 10.8382C262.556 10.4797 263.282 10.0586 265.141 10.0586V8.05859ZM260.645 9.74581C260.269 10.3269 260.05 11.1318 259.915 12.0405C259.776 12.9745 259.711 14.1297 259.711 15.4922H261.711C261.711 14.1828 261.774 13.1349 261.893 12.3345C262.016 11.5088 262.184 11.0481 262.324 10.8323L260.645 9.74581ZM293.336 26.7773L293.239 27.7726L294.261 27.8721L294.333 26.8481L293.336 26.7773ZM283.949 25.8633L282.957 25.7392L282.829 26.759L283.852 26.8586L283.949 25.8633ZM288.484 17.6367L287.89 16.8324L287.887 16.835L288.484 17.6367ZM306.309 16.6875L305.77 17.53L305.777 17.5344L306.309 16.6875ZM310.105 21.1172L309.149 21.4094L309.153 21.4215L310.105 21.1172ZM311.512 51V52H313.09L312.416 50.573L311.512 51ZM302.336 51L301.39 51.3231L301.621 52H302.336V51ZM301.844 45.5508H302.844L300.96 45.0836L301.844 45.5508ZM285.355 49.2773L284.663 49.9989L284.668 50.0038L285.355 49.2773ZM286.691 32.8594L287.326 33.6321L287.33 33.6287L286.691 32.8594ZM301.035 28.957L301.096 29.9552L302.035 29.8981V28.957H301.035ZM300.297 22.6992L299.407 23.1555L299.412 23.1645L299.416 23.1733L300.297 22.6992ZM301.035 34.0195H302.035V32.8993L300.922 33.0259L301.035 34.0195ZM294.848 35.9531L295.457 36.7458L295.46 36.7441L294.848 35.9531ZM299.559 43.2305L298.749 42.644L298.747 42.6465L299.559 43.2305ZM293.433 25.7821L284.046 24.868L283.852 26.8586L293.239 27.7726L293.433 25.7821ZM284.941 25.9873C285.357 22.6604 286.749 20.1778 289.082 18.4385L287.887 16.835C285.064 18.9394 283.432 21.9412 282.957 25.7392L284.941 25.9873ZM289.079 18.441C291.473 16.6719 294.522 15.7539 298.293 15.7539V13.7539C294.189 13.7539 290.698 14.7578 287.89 16.8324L289.079 18.441ZM298.293 15.7539C301.502 15.7539 303.966 16.3766 305.77 17.5299L306.847 15.8451C304.62 14.4203 301.74 13.7539 298.293 13.7539V15.7539ZM305.777 17.5344C307.66 18.7171 308.725 20.0215 309.149 21.4094L311.062 20.825C310.455 18.8379 308.988 17.1892 306.84 15.8406L305.777 17.5344ZM309.153 21.4215C309.643 22.9551 309.914 25.4397 309.914 28.957H311.914C311.914 25.3962 311.646 22.6543 311.058 20.8129L309.153 21.4215ZM309.914 28.957V43.125H311.914V28.957H309.914ZM309.914 43.125C309.914 45.339 309.964 47.1253 310.066 48.4741C310.117 49.1481 310.183 49.7271 310.265 50.203C310.344 50.6617 310.449 51.0914 310.607 51.427L312.416 50.573C312.375 50.4867 312.306 50.2719 312.236 49.8634C312.168 49.4722 312.109 48.9613 312.061 48.3228C311.964 47.0465 311.914 45.3172 311.914 43.125H309.914ZM311.512 50H302.336V52H311.512V50ZM303.282 50.6769C303.015 49.8937 302.844 48.2358 302.844 45.5508H300.844C300.844 48.2095 301.001 50.1844 301.39 51.3231L303.282 50.6769ZM300.96 45.0836C299.934 47.025 298.686 48.4273 297.238 49.3474C295.794 50.2647 294.096 50.7383 292.105 50.7383V52.7383C294.428 52.7383 296.508 52.1806 298.311 51.0354C300.109 49.893 301.574 48.2015 302.728 46.018L300.96 45.0836ZM292.105 50.7383C289.552 50.7383 287.562 49.9881 286.043 48.5509L284.668 50.0038C286.618 51.8478 289.128 52.7383 292.105 52.7383V50.7383ZM286.048 48.5558C284.567 47.1346 283.754 45.0169 283.754 42.0352H281.754C281.754 45.3816 282.676 48.0919 284.663 49.9989L286.048 48.5558ZM283.754 42.0352C283.754 38.318 284.972 35.5658 287.326 33.6321L286.057 32.0866C283.161 34.4654 281.754 37.8304 281.754 42.0352H283.754ZM287.33 33.6287C289.692 31.6673 294.189 30.3752 301.096 29.9552L300.974 27.9589C294.007 28.3826 288.94 29.692 286.053 32.09L287.33 33.6287ZM302.035 28.957V27.6211H300.035V28.957H302.035ZM302.035 27.6211C302.035 25.2493 301.799 23.3804 301.177 22.2251L299.416 23.1733C299.779 23.8462 300.035 25.2585 300.035 27.6211H302.035ZM301.187 22.2429C300.487 20.8794 299.127 20.3281 297.52 20.3281V22.3281C298.678 22.3281 299.169 22.6909 299.407 23.1555L301.187 22.2429ZM297.52 20.3281C295.981 20.3281 294.69 20.8984 293.782 22.0815C292.914 23.212 292.474 24.8003 292.338 26.7066L294.333 26.8481C294.456 25.1216 294.842 23.9852 295.368 23.2994C295.855 22.6661 296.527 22.3281 297.52 22.3281V20.3281ZM300.922 33.0259C297.989 33.3598 295.7 34.0296 294.236 35.1622L295.46 36.7441C296.48 35.9548 298.316 35.3355 301.148 35.0131L300.922 33.0259ZM294.238 35.1605C292.675 36.363 292.02 38.3238 292.02 40.7344H294.02C294.02 38.6449 294.583 37.4182 295.457 36.7457L294.238 35.1605ZM292.02 40.7344C292.02 42.3273 292.307 43.7032 293.04 44.7013C293.815 45.757 294.971 46.2344 296.324 46.2344V44.2344C295.475 44.2344 294.978 43.9618 294.652 43.5175C294.283 43.0155 294.02 42.1415 294.02 40.7344H292.02ZM296.324 46.2344C297.953 46.2344 299.298 45.3053 300.37 43.8144L298.747 42.6465C297.897 43.8275 297.086 44.2344 296.324 44.2344V46.2344ZM300.369 43.817C301.555 42.1779 302.035 39.4027 302.035 35.7773H300.035C300.035 39.3708 299.53 41.5643 298.749 42.644L300.369 43.817ZM302.035 35.7773V34.0195H300.035V35.7773H302.035ZM327.402 15.4922V14.4922H326.12L326.433 15.7361L327.402 15.4922ZM337.035 15.4922L338.017 15.3019L337.86 14.4922H337.035V15.4922ZM341.219 37.0781L340.237 37.2684L342.202 37.2591L341.219 37.0781ZM345.191 15.4922V14.4922H344.359L344.208 15.3112L345.191 15.4922ZM354.824 15.4922L355.813 15.344L355.686 14.4922H354.824V15.4922ZM358.059 37.0781L357.07 37.2263L359.035 37.2944L358.059 37.0781ZM362.84 15.4922V14.4922H362.037L361.864 15.2759L362.84 15.4922ZM370.609 15.4922L371.579 15.7352L371.891 14.4922H370.609V15.4922ZM361.715 51V52H362.495L362.685 51.243L361.715 51ZM353.418 51L352.435 51.1859L352.589 52H353.418V51ZM348.848 26.8477L349.83 26.6617L347.864 26.6659L348.848 26.8477ZM344.383 51V52H345.215L345.366 51.1818L344.383 51ZM336.332 51L335.362 51.2439L335.552 52H336.332V51ZM327.402 16.4922H337.035V14.4922H327.402V16.4922ZM336.053 15.6825L340.237 37.2684L342.2 36.8879L338.017 15.3019L336.053 15.6825ZM342.202 37.2591L346.175 15.6732L344.208 15.3112L340.235 36.8971L342.202 37.2591ZM345.191 16.4922H354.824V14.4922H345.191V16.4922ZM353.835 15.6404L357.07 37.2263L359.048 36.9299L355.813 15.344L353.835 15.6404ZM359.035 37.2944L363.816 15.7084L361.864 15.2759L357.082 36.8619L359.035 37.2944ZM362.84 16.4922H370.609V14.4922H362.84V16.4922ZM369.639 15.2492L360.745 50.757L362.685 51.243L371.579 15.7352L369.639 15.2492ZM361.715 50H353.418V52H361.715V50ZM354.401 50.8141L349.83 26.6617L347.865 27.0336L352.435 51.1859L354.401 50.8141ZM347.864 26.6659L343.399 50.8182L345.366 51.1818L349.831 27.0294L347.864 26.6659ZM344.383 50H336.332V52H344.383V50ZM337.302 50.7561L328.372 15.2483L326.433 15.7361L335.362 51.2439L337.302 50.7561ZM400.668 34.8984V35.8984H401.668V34.8984H400.668ZM382.035 34.8984V33.8984H381.035V34.8984H382.035ZM391.844 38.8008L391.907 37.8028L390.937 37.741L390.848 38.7087L391.844 38.8008ZM400.668 39.3633L401.65 39.5503L401.862 38.4374L400.732 38.3653L400.668 39.3633ZM375.777 19.6758L375.004 19.0416L375.004 19.0422L375.777 19.6758ZM396.59 19.1133L395.859 19.7963L395.865 19.8023L396.59 19.1133ZM391.316 29.168V30.168H392.262L392.315 29.2234L391.316 29.168ZM382.105 29.168L381.105 29.1635L381.101 30.168H382.105V29.168ZM400.668 33.8984H382.035V35.8984H400.668V33.8984ZM381.035 34.8984V36.8672H383.035V34.8984H381.035ZM381.035 36.8672C381.035 38.5 381.146 39.9021 381.38 41.0566C381.613 42.1988 381.982 43.1775 382.557 43.8924L384.115 42.6389C383.823 42.2756 383.542 41.6489 383.34 40.6582C383.141 39.6799 383.035 38.4218 383.035 36.8672H381.035ZM382.557 43.8924C383.617 45.211 385.043 45.8828 386.746 45.8828V43.8828C385.637 43.8828 384.789 43.4765 384.115 42.6389L382.557 43.8924ZM386.746 45.8828C388.506 45.8828 389.986 45.2789 391.054 44.0047C392.088 42.7718 392.643 41.0209 392.84 38.8929L390.848 38.7087C390.67 40.6354 390.188 41.9254 389.522 42.7199C388.891 43.473 388.009 43.8828 386.746 43.8828V45.8828ZM391.78 39.7988L400.604 40.3613L400.732 38.3653L391.907 37.8028L391.78 39.7988ZM399.686 39.1763C398.928 43.1572 397.439 46.0208 395.306 47.893C393.182 49.758 390.305 50.7383 386.57 50.7383V52.7383C390.664 52.7383 394.051 51.6561 396.626 49.3961C399.192 47.1432 400.838 43.8194 401.65 39.5503L399.686 39.1763ZM386.57 50.7383C381.992 50.7383 378.643 49.2089 376.359 46.2416L374.774 47.4615C377.505 51.0099 381.493 52.7383 386.57 52.7383V50.7383ZM376.359 46.2416C374.024 43.2083 372.805 39.086 372.805 33.7734H370.805C370.805 39.3828 372.093 43.9792 374.774 47.4615L376.359 46.2416ZM372.805 33.7734C372.805 27.7343 374.104 23.2973 376.551 20.3093L375.004 19.0422C372.153 22.523 370.805 27.4844 370.805 33.7734H372.805ZM376.551 20.3099C379.019 17.2998 382.302 15.7891 386.5 15.7891V13.7891C381.745 13.7891 377.879 15.5361 375.004 19.0416L376.551 20.3099ZM386.5 15.7891C390.261 15.7891 393.358 17.1205 395.859 19.7962L397.32 18.4303C394.431 15.3404 390.801 13.7891 386.5 13.7891V15.7891ZM395.865 19.8023C398.302 22.3648 399.668 27.2796 399.668 34.8984H401.668C401.668 27.1892 400.316 21.5805 397.315 18.4242L395.865 19.8023ZM392.315 29.2234C392.339 28.7952 392.352 28.4456 392.352 28.1836H390.352C390.352 28.3904 390.341 28.697 390.318 29.1125L392.315 29.2234ZM392.352 28.1836C392.352 25.8169 391.957 23.866 391.02 22.4814C390.035 21.0273 388.543 20.3281 386.711 20.3281V22.3281C387.973 22.3281 388.801 22.7716 389.363 23.6026C389.973 24.5032 390.352 25.9799 390.352 28.1836H392.352ZM386.711 20.3281C384.835 20.3281 383.361 21.1672 382.412 22.7816C381.512 24.3143 381.117 26.4855 381.105 29.1635L383.105 29.1725C383.117 26.6239 383.502 24.8752 384.137 23.7946C384.723 22.7957 385.54 22.3281 386.711 22.3281V20.3281ZM382.105 30.168H391.316V28.168H382.105V30.168ZM406.469 3.01172V2.01172H405.469V3.01172H406.469ZM416.207 3.01172H417.207V2.01172H416.207V3.01172ZM416.207 18.832H415.207V21.8247L417.006 19.4332L416.207 18.832ZM431.852 46.8164L432.69 47.3614L432.692 47.3587L431.852 46.8164ZM414.203 46.3594L415.126 45.9735L414.332 44.0756L413.33 45.8723L414.203 46.3594ZM412.34 51V52H413.084L413.298 51.2873L412.34 51ZM406.469 51H405.469V52H406.469V51ZM423.871 42.2461L424.812 42.5848L424.813 42.5809L423.871 42.2461ZM406.469 4.01172H416.207V2.01172H406.469V4.01172ZM415.207 3.01172V18.832H417.207V3.01172H415.207ZM417.006 19.4332C418.754 17.1105 420.927 16 423.59 16V14C420.252 14 417.504 15.4442 415.408 18.2309L417.006 19.4332ZM423.59 16C426.513 16 428.96 17.2909 430.977 20.0235L432.586 18.8358C430.243 15.6622 427.23 14 423.59 14V16ZM430.977 20.0235C432.97 22.7236 434.051 27.0023 434.051 33.0352H436.051C436.051 26.8337 434.952 22.042 432.586 18.8358L430.977 20.0235ZM434.051 33.0352C434.051 38.8149 433 43.1925 431.011 46.2741L432.692 47.3587C434.969 43.8309 436.051 39.0211 436.051 33.0352H434.051ZM431.013 46.2714C429.075 49.2529 426.283 50.7383 422.5 50.7383V52.7383C426.92 52.7383 430.362 50.9424 432.69 47.3614L431.013 46.2714ZM422.5 50.7383C420.634 50.7383 419.134 50.3246 417.946 49.5545C416.761 48.786 415.812 47.6148 415.126 45.9735L413.281 46.7453C414.094 48.6899 415.278 50.2081 416.858 51.2326C418.436 52.2555 420.335 52.7383 422.5 52.7383V50.7383ZM413.33 45.8723C412.604 47.174 411.958 48.7937 411.382 50.7127L413.298 51.2873C413.847 49.4563 414.443 47.9823 415.076 46.8464L413.33 45.8723ZM412.34 50H406.469V52H412.34V50ZM407.469 51V3.01172H405.469V51H407.469ZM415.207 36.2695C415.207 39.5266 415.502 41.9891 416.223 43.46L418.019 42.5791C417.522 41.5656 417.207 39.5281 417.207 36.2695H415.207ZM416.223 43.46C416.605 44.2388 417.157 44.8627 417.888 45.2835C418.611 45.7004 419.449 45.8828 420.355 45.8828V43.8828C419.715 43.8828 419.24 43.7547 418.886 43.5505C418.538 43.3501 418.246 43.0425 418.019 42.5791L416.223 43.46ZM420.355 45.8828C421.39 45.8828 422.331 45.6138 423.118 45.0236C423.898 44.4386 424.448 43.5972 424.812 42.5848L422.93 41.9074C422.662 42.6528 422.309 43.1298 421.918 43.4236C421.533 43.7123 421.032 43.8828 420.355 43.8828V45.8828ZM424.813 42.5809C425.508 40.6248 425.82 37.4858 425.82 33.2812H423.82C423.82 37.4673 423.499 40.3049 422.929 41.9113L424.813 42.5809ZM425.82 33.2812C425.82 29.2082 425.518 26.1105 424.857 24.0776L422.955 24.6958C423.513 26.4129 423.82 29.245 423.82 33.2812H425.82ZM424.857 24.0776C424.514 23.0211 423.995 22.1336 423.246 21.5091C422.482 20.8725 421.556 20.5742 420.531 20.5742V22.5742C421.148 22.5742 421.604 22.7447 421.965 23.0456C422.341 23.3586 422.689 23.8773 422.955 24.6958L424.857 24.0776ZM420.531 20.5742C418.797 20.5742 417.384 21.2503 416.455 22.6465C415.575 23.9709 415.207 25.831 415.207 28.0781H417.207C417.207 25.9893 417.56 24.5974 418.121 23.7539C418.634 22.9822 419.382 22.5742 420.531 22.5742V20.5742ZM415.207 28.0781V36.2695H417.207V28.0781H415.207ZM471.648 3.01172V2.01172H470.648V3.01172H471.648ZM481.387 3.01172H482.387V2.01172H481.387V3.01172ZM481.387 51V52H482.387V51H481.387ZM472.211 51H471.211V52H472.211V51ZM472.211 45.1289H473.211L471.268 44.7955L472.211 45.1289ZM455.969 19.5703L455.152 18.9926L455.15 18.9969L455.969 19.5703ZM471.648 18.7969L470.774 19.2825L472.648 22.656V18.7969H471.648ZM470.523 23.3672L469.669 23.8866L469.675 23.8965L469.681 23.9062L470.523 23.3672ZM463.914 24.0352L462.977 23.6869L462.972 23.6988L463.914 24.0352ZM470.383 43.0898L469.602 42.4651L469.6 42.4673L470.383 43.0898ZM471.648 4.01172H481.387V2.01172H471.648V4.01172ZM480.387 3.01172V51H482.387V3.01172H480.387ZM481.387 50H472.211V52H481.387V50ZM473.211 51V45.1289H471.211V51H473.211ZM471.268 44.7955C470.562 46.7927 469.605 48.2033 468.446 49.1155C467.298 50.0189 465.878 50.4922 464.125 50.4922V52.4922C466.263 52.4922 468.136 51.9049 469.683 50.6872C471.219 49.4783 472.36 47.7073 473.154 45.4623L471.268 44.7955ZM464.125 50.4922C460.666 50.4922 458.151 49.0227 456.453 46.0092L454.711 46.9908C456.763 50.6336 459.944 52.4922 464.125 52.4922V50.4922ZM456.453 46.0092C454.691 42.8805 453.77 38.6966 453.77 33.3867H451.77C451.77 38.905 452.723 43.4633 454.711 46.9908L456.453 46.0092ZM453.77 33.3867C453.77 27.3057 454.827 22.9445 456.788 20.1438L455.15 18.9969C452.844 22.2899 451.77 27.1396 451.77 33.3867H453.77ZM456.785 20.148C458.763 17.3531 461.336 16 464.582 16V14C460.656 14 457.487 15.6937 455.152 18.9926L456.785 20.148ZM464.582 16C467.586 16 469.573 17.1195 470.774 19.2825L472.523 18.3112C470.912 15.4118 468.188 14 464.582 14V16ZM472.648 18.7969V3.01172H470.648V18.7969H472.648ZM472.648 30.3633C472.648 28.5866 472.553 27.0733 472.355 25.8364C472.158 24.6165 471.849 23.5832 471.366 22.8281L469.681 23.9062C469.948 24.3231 470.201 25.0417 470.38 26.1539C470.556 27.249 470.648 28.6477 470.648 30.3633H472.648ZM471.378 22.8478C470.469 21.3521 469.077 20.5742 467.324 20.5742V22.5742C468.384 22.5742 469.125 22.9916 469.669 23.8866L471.378 22.8478ZM467.324 20.5742C466.322 20.5742 465.407 20.8238 464.638 21.3786C463.874 21.9305 463.333 22.7272 462.977 23.687L464.851 24.3833C465.104 23.7025 465.437 23.2687 465.809 23.0004C466.177 22.7348 466.662 22.5742 467.324 22.5742V20.5742ZM462.972 23.6988C462.635 24.6443 462.407 26.0089 462.259 27.7286C462.109 29.4668 462.035 31.6366 462.035 34.2305H464.035C464.035 31.6681 464.108 29.5605 464.251 27.9003C464.396 26.2215 464.608 25.0666 464.856 24.3715L462.972 23.6988ZM462.035 34.2305C462.035 38.0793 462.356 40.9565 463.099 42.707L464.94 41.9259C464.37 40.5825 464.035 38.0692 464.035 34.2305H462.035ZM463.099 42.707C463.48 43.6049 464.014 44.3504 464.737 44.8692C465.468 45.3934 466.323 45.6367 467.254 45.6367V43.6367C466.685 43.6367 466.251 43.4933 465.903 43.2441C465.548 42.9894 465.215 42.5748 464.94 41.9259L463.099 42.707ZM467.254 45.6367C468.839 45.6367 470.164 44.9707 471.165 43.7124L469.6 42.4673C468.961 43.2714 468.201 43.6367 467.254 43.6367V45.6367ZM471.164 43.7145C471.73 43.0069 472.088 42.0267 472.313 40.8835C472.541 39.7252 472.648 38.3105 472.648 36.6562H470.648C470.648 38.2363 470.545 39.5111 470.351 40.4974C470.154 41.4987 469.88 42.1181 469.602 42.4651L471.164 43.7145ZM472.648 36.6562V30.3633H470.648V36.6562H472.648ZM515.98 34.8984V35.8984H516.98V34.8984H515.98ZM497.348 34.8984V33.8984H496.348V34.8984H497.348ZM507.156 38.8008L507.22 37.8028L506.25 37.741L506.16 38.7087L507.156 38.8008ZM515.98 39.3633L516.963 39.5503L517.175 38.4374L516.044 38.3653L515.98 39.3633ZM491.09 19.6758L490.317 19.0416L490.316 19.0422L491.09 19.6758ZM511.902 19.1133L511.172 19.7963L511.178 19.8023L511.902 19.1133ZM506.629 29.168V30.168H507.575L507.627 29.2234L506.629 29.168ZM497.418 29.168L496.418 29.1635L496.413 30.168H497.418V29.168ZM515.98 33.8984H497.348V35.8984H515.98V33.8984ZM496.348 34.8984V36.8672H498.348V34.8984H496.348ZM496.348 36.8672C496.348 38.5 496.458 39.9021 496.693 41.0566C496.925 42.1988 497.294 43.1775 497.869 43.8924L499.428 42.6389C499.135 42.2756 498.854 41.6489 498.653 40.6582C498.454 39.6799 498.348 38.4218 498.348 36.8672H496.348ZM497.869 43.8924C498.93 45.211 500.355 45.8828 502.059 45.8828V43.8828C500.949 43.8828 500.101 43.4765 499.428 42.6389L497.869 43.8924ZM502.059 45.8828C503.819 45.8828 505.299 45.2789 506.367 44.0047C507.4 42.7718 507.955 41.0209 508.152 38.8929L506.16 38.7087C505.982 40.6354 505.5 41.9254 504.834 42.7199C504.203 43.473 503.322 43.8828 502.059 43.8828V45.8828ZM507.093 39.7988L515.917 40.3613L516.044 38.3653L507.22 37.8028L507.093 39.7988ZM514.998 39.1763C514.24 43.1572 512.751 46.0208 510.619 47.893C508.494 49.758 505.617 50.7383 501.883 50.7383V52.7383C505.976 52.7383 509.363 51.6561 511.938 49.3961C514.504 47.1432 516.15 43.8194 516.963 39.5503L514.998 39.1763ZM501.883 50.7383C497.304 50.7383 493.956 49.2089 491.671 46.2416L490.086 47.4615C492.818 51.0099 496.805 52.7383 501.883 52.7383V50.7383ZM491.671 46.2416C489.336 43.2083 488.117 39.086 488.117 33.7734H486.117C486.117 39.3828 487.406 43.9792 490.086 47.4615L491.671 46.2416ZM488.117 33.7734C488.117 27.7343 489.417 23.2973 491.864 20.3093L490.316 19.0422C487.466 22.523 486.117 27.4844 486.117 33.7734H488.117ZM491.863 20.3099C494.332 17.2998 497.614 15.7891 501.812 15.7891V13.7891C497.058 13.7891 493.192 15.5361 490.317 19.0416L491.863 20.3099ZM501.812 15.7891C505.574 15.7891 508.67 17.1205 511.172 19.7962L512.633 18.4303C509.744 15.3404 506.114 13.7891 501.812 13.7891V15.7891ZM511.178 19.8023C513.614 22.3648 514.98 27.2796 514.98 34.8984H516.98C516.98 27.1892 515.628 21.5805 512.627 18.4242L511.178 19.8023ZM507.627 29.2234C507.651 28.7952 507.664 28.4456 507.664 28.1836H505.664C505.664 28.3904 505.654 28.697 505.63 29.1125L507.627 29.2234ZM507.664 28.1836C507.664 25.8169 507.269 23.866 506.332 22.4814C505.348 21.0273 503.855 20.3281 502.023 20.3281V22.3281C503.285 22.3281 504.113 22.7716 504.676 23.6026C505.285 24.5032 505.664 25.9799 505.664 28.1836H507.664ZM502.023 20.3281C500.148 20.3281 498.673 21.1672 497.725 22.7816C496.824 24.3143 496.43 26.4855 496.418 29.1635L498.418 29.1725C498.429 26.6239 498.814 24.8752 499.449 23.7946C500.036 22.7957 500.852 22.3281 502.023 22.3281V20.3281ZM497.418 30.168H506.629V28.168H497.418V30.168ZM517.07 15.4922V14.4922H515.749L516.108 15.7638L517.07 15.4922ZM526.598 15.4922L527.572 15.2654L527.392 14.4922H526.598V15.4922ZM531.484 36.4805L530.51 36.7072L532.458 36.7103L531.484 36.4805ZM536.441 15.4922V14.4922H535.65L535.468 15.2623L536.441 15.4922ZM544.668 15.4922L545.632 15.7567L545.979 14.4922H544.668V15.4922ZM534.93 51V52H535.692L535.894 51.2645L534.93 51ZM527.09 51L526.127 51.2716L526.333 52H527.09V51ZM517.07 16.4922H526.598V14.4922H517.07V16.4922ZM525.624 15.719L530.51 36.7072L532.458 36.2537L527.572 15.2654L525.624 15.719ZM532.458 36.7103L537.415 15.722L535.468 15.2623L530.511 36.2506L532.458 36.7103ZM536.441 16.4922H544.668V14.4922H536.441V16.4922ZM543.704 15.2277L533.965 50.7355L535.894 51.2645L545.632 15.7567L543.704 15.2277ZM534.93 50H527.09V52H534.93V50ZM528.052 50.7284L518.033 15.2206L516.108 15.7638L526.127 51.2716L528.052 50.7284ZM574.621 34.8984V35.8984H575.621V34.8984H574.621ZM555.988 34.8984V33.8984H554.988V34.8984H555.988ZM565.797 38.8008L565.86 37.8028L564.891 37.741L564.801 38.7087L565.797 38.8008ZM574.621 39.3633L575.603 39.5503L575.815 38.4374L574.685 38.3653L574.621 39.3633ZM549.73 19.6758L548.957 19.0416L548.957 19.0422L549.73 19.6758ZM570.543 19.1133L569.812 19.7963L569.818 19.8023L570.543 19.1133ZM565.27 29.168V30.168H566.216L566.268 29.2234L565.27 29.168ZM556.059 29.168L555.059 29.1635L555.054 30.168H556.059V29.168ZM574.621 33.8984H555.988V35.8984H574.621V33.8984ZM554.988 34.8984V36.8672H556.988V34.8984H554.988ZM554.988 36.8672C554.988 38.5 555.099 39.9021 555.334 41.0566C555.566 42.1988 555.935 43.1775 556.51 43.8924L558.068 42.6389C557.776 42.2756 557.495 41.6489 557.293 40.6582C557.095 39.6799 556.988 38.4218 556.988 36.8672H554.988ZM556.51 43.8924C557.57 45.211 558.996 45.8828 560.699 45.8828V43.8828C559.59 43.8828 558.742 43.4765 558.068 42.6389L556.51 43.8924ZM560.699 45.8828C562.459 45.8828 563.94 45.2789 565.008 44.0047C566.041 42.7718 566.596 41.0209 566.793 38.8929L564.801 38.7087C564.623 40.6354 564.141 41.9254 563.475 42.7199C562.844 43.473 561.962 43.8828 560.699 43.8828V45.8828ZM565.733 39.7988L574.557 40.3613L574.685 38.3653L565.86 37.8028L565.733 39.7988ZM573.639 39.1763C572.881 43.1572 571.392 46.0208 569.259 47.893C567.135 49.758 564.258 50.7383 560.523 50.7383V52.7383C564.617 52.7383 568.004 51.6561 570.579 49.3961C573.145 47.1432 574.791 43.8194 575.603 39.5503L573.639 39.1763ZM560.523 50.7383C555.945 50.7383 552.596 49.2089 550.312 46.2416L548.727 47.4615C551.459 51.0099 555.446 52.7383 560.523 52.7383V50.7383ZM550.312 46.2416C547.977 43.2083 546.758 39.086 546.758 33.7734H544.758C544.758 39.3828 546.046 43.9792 548.727 47.4615L550.312 46.2416ZM546.758 33.7734C546.758 27.7343 548.057 23.2973 550.504 20.3093L548.957 19.0422C546.107 22.523 544.758 27.4844 544.758 33.7734H546.758ZM550.504 20.3099C552.972 17.2998 556.255 15.7891 560.453 15.7891V13.7891C555.698 13.7891 551.832 15.5361 548.957 19.0416L550.504 20.3099ZM560.453 15.7891C564.214 15.7891 567.311 17.1205 569.813 19.7962L571.273 18.4303C568.384 15.3404 564.755 13.7891 560.453 13.7891V15.7891ZM569.818 19.8023C572.255 22.3648 573.621 27.2796 573.621 34.8984H575.621C575.621 27.1892 574.269 21.5805 571.268 18.4242L569.818 19.8023ZM566.268 29.2234C566.292 28.7952 566.305 28.4456 566.305 28.1836H564.305C564.305 28.3904 564.294 28.697 564.271 29.1125L566.268 29.2234ZM566.305 28.1836C566.305 25.8169 565.91 23.866 564.973 22.4814C563.988 21.0273 562.496 20.3281 560.664 20.3281V22.3281C561.926 22.3281 562.754 22.7716 563.316 23.6026C563.926 24.5032 564.305 25.9799 564.305 28.1836H566.305ZM560.664 20.3281C558.788 20.3281 557.314 21.1672 556.365 22.7816C555.465 24.3143 555.071 26.4855 555.059 29.1635L557.059 29.1725C557.07 26.6239 557.455 24.8752 558.09 23.7946C558.677 22.7957 559.493 22.3281 560.664 22.3281V20.3281ZM556.059 30.168H565.27V28.168H556.059V30.168ZM580.387 3.01172V2.01172H579.387V3.01172H580.387ZM590.301 3.01172H591.301V2.01172H590.301V3.01172ZM590.301 51V52H591.301V51H590.301ZM580.387 51H579.387V52H580.387V51ZM580.387 4.01172H590.301V2.01172H580.387V4.01172ZM589.301 3.01172V51H591.301V3.01172H589.301ZM590.301 50H580.387V52H590.301V50ZM581.387 51V3.01172H579.387V51H581.387ZM613.75 24.0703L612.816 24.4275L612.821 24.4393L613.75 24.0703ZM607.281 23.9648L608.197 24.3657L608.2 24.3605L607.281 23.9648ZM613.82 42.3164L614.764 42.6485L614.765 42.6444L613.82 42.3164ZM623.93 33.2461C623.93 39.3078 622.744 43.6699 620.537 46.5005C618.368 49.2836 615.09 50.7383 610.516 50.7383V52.7383C615.55 52.7383 619.48 51.1109 622.115 47.73C624.713 44.3965 625.93 39.5125 625.93 33.2461H623.93ZM610.516 50.7383C605.928 50.7383 602.642 49.283 600.467 46.4995C598.255 43.6691 597.066 39.3074 597.066 33.2461H595.066C595.066 39.513 596.286 44.3973 598.891 47.7309C601.532 51.1115 605.47 52.7383 610.516 52.7383V50.7383ZM597.066 33.2461C597.066 27.1969 598.255 22.8442 600.466 20.0197C602.641 17.2419 605.928 15.7891 610.516 15.7891V13.7891C605.471 13.7891 601.533 15.4124 598.891 18.7869C596.286 22.1148 595.066 26.9906 595.066 33.2461H597.066ZM610.516 15.7891C615.091 15.7891 618.369 17.2412 620.538 20.0188C622.744 22.8434 623.93 27.1965 623.93 33.2461H625.93C625.93 26.991 624.713 22.1156 622.114 18.7878C619.479 15.4131 615.549 13.7891 610.516 13.7891V15.7891ZM615.699 33.2461C615.699 30.9644 615.62 29.032 615.457 27.4567C615.295 25.8961 615.046 24.6256 614.679 23.7013L612.821 24.4393C613.086 25.1088 613.312 26.1645 613.467 27.6625C613.621 29.1458 613.699 31.0044 613.699 33.2461H615.699ZM614.684 23.7132C614.33 22.7862 613.808 22.0124 613.079 21.4732C612.342 20.9286 611.469 20.6797 610.516 20.6797V22.6797C611.109 22.6797 611.549 22.8292 611.89 23.0815C612.239 23.3392 612.561 23.7607 612.816 24.4274L614.684 23.7132ZM610.516 20.6797C609.588 20.6797 608.735 20.9183 608.005 21.4343C607.281 21.9455 606.745 22.6814 606.363 23.5692L608.2 24.3605C608.473 23.7248 608.805 23.3182 609.159 23.0677C609.507 22.8219 609.943 22.6797 610.516 22.6797V20.6797ZM606.365 23.564C605.974 24.4579 605.716 25.7302 605.549 27.3047C605.379 28.8994 605.297 30.8828 605.297 33.2461H607.297C607.297 30.9219 607.378 29.0147 607.537 27.5156C607.699 25.9964 607.932 24.9718 608.197 24.3657L606.365 23.564ZM605.297 33.2461C605.297 37.579 605.573 40.7394 606.192 42.5975L608.089 41.965C607.584 40.4481 607.297 37.5851 607.297 33.2461H605.297ZM606.192 42.5975C606.52 43.583 607.043 44.407 607.806 44.9797C608.574 45.5558 609.5 45.8125 610.516 45.8125V43.8125C609.844 43.8125 609.363 43.6474 609.006 43.3797C608.645 43.1087 608.323 42.667 608.089 41.965L606.192 42.5975ZM610.516 45.8125C611.503 45.8125 612.405 45.5551 613.157 44.9864C613.903 44.423 614.423 43.6147 614.764 42.6485L612.877 41.9843C612.631 42.6822 612.308 43.1219 611.952 43.3905C611.603 43.6539 611.145 43.8125 610.516 43.8125V45.8125ZM614.765 42.6444C615.412 40.7803 615.699 37.602 615.699 33.2461H613.699C613.699 37.609 613.4 40.4775 612.876 41.9884L614.765 42.6444ZM630.695 15.4922V14.4922H629.695V15.4922H630.695ZM639.836 15.4922H640.836V14.4922H639.836V15.4922ZM639.836 20.8008H638.836L640.728 21.2523L639.836 20.8008ZM656.043 19.3945L655.24 19.9904L655.242 19.9935L656.043 19.3945ZM640.434 48.3633L641.194 47.7139L639.434 45.6523V48.3633H640.434ZM640.434 63.0234V64.0234H641.434V63.0234H640.434ZM630.695 63.0234H629.695V64.0234H630.695V63.0234ZM641.242 43.125L640.356 43.5883L640.362 43.6004L640.369 43.6124L641.242 43.125ZM641.734 23.0156L642.477 23.6856L642.485 23.6767L641.734 23.0156ZM630.695 16.4922H639.836V14.4922H630.695V16.4922ZM638.836 15.4922V20.8008H640.836V15.4922H638.836ZM640.728 21.2523C642.554 17.6444 644.954 16.0352 647.922 16.0352V14.0352C643.999 14.0352 641.008 16.2697 638.944 20.3492L640.728 21.2523ZM647.922 16.0352C650.825 16.0352 653.248 17.3059 655.24 19.9904L656.846 18.7987C654.525 15.6707 651.535 14.0352 647.922 14.0352V16.0352ZM655.242 19.9935C657.209 22.6228 658.277 26.7824 658.277 32.6484H660.277C660.277 26.6082 659.19 21.9319 656.844 18.7956L655.242 19.9935ZM658.277 32.6484C658.277 38.7996 657.231 43.2661 655.281 46.1914L656.945 47.3008C659.214 43.8979 660.277 38.966 660.277 32.6484H658.277ZM655.281 46.1914C653.358 49.0757 650.707 50.4922 647.219 50.4922V52.4922C651.372 52.4922 654.649 50.7446 656.945 47.3008L655.281 46.1914ZM647.219 50.4922C644.769 50.4922 642.785 49.5774 641.194 47.7139L639.673 49.0127C641.644 51.321 644.184 52.4922 647.219 52.4922V50.4922ZM639.434 48.3633V63.0234H641.434V48.3633H639.434ZM640.434 62.0234H630.695V64.0234H640.434V62.0234ZM631.695 63.0234V15.4922H629.695V63.0234H631.695ZM639.434 36.4805C639.434 38.2015 639.502 39.6488 639.643 40.8112C639.782 41.9492 640 42.9079 640.356 43.5883L642.128 42.6617C641.945 42.3109 641.759 41.6465 641.628 40.5696C641.5 39.5172 641.434 38.1578 641.434 36.4805H639.434ZM640.369 43.6124C641.183 45.0707 642.752 45.6367 644.617 45.6367V43.6367C643.107 43.6367 642.426 43.1949 642.115 42.6376L640.369 43.6124ZM644.617 45.6367C645.523 45.6367 646.362 45.4298 647.098 44.9805C647.833 44.532 648.407 43.8772 648.839 43.069L647.075 42.1263C646.78 42.6775 646.435 43.0422 646.056 43.2734C645.679 43.5038 645.211 43.6367 644.617 43.6367V45.6367ZM648.839 43.069C649.299 42.2083 649.585 40.8791 649.768 39.2181C649.956 37.5206 650.047 35.3504 650.047 32.7188H648.047C648.047 35.3137 647.956 37.4032 647.78 38.9987C647.6 40.6306 647.342 41.6277 647.075 42.1263L648.839 43.069ZM650.047 32.7188C650.047 30.5183 649.967 28.652 649.804 27.1278C649.642 25.6183 649.393 24.3837 649.023 23.4807L647.172 24.238C647.436 24.8819 647.661 25.8973 647.815 27.3409C647.968 28.7699 648.047 30.5598 648.047 32.7188H650.047ZM649.023 23.4807C648.655 22.5808 648.13 21.8315 647.41 21.3096C646.683 20.7824 645.829 20.5391 644.898 20.5391V22.5391C645.468 22.5391 645.897 22.6825 646.236 22.9286C646.583 23.1802 646.907 23.5911 647.172 24.238L649.023 23.4807ZM644.898 20.5391C643.351 20.5391 642.029 21.1684 640.984 22.3546L642.485 23.6767C643.174 22.8941 643.961 22.5391 644.898 22.5391V20.5391ZM640.992 22.3457C640.374 23.0299 640.005 24.0501 639.777 25.2346C639.543 26.446 639.434 27.9629 639.434 29.7656H641.434C641.434 28.0293 641.541 26.6517 641.741 25.6131C641.946 24.5475 642.227 23.9623 642.477 23.6856L640.992 22.3457ZM639.434 29.7656V36.4805H641.434V29.7656H639.434ZM692.395 34.8984V35.8984H693.395V34.8984H692.395ZM673.762 34.8984V33.8984H672.762V34.8984H673.762ZM683.57 38.8008L683.634 37.8028L682.664 37.741L682.575 38.7087L683.57 38.8008ZM692.395 39.3633L693.377 39.5503L693.589 38.4374L692.458 38.3653L692.395 39.3633ZM667.504 19.6758L666.731 19.0416L666.73 19.0422L667.504 19.6758ZM688.316 19.1133L687.586 19.7963L687.592 19.8023L688.316 19.1133ZM683.043 29.168V30.168H683.989L684.041 29.2234L683.043 29.168ZM673.832 29.168L672.832 29.1635L672.828 30.168H673.832V29.168ZM692.395 33.8984H673.762V35.8984H692.395V33.8984ZM672.762 34.8984V36.8672H674.762V34.8984H672.762ZM672.762 36.8672C672.762 38.5 672.872 39.9021 673.107 41.0566C673.339 42.1988 673.708 43.1775 674.283 43.8924L675.842 42.6389C675.55 42.2756 675.268 41.6489 675.067 40.6582C674.868 39.6799 674.762 38.4218 674.762 36.8672H672.762ZM674.283 43.8924C675.344 45.211 676.769 45.8828 678.473 45.8828V43.8828C677.363 43.8828 676.515 43.4765 675.842 42.6389L674.283 43.8924ZM678.473 45.8828C680.233 45.8828 681.713 45.2789 682.781 44.0047C683.814 42.7718 684.369 41.0209 684.566 38.8929L682.575 38.7087C682.396 40.6354 681.914 41.9254 681.248 42.7199C680.617 43.473 679.736 43.8828 678.473 43.8828V45.8828ZM683.507 39.7988L692.331 40.3613L692.458 38.3653L683.634 37.8028L683.507 39.7988ZM691.412 39.1763C690.654 43.1572 689.165 46.0208 687.033 47.893C684.908 49.758 682.032 50.7383 678.297 50.7383V52.7383C682.39 52.7383 685.777 51.6561 688.352 49.3961C690.919 47.1432 692.564 43.8194 693.377 39.5503L691.412 39.1763ZM678.297 50.7383C673.718 50.7383 670.37 49.2089 668.085 46.2416L666.501 47.4615C669.232 51.0099 673.219 52.7383 678.297 52.7383V50.7383ZM668.085 46.2416C665.75 43.2083 664.531 39.086 664.531 33.7734H662.531C662.531 39.3828 663.82 43.9792 666.501 47.4615L668.085 46.2416ZM664.531 33.7734C664.531 27.7343 665.831 23.2973 668.278 20.3093L666.73 19.0422C663.88 22.523 662.531 27.4844 662.531 33.7734H664.531ZM668.277 20.3099C670.746 17.2998 674.028 15.7891 678.227 15.7891V13.7891C673.472 13.7891 669.606 15.5361 666.731 19.0416L668.277 20.3099ZM678.227 15.7891C681.988 15.7891 685.084 17.1205 687.586 19.7962L689.047 18.4303C686.158 15.3404 682.528 13.7891 678.227 13.7891V15.7891ZM687.592 19.8023C690.028 22.3648 691.395 27.2796 691.395 34.8984H693.395C693.395 27.1892 692.042 21.5805 689.041 18.4242L687.592 19.8023ZM684.041 29.2234C684.065 28.7952 684.078 28.4456 684.078 28.1836H682.078C682.078 28.3904 682.068 28.697 682.045 29.1125L684.041 29.2234ZM684.078 28.1836C684.078 25.8169 683.683 23.866 682.746 22.4814C681.762 21.0273 680.269 20.3281 678.438 20.3281V22.3281C679.7 22.3281 680.527 22.7716 681.09 23.6026C681.7 24.5032 682.078 25.9799 682.078 28.1836H684.078ZM678.438 20.3281C676.562 20.3281 675.087 21.1672 674.139 22.7816C673.238 24.3143 672.844 26.4855 672.832 29.1635L674.832 29.1725C674.843 26.6239 675.228 24.8752 675.863 23.7946C676.45 22.7957 677.266 22.3281 678.438 22.3281V20.3281ZM673.832 30.168H683.043V28.168H673.832V30.168ZM698.195 15.4922V14.4922H697.195V15.4922H698.195ZM706.914 15.4922H707.914V14.4922H706.914V15.4922ZM706.914 24.0703H705.914L707.882 24.3226L706.914 24.0703ZM717.004 15.2109H718.004V14.3791L717.186 14.2277L717.004 15.2109ZM717.004 24.8789L716.876 25.8707L718.004 26.0162V24.8789H717.004ZM708.109 51V52H709.109V51H708.109ZM698.195 51H697.195V52H698.195V51ZM698.195 16.4922H706.914V14.4922H698.195V16.4922ZM705.914 15.4922V24.0703H707.914V15.4922H705.914ZM707.882 24.3226C708.645 21.3956 709.68 19.3131 710.925 17.9749C712.14 16.6679 713.585 16.0352 715.316 16.0352V14.0352C713.017 14.0352 711.045 14.9083 709.46 16.6129C707.904 18.2866 706.754 20.7216 705.946 23.818L707.882 24.3226ZM715.316 16.0352C715.732 16.0352 716.232 16.085 716.822 16.1942L717.186 14.2277C716.51 14.1025 715.885 14.0352 715.316 14.0352V16.0352ZM716.004 15.2109V24.8789H718.004V15.2109H716.004ZM717.132 23.8871C716.395 23.792 715.793 23.7383 715.352 23.7383V25.7383C715.661 25.7383 716.16 25.7783 716.876 25.8707L717.132 23.8871ZM715.352 23.7383C712.642 23.7383 710.499 24.7888 709.085 26.9295C707.72 28.9974 707.109 31.9725 707.109 35.707H709.109C709.109 32.1291 709.706 29.6198 710.754 28.0315C711.755 26.5158 713.233 25.7383 715.352 25.7383V23.7383ZM707.109 35.707V51H709.109V35.707H707.109ZM708.109 50H698.195V52H708.109V50ZM699.195 51V15.4922H697.195V51H699.195ZM727.691 19.5L727.552 20.4903L728.687 20.6498L728.691 19.5041L727.691 19.5ZM718.691 18.2344L717.692 18.2147L717.674 19.1012L718.552 19.2246L718.691 18.2344ZM722.629 6.70312L723.386 7.35691L723.388 7.35392L722.629 6.70312ZM745.938 22.7695L746.804 23.268L746.807 23.2634L745.938 22.7695ZM740.488 28.9922L739.823 28.2452L739.821 28.2475L740.488 28.9922ZM737.184 32.6836L736.279 32.2566L736.274 32.2678L737.184 32.6836ZM736.621 37.2539V38.2539H737.621V37.2539H736.621ZM728.184 37.2539H727.184V38.2539H728.184V37.2539ZM728.641 29.3789L727.671 29.1322L727.668 29.1449L728.641 29.3789ZM732.297 24.3516L731.599 23.635L731.598 23.6366L732.297 24.3516ZM735.918 19.957L735.041 19.477L735.037 19.4829L735.918 19.957ZM727.691 40.7695V39.7695H726.691V40.7695H727.691ZM737.113 40.7695H738.113V39.7695H737.113V40.7695ZM737.113 51V52H738.113V51H737.113ZM727.691 51H726.691V52H727.691V51ZM727.831 18.5097L718.831 17.2441L718.552 19.2246L727.552 20.4903L727.831 18.5097ZM719.691 18.2541C719.781 13.6743 721.039 10.0723 723.386 7.3569L721.872 6.04935C719.156 9.19329 717.789 13.2789 717.692 18.2147L719.691 18.2541ZM723.388 7.35392C725.691 4.66671 728.986 3.27344 733.422 3.27344V1.27344C728.53 1.27344 724.629 2.83329 721.87 6.05233L723.388 7.35392ZM733.422 3.27344C738.172 3.27344 741.419 4.57035 743.412 6.95725L744.947 5.67557C742.44 2.67183 738.516 1.27344 733.422 1.27344V3.27344ZM743.412 6.95725C745.508 9.4686 746.555 12.3811 746.555 15.7383H748.555C748.555 11.9236 747.351 8.55484 744.947 5.67557L743.412 6.95725ZM746.555 15.7383C746.555 18.4013 746.04 20.564 745.068 22.2757L746.807 23.2634C747.991 21.1782 748.555 18.6534 748.555 15.7383H746.555ZM745.071 22.2711C744.068 24.0149 742.339 26.0067 739.823 28.2452L741.153 29.7392C743.747 27.4308 745.651 25.2741 746.804 23.268L745.071 22.2711ZM739.821 28.2475C738.903 29.0703 738.147 29.809 737.564 30.4609C736.99 31.1019 736.54 31.7051 736.279 32.2566L738.088 33.1106C738.226 32.8184 738.526 32.3845 739.054 31.7949C739.572 31.2164 740.269 30.5312 741.156 29.7369L739.821 28.2475ZM736.274 32.2678C735.798 33.3085 735.621 35.0356 735.621 37.2539H737.621C737.621 35.0191 737.819 33.6993 738.093 33.0994L736.274 32.2678ZM736.621 36.2539H728.184V38.2539H736.621V36.2539ZM729.184 37.2539V35.6719H727.184V37.2539H729.184ZM729.184 35.6719C729.184 32.748 729.338 30.7538 729.613 29.613L727.668 29.1449C727.334 30.5352 727.184 32.7364 727.184 35.6719H729.184ZM729.61 29.6256C729.863 28.6295 730.894 27.1223 732.996 25.0666L731.598 23.6366C729.481 25.7058 728.074 27.5502 727.672 29.1322L729.61 29.6256ZM732.994 25.0682C734.778 23.332 736.07 21.7833 736.798 20.4311L735.037 19.4829C734.453 20.5683 733.331 21.9492 731.599 23.635L732.994 25.0682ZM736.795 20.437C737.571 19.0199 737.938 17.3713 737.938 15.5273H735.938C735.938 17.1053 735.625 18.4097 735.041 19.477L736.795 20.437ZM737.938 15.5273C737.938 13.7926 737.482 12.3111 736.393 11.2841L735.021 12.7393C735.572 13.2592 735.938 14.1214 735.938 15.5273H737.938ZM736.393 11.2841C735.392 10.3403 734.187 9.85156 732.824 9.85156V11.8516C733.664 11.8516 734.381 12.1363 735.021 12.7393L736.393 11.2841ZM732.824 9.85156C730.778 9.85156 729.171 10.7532 728.132 12.5033C727.142 14.1721 726.703 16.5473 726.691 19.4959L728.691 19.5041C728.703 16.6871 729.132 14.7381 729.852 13.524C730.524 12.3913 731.472 11.8516 732.824 11.8516V9.85156ZM727.691 41.7695H737.113V39.7695H727.691V41.7695ZM736.113 40.7695V51H738.113V40.7695H736.113ZM737.113 50H727.691V52H737.113V50ZM728.691 51V40.7695H726.691V51H728.691Z" fill="#F5F5F5"/>
</svg>
