<svg width="807" height="65" viewBox="0 0 807 65" fill="none" xmlns="http://www.w3.org/2000/svg">
<path d="M1.21484 2.01172H12.5703C17.4922 2.01172 21.4883 2.67969 24.5586 4.01562C27.6523 5.32812 30.125 7.76563 31.9766 11.3281C33.8281 14.8906 34.7539 19.707 34.7539 25.7773C34.7539 30.0898 34.1914 33.9219 33.0664 37.2734C31.9414 40.6016 30.4648 43.2266 28.6367 45.1484C26.8086 47.0703 24.7461 48.3594 22.4492 49.0156C20.1523 49.6719 17.2812 50 13.8359 50H1.21484V2.01172ZM11.7617 10.2383V41.7383H13.5547C15.9922 41.7383 17.8789 41.2695 19.2148 40.332C20.5508 39.3945 21.6172 37.7656 22.4141 35.4453C23.2109 33.1016 23.6094 29.7266 23.6094 25.3203C23.6094 21.2422 23.1641 18.1016 22.2734 15.8984C21.4062 13.6953 20.3047 12.207 18.9688 11.4336C17.6562 10.6367 15.8516 10.2383 13.5547 10.2383H11.7617ZM68.1875 32.2461C68.1875 44.5742 63.3828 50.7383 53.7734 50.7383C44.1406 50.7383 39.3242 44.5742 39.3242 32.2461C39.3242 19.9414 44.1406 13.7891 53.7734 13.7891C63.3828 13.7891 68.1875 19.9414 68.1875 32.2461ZM57.957 32.2461C57.957 27.7227 57.6406 24.6641 57.0078 23.0703C56.3984 21.4766 55.3203 20.6797 53.7734 20.6797C52.2734 20.6797 51.1953 21.4414 50.5391 22.9648C49.8828 24.4648 49.5547 27.5586 49.5547 32.2461C49.5547 36.582 49.8359 39.5938 50.3984 41.2812C50.9609 42.9688 52.0859 43.8125 53.7734 43.8125C55.3906 43.8125 56.4922 42.9805 57.0781 41.3164C57.6641 39.6289 57.957 36.6055 57.957 32.2461ZM82.7422 14.4922H92.6562L97.4375 36.1836L102.043 14.4922H110.586L99.8984 50.5625C98.8672 54.0078 97.9883 56.4219 97.2617 57.8047C96.5352 59.1875 95.4453 60.3242 93.9922 61.2148C92.5391 62.1289 90.6875 62.5859 88.4375 62.5859C87.0547 62.5859 85.6484 62.3984 84.2188 62.0234V54.2188C85.2031 54.3594 86.1289 54.4297 86.9961 54.4297C88.918 54.4297 90.2305 54.1133 90.9336 53.4805C91.6602 52.8477 92.3398 51.4648 92.9727 49.332L82.7422 14.4922ZM140.328 32.2461C140.328 44.5742 135.523 50.7383 125.914 50.7383C116.281 50.7383 111.465 44.5742 111.465 32.2461C111.465 19.9414 116.281 13.7891 125.914 13.7891C135.523 13.7891 140.328 19.9414 140.328 32.2461ZM130.098 32.2461C130.098 27.7227 129.781 24.6641 129.148 23.0703C128.539 21.4766 127.461 20.6797 125.914 20.6797C124.414 20.6797 123.336 21.4414 122.68 22.9648C122.023 24.4648 121.695 27.5586 121.695 32.2461C121.695 36.582 121.977 39.5938 122.539 41.2812C123.102 42.9688 124.227 43.8125 125.914 43.8125C127.531 43.8125 128.633 42.9805 129.219 41.3164C129.805 39.6289 130.098 36.6055 130.098 32.2461ZM145.602 14.4922H155.516V37.2734C155.516 39.5703 155.727 41.1055 156.148 41.8789C156.57 42.6523 157.484 43.0391 158.891 43.0391C160.18 43.0391 161.152 42.7227 161.809 42.0898C162.488 41.457 162.898 40.5898 163.039 39.4883C163.18 38.3633 163.25 36.0664 163.25 32.5977V14.4922H173.164V50H163.848V45.1484C162.441 47.5625 161.035 49.0977 159.629 49.7539C158.246 50.4102 156.605 50.7383 154.707 50.7383C152.152 50.7383 150.195 50.2109 148.836 49.1562C147.477 48.1016 146.598 46.7656 146.199 45.1484C145.801 43.5312 145.602 41.0117 145.602 37.5898V14.4922ZM193.906 2.01172H203.82V18.2539C205.602 15.2539 208.508 13.7539 212.539 13.7539C214.953 13.7539 216.852 14.3164 218.234 15.4414C219.641 16.5664 220.531 17.9961 220.906 19.7305C221.281 21.4414 221.469 23.9375 221.469 27.2188V50H211.555V27.2188C211.555 24.8984 211.332 23.3633 210.887 22.6133C210.465 21.8398 209.574 21.4531 208.215 21.4531C206.879 21.4531 205.812 21.8164 205.016 22.543C204.219 23.2695 203.82 24.9219 203.82 27.5V50H193.906V2.01172ZM237.781 25.7773L228.395 24.8633C228.84 21.3008 230.352 18.5586 232.93 16.6367C235.531 14.7148 238.801 13.7539 242.738 13.7539C246.066 13.7539 248.738 14.3984 250.754 15.6875C252.77 16.9531 254.035 18.4297 254.551 20.1172C255.09 21.8047 255.359 24.418 255.359 27.957V42.125C255.359 46.5312 255.559 49.1562 255.957 50H246.781C246.453 49.0391 246.289 47.2227 246.289 44.5508C244.109 48.6758 240.863 50.7383 236.551 50.7383C233.785 50.7383 231.535 49.918 229.801 48.2773C228.066 46.6133 227.199 44.1992 227.199 41.0352C227.199 37.0742 228.512 34.0156 231.137 31.8594C233.762 29.6797 238.543 28.3789 245.48 27.957V26.6211C245.48 24.2539 245.234 22.6133 244.742 21.6992C244.273 20.7852 243.348 20.3281 241.965 20.3281C239.434 20.3281 238.039 22.1445 237.781 25.7773ZM245.48 33.0195C242.598 33.3477 240.535 33.9922 239.293 34.9531C238.074 35.8906 237.465 37.4844 237.465 39.7344C237.465 42.7344 238.566 44.2344 240.77 44.2344C241.965 44.2344 243.043 43.5664 244.004 42.2305C244.988 40.8711 245.48 38.3867 245.48 34.7773V33.0195ZM258.031 14.4922H267.559L272.445 35.4805L277.402 14.4922H285.629L275.891 50H268.051L258.031 14.4922ZM315.582 33.8984H296.949V35.8672C296.949 39.0547 297.383 41.1875 298.25 42.2656C299.117 43.3438 300.254 43.8828 301.66 43.8828C304.684 43.8828 306.383 41.8555 306.758 37.8008L315.582 38.3633C314.012 46.6133 309.312 50.7383 301.484 50.7383C296.656 50.7383 292.988 49.1094 290.48 45.8516C287.973 42.5938 286.719 38.2344 286.719 32.7734C286.719 26.6094 288.043 21.9102 290.691 18.6758C293.363 15.418 296.938 13.7891 301.414 13.7891C305.445 13.7891 308.809 15.2305 311.504 18.1133C314.223 20.9727 315.582 26.2344 315.582 33.8984ZM306.23 28.168C306.254 27.7461 306.266 27.418 306.266 27.1836C306.266 22.6133 304.719 20.3281 301.625 20.3281C298.578 20.3281 297.043 22.9414 297.02 28.168H306.23ZM344.305 25.7773L334.918 24.8633C335.363 21.3008 336.875 18.5586 339.453 16.6367C342.055 14.7148 345.324 13.7539 349.262 13.7539C352.59 13.7539 355.262 14.3984 357.277 15.6875C359.293 16.9531 360.559 18.4297 361.074 20.1172C361.613 21.8047 361.883 24.418 361.883 27.957V42.125C361.883 46.5312 362.082 49.1562 362.48 50H353.305C352.977 49.0391 352.812 47.2227 352.812 44.5508C350.633 48.6758 347.387 50.7383 343.074 50.7383C340.309 50.7383 338.059 49.918 336.324 48.2773C334.59 46.6133 333.723 44.1992 333.723 41.0352C333.723 37.0742 335.035 34.0156 337.66 31.8594C340.285 29.6797 345.066 28.3789 352.004 27.957V26.6211C352.004 24.2539 351.758 22.6133 351.266 21.6992C350.797 20.7852 349.871 20.3281 348.488 20.3281C345.957 20.3281 344.562 22.1445 344.305 25.7773ZM352.004 33.0195C349.121 33.3477 347.059 33.9922 345.816 34.9531C344.598 35.8906 343.988 37.4844 343.988 39.7344C343.988 42.7344 345.09 44.2344 347.293 44.2344C348.488 44.2344 349.566 43.5664 350.527 42.2305C351.512 40.8711 352.004 38.3867 352.004 34.7773V33.0195ZM382.625 14.4922H391.766V19.8008C393.711 15.957 396.406 14.0352 399.852 14.0352C403.109 14.0352 405.816 15.4883 407.973 18.3945C410.129 21.2773 411.207 25.6953 411.207 31.6484C411.207 37.8828 410.152 42.582 408.043 45.7461C405.934 48.9102 402.969 50.4922 399.148 50.4922C396.406 50.4922 394.145 49.4492 392.363 47.3633V62.0234H382.625V14.4922ZM392.363 35.4805C392.363 38.8789 392.633 41.0938 393.172 42.125C393.734 43.1328 394.859 43.6367 396.547 43.6367C398.047 43.6367 399.16 42.957 399.887 41.5977C400.613 40.2383 400.977 36.9453 400.977 31.7188C400.977 27.3594 400.66 24.4062 400.027 22.8594C399.395 21.3125 398.328 20.5391 396.828 20.5391C395.586 20.5391 394.531 21.0312 393.664 22.0156C392.797 22.9766 392.363 25.2266 392.363 28.7656V35.4805ZM417.008 14.4922H425.727V23.0703C427.297 17.0469 430.098 14.0352 434.129 14.0352C434.621 14.0352 435.184 14.0938 435.816 14.2109V23.8789C435.09 23.7852 434.539 23.7383 434.164 23.7383C429.336 23.7383 426.922 27.3945 426.922 34.707V50H417.008V14.4922ZM467.141 32.2461C467.141 44.5742 462.336 50.7383 452.727 50.7383C443.094 50.7383 438.277 44.5742 438.277 32.2461C438.277 19.9414 443.094 13.7891 452.727 13.7891C462.336 13.7891 467.141 19.9414 467.141 32.2461ZM456.91 32.2461C456.91 27.7227 456.594 24.6641 455.961 23.0703C455.352 21.4766 454.273 20.6797 452.727 20.6797C451.227 20.6797 450.148 21.4414 449.492 22.9648C448.836 24.4648 448.508 27.5586 448.508 32.2461C448.508 36.582 448.789 39.5938 449.352 41.2812C449.914 42.9688 451.039 43.8125 452.727 43.8125C454.344 43.8125 455.445 42.9805 456.031 41.3164C456.617 39.6289 456.91 36.6055 456.91 32.2461ZM483.207 11.5742H473.152V1.76562H483.207V11.5742ZM473.223 14.4922H483.137V48.8398C483.137 52.4961 482.938 55.2383 482.539 57.0664C482.141 58.8945 481.191 60.3359 479.691 61.3906C478.191 62.4688 476.281 63.0078 473.961 63.0078C472.484 63.0078 470.715 62.8438 468.652 62.5156V54.3945C469.145 54.4648 469.578 54.5 469.953 54.5C471.406 54.5 472.309 54.1367 472.66 53.4102C473.035 52.6836 473.223 51.0664 473.223 48.5586V14.4922ZM517.379 33.8984H498.746V35.8672C498.746 39.0547 499.18 41.1875 500.047 42.2656C500.914 43.3438 502.051 43.8828 503.457 43.8828C506.48 43.8828 508.18 41.8555 508.555 37.8008L517.379 38.3633C515.809 46.6133 511.109 50.7383 503.281 50.7383C498.453 50.7383 494.785 49.1094 492.277 45.8516C489.77 42.5938 488.516 38.2344 488.516 32.7734C488.516 26.6094 489.84 21.9102 492.488 18.6758C495.16 15.418 498.734 13.7891 503.211 13.7891C507.242 13.7891 510.605 15.2305 513.301 18.1133C516.02 20.9727 517.379 26.2344 517.379 33.8984ZM508.027 28.168C508.051 27.7461 508.062 27.418 508.062 27.1836C508.062 22.6133 506.516 20.3281 503.422 20.3281C500.375 20.3281 498.84 22.9414 498.816 28.168H508.027ZM549.688 27.5703L540.477 27.9219C540.336 25.7422 539.984 24.1016 539.422 23C538.859 21.875 537.91 21.3125 536.574 21.3125C533.246 21.3125 531.582 24.8047 531.582 31.7891C531.582 35.8438 531.98 38.6797 532.777 40.2969C533.598 41.9141 534.805 42.7227 536.398 42.7227C538.883 42.7227 540.242 40.5312 540.477 36.1484L549.688 36.7461C548.867 46.0742 544.227 50.7383 535.766 50.7383C531.195 50.7383 527.691 49.2031 525.254 46.1328C522.84 43.0391 521.633 38.4453 521.633 32.3516C521.633 26.3047 522.898 21.6992 525.43 18.5352C527.984 15.3711 531.559 13.7891 536.152 13.7891C544.449 13.7891 548.961 18.3828 549.688 27.5703ZM556.578 3.59375L566.211 3.27734V14.4922H572.75V22.2969H566.211V35.3398C566.211 37.7539 566.258 39.3242 566.352 40.0508C566.469 40.7539 566.82 41.3516 567.406 41.8438C568.016 42.3125 569.023 42.5469 570.43 42.5469C571.18 42.5469 572.117 42.5234 573.242 42.4766V50C571.039 50.4922 569.023 50.7383 567.195 50.7383C564.195 50.7383 561.898 50.1641 560.305 49.0156C558.711 47.8672 557.691 46.4258 557.246 44.6914C556.801 42.957 556.578 40.2031 556.578 36.4297V22.2969H552.641V14.4922H556.578V3.59375ZM617.961 32.2461C617.961 44.5742 613.156 50.7383 603.547 50.7383C593.914 50.7383 589.098 44.5742 589.098 32.2461C589.098 19.9414 593.914 13.7891 603.547 13.7891C613.156 13.7891 617.961 19.9414 617.961 32.2461ZM607.73 32.2461C607.73 27.7227 607.414 24.6641 606.781 23.0703C606.172 21.4766 605.094 20.6797 603.547 20.6797C602.047 20.6797 600.969 21.4414 600.312 22.9648C599.656 24.4648 599.328 27.5586 599.328 32.2461C599.328 36.582 599.609 39.5938 600.172 41.2812C600.734 42.9688 601.859 43.8125 603.547 43.8125C605.164 43.8125 606.266 42.9805 606.852 41.3164C607.438 39.6289 607.73 36.6055 607.73 32.2461ZM623.727 14.4922H632.445V23.0703C634.016 17.0469 636.816 14.0352 640.848 14.0352C641.34 14.0352 641.902 14.0938 642.535 14.2109V23.8789C641.809 23.7852 641.258 23.7383 640.883 23.7383C636.055 23.7383 633.641 27.3945 633.641 34.707V50H623.727V14.4922ZM669.184 11.5742H659.129V1.76562H669.184V11.5742ZM659.199 14.4922H669.113V50H659.199V14.4922ZM693.758 2.01172H703.496V50H694.32V44.1289C692.82 48.3711 690.125 50.4922 686.234 50.4922C682.414 50.4922 679.566 48.8281 677.691 45.5C675.816 42.1719 674.879 37.8008 674.879 32.3867C674.879 26.2227 675.945 21.6172 678.078 18.5703C680.234 15.5234 683.105 14 686.691 14C689.996 14 692.352 15.2656 693.758 17.7969V2.01172ZM693.758 29.3633C693.758 25.8711 693.383 23.5391 692.633 22.3672C691.906 21.1719 690.84 20.5742 689.434 20.5742C687.77 20.5742 686.633 21.3945 686.023 23.0352C685.438 24.6758 685.145 28.0742 685.145 33.2305C685.145 37.0742 685.473 39.7695 686.129 41.3164C686.785 42.8633 687.863 43.6367 689.363 43.6367C690.629 43.6367 691.672 43.1211 692.492 42.0898C693.336 41.0352 693.758 38.8906 693.758 35.6562V29.3633ZM738.09 33.8984H719.457V35.8672C719.457 39.0547 719.891 41.1875 720.758 42.2656C721.625 43.3438 722.762 43.8828 724.168 43.8828C727.191 43.8828 728.891 41.8555 729.266 37.8008L738.09 38.3633C736.52 46.6133 731.82 50.7383 723.992 50.7383C719.164 50.7383 715.496 49.1094 712.988 45.8516C710.48 42.5938 709.227 38.2344 709.227 32.7734C709.227 26.6094 710.551 21.9102 713.199 18.6758C715.871 15.418 719.445 13.7891 723.922 13.7891C727.953 13.7891 731.316 15.2305 734.012 18.1133C736.73 20.9727 738.09 26.2344 738.09 33.8984ZM728.738 28.168C728.762 27.7461 728.773 27.418 728.773 27.1836C728.773 22.6133 727.227 20.3281 724.133 20.3281C721.086 20.3281 719.551 22.9414 719.527 28.168H728.738ZM753.383 25.7773L743.996 24.8633C744.441 21.3008 745.953 18.5586 748.531 16.6367C751.133 14.7148 754.402 13.7539 758.34 13.7539C761.668 13.7539 764.34 14.3984 766.355 15.6875C768.371 16.9531 769.637 18.4297 770.152 20.1172C770.691 21.8047 770.961 24.418 770.961 27.957V42.125C770.961 46.5312 771.16 49.1562 771.559 50H762.383C762.055 49.0391 761.891 47.2227 761.891 44.5508C759.711 48.6758 756.465 50.7383 752.152 50.7383C749.387 50.7383 747.137 49.918 745.402 48.2773C743.668 46.6133 742.801 44.1992 742.801 41.0352C742.801 37.0742 744.113 34.0156 746.738 31.8594C749.363 29.6797 754.145 28.3789 761.082 27.957V26.6211C761.082 24.2539 760.836 22.6133 760.344 21.6992C759.875 20.7852 758.949 20.3281 757.566 20.3281C755.035 20.3281 753.641 22.1445 753.383 25.7773ZM761.082 33.0195C758.199 33.3477 756.137 33.9922 754.895 34.9531C753.676 35.8906 753.066 37.4844 753.066 39.7344C753.066 42.7344 754.168 44.2344 756.371 44.2344C757.566 44.2344 758.645 43.5664 759.605 42.2305C760.59 40.8711 761.082 38.3867 761.082 34.7773V33.0195ZM785.691 18.5L776.691 17.2344C776.785 12.4766 778.098 8.63281 780.629 5.70312C783.16 2.75 786.758 1.27344 791.422 1.27344C796.344 1.27344 799.93 2.62109 802.18 5.31641C804.43 8.01172 805.555 11.1523 805.555 14.7383C805.555 17.5273 805.016 19.8711 803.938 21.7695C802.859 23.6445 801.043 25.7188 798.488 27.9922C796.684 29.6094 795.582 30.8398 795.184 31.6836C794.809 32.5039 794.621 34.0273 794.621 36.2539H786.184V34.6719C786.184 31.7422 786.336 29.6445 786.641 28.3789C786.969 27.0898 788.188 25.4141 790.297 23.3516C792.055 21.6406 793.262 20.1758 793.918 18.957C794.598 17.7148 794.938 16.2383 794.938 14.5273C794.938 12.957 794.527 11.7852 793.707 11.0117C792.887 10.2383 791.926 9.85156 790.824 9.85156C787.426 9.85156 785.715 12.7344 785.691 18.5ZM785.691 39.7695H795.113V50H785.691V39.7695Z" fill="#F5F5F5" fill-opacity="0.5"/>
<path d="M1.21484 2.01172V1.01172H0.214844V2.01172H1.21484ZM24.5586 4.01562L24.1596 4.93262L24.168 4.93621L24.5586 4.01562ZM33.0664 37.2734L34.0137 37.5937L34.0144 37.5917L33.0664 37.2734ZM1.21484 50H0.214844V51H1.21484V50ZM11.7617 10.2383V9.23828H10.7617V10.2383H11.7617ZM11.7617 41.7383H10.7617V42.7383H11.7617V41.7383ZM22.4141 35.4453L23.3598 35.7701L23.3608 35.7672L22.4141 35.4453ZM22.2734 15.8984L21.3429 16.2647L21.3463 16.2732L22.2734 15.8984ZM18.9688 11.4336L18.4498 12.2884L18.4587 12.2938L18.4677 12.299L18.9688 11.4336ZM1.21484 3.01172H12.5703V1.01172H1.21484V3.01172ZM12.5703 3.01172C17.4139 3.01172 21.2599 3.67088 24.1596 4.93258L24.9576 3.09867C21.7167 1.6885 17.5705 1.01172 12.5703 1.01172V3.01172ZM24.168 4.93621C27.0081 6.14109 29.3231 8.39115 31.0893 11.7893L32.8639 10.867C30.9269 7.1401 28.2966 4.51516 24.9491 3.09504L24.168 4.93621ZM31.0893 11.7893C32.8385 15.1549 33.7539 19.7924 33.7539 25.7773H35.7539C35.7539 19.6217 34.8178 14.6263 32.8639 10.867L31.0893 11.7893ZM33.7539 25.7773C33.7539 30.0046 33.2024 33.7259 32.1184 36.9552L34.0144 37.5917C35.1805 34.1178 35.7539 30.1751 35.7539 25.7773H33.7539ZM32.1191 36.9532C31.0262 40.1862 29.6131 42.671 27.9122 44.4592L29.3613 45.8377C31.3166 43.7821 32.8566 41.0169 34.0137 37.5937L32.1191 36.9532ZM27.9122 44.4592C26.1931 46.2665 24.2814 47.4521 22.1745 48.0541L22.7239 49.9771C25.2108 49.2666 27.4241 47.8742 29.3613 45.8377L27.9122 44.4592ZM22.1745 48.0541C19.9968 48.6763 17.2256 49 13.8359 49V51C17.3369 51 20.3079 50.6675 22.7239 49.9771L22.1745 48.0541ZM13.8359 49H1.21484V51H13.8359V49ZM2.21484 50V2.01172H0.214844V50H2.21484ZM10.7617 10.2383V41.7383H12.7617V10.2383H10.7617ZM11.7617 42.7383H13.5547V40.7383H11.7617V42.7383ZM13.5547 42.7383C16.1019 42.7383 18.2207 42.2513 19.7893 41.1506L18.6404 39.5135C17.5371 40.2877 15.8825 40.7383 13.5547 40.7383V42.7383ZM19.7893 41.1506C21.3653 40.0446 22.527 38.195 23.3598 35.7701L21.4683 35.1205C20.7073 37.3362 19.7363 38.7444 18.6404 39.5135L19.7893 41.1506ZM23.3608 35.7672C24.2103 33.2688 24.6094 29.7646 24.6094 25.3203H22.6094C22.6094 29.6885 22.2116 32.9343 21.4673 35.1234L23.3608 35.7672ZM24.6094 25.3203C24.6094 21.1925 24.162 17.9019 23.2005 15.5236L21.3463 16.2732C22.1662 18.3013 22.6094 21.2919 22.6094 25.3203H24.6094ZM23.2039 15.5322C22.2959 13.2253 21.0812 11.5011 19.4698 10.5682L18.4677 12.299C19.5281 12.9129 20.5166 14.1653 21.3429 16.2647L23.2039 15.5322ZM19.4877 10.5788C17.9596 9.65102 15.9501 9.23828 13.5547 9.23828V11.2383C15.753 11.2383 17.3529 11.6224 18.4498 12.2884L19.4877 10.5788ZM13.5547 9.23828H11.7617V11.2383H13.5547V9.23828ZM57.0078 23.0703L56.0737 23.4275L56.0784 23.4393L57.0078 23.0703ZM50.5391 22.9648L51.4552 23.3657L51.4575 23.3605L50.5391 22.9648ZM57.0781 41.3164L58.0214 41.6485L58.0228 41.6444L57.0781 41.3164ZM67.1875 32.2461C67.1875 38.3078 66.0016 42.6699 63.7953 45.5005C61.6259 48.2836 58.3483 49.7383 53.7734 49.7383V51.7383C58.808 51.7383 62.7374 50.1109 65.3727 46.73C67.9711 43.3965 69.1875 38.5125 69.1875 32.2461H67.1875ZM53.7734 49.7383C49.186 49.7383 45.8994 48.283 43.7245 45.4995C41.5129 42.6691 40.3242 38.3074 40.3242 32.2461H38.3242C38.3242 38.513 39.5437 43.3973 42.1485 46.7309C44.79 50.1115 48.728 51.7383 53.7734 51.7383V49.7383ZM40.3242 32.2461C40.3242 26.1969 41.5128 21.8442 43.7239 19.0197C45.8986 16.2419 49.1853 14.7891 53.7734 14.7891V12.7891C48.7287 12.7891 44.7908 14.4124 42.1491 17.7869C39.5439 21.1148 38.3242 25.9906 38.3242 32.2461H40.3242ZM53.7734 14.7891C58.3489 14.7891 61.6267 16.2412 63.7958 19.0188C66.0017 21.8434 67.1875 26.1965 67.1875 32.2461H69.1875C69.1875 25.991 67.9709 21.1156 65.3721 17.7878C62.7366 14.4131 58.8073 12.7891 53.7734 12.7891V14.7891ZM58.957 32.2461C58.957 29.9644 58.8774 28.032 58.7144 26.4567C58.553 24.8961 58.3042 23.6256 57.9372 22.7013L56.0784 23.4393C56.3442 24.1088 56.5701 25.1645 56.725 26.6625C56.8785 28.1458 56.957 30.0044 56.957 32.2461H58.957ZM57.9419 22.7132C57.5874 21.7862 57.0661 21.0124 56.3366 20.4732C55.5998 19.9286 54.7267 19.6797 53.7734 19.6797V21.6797C54.3671 21.6797 54.8064 21.8292 55.1478 22.0815C55.4964 22.3392 55.8188 22.7607 56.0738 23.4274L57.9419 22.7132ZM53.7734 19.6797C52.846 19.6797 51.9931 19.9183 51.2628 20.4343C50.5392 20.9455 50.0031 21.6814 49.6206 22.5692L51.4575 23.3605C51.7313 22.7248 52.0624 22.3182 52.4169 22.0677C52.7647 21.8219 53.2008 21.6797 53.7734 21.6797V19.6797ZM49.6229 22.564C49.2318 23.4579 48.9733 24.7302 48.8064 26.3047C48.6372 27.8994 48.5547 29.8828 48.5547 32.2461H50.5547C50.5547 29.9219 50.6362 28.0147 50.7952 26.5156C50.9563 24.9964 51.1901 23.9718 51.4552 23.3657L49.6229 22.564ZM48.5547 32.2461C48.5547 36.579 48.8304 39.7394 49.4498 41.5975L51.3471 40.965C50.8415 39.4481 50.5547 36.5851 50.5547 32.2461H48.5547ZM49.4498 41.5975C49.7783 42.583 50.3004 43.407 51.0641 43.9797C51.8322 44.5558 52.7578 44.8125 53.7734 44.8125V42.8125C53.1016 42.8125 52.621 42.6474 52.2641 42.3797C51.9027 42.1087 51.5811 41.667 51.3471 40.965L49.4498 41.5975ZM53.7734 44.8125C54.7609 44.8125 55.6623 44.5551 56.4152 43.9864C57.1611 43.423 57.6812 42.6147 58.0214 41.6485L56.1349 40.9843C55.8892 41.6822 55.5654 42.1219 55.2098 42.3905C54.8611 42.6539 54.4032 42.8125 53.7734 42.8125V44.8125ZM58.0228 41.6444C58.6701 39.7803 58.957 36.602 58.957 32.2461H56.957C56.957 36.609 56.6581 39.4775 56.1335 40.9884L58.0228 41.6444ZM82.7422 14.4922V13.4922H81.4063L81.7827 14.7739L82.7422 14.4922ZM92.6562 14.4922L93.6328 14.2769L93.4598 13.4922H92.6562V14.4922ZM97.4375 36.1836L96.4609 36.3988L98.4157 36.3913L97.4375 36.1836ZM102.043 14.4922V13.4922H101.233L101.065 14.2845L102.043 14.4922ZM110.586 14.4922L111.545 14.7763L111.925 13.4922H110.586V14.4922ZM99.8984 50.5625L100.856 50.8493L100.857 50.8466L99.8984 50.5625ZM93.9922 61.2148L93.4696 60.3622L93.4597 60.3684L93.9922 61.2148ZM84.2188 62.0234H83.2188V62.795L83.965 62.9907L84.2188 62.0234ZM84.2188 54.2188L84.3602 53.2288L83.2188 53.0657V54.2188H84.2188ZM90.9336 53.4805L90.2768 52.7264L90.2707 52.7317L90.2646 52.7372L90.9336 53.4805ZM92.9727 49.332L93.9313 49.6165L94.0153 49.3335L93.9321 49.0503L92.9727 49.332ZM82.7422 15.4922H92.6562V13.4922H82.7422V15.4922ZM91.6797 14.7074L96.4609 36.3988L98.4141 35.9683L93.6328 14.2769L91.6797 14.7074ZM98.4157 36.3913L103.021 14.6999L101.065 14.2845L96.4593 35.9759L98.4157 36.3913ZM102.043 15.4922H110.586V13.4922H102.043V15.4922ZM109.627 14.2081L98.9396 50.2784L100.857 50.8466L111.545 14.7763L109.627 14.2081ZM98.9404 50.2758C97.9101 53.718 97.054 56.05 96.3765 57.3396L98.147 58.2698C98.9225 56.7937 99.8243 54.2976 100.856 50.8492L98.9404 50.2758ZM96.3765 57.3396C95.7412 58.5485 94.7836 59.5569 93.4696 60.3622L94.5147 62.0674C96.107 61.0915 97.3291 59.8265 98.147 58.2698L96.3765 57.3396ZM93.4597 60.3684C92.2085 61.1554 90.5565 61.5859 88.4375 61.5859V63.5859C90.8185 63.5859 92.8696 63.1024 94.5246 62.0613L93.4597 60.3684ZM88.4375 61.5859C87.146 61.5859 85.825 61.4109 84.4725 61.0562L83.965 62.9907C85.4719 63.386 86.9634 63.5859 88.4375 63.5859V61.5859ZM85.2188 62.0234V54.2188H83.2188V62.0234H85.2188ZM84.0773 55.2087C85.1019 55.3551 86.0753 55.4297 86.9961 55.4297V53.4297C86.1825 53.4297 85.3043 53.3637 84.3602 53.2288L84.0773 55.2087ZM86.9961 55.4297C88.9488 55.4297 90.6016 55.1246 91.6026 54.2238L90.2646 52.7372C89.8593 53.102 88.8872 53.4297 86.9961 53.4297V55.4297ZM91.5904 54.2346C92.096 53.7942 92.5183 53.1574 92.8857 52.4099C93.2586 51.6513 93.6053 50.7153 93.9313 49.6165L92.014 49.0476C91.7072 50.0816 91.3977 50.9034 91.0908 51.5276C90.7786 52.1629 90.4978 52.5339 90.2768 52.7264L91.5904 54.2346ZM93.9321 49.0503L83.7017 14.2104L81.7827 14.7739L92.0132 49.6138L93.9321 49.0503ZM129.148 23.0703L128.214 23.4275L128.219 23.4393L129.148 23.0703ZM122.68 22.9648L123.596 23.3657L123.598 23.3605L122.68 22.9648ZM129.219 41.3164L130.162 41.6485L130.163 41.6444L129.219 41.3164ZM139.328 32.2461C139.328 38.3078 138.142 42.6699 135.936 45.5005C133.767 48.2836 130.489 49.7383 125.914 49.7383V51.7383C130.949 51.7383 134.878 50.1109 137.513 46.73C140.112 43.3965 141.328 38.5125 141.328 32.2461H139.328ZM125.914 49.7383C121.327 49.7383 118.04 48.283 115.865 45.4995C113.654 42.6691 112.465 38.3074 112.465 32.2461H110.465C110.465 38.513 111.684 43.3973 114.289 46.7309C116.931 50.1115 120.869 51.7383 125.914 51.7383V49.7383ZM112.465 32.2461C112.465 26.1969 113.653 21.8442 115.865 19.0197C118.039 16.2419 121.326 14.7891 125.914 14.7891V12.7891C120.869 12.7891 116.931 14.4124 114.29 17.7869C111.684 21.1148 110.465 25.9906 110.465 32.2461H112.465ZM125.914 14.7891C130.49 14.7891 133.767 16.2412 135.936 19.0188C138.142 21.8434 139.328 26.1965 139.328 32.2461H141.328C141.328 25.991 140.112 21.1156 137.513 17.7878C134.877 14.4131 130.948 12.7891 125.914 12.7891V14.7891ZM131.098 32.2461C131.098 29.9644 131.018 28.032 130.855 26.4567C130.694 24.8961 130.445 23.6256 130.078 22.7013L128.219 23.4393C128.485 24.1088 128.711 25.1645 128.866 26.6625C129.019 28.1458 129.098 30.0044 129.098 32.2461H131.098ZM130.082 22.7132C129.728 21.7862 129.207 21.0124 128.477 20.4732C127.74 19.9286 126.867 19.6797 125.914 19.6797V21.6797C126.508 21.6797 126.947 21.8292 127.288 22.0815C127.637 22.3392 127.959 22.7607 128.214 23.4274L130.082 22.7132ZM125.914 19.6797C124.987 19.6797 124.134 19.9183 123.403 20.4343C122.68 20.9455 122.144 21.6814 121.761 22.5692L123.598 23.3605C123.872 22.7248 124.203 22.3182 124.558 22.0677C124.905 21.8219 125.341 21.6797 125.914 21.6797V19.6797ZM121.764 22.564C121.372 23.4579 121.114 24.7302 120.947 26.3047C120.778 27.8994 120.695 29.8828 120.695 32.2461H122.695C122.695 29.9219 122.777 28.0147 122.936 26.5156C123.097 24.9964 123.331 23.9718 123.596 23.3657L121.764 22.564ZM120.695 32.2461C120.695 36.579 120.971 39.7394 121.59 41.5975L123.488 40.965C122.982 39.4481 122.695 36.5851 122.695 32.2461H120.695ZM121.59 41.5975C121.919 42.583 122.441 43.407 123.205 43.9797C123.973 44.5558 124.898 44.8125 125.914 44.8125V42.8125C125.242 42.8125 124.762 42.6474 124.405 42.3797C124.043 42.1087 123.722 41.667 123.488 40.965L121.59 41.5975ZM125.914 44.8125C126.902 44.8125 127.803 44.5551 128.556 43.9864C129.302 43.423 129.822 42.6147 130.162 41.6485L128.276 40.9843C128.03 41.6822 127.706 42.1219 127.35 42.3905C127.002 42.6539 126.544 42.8125 125.914 42.8125V44.8125ZM130.163 41.6444C130.811 39.7803 131.098 36.602 131.098 32.2461H129.098C129.098 36.609 128.799 39.4775 128.274 40.9884L130.163 41.6444ZM145.602 14.4922V13.4922H144.602V14.4922H145.602ZM155.516 14.4922H156.516V13.4922H155.516V14.4922ZM161.809 42.0898L161.127 41.3579L161.121 41.3639L161.114 41.37L161.809 42.0898ZM163.039 39.4883L164.031 39.6149L164.031 39.6123L163.039 39.4883ZM163.25 14.4922V13.4922H162.25V14.4922H163.25ZM173.164 14.4922H174.164V13.4922H173.164V14.4922ZM173.164 50V51H174.164V50H173.164ZM163.848 50H162.848V51H163.848V50ZM163.848 45.1484H164.848V41.4451L162.984 44.6451L163.848 45.1484ZM159.629 49.7539L159.206 48.8477L159.2 48.8505L159.629 49.7539ZM145.602 15.4922H155.516V13.4922H145.602V15.4922ZM154.516 14.4922V37.2734H156.516V14.4922H154.516ZM154.516 37.2734C154.516 38.4479 154.569 39.455 154.683 40.2836C154.795 41.0943 154.973 41.8129 155.271 42.3578L157.026 41.4001C156.902 41.1715 156.764 40.7357 156.665 40.0113C156.567 39.3047 156.516 38.3958 156.516 37.2734H154.516ZM155.271 42.3578C155.956 43.6153 157.352 44.0391 158.891 44.0391V42.0391C157.617 42.0391 157.184 41.6894 157.026 41.4001L155.271 42.3578ZM158.891 44.0391C160.331 44.0391 161.595 43.6852 162.503 42.8097L161.114 41.37C160.71 41.7601 160.029 42.0391 158.891 42.0391V44.0391ZM162.49 42.8217C163.373 41.9999 163.867 40.901 164.031 39.6149L162.047 39.3616C161.93 40.2787 161.604 40.9142 161.127 41.3579L162.49 42.8217ZM164.031 39.6123C164.181 38.4149 164.25 36.055 164.25 32.5977H162.25C162.25 36.0778 162.178 38.3116 162.047 39.3642L164.031 39.6123ZM164.25 32.5977V14.4922H162.25V32.5977H164.25ZM163.25 15.4922H173.164V13.4922H163.25V15.4922ZM172.164 14.4922V50H174.164V14.4922H172.164ZM173.164 49H163.848V51H173.164V49ZM164.848 50V45.1484H162.848V50H164.848ZM162.984 44.6451C161.608 47.006 160.331 48.3228 159.206 48.8477L160.052 50.6601C161.739 49.8725 163.275 48.119 164.712 45.6518L162.984 44.6451ZM159.2 48.8505C157.98 49.4297 156.492 49.7383 154.707 49.7383V51.7383C156.719 51.7383 158.513 51.3906 160.058 50.6573L159.2 48.8505ZM154.707 49.7383C152.271 49.7383 150.566 49.2328 149.449 48.3662L148.223 49.9463C149.825 51.1891 152.033 51.7383 154.707 51.7383V49.7383ZM149.449 48.3662C148.261 47.4446 147.513 46.3 147.17 44.9092L145.228 45.3877C145.682 47.2312 146.692 48.7585 148.223 49.9463L149.449 48.3662ZM147.17 44.9092C146.802 43.4155 146.602 40.997 146.602 37.5898H144.602C144.602 41.0264 144.799 43.647 145.228 45.3877L147.17 44.9092ZM146.602 37.5898V14.4922H144.602V37.5898H146.602ZM193.906 2.01172V1.01172H192.906V2.01172H193.906ZM203.82 2.01172H204.82V1.01172H203.82V2.01172ZM203.82 18.2539H202.82V21.8968L204.68 18.7644L203.82 18.2539ZM218.234 15.4414L217.603 16.2171L217.61 16.2223L218.234 15.4414ZM220.906 19.7305L219.929 19.9418L219.929 19.9446L220.906 19.7305ZM221.469 50V51H222.469V50H221.469ZM211.555 50H210.555V51H211.555V50ZM210.887 22.6133L210.009 23.0921L210.018 23.1081L210.027 23.1238L210.887 22.6133ZM203.82 50V51H204.82V50H203.82ZM193.906 50H192.906V51H193.906V50ZM193.906 3.01172H203.82V1.01172H193.906V3.01172ZM202.82 2.01172V18.2539H204.82V2.01172H202.82ZM204.68 18.7644C206.25 16.12 208.796 14.7539 212.539 14.7539V12.7539C208.22 12.7539 204.953 14.3878 202.96 17.7434L204.68 18.7644ZM212.539 14.7539C214.804 14.7539 216.453 15.2813 217.603 16.2171L218.865 14.6657C217.25 13.3515 215.102 12.7539 212.539 12.7539V14.7539ZM217.61 16.2223C218.839 17.206 219.603 18.4358 219.929 19.9418L221.884 19.5191C221.459 17.5564 220.442 15.9269 218.859 14.6605L217.61 16.2223ZM219.929 19.9446C220.281 21.5486 220.469 23.9587 220.469 27.2188H222.469C222.469 23.9163 222.281 21.3342 221.883 19.5164L219.929 19.9446ZM220.469 27.2188V50H222.469V27.2188H220.469ZM221.469 49H211.555V51H221.469V49ZM212.555 50V27.2188H210.555V50H212.555ZM212.555 27.2188C212.555 26.0316 212.498 25.0158 212.377 24.1836C212.26 23.3715 212.069 22.6462 211.747 22.1027L210.027 23.1238C210.15 23.3304 210.293 23.7476 210.398 24.4707C210.5 25.1737 210.555 26.0856 210.555 27.2188H212.555ZM211.765 22.1344C211.084 20.8868 209.724 20.4531 208.215 20.4531V22.4531C209.424 22.4531 209.846 22.7929 210.009 23.0921L211.765 22.1344ZM208.215 20.4531C206.692 20.4531 205.364 20.8718 204.342 21.804L205.689 23.2819C206.261 22.761 207.066 22.4531 208.215 22.4531V20.4531ZM204.342 21.804C203.733 22.359 203.368 23.1754 203.147 24.0927C202.922 25.0242 202.82 26.1681 202.82 27.5H204.82C204.82 26.2538 204.917 25.2824 205.091 24.5616C205.269 23.8265 205.501 23.4535 205.689 23.2819L204.342 21.804ZM202.82 27.5V50H204.82V27.5H202.82ZM203.82 49H193.906V51H203.82V49ZM194.906 50V2.01172H192.906V50H194.906ZM237.781 25.7773L237.684 26.7726L238.706 26.8721L238.779 25.8481L237.781 25.7773ZM228.395 24.8633L227.402 24.7392L227.275 25.759L228.298 25.8586L228.395 24.8633ZM232.93 16.6367L232.335 15.8324L232.332 15.835L232.93 16.6367ZM250.754 15.6875L250.215 16.53L250.222 16.5344L250.754 15.6875ZM254.551 20.1172L253.594 20.4094L253.598 20.4215L254.551 20.1172ZM255.957 50V51H257.535L256.861 49.573L255.957 50ZM246.781 50L245.835 50.3231L246.066 51H246.781V50ZM246.289 44.5508H247.289L245.405 44.0836L246.289 44.5508ZM229.801 48.2773L229.108 48.9989L229.114 49.0038L229.801 48.2773ZM231.137 31.8594L231.771 32.6321L231.776 32.6287L231.137 31.8594ZM245.48 27.957L245.541 28.9552L246.48 28.8981V27.957H245.48ZM244.742 21.6992L243.852 22.1555L243.857 22.1645L243.862 22.1733L244.742 21.6992ZM245.48 33.0195H246.48V31.8993L245.367 32.0259L245.48 33.0195ZM239.293 34.9531L239.903 35.7458L239.905 35.7441L239.293 34.9531ZM244.004 42.2305L243.194 41.644L243.192 41.6465L244.004 42.2305ZM237.878 24.7821L228.491 23.868L228.298 25.8586L237.684 26.7726L237.878 24.7821ZM229.387 24.9873C229.803 21.6604 231.194 19.1778 233.527 17.4385L232.332 15.835C229.509 17.9394 227.877 20.9412 227.402 24.7392L229.387 24.9873ZM233.524 17.441C235.919 15.6719 238.967 14.7539 242.738 14.7539V12.7539C238.634 12.7539 235.144 13.7578 232.336 15.8324L233.524 17.441ZM242.738 14.7539C245.947 14.7539 248.412 15.3766 250.215 16.5299L251.293 14.8451C249.065 13.4203 246.186 12.7539 242.738 12.7539V14.7539ZM250.222 16.5344C252.106 17.7171 253.17 19.0215 253.594 20.4094L255.507 19.825C254.9 17.8379 253.433 16.1892 251.286 14.8406L250.222 16.5344ZM253.598 20.4215C254.088 21.9551 254.359 24.4397 254.359 27.957H256.359C256.359 24.3962 256.092 21.6543 255.503 19.8129L253.598 20.4215ZM254.359 27.957V42.125H256.359V27.957H254.359ZM254.359 42.125C254.359 44.339 254.409 46.1253 254.512 47.4741C254.563 48.1481 254.628 48.7271 254.71 49.203C254.789 49.6617 254.894 50.0914 255.053 50.427L256.861 49.573C256.821 49.4867 256.751 49.2719 256.681 48.8634C256.614 48.4722 256.554 47.9613 256.506 47.3228C256.409 46.0465 256.359 44.3172 256.359 42.125H254.359ZM255.957 49H246.781V51H255.957V49ZM247.728 49.6769C247.46 48.8937 247.289 47.2358 247.289 44.5508H245.289C245.289 47.2095 245.446 49.1844 245.835 50.3231L247.728 49.6769ZM245.405 44.0836C244.379 46.025 243.131 47.4273 241.683 48.3474C240.24 49.2647 238.541 49.7383 236.551 49.7383V51.7383C238.873 51.7383 240.954 51.1806 242.756 50.0354C244.554 48.893 246.019 47.2015 247.173 45.018L245.405 44.0836ZM236.551 49.7383C233.997 49.7383 232.007 48.9881 230.488 47.5509L229.114 49.0038C231.063 50.8478 233.573 51.7383 236.551 51.7383V49.7383ZM230.493 47.5558C229.012 46.1346 228.199 44.0169 228.199 41.0352H226.199C226.199 44.3816 227.121 47.0919 229.108 48.9989L230.493 47.5558ZM228.199 41.0352C228.199 37.318 229.417 34.5658 231.771 32.6321L230.502 31.0866C227.606 33.4654 226.199 36.8304 226.199 41.0352H228.199ZM231.776 32.6287C234.138 30.6673 238.634 29.3752 245.541 28.9552L245.42 26.9589C238.452 27.3826 233.386 28.692 230.498 31.09L231.776 32.6287ZM246.48 27.957V26.6211H244.48V27.957H246.48ZM246.48 26.6211C246.48 24.2493 246.245 22.3804 245.623 21.2251L243.862 22.1733C244.224 22.8462 244.48 24.2585 244.48 26.6211H246.48ZM245.632 21.2429C244.933 19.8794 243.572 19.3281 241.965 19.3281V21.3281C243.123 21.3281 243.614 21.6909 243.852 22.1555L245.632 21.2429ZM241.965 19.3281C240.426 19.3281 239.136 19.8984 238.227 21.0815C237.359 22.212 236.919 23.8003 236.784 25.7066L238.779 25.8481C238.901 24.1216 239.287 22.9852 239.814 22.2994C240.3 21.6661 240.972 21.3281 241.965 21.3281V19.3281ZM245.367 32.0259C242.434 32.3598 240.145 33.0296 238.681 34.1622L239.905 35.7441C240.925 34.9548 242.761 34.3355 245.594 34.0131L245.367 32.0259ZM238.683 34.1605C237.12 35.363 236.465 37.3238 236.465 39.7344H238.465C238.465 37.6449 239.028 36.4182 239.903 35.7457L238.683 34.1605ZM236.465 39.7344C236.465 41.3273 236.752 42.7032 237.485 43.7013C238.26 44.757 239.416 45.2344 240.77 45.2344V43.2344C239.92 43.2344 239.423 42.9618 239.097 42.5175C238.728 42.0155 238.465 41.1415 238.465 39.7344H236.465ZM240.77 45.2344C242.398 45.2344 243.743 44.3053 244.816 42.8144L243.192 41.6465C242.343 42.8275 241.531 43.2344 240.77 43.2344V45.2344ZM244.814 42.817C246.001 41.1779 246.48 38.4027 246.48 34.7773H244.48C244.48 38.3708 243.976 40.5643 243.194 41.644L244.814 42.817ZM246.48 34.7773V33.0195H244.48V34.7773H246.48ZM258.031 14.4922V13.4922H256.71L257.069 14.7638L258.031 14.4922ZM267.559 14.4922L268.533 14.2654L268.353 13.4922H267.559V14.4922ZM272.445 35.4805L271.471 35.7072L273.419 35.7103L272.445 35.4805ZM277.402 14.4922V13.4922H276.611L276.429 14.2623L277.402 14.4922ZM285.629 14.4922L286.593 14.7567L286.94 13.4922H285.629V14.4922ZM275.891 50V51H276.653L276.855 50.2645L275.891 50ZM268.051 50L267.088 50.2716L267.294 51H268.051V50ZM258.031 15.4922H267.559V13.4922H258.031V15.4922ZM266.585 14.719L271.471 35.7072L273.419 35.2537L268.533 14.2654L266.585 14.719ZM273.419 35.7103L278.376 14.722L276.429 14.2623L271.472 35.2506L273.419 35.7103ZM277.402 15.4922H285.629V13.4922H277.402V15.4922ZM284.665 14.2277L274.926 49.7355L276.855 50.2645L286.593 14.7567L284.665 14.2277ZM275.891 49H268.051V51H275.891V49ZM269.013 49.7284L258.994 14.2206L257.069 14.7638L267.088 50.2716L269.013 49.7284ZM315.582 33.8984V34.8984H316.582V33.8984H315.582ZM296.949 33.8984V32.8984H295.949V33.8984H296.949ZM306.758 37.8008L306.821 36.8028L305.852 36.741L305.762 37.7087L306.758 37.8008ZM315.582 38.3633L316.564 38.5503L316.776 37.4374L315.646 37.3653L315.582 38.3633ZM290.691 18.6758L289.918 18.0416L289.918 18.0422L290.691 18.6758ZM311.504 18.1133L310.773 18.7963L310.779 18.8023L311.504 18.1133ZM306.23 28.168V29.168H307.176L307.229 28.2234L306.23 28.168ZM297.02 28.168L296.02 28.1635L296.015 29.168H297.02V28.168ZM315.582 32.8984H296.949V34.8984H315.582V32.8984ZM295.949 33.8984V35.8672H297.949V33.8984H295.949ZM295.949 35.8672C295.949 37.5 296.06 38.9021 296.294 40.0566C296.527 41.1988 296.896 42.1775 297.471 42.8924L299.029 41.6389C298.737 41.2756 298.456 40.6489 298.254 39.6582C298.055 38.6799 297.949 37.4218 297.949 35.8672H295.949ZM297.471 42.8924C298.531 44.211 299.957 44.8828 301.66 44.8828V42.8828C300.551 42.8828 299.703 42.4765 299.029 41.6389L297.471 42.8924ZM301.66 44.8828C303.42 44.8828 304.901 44.2789 305.969 43.0047C307.002 41.7718 307.557 40.0209 307.754 37.8929L305.762 37.7087C305.584 39.6354 305.102 40.9254 304.436 41.7199C303.805 42.473 302.923 42.8828 301.66 42.8828V44.8828ZM306.694 38.7988L315.518 39.3613L315.646 37.3653L306.821 36.8028L306.694 38.7988ZM314.6 38.1763C313.842 42.1572 312.353 45.0208 310.22 46.893C308.096 48.758 305.219 49.7383 301.484 49.7383V51.7383C305.578 51.7383 308.965 50.6561 311.54 48.3961C314.106 46.1432 315.752 42.8194 316.564 38.5503L314.6 38.1763ZM301.484 49.7383C296.906 49.7383 293.557 48.2089 291.273 45.2416L289.688 46.4615C292.419 50.0099 296.407 51.7383 301.484 51.7383V49.7383ZM291.273 45.2416C288.938 42.2083 287.719 38.086 287.719 32.7734H285.719C285.719 38.3828 287.007 42.9792 289.688 46.4615L291.273 45.2416ZM287.719 32.7734C287.719 26.7343 289.018 22.2973 291.465 19.3093L289.918 18.0422C287.068 21.523 285.719 26.4844 285.719 32.7734H287.719ZM291.465 19.3099C293.933 16.2998 297.216 14.7891 301.414 14.7891V12.7891C296.659 12.7891 292.793 14.5361 289.918 18.0416L291.465 19.3099ZM301.414 14.7891C305.175 14.7891 308.272 16.1205 310.773 18.7962L312.234 17.4303C309.345 14.3404 305.715 12.7891 301.414 12.7891V14.7891ZM310.779 18.8023C313.216 21.3648 314.582 26.2796 314.582 33.8984H316.582C316.582 26.1892 315.23 20.5805 312.229 17.4242L310.779 18.8023ZM307.229 28.2234C307.253 27.7952 307.266 27.4456 307.266 27.1836H305.266C305.266 27.3904 305.255 27.697 305.232 28.1125L307.229 28.2234ZM307.266 27.1836C307.266 24.8169 306.871 22.866 305.934 21.4814C304.949 20.0273 303.457 19.3281 301.625 19.3281V21.3281C302.887 21.3281 303.715 21.7716 304.277 22.6026C304.887 23.5032 305.266 24.9799 305.266 27.1836H307.266ZM301.625 19.3281C299.749 19.3281 298.275 20.1672 297.326 21.7816C296.426 23.3143 296.032 25.4855 296.02 28.1635L298.02 28.1725C298.031 25.6239 298.416 23.8752 299.051 22.7946C299.638 21.7957 300.454 21.3281 301.625 21.3281V19.3281ZM297.02 29.168H306.23V27.168H297.02V29.168ZM344.305 25.7773L344.208 26.7726L345.23 26.8721L345.302 25.8481L344.305 25.7773ZM334.918 24.8633L333.926 24.7392L333.798 25.759L334.821 25.8586L334.918 24.8633ZM339.453 16.6367L338.859 15.8324L338.855 15.835L339.453 16.6367ZM357.277 15.6875L356.739 16.53L356.746 16.5344L357.277 15.6875ZM361.074 20.1172L360.118 20.4094L360.122 20.4215L361.074 20.1172ZM362.48 50V51H364.059L363.385 49.573L362.48 50ZM353.305 50L352.358 50.3231L352.589 51H353.305V50ZM352.812 44.5508H353.812L351.928 44.0836L352.812 44.5508ZM336.324 48.2773L335.632 48.9989L335.637 49.0038L336.324 48.2773ZM337.66 31.8594L338.295 32.6321L338.299 32.6287L337.66 31.8594ZM352.004 27.957L352.065 28.9552L353.004 28.8981V27.957H352.004ZM351.266 21.6992L350.376 22.1555L350.38 22.1645L350.385 22.1733L351.266 21.6992ZM352.004 33.0195H353.004V31.8993L351.891 32.0259L352.004 33.0195ZM345.816 34.9531L346.426 35.7458L346.428 35.7441L345.816 34.9531ZM350.527 42.2305L349.717 41.644L349.716 41.6465L350.527 42.2305ZM344.402 24.7821L335.015 23.868L334.821 25.8586L344.208 26.7726L344.402 24.7821ZM335.91 24.9873C336.326 21.6604 337.717 19.1778 340.051 17.4385L338.855 15.835C336.033 17.9394 334.4 20.9412 333.926 24.7392L335.91 24.9873ZM340.047 17.441C342.442 15.6719 345.491 14.7539 349.262 14.7539V12.7539C345.158 12.7539 341.667 13.7578 338.859 15.8324L340.047 17.441ZM349.262 14.7539C352.471 14.7539 354.935 15.3766 356.739 16.5299L357.816 14.8451C355.588 13.4203 352.709 12.7539 349.262 12.7539V14.7539ZM356.746 16.5344C358.629 17.7171 359.694 19.0215 360.118 20.4094L362.031 19.825C361.423 17.8379 359.957 16.1892 357.809 14.8406L356.746 16.5344ZM360.122 20.4215C360.612 21.9551 360.883 24.4397 360.883 27.957H362.883C362.883 24.3962 362.615 21.6543 362.027 19.8129L360.122 20.4215ZM360.883 27.957V42.125H362.883V27.957H360.883ZM360.883 42.125C360.883 44.339 360.933 46.1253 361.035 47.4741C361.086 48.1481 361.152 48.7271 361.234 49.203C361.313 49.6617 361.418 50.0914 361.576 50.427L363.385 49.573C363.344 49.4867 363.275 49.2719 363.204 48.8634C363.137 48.4722 363.078 47.9613 363.029 47.3228C362.933 46.0465 362.883 44.3172 362.883 42.125H360.883ZM362.48 49H353.305V51H362.48V49ZM354.251 49.6769C353.984 48.8937 353.812 47.2358 353.812 44.5508H351.812C351.812 47.2095 351.969 49.1844 352.358 50.3231L354.251 49.6769ZM351.928 44.0836C350.902 46.025 349.655 47.4273 348.207 48.3474C346.763 49.2647 345.064 49.7383 343.074 49.7383V51.7383C345.397 51.7383 347.477 51.1806 349.279 50.0354C351.078 48.893 352.543 47.2015 353.697 45.018L351.928 44.0836ZM343.074 49.7383C340.521 49.7383 338.531 48.9881 337.011 47.5509L335.637 49.0038C337.586 50.8478 340.096 51.7383 343.074 51.7383V49.7383ZM337.017 47.5558C335.535 46.1346 334.723 44.0169 334.723 41.0352H332.723C332.723 44.3816 333.644 47.0919 335.632 48.9989L337.017 47.5558ZM334.723 41.0352C334.723 37.318 335.941 34.5658 338.295 32.6321L337.025 31.0866C334.13 33.4654 332.723 36.8304 332.723 41.0352H334.723ZM338.299 32.6287C340.661 30.6673 345.157 29.3752 352.065 28.9552L351.943 26.9589C344.975 27.3826 339.909 28.692 337.021 31.09L338.299 32.6287ZM353.004 27.957V26.6211H351.004V27.957H353.004ZM353.004 26.6211C353.004 24.2493 352.768 22.3804 352.146 21.2251L350.385 22.1733C350.747 22.8462 351.004 24.2585 351.004 26.6211H353.004ZM352.155 21.2429C351.456 19.8794 350.096 19.3281 348.488 19.3281V21.3281C349.647 21.3281 350.138 21.6909 350.376 22.1555L352.155 21.2429ZM348.488 19.3281C346.949 19.3281 345.659 19.8984 344.751 21.0815C343.883 22.212 343.442 23.8003 343.307 25.7066L345.302 25.8481C345.425 24.1216 345.811 22.9852 346.337 22.2994C346.823 21.6661 347.496 21.3281 348.488 21.3281V19.3281ZM351.891 32.0259C348.957 32.3598 346.669 33.0296 345.205 34.1622L346.428 35.7441C347.449 34.9548 349.285 34.3355 352.117 34.0131L351.891 32.0259ZM345.207 34.1605C343.643 35.363 342.988 37.3238 342.988 39.7344H344.988C344.988 37.6449 345.552 36.4182 346.426 35.7457L345.207 34.1605ZM342.988 39.7344C342.988 41.3273 343.275 42.7032 344.008 43.7013C344.784 44.757 345.939 45.2344 347.293 45.2344V43.2344C346.443 43.2344 345.947 42.9618 345.62 42.5175C345.252 42.0155 344.988 41.1415 344.988 39.7344H342.988ZM347.293 45.2344C348.922 45.2344 350.267 44.3053 351.339 42.8144L349.716 41.6465C348.866 42.8275 348.055 43.2344 347.293 43.2344V45.2344ZM351.337 42.817C352.524 41.1779 353.004 38.4027 353.004 34.7773H351.004C351.004 38.3708 350.499 40.5643 349.717 41.644L351.337 42.817ZM353.004 34.7773V33.0195H351.004V34.7773H353.004ZM382.625 14.4922V13.4922H381.625V14.4922H382.625ZM391.766 14.4922H392.766V13.4922H391.766V14.4922ZM391.766 19.8008H390.766L392.658 20.2523L391.766 19.8008ZM407.973 18.3945L407.17 18.9904L407.172 18.9935L407.973 18.3945ZM392.363 47.3633L393.124 46.7139L391.363 44.6523V47.3633H392.363ZM392.363 62.0234V63.0234H393.363V62.0234H392.363ZM382.625 62.0234H381.625V63.0234H382.625V62.0234ZM393.172 42.125L392.286 42.5883L392.292 42.6004L392.299 42.6124L393.172 42.125ZM393.664 22.0156L394.407 22.6856L394.414 22.6767L393.664 22.0156ZM382.625 15.4922H391.766V13.4922H382.625V15.4922ZM390.766 14.4922V19.8008H392.766V14.4922H390.766ZM392.658 20.2523C394.484 16.6444 396.884 15.0352 399.852 15.0352V13.0352C395.928 13.0352 392.938 15.2697 390.873 19.3492L392.658 20.2523ZM399.852 15.0352C402.754 15.0352 405.178 16.3059 407.17 18.9904L408.776 17.7987C406.455 14.6707 403.464 13.0352 399.852 13.0352V15.0352ZM407.172 18.9935C409.139 21.6228 410.207 25.7824 410.207 31.6484H412.207C412.207 25.6082 411.119 20.9319 408.773 17.7956L407.172 18.9935ZM410.207 31.6484C410.207 37.7996 409.161 42.2661 407.211 45.1914L408.875 46.3008C411.144 42.8979 412.207 37.966 412.207 31.6484H410.207ZM407.211 45.1914C405.288 48.0757 402.636 49.4922 399.148 49.4922V51.4922C403.301 51.4922 406.579 49.7446 408.875 46.3008L407.211 45.1914ZM399.148 49.4922C396.699 49.4922 394.715 48.5774 393.124 46.7139L391.603 48.0127C393.574 50.321 396.114 51.4922 399.148 51.4922V49.4922ZM391.363 47.3633V62.0234H393.363V47.3633H391.363ZM392.363 61.0234H382.625V63.0234H392.363V61.0234ZM383.625 62.0234V14.4922H381.625V62.0234H383.625ZM391.363 35.4805C391.363 37.2015 391.431 38.6488 391.573 39.8112C391.711 40.9492 391.93 41.9079 392.286 42.5883L394.058 41.6617C393.875 41.3109 393.689 40.6465 393.558 39.5696C393.43 38.5172 393.363 37.1578 393.363 35.4805H391.363ZM392.299 42.6124C393.113 44.0707 394.682 44.6367 396.547 44.6367V42.6367C395.037 42.6367 394.356 42.1949 394.045 41.6376L392.299 42.6124ZM396.547 44.6367C397.453 44.6367 398.292 44.4298 399.028 43.9805C399.762 43.532 400.337 42.8772 400.769 42.069L399.005 41.1263C398.71 41.6775 398.365 42.0422 397.986 42.2734C397.608 42.5038 397.141 42.6367 396.547 42.6367V44.6367ZM400.769 42.069C401.229 41.2083 401.515 39.8791 401.698 38.2181C401.885 36.5206 401.977 34.3504 401.977 31.7188H399.977C399.977 34.3137 399.886 36.4032 399.71 37.9987C399.53 39.6306 399.271 40.6277 399.005 41.1263L400.769 42.069ZM401.977 31.7188C401.977 29.5183 401.897 27.652 401.734 26.1278C401.572 24.6183 401.322 23.3837 400.953 22.4807L399.102 23.238C399.365 23.8819 399.59 24.8973 399.745 26.3409C399.898 27.7699 399.977 29.5598 399.977 31.7188H401.977ZM400.953 22.4807C400.585 21.5808 400.06 20.8315 399.34 20.3096C398.613 19.7824 397.759 19.5391 396.828 19.5391V21.5391C397.398 21.5391 397.826 21.6825 398.166 21.9286C398.513 22.1802 398.837 22.5911 399.102 23.238L400.953 22.4807ZM396.828 19.5391C395.281 19.5391 393.959 20.1684 392.914 21.3546L394.414 22.6767C395.104 21.8941 395.891 21.5391 396.828 21.5391V19.5391ZM392.922 21.3457C392.304 22.0299 391.935 23.0501 391.707 24.2346C391.473 25.446 391.363 26.9629 391.363 28.7656H393.363C393.363 27.0293 393.47 25.6517 393.67 24.6131C393.876 23.5475 394.157 22.9623 394.406 22.6856L392.922 21.3457ZM391.363 28.7656V35.4805H393.363V28.7656H391.363ZM417.008 14.4922V13.4922H416.008V14.4922H417.008ZM425.727 14.4922H426.727V13.4922H425.727V14.4922ZM425.727 23.0703H424.727L426.694 23.3226L425.727 23.0703ZM435.816 14.2109H436.816V13.3791L435.998 13.2277L435.816 14.2109ZM435.816 23.8789L435.688 24.8707L436.816 25.0162V23.8789H435.816ZM426.922 50V51H427.922V50H426.922ZM417.008 50H416.008V51H417.008V50ZM417.008 15.4922H425.727V13.4922H417.008V15.4922ZM424.727 14.4922V23.0703H426.727V14.4922H424.727ZM426.694 23.3226C427.457 20.3956 428.493 18.3131 429.737 16.9749C430.953 15.6679 432.397 15.0352 434.129 15.0352V13.0352C431.829 13.0352 429.858 13.9083 428.273 15.6129C426.716 17.2866 425.566 19.7216 424.759 22.818L426.694 23.3226ZM434.129 15.0352C434.545 15.0352 435.044 15.085 435.634 15.1942L435.998 13.2277C435.323 13.1025 434.697 13.0352 434.129 13.0352V15.0352ZM434.816 14.2109V23.8789H436.816V14.2109H434.816ZM435.944 22.8871C435.207 22.792 434.605 22.7383 434.164 22.7383V24.7383C434.473 24.7383 434.972 24.7783 435.688 24.8707L435.944 22.8871ZM434.164 22.7383C431.455 22.7383 429.311 23.7888 427.898 25.9295C426.533 27.9974 425.922 30.9725 425.922 34.707H427.922C427.922 31.1291 428.518 28.6198 429.567 27.0315C430.568 25.5158 432.045 24.7383 434.164 24.7383V22.7383ZM425.922 34.707V50H427.922V34.707H425.922ZM426.922 49H417.008V51H426.922V49ZM418.008 50V14.4922H416.008V50H418.008ZM455.961 23.0703L455.027 23.4275L455.032 23.4393L455.961 23.0703ZM449.492 22.9648L450.408 23.3657L450.411 23.3605L449.492 22.9648ZM456.031 41.3164L456.974 41.6485L456.976 41.6444L456.031 41.3164ZM466.141 32.2461C466.141 38.3078 464.955 42.6699 462.748 45.5005C460.579 48.2836 457.301 49.7383 452.727 49.7383V51.7383C457.761 51.7383 461.691 50.1109 464.326 46.73C466.924 43.3965 468.141 38.5125 468.141 32.2461H466.141ZM452.727 49.7383C448.139 49.7383 444.853 48.283 442.678 45.4995C440.466 42.6691 439.277 38.3074 439.277 32.2461H437.277C437.277 38.513 438.497 43.3973 441.102 46.7309C443.743 50.1115 447.681 51.7383 452.727 51.7383V49.7383ZM439.277 32.2461C439.277 26.1969 440.466 21.8442 442.677 19.0197C444.852 16.2419 448.138 14.7891 452.727 14.7891V12.7891C447.682 12.7891 443.744 14.4124 441.102 17.7869C438.497 21.1148 437.277 25.9906 437.277 32.2461H439.277ZM452.727 14.7891C457.302 14.7891 460.58 16.2412 462.749 19.0188C464.955 21.8434 466.141 26.1965 466.141 32.2461H468.141C468.141 25.991 466.924 21.1156 464.325 17.7878C461.69 14.4131 457.76 12.7891 452.727 12.7891V14.7891ZM457.91 32.2461C457.91 29.9644 457.831 28.032 457.668 26.4567C457.506 24.8961 457.257 23.6256 456.89 22.7013L455.032 23.4393C455.297 24.1088 455.523 25.1645 455.678 26.6625C455.832 28.1458 455.91 30.0044 455.91 32.2461H457.91ZM456.895 22.7132C456.541 21.7862 456.019 21.0124 455.29 20.4732C454.553 19.9286 453.68 19.6797 452.727 19.6797V21.6797C453.32 21.6797 453.76 21.8292 454.101 22.0815C454.45 22.3392 454.772 22.7607 455.027 23.4274L456.895 22.7132ZM452.727 19.6797C451.799 19.6797 450.946 19.9183 450.216 20.4343C449.492 20.9455 448.956 21.6814 448.574 22.5692L450.411 23.3605C450.684 22.7248 451.015 22.3182 451.37 22.0677C451.718 21.8219 452.154 21.6797 452.727 21.6797V19.6797ZM448.576 22.564C448.185 23.4579 447.926 24.7302 447.759 26.3047C447.59 27.8994 447.508 29.8828 447.508 32.2461H449.508C449.508 29.9219 449.589 28.0147 449.748 26.5156C449.909 24.9964 450.143 23.9718 450.408 23.3657L448.576 22.564ZM447.508 32.2461C447.508 36.579 447.784 39.7394 448.403 41.5975L450.3 40.965C449.795 39.4481 449.508 36.5851 449.508 32.2461H447.508ZM448.403 41.5975C448.731 42.583 449.254 43.407 450.017 43.9797C450.785 44.5558 451.711 44.8125 452.727 44.8125V42.8125C452.055 42.8125 451.574 42.6474 451.217 42.3797C450.856 42.1087 450.534 41.667 450.3 40.965L448.403 41.5975ZM452.727 44.8125C453.714 44.8125 454.615 44.5551 455.368 43.9864C456.114 43.423 456.634 42.6147 456.974 41.6485L455.088 40.9843C454.842 41.6822 454.519 42.1219 454.163 42.3905C453.814 42.6539 453.356 42.8125 452.727 42.8125V44.8125ZM456.976 41.6444C457.623 39.7803 457.91 36.602 457.91 32.2461H455.91C455.91 36.609 455.611 39.4775 455.087 40.9884L456.976 41.6444ZM483.207 11.5742V12.5742H484.207V11.5742H483.207ZM473.152 11.5742H472.152V12.5742H473.152V11.5742ZM473.152 1.76562V0.765625H472.152V1.76562H473.152ZM483.207 1.76562H484.207V0.765625H483.207V1.76562ZM473.223 14.4922V13.4922H472.223V14.4922H473.223ZM483.137 14.4922H484.137V13.4922H483.137V14.4922ZM479.691 61.3906L479.116 60.5726L479.108 60.5786L479.691 61.3906ZM468.652 62.5156H467.652V63.3691L468.495 63.5032L468.652 62.5156ZM468.652 54.3945L468.794 53.4046L467.652 53.2415V54.3945H468.652ZM472.66 53.4102L471.772 52.9515L471.766 52.963L471.76 52.9746L472.66 53.4102ZM483.207 10.5742H473.152V12.5742H483.207V10.5742ZM474.152 11.5742V1.76562H472.152V11.5742H474.152ZM473.152 2.76562H483.207V0.765625H473.152V2.76562ZM482.207 1.76562V11.5742H484.207V1.76562H482.207ZM473.223 15.4922H483.137V13.4922H473.223V15.4922ZM482.137 14.4922V48.8398H484.137V14.4922H482.137ZM482.137 48.8398C482.137 52.4786 481.937 55.1335 481.562 56.8535L483.516 57.2794C483.938 55.3431 484.137 52.5135 484.137 48.8398H482.137ZM481.562 56.8535C481.216 58.4422 480.407 59.6653 479.116 60.5726L480.267 62.2087C481.976 61.0066 483.066 59.3469 483.516 57.2794L481.562 56.8535ZM479.108 60.5786C477.817 61.5063 476.126 62.0078 473.961 62.0078V64.0078C476.437 64.0078 478.566 63.4312 480.275 62.2026L479.108 60.5786ZM473.961 62.0078C472.554 62.0078 470.839 61.851 468.809 61.528L468.495 63.5032C470.59 63.8365 472.415 64.0078 473.961 64.0078V62.0078ZM469.652 62.5156V54.3945H467.652V62.5156H469.652ZM468.511 55.3845C469.036 55.4595 469.518 55.5 469.953 55.5V53.5C469.638 53.5 469.253 53.4702 468.794 53.4046L468.511 55.3845ZM469.953 55.5C471.473 55.5 472.938 55.1319 473.56 53.8457L471.76 52.9746C471.679 53.1415 471.34 53.5 469.953 53.5V55.5ZM473.549 53.8688C473.823 53.3376 473.979 52.6013 474.075 51.7675C474.175 50.9061 474.223 49.8328 474.223 48.5586H472.223C472.223 49.7922 472.176 50.7814 472.089 51.5372C471.998 52.3206 471.872 52.7561 471.772 52.9515L473.549 53.8688ZM474.223 48.5586V14.4922H472.223V48.5586H474.223ZM517.379 33.8984V34.8984H518.379V33.8984H517.379ZM498.746 33.8984V32.8984H497.746V33.8984H498.746ZM508.555 37.8008L508.618 36.8028L507.648 36.741L507.559 37.7087L508.555 37.8008ZM517.379 38.3633L518.361 38.5503L518.573 37.4374L517.443 37.3653L517.379 38.3633ZM492.488 18.6758L491.715 18.0416L491.715 18.0422L492.488 18.6758ZM513.301 18.1133L512.57 18.7963L512.576 18.8023L513.301 18.1133ZM508.027 28.168V29.168H508.973L509.026 28.2234L508.027 28.168ZM498.816 28.168L497.816 28.1635L497.812 29.168H498.816V28.168ZM517.379 32.8984H498.746V34.8984H517.379V32.8984ZM497.746 33.8984V35.8672H499.746V33.8984H497.746ZM497.746 35.8672C497.746 37.5 497.857 38.9021 498.091 40.0566C498.324 41.1988 498.693 42.1775 499.268 42.8924L500.826 41.6389C500.534 41.2756 500.253 40.6489 500.051 39.6582C499.852 38.6799 499.746 37.4218 499.746 35.8672H497.746ZM499.268 42.8924C500.328 44.211 501.754 44.8828 503.457 44.8828V42.8828C502.348 42.8828 501.5 42.4765 500.826 41.6389L499.268 42.8924ZM503.457 44.8828C505.217 44.8828 506.697 44.2789 507.765 43.0047C508.799 41.7718 509.354 40.0209 509.55 37.8929L507.559 37.7087C507.381 39.6354 506.899 40.9254 506.233 41.7199C505.601 42.473 504.72 42.8828 503.457 42.8828V44.8828ZM508.491 38.7988L517.315 39.3613L517.443 37.3653L508.618 36.8028L508.491 38.7988ZM516.397 38.1763C515.639 42.1572 514.15 45.0208 512.017 46.893C509.892 48.758 507.016 49.7383 503.281 49.7383V51.7383C507.375 51.7383 510.762 50.6561 513.336 48.3961C515.903 46.1432 517.549 42.8194 518.361 38.5503L516.397 38.1763ZM503.281 49.7383C498.703 49.7383 495.354 48.2089 493.07 45.2416L491.485 46.4615C494.216 50.0099 498.204 51.7383 503.281 51.7383V49.7383ZM493.07 45.2416C490.735 42.2083 489.516 38.086 489.516 32.7734H487.516C487.516 38.3828 488.804 42.9792 491.485 46.4615L493.07 45.2416ZM489.516 32.7734C489.516 26.7343 490.815 22.2973 493.262 19.3093L491.715 18.0422C488.864 21.523 487.516 26.4844 487.516 32.7734H489.516ZM493.261 19.3099C495.73 16.2998 499.012 14.7891 503.211 14.7891V12.7891C498.456 12.7891 494.59 14.5361 491.715 18.0416L493.261 19.3099ZM503.211 14.7891C506.972 14.7891 510.069 16.1205 512.57 18.7962L514.031 17.4303C511.142 14.3404 507.512 12.7891 503.211 12.7891V14.7891ZM512.576 18.8023C515.013 21.3648 516.379 26.2796 516.379 33.8984H518.379C518.379 26.1892 517.027 20.5805 514.025 17.4242L512.576 18.8023ZM509.026 28.2234C509.05 27.7952 509.062 27.4456 509.062 27.1836H507.062C507.062 27.3904 507.052 27.697 507.029 28.1125L509.026 28.2234ZM509.062 27.1836C509.062 24.8169 508.668 22.866 507.73 21.4814C506.746 20.0273 505.254 19.3281 503.422 19.3281V21.3281C504.684 21.3281 505.512 21.7716 506.074 22.6026C506.684 23.5032 507.062 24.9799 507.062 27.1836H509.062ZM503.422 19.3281C501.546 19.3281 500.071 20.1672 499.123 21.7816C498.223 23.3143 497.828 25.4855 497.816 28.1635L499.816 28.1725C499.828 25.6239 500.213 23.8752 500.848 22.7946C501.434 21.7957 502.251 21.3281 503.422 21.3281V19.3281ZM498.816 29.168H508.027V27.168H498.816V29.168ZM549.688 27.5703L549.726 28.5696L550.767 28.5299L550.684 27.4915L549.688 27.5703ZM540.477 27.9219L539.479 27.9863L539.541 28.9583L540.515 28.9211L540.477 27.9219ZM539.422 23L538.527 23.4472L538.531 23.4548L539.422 23ZM532.777 40.2969L531.88 40.7389L531.886 40.7493L532.777 40.2969ZM540.477 36.1484L540.541 35.1505L539.532 35.085L539.478 36.095L540.477 36.1484ZM549.688 36.7461L550.684 36.8337L550.773 35.8144L549.752 35.7482L549.688 36.7461ZM525.254 46.1328L524.465 46.748L524.471 46.7546L525.254 46.1328ZM525.43 18.5352L524.652 17.9069L524.649 17.9105L525.43 18.5352ZM549.649 26.571L540.438 26.9226L540.515 28.9211L549.726 28.5696L549.649 26.571ZM541.474 27.8575C541.331 25.6301 540.967 23.8279 540.312 22.5452L538.531 23.4548C539.001 24.3752 539.341 25.8543 539.479 27.9863L541.474 27.8575ZM540.316 22.5528C539.962 21.8432 539.46 21.2664 538.798 20.8741C538.139 20.4838 537.384 20.3125 536.574 20.3125V22.3125C537.101 22.3125 537.488 22.4224 537.778 22.5947C538.065 22.7648 538.32 23.0318 538.527 23.4472L540.316 22.5528ZM536.574 20.3125C535.557 20.3125 534.625 20.5829 533.817 21.1479C533.018 21.7068 532.398 22.5137 531.927 23.5015C530.999 25.4504 530.582 28.2493 530.582 31.7891H532.582C532.582 28.3445 532.997 25.9051 533.733 24.3618C534.094 23.6035 534.514 23.1008 534.963 22.7867C535.404 22.4786 535.927 22.3125 536.574 22.3125V20.3125ZM530.582 31.7891C530.582 35.8515 530.972 38.8957 531.88 40.7389L533.674 39.8549C532.989 38.4637 532.582 35.836 532.582 31.7891H530.582ZM531.886 40.7493C532.354 41.6732 532.964 42.4265 533.741 42.947C534.525 43.4723 535.423 43.7227 536.398 43.7227V41.7227C535.78 41.7227 535.277 41.5687 534.854 41.2854C534.424 40.9973 534.021 40.5377 533.669 39.8445L531.886 40.7493ZM536.398 43.7227C538.002 43.7227 539.277 42.9824 540.131 41.6062C540.941 40.3 541.354 38.458 541.475 36.2018L539.478 36.095C539.364 38.2217 538.981 39.6668 538.431 40.552C537.926 41.3672 537.279 41.7227 536.398 41.7227V43.7227ZM540.412 37.1463L549.623 37.744L549.752 35.7482L540.541 35.1505L540.412 37.1463ZM548.691 36.6585C548.293 41.1864 546.98 44.4268 544.883 46.5349C542.8 48.6285 539.81 49.7383 535.766 49.7383V51.7383C540.183 51.7383 543.743 50.5161 546.301 47.9456C548.844 45.3896 550.262 41.6339 550.684 36.8337L548.691 36.6585ZM535.766 49.7383C531.444 49.7383 528.252 48.3012 526.037 45.511L524.471 46.7546C527.131 50.1051 530.947 51.7383 535.766 51.7383V49.7383ZM526.042 45.5176C523.823 42.6733 522.633 38.3385 522.633 32.3516H520.633C520.633 38.5521 521.857 43.4048 524.466 46.748L526.042 45.5176ZM522.633 32.3516C522.633 26.4244 523.876 22.0779 526.211 19.1599L524.649 17.9105C521.921 21.3206 520.633 26.1849 520.633 32.3516H522.633ZM526.208 19.1634C528.546 16.2668 531.817 14.7891 536.152 14.7891V12.7891C531.301 12.7891 527.422 14.4754 524.652 17.907L526.208 19.1634ZM536.152 14.7891C540.114 14.7891 543.028 15.8807 545.045 17.9351C547.078 20.005 548.338 23.1904 548.691 27.6491L550.684 27.4915C550.31 22.7627 548.951 19.0575 546.472 16.5337C543.978 13.9943 540.488 12.7891 536.152 12.7891V14.7891ZM556.578 3.59375L556.545 2.59429L555.578 2.62606V3.59375H556.578ZM566.211 3.27734H567.211V2.24396L566.178 2.27788L566.211 3.27734ZM566.211 14.4922H565.211V15.4922H566.211V14.4922ZM572.75 14.4922H573.75V13.4922H572.75V14.4922ZM572.75 22.2969V23.2969H573.75V22.2969H572.75ZM566.211 22.2969V21.2969H565.211V22.2969H566.211ZM566.352 40.0508L565.36 40.1788L565.362 40.197L565.365 40.2152L566.352 40.0508ZM567.406 41.8438L566.763 42.6095L566.78 42.6233L566.797 42.6364L567.406 41.8438ZM573.242 42.4766H574.242V41.434L573.201 41.4774L573.242 42.4766ZM573.242 50L573.46 50.9759L574.242 50.8012V50H573.242ZM556.578 22.2969H557.578V21.2969H556.578V22.2969ZM552.641 22.2969H551.641V23.2969H552.641V22.2969ZM552.641 14.4922V13.4922H551.641V14.4922H552.641ZM556.578 14.4922V15.4922H557.578V14.4922H556.578ZM556.611 4.59321L566.244 4.2768L566.178 2.27788L556.545 2.59429L556.611 4.59321ZM565.211 3.27734V14.4922H567.211V3.27734H565.211ZM566.211 15.4922H572.75V13.4922H566.211V15.4922ZM571.75 14.4922V22.2969H573.75V14.4922H571.75ZM572.75 21.2969H566.211V23.2969H572.75V21.2969ZM565.211 22.2969V35.3398H567.211V22.2969H565.211ZM565.211 35.3398C565.211 37.7386 565.256 39.3764 565.36 40.1788L567.343 39.9228C567.259 39.272 567.211 37.7692 567.211 35.3398H565.211ZM565.365 40.2152C565.525 41.1712 566.009 41.9763 566.763 42.6095L568.049 41.078C567.631 40.7269 567.413 40.3366 567.338 39.8864L565.365 40.2152ZM566.797 42.6364C567.675 43.3123 568.963 43.5469 570.43 43.5469V41.5469C569.084 41.5469 568.356 41.3127 568.016 41.0511L566.797 42.6364ZM570.43 43.5469C571.199 43.5469 572.151 43.5229 573.284 43.4757L573.201 41.4774C572.083 41.524 571.161 41.5469 570.43 41.5469V43.5469ZM572.242 42.4766V50H574.242V42.4766H572.242ZM573.024 49.0241C570.877 49.5038 568.935 49.7383 567.195 49.7383V51.7383C569.112 51.7383 571.201 51.4806 573.46 50.9759L573.024 49.0241ZM567.195 49.7383C564.301 49.7383 562.244 49.1808 560.889 48.2043L559.72 49.8269C561.552 51.1473 564.089 51.7383 567.195 51.7383V49.7383ZM560.889 48.2043C559.466 47.1785 558.596 45.9279 558.215 44.4427L556.278 44.9401C556.787 46.9237 557.956 48.5559 559.72 49.8269L560.889 48.2043ZM558.215 44.4427C557.803 42.8377 557.578 40.1904 557.578 36.4297H555.578C555.578 40.2158 555.799 43.0764 556.278 44.9401L558.215 44.4427ZM557.578 36.4297V22.2969H555.578V36.4297H557.578ZM556.578 21.2969H552.641V23.2969H556.578V21.2969ZM553.641 22.2969V14.4922H551.641V22.2969H553.641ZM552.641 15.4922H556.578V13.4922H552.641V15.4922ZM557.578 14.4922V3.59375H555.578V14.4922H557.578ZM606.781 23.0703L605.847 23.4275L605.852 23.4393L606.781 23.0703ZM600.312 22.9648L601.229 23.3657L601.231 23.3605L600.312 22.9648ZM606.852 41.3164L607.795 41.6485L607.796 41.6444L606.852 41.3164ZM616.961 32.2461C616.961 38.3078 615.775 42.6699 613.569 45.5005C611.399 48.2836 608.122 49.7383 603.547 49.7383V51.7383C608.581 51.7383 612.511 50.1109 615.146 46.73C617.745 43.3965 618.961 38.5125 618.961 32.2461H616.961ZM603.547 49.7383C598.959 49.7383 595.673 48.283 593.498 45.4995C591.286 42.6691 590.098 38.3074 590.098 32.2461H588.098C588.098 38.513 589.317 43.3973 591.922 46.7309C594.563 50.1115 598.501 51.7383 603.547 51.7383V49.7383ZM590.098 32.2461C590.098 26.1969 591.286 21.8442 593.497 19.0197C595.672 16.2419 598.959 14.7891 603.547 14.7891V12.7891C598.502 12.7891 594.564 14.4124 591.923 17.7869C589.317 21.1148 588.098 25.9906 588.098 32.2461H590.098ZM603.547 14.7891C608.122 14.7891 611.4 16.2412 613.569 19.0188C615.775 21.8434 616.961 26.1965 616.961 32.2461H618.961C618.961 25.991 617.744 21.1156 615.146 17.7878C612.51 14.4131 608.581 12.7891 603.547 12.7891V14.7891ZM608.73 32.2461C608.73 29.9644 608.651 28.032 608.488 26.4567C608.326 24.8961 608.078 23.6256 607.711 22.7013L605.852 23.4393C606.118 24.1088 606.344 25.1645 606.498 26.6625C606.652 28.1458 606.73 30.0044 606.73 32.2461H608.73ZM607.715 22.7132C607.361 21.7862 606.839 21.0124 606.11 20.4732C605.373 19.9286 604.5 19.6797 603.547 19.6797V21.6797C604.141 21.6797 604.58 21.8292 604.921 22.0815C605.27 22.3392 605.592 22.7607 605.847 23.4274L607.715 22.7132ZM603.547 19.6797C602.619 19.6797 601.767 19.9183 601.036 20.4343C600.313 20.9455 599.777 21.6814 599.394 22.5692L601.231 23.3605C601.505 22.7248 601.836 22.3182 602.19 22.0677C602.538 21.8219 602.974 21.6797 603.547 21.6797V19.6797ZM599.396 22.564C599.005 23.4579 598.747 24.7302 598.58 26.3047C598.411 27.8994 598.328 29.8828 598.328 32.2461H600.328C600.328 29.9219 600.41 28.0147 600.569 26.5156C600.73 24.9964 600.963 23.9718 601.229 23.3657L599.396 22.564ZM598.328 32.2461C598.328 36.579 598.604 39.7394 599.223 41.5975L601.121 40.965C600.615 39.4481 600.328 36.5851 600.328 32.2461H598.328ZM599.223 41.5975C599.552 42.583 600.074 43.407 600.837 43.9797C601.606 44.5558 602.531 44.8125 603.547 44.8125V42.8125C602.875 42.8125 602.394 42.6474 602.038 42.3797C601.676 42.1087 601.355 41.667 601.121 40.965L599.223 41.5975ZM603.547 44.8125C604.534 44.8125 605.436 44.5551 606.189 43.9864C606.935 43.423 607.455 42.6147 607.795 41.6485L605.908 40.9843C605.663 41.6822 605.339 42.1219 604.983 42.3905C604.635 42.6539 604.177 42.8125 603.547 42.8125V44.8125ZM607.796 41.6444C608.444 39.7803 608.73 36.602 608.73 32.2461H606.73C606.73 36.609 606.431 39.4775 605.907 40.9884L607.796 41.6444ZM623.727 14.4922V13.4922H622.727V14.4922H623.727ZM632.445 14.4922H633.445V13.4922H632.445V14.4922ZM632.445 23.0703H631.445L633.413 23.3226L632.445 23.0703ZM642.535 14.2109H643.535V13.3791L642.717 13.2277L642.535 14.2109ZM642.535 23.8789L642.407 24.8707L643.535 25.0162V23.8789H642.535ZM633.641 50V51H634.641V50H633.641ZM623.727 50H622.727V51H623.727V50ZM623.727 15.4922H632.445V13.4922H623.727V15.4922ZM631.445 14.4922V23.0703H633.445V14.4922H631.445ZM633.413 23.3226C634.176 20.3956 635.212 18.3131 636.456 16.9749C637.671 15.6679 639.116 15.0352 640.848 15.0352V13.0352C638.548 13.0352 636.577 13.9083 634.991 15.6129C633.435 17.2866 632.285 19.7216 631.478 22.818L633.413 23.3226ZM640.848 15.0352C641.263 15.0352 641.763 15.085 642.353 15.1942L642.717 13.2277C642.042 13.1025 641.416 13.0352 640.848 13.0352V15.0352ZM641.535 14.2109V23.8789H643.535V14.2109H641.535ZM642.663 22.8871C641.926 22.792 641.324 22.7383 640.883 22.7383V24.7383C641.192 24.7383 641.691 24.7783 642.407 24.8707L642.663 22.8871ZM640.883 22.7383C638.173 22.7383 636.03 23.7888 634.617 25.9295C633.251 27.9974 632.641 30.9725 632.641 34.707H634.641C634.641 31.1291 635.237 28.6198 636.286 27.0315C637.286 25.5158 638.764 24.7383 640.883 24.7383V22.7383ZM632.641 34.707V50H634.641V34.707H632.641ZM633.641 49H623.727V51H633.641V49ZM624.727 50V14.4922H622.727V50H624.727ZM669.184 11.5742V12.5742H670.184V11.5742H669.184ZM659.129 11.5742H658.129V12.5742H659.129V11.5742ZM659.129 1.76562V0.765625H658.129V1.76562H659.129ZM669.184 1.76562H670.184V0.765625H669.184V1.76562ZM659.199 14.4922V13.4922H658.199V14.4922H659.199ZM669.113 14.4922H670.113V13.4922H669.113V14.4922ZM669.113 50V51H670.113V50H669.113ZM659.199 50H658.199V51H659.199V50ZM669.184 10.5742H659.129V12.5742H669.184V10.5742ZM660.129 11.5742V1.76562H658.129V11.5742H660.129ZM659.129 2.76562H669.184V0.765625H659.129V2.76562ZM668.184 1.76562V11.5742H670.184V1.76562H668.184ZM659.199 15.4922H669.113V13.4922H659.199V15.4922ZM668.113 14.4922V50H670.113V14.4922H668.113ZM669.113 49H659.199V51H669.113V49ZM660.199 50V14.4922H658.199V50H660.199ZM693.758 2.01172V1.01172H692.758V2.01172H693.758ZM703.496 2.01172H704.496V1.01172H703.496V2.01172ZM703.496 50V51H704.496V50H703.496ZM694.32 50H693.32V51H694.32V50ZM694.32 44.1289H695.32L693.378 43.7955L694.32 44.1289ZM678.078 18.5703L677.262 17.9926L677.259 17.9969L678.078 18.5703ZM693.758 17.7969L692.884 18.2825L694.758 21.656V17.7969H693.758ZM692.633 22.3672L691.778 22.8866L691.784 22.8965L691.791 22.9062L692.633 22.3672ZM686.023 23.0352L685.086 22.6869L685.082 22.6988L686.023 23.0352ZM692.492 42.0898L691.711 41.4651L691.71 41.4673L692.492 42.0898ZM693.758 3.01172H703.496V1.01172H693.758V3.01172ZM702.496 2.01172V50H704.496V2.01172H702.496ZM703.496 49H694.32V51H703.496V49ZM695.32 50V44.1289H693.32V50H695.32ZM693.378 43.7955C692.671 45.7927 691.715 47.2033 690.555 48.1155C689.407 49.0189 687.987 49.4922 686.234 49.4922V51.4922C688.372 51.4922 690.245 50.9049 691.792 49.6872C693.328 48.4783 694.469 46.7073 695.263 44.4623L693.378 43.7955ZM686.234 49.4922C682.775 49.4922 680.26 48.0227 678.563 45.0092L676.82 45.9908C678.872 49.6336 682.053 51.4922 686.234 51.4922V49.4922ZM678.563 45.0092C676.8 41.8805 675.879 37.6966 675.879 32.3867H673.879C673.879 37.905 674.833 42.4633 676.82 45.9908L678.563 45.0092ZM675.879 32.3867C675.879 26.3057 676.937 21.9445 678.897 19.1438L677.259 17.9969C674.954 21.2899 673.879 26.1396 673.879 32.3867H675.879ZM678.894 19.148C680.872 16.3531 683.445 15 686.691 15V13C682.766 13 679.596 14.6937 677.262 17.9926L678.894 19.148ZM686.691 15C689.695 15 691.682 16.1195 692.884 18.2825L694.632 17.3112C693.021 14.4118 690.297 13 686.691 13V15ZM694.758 17.7969V2.01172H692.758V17.7969H694.758ZM694.758 29.3633C694.758 27.5866 694.663 26.0733 694.464 24.8364C694.268 23.6165 693.958 22.5832 693.475 21.8281L691.791 22.9062C692.057 23.3231 692.31 24.0417 692.489 25.1539C692.665 26.249 692.758 27.6477 692.758 29.3633H694.758ZM693.487 21.8478C692.578 20.3521 691.187 19.5742 689.434 19.5742V21.5742C690.493 21.5742 691.234 21.9916 691.778 22.8866L693.487 21.8478ZM689.434 19.5742C688.432 19.5742 687.517 19.8238 686.748 20.3786C685.983 20.9305 685.442 21.7272 685.086 22.687L686.961 23.3833C687.214 22.7025 687.546 22.2687 687.918 22.0004C688.286 21.7348 688.771 21.5742 689.434 21.5742V19.5742ZM685.082 22.6988C684.744 23.6443 684.516 25.0089 684.368 26.7286C684.218 28.4668 684.145 30.6366 684.145 33.2305H686.145C686.145 30.6681 686.217 28.5605 686.361 26.9003C686.505 25.2215 686.717 24.0666 686.965 23.3715L685.082 22.6988ZM684.145 33.2305C684.145 37.0793 684.466 39.9565 685.208 41.707L687.049 40.9259C686.48 39.5825 686.145 37.0692 686.145 33.2305H684.145ZM685.208 41.707C685.589 42.6049 686.124 43.3504 686.847 43.8692C687.577 44.3934 688.433 44.6367 689.363 44.6367V42.6367C688.794 42.6367 688.36 42.4933 688.013 42.2441C687.658 41.9894 687.325 41.5748 687.049 40.9259L685.208 41.707ZM689.363 44.6367C690.948 44.6367 692.274 43.9707 693.275 42.7124L691.71 41.4673C691.07 42.2714 690.31 42.6367 689.363 42.6367V44.6367ZM693.273 42.7145C693.839 42.0069 694.198 41.0267 694.423 39.8835C694.65 38.7252 694.758 37.3105 694.758 35.6562H692.758C692.758 37.2363 692.654 38.5111 692.46 39.4974C692.263 40.4987 691.989 41.1181 691.711 41.4651L693.273 42.7145ZM694.758 35.6562V29.3633H692.758V35.6562H694.758ZM738.09 33.8984V34.8984H739.09V33.8984H738.09ZM719.457 33.8984V32.8984H718.457V33.8984H719.457ZM729.266 37.8008L729.329 36.8028L728.359 36.741L728.27 37.7087L729.266 37.8008ZM738.09 38.3633L739.072 38.5503L739.284 37.4374L738.153 37.3653L738.09 38.3633ZM713.199 18.6758L712.426 18.0416L712.426 18.0422L713.199 18.6758ZM734.012 18.1133L733.281 18.7963L733.287 18.8023L734.012 18.1133ZM728.738 28.168V29.168H729.684L729.737 28.2234L728.738 28.168ZM719.527 28.168L718.527 28.1635L718.523 29.168H719.527V28.168ZM738.09 32.8984H719.457V34.8984H738.09V32.8984ZM718.457 33.8984V35.8672H720.457V33.8984H718.457ZM718.457 35.8672C718.457 37.5 718.568 38.9021 718.802 40.0566C719.034 41.1988 719.404 42.1775 719.979 42.8924L721.537 41.6389C721.245 41.2756 720.964 40.6489 720.762 39.6582C720.563 38.6799 720.457 37.4218 720.457 35.8672H718.457ZM719.979 42.8924C721.039 44.211 722.465 44.8828 724.168 44.8828V42.8828C723.059 42.8828 722.211 42.4765 721.537 41.6389L719.979 42.8924ZM724.168 44.8828C725.928 44.8828 727.408 44.2789 728.476 43.0047C729.51 41.7718 730.065 40.0209 730.261 37.8929L728.27 37.7087C728.092 39.6354 727.609 40.9254 726.944 41.7199C726.312 42.473 725.431 42.8828 724.168 42.8828V44.8828ZM729.202 38.7988L738.026 39.3613L738.153 37.3653L729.329 36.8028L729.202 38.7988ZM737.107 38.1763C736.35 42.1572 734.861 45.0208 732.728 46.893C730.603 48.758 727.727 49.7383 723.992 49.7383V51.7383C728.086 51.7383 731.473 50.6561 734.047 48.3961C736.614 46.1432 738.26 42.8194 739.072 38.5503L737.107 38.1763ZM723.992 49.7383C719.413 49.7383 716.065 48.2089 713.781 45.2416L712.196 46.4615C714.927 50.0099 718.915 51.7383 723.992 51.7383V49.7383ZM713.781 45.2416C711.446 42.2083 710.227 38.086 710.227 32.7734H708.227C708.227 38.3828 709.515 42.9792 712.196 46.4615L713.781 45.2416ZM710.227 32.7734C710.227 26.7343 711.526 22.2973 713.973 19.3093L712.426 18.0422C709.575 21.523 708.227 26.4844 708.227 32.7734H710.227ZM713.972 19.3099C716.441 16.2998 719.723 14.7891 723.922 14.7891V12.7891C719.167 12.7891 715.301 14.5361 712.426 18.0416L713.972 19.3099ZM723.922 14.7891C727.683 14.7891 730.78 16.1205 733.281 18.7962L734.742 17.4303C731.853 14.3404 728.223 12.7891 723.922 12.7891V14.7891ZM733.287 18.8023C735.723 21.3648 737.09 26.2796 737.09 33.8984H739.09C739.09 26.1892 737.737 20.5805 734.736 17.4242L733.287 18.8023ZM729.737 28.2234C729.761 27.7952 729.773 27.4456 729.773 27.1836H727.773C727.773 27.3904 727.763 27.697 727.74 28.1125L729.737 28.2234ZM729.773 27.1836C729.773 24.8169 729.379 22.866 728.441 21.4814C727.457 20.0273 725.965 19.3281 724.133 19.3281V21.3281C725.395 21.3281 726.223 21.7716 726.785 22.6026C727.395 23.5032 727.773 24.9799 727.773 27.1836H729.773ZM724.133 19.3281C722.257 19.3281 720.782 20.1672 719.834 21.7816C718.934 23.3143 718.539 25.4855 718.527 28.1635L720.527 28.1725C720.539 25.6239 720.924 23.8752 721.559 22.7946C722.145 21.7957 722.962 21.3281 724.133 21.3281V19.3281ZM719.527 29.168H728.738V27.168H719.527V29.168ZM753.383 25.7773L753.286 26.7726L754.308 26.8721L754.38 25.8481L753.383 25.7773ZM743.996 24.8633L743.004 24.7392L742.876 25.759L743.899 25.8586L743.996 24.8633ZM748.531 16.6367L747.937 15.8324L747.934 15.835L748.531 16.6367ZM766.355 15.6875L765.817 16.53L765.824 16.5344L766.355 15.6875ZM770.152 20.1172L769.196 20.4094L769.2 20.4215L770.152 20.1172ZM771.559 50V51H773.137L772.463 49.573L771.559 50ZM762.383 50L761.436 50.3231L761.668 51H762.383V50ZM761.891 44.5508H762.891L761.006 44.0836L761.891 44.5508ZM745.402 48.2773L744.71 48.9989L744.715 49.0038L745.402 48.2773ZM746.738 31.8594L747.373 32.6321L747.377 32.6287L746.738 31.8594ZM761.082 27.957L761.143 28.9552L762.082 28.8981V27.957H761.082ZM760.344 21.6992L759.454 22.1555L759.459 22.1645L759.463 22.1733L760.344 21.6992ZM761.082 33.0195H762.082V31.8993L760.969 32.0259L761.082 33.0195ZM754.895 34.9531L755.504 35.7458L755.506 35.7441L754.895 34.9531ZM759.605 42.2305L758.796 41.644L758.794 41.6465L759.605 42.2305ZM753.48 24.7821L744.093 23.868L743.899 25.8586L753.286 26.7726L753.48 24.7821ZM744.988 24.9873C745.404 21.6604 746.796 19.1778 749.129 17.4385L747.934 15.835C745.111 17.9394 743.479 20.9412 743.004 24.7392L744.988 24.9873ZM749.125 17.441C751.52 15.6719 754.569 14.7539 758.34 14.7539V12.7539C754.236 12.7539 750.745 13.7578 747.937 15.8324L749.125 17.441ZM758.34 14.7539C761.549 14.7539 764.013 15.3766 765.817 16.5299L766.894 14.8451C764.666 13.4203 761.787 12.7539 758.34 12.7539V14.7539ZM765.824 16.5344C767.707 17.7171 768.772 19.0215 769.196 20.4094L771.109 19.825C770.502 17.8379 769.035 16.1892 766.887 14.8406L765.824 16.5344ZM769.2 20.4215C769.69 21.9551 769.961 24.4397 769.961 27.957H771.961C771.961 24.3962 771.693 21.6543 771.105 19.8129L769.2 20.4215ZM769.961 27.957V42.125H771.961V27.957H769.961ZM769.961 42.125C769.961 44.339 770.011 46.1253 770.113 47.4741C770.164 48.1481 770.23 48.7271 770.312 49.203C770.391 49.6617 770.496 50.0914 770.654 50.427L772.463 49.573C772.422 49.4867 772.353 49.2719 772.283 48.8634C772.215 48.4722 772.156 47.9613 772.107 47.3228C772.011 46.0465 771.961 44.3172 771.961 42.125H769.961ZM771.559 49H762.383V51H771.559V49ZM763.329 49.6769C763.062 48.8937 762.891 47.2358 762.891 44.5508H760.891C760.891 47.2095 761.048 49.1844 761.436 50.3231L763.329 49.6769ZM761.006 44.0836C759.981 46.025 758.733 47.4273 757.285 48.3474C755.841 49.2647 754.142 49.7383 752.152 49.7383V51.7383C754.475 51.7383 756.555 51.1806 758.358 50.0354C760.156 48.893 761.621 47.2015 762.775 45.018L761.006 44.0836ZM752.152 49.7383C749.599 49.7383 747.609 48.9881 746.09 47.5509L744.715 49.0038C746.665 50.8478 749.175 51.7383 752.152 51.7383V49.7383ZM746.095 47.5558C744.614 46.1346 743.801 44.0169 743.801 41.0352H741.801C741.801 44.3816 742.722 47.0919 744.71 48.9989L746.095 47.5558ZM743.801 41.0352C743.801 37.318 745.019 34.5658 747.373 32.6321L746.104 31.0866C743.208 33.4654 741.801 36.8304 741.801 41.0352H743.801ZM747.377 32.6287C749.739 30.6673 754.235 29.3752 761.143 28.9552L761.021 26.9589C754.054 27.3826 748.987 28.692 746.099 31.09L747.377 32.6287ZM762.082 27.957V26.6211H760.082V27.957H762.082ZM762.082 26.6211C762.082 24.2493 761.846 22.3804 761.224 21.2251L759.463 22.1733C759.826 22.8462 760.082 24.2585 760.082 26.6211H762.082ZM761.234 21.2429C760.534 19.8794 759.174 19.3281 757.566 19.3281V21.3281C758.725 21.3281 759.216 21.6909 759.454 22.1555L761.234 21.2429ZM757.566 19.3281C756.028 19.3281 754.737 19.8984 753.829 21.0815C752.961 22.212 752.521 23.8003 752.385 25.7066L754.38 25.8481C754.503 24.1216 754.889 22.9852 755.415 22.2994C755.901 21.6661 756.574 21.3281 757.566 21.3281V19.3281ZM760.969 32.0259C758.035 32.3598 755.747 33.0296 754.283 34.1622L755.506 35.7441C756.527 34.9548 758.363 34.3355 761.195 34.0131L760.969 32.0259ZM754.285 34.1605C752.722 35.363 752.066 37.3238 752.066 39.7344H754.066C754.066 37.6449 754.63 36.4182 755.504 35.7457L754.285 34.1605ZM752.066 39.7344C752.066 41.3273 752.354 42.7032 753.087 43.7013C753.862 44.757 755.018 45.2344 756.371 45.2344V43.2344C755.522 43.2344 755.025 42.9618 754.699 42.5175C754.33 42.0155 754.066 41.1415 754.066 39.7344H752.066ZM756.371 45.2344C758 45.2344 759.345 44.3053 760.417 42.8144L758.794 41.6465C757.944 42.8275 757.133 43.2344 756.371 43.2344V45.2344ZM760.415 42.817C761.602 41.1779 762.082 38.4027 762.082 34.7773H760.082C760.082 38.3708 759.577 40.5643 758.796 41.644L760.415 42.817ZM762.082 34.7773V33.0195H760.082V34.7773H762.082ZM785.691 18.5L785.552 19.4903L786.687 19.6498L786.691 18.5041L785.691 18.5ZM776.691 17.2344L775.692 17.2147L775.674 18.1012L776.552 18.2246L776.691 17.2344ZM780.629 5.70312L781.386 6.35691L781.388 6.35392L780.629 5.70312ZM803.938 21.7695L804.804 22.268L804.807 22.2634L803.938 21.7695ZM798.488 27.9922L797.823 27.2452L797.821 27.2475L798.488 27.9922ZM795.184 31.6836L794.279 31.2566L794.274 31.2678L795.184 31.6836ZM794.621 36.2539V37.2539H795.621V36.2539H794.621ZM786.184 36.2539H785.184V37.2539H786.184V36.2539ZM786.641 28.3789L785.671 28.1322L785.668 28.1449L786.641 28.3789ZM790.297 23.3516L789.599 22.635L789.598 22.6366L790.297 23.3516ZM793.918 18.957L793.041 18.477L793.037 18.4829L793.918 18.957ZM785.691 39.7695V38.7695H784.691V39.7695H785.691ZM795.113 39.7695H796.113V38.7695H795.113V39.7695ZM795.113 50V51H796.113V50H795.113ZM785.691 50H784.691V51H785.691V50ZM785.831 17.5097L776.831 16.2441L776.552 18.2246L785.552 19.4903L785.831 17.5097ZM777.691 17.2541C777.781 12.6743 779.039 9.07233 781.386 6.3569L779.872 5.04935C777.156 8.19329 775.789 12.2789 775.692 17.2147L777.691 17.2541ZM781.388 6.35392C783.691 3.66671 786.986 2.27344 791.422 2.27344V0.273438C786.53 0.273438 782.629 1.83329 779.87 5.05233L781.388 6.35392ZM791.422 2.27344C796.172 2.27344 799.419 3.57035 801.412 5.95725L802.947 4.67557C800.44 1.67183 796.516 0.273438 791.422 0.273438V2.27344ZM801.412 5.95725C803.508 8.4686 804.555 11.3811 804.555 14.7383H806.555C806.555 10.9236 805.351 7.55484 802.947 4.67557L801.412 5.95725ZM804.555 14.7383C804.555 17.4013 804.04 19.564 803.068 21.2757L804.807 22.2634C805.991 20.1782 806.555 17.6534 806.555 14.7383H804.555ZM803.071 21.2711C802.068 23.0149 800.339 25.0067 797.823 27.2452L799.153 28.7392C801.747 26.4308 803.651 24.2741 804.804 22.268L803.071 21.2711ZM797.821 27.2475C796.903 28.0703 796.147 28.809 795.564 29.4609C794.99 30.1019 794.54 30.7051 794.279 31.2566L796.088 32.1106C796.226 31.8184 796.526 31.3845 797.054 30.7949C797.572 30.2164 798.269 29.5312 799.156 28.7369L797.821 27.2475ZM794.274 31.2678C793.798 32.3085 793.621 34.0356 793.621 36.2539H795.621C795.621 34.0191 795.819 32.6993 796.093 32.0994L794.274 31.2678ZM794.621 35.2539H786.184V37.2539H794.621V35.2539ZM787.184 36.2539V34.6719H785.184V36.2539H787.184ZM787.184 34.6719C787.184 31.748 787.338 29.7538 787.613 28.613L785.668 28.1449C785.334 29.5352 785.184 31.7364 785.184 34.6719H787.184ZM787.61 28.6256C787.863 27.6295 788.894 26.1223 790.996 24.0666L789.598 22.6366C787.481 24.7058 786.074 26.5502 785.672 28.1322L787.61 28.6256ZM790.994 24.0682C792.778 22.332 794.07 20.7833 794.798 19.4311L793.037 18.4829C792.453 19.5683 791.331 20.9492 789.599 22.635L790.994 24.0682ZM794.795 19.437C795.571 18.0199 795.938 16.3713 795.938 14.5273H793.938C793.938 16.1053 793.625 17.4097 793.041 18.477L794.795 19.437ZM795.938 14.5273C795.938 12.7926 795.482 11.3111 794.393 10.2841L793.021 11.7393C793.572 12.2592 793.938 13.1214 793.938 14.5273H795.938ZM794.393 10.2841C793.392 9.34029 792.187 8.85156 790.824 8.85156V10.8516C791.664 10.8516 792.381 11.1363 793.021 11.7393L794.393 10.2841ZM790.824 8.85156C788.778 8.85156 787.171 9.75323 786.132 11.5033C785.142 13.1721 784.703 15.5473 784.691 18.4959L786.691 18.5041C786.703 15.6871 787.132 13.7381 787.852 12.524C788.524 11.3913 789.472 10.8516 790.824 10.8516V8.85156ZM785.691 40.7695H795.113V38.7695H785.691V40.7695ZM794.113 39.7695V50H796.113V39.7695H794.113ZM795.113 49H785.691V51H795.113V49ZM786.691 50V39.7695H784.691V50H786.691Z" fill="#F5F5F5"/>
</svg>
