<svg width="641" height="65" viewBox="0 0 641 65" fill="none" xmlns="http://www.w3.org/2000/svg">
<path d="M1.81641 3.01172H12.3633V42H27.832V51H1.81641V3.01172ZM58.9102 34.8984H40.2773V36.8672C40.2773 40.0547 40.7109 42.1875 41.5781 43.2656C42.4453 44.3438 43.582 44.8828 44.9883 44.8828C48.0117 44.8828 49.7109 42.8555 50.0859 38.8008L58.9102 39.3633C57.3398 47.6133 52.6406 51.7383 44.8125 51.7383C39.9844 51.7383 36.3164 50.1094 33.8086 46.8516C31.3008 43.5938 30.0469 39.2344 30.0469 33.7734C30.0469 27.6094 31.3711 22.9102 34.0195 19.6758C36.6914 16.418 40.2656 14.7891 44.7422 14.7891C48.7734 14.7891 52.1367 16.2305 54.832 19.1133C57.5508 21.9727 58.9102 27.2344 58.9102 34.8984ZM49.5586 29.168C49.582 28.7461 49.5938 28.418 49.5938 28.1836C49.5938 23.6133 48.0469 21.3281 44.9531 21.3281C41.9062 21.3281 40.3711 23.9414 40.3477 29.168H49.5586ZM66.1875 4.59375L75.8203 4.27734V15.4922H82.3594V23.2969H75.8203V36.3398C75.8203 38.7539 75.8672 40.3242 75.9609 41.0508C76.0781 41.7539 76.4297 42.3516 77.0156 42.8438C77.625 43.3125 78.6328 43.5469 80.0391 43.5469C80.7891 43.5469 81.7266 43.5234 82.8516 43.4766V51C80.6484 51.4922 78.6328 51.7383 76.8047 51.7383C73.8047 51.7383 71.5078 51.1641 69.9141 50.0156C68.3203 48.8672 67.3008 47.4258 66.8555 45.6914C66.4102 43.957 66.1875 41.2031 66.1875 37.4297V23.2969H62.25V15.4922H66.1875V4.59375ZM87.2109 3.01172H96.2109V13.6289L91.0781 23.0508H87.2109L91.1836 13.6289H87.2109V3.01172ZM127.359 24.0352L120.293 26.1445C119.355 22.9336 117.621 21.3281 115.09 21.3281C113.027 21.3281 111.996 22.3594 111.996 24.4219C111.996 25.5938 112.383 26.4844 113.156 27.0938C113.93 27.7031 115.523 28.4297 117.938 29.2734C120.656 30.2344 122.648 31.0781 123.914 31.8047C125.18 32.5312 126.246 33.6328 127.113 35.1094C127.98 36.5625 128.414 38.2383 128.414 40.1367C128.414 43.418 127.23 46.1719 124.863 48.3984C122.496 50.625 119.191 51.7383 114.949 51.7383C106.957 51.7383 102.527 48.2109 101.66 41.1562L109.535 39.8906C110.191 43.4297 112.055 45.1992 115.125 45.1992C117.75 45.1992 119.062 44.0977 119.062 41.8945C119.062 40.7227 118.676 39.832 117.902 39.2227C117.129 38.6133 115.629 37.957 113.402 37.2539C109.324 35.9414 106.523 34.3594 105 32.5078C103.477 30.6562 102.715 28.5117 102.715 26.0742C102.715 22.6523 103.91 19.9102 106.301 17.8477C108.715 15.7852 111.727 14.7539 115.336 14.7539C121.641 14.7539 125.648 17.8477 127.359 24.0352ZM146.836 3.01172H156.574V18.832C158.496 16.2773 160.957 15 163.957 15C167.238 15 169.969 16.4766 172.148 19.4297C174.328 22.3828 175.418 26.918 175.418 33.0352C175.418 38.918 174.352 43.5117 172.219 46.8164C170.086 50.0977 166.969 51.7383 162.867 51.7383C158.836 51.7383 156.07 49.9453 154.57 46.3594C153.891 47.5781 153.27 49.125 152.707 51H146.836V3.01172ZM156.574 36.2695C156.574 39.5273 156.879 41.7773 157.488 43.0195C158.098 44.2617 159.176 44.8828 160.723 44.8828C162.434 44.8828 163.605 44.0039 164.238 42.2461C164.871 40.4648 165.188 37.4766 165.188 33.2812C165.188 29.2266 164.883 26.2617 164.273 24.3867C163.664 22.5117 162.539 21.5742 160.898 21.5742C158.016 21.5742 156.574 23.7422 156.574 28.0781V36.2695ZM181.219 15.4922H189.938V24.0703C191.508 18.0469 194.309 15.0352 198.34 15.0352C198.832 15.0352 199.395 15.0938 200.027 15.2109V24.8789C199.301 24.7852 198.75 24.7383 198.375 24.7383C193.547 24.7383 191.133 28.3945 191.133 35.707V51H181.219V15.4922ZM213.246 12.5742H203.191V2.76562H213.246V12.5742ZM203.262 15.4922H213.176V51H203.262V15.4922ZM220.453 15.4922H229.84V20.3438C231.48 16.6406 234.445 14.7891 238.734 14.7891C241.055 14.7891 242.965 15.3164 244.465 16.3711C245.988 17.4023 246.961 18.7266 247.383 20.3438C247.805 21.9609 248.016 24.4219 248.016 27.7266V51H238.102V27.7266C238.102 25.3359 237.797 23.8594 237.188 23.2969C236.578 22.7344 235.758 22.4531 234.727 22.4531C232.945 22.4531 231.773 23.0039 231.211 24.1055C230.648 25.1836 230.367 27.2109 230.367 30.1875V51H220.453V15.4922ZM285.035 9.65625V16.125C284.285 15.9375 283.57 15.8438 282.891 15.8438C280.828 15.8438 279.574 16.9102 279.129 19.043C280.887 20.8945 281.766 23.2617 281.766 26.1445C281.766 29.3555 280.57 31.9336 278.18 33.8789C275.789 35.8008 272.695 36.7617 268.898 36.7617C267.445 36.7617 265.91 36.5625 264.293 36.1641C262.746 37.0078 261.973 37.9805 261.973 39.082C261.973 39.9727 262.406 40.5586 263.273 40.8398C264.141 41.1211 266.508 41.3672 270.375 41.5781C273.938 41.7891 276.598 42.1406 278.355 42.6328C280.137 43.125 281.613 44.1328 282.785 45.6562C283.98 47.1797 284.578 49.1836 284.578 51.668C284.578 59.5898 278.801 63.5508 267.246 63.5508C257.543 63.5508 252.691 60.7266 252.691 55.0781C252.691 51.9609 254.625 49.7578 258.492 48.4688C255.398 47.0156 253.852 44.9648 253.852 42.3164C253.852 39.2695 255.891 36.668 259.969 34.5117C256.453 32.7773 254.695 29.8242 254.695 25.6523C254.695 22.1133 255.902 19.418 258.316 17.5664C260.754 15.7148 264 14.7891 268.055 14.7891C270.75 14.7891 273.281 15.3047 275.648 16.3359C275.906 13.8047 276.539 12 277.547 10.9219C278.555 9.84375 280.137 9.30469 282.293 9.30469C283.324 9.30469 284.238 9.42187 285.035 9.65625ZM271.535 25.8281C271.535 22.0078 270.492 20.0977 268.406 20.0977C267.141 20.0977 266.238 20.5664 265.699 21.5039C265.184 22.418 264.926 23.9414 264.926 26.0742C264.926 29.6602 266.062 31.4531 268.336 31.4531C269.484 31.4531 270.305 31.0312 270.797 30.1875C271.289 29.3438 271.535 27.8906 271.535 25.8281ZM263.977 49.4531C261.891 50.4141 260.848 51.8438 260.848 53.7422C260.848 56.1328 263.566 57.3281 269.004 57.3281C273.668 57.3281 276 56.0859 276 53.6016C276 52.6875 275.742 51.9375 275.227 51.3516C274.734 50.7891 274.09 50.4375 273.293 50.2969C272.52 50.1328 270.879 49.9922 268.371 49.875C266.895 49.7812 265.43 49.6406 263.977 49.4531ZM311.332 12.5742H301.277V2.76562H311.332V12.5742ZM301.348 15.4922H311.262V51H301.348V15.4922ZM320.016 4.59375L329.648 4.27734V15.4922H336.188V23.2969H329.648V36.3398C329.648 38.7539 329.695 40.3242 329.789 41.0508C329.906 41.7539 330.258 42.3516 330.844 42.8438C331.453 43.3125 332.461 43.5469 333.867 43.5469C334.617 43.5469 335.555 43.5234 336.68 43.4766V51C334.477 51.4922 332.461 51.7383 330.633 51.7383C327.633 51.7383 325.336 51.1641 323.742 50.0156C322.148 48.8672 321.129 47.4258 320.684 45.6914C320.238 43.957 320.016 41.2031 320.016 37.4297V23.2969H316.078V15.4922H320.016V4.59375ZM355.523 4.59375L365.156 4.27734V15.4922H371.695V23.2969H365.156V36.3398C365.156 38.7539 365.203 40.3242 365.297 41.0508C365.414 41.7539 365.766 42.3516 366.352 42.8438C366.961 43.3125 367.969 43.5469 369.375 43.5469C370.125 43.5469 371.062 43.5234 372.188 43.4766V51C369.984 51.4922 367.969 51.7383 366.141 51.7383C363.141 51.7383 360.844 51.1641 359.25 50.0156C357.656 48.8672 356.637 47.4258 356.191 45.6914C355.746 43.957 355.523 41.2031 355.523 37.4297V23.2969H351.586V15.4922H355.523V4.59375ZM403.688 33.2461C403.688 45.5742 398.883 51.7383 389.273 51.7383C379.641 51.7383 374.824 45.5742 374.824 33.2461C374.824 20.9414 379.641 14.7891 389.273 14.7891C398.883 14.7891 403.688 20.9414 403.688 33.2461ZM393.457 33.2461C393.457 28.7227 393.141 25.6641 392.508 24.0703C391.898 22.4766 390.82 21.6797 389.273 21.6797C387.773 21.6797 386.695 22.4414 386.039 23.9648C385.383 25.4648 385.055 28.5586 385.055 33.2461C385.055 37.582 385.336 40.5938 385.898 42.2812C386.461 43.9688 387.586 44.8125 389.273 44.8125C390.891 44.8125 391.992 43.9805 392.578 42.3164C393.164 40.6289 393.457 37.6055 393.457 33.2461ZM434.062 15.4922H440.32V23.2969H434.062V51H424.57V23.2969H420.527V15.4922H424.57C424.594 12 424.863 9.38672 425.379 7.65234C425.895 5.91797 427.008 4.39453 428.719 3.08203C430.43 1.76953 432.762 1.11328 435.715 1.11328C437.449 1.11328 439.113 1.23047 440.707 1.46484V9.19922C439.91 9.10547 439.172 9.05859 438.492 9.05859C436.594 9.05859 435.375 9.46875 434.836 10.2891C434.32 11.0859 434.062 12.8203 434.062 15.4922ZM443.766 15.4922H452.484V24.0703C454.055 18.0469 456.855 15.0352 460.887 15.0352C461.379 15.0352 461.941 15.0938 462.574 15.2109V24.8789C461.848 24.7852 461.297 24.7383 460.922 24.7383C456.094 24.7383 453.68 28.3945 453.68 35.707V51H443.766V15.4922ZM465.352 15.4922H475.266V38.2734C475.266 40.5703 475.477 42.1055 475.898 42.8789C476.32 43.6523 477.234 44.0391 478.641 44.0391C479.93 44.0391 480.902 43.7227 481.559 43.0898C482.238 42.457 482.648 41.5898 482.789 40.4883C482.93 39.3633 483 37.0664 483 33.5977V15.4922H492.914V51H483.598V46.1484C482.191 48.5625 480.785 50.0977 479.379 50.7539C477.996 51.4102 476.355 51.7383 474.457 51.7383C471.902 51.7383 469.945 51.2109 468.586 50.1562C467.227 49.1016 466.348 47.7656 465.949 46.1484C465.551 44.5312 465.352 42.0117 465.352 38.5898V15.4922ZM510.176 12.5742H500.121V2.76562H510.176V12.5742ZM500.191 15.4922H510.105V51H500.191V15.4922ZM518.859 4.59375L528.492 4.27734V15.4922H535.031V23.2969H528.492V36.3398C528.492 38.7539 528.539 40.3242 528.633 41.0508C528.75 41.7539 529.102 42.3516 529.688 42.8438C530.297 43.3125 531.305 43.5469 532.711 43.5469C533.461 43.5469 534.398 43.5234 535.523 43.4766V51C533.32 51.4922 531.305 51.7383 529.477 51.7383C526.477 51.7383 524.18 51.1641 522.586 50.0156C520.992 48.8672 519.973 47.4258 519.527 45.6914C519.082 43.957 518.859 41.2031 518.859 37.4297V23.2969H514.922V15.4922H518.859V4.59375ZM549.41 12.5742H539.355V2.76562H549.41V12.5742ZM539.426 15.4922H549.34V51H539.426V15.4922ZM583.969 33.2461C583.969 45.5742 579.164 51.7383 569.555 51.7383C559.922 51.7383 555.105 45.5742 555.105 33.2461C555.105 20.9414 559.922 14.7891 569.555 14.7891C579.164 14.7891 583.969 20.9414 583.969 33.2461ZM573.738 33.2461C573.738 28.7227 573.422 25.6641 572.789 24.0703C572.18 22.4766 571.102 21.6797 569.555 21.6797C568.055 21.6797 566.977 22.4414 566.32 23.9648C565.664 25.4648 565.336 28.5586 565.336 33.2461C565.336 37.582 565.617 40.5938 566.18 42.2812C566.742 43.9688 567.867 44.8125 569.555 44.8125C571.172 44.8125 572.273 43.9805 572.859 42.3164C573.445 40.6289 573.738 37.6055 573.738 33.2461ZM589.734 15.4922H599.121V20.3438C600.762 16.6406 603.727 14.7891 608.016 14.7891C610.336 14.7891 612.246 15.3164 613.746 16.3711C615.27 17.4023 616.242 18.7266 616.664 20.3438C617.086 21.9609 617.297 24.4219 617.297 27.7266V51H607.383V27.7266C607.383 25.3359 607.078 23.8594 606.469 23.2969C605.859 22.7344 605.039 22.4531 604.008 22.4531C602.227 22.4531 601.055 23.0039 600.492 24.1055C599.93 25.1836 599.648 27.2109 599.648 30.1875V51H589.734V15.4922ZM626.402 3.01172H639.059L635.93 36.6914H629.496L626.402 3.01172ZM627.809 40.3828H637.617V51H627.809V40.3828Z" fill="#F5F5F5" fill-opacity="0.5"/>
<path d="M1.81641 3.01172V2.01172H0.816406V3.01172H1.81641ZM12.3633 3.01172H13.3633V2.01172H12.3633V3.01172ZM12.3633 42H11.3633V43H12.3633V42ZM27.832 42H28.832V41H27.832V42ZM27.832 51V52H28.832V51H27.832ZM1.81641 51H0.816406V52H1.81641V51ZM1.81641 4.01172H12.3633V2.01172H1.81641V4.01172ZM11.3633 3.01172V42H13.3633V3.01172H11.3633ZM12.3633 43H27.832V41H12.3633V43ZM26.832 42V51H28.832V42H26.832ZM27.832 50H1.81641V52H27.832V50ZM2.81641 51V3.01172H0.816406V51H2.81641ZM58.9102 34.8984V35.8984H59.9102V34.8984H58.9102ZM40.2773 34.8984V33.8984H39.2773V34.8984H40.2773ZM50.0859 38.8008L50.1496 37.8028L49.1797 37.741L49.0902 38.7087L50.0859 38.8008ZM58.9102 39.3633L59.8925 39.5503L60.1043 38.4374L58.9738 38.3653L58.9102 39.3633ZM34.0195 19.6758L33.2463 19.0416L33.2458 19.0422L34.0195 19.6758ZM54.832 19.1133L54.1015 19.7963L54.1073 19.8023L54.832 19.1133ZM49.5586 29.168V30.168H50.5046L50.5571 29.2234L49.5586 29.168ZM40.3477 29.168L39.3477 29.1635L39.3432 30.168H40.3477V29.168ZM58.9102 33.8984H40.2773V35.8984H58.9102V33.8984ZM39.2773 34.8984V36.8672H41.2773V34.8984H39.2773ZM39.2773 36.8672C39.2773 38.5 39.3879 39.9021 39.6226 41.0566C39.8548 42.1988 40.2239 43.1775 40.7989 43.8924L42.3573 42.6389C42.0651 42.2756 41.7839 41.6489 41.5825 40.6582C41.3836 39.6799 41.2773 38.4218 41.2773 36.8672H39.2773ZM40.7989 43.8924C41.8595 45.211 43.2849 45.8828 44.9883 45.8828V43.8828C43.8791 43.8828 43.0311 43.4765 42.3573 42.6389L40.7989 43.8924ZM44.9883 45.8828C46.7485 45.8828 48.2286 45.2789 49.2967 44.0047C50.33 42.7718 50.8849 41.0209 51.0817 38.8929L49.0902 38.7087C48.912 40.6354 48.4298 41.9254 47.7639 42.7199C47.1327 43.473 46.2515 43.8828 44.9883 43.8828V45.8828ZM50.0223 39.7988L58.8465 40.3613L58.9738 38.3653L50.1496 37.8028L50.0223 39.7988ZM57.9278 39.1763C57.1701 43.1572 55.6811 46.0208 53.5483 47.893C51.4237 49.758 48.5471 50.7383 44.8125 50.7383V52.7383C48.906 52.7383 52.2931 51.6561 54.8677 49.3961C57.4341 47.1432 59.0799 43.8194 59.8925 39.5503L57.9278 39.1763ZM44.8125 50.7383C40.2338 50.7383 36.8852 49.2089 34.601 46.2416L33.0162 47.4615C35.7476 51.0099 39.735 52.7383 44.8125 52.7383V50.7383ZM34.601 46.2416C32.2661 43.2083 31.0469 39.086 31.0469 33.7734H29.0469C29.0469 39.3828 30.3355 43.9792 33.0162 47.4615L34.601 46.2416ZM31.0469 33.7734C31.0469 27.7343 32.3466 23.2973 34.7932 20.3093L33.2458 19.0422C30.3956 22.523 29.0469 27.4844 29.0469 33.7734H31.0469ZM34.7927 20.3099C37.2615 17.2998 40.5437 15.7891 44.7422 15.7891V13.7891C39.9876 13.7891 36.1213 15.5361 33.2463 19.0416L34.7927 20.3099ZM44.7422 15.7891C48.5033 15.7891 51.5999 17.1205 54.1016 19.7962L55.5625 18.4303C52.6735 15.3404 49.0436 13.7891 44.7422 13.7891V15.7891ZM54.1073 19.8023C56.5438 22.3648 57.9102 27.2796 57.9102 34.8984H59.9102C59.9102 27.1892 58.5578 21.5805 55.5567 18.4242L54.1073 19.8023ZM50.5571 29.2234C50.5808 28.7952 50.5938 28.4456 50.5938 28.1836H48.5938C48.5938 28.3904 48.5832 28.697 48.5601 29.1125L50.5571 29.2234ZM50.5938 28.1836C50.5938 25.8169 50.1989 23.866 49.2617 22.4814C48.2773 21.0273 46.7848 20.3281 44.9531 20.3281V22.3281C46.2152 22.3281 47.043 22.7716 47.6055 23.6026C48.2151 24.5032 48.5938 25.9799 48.5938 28.1836H50.5938ZM44.9531 20.3281C43.0774 20.3281 41.6027 21.1672 40.6544 22.7816C39.754 24.3143 39.3597 26.4855 39.3477 29.1635L41.3476 29.1725C41.3591 26.6239 41.7441 24.8752 42.3788 23.7946C42.9656 22.7957 43.7819 22.3281 44.9531 22.3281V20.3281ZM40.3477 30.168H49.5586V28.168H40.3477V30.168ZM66.1875 4.59375L66.1547 3.59429L65.1875 3.62606V4.59375H66.1875ZM75.8203 4.27734H76.8203V3.24396L75.7875 3.27788L75.8203 4.27734ZM75.8203 15.4922H74.8203V16.4922H75.8203V15.4922ZM82.3594 15.4922H83.3594V14.4922H82.3594V15.4922ZM82.3594 23.2969V24.2969H83.3594V23.2969H82.3594ZM75.8203 23.2969V22.2969H74.8203V23.2969H75.8203ZM75.9609 41.0508L74.9692 41.1788L74.9715 41.197L74.9745 41.2152L75.9609 41.0508ZM77.0156 42.8438L76.3724 43.6095L76.3889 43.6233L76.4059 43.6364L77.0156 42.8438ZM82.8516 43.4766H83.8516V42.434L82.8099 42.4774L82.8516 43.4766ZM82.8516 51L83.0696 51.9759L83.8516 51.8012V51H82.8516ZM66.1875 23.2969H67.1875V22.2969H66.1875V23.2969ZM62.25 23.2969H61.25V24.2969H62.25V23.2969ZM62.25 15.4922V14.4922H61.25V15.4922H62.25ZM66.1875 15.4922V16.4922H67.1875V15.4922H66.1875ZM66.2203 5.59321L75.8531 5.2768L75.7875 3.27788L66.1547 3.59429L66.2203 5.59321ZM74.8203 4.27734V15.4922H76.8203V4.27734H74.8203ZM75.8203 16.4922H82.3594V14.4922H75.8203V16.4922ZM81.3594 15.4922V23.2969H83.3594V15.4922H81.3594ZM82.3594 22.2969H75.8203V24.2969H82.3594V22.2969ZM74.8203 23.2969V36.3398H76.8203V23.2969H74.8203ZM74.8203 36.3398C74.8203 38.7386 74.8656 40.3764 74.9692 41.1788L76.9527 40.9228C76.8687 40.272 76.8203 38.7692 76.8203 36.3398H74.8203ZM74.9745 41.2152C75.1339 42.1712 75.6186 42.9763 76.3724 43.6095L77.6588 42.078C77.2407 41.7269 77.0224 41.3366 76.9473 40.8864L74.9745 41.2152ZM76.4059 43.6364C77.2846 44.3123 78.5724 44.5469 80.0391 44.5469V42.5469C78.6932 42.5469 77.9654 42.3127 77.6253 42.0511L76.4059 43.6364ZM80.0391 44.5469C80.808 44.5469 81.7604 44.5229 82.8932 44.4757L82.8099 42.4774C81.6927 42.524 80.7702 42.5469 80.0391 42.5469V44.5469ZM81.8516 43.4766V51H83.8516V43.4766H81.8516ZM82.6335 50.0241C80.486 50.5038 78.5447 50.7383 76.8047 50.7383V52.7383C78.7209 52.7383 80.8109 52.4806 83.0696 51.9759L82.6335 50.0241ZM76.8047 50.7383C73.9106 50.7383 71.8538 50.1808 70.4987 49.2043L69.3294 50.8269C71.1618 52.1473 73.6988 52.7383 76.8047 52.7383V50.7383ZM70.4987 49.2043C69.0751 48.1785 68.2054 46.9279 67.8241 45.4427L65.8869 45.9401C66.3962 47.9237 67.5655 49.5559 69.3294 50.8269L70.4987 49.2043ZM67.8241 45.4427C67.412 43.8377 67.1875 41.1904 67.1875 37.4297H65.1875C65.1875 41.2158 65.4084 44.0764 65.8869 45.9401L67.8241 45.4427ZM67.1875 37.4297V23.2969H65.1875V37.4297H67.1875ZM66.1875 22.2969H62.25V24.2969H66.1875V22.2969ZM63.25 23.2969V15.4922H61.25V23.2969H63.25ZM62.25 16.4922H66.1875V14.4922H62.25V16.4922ZM67.1875 15.4922V4.59375H65.1875V15.4922H67.1875ZM87.2109 3.01172V2.01172H86.2109V3.01172H87.2109ZM96.2109 3.01172H97.2109V2.01172H96.2109V3.01172ZM96.2109 13.6289L97.0891 14.1073L97.2109 13.8836V13.6289H96.2109ZM91.0781 23.0508V24.0508H91.6721L91.9563 23.5292L91.0781 23.0508ZM87.2109 23.0508L86.2895 22.6623L85.704 24.0508H87.2109V23.0508ZM91.1836 13.6289L92.105 14.0174L92.6905 12.6289H91.1836V13.6289ZM87.2109 13.6289H86.2109V14.6289H87.2109V13.6289ZM87.2109 4.01172H96.2109V2.01172H87.2109V4.01172ZM95.2109 3.01172V13.6289H97.2109V3.01172H95.2109ZM95.3328 13.1505L90.2 22.5724L91.9563 23.5292L97.0891 14.1073L95.3328 13.1505ZM91.0781 22.0508H87.2109V24.0508H91.0781V22.0508ZM88.1324 23.4393L92.105 14.0174L90.2622 13.2404L86.2895 22.6623L88.1324 23.4393ZM91.1836 12.6289H87.2109V14.6289H91.1836V12.6289ZM88.2109 13.6289V3.01172H86.2109V13.6289H88.2109ZM127.359 24.0352L127.645 24.9934L128.584 24.7131L128.323 23.7686L127.359 24.0352ZM120.293 26.1445L119.333 26.4248L119.615 27.3905L120.579 27.1028L120.293 26.1445ZM117.938 29.2734L118.271 28.3306L118.267 28.3294L117.938 29.2734ZM127.113 35.1094L126.251 35.6158L126.255 35.6218L127.113 35.1094ZM101.66 41.1562L101.501 40.1689L100.55 40.3218L100.668 41.2783L101.66 41.1562ZM109.535 39.8906L110.518 39.7083L110.34 38.7484L109.376 38.9033L109.535 39.8906ZM113.402 37.2539L113.096 38.2058L113.101 38.2075L113.402 37.2539ZM106.301 17.8477L105.651 17.0873L105.648 17.0905L106.301 17.8477ZM127.073 23.0769L120.007 25.1863L120.579 27.1028L127.645 24.9934L127.073 23.0769ZM121.253 25.8643C120.753 24.1535 120.013 22.7649 118.968 21.7984C117.902 20.8117 116.588 20.3281 115.09 20.3281V22.3281C116.123 22.3281 116.941 22.6473 117.61 23.2661C118.3 23.905 118.895 24.9246 119.333 26.4248L121.253 25.8643ZM115.09 20.3281C113.904 20.3281 112.832 20.6252 112.062 21.3945C111.293 22.1638 110.996 23.2365 110.996 24.4219H112.996C112.996 23.5448 113.215 23.0706 113.477 22.8087C113.739 22.5467 114.213 22.3281 115.09 22.3281V20.3281ZM110.996 24.4219C110.996 25.8351 111.476 27.0433 112.537 27.8792L113.775 26.3083C113.289 25.9254 112.996 25.3524 112.996 24.4219H110.996ZM112.537 27.8792C113.459 28.6052 115.204 29.3775 117.608 30.2174L118.267 28.3294C115.842 27.4819 114.401 26.801 113.775 26.3083L112.537 27.8792ZM117.604 30.2163C120.31 31.1725 122.232 31.9921 123.416 32.6719L124.412 30.9374C123.065 30.1641 121.003 29.2962 118.271 28.3306L117.604 30.2163ZM123.416 32.6719C124.507 33.298 125.456 34.263 126.251 35.6158L127.976 34.603C127.036 33.0027 125.853 31.7645 124.412 30.9374L123.416 32.6719ZM126.255 35.6218C127.018 36.9017 127.414 38.3962 127.414 40.1367H129.414C129.414 38.0804 128.943 36.2233 127.972 34.5969L126.255 35.6218ZM127.414 40.1367C127.414 43.1452 126.342 45.6345 124.178 47.67L125.548 49.1268C128.119 46.7092 129.414 43.6908 129.414 40.1367H127.414ZM124.178 47.67C122.048 49.674 119.017 50.7383 114.949 50.7383V52.7383C119.366 52.7383 122.945 51.576 125.548 49.1268L124.178 47.67ZM114.949 50.7383C111.088 50.7383 108.233 49.8853 106.256 48.3105C104.295 46.7491 103.063 44.3714 102.653 41.0342L100.668 41.2783C101.125 44.9958 102.541 47.9091 105.01 49.8751C107.462 51.8276 110.818 52.7383 114.949 52.7383V50.7383ZM101.819 42.1436L109.694 40.878L109.376 38.9033L101.501 40.1689L101.819 42.1436ZM108.552 40.0729C108.904 41.9692 109.601 43.5192 110.736 44.5972C111.889 45.6919 113.387 46.1992 115.125 46.1992V44.1992C113.793 44.1992 112.824 43.8218 112.113 43.147C111.385 42.4554 110.823 41.3512 110.518 39.7083L108.552 40.0729ZM115.125 46.1992C116.553 46.1992 117.81 45.9032 118.721 45.139C119.665 44.3466 120.062 43.2007 120.062 41.8945H118.062C118.062 42.7915 117.804 43.2979 117.435 43.6071C117.033 43.9444 116.322 44.1992 115.125 44.1992V46.1992ZM120.062 41.8945C120.062 40.4813 119.582 39.2731 118.521 38.4372L117.283 40.0081C117.769 40.391 118.062 40.964 118.062 41.8945H120.062ZM118.521 38.4372C117.59 37.7035 115.93 37.0034 113.703 36.3003L113.101 38.2075C115.328 38.9106 116.668 39.5231 117.283 40.0081L118.521 38.4372ZM113.709 36.302C109.688 35.0081 107.111 33.4999 105.772 31.8724L104.228 33.1432C105.936 35.2188 108.96 36.8747 113.096 38.2058L113.709 36.302ZM105.772 31.8724C104.399 30.2031 103.715 28.2841 103.715 26.0742H101.715C101.715 28.7393 102.554 31.1094 104.228 33.1432L105.772 31.8724ZM103.715 26.0742C103.715 22.9156 104.804 20.4601 106.954 18.6048L105.648 17.0905C103.017 19.3602 101.715 22.3891 101.715 26.0742H103.715ZM106.95 18.608C109.159 16.7213 111.93 15.7539 115.336 15.7539V13.7539C111.523 13.7539 108.271 14.8491 105.651 17.0874L106.95 18.608ZM115.336 15.7539C118.322 15.7539 120.67 16.4844 122.459 17.8658C124.251 19.2486 125.582 21.36 126.396 24.3017L128.323 23.7686C127.426 20.5228 125.898 17.9936 123.681 16.2826C121.463 14.5703 118.654 13.7539 115.336 13.7539V15.7539ZM146.836 3.01172V2.01172H145.836V3.01172H146.836ZM156.574 3.01172H157.574V2.01172H156.574V3.01172ZM156.574 18.832H155.574V21.8247L157.373 19.4332L156.574 18.832ZM172.219 46.8164L173.057 47.3614L173.059 47.3587L172.219 46.8164ZM154.57 46.3594L155.493 45.9735L154.699 44.0756L153.697 45.8723L154.57 46.3594ZM152.707 51V52H153.451L153.665 51.2873L152.707 51ZM146.836 51H145.836V52H146.836V51ZM164.238 42.2461L165.179 42.5848L165.181 42.5809L164.238 42.2461ZM146.836 4.01172H156.574V2.01172H146.836V4.01172ZM155.574 3.01172V18.832H157.574V3.01172H155.574ZM157.373 19.4332C159.121 17.1105 161.295 16 163.957 16V14C160.62 14 157.871 15.4442 155.775 18.2309L157.373 19.4332ZM163.957 16C166.88 16 169.327 17.2909 171.344 20.0235L172.953 18.8358C170.611 15.6622 167.597 14 163.957 14V16ZM171.344 20.0235C173.337 22.7236 174.418 27.0023 174.418 33.0352H176.418C176.418 26.8337 175.319 22.042 172.953 18.8358L171.344 20.0235ZM174.418 33.0352C174.418 38.8149 173.367 43.1925 171.379 46.2741L173.059 47.3587C175.336 43.8309 176.418 39.0211 176.418 33.0352H174.418ZM171.38 46.2714C169.442 49.2529 166.65 50.7383 162.867 50.7383V52.7383C167.288 52.7383 170.73 50.9424 173.057 47.3614L171.38 46.2714ZM162.867 50.7383C161.001 50.7383 159.501 50.3246 158.314 49.5545C157.128 48.786 156.179 47.6148 155.493 45.9735L153.648 46.7453C154.461 48.6899 155.645 50.2081 157.226 51.2326C158.803 52.2555 160.702 52.7383 162.867 52.7383V50.7383ZM153.697 45.8723C152.971 47.174 152.325 48.7937 151.749 50.7127L153.665 51.2873C154.214 49.4563 154.81 47.9823 155.444 46.8464L153.697 45.8723ZM152.707 50H146.836V52H152.707V50ZM147.836 51V3.01172H145.836V51H147.836ZM155.574 36.2695C155.574 39.5266 155.869 41.9891 156.59 43.46L158.386 42.5791C157.889 41.5656 157.574 39.5281 157.574 36.2695H155.574ZM156.59 43.46C156.973 44.2388 157.524 44.8627 158.255 45.2835C158.978 45.7004 159.816 45.8828 160.723 45.8828V43.8828C160.082 43.8828 159.608 43.7547 159.253 43.5505C158.905 43.3501 158.613 43.0425 158.386 42.5791L156.59 43.46ZM160.723 45.8828C161.757 45.8828 162.698 45.6138 163.485 45.0236C164.265 44.4386 164.815 43.5972 165.179 42.5848L163.297 41.9074C163.029 42.6528 162.677 43.1298 162.285 43.4236C161.9 43.7123 161.399 43.8828 160.723 43.8828V45.8828ZM165.181 42.5809C165.876 40.6248 166.188 37.4858 166.188 33.2812H164.188C164.188 37.4673 163.867 40.3049 163.296 41.9113L165.181 42.5809ZM166.188 33.2812C166.188 29.2082 165.885 26.1105 165.224 24.0776L163.322 24.6958C163.88 26.4129 164.188 29.245 164.188 33.2812H166.188ZM165.224 24.0776C164.881 23.0211 164.362 22.1336 163.613 21.5091C162.849 20.8725 161.923 20.5742 160.898 20.5742V22.5742C161.515 22.5742 161.971 22.7447 162.332 23.0456C162.708 23.3586 163.056 23.8773 163.322 24.6958L165.224 24.0776ZM160.898 20.5742C159.165 20.5742 157.751 21.2503 156.823 22.6465C155.942 23.9709 155.574 25.831 155.574 28.0781H157.574C157.574 25.9893 157.927 24.5974 158.488 23.7539C159.001 22.9822 159.749 22.5742 160.898 22.5742V20.5742ZM155.574 28.0781V36.2695H157.574V28.0781H155.574ZM181.219 15.4922V14.4922H180.219V15.4922H181.219ZM189.938 15.4922H190.938V14.4922H189.938V15.4922ZM189.938 24.0703H188.938L190.905 24.3226L189.938 24.0703ZM200.027 15.2109H201.027V14.3791L200.209 14.2277L200.027 15.2109ZM200.027 24.8789L199.899 25.8707L201.027 26.0162V24.8789H200.027ZM191.133 51V52H192.133V51H191.133ZM181.219 51H180.219V52H181.219V51ZM181.219 16.4922H189.938V14.4922H181.219V16.4922ZM188.938 15.4922V24.0703H190.938V15.4922H188.938ZM190.905 24.3226C191.668 21.3956 192.704 19.3131 193.948 17.9749C195.164 16.6679 196.608 16.0352 198.34 16.0352V14.0352C196.04 14.0352 194.069 14.9083 192.484 16.6129C190.927 18.2866 189.777 20.7216 188.97 23.818L190.905 24.3226ZM198.34 16.0352C198.756 16.0352 199.255 16.085 199.845 16.1942L200.209 14.2277C199.534 14.1025 198.908 14.0352 198.34 14.0352V16.0352ZM199.027 15.2109V24.8789H201.027V15.2109H199.027ZM200.155 23.8871C199.418 23.792 198.816 23.7383 198.375 23.7383V25.7383C198.684 25.7383 199.183 25.7783 199.899 25.8707L200.155 23.8871ZM198.375 23.7383C195.665 23.7383 193.522 24.7888 192.109 26.9295C190.743 28.9974 190.133 31.9725 190.133 35.707H192.133C192.133 32.1291 192.729 29.6198 193.778 28.0315C194.779 26.5158 196.256 25.7383 198.375 25.7383V23.7383ZM190.133 35.707V51H192.133V35.707H190.133ZM191.133 50H181.219V52H191.133V50ZM182.219 51V15.4922H180.219V51H182.219ZM213.246 12.5742V13.5742H214.246V12.5742H213.246ZM203.191 12.5742H202.191V13.5742H203.191V12.5742ZM203.191 2.76562V1.76562H202.191V2.76562H203.191ZM213.246 2.76562H214.246V1.76562H213.246V2.76562ZM203.262 15.4922V14.4922H202.262V15.4922H203.262ZM213.176 15.4922H214.176V14.4922H213.176V15.4922ZM213.176 51V52H214.176V51H213.176ZM203.262 51H202.262V52H203.262V51ZM213.246 11.5742H203.191V13.5742H213.246V11.5742ZM204.191 12.5742V2.76562H202.191V12.5742H204.191ZM203.191 3.76562H213.246V1.76562H203.191V3.76562ZM212.246 2.76562V12.5742H214.246V2.76562H212.246ZM203.262 16.4922H213.176V14.4922H203.262V16.4922ZM212.176 15.4922V51H214.176V15.4922H212.176ZM213.176 50H203.262V52H213.176V50ZM204.262 51V15.4922H202.262V51H204.262ZM220.453 15.4922V14.4922H219.453V15.4922H220.453ZM229.84 15.4922H230.84V14.4922H229.84V15.4922ZM229.84 20.3438H228.84L230.754 20.7488L229.84 20.3438ZM244.465 16.3711L243.89 17.1891L243.897 17.1942L243.904 17.1992L244.465 16.3711ZM248.016 51V52H249.016V51H248.016ZM238.102 51H237.102V52H238.102V51ZM231.211 24.1055L232.098 24.5681L232.102 24.5602L231.211 24.1055ZM230.367 51V52H231.367V51H230.367ZM220.453 51H219.453V52H220.453V51ZM220.453 16.4922H229.84V14.4922H220.453V16.4922ZM228.84 15.4922V20.3438H230.84V15.4922H228.84ZM230.754 20.7488C231.507 19.0503 232.537 17.8297 233.824 17.0259C235.115 16.2197 236.735 15.7891 238.734 15.7891V13.7891C236.445 13.7891 234.438 14.2842 232.764 15.3295C231.087 16.3773 229.814 17.9341 228.926 19.9387L230.754 20.7488ZM238.734 15.7891C240.904 15.7891 242.598 16.2809 243.89 17.1891L245.04 15.5531C243.332 14.3519 241.206 13.7891 238.734 13.7891V15.7891ZM243.904 17.1992C245.248 18.1091 246.061 19.2382 246.415 20.5962L248.35 20.0913C247.861 18.2149 246.728 16.6956 245.025 15.543L243.904 17.1992ZM246.415 20.5962C246.804 22.0852 247.016 24.4412 247.016 27.7266H249.016C249.016 24.4025 248.806 21.8367 248.35 20.0913L246.415 20.5962ZM247.016 27.7266V51H249.016V27.7266H247.016ZM248.016 50H238.102V52H248.016V50ZM239.102 51V27.7266H237.102V51H239.102ZM239.102 27.7266C239.102 26.4979 239.024 25.4558 238.852 24.6241C238.688 23.827 238.406 23.0605 237.866 22.5621L236.509 24.0317C236.579 24.0957 236.753 24.3488 236.894 25.0283C237.027 25.6731 237.102 26.5646 237.102 27.7266H239.102ZM237.866 22.5621C237.029 21.7901 235.945 21.4531 234.727 21.4531V23.4531C235.57 23.4531 236.127 23.6786 236.509 24.0317L237.866 22.5621ZM234.727 21.4531C232.757 21.4531 231.125 22.0754 230.32 23.6507L232.102 24.5602C232.422 23.9324 233.134 23.4531 234.727 23.4531V21.4531ZM230.324 23.6429C229.966 24.3297 229.735 25.2365 229.588 26.2972C229.439 27.3717 229.367 28.6719 229.367 30.1875H231.367C231.367 28.7265 231.436 27.5248 231.569 26.572C231.703 25.6053 231.893 24.9593 232.098 24.568L230.324 23.6429ZM229.367 30.1875V51H231.367V30.1875H229.367ZM230.367 50H220.453V52H230.367V50ZM221.453 51V15.4922H219.453V51H221.453ZM285.035 9.65625H286.035V8.90801L285.317 8.69688L285.035 9.65625ZM285.035 16.125L284.793 17.0951L286.035 17.4058V16.125H285.035ZM279.129 19.043L278.15 18.8386L278.043 19.3515L278.404 19.7315L279.129 19.043ZM278.18 33.8789L278.806 34.6583L278.811 34.6546L278.18 33.8789ZM264.293 36.1641L264.532 35.1931L264.155 35.1002L263.814 35.2862L264.293 36.1641ZM270.375 41.5781L270.434 40.5799L270.429 40.5796L270.375 41.5781ZM278.355 42.6328L278.086 43.5958L278.089 43.5967L278.355 42.6328ZM282.785 45.6562L281.992 46.266L281.998 46.2735L282.785 45.6562ZM258.492 48.4688L258.808 49.4174L261.181 48.6267L258.917 47.5636L258.492 48.4688ZM259.969 34.5117L260.436 35.3958L262.166 34.4809L260.411 33.6149L259.969 34.5117ZM258.316 17.5664L257.712 16.7701L257.708 16.7729L258.316 17.5664ZM275.648 16.3359L275.249 17.2527L276.505 17.7997L276.643 16.4373L275.648 16.3359ZM265.699 21.5039L264.832 21.0054L264.828 21.0126L265.699 21.5039ZM263.977 49.4531L264.105 48.4613L263.819 48.4245L263.558 48.5449L263.977 49.4531ZM275.227 51.3516L274.474 52.0101L274.476 52.0122L275.227 51.3516ZM273.293 50.2969L273.085 51.2751L273.102 51.2787L273.119 51.2817L273.293 50.2969ZM268.371 49.875L268.308 50.873L268.316 50.8735L268.324 50.8739L268.371 49.875ZM284.035 9.65625V16.125H286.035V9.65625H284.035ZM285.278 15.1549C284.459 14.9502 283.662 14.8438 282.891 14.8438V16.8438C283.478 16.8438 284.111 16.9248 284.793 17.0951L285.278 15.1549ZM282.891 14.8438C281.684 14.8438 280.605 15.159 279.755 15.8818C278.912 16.5994 278.403 17.6251 278.15 18.8386L280.108 19.2474C280.3 18.328 280.641 17.7541 281.051 17.4053C281.455 17.0617 282.035 16.8438 282.891 16.8438V14.8438ZM278.404 19.7315C279.962 21.3728 280.766 23.4822 280.766 26.1445H282.766C282.766 23.0413 281.812 20.4163 279.854 18.3545L278.404 19.7315ZM280.766 26.1445C280.766 29.0691 279.695 31.3568 277.549 33.1033L278.811 34.6546C281.446 32.5104 282.766 29.6418 282.766 26.1445H280.766ZM277.553 33.0995C275.379 34.8473 272.523 35.7617 268.898 35.7617V37.7617C272.868 37.7617 276.199 36.7543 278.806 34.6583L277.553 33.0995ZM268.898 35.7617C267.537 35.7617 266.082 35.575 264.532 35.1931L264.054 37.135C265.738 37.55 267.354 37.7617 268.898 37.7617V35.7617ZM263.814 35.2862C262.152 36.1929 260.973 37.4283 260.973 39.082H262.973C262.973 38.5326 263.34 37.8228 264.772 37.042L263.814 35.2862ZM260.973 39.082C260.973 39.693 261.124 40.2839 261.494 40.7843C261.863 41.2827 262.383 41.6024 262.965 41.7911L263.582 39.8886C263.296 39.796 263.166 39.6822 263.102 39.5946C263.038 39.5091 262.973 39.3617 262.973 39.082H260.973ZM262.965 41.7911C263.512 41.9684 264.419 42.1077 265.596 42.23C266.803 42.3554 268.379 42.4708 270.321 42.5766L270.429 40.5796C268.503 40.4746 266.963 40.3614 265.803 40.2407C264.612 40.1169 263.902 39.9925 263.582 39.8886L262.965 41.7911ZM270.316 42.5764C273.861 42.7863 276.434 43.1333 278.086 43.5958L278.625 41.6698C276.761 41.1479 274.014 40.7918 270.434 40.5799L270.316 42.5764ZM278.089 43.5967C279.652 44.0286 280.947 44.9072 281.993 46.266L283.578 45.0465C282.279 43.3584 280.621 42.2214 278.622 41.6689L278.089 43.5967ZM281.998 46.2735C283.021 47.5763 283.578 49.3433 283.578 51.668H285.578C285.578 49.0239 284.94 46.783 283.572 45.039L281.998 46.2735ZM283.578 51.668C283.578 55.3494 282.257 57.988 279.68 59.7553C277.034 61.5692 272.94 62.5508 267.246 62.5508V64.5508C273.107 64.5508 277.679 63.5519 280.811 61.4049C284.01 59.2112 285.578 55.9084 285.578 51.668H283.578ZM267.246 62.5508C262.459 62.5508 259.032 61.8483 256.833 60.5684C254.717 59.3367 253.691 57.5491 253.691 55.0781H251.691C251.691 58.2556 253.091 60.7043 255.827 62.2969C258.48 63.8412 262.33 64.5508 267.246 64.5508V62.5508ZM253.691 55.0781C253.691 53.7455 254.097 52.6544 254.893 51.7475C255.706 50.8213 256.98 50.0268 258.808 49.4174L258.176 47.5201C256.137 48.1998 254.511 49.1513 253.39 50.4283C252.252 51.7245 251.691 53.2935 251.691 55.0781H253.691ZM258.917 47.5636C256.052 46.2179 254.852 44.4584 254.852 42.3164H252.852C252.852 45.4713 254.745 47.8133 258.067 49.3739L258.917 47.5636ZM254.852 42.3164C254.852 39.8111 256.5 37.4768 260.436 35.3958L259.501 33.6277C255.281 35.8591 252.852 38.728 252.852 42.3164H254.852ZM260.411 33.6149C258.802 32.8208 257.64 31.7727 256.873 30.4846C256.104 29.1928 255.695 27.5967 255.695 25.6523H253.695C253.695 27.8798 254.165 29.8462 255.154 31.5076C256.145 33.1726 257.62 34.4682 259.526 35.4085L260.411 33.6149ZM255.695 25.6523C255.695 22.3669 256.8 19.9898 258.925 18.3599L257.708 16.7729C255.005 18.8461 253.695 21.8597 253.695 25.6523H255.695ZM258.921 18.3627C261.136 16.6805 264.148 15.7891 268.055 15.7891V13.7891C263.852 13.7891 260.372 14.7492 257.712 16.7701L258.921 18.3627ZM268.055 15.7891C270.619 15.7891 273.013 16.2788 275.249 17.2527L276.048 15.4192C273.549 14.3306 270.881 13.7891 268.055 13.7891V15.7891ZM276.643 16.4373C276.893 13.9821 277.493 12.4436 278.277 11.6048L276.816 10.239C275.585 11.5564 274.919 13.6273 274.654 16.2346L276.643 16.4373ZM278.277 11.6048C279.023 10.8069 280.285 10.3047 282.293 10.3047V8.30469C279.989 8.30469 278.086 8.88055 276.816 10.239L278.277 11.6048ZM282.293 10.3047C283.251 10.3047 284.067 10.4138 284.753 10.6156L285.317 8.69688C284.41 8.42998 283.398 8.30469 282.293 8.30469V10.3047ZM272.535 25.8281C272.535 23.8597 272.272 22.2259 271.631 21.051C271.302 20.4486 270.863 19.9482 270.296 19.6023C269.727 19.2551 269.086 19.0977 268.406 19.0977V21.0977C268.77 21.0977 269.041 21.179 269.254 21.3093C269.47 21.441 269.683 21.6569 269.875 22.0095C270.277 22.7448 270.535 23.9762 270.535 25.8281H272.535ZM268.406 19.0977C266.855 19.0977 265.583 19.6995 264.832 21.0054L266.566 22.0024C266.893 21.4333 267.426 21.0977 268.406 21.0977V19.0977ZM264.828 21.0126C264.178 22.1653 263.926 23.9129 263.926 26.0742H265.926C265.926 23.97 266.189 22.6706 266.57 21.9952L264.828 21.0126ZM263.926 26.0742C263.926 27.9406 264.216 29.5114 264.934 30.6438C265.701 31.8534 266.886 32.4531 268.336 32.4531V30.4531C267.513 30.4531 266.993 30.1564 266.623 29.573C266.204 28.9125 265.926 27.7938 265.926 26.0742H263.926ZM268.336 32.4531C269.766 32.4531 270.955 31.9014 271.661 30.6914L269.933 29.6836C269.655 30.1611 269.203 30.4531 268.336 30.4531V32.4531ZM271.661 30.6914C272.297 29.6004 272.535 27.9113 272.535 25.8281H270.535C270.535 27.87 270.281 29.0871 269.933 29.6836L271.661 30.6914ZM263.558 48.5449C262.405 49.076 261.47 49.7691 260.822 50.6567C260.166 51.5555 259.848 52.5975 259.848 53.7422H261.848C261.848 52.9885 262.05 52.3664 262.438 51.8354C262.833 51.2934 263.462 50.7912 264.395 50.3614L263.558 48.5449ZM259.848 53.7422C259.848 54.5435 260.08 55.2819 260.561 55.9152C261.031 56.5356 261.697 57.0009 262.484 57.3471C264.036 58.0293 266.243 58.3281 269.004 58.3281V56.3281C266.328 56.3281 264.456 56.0293 263.289 55.5162C262.717 55.2647 262.364 54.9829 262.154 54.7069C261.955 54.4437 261.848 54.1362 261.848 53.7422H259.848ZM269.004 58.3281C271.392 58.3281 273.338 58.0156 274.721 57.2791C275.427 56.9029 276.009 56.404 276.41 55.7624C276.814 55.1175 277 54.3852 277 53.6016H275C275 54.0601 274.895 54.4147 274.715 54.7015C274.534 54.9915 274.241 55.269 273.781 55.5139C272.832 56.0195 271.28 56.3281 269.004 56.3281V58.3281ZM277 53.6016C277 52.4883 276.68 51.49 275.977 50.6909L274.476 52.0122C274.804 52.385 275 52.8867 275 53.6016H277ZM275.979 50.6931C275.324 49.9444 274.468 49.4888 273.467 49.3121L273.119 51.2817C273.711 51.3862 274.145 51.6337 274.474 52.0101L275.979 50.6931ZM273.5 49.3186C272.633 49.1347 270.908 48.9925 268.418 48.8761L268.324 50.8739C270.849 50.9919 272.406 51.131 273.085 51.2751L273.5 49.3186ZM268.434 48.877C266.979 48.7846 265.536 48.6461 264.105 48.4613L263.849 50.4449C265.323 50.6352 266.81 50.7779 268.308 50.873L268.434 48.877ZM311.332 12.5742V13.5742H312.332V12.5742H311.332ZM301.277 12.5742H300.277V13.5742H301.277V12.5742ZM301.277 2.76562V1.76562H300.277V2.76562H301.277ZM311.332 2.76562H312.332V1.76562H311.332V2.76562ZM301.348 15.4922V14.4922H300.348V15.4922H301.348ZM311.262 15.4922H312.262V14.4922H311.262V15.4922ZM311.262 51V52H312.262V51H311.262ZM301.348 51H300.348V52H301.348V51ZM311.332 11.5742H301.277V13.5742H311.332V11.5742ZM302.277 12.5742V2.76562H300.277V12.5742H302.277ZM301.277 3.76562H311.332V1.76562H301.277V3.76562ZM310.332 2.76562V12.5742H312.332V2.76562H310.332ZM301.348 16.4922H311.262V14.4922H301.348V16.4922ZM310.262 15.4922V51H312.262V15.4922H310.262ZM311.262 50H301.348V52H311.262V50ZM302.348 51V15.4922H300.348V51H302.348ZM320.016 4.59375L319.983 3.59429L319.016 3.62606V4.59375H320.016ZM329.648 4.27734H330.648V3.24396L329.616 3.27788L329.648 4.27734ZM329.648 15.4922H328.648V16.4922H329.648V15.4922ZM336.188 15.4922H337.188V14.4922H336.188V15.4922ZM336.188 23.2969V24.2969H337.188V23.2969H336.188ZM329.648 23.2969V22.2969H328.648V23.2969H329.648ZM329.789 41.0508L328.797 41.1788L328.8 41.197L328.803 41.2152L329.789 41.0508ZM330.844 42.8438L330.201 43.6095L330.217 43.6233L330.234 43.6364L330.844 42.8438ZM336.68 43.4766H337.68V42.434L336.638 42.4774L336.68 43.4766ZM336.68 51L336.898 51.9759L337.68 51.8012V51H336.68ZM320.016 23.2969H321.016V22.2969H320.016V23.2969ZM316.078 23.2969H315.078V24.2969H316.078V23.2969ZM316.078 15.4922V14.4922H315.078V15.4922H316.078ZM320.016 15.4922V16.4922H321.016V15.4922H320.016ZM320.048 5.59321L329.681 5.2768L329.616 3.27788L319.983 3.59429L320.048 5.59321ZM328.648 4.27734V15.4922H330.648V4.27734H328.648ZM329.648 16.4922H336.188V14.4922H329.648V16.4922ZM335.188 15.4922V23.2969H337.188V15.4922H335.188ZM336.188 22.2969H329.648V24.2969H336.188V22.2969ZM328.648 23.2969V36.3398H330.648V23.2969H328.648ZM328.648 36.3398C328.648 38.7386 328.694 40.3764 328.797 41.1788L330.781 40.9228C330.697 40.272 330.648 38.7692 330.648 36.3398H328.648ZM328.803 41.2152C328.962 42.1712 329.447 42.9763 330.201 43.6095L331.487 42.078C331.069 41.7269 330.85 41.3366 330.775 40.8864L328.803 41.2152ZM330.234 43.6364C331.113 44.3123 332.401 44.5469 333.867 44.5469V42.5469C332.521 42.5469 331.793 42.3127 331.453 42.0511L330.234 43.6364ZM333.867 44.5469C334.636 44.5469 335.589 44.5229 336.721 44.4757L336.638 42.4774C335.521 42.524 334.598 42.5469 333.867 42.5469V44.5469ZM335.68 43.4766V51H337.68V43.4766H335.68ZM336.462 50.0241C334.314 50.5038 332.373 50.7383 330.633 50.7383V52.7383C332.549 52.7383 334.639 52.4806 336.898 51.9759L336.462 50.0241ZM330.633 50.7383C327.739 50.7383 325.682 50.1808 324.327 49.2043L323.158 50.8269C324.99 52.1473 327.527 52.7383 330.633 52.7383V50.7383ZM324.327 49.2043C322.903 48.1785 322.034 46.9279 321.652 45.4427L319.715 45.9401C320.224 47.9237 321.394 49.5559 323.158 50.8269L324.327 49.2043ZM321.652 45.4427C321.24 43.8377 321.016 41.1904 321.016 37.4297H319.016C319.016 41.2158 319.236 44.0764 319.715 45.9401L321.652 45.4427ZM321.016 37.4297V23.2969H319.016V37.4297H321.016ZM320.016 22.2969H316.078V24.2969H320.016V22.2969ZM317.078 23.2969V15.4922H315.078V23.2969H317.078ZM316.078 16.4922H320.016V14.4922H316.078V16.4922ZM321.016 15.4922V4.59375H319.016V15.4922H321.016ZM355.523 4.59375L355.491 3.59429L354.523 3.62606V4.59375H355.523ZM365.156 4.27734H366.156V3.24396L365.123 3.27788L365.156 4.27734ZM365.156 15.4922H364.156V16.4922H365.156V15.4922ZM371.695 15.4922H372.695V14.4922H371.695V15.4922ZM371.695 23.2969V24.2969H372.695V23.2969H371.695ZM365.156 23.2969V22.2969H364.156V23.2969H365.156ZM365.297 41.0508L364.305 41.1788L364.307 41.197L364.31 41.2152L365.297 41.0508ZM366.352 42.8438L365.708 43.6095L365.725 43.6233L365.742 43.6364L366.352 42.8438ZM372.188 43.4766H373.188V42.434L372.146 42.4774L372.188 43.4766ZM372.188 51L372.406 51.9759L373.188 51.8012V51H372.188ZM355.523 23.2969H356.523V22.2969H355.523V23.2969ZM351.586 23.2969H350.586V24.2969H351.586V23.2969ZM351.586 15.4922V14.4922H350.586V15.4922H351.586ZM355.523 15.4922V16.4922H356.523V15.4922H355.523ZM355.556 5.59321L365.189 5.2768L365.123 3.27788L355.491 3.59429L355.556 5.59321ZM364.156 4.27734V15.4922H366.156V4.27734H364.156ZM365.156 16.4922H371.695V14.4922H365.156V16.4922ZM370.695 15.4922V23.2969H372.695V15.4922H370.695ZM371.695 22.2969H365.156V24.2969H371.695V22.2969ZM364.156 23.2969V36.3398H366.156V23.2969H364.156ZM364.156 36.3398C364.156 38.7386 364.202 40.3764 364.305 41.1788L366.289 40.9228C366.205 40.272 366.156 38.7692 366.156 36.3398H364.156ZM364.31 41.2152C364.47 42.1712 364.955 42.9763 365.708 43.6095L366.995 42.078C366.577 41.7269 366.358 41.3366 366.283 40.8864L364.31 41.2152ZM365.742 43.6364C366.621 44.3123 367.908 44.5469 369.375 44.5469V42.5469C368.029 42.5469 367.301 42.3127 366.961 42.0511L365.742 43.6364ZM369.375 44.5469C370.144 44.5469 371.096 44.5229 372.229 44.4757L372.146 42.4774C371.029 42.524 370.106 42.5469 369.375 42.5469V44.5469ZM371.188 43.4766V51H373.188V43.4766H371.188ZM371.969 50.0241C369.822 50.5038 367.881 50.7383 366.141 50.7383V52.7383C368.057 52.7383 370.147 52.4806 372.406 51.9759L371.969 50.0241ZM366.141 50.7383C363.247 50.7383 361.19 50.1808 359.835 49.2043L358.665 50.8269C360.498 52.1473 363.035 52.7383 366.141 52.7383V50.7383ZM359.835 49.2043C358.411 48.1785 357.541 46.9279 357.16 45.4427L355.223 45.9401C355.732 47.9237 356.901 49.5559 358.665 50.8269L359.835 49.2043ZM357.16 45.4427C356.748 43.8377 356.523 41.1904 356.523 37.4297H354.523C354.523 41.2158 354.744 44.0764 355.223 45.9401L357.16 45.4427ZM356.523 37.4297V23.2969H354.523V37.4297H356.523ZM355.523 22.2969H351.586V24.2969H355.523V22.2969ZM352.586 23.2969V15.4922H350.586V23.2969H352.586ZM351.586 16.4922H355.523V14.4922H351.586V16.4922ZM356.523 15.4922V4.59375H354.523V15.4922H356.523ZM392.508 24.0703L391.574 24.4275L391.578 24.4393L392.508 24.0703ZM386.039 23.9648L386.955 24.3657L386.957 24.3605L386.039 23.9648ZM392.578 42.3164L393.521 42.6485L393.523 42.6444L392.578 42.3164ZM402.688 33.2461C402.688 39.3078 401.502 43.6699 399.295 46.5005C397.126 49.2836 393.848 50.7383 389.273 50.7383V52.7383C394.308 52.7383 398.237 51.1109 400.873 47.73C403.471 44.3965 404.688 39.5125 404.688 33.2461H402.688ZM389.273 50.7383C384.686 50.7383 381.399 49.283 379.225 46.4995C377.013 43.6691 375.824 39.3074 375.824 33.2461H373.824C373.824 39.513 375.044 44.3973 377.649 47.7309C380.29 51.1115 384.228 52.7383 389.273 52.7383V50.7383ZM375.824 33.2461C375.824 27.1969 377.013 22.8442 379.224 20.0197C381.399 17.2419 384.685 15.7891 389.273 15.7891V13.7891C384.229 13.7891 380.291 15.4124 377.649 18.7869C375.044 22.1148 373.824 26.9906 373.824 33.2461H375.824ZM389.273 15.7891C393.849 15.7891 397.127 17.2412 399.296 20.0188C401.502 22.8434 402.688 27.1965 402.688 33.2461H404.688C404.688 26.991 403.471 22.1156 400.872 18.7878C398.237 15.4131 394.307 13.7891 389.273 13.7891V15.7891ZM394.457 33.2461C394.457 30.9644 394.377 29.032 394.214 27.4567C394.053 25.8961 393.804 24.6256 393.437 23.7013L391.578 24.4393C391.844 25.1088 392.07 26.1645 392.225 27.6625C392.378 29.1458 392.457 31.0044 392.457 33.2461H394.457ZM393.442 23.7132C393.087 22.7862 392.566 22.0124 391.837 21.4732C391.1 20.9286 390.227 20.6797 389.273 20.6797V22.6797C389.867 22.6797 390.306 22.8292 390.648 23.0815C390.996 23.3392 391.319 23.7607 391.574 24.4274L393.442 23.7132ZM389.273 20.6797C388.346 20.6797 387.493 20.9183 386.763 21.4343C386.039 21.9455 385.503 22.6814 385.121 23.5692L386.957 24.3605C387.231 23.7248 387.562 23.3182 387.917 23.0677C388.265 22.8219 388.701 22.6797 389.273 22.6797V20.6797ZM385.123 23.564C384.732 24.4579 384.473 25.7302 384.306 27.3047C384.137 28.8994 384.055 30.8828 384.055 33.2461H386.055C386.055 30.9219 386.136 29.0147 386.295 27.5156C386.456 25.9964 386.69 24.9718 386.955 24.3657L385.123 23.564ZM384.055 33.2461C384.055 37.579 384.33 40.7394 384.95 42.5975L386.847 41.965C386.341 40.4481 386.055 37.5851 386.055 33.2461H384.055ZM384.95 42.5975C385.278 43.583 385.8 44.407 386.564 44.9797C387.332 45.5558 388.258 45.8125 389.273 45.8125V43.8125C388.602 43.8125 388.121 43.6474 387.764 43.3797C387.403 43.1087 387.081 42.667 386.847 41.965L384.95 42.5975ZM389.273 45.8125C390.261 45.8125 391.162 45.5551 391.915 44.9864C392.661 44.423 393.181 43.6147 393.521 42.6485L391.635 41.9843C391.389 42.6822 391.065 43.1219 390.71 43.3905C390.361 43.6539 389.903 43.8125 389.273 43.8125V45.8125ZM393.523 42.6444C394.17 40.7803 394.457 37.602 394.457 33.2461H392.457C392.457 37.609 392.158 40.4775 391.633 41.9884L393.523 42.6444ZM434.062 15.4922H433.062V16.4922H434.062V15.4922ZM440.32 15.4922H441.32V14.4922H440.32V15.4922ZM440.32 23.2969V24.2969H441.32V23.2969H440.32ZM434.062 23.2969V22.2969H433.062V23.2969H434.062ZM434.062 51V52H435.062V51H434.062ZM424.57 51H423.57V52H424.57V51ZM424.57 23.2969H425.57V22.2969H424.57V23.2969ZM420.527 23.2969H419.527V24.2969H420.527V23.2969ZM420.527 15.4922V14.4922H419.527V15.4922H420.527ZM424.57 15.4922V16.4922H425.564L425.57 15.4989L424.57 15.4922ZM440.707 1.46484H441.707V0.601147L440.853 0.475485L440.707 1.46484ZM440.707 9.19922L440.59 10.1924L441.707 10.3238V9.19922H440.707ZM434.836 10.2891L434 9.73987L433.996 9.74581L434.836 10.2891ZM434.062 16.4922H440.32V14.4922H434.062V16.4922ZM439.32 15.4922V23.2969H441.32V15.4922H439.32ZM440.32 22.2969H434.062V24.2969H440.32V22.2969ZM433.062 23.2969V51H435.062V23.2969H433.062ZM434.062 50H424.57V52H434.062V50ZM425.57 51V23.2969H423.57V51H425.57ZM424.57 22.2969H420.527V24.2969H424.57V22.2969ZM421.527 23.2969V15.4922H419.527V23.2969H421.527ZM420.527 16.4922H424.57V14.4922H420.527V16.4922ZM425.57 15.4989C425.594 12.0307 425.863 9.53242 426.337 7.93731L424.42 7.36737C423.863 9.24102 423.594 11.9693 423.57 15.4855L425.57 15.4989ZM426.337 7.93731C426.782 6.44154 427.751 5.08487 429.327 3.87546L428.11 2.2886C426.265 3.70419 425.007 5.3944 424.42 7.36737L426.337 7.93731ZM429.327 3.87546C430.809 2.73868 432.902 2.11328 435.715 2.11328V0.113281C432.622 0.113281 430.05 0.800378 428.11 2.2886L429.327 3.87546ZM435.715 2.11328C437.404 2.11328 439.019 2.22743 440.562 2.4542L440.853 0.475485C439.207 0.23351 437.494 0.113281 435.715 0.113281V2.11328ZM439.707 1.46484V9.19922H441.707V1.46484H439.707ZM440.824 8.20607C439.995 8.10854 439.217 8.05859 438.492 8.05859V10.0586C439.127 10.0586 439.825 10.1024 440.59 10.1924L440.824 8.20607ZM438.492 8.05859C436.554 8.05859 434.843 8.45776 434 9.73988L435.672 10.8382C435.907 10.4797 436.634 10.0586 438.492 10.0586V8.05859ZM433.996 9.74581C433.62 10.3269 433.402 11.1318 433.267 12.0405C433.128 12.9745 433.062 14.1297 433.062 15.4922H435.062C435.062 14.1828 435.126 13.1349 435.245 12.3345C435.368 11.5088 435.536 11.0481 435.676 10.8323L433.996 9.74581ZM443.766 15.4922V14.4922H442.766V15.4922H443.766ZM452.484 15.4922H453.484V14.4922H452.484V15.4922ZM452.484 24.0703H451.484L453.452 24.3226L452.484 24.0703ZM462.574 15.2109H463.574V14.3791L462.756 14.2277L462.574 15.2109ZM462.574 24.8789L462.446 25.8707L463.574 26.0162V24.8789H462.574ZM453.68 51V52H454.68V51H453.68ZM443.766 51H442.766V52H443.766V51ZM443.766 16.4922H452.484V14.4922H443.766V16.4922ZM451.484 15.4922V24.0703H453.484V15.4922H451.484ZM453.452 24.3226C454.215 21.3956 455.251 19.3131 456.495 17.9749C457.711 16.6679 459.155 16.0352 460.887 16.0352V14.0352C458.587 14.0352 456.616 14.9083 455.03 16.6129C453.474 18.2866 452.324 20.7216 451.517 23.818L453.452 24.3226ZM460.887 16.0352C461.303 16.0352 461.802 16.085 462.392 16.1942L462.756 14.2277C462.081 14.1025 461.455 14.0352 460.887 14.0352V16.0352ZM461.574 15.2109V24.8789H463.574V15.2109H461.574ZM462.702 23.8871C461.965 23.792 461.363 23.7383 460.922 23.7383V25.7383C461.231 25.7383 461.73 25.7783 462.446 25.8707L462.702 23.8871ZM460.922 23.7383C458.212 23.7383 456.069 24.7888 454.656 26.9295C453.29 28.9974 452.68 31.9725 452.68 35.707H454.68C454.68 32.1291 455.276 29.6198 456.325 28.0315C457.325 26.5158 458.803 25.7383 460.922 25.7383V23.7383ZM452.68 35.707V51H454.68V35.707H452.68ZM453.68 50H443.766V52H453.68V50ZM444.766 51V15.4922H442.766V51H444.766ZM465.352 15.4922V14.4922H464.352V15.4922H465.352ZM475.266 15.4922H476.266V14.4922H475.266V15.4922ZM481.559 43.0898L480.877 42.3579L480.871 42.3639L480.864 42.37L481.559 43.0898ZM482.789 40.4883L483.781 40.6149L483.781 40.6123L482.789 40.4883ZM483 15.4922V14.4922H482V15.4922H483ZM492.914 15.4922H493.914V14.4922H492.914V15.4922ZM492.914 51V52H493.914V51H492.914ZM483.598 51H482.598V52H483.598V51ZM483.598 46.1484H484.598V42.4451L482.734 45.6451L483.598 46.1484ZM479.379 50.7539L478.956 49.8477L478.95 49.8505L479.379 50.7539ZM465.352 16.4922H475.266V14.4922H465.352V16.4922ZM474.266 15.4922V38.2734H476.266V15.4922H474.266ZM474.266 38.2734C474.266 39.4479 474.319 40.455 474.433 41.2836C474.545 42.0943 474.723 42.8129 475.021 43.3578L476.776 42.4001C476.652 42.1715 476.514 41.7357 476.415 41.0113C476.317 40.3047 476.266 39.3958 476.266 38.2734H474.266ZM475.021 43.3578C475.706 44.6153 477.102 45.0391 478.641 45.0391V43.0391C477.367 43.0391 476.934 42.6894 476.776 42.4001L475.021 43.3578ZM478.641 45.0391C480.081 45.0391 481.345 44.6852 482.253 43.8097L480.864 42.37C480.46 42.7601 479.779 43.0391 478.641 43.0391V45.0391ZM482.24 43.8217C483.123 42.9999 483.617 41.901 483.781 40.6149L481.797 40.3616C481.68 41.2787 481.354 41.9142 480.877 42.3579L482.24 43.8217ZM483.781 40.6123C483.931 39.4149 484 37.055 484 33.5977H482C482 37.0778 481.928 39.3116 481.797 40.3642L483.781 40.6123ZM484 33.5977V15.4922H482V33.5977H484ZM483 16.4922H492.914V14.4922H483V16.4922ZM491.914 15.4922V51H493.914V15.4922H491.914ZM492.914 50H483.598V52H492.914V50ZM484.598 51V46.1484H482.598V51H484.598ZM482.734 45.6451C481.358 48.006 480.081 49.3228 478.956 49.8477L479.802 51.6601C481.489 50.8725 483.025 49.119 484.462 46.6518L482.734 45.6451ZM478.95 49.8505C477.73 50.4297 476.242 50.7383 474.457 50.7383V52.7383C476.469 52.7383 478.263 52.3906 479.808 51.6573L478.95 49.8505ZM474.457 50.7383C472.021 50.7383 470.316 50.2328 469.199 49.3662L467.973 50.9463C469.575 52.1891 471.783 52.7383 474.457 52.7383V50.7383ZM469.199 49.3662C468.011 48.4446 467.263 47.3 466.92 45.9092L464.978 46.3877C465.432 48.2312 466.442 49.7585 467.973 50.9463L469.199 49.3662ZM466.92 45.9092C466.552 44.4155 466.352 41.997 466.352 38.5898H464.352C464.352 42.0264 464.549 44.647 464.978 46.3877L466.92 45.9092ZM466.352 38.5898V15.4922H464.352V38.5898H466.352ZM510.176 12.5742V13.5742H511.176V12.5742H510.176ZM500.121 12.5742H499.121V13.5742H500.121V12.5742ZM500.121 2.76562V1.76562H499.121V2.76562H500.121ZM510.176 2.76562H511.176V1.76562H510.176V2.76562ZM500.191 15.4922V14.4922H499.191V15.4922H500.191ZM510.105 15.4922H511.105V14.4922H510.105V15.4922ZM510.105 51V52H511.105V51H510.105ZM500.191 51H499.191V52H500.191V51ZM510.176 11.5742H500.121V13.5742H510.176V11.5742ZM501.121 12.5742V2.76562H499.121V12.5742H501.121ZM500.121 3.76562H510.176V1.76562H500.121V3.76562ZM509.176 2.76562V12.5742H511.176V2.76562H509.176ZM500.191 16.4922H510.105V14.4922H500.191V16.4922ZM509.105 15.4922V51H511.105V15.4922H509.105ZM510.105 50H500.191V52H510.105V50ZM501.191 51V15.4922H499.191V51H501.191ZM518.859 4.59375L518.827 3.59429L517.859 3.62606V4.59375H518.859ZM528.492 4.27734H529.492V3.24396L528.459 3.27788L528.492 4.27734ZM528.492 15.4922H527.492V16.4922H528.492V15.4922ZM535.031 15.4922H536.031V14.4922H535.031V15.4922ZM535.031 23.2969V24.2969H536.031V23.2969H535.031ZM528.492 23.2969V22.2969H527.492V23.2969H528.492ZM528.633 41.0508L527.641 41.1788L527.643 41.197L527.646 41.2152L528.633 41.0508ZM529.688 42.8438L529.044 43.6095L529.061 43.6233L529.078 43.6364L529.688 42.8438ZM535.523 43.4766H536.523V42.434L535.482 42.4774L535.523 43.4766ZM535.523 51L535.741 51.9759L536.523 51.8012V51H535.523ZM518.859 23.2969H519.859V22.2969H518.859V23.2969ZM514.922 23.2969H513.922V24.2969H514.922V23.2969ZM514.922 15.4922V14.4922H513.922V15.4922H514.922ZM518.859 15.4922V16.4922H519.859V15.4922H518.859ZM518.892 5.59321L528.525 5.2768L528.459 3.27788L518.827 3.59429L518.892 5.59321ZM527.492 4.27734V15.4922H529.492V4.27734H527.492ZM528.492 16.4922H535.031V14.4922H528.492V16.4922ZM534.031 15.4922V23.2969H536.031V15.4922H534.031ZM535.031 22.2969H528.492V24.2969H535.031V22.2969ZM527.492 23.2969V36.3398H529.492V23.2969H527.492ZM527.492 36.3398C527.492 38.7386 527.538 40.3764 527.641 41.1788L529.625 40.9228C529.541 40.272 529.492 38.7692 529.492 36.3398H527.492ZM527.646 41.2152C527.806 42.1712 528.291 42.9763 529.044 43.6095L530.331 42.078C529.913 41.7269 529.694 41.3366 529.619 40.8864L527.646 41.2152ZM529.078 43.6364C529.957 44.3123 531.244 44.5469 532.711 44.5469V42.5469C531.365 42.5469 530.637 42.3127 530.297 42.0511L529.078 43.6364ZM532.711 44.5469C533.48 44.5469 534.432 44.5229 535.565 44.4757L535.482 42.4774C534.365 42.524 533.442 42.5469 532.711 42.5469V44.5469ZM534.523 43.4766V51H536.523V43.4766H534.523ZM535.305 50.0241C533.158 50.5038 531.217 50.7383 529.477 50.7383V52.7383C531.393 52.7383 533.483 52.4806 535.741 51.9759L535.305 50.0241ZM529.477 50.7383C526.582 50.7383 524.526 50.1808 523.171 49.2043L522.001 50.8269C523.834 52.1473 526.371 52.7383 529.477 52.7383V50.7383ZM523.171 49.2043C521.747 48.1785 520.877 46.9279 520.496 45.4427L518.559 45.9401C519.068 47.9237 520.237 49.5559 522.001 50.8269L523.171 49.2043ZM520.496 45.4427C520.084 43.8377 519.859 41.1904 519.859 37.4297H517.859C517.859 41.2158 518.08 44.0764 518.559 45.9401L520.496 45.4427ZM519.859 37.4297V23.2969H517.859V37.4297H519.859ZM518.859 22.2969H514.922V24.2969H518.859V22.2969ZM515.922 23.2969V15.4922H513.922V23.2969H515.922ZM514.922 16.4922H518.859V14.4922H514.922V16.4922ZM519.859 15.4922V4.59375H517.859V15.4922H519.859ZM549.41 12.5742V13.5742H550.41V12.5742H549.41ZM539.355 12.5742H538.355V13.5742H539.355V12.5742ZM539.355 2.76562V1.76562H538.355V2.76562H539.355ZM549.41 2.76562H550.41V1.76562H549.41V2.76562ZM539.426 15.4922V14.4922H538.426V15.4922H539.426ZM549.34 15.4922H550.34V14.4922H549.34V15.4922ZM549.34 51V52H550.34V51H549.34ZM539.426 51H538.426V52H539.426V51ZM549.41 11.5742H539.355V13.5742H549.41V11.5742ZM540.355 12.5742V2.76562H538.355V12.5742H540.355ZM539.355 3.76562H549.41V1.76562H539.355V3.76562ZM548.41 2.76562V12.5742H550.41V2.76562H548.41ZM539.426 16.4922H549.34V14.4922H539.426V16.4922ZM548.34 15.4922V51H550.34V15.4922H548.34ZM549.34 50H539.426V52H549.34V50ZM540.426 51V15.4922H538.426V51H540.426ZM572.789 24.0703L571.855 24.4275L571.86 24.4393L572.789 24.0703ZM566.32 23.9648L567.236 24.3657L567.239 24.3605L566.32 23.9648ZM572.859 42.3164L573.803 42.6485L573.804 42.6444L572.859 42.3164ZM582.969 33.2461C582.969 39.3078 581.783 43.6699 579.577 46.5005C577.407 49.2836 574.13 50.7383 569.555 50.7383V52.7383C574.589 52.7383 578.519 51.1109 581.154 47.73C583.752 44.3965 584.969 39.5125 584.969 33.2461H582.969ZM569.555 50.7383C564.967 50.7383 561.681 49.283 559.506 46.4995C557.294 43.6691 556.105 39.3074 556.105 33.2461H554.105C554.105 39.513 555.325 44.3973 557.93 47.7309C560.571 51.1115 564.509 52.7383 569.555 52.7383V50.7383ZM556.105 33.2461C556.105 27.1969 557.294 22.8442 559.505 20.0197C561.68 17.2419 564.967 15.7891 569.555 15.7891V13.7891C564.51 13.7891 560.572 15.4124 557.93 18.7869C555.325 22.1148 554.105 26.9906 554.105 33.2461H556.105ZM569.555 15.7891C574.13 15.7891 577.408 17.2412 579.577 20.0188C581.783 22.8434 582.969 27.1965 582.969 33.2461H584.969C584.969 26.991 583.752 22.1156 581.153 18.7878C578.518 15.4131 574.589 13.7891 569.555 13.7891V15.7891ZM574.738 33.2461C574.738 30.9644 574.659 29.032 574.496 27.4567C574.334 25.8961 574.085 24.6256 573.718 23.7013L571.86 24.4393C572.125 25.1088 572.351 26.1645 572.506 27.6625C572.66 29.1458 572.738 31.0044 572.738 33.2461H574.738ZM573.723 23.7132C573.369 22.7862 572.847 22.0124 572.118 21.4732C571.381 20.9286 570.508 20.6797 569.555 20.6797V22.6797C570.148 22.6797 570.588 22.8292 570.929 23.0815C571.278 23.3392 571.6 23.7607 571.855 24.4274L573.723 23.7132ZM569.555 20.6797C568.627 20.6797 567.774 20.9183 567.044 21.4343C566.32 21.9455 565.784 22.6814 565.402 23.5692L567.239 24.3605C567.513 23.7248 567.844 23.3182 568.198 23.0677C568.546 22.8219 568.982 22.6797 569.555 22.6797V20.6797ZM565.404 23.564C565.013 24.4579 564.755 25.7302 564.588 27.3047C564.418 28.8994 564.336 30.8828 564.336 33.2461H566.336C566.336 30.9219 566.417 29.0147 566.576 27.5156C566.738 25.9964 566.971 24.9718 567.236 24.3657L565.404 23.564ZM564.336 33.2461C564.336 37.579 564.612 40.7394 565.231 42.5975L567.128 41.965C566.623 40.4481 566.336 37.5851 566.336 33.2461H564.336ZM565.231 42.5975C565.56 43.583 566.082 44.407 566.845 44.9797C567.613 45.5558 568.539 45.8125 569.555 45.8125V43.8125C568.883 43.8125 568.402 43.6474 568.045 43.3797C567.684 43.1087 567.362 42.667 567.128 41.965L565.231 42.5975ZM569.555 45.8125C570.542 45.8125 571.444 45.5551 572.196 44.9864C572.942 44.423 573.462 43.6147 573.803 42.6485L571.916 41.9843C571.67 42.6822 571.347 43.1219 570.991 43.3905C570.642 43.6539 570.184 43.8125 569.555 43.8125V45.8125ZM573.804 42.6444C574.451 40.7803 574.738 37.602 574.738 33.2461H572.738C572.738 37.609 572.439 40.4775 571.915 41.9884L573.804 42.6444ZM589.734 15.4922V14.4922H588.734V15.4922H589.734ZM599.121 15.4922H600.121V14.4922H599.121V15.4922ZM599.121 20.3438H598.121L600.035 20.7488L599.121 20.3438ZM613.746 16.3711L613.171 17.1891L613.178 17.1942L613.186 17.1992L613.746 16.3711ZM617.297 51V52H618.297V51H617.297ZM607.383 51H606.383V52H607.383V51ZM600.492 24.1055L601.379 24.5681L601.383 24.5602L600.492 24.1055ZM599.648 51V52H600.648V51H599.648ZM589.734 51H588.734V52H589.734V51ZM589.734 16.4922H599.121V14.4922H589.734V16.4922ZM598.121 15.4922V20.3438H600.121V15.4922H598.121ZM600.035 20.7488C600.788 19.0503 601.818 17.8297 603.105 17.0259C604.396 16.2197 606.016 15.7891 608.016 15.7891V13.7891C605.726 13.7891 603.719 14.2842 602.045 15.3295C600.368 16.3773 599.095 17.9341 598.207 19.9387L600.035 20.7488ZM608.016 15.7891C610.185 15.7891 611.879 16.2809 613.171 17.1891L614.321 15.5531C612.613 14.3519 610.487 13.7891 608.016 13.7891V15.7891ZM613.186 17.1992C614.53 18.1091 615.342 19.2382 615.696 20.5962L617.632 20.0913C617.142 18.2149 616.009 16.6956 614.307 15.543L613.186 17.1992ZM615.696 20.5962C616.085 22.0852 616.297 24.4412 616.297 27.7266H618.297C618.297 24.4025 618.087 21.8367 617.632 20.0913L615.696 20.5962ZM616.297 27.7266V51H618.297V27.7266H616.297ZM617.297 50H607.383V52H617.297V50ZM608.383 51V27.7266H606.383V51H608.383ZM608.383 27.7266C608.383 26.4979 608.305 25.4558 608.134 24.6241C607.969 23.827 607.687 23.0605 607.147 22.5621L605.79 24.0317C605.86 24.0957 606.035 24.3488 606.175 25.0283C606.308 25.6731 606.383 26.5646 606.383 27.7266H608.383ZM607.147 22.5621C606.311 21.7901 605.226 21.4531 604.008 21.4531V23.4531C604.852 23.4531 605.408 23.6786 605.79 24.0317L607.147 22.5621ZM604.008 21.4531C602.038 21.4531 600.406 22.0754 599.602 23.6507L601.383 24.5602C601.703 23.9324 602.415 23.4531 604.008 23.4531V21.4531ZM599.606 23.6429C599.247 24.3297 599.016 25.2365 598.869 26.2972C598.72 27.3717 598.648 28.6719 598.648 30.1875H600.648C600.648 28.7265 600.718 27.5248 600.85 26.572C600.984 25.6053 601.175 24.9593 601.379 24.568L599.606 23.6429ZM598.648 30.1875V51H600.648V30.1875H598.648ZM599.648 50H589.734V52H599.648V50ZM590.734 51V15.4922H588.734V51H590.734ZM626.402 3.01172V2.01172H625.306L625.407 3.10319L626.402 3.01172ZM639.059 3.01172L640.054 3.10422L640.156 2.01172H639.059V3.01172ZM635.93 36.6914V37.6914H636.841L636.925 36.7839L635.93 36.6914ZM629.496 36.6914L628.5 36.7829L628.584 37.6914H629.496V36.6914ZM627.809 40.3828V39.3828H626.809V40.3828H627.809ZM637.617 40.3828H638.617V39.3828H637.617V40.3828ZM637.617 51V52H638.617V51H637.617ZM627.809 51H626.809V52H627.809V51ZM626.402 4.01172H639.059V2.01172H626.402V4.01172ZM638.063 2.91922L634.934 36.5989L636.925 36.7839L640.054 3.10422L638.063 2.91922ZM635.93 35.6914H629.496V37.6914H635.93V35.6914ZM630.492 36.5999L627.398 2.92025L625.407 3.10319L628.5 36.7829L630.492 36.5999ZM627.809 41.3828H637.617V39.3828H627.809V41.3828ZM636.617 40.3828V51H638.617V40.3828H636.617ZM637.617 50H627.809V52H637.617V50ZM628.809 51V40.3828H626.809V51H628.809Z" fill="#F5F5F5"/>
</svg>
