<svg width="442" height="475" viewBox="0 0 442 475" fill="none" xmlns="http://www.w3.org/2000/svg">
<path pathLength="1" d="M113.611 252.476L113.143 252.464L114.72 256.628C116.413 262.492 118.577 268.208 121.192 273.722L167.439 395.865C168.915 399.764 171.497 403.146 174.868 405.598C178.24 408.05 182.253 409.464 186.417 409.667L255.971 409.678C260.399 409.894 265.732 407.981 269.471 405.598C273.209 403.215 274.798 399.971 276.471 395.865L327.239 273.355C328.892 269.831 330.362 266.223 331.642 262.547L333.389 258.257L333.046 258.248C338.147 241.476 339.305 223.751 336.43 206.457C333.556 189.163 326.726 172.767 316.474 158.546C306.222 144.325 292.824 132.664 277.324 124.471C261.825 116.279 244.643 111.777 227.117 111.316C209.592 110.855 192.197 114.448 176.289 121.814C160.38 129.18 146.387 140.12 135.402 153.783C124.416 167.445 116.734 183.46 112.954 200.579C109.174 217.698 109.399 235.459 113.611 252.476Z" fill="#FFFF00" stroke="#F5F5F5" stroke-width="2"/>
<path pathLength="1" d="M268.495 262.497L251.888 386.706L254.452 387.049L271.058 262.84L268.495 262.497Z" fill="#97969E"/>
<path pathLength="1" d="M175.525 263.384L172.971 263.79L192.608 387.556L195.163 387.15L175.525 263.384Z" fill="#97969E"/>
<path pathLength="1" d="M256.49 440.565L191.568 440.576C191.084 440.573 190.592 440.302 190.198 439.823C189.804 439.344 189.541 438.696 189.466 438.021C189.391 437.346 189.51 436.698 189.798 436.219C190.085 435.74 190.518 435.469 191 435.465L255.923 435.453C256.164 435.451 256.41 435.516 256.647 435.643C256.885 435.771 257.108 435.959 257.306 436.196C257.503 436.434 257.67 436.716 257.797 437.027C257.924 437.338 258.009 437.672 258.046 438.009C258.084 438.345 258.073 438.679 258.015 438.99C257.957 439.301 257.853 439.584 257.708 439.821C257.563 440.059 257.381 440.247 257.172 440.374C256.963 440.502 256.732 440.567 256.49 440.565Z" fill="#D0CDE1" stroke="#F5F5F5" stroke-width="2"/>
<path pathLength="1" d="M259.187 430.619L189.66 431.043C189.402 431.047 189.14 430.984 188.889 430.857C188.638 430.731 188.403 430.544 188.197 430.307C187.992 430.07 187.82 429.787 187.691 429.476C187.563 429.165 187.48 428.831 187.449 428.493C187.417 428.155 187.436 427.82 187.506 427.508C187.576 427.196 187.695 426.912 187.855 426.672C188.016 426.433 188.215 426.243 188.442 426.114C188.669 425.985 188.919 425.918 189.177 425.919L258.704 425.494C258.962 425.491 259.224 425.554 259.475 425.68C259.726 425.807 259.961 425.994 260.166 426.231C260.372 426.468 260.544 426.75 260.672 427.062C260.801 427.373 260.883 427.707 260.915 428.045C260.947 428.382 260.927 428.717 260.858 429.03C260.788 429.342 260.669 429.626 260.509 429.865C260.348 430.105 260.149 430.294 259.922 430.424C259.695 430.553 259.445 430.619 259.187 430.619Z" fill="#D0CDE1" stroke="#F5F5F5" stroke-width="2"/>
<path pathLength="1" d="M260.926 421.662L187.645 421.604C187.099 421.599 186.558 421.326 186.14 420.845C185.722 420.363 185.46 419.712 185.413 419.033C185.365 418.354 185.535 417.703 185.886 417.222C186.237 416.74 186.74 416.468 187.285 416.465L260.566 416.524C261.111 416.528 261.652 416.801 262.071 417.283C262.489 417.764 262.75 418.416 262.798 419.095C262.846 419.774 262.675 420.425 262.325 420.906C261.974 421.387 261.471 421.659 260.926 421.662Z" fill="#D0CDE1" stroke="#F5F5F5" stroke-width="2"/>
<path pathLength="1" d="M223.022 468.866C241.238 468.959 256.057 458.883 256.122 446.359L190.155 446.021C190.091 458.544 204.806 468.772 223.022 468.866Z" fill="#D0CDE1" stroke="#F5F5F5" stroke-width="2"/>
<path pathLength="1" d="M215.272 259.746C211.356 259.898 207.627 257.504 205.512 255.826C204.818 255.275 204.134 254.697 203.449 254.118C200.955 252.009 198.601 250.017 195.721 249.299C189.365 247.713 183.236 252.846 178.083 258.076L176.24 256.261C181.905 250.509 188.723 244.888 196.348 246.789C199.811 247.653 202.51 249.935 205.119 252.143C205.784 252.705 206.447 253.265 207.119 253.799C209.319 255.544 213.554 258.242 217.233 256.715C218.756 255.93 220.103 254.843 221.192 253.521C222.036 252.591 222.953 251.73 223.932 250.943C225.938 249.453 228.339 248.588 230.835 248.46C233.331 248.331 235.809 248.943 237.958 250.219C238.731 250.711 239.477 251.245 240.191 251.818C241.587 252.898 242.904 253.917 244.395 254.091C246.599 254.352 248.562 252.739 250.643 251.034C252.789 249.274 255.007 247.454 257.882 247.238C257.975 247.231 258.07 247.226 258.163 247.222C263.315 247.024 266.697 252.107 268.804 255.982L266.531 257.218C263.667 251.95 260.965 249.579 258.075 249.818C256.015 249.973 254.203 251.46 252.284 253.034C249.878 255.007 247.388 257.048 244.094 256.661C241.89 256.404 240.221 255.113 238.608 253.864C237.968 253.349 237.3 252.869 236.608 252.426C234.901 251.432 232.942 250.957 230.969 251.059C228.997 251.161 227.097 251.835 225.501 253C224.63 253.705 223.814 254.478 223.061 255.309C221.735 256.9 220.087 258.193 218.226 259.103C217.288 259.493 216.287 259.71 215.272 259.746Z" fill="#D0CDE1"/>
<g className="sparks">
<path pathLength="1" d="M80 200L1 180" stroke="#F5F5F5" stroke-width="3"/>
<path pathLength="1" d="M362 200L441 180" stroke="#F5F5F5" stroke-width="3"/>
<path pathLength="1" d="M132 123L73 54" stroke="#F5F5F5" stroke-width="3"/>
<path pathLength="1" d="M311 124L370 54" stroke="#F5F5F5" stroke-width="3"/>
<path pathLength="1" d="M228 92.5V0.5" stroke="#F5F5F5" stroke-width="3"/>
</g>
</svg>
