<svg width="710" height="418" viewBox="0 0 710 418" fill="none" xmlns="http://www.w3.org/2000/svg">
<path d="M354.195 45.8399C354.195 46.4474 353.587 46.4474 353.587 46.4474H352.98C352.372 46.4474 352.372 45.8399 351.765 45.2323C351.765 45.2323 351.157 44.6247 351.157 44.0171C351.157 43.4095 351.157 43.4095 351.765 43.4095L352.98 44.0171C353.587 44.6247 354.195 45.2323 354.195 45.8399ZM343.258 39.764C343.258 36.7261 342.043 34.9033 340.22 34.9033C340.22 34.9033 340.22 35.5109 339.613 35.5109V36.7261H341.436C341.436 37.9412 342.043 38.5488 342.043 39.764H343.258ZM364.524 36.7261C365.739 36.7261 366.347 37.9412 366.954 39.764H368.169C367.562 39.1564 367.562 38.5488 367.562 37.9412C367.562 37.3336 367.562 36.7261 366.954 36.1185C366.347 35.5109 365.739 34.9033 365.131 34.9033C365.131 34.9033 364.524 35.5109 363.916 35.5109C363.916 36.1185 364.524 36.1185 364.524 36.7261ZM346.296 46.4474C345.689 46.4474 345.689 46.4474 345.689 45.8399C345.689 45.2323 345.689 44.6247 346.296 44.0171C347.511 44.0171 348.119 43.4095 348.119 43.4095C348.727 43.4095 348.727 44.0171 348.727 44.0171C348.727 44.6247 348.119 45.2323 346.904 46.4474H346.296ZM339.613 45.8399C337.182 44.6247 336.575 42.8019 336.575 39.764C336.575 37.9412 336.575 36.7261 337.79 35.5109C338.398 34.2957 339.613 33.6881 340.828 33.6881C342.043 33.6881 342.651 34.2957 343.866 35.5109C344.473 37.3336 345.081 39.1564 345.081 40.9792V41.5867V42.1943H345.689V41.5867C346.296 41.5867 346.296 40.3716 346.296 37.9412C346.296 36.1185 346.296 34.2957 345.081 32.473C343.866 30.6502 342.651 29.435 340.22 29.435C338.398 29.435 336.575 30.6502 335.967 32.473C334.752 34.9033 334.509 36.7261 334.509 39.764C334.509 42.1943 335.36 44.6247 337.79 47.055C338.398 46.4474 339.005 46.4474 339.613 45.8399ZM415.561 131.509C416.169 131.509 416.169 131.266 416.169 130.72C416.169 129.383 415.561 127.803 413.738 126.041C411.916 124.218 408.878 123.064 405.232 122.578C404.625 122.517 404.017 122.517 404.017 122.517C403.409 122.396 403.409 122.396 402.802 122.396C402.194 122.335 400.979 122.213 400.371 122.092C402.194 116.441 402.802 111.459 402.802 107.085C402.802 101.009 401.587 96.7556 399.156 93.1101C396.726 89.4645 394.296 87.6418 391.258 87.0342C390.65 87.6418 390.65 87.6418 390.65 88.2494C393.688 89.4645 396.726 91.8949 398.549 95.5404C400.371 99.7935 400.979 103.439 400.979 107.692C400.979 111.095 400.371 116.138 397.941 122.578C395.511 123.55 393.08 125.798 391.258 129.322C391.258 129.869 391.258 130.173 391.865 130.173C391.865 130.173 392.473 129.626 393.08 128.593C394.296 127.56 394.903 126.527 396.118 125.494C397.941 124.462 399.156 123.915 400.979 123.915C404.017 123.915 407.055 124.34 408.878 125.191C411.308 125.98 412.523 126.831 413.131 127.803C413.738 128.715 414.346 129.565 414.953 130.355C414.953 131.145 415.561 131.509 415.561 131.509V131.509ZM359.663 43.4095C359.056 42.8019 359.056 41.5867 359.056 40.3716C359.056 37.9412 359.056 36.7261 360.271 34.9033C361.486 33.6881 362.701 33.0805 363.916 33.0805C365.739 33.0805 366.954 34.2957 368.169 35.5109C368.777 37.3336 369.385 38.5488 369.385 40.3716C369.385 43.4095 368.169 45.2323 365.739 45.8399C365.739 45.8399 366.347 46.4474 366.954 46.4474C368.169 46.4474 368.777 47.055 369.992 47.6626C370.6 44.0171 371.207 41.5867 371.207 38.5488C371.207 34.9033 370.6 32.473 369.385 30.6502C367.562 28.8274 365.739 28.2199 363.309 28.2199C361.486 28.2199 359.663 28.8274 357.84 30.0426C356.625 31.8654 356.018 33.0805 356.018 34.9033C356.018 37.9412 356.625 40.3716 357.84 42.8019C358.448 42.8019 359.056 43.4095 359.663 43.4095ZM366.954 53.1309C359.056 58.5992 352.98 61.0295 348.119 61.0295C343.866 61.0295 339.613 59.2067 335.967 56.1688C336.575 57.384 337.182 58.5992 337.79 59.2067L341.436 62.8523C343.866 65.2826 346.904 66.4978 349.942 66.4978C354.195 66.4978 359.056 64.0674 365.131 59.8143L370.6 56.1688C371.815 54.9536 373.03 53.7385 373.03 51.9157C373.03 51.3081 373.03 50.7005 372.422 50.7005C371.815 49.4854 368.777 47.6626 362.701 45.8399C357.233 43.4095 352.98 42.1943 350.549 42.1943C348.727 42.1943 345.689 43.4095 341.436 45.8399C337.79 48.2702 335.36 50.7005 335.36 53.1309C335.36 53.1309 335.967 53.7385 336.575 54.9536C340.22 57.9916 343.866 59.8143 347.511 59.8143C352.372 59.8143 358.448 57.384 366.347 51.3081V52.5233C366.954 52.5233 366.954 53.1309 366.954 53.1309ZM380.929 175.863C383.359 180.432 387.612 182.729 392.473 182.729C393.688 182.729 394.903 182.547 396.118 182.182C397.333 181.939 398.549 181.514 399.156 181.028C399.764 180.602 400.371 180.177 400.979 179.691C402.194 179.266 402.194 178.962 402.802 178.658L413.131 169.727C415.561 167.788 417.991 166.093 421.029 164.623C423.46 163.165 425.89 162.193 427.105 161.646C428.928 161.16 430.143 160.431 431.358 159.458C431.966 158.547 432.573 157.393 432.573 155.934C432.573 154.172 431.358 152.836 430.143 151.864C428.928 150.891 427.713 150.223 426.498 149.798C425.282 149.373 424.067 148.4 422.245 146.76C421.029 145.18 419.814 142.993 419.207 140.137L418.599 136.613C417.991 134.973 417.991 133.758 417.384 133.089C417.384 132.907 417.384 132.846 416.776 132.846C416.169 132.846 414.953 133.393 414.346 134.426C413.131 135.459 411.916 136.613 410.7 137.828C410.093 139.044 408.27 140.137 407.055 141.17C405.232 142.203 403.409 142.75 402.194 142.75C397.333 142.75 394.903 141.413 393.08 138.801C391.865 136.856 391.258 134.608 390.65 132.056C389.435 131.023 388.827 130.477 387.612 130.477C384.574 130.477 383.359 133.636 383.359 140.016V142.021V149.069V154.476V157.089V158.912C383.359 159.458 382.751 160.674 382.751 162.557C382.144 164.441 382.144 166.579 382.144 168.998L380.929 175.742V175.845V175.863ZM292.829 172.631C298.479 173.457 304.98 175.225 312.332 177.923C319.684 180.596 324.18 181.994 325.821 181.994C330.074 181.994 333.598 180.11 336.514 176.471C337.122 175.292 337.122 173.907 337.122 172.315C337.122 166.573 333.658 159.313 326.732 150.503L322.6 144.974C321.75 143.819 320.717 142.057 319.38 139.688C318.104 137.318 316.95 135.495 316.038 134.219C315.249 132.822 313.973 131.424 312.332 130.027C310.752 128.63 308.93 127.718 306.925 127.232C304.373 127.718 302.611 128.569 301.76 129.723C300.91 130.878 300.423 132.154 300.302 133.49C300.12 134.766 299.755 135.617 299.148 136.042C298.54 136.407 297.507 136.71 296.11 137.014C295.806 137.014 295.259 137.014 294.469 137.075H292.829C289.608 137.075 287.421 137.44 286.267 138.047C284.748 139.809 283.958 141.814 283.958 143.941C283.958 144.913 284.201 146.553 284.687 148.862C285.173 151.11 285.416 152.933 285.416 154.209C285.416 156.7 284.687 159.191 283.168 161.682C281.649 164.295 280.859 166.239 280.859 167.624C281.467 169.982 285.477 171.641 292.829 172.613V172.631ZM313.061 117.383C313.061 113.191 314.155 108.573 316.403 103.105C318.59 97.6366 320.778 93.9911 322.904 91.5607C322.783 90.9531 322.479 90.9531 321.993 90.9531L321.385 90.3455C319.623 92.1683 317.497 96.4214 314.945 102.497C312.393 107.966 311.056 113.008 311.056 116.715C311.056 119.449 311.725 121.818 312.94 123.884C314.276 125.889 317.497 128.806 322.6 132.512L329.041 136.704C335.907 142.659 339.552 146.79 339.552 149.221C339.552 150.497 338.944 151.772 337.122 153.17C335.907 154.628 334.266 155.357 332.869 155.357C332.747 155.357 332.686 155.479 332.686 155.783C332.686 155.843 333.294 157.059 334.57 159.428C337.122 162.891 342.59 164.593 349.881 164.593C363.248 164.593 373.577 159.124 381.475 148.188C381.475 145.15 381.475 143.266 380.868 142.476V140.228C380.868 136.279 381.475 133.302 382.691 131.358C383.906 129.413 385.121 128.502 386.944 128.502C388.159 128.502 389.374 128.927 390.589 129.839C391.197 125.16 391.197 121.089 391.197 117.444C391.197 111.915 391.197 107.358 389.982 103.105C389.374 99.4593 388.159 96.4214 386.944 93.9911C385.729 92.1683 384.513 90.3455 383.298 88.5228C382.083 86.7 381.475 84.8773 380.26 83.0545C379.653 80.6242 379.045 78.8014 379.045 75.7635C377.222 72.7255 376.007 69.6876 374.184 66.6497C372.969 63.6117 371.754 60.5738 370.539 58.1435L365.071 62.3966C358.995 66.6497 354.134 68.4724 349.881 68.4724C346.235 68.4724 343.198 67.8648 341.375 65.4345L337.729 62.3966C337.729 64.2193 337.122 66.6497 335.907 69.08L332.079 76.3711C330.377 80.6242 329.466 83.0545 329.284 84.8773C329.041 86.0924 328.859 87.3076 328.737 87.3076L324.18 96.4214C319.259 105.535 316.768 113.981 316.768 120.968C316.768 122.365 316.889 123.824 317.132 125.282C314.398 123.398 313.061 120.786 313.061 117.383V117.383ZM356.564 174.861C348.666 174.861 342.59 175.93 338.337 178.051V177.868C335.299 181.514 331.896 183.397 327.157 183.397C324.18 183.397 319.502 182.243 313.183 179.934C306.803 177.747 301.153 176.07 296.231 174.964C295.745 174.824 294.651 174.618 292.889 174.338C291.188 174.065 289.608 173.785 288.211 173.506C286.935 173.232 285.477 172.819 283.897 172.26C282.378 171.78 281.163 171.154 280.252 170.395C279.413 169.629 279 168.767 279 167.801C279 166.828 279.207 165.79 279.62 164.684C280.009 164.015 280.434 163.347 280.859 162.739C281.285 162.071 281.649 161.463 281.892 160.856C282.257 160.309 282.5 159.762 282.743 159.155C282.986 158.608 283.229 158.061 283.35 157.393C283.472 156.785 283.593 156.177 283.593 155.57C283.593 154.962 283.35 153.14 282.864 149.919C282.378 146.76 282.135 144.755 282.135 143.904C282.135 141.231 282.743 139.104 284.079 137.585C285.416 136.066 286.692 135.277 288.029 135.277H295.016C295.563 135.277 296.413 134.973 297.689 134.244C298.115 133.271 298.479 132.482 298.722 131.753C299.026 131.023 299.148 130.477 299.269 130.234C299.391 129.869 299.512 129.504 299.634 129.201C299.877 128.775 300.18 128.289 300.606 127.803C300.12 127.196 299.877 126.406 299.877 125.434C299.877 124.765 299.877 124.158 299.998 123.793C299.998 121.606 301.031 118.507 303.218 114.436L305.345 110.609C307.107 107.328 308.444 104.897 309.416 102.467C310.449 100.037 311.542 96.391 312.757 91.5303C313.73 87.2772 316.038 83.0241 319.684 78.771L324.241 73.3027C327.4 69.6572 329.466 66.6193 330.621 64.1889C331.775 61.7586 332.383 58.7207 332.383 56.2903C332.383 55.0752 332.079 51.4296 331.41 45.3538C330.803 39.2779 330.499 33.2021 330.499 27.7338C330.499 23.4807 330.864 20.4427 331.653 17.4048C332.443 14.3669 333.841 11.329 335.907 8.89862C337.729 6.46828 340.16 4.03793 343.805 2.82276C347.451 1.60759 351.704 1 356.564 1C358.387 1 360.21 1 362.033 1.60759C363.855 1.60759 366.286 2.21517 369.324 3.43034C371.754 4.64552 374.184 5.86069 376.007 7.68345C378.438 9.50621 380.26 12.5441 382.083 15.5821C383.298 19.2276 384.513 22.8731 385.121 27.7338C385.729 30.7717 385.729 33.8096 386.336 38.0627C386.336 41.7083 386.944 44.1386 386.944 45.9614C387.551 47.7841 387.551 50.2145 388.159 53.2524C388.767 55.6827 389.374 58.1131 390.589 59.9358C391.804 62.3662 393.02 64.7965 394.842 67.2269C396.665 70.2648 399.095 73.3027 401.526 76.9483C406.994 83.0241 411.247 89.7076 413.678 96.391C416.715 102.467 418.538 110.366 418.538 118.811C418.538 123.003 417.931 127.074 416.715 131.023C417.931 131.023 418.538 131.509 419.146 132.36C419.753 133.211 420.361 135.033 420.969 137.889L421.576 142.385C422.184 143.722 422.791 144.998 424.614 146.092C425.829 147.185 427.044 148.097 428.867 148.826C430.082 149.433 431.905 150.284 433.12 151.378C434.335 152.593 434.943 153.869 434.943 155.205C434.943 157.271 434.335 158.79 433.12 159.884C431.905 161.099 430.69 161.95 428.867 162.496C427.652 163.104 425.222 164.319 421.576 166.033C418.538 167.831 415.5 170.012 412.462 172.594L406.387 177.765C403.956 180.135 401.526 181.836 399.703 182.869C397.88 183.962 395.45 184.509 393.02 184.509L388.767 184.023C383.906 182.747 380.868 180.317 379.045 176.611C369.324 175.432 361.425 174.849 356.564 174.849" fill="black"/>
<path d="M356.564 174.861C348.666 174.861 342.59 175.93 338.337 178.051V177.868C335.299 181.514 331.896 183.397 327.157 183.397C324.18 183.397 319.502 182.243 313.183 179.934C306.803 177.747 301.153 176.07 296.231 174.964C295.745 174.824 294.651 174.618 292.889 174.338C291.188 174.065 289.608 173.785 288.211 173.506C286.935 173.232 285.477 172.819 283.897 172.26C282.378 171.78 281.163 171.154 280.252 170.395C279.413 169.629 279 168.767 279 167.801C279 166.828 279.207 165.79 279.62 164.684C280.009 164.015 280.434 163.347 280.859 162.739C281.285 162.071 281.649 161.463 281.892 160.856C282.257 160.309 282.5 159.762 282.743 159.155C282.986 158.608 283.229 158.061 283.35 157.393C283.472 156.785 283.593 156.177 283.593 155.57C283.593 154.962 283.35 153.14 282.864 149.919C282.378 146.76 282.135 144.755 282.135 143.904C282.135 141.231 282.743 139.104 284.079 137.585C285.416 136.066 286.692 135.277 288.029 135.277H295.016C295.563 135.277 296.413 134.973 297.689 134.244C298.115 133.271 298.479 132.482 298.722 131.753C299.026 131.023 299.148 130.477 299.269 130.234C299.391 129.869 299.512 129.504 299.634 129.201C299.877 128.775 300.18 128.289 300.606 127.803C300.12 127.196 299.877 126.406 299.877 125.434C299.877 124.765 299.877 124.158 299.998 123.793C299.998 121.606 301.031 118.507 303.218 114.436L305.345 110.609C307.107 107.328 308.444 104.897 309.416 102.467C310.449 100.037 311.542 96.391 312.757 91.5303C313.73 87.2772 316.038 83.0241 319.684 78.771L324.241 73.3027C327.4 69.6572 329.466 66.6193 330.621 64.1889C331.775 61.7586 332.383 58.7207 332.383 56.2903C332.383 55.0752 332.079 51.4296 331.41 45.3538C330.803 39.2779 330.499 33.2021 330.499 27.7338C330.499 23.4807 330.864 20.4427 331.653 17.4048C332.443 14.3669 333.841 11.329 335.907 8.89862C337.729 6.46828 340.16 4.03793 343.805 2.82276C347.451 1.60759 351.704 1 356.564 1C358.387 1 360.21 1 362.033 1.60759C363.855 1.60759 366.286 2.21517 369.324 3.43034C371.754 4.64552 374.184 5.86069 376.007 7.68345C378.438 9.50621 380.26 12.5441 382.083 15.5821C383.298 19.2276 384.513 22.8731 385.121 27.7338C385.729 30.7717 385.729 33.8096 386.336 38.0627C386.336 41.7083 386.944 44.1386 386.944 45.9614C387.551 47.7841 387.551 50.2145 388.159 53.2524C388.767 55.6827 389.374 58.1131 390.589 59.9358C391.804 62.3662 393.02 64.7965 394.842 67.2269C396.665 70.2648 399.095 73.3027 401.526 76.9483C406.994 83.0241 411.247 89.7076 413.678 96.391C416.715 102.467 418.538 110.366 418.538 118.811C418.538 123.003 417.931 127.074 416.715 131.023C417.931 131.023 418.538 131.509 419.146 132.36C419.753 133.211 420.361 135.033 420.969 137.889L421.576 142.385C422.184 143.722 422.791 144.998 424.614 146.092C425.829 147.185 427.044 148.097 428.867 148.826C430.082 149.433 431.905 150.284 433.12 151.378C434.335 152.593 434.943 153.869 434.943 155.205C434.943 157.271 434.335 158.79 433.12 159.884C431.905 161.099 430.69 161.95 428.867 162.496C427.652 163.104 425.222 164.319 421.576 166.033C418.538 167.831 415.5 170.012 412.462 172.594L406.387 177.765C403.956 180.135 401.526 181.836 399.703 182.869C397.88 183.962 395.45 184.509 393.02 184.509L388.767 184.023C383.906 182.747 380.868 180.317 379.045 176.611C369.324 175.432 361.425 174.849 356.564 174.849M354.195 45.8399C354.195 46.4474 353.587 46.4474 353.587 46.4474H352.98C352.372 46.4474 352.372 45.8399 351.765 45.2323C351.765 45.2323 351.157 44.6247 351.157 44.0171C351.157 43.4095 351.157 43.4095 351.765 43.4095L352.98 44.0171C353.587 44.6247 354.195 45.2323 354.195 45.8399ZM343.258 39.764C343.258 36.7261 342.043 34.9033 340.22 34.9033C340.22 34.9033 340.22 35.5109 339.613 35.5109V36.7261H341.436C341.436 37.9412 342.043 38.5488 342.043 39.764H343.258ZM364.524 36.7261C365.739 36.7261 366.347 37.9412 366.954 39.764H368.169C367.562 39.1564 367.562 38.5488 367.562 37.9412C367.562 37.3336 367.562 36.7261 366.954 36.1185C366.347 35.5109 365.739 34.9033 365.131 34.9033C365.131 34.9033 364.524 35.5109 363.916 35.5109C363.916 36.1185 364.524 36.1185 364.524 36.7261ZM346.296 46.4474C345.689 46.4474 345.689 46.4474 345.689 45.8399C345.689 45.2323 345.689 44.6247 346.296 44.0171C347.511 44.0171 348.119 43.4095 348.119 43.4095C348.727 43.4095 348.727 44.0171 348.727 44.0171C348.727 44.6247 348.119 45.2323 346.904 46.4474H346.296ZM339.613 45.8399C337.182 44.6247 336.575 42.8019 336.575 39.764C336.575 37.9412 336.575 36.7261 337.79 35.5109C338.398 34.2957 339.613 33.6881 340.828 33.6881C342.043 33.6881 342.651 34.2957 343.866 35.5109C344.473 37.3336 345.081 39.1564 345.081 40.9792V41.5867V42.1943H345.689V41.5867C346.296 41.5867 346.296 40.3716 346.296 37.9412C346.296 36.1185 346.296 34.2957 345.081 32.473C343.866 30.6502 342.651 29.435 340.22 29.435C338.398 29.435 336.575 30.6502 335.967 32.473C334.752 34.9033 334.509 36.7261 334.509 39.764C334.509 42.1943 335.36 44.6247 337.79 47.055C338.398 46.4474 339.005 46.4474 339.613 45.8399ZM415.561 131.509C416.169 131.509 416.169 131.266 416.169 130.72C416.169 129.383 415.561 127.803 413.738 126.041C411.916 124.218 408.878 123.064 405.232 122.578C404.625 122.517 404.017 122.517 404.017 122.517C403.409 122.396 403.409 122.396 402.802 122.396C402.194 122.335 400.979 122.213 400.371 122.092C402.194 116.441 402.802 111.459 402.802 107.085C402.802 101.009 401.587 96.7556 399.156 93.1101C396.726 89.4645 394.296 87.6418 391.258 87.0342C390.65 87.6418 390.65 87.6418 390.65 88.2494C393.688 89.4645 396.726 91.8949 398.549 95.5404C400.371 99.7935 400.979 103.439 400.979 107.692C400.979 111.095 400.371 116.138 397.941 122.578C395.511 123.55 393.08 125.798 391.258 129.322C391.258 129.869 391.258 130.173 391.865 130.173C391.865 130.173 392.473 129.626 393.08 128.593C394.296 127.56 394.903 126.527 396.118 125.494C397.941 124.462 399.156 123.915 400.979 123.915C404.017 123.915 407.055 124.34 408.878 125.191C411.308 125.98 412.523 126.831 413.131 127.803C413.738 128.715 414.346 129.565 414.953 130.355C414.953 131.145 415.561 131.509 415.561 131.509V131.509ZM359.663 43.4095C359.056 42.8019 359.056 41.5867 359.056 40.3716C359.056 37.9412 359.056 36.7261 360.271 34.9033C361.486 33.6881 362.701 33.0805 363.916 33.0805C365.739 33.0805 366.954 34.2957 368.169 35.5109C368.777 37.3336 369.385 38.5488 369.385 40.3716C369.385 43.4095 368.169 45.2323 365.739 45.8399C365.739 45.8399 366.347 46.4474 366.954 46.4474C368.169 46.4474 368.777 47.055 369.992 47.6626C370.6 44.0171 371.207 41.5867 371.207 38.5488C371.207 34.9033 370.6 32.473 369.385 30.6502C367.562 28.8274 365.739 28.2199 363.309 28.2199C361.486 28.2199 359.663 28.8274 357.84 30.0426C356.625 31.8654 356.018 33.0805 356.018 34.9033C356.018 37.9412 356.625 40.3716 357.84 42.8019C358.448 42.8019 359.056 43.4095 359.663 43.4095ZM366.954 53.1309C359.056 58.5992 352.98 61.0295 348.119 61.0295C343.866 61.0295 339.613 59.2067 335.967 56.1688C336.575 57.384 337.182 58.5992 337.79 59.2067L341.436 62.8523C343.866 65.2826 346.904 66.4978 349.942 66.4978C354.195 66.4978 359.056 64.0674 365.131 59.8143L370.6 56.1688C371.815 54.9536 373.03 53.7385 373.03 51.9157C373.03 51.3081 373.03 50.7005 372.422 50.7005C371.815 49.4854 368.777 47.6626 362.701 45.8399C357.233 43.4095 352.98 42.1943 350.549 42.1943C348.727 42.1943 345.689 43.4095 341.436 45.8399C337.79 48.2702 335.36 50.7005 335.36 53.1309C335.36 53.1309 335.967 53.7385 336.575 54.9536C340.22 57.9916 343.866 59.8143 347.511 59.8143C352.372 59.8143 358.448 57.384 366.347 51.3081V52.5233C366.954 52.5233 366.954 53.1309 366.954 53.1309ZM380.929 175.863C383.359 180.432 387.612 182.729 392.473 182.729C393.688 182.729 394.903 182.547 396.118 182.182C397.333 181.939 398.549 181.514 399.156 181.028C399.764 180.602 400.371 180.177 400.979 179.691C402.194 179.266 402.194 178.962 402.802 178.658L413.131 169.727C415.561 167.788 417.991 166.093 421.029 164.623C423.46 163.165 425.89 162.193 427.105 161.646C428.928 161.16 430.143 160.431 431.358 159.458C431.966 158.547 432.573 157.393 432.573 155.934C432.573 154.172 431.358 152.836 430.143 151.864C428.928 150.891 427.713 150.223 426.498 149.798C425.282 149.373 424.067 148.4 422.245 146.76C421.029 145.18 419.814 142.993 419.207 140.137L418.599 136.613C417.991 134.973 417.991 133.758 417.384 133.089C417.384 132.907 417.384 132.846 416.776 132.846C416.169 132.846 414.953 133.393 414.346 134.426C413.131 135.459 411.916 136.613 410.7 137.828C410.093 139.044 408.27 140.137 407.055 141.17C405.232 142.203 403.409 142.75 402.194 142.75C397.333 142.75 394.903 141.413 393.08 138.801C391.865 136.856 391.258 134.608 390.65 132.056C389.435 131.023 388.827 130.477 387.612 130.477C384.574 130.477 383.359 133.636 383.359 140.016V142.021V149.069V154.476V157.089V158.912C383.359 159.458 382.751 160.674 382.751 162.557C382.144 164.441 382.144 166.579 382.144 168.998L380.929 175.742V175.845V175.863ZM292.829 172.631C298.479 173.457 304.98 175.225 312.332 177.923C319.684 180.596 324.18 181.994 325.821 181.994C330.074 181.994 333.598 180.11 336.514 176.471C337.122 175.292 337.122 173.907 337.122 172.315C337.122 166.573 333.658 159.313 326.732 150.503L322.6 144.974C321.75 143.819 320.717 142.057 319.38 139.688C318.104 137.318 316.95 135.495 316.038 134.219C315.249 132.822 313.973 131.424 312.332 130.027C310.752 128.63 308.93 127.718 306.925 127.232C304.373 127.718 302.611 128.569 301.76 129.723C300.91 130.878 300.423 132.154 300.302 133.49C300.12 134.766 299.755 135.617 299.148 136.042C298.54 136.407 297.507 136.71 296.11 137.014C295.806 137.014 295.259 137.014 294.469 137.075H292.829C289.608 137.075 287.421 137.44 286.267 138.047C284.748 139.809 283.958 141.814 283.958 143.941C283.958 144.913 284.201 146.553 284.687 148.862C285.173 151.11 285.416 152.933 285.416 154.209C285.416 156.7 284.687 159.191 283.168 161.682C281.649 164.295 280.859 166.239 280.859 167.624C281.467 169.982 285.477 171.641 292.829 172.613V172.631ZM313.061 117.383C313.061 113.191 314.155 108.573 316.403 103.105C318.59 97.6366 320.778 93.9911 322.904 91.5607C322.783 90.9531 322.479 90.9531 321.993 90.9531L321.385 90.3455C319.623 92.1683 317.497 96.4214 314.945 102.497C312.393 107.966 311.056 113.008 311.056 116.715C311.056 119.449 311.725 121.818 312.94 123.884C314.276 125.889 317.497 128.806 322.6 132.512L329.041 136.704C335.907 142.659 339.552 146.79 339.552 149.221C339.552 150.497 338.944 151.772 337.122 153.17C335.907 154.628 334.266 155.357 332.869 155.357C332.747 155.357 332.686 155.479 332.686 155.783C332.686 155.843 333.294 157.059 334.57 159.428C337.122 162.891 342.59 164.593 349.881 164.593C363.248 164.593 373.577 159.124 381.475 148.188C381.475 145.15 381.475 143.266 380.868 142.476V140.228C380.868 136.279 381.475 133.302 382.691 131.358C383.906 129.413 385.121 128.502 386.944 128.502C388.159 128.502 389.374 128.927 390.589 129.839C391.197 125.16 391.197 121.089 391.197 117.444C391.197 111.915 391.197 107.358 389.982 103.105C389.374 99.4593 388.159 96.4214 386.944 93.9911C385.729 92.1683 384.513 90.3455 383.298 88.5228C382.083 86.7 381.475 84.8773 380.26 83.0545C379.653 80.6242 379.045 78.8014 379.045 75.7635C377.222 72.7255 376.007 69.6876 374.184 66.6497C372.969 63.6117 371.754 60.5738 370.539 58.1435L365.071 62.3966C358.995 66.6497 354.134 68.4724 349.881 68.4724C346.235 68.4724 343.198 67.8648 341.375 65.4345L337.729 62.3966C337.729 64.2193 337.122 66.6497 335.907 69.08L332.079 76.3711C330.377 80.6242 329.466 83.0545 329.284 84.8773C329.041 86.0924 328.859 87.3076 328.737 87.3076L324.18 96.4214C319.259 105.535 316.768 113.981 316.768 120.968C316.768 122.365 316.889 123.824 317.132 125.282C314.398 123.398 313.061 120.786 313.061 117.383V117.383Z" stroke="#F5F5F5" stroke-width="2"/>
<path d="M242.314 308.475C242.314 292.489 222.294 277.339 191.601 267.944C198.684 236.661 195.536 211.772 181.666 203.804C178.468 201.935 174.73 201.049 170.648 201.049V212.018C172.91 212.018 174.73 212.461 176.255 213.297C182.944 217.133 185.846 231.742 183.584 250.532C183.043 255.155 182.157 260.025 181.075 264.993C171.435 262.632 160.908 260.812 149.841 259.631C143.201 250.532 136.315 242.268 129.379 235.038C145.414 220.134 160.466 211.969 170.697 211.969V201C157.17 201 139.463 210.641 121.558 227.364C103.654 210.739 85.9467 201.197 72.4202 201.197V212.166C82.602 212.166 97.7025 220.281 113.738 235.087C106.851 242.317 99.9652 250.532 93.4232 259.631C82.3069 260.812 71.7808 262.632 62.14 265.042C61.0087 260.123 60.1725 255.352 59.5823 250.778C57.2704 231.988 60.1233 217.379 66.7636 213.494C68.2393 212.608 70.1576 212.215 72.4202 212.215V201.246C68.2884 201.246 64.5502 202.131 61.3038 204C47.4821 211.969 44.3833 236.808 51.5155 267.993C20.9209 277.437 1 292.538 1 308.475C1 324.461 21.0193 339.61 51.7123 349.005C44.6293 380.288 47.7773 405.177 61.6481 413.146C64.8453 415.015 68.5836 415.9 72.7153 415.9C86.2419 415.9 103.949 406.259 121.854 389.536C139.758 406.161 157.465 415.703 170.992 415.703C175.124 415.703 178.862 414.818 182.108 412.949C195.93 404.98 199.029 380.141 191.897 348.956C222.393 339.561 242.314 324.411 242.314 308.475ZM178.272 275.667C176.452 282.012 174.189 288.554 171.631 295.096C169.615 291.161 167.5 287.226 165.188 283.291C162.925 279.356 160.515 275.519 158.105 271.781C165.089 272.814 171.828 274.093 178.272 275.667ZM155.744 328.051C151.907 334.692 147.972 340.988 143.89 346.841C136.561 347.48 129.133 347.825 121.657 347.825C114.23 347.825 106.802 347.48 99.5225 346.89C95.4399 341.037 91.4557 334.79 87.6191 328.199C83.8809 321.755 80.4869 315.213 77.3881 308.622C80.4377 302.031 83.8809 295.44 87.5699 288.996C91.4066 282.356 95.3415 276.06 99.4241 270.207C106.753 269.567 114.18 269.223 121.657 269.223C129.084 269.223 136.511 269.567 143.791 270.158C147.874 276.011 151.858 282.258 155.695 288.849C159.433 295.292 162.827 301.834 165.926 308.425C162.827 315.017 159.433 321.608 155.744 328.051ZM171.631 321.657C174.287 328.248 176.55 334.839 178.419 341.233C171.976 342.807 165.188 344.136 158.154 345.168C160.564 341.381 162.974 337.495 165.237 333.511C167.5 329.576 169.615 325.592 171.631 321.657ZM121.755 374.14C117.181 369.418 112.606 364.155 108.081 358.4C112.508 358.597 117.033 358.744 121.608 358.744C126.231 358.744 130.806 358.646 135.282 358.4C130.855 364.155 126.28 369.418 121.755 374.14ZM85.1597 345.168C78.1751 344.136 71.4364 342.857 64.9929 341.283C66.8128 334.937 69.0754 328.396 71.6332 321.854C73.6499 325.789 75.7649 329.724 78.0767 333.659C80.3886 337.594 82.7495 341.43 85.1597 345.168ZM121.509 242.809C126.084 247.531 130.658 252.794 135.183 258.549C130.757 258.353 126.231 258.205 121.657 258.205C117.033 258.205 112.459 258.303 107.983 258.549C112.41 252.794 116.984 247.531 121.509 242.809ZM85.1106 271.781C82.7004 275.568 80.2902 279.454 78.0276 283.438C75.7649 287.373 73.6499 291.308 71.6332 295.243C68.9771 288.652 66.7144 282.061 64.8453 275.667C71.2889 274.142 78.0768 272.814 85.1106 271.781ZM40.5959 333.363C23.1836 325.936 11.9196 316.197 11.9196 308.475C11.9196 300.752 23.1836 290.964 40.5959 283.586C44.826 281.766 49.4496 280.143 54.2208 278.618C57.0245 288.259 60.7136 298.293 65.288 308.573C60.7628 318.804 57.1229 328.789 54.3684 338.381C49.4988 336.856 44.8752 335.183 40.5959 333.363ZM67.0588 403.652C60.3693 399.816 57.4672 385.207 59.7298 366.417C60.2709 361.794 61.1563 356.924 62.2384 351.956C71.8791 354.317 82.4052 356.137 93.4724 357.318C100.113 366.417 106.999 374.681 113.934 381.911C97.8993 396.815 82.8479 404.98 72.6169 404.98C70.4035 404.931 68.5344 404.489 67.0588 403.652ZM183.731 366.171C186.043 384.961 183.19 399.57 176.55 403.456C175.074 404.341 173.156 404.734 170.893 404.734C160.712 404.734 145.611 396.619 129.576 381.813C136.462 374.583 143.349 366.368 149.89 357.269C161.007 356.088 171.533 354.268 181.174 351.858C182.305 356.826 183.19 361.597 183.731 366.171ZM202.669 333.363C198.438 335.183 193.815 336.807 189.044 338.331C186.24 328.691 182.551 318.656 177.976 308.376C182.502 298.145 186.142 288.16 188.896 278.569C193.766 280.093 198.389 281.766 202.718 283.586C220.13 291.013 231.394 300.752 231.394 308.475C231.345 316.197 220.081 325.985 202.669 333.363Z" fill="#61DAFB" stroke="#F5F5F5" stroke-width="2"/>
<path d="M121.608 330.953C134.022 330.953 144.086 320.889 144.086 308.475C144.086 296.06 134.022 285.996 121.608 285.996C109.193 285.996 99.129 296.06 99.129 308.475C99.129 320.889 109.193 330.953 121.608 330.953Z" fill="#61DAFB" stroke="#F5F5F5" stroke-width="2"/>
<path d="M708 206L695.246 348.329L637.914 364.162L580.741 348.352L568 206H708Z" fill="#264DE4" stroke="#F5F5F5" stroke-width="2"/>
<path d="M684.327 339.266L695.226 217.639H638V352.06L684.327 339.266Z" fill="#2965F1" stroke="#F5F5F5" stroke-width="2"/>
<path d="M597.208 270.435L598.779 287.894H638V270.435H597.208Z" fill="#EBEBEB" stroke="#F5F5F5" stroke-width="2"/>
<path d="M638 235.099H637.939H594.052L595.645 252.558H638V235.099Z" fill="#EBEBEB" stroke="#F5F5F5" stroke-width="2"/>
<path d="M638 333.942V315.778L637.923 315.798L618.404 310.548L617.156 296.624H607.671H599.562L602.018 324.037L637.919 333.965L638 333.942Z" fill="#EBEBEB" stroke="#F5F5F5" stroke-width="2"/>
<path d="M659.521 287.895L657.487 310.537L637.939 315.793V333.957L673.87 324.037L674.133 321.088L678.252 275.124L678.68 270.436L681.844 235.099H637.939V252.558H662.636L661.041 270.436H637.939V287.895H659.521Z" fill="white" stroke="#F5F5F5" stroke-width="2"/>
<path d="M483.734 400.4L471 258H611L598.266 400.323L540.884 416.162" fill="#E44D26" stroke="#F5F5F5" stroke-width="2"/>
<path d="M541 404.052V269.687H598.227L587.307 391.173" fill="#F16529" stroke="#F5F5F5" stroke-width="2"/>
<path d="M497.009 287.103H541V304.557H516.226L517.847 322.433H541V339.849H501.794L497.009 287.103ZM502.566 348.614H520.162L521.397 362.57L541 367.798V386.021L505.035 376.026" fill="#EBEBEB"/>
<path d="M502.566 348.614H520.162L521.397 362.57L541 367.798V386.021L505.035 376.026M497.009 287.103H541V304.557H516.226L517.847 322.433H541V339.849H501.794L497.009 287.103Z" stroke="#F5F5F5" stroke-width="2"/>
<path d="M584.837 287.103H540.923V304.557H583.216L584.837 287.103ZM581.634 322.433H540.923V339.887H562.532L560.487 362.57L540.923 367.798V385.944L576.81 376.026" fill="white"/>
<path d="M581.634 322.433H540.923V339.887H562.532L560.487 362.57L540.923 367.798V385.944L576.81 376.026M584.837 287.103H540.923V304.557H583.216L584.837 287.103Z" stroke="#F5F5F5" stroke-width="2"/>
<path d="M143.067 93.7013C137.87 93.7013 133.999 96.2535 133.999 102.396C133.999 107.024 136.55 110.237 142.788 110.237C148.074 110.237 151.665 107.122 151.665 102.205C151.665 96.633 148.452 93.7016 143.067 93.7016V93.7013ZM132.672 137.071C131.442 138.581 130.217 140.184 130.217 142.077C130.217 145.853 135.032 146.99 141.647 146.99C147.127 146.99 154.591 146.606 154.591 141.511C154.591 138.483 151 138.296 146.463 138.011L132.672 137.071H132.672ZM160.637 93.987C162.335 96.1606 164.132 99.1844 164.132 103.53C164.132 114.017 155.913 120.157 144.011 120.157C140.985 120.157 138.245 119.78 136.546 119.309L133.427 124.315L142.685 124.881C159.031 125.922 168.664 126.395 168.664 138.956C168.664 149.824 159.125 155.961 142.685 155.961C125.586 155.961 119.067 151.615 119.067 144.152C119.067 139.899 120.957 137.637 124.264 134.514C121.145 133.196 120.107 130.835 120.107 128.283C120.107 126.203 121.145 124.314 122.848 122.518C124.548 120.725 126.437 118.927 128.705 116.85C124.076 114.583 120.579 109.67 120.579 102.678C120.579 91.8143 127.76 84.3535 142.212 84.3535C146.275 84.3535 148.733 84.7275 150.906 85.2979H169.33V93.3262L160.637 93.9877" fill="#413000"/>
<path d="M160.637 93.987C162.335 96.1606 164.132 99.1844 164.132 103.53C164.132 114.017 155.913 120.157 144.011 120.157C140.985 120.157 138.245 119.78 136.546 119.309L133.427 124.315L142.685 124.881C159.031 125.922 168.664 126.395 168.664 138.956C168.664 149.824 159.125 155.961 142.685 155.961C125.586 155.961 119.067 151.615 119.067 144.152C119.067 139.899 120.957 137.637 124.264 134.514C121.145 133.196 120.107 130.835 120.107 128.283C120.107 126.203 121.145 124.314 122.848 122.518C124.548 120.725 126.437 118.927 128.705 116.85C124.076 114.583 120.579 109.67 120.579 102.678C120.579 91.8143 127.76 84.3535 142.212 84.3535C146.275 84.3535 148.733 84.7275 150.906 85.2979H169.33V93.3262L160.637 93.9877M143.067 93.7013C137.87 93.7013 133.999 96.2535 133.999 102.396C133.999 107.024 136.55 110.237 142.788 110.237C148.074 110.237 151.665 107.122 151.665 102.205C151.665 96.633 148.452 93.7016 143.067 93.7016V93.7013ZM132.672 137.071C131.442 138.581 130.217 140.184 130.217 142.077C130.217 145.853 135.032 146.99 141.647 146.99C147.127 146.99 154.591 146.606 154.591 141.511C154.591 138.483 151 138.296 146.463 138.011L132.672 137.071H132.672Z" stroke="#F5F5F5" stroke-width="2"/>
<path d="M185.96 76.8188C180.573 76.8188 177.457 73.6984 177.457 68.3113C177.457 62.931 180.573 60 185.96 60C191.439 60 194.557 62.931 194.557 68.3113C194.557 73.6983 191.439 76.8188 185.96 76.8188ZM173.77 133.594V126.134L178.59 125.475C179.913 125.283 180.101 125.002 180.101 123.581V95.806C180.101 94.769 179.819 94.1048 178.871 93.8236L173.77 92.027L174.809 84.3772H194.367V123.582C194.367 125.096 194.458 125.284 195.879 125.475L200.698 126.135V133.594H173.77" fill="#413000"/>
<path d="M173.77 133.594V126.134L178.59 125.475C179.913 125.283 180.101 125.002 180.101 123.581V95.806C180.101 94.769 179.819 94.1048 178.871 93.8236L173.77 92.027L174.809 84.3772H194.367V123.582C194.367 125.096 194.458 125.284 195.879 125.475L200.698 126.135V133.594H173.77M185.96 76.8188C180.573 76.8188 177.457 73.6984 177.457 68.3113C177.457 62.931 180.573 60 185.96 60C191.439 60 194.557 62.931 194.557 68.3113C194.557 73.6983 191.439 76.8188 185.96 76.8188Z" stroke="#F5F5F5" stroke-width="2"/>
<path d="M238.057 129.933C233.993 131.914 228.042 133.709 222.654 133.709C211.413 133.709 207.162 129.179 207.162 118.499V93.7483C207.162 93.1827 207.162 92.8031 206.404 92.8031H199.792V84.3953C208.108 83.448 211.412 79.2903 212.452 68.9927H221.428V82.4126C221.428 83.0716 221.428 83.357 222.184 83.357H235.504V92.803H221.428V115.381C221.428 120.956 222.752 123.127 227.851 123.127C230.5 123.127 233.236 122.468 235.504 121.617L238.057 129.933" fill="#413000"/>
<path d="M238.057 129.933C233.993 131.914 228.042 133.709 222.654 133.709C211.413 133.709 207.162 129.179 207.162 118.499V93.7483C207.162 93.1827 207.162 92.8031 206.404 92.8031H199.792V84.3953C208.108 83.448 211.412 79.2903 212.452 68.9927H221.428V82.4126C221.428 83.0716 221.428 83.357 222.184 83.357H235.504V92.803H221.428V115.381C221.428 120.956 222.752 123.127 227.851 123.127C230.5 123.127 233.236 122.468 235.504 121.617L238.057 129.933" stroke="#F5F5F5" stroke-width="2"/>
<path d="M98.0738 105.14L54.8734 61.9444C52.3877 59.4565 48.353 59.4565 45.8642 61.9444L36.8941 70.9154L48.2724 82.2936C50.9176 81.4005 53.9494 81.9993 56.057 84.1073C58.1754 86.2283 58.77 89.2861 57.8545 91.9401L68.8211 102.907C71.4742 101.992 74.5354 102.583 76.6539 104.705C79.6158 107.666 79.6158 112.465 76.6539 115.426C73.6916 118.389 68.8936 118.389 65.9296 115.426C63.7025 113.197 63.1517 109.925 64.2797 107.181L54.0521 96.9536L54.0512 123.867C54.7733 124.225 55.4548 124.702 56.0565 125.301C59.0175 128.262 59.0175 133.059 56.0565 136.025C53.0946 138.985 48.2944 138.985 45.3357 136.025C42.3742 133.059 42.3742 128.262 45.3357 125.301C46.0675 124.57 46.9144 124.017 47.818 123.647V96.483C46.914 96.1139 46.0681 95.5651 45.3352 94.8286C43.092 92.5872 42.5517 89.295 43.7021 86.5404L32.4854 75.3219L2.86651 104.94C0.37783 107.43 0.37783 111.465 2.86651 113.953L46.0643 157.148C48.5513 159.636 52.5847 159.636 55.0752 157.148L98.0732 114.157C100.561 111.668 100.561 107.632 98.0732 105.143" fill="#F05133"/>
<path d="M98.0738 105.14L54.8734 61.9444C52.3877 59.4565 48.353 59.4565 45.8642 61.9444L36.8941 70.9154L48.2724 82.2936C50.9176 81.4005 53.9494 81.9993 56.057 84.1073C58.1754 86.2283 58.77 89.2861 57.8545 91.9401L68.8211 102.907C71.4742 101.992 74.5354 102.583 76.6539 104.705C79.6158 107.666 79.6158 112.465 76.6539 115.426C73.6916 118.389 68.8936 118.389 65.9296 115.426C63.7025 113.197 63.1517 109.925 64.2797 107.181L54.0521 96.9536L54.0512 123.867C54.7733 124.225 55.4548 124.702 56.0565 125.301C59.0175 128.262 59.0175 133.059 56.0565 136.025C53.0946 138.985 48.2944 138.985 45.3357 136.025C42.3742 133.059 42.3742 128.262 45.3357 125.301C46.0675 124.57 46.9144 124.017 47.818 123.647V96.483C46.914 96.1139 46.0681 95.5651 45.3352 94.8286C43.092 92.5872 42.5517 89.295 43.7021 86.5404L32.4854 75.3219L2.86651 104.94C0.37783 107.43 0.37783 111.465 2.86651 113.953L46.0643 157.148C48.5513 159.636 52.5847 159.636 55.0752 157.148L98.0732 114.157C100.561 111.668 100.561 107.632 98.0732 105.143" stroke="#F5F5F5" stroke-width="2"/>
<path d="M571.285 42C536.363 42 538.544 57.1442 538.544 57.1442L538.583 72.8335H571.908V77.5442H525.347C525.347 77.5442 503 75.0099 503 110.246C503 145.483 522.505 144.233 522.505 144.233H534.145V127.882C534.145 127.882 533.518 108.378 553.338 108.378C573.159 108.378 586.391 108.378 586.391 108.378C586.391 108.378 604.961 108.678 604.961 90.4304C604.961 72.1829 604.961 60.2587 604.961 60.2587C604.961 60.2587 607.78 42 571.285 42ZM552.91 52.5504C556.225 52.5504 558.905 55.2302 558.905 58.5458C558.905 61.8614 556.225 64.5412 552.91 64.5412C549.594 64.5412 546.914 61.8614 546.914 58.5458C546.914 55.2302 549.594 52.5504 552.91 52.5504Z" fill="url(#paint0_linear)" stroke="#F5F5F5" stroke-width="2"/>
<path d="M572.277 178.846C607.199 178.846 605.018 163.702 605.018 163.702L604.979 148.013H571.654V143.302H618.216C618.216 143.302 640.562 145.836 640.562 110.6C640.562 75.3632 621.058 76.6128 621.058 76.6128H609.418V92.9639C609.418 92.9639 610.045 112.468 590.224 112.468C570.404 112.468 557.172 112.468 557.172 112.468C557.172 112.468 538.602 112.168 538.602 130.416C538.602 148.663 538.602 160.587 538.602 160.587C538.602 160.587 535.782 178.846 572.277 178.846ZM590.653 168.296C587.337 168.296 584.657 165.616 584.657 162.3C584.657 158.985 587.337 156.305 590.653 156.305C593.968 156.305 596.648 158.985 596.648 162.3C596.648 165.616 593.968 168.296 590.653 168.296Z" fill="url(#paint1_linear)" stroke="#F5F5F5" stroke-width="2"/>
<path d="M452 225H261V416H452V225Z" fill="#F7DF1E" stroke="#F5F5F5" stroke-width="2"/>
<path d="M389.303 374.219C393.151 380.501 398.156 385.119 407.009 385.119C414.446 385.119 419.196 381.402 419.196 376.266C419.196 370.111 414.315 367.932 406.13 364.351L401.643 362.426C388.691 356.908 380.087 349.996 380.087 335.383C380.087 321.922 390.343 311.675 406.372 311.675C417.784 311.675 425.988 315.646 431.899 326.045L417.923 335.019C414.846 329.501 411.526 327.327 406.372 327.327C401.115 327.327 397.783 330.662 397.783 335.019C397.783 340.403 401.118 342.583 408.819 345.918L413.306 347.84C428.555 354.38 437.166 361.047 437.166 376.035C437.166 392.195 424.472 401.047 407.424 401.047C390.756 401.047 379.987 393.104 374.718 382.693L389.303 374.219ZM325.901 375.775C328.72 380.777 331.285 385.006 337.451 385.006C343.348 385.006 347.068 382.699 347.068 373.728V312.699H365.016V373.971C365.016 392.555 354.12 401.014 338.215 401.014C323.845 401.014 315.523 393.577 311.291 384.62L325.901 375.775Z" fill="black" stroke="#F5F5F5" stroke-width="2"/>
<defs>
<linearGradient id="paint0_linear" x1="516.22" y1="53.9616" x2="584.241" y2="122.21" gradientUnits="userSpaceOnUse">
<stop stop-color="#387EB8"/>
<stop offset="1" stop-color="#366994"/>
</linearGradient>
<linearGradient id="paint1_linear" x1="558.063" y1="97.378" x2="631.118" y2="167.368" gradientUnits="userSpaceOnUse">
<stop stop-color="#FFE052"/>
<stop offset="1" stop-color="#FFC331"/>
</linearGradient>
</defs>
</svg>
