<svg width="387" height="47" viewBox="0 0 387 47" fill="none" xmlns="http://www.w3.org/2000/svg">
<path className="texture" pathLength="1" d="M23.7812 29.4688L32.4375 30C32.125 34.625 30.6562 38.3958 28.0312 41.3125C25.4062 44.2083 21.9375 45.6562 17.625 45.6562C12.375 45.6562 8.375 43.7083 5.625 39.8125C2.875 35.9167 1.5 30.5521 1.5 23.7188C1.5 16.8229 2.86458 11.4271 5.59375 7.53125C8.32292 3.63542 12.375 1.6875 17.75 1.6875C26.6458 1.6875 31.4896 7.1875 32.2812 18.1875L23.7188 18.8125C23.4896 12.4792 21.5104 9.3125 17.7812 9.3125C15.8229 9.3125 14.2604 10.3333 13.0938 12.375C11.9479 14.4167 11.375 18.375 11.375 24.25C11.375 29.5 11.9062 33.1146 12.9688 35.0938C14.0312 37.0521 15.625 38.0312 17.75 38.0312C21.1667 38.0312 23.1771 35.1771 23.7812 29.4688ZM61.5 29.2188C61.5 40.1771 57.2292 45.6562 48.6875 45.6562C40.125 45.6562 35.8438 40.1771 35.8438 29.2188C35.8438 18.2812 40.125 12.8125 48.6875 12.8125C57.2292 12.8125 61.5 18.2812 61.5 29.2188ZM52.4062 29.2188C52.4062 25.1979 52.125 22.4792 51.5625 21.0625C51.0208 19.6458 50.0625 18.9375 48.6875 18.9375C47.3542 18.9375 46.3958 19.6146 45.8125 20.9688C45.2292 22.3021 44.9375 25.0521 44.9375 29.2188C44.9375 33.0729 45.1875 35.75 45.6875 37.25C46.1875 38.75 47.1875 39.5 48.6875 39.5C50.125 39.5 51.1042 38.7604 51.625 37.2812C52.1458 35.7812 52.4062 33.0938 52.4062 29.2188ZM66.625 13.4375H74.9688V17.75C76.4271 14.4583 79.0625 12.8125 82.875 12.8125C84.9375 12.8125 86.6354 13.2812 87.9688 14.2188C89.3229 15.1354 90.1875 16.3125 90.5625 17.75C90.9375 19.1875 91.125 21.375 91.125 24.3125V45H82.3125V24.3125C82.3125 22.1875 82.0417 20.875 81.5 20.375C80.9583 19.875 80.2292 19.625 79.3125 19.625C77.7292 19.625 76.6875 20.1146 76.1875 21.0938C75.6875 22.0521 75.4375 23.8542 75.4375 26.5V45H66.625V13.4375ZM98.5 3.75L107.062 3.46875V13.4375H112.875V20.375H107.062V31.9688C107.062 34.1146 107.104 35.5104 107.188 36.1562C107.292 36.7812 107.604 37.3125 108.125 37.75C108.667 38.1667 109.562 38.375 110.812 38.375C111.479 38.375 112.312 38.3542 113.312 38.3125V45C111.354 45.4375 109.562 45.6562 107.938 45.6562C105.271 45.6562 103.229 45.1458 101.812 44.125C100.396 43.1042 99.4896 41.8229 99.0938 40.2812C98.6979 38.7396 98.5 36.2917 98.5 32.9375V20.375H95V13.4375H98.5V3.75ZM125.812 23.4688L117.469 22.6562C117.865 19.4896 119.208 17.0521 121.5 15.3438C123.812 13.6354 126.719 12.7812 130.219 12.7812C133.177 12.7812 135.552 13.3542 137.344 14.5C139.135 15.625 140.26 16.9375 140.719 18.4375C141.198 19.9375 141.438 22.2604 141.438 25.4062V38C141.438 41.9167 141.615 44.25 141.969 45H133.812C133.521 44.1458 133.375 42.5312 133.375 40.1562C131.438 43.8229 128.552 45.6562 124.719 45.6562C122.26 45.6562 120.26 44.9271 118.719 43.4688C117.177 41.9896 116.406 39.8438 116.406 37.0312C116.406 33.5104 117.573 30.7917 119.906 28.875C122.24 26.9375 126.49 25.7812 132.656 25.4062V24.2188C132.656 22.1146 132.438 20.6562 132 19.8438C131.583 19.0312 130.76 18.625 129.531 18.625C127.281 18.625 126.042 20.2396 125.812 23.4688ZM132.656 29.9062C130.094 30.1979 128.26 30.7708 127.156 31.625C126.073 32.4583 125.531 33.875 125.531 35.875C125.531 38.5417 126.51 39.875 128.469 39.875C129.531 39.875 130.49 39.2812 131.344 38.0938C132.219 36.8854 132.656 34.6771 132.656 31.4688V29.9062ZM171.5 25.0625L163.312 25.375C163.188 23.4375 162.875 21.9792 162.375 21C161.875 20 161.031 19.5 159.844 19.5C156.885 19.5 155.406 22.6042 155.406 28.8125C155.406 32.4167 155.76 34.9375 156.469 36.375C157.198 37.8125 158.271 38.5312 159.688 38.5312C161.896 38.5312 163.104 36.5833 163.312 32.6875L171.5 33.2188C170.771 41.5104 166.646 45.6562 159.125 45.6562C155.062 45.6562 151.948 44.2917 149.781 41.5625C147.635 38.8125 146.562 34.7292 146.562 29.3125C146.562 23.9375 147.688 19.8438 149.938 17.0312C152.208 14.2188 155.385 12.8125 159.469 12.8125C166.844 12.8125 170.854 16.8958 171.5 25.0625ZM177.625 3.75L186.188 3.46875V13.4375H192V20.375H186.188V31.9688C186.188 34.1146 186.229 35.5104 186.312 36.1562C186.417 36.7812 186.729 37.3125 187.25 37.75C187.792 38.1667 188.688 38.375 189.938 38.375C190.604 38.375 191.438 38.3542 192.438 38.3125V45C190.479 45.4375 188.688 45.6562 187.062 45.6562C184.396 45.6562 182.354 45.1458 180.938 44.125C179.521 43.1042 178.615 41.8229 178.219 40.2812C177.823 38.7396 177.625 36.2917 177.625 32.9375V20.375H174.125V13.4375H177.625V3.75ZM237.312 20.5938L244.281 21.8438C243.135 26.8854 241.198 31.4375 238.469 35.5C239.948 37.0417 241.396 37.8125 242.812 37.8125C243 37.8125 243.49 37.7917 244.281 37.75V45C243.115 45.2917 242.031 45.4375 241.031 45.4375C238.073 45.4375 235.312 44.0938 232.75 41.4062C229.271 44.2396 225.406 45.6562 221.156 45.6562C216.448 45.6562 213 44.3958 210.812 41.875C208.646 39.3542 207.562 36.4167 207.562 33.0625C207.562 27.5833 210.792 23.4792 217.25 20.75C214.604 17.125 213.281 13.9375 213.281 11.1875C213.281 8.625 214.323 6.40625 216.406 4.53125C218.51 2.63542 221.219 1.6875 224.531 1.6875C227.885 1.6875 230.542 2.66667 232.5 4.625C234.479 6.58333 235.469 9 235.469 11.875C235.469 16.1667 233.01 19.5833 228.094 22.125L234 29.9688C235.354 27.7604 236.458 24.6354 237.312 20.5938ZM224.469 17.25C227.031 15.8125 228.312 13.8542 228.312 11.375C228.312 10.375 228.031 9.53125 227.469 8.84375C226.927 8.13542 226.104 7.78125 225 7.78125C223.938 7.78125 223.115 8.09375 222.531 8.71875C221.948 9.34375 221.656 10.1458 221.656 11.125C221.656 12.6458 222.594 14.6875 224.469 17.25ZM220.812 25.6875C217.917 27.4375 216.469 29.7083 216.469 32.5C216.469 34.2917 217 35.7604 218.062 36.9062C219.125 38.0521 220.625 38.625 222.562 38.625C224.833 38.625 226.823 37.7917 228.531 36.125L220.812 25.6875ZM262.031 2.34375H271.406V37H285.156V45H262.031V2.34375ZM297.344 10.8438H288.406V2.125H297.344V10.8438ZM288.469 13.4375H297.281V45H288.469V13.4375ZM303.75 13.4375H312.094V17.75C313.552 14.4583 316.188 12.8125 320 12.8125C322.062 12.8125 323.76 13.2812 325.094 14.2188C326.448 15.1354 327.312 16.3125 327.688 17.75C328.062 19.1875 328.25 21.375 328.25 24.3125V45H319.438V24.3125C319.438 22.1875 319.167 20.875 318.625 20.375C318.083 19.875 317.354 19.625 316.438 19.625C314.854 19.625 313.812 20.1146 313.312 21.0938C312.812 22.0521 312.562 23.8542 312.562 26.5V45H303.75V13.4375ZM334.312 2.34375H343.125V25.625L352 13.4375H360L352.031 24.0312L360.781 45H351.281L346.344 30.3438L343.125 34.7812V45H334.312V2.34375ZM384.562 21.0312L378.281 22.9062C377.448 20.0521 375.906 18.625 373.656 18.625C371.823 18.625 370.906 19.5417 370.906 21.375C370.906 22.4167 371.25 23.2083 371.938 23.75C372.625 24.2917 374.042 24.9375 376.188 25.6875C378.604 26.5417 380.375 27.2917 381.5 27.9375C382.625 28.5833 383.573 29.5625 384.344 30.875C385.115 32.1667 385.5 33.6562 385.5 35.3438C385.5 38.2604 384.448 40.7083 382.344 42.6875C380.24 44.6667 377.302 45.6562 373.531 45.6562C366.427 45.6562 362.49 42.5208 361.719 36.25L368.719 35.125C369.302 38.2708 370.958 39.8438 373.688 39.8438C376.021 39.8438 377.188 38.8646 377.188 36.9062C377.188 35.8646 376.844 35.0729 376.156 34.5312C375.469 33.9896 374.135 33.4062 372.156 32.7812C368.531 31.6146 366.042 30.2083 364.688 28.5625C363.333 26.9167 362.656 25.0104 362.656 22.8438C362.656 19.8021 363.719 17.3646 365.844 15.5312C367.99 13.6979 370.667 12.7812 373.875 12.7812C379.479 12.7812 383.042 15.5312 384.562 21.0312Z" fill="#F5F5F5" fill-opacity="0.0"/>
<path pathLength="1" d="M23.7812 29.4688L23.8425 28.4706L22.8875 28.412L22.7868 29.3635L23.7812 29.4688ZM32.4375 30L33.4352 30.0674L33.5031 29.0635L32.4988 29.0019L32.4375 30ZM28.0312 41.3125L28.7722 41.9841L28.7745 41.9815L28.0312 41.3125ZM32.2812 18.1875L32.354 19.1848L33.3504 19.1121L33.2787 18.1157L32.2812 18.1875ZM23.7188 18.8125L22.7194 18.8487L22.7569 19.8854L23.7915 19.8098L23.7188 18.8125ZM13.0938 12.375L12.2255 11.8788L12.2217 11.8856L13.0938 12.375ZM12.9688 35.0938L12.0877 35.5667L12.0898 35.5706L12.9688 35.0938ZM23.72 30.4669L32.3762 30.9981L32.4988 29.0019L23.8425 28.4706L23.72 30.4669ZM31.4398 29.9326C31.1395 34.3763 29.7372 37.9221 27.288 40.6435L28.7745 41.9815C31.5753 38.8696 33.1105 34.8737 33.4352 30.0674L31.4398 29.9326ZM27.2903 40.6409C24.8757 43.3047 21.6878 44.6562 17.625 44.6562V46.6562C22.1872 46.6562 25.9368 45.112 28.7722 41.9841L27.2903 40.6409ZM17.625 44.6562C12.6617 44.6562 8.98356 42.8364 6.44197 39.2358L4.80803 40.3892C7.76644 44.5803 12.0883 46.6562 17.625 46.6562V44.6562ZM6.44197 39.2358C3.85251 35.5674 2.5 30.4315 2.5 23.7188H0.5C0.5 30.6727 1.89749 36.2659 4.80803 40.3892L6.44197 39.2358ZM2.5 23.7188C2.5 16.94 3.84352 11.7726 6.41278 8.10501L4.77472 6.95749C1.88565 11.0816 0.5 16.7059 0.5 23.7188H2.5ZM6.41278 8.10501C8.92825 4.51422 12.652 2.6875 17.75 2.6875V0.6875C12.098 0.6875 7.71758 2.75662 4.77472 6.95749L6.41278 8.10501ZM17.75 2.6875C21.9775 2.6875 25.1123 3.98454 27.3042 6.47342C29.5249 8.99496 30.8962 12.8727 31.2838 18.2593L33.2787 18.1157C32.8747 12.5023 31.4282 8.13004 28.8051 5.15158C26.1533 2.14046 22.4183 0.6875 17.75 0.6875V2.6875ZM32.2085 17.1902L23.646 17.8152L23.7915 19.8098L32.354 19.1848L32.2085 17.1902ZM24.7181 18.7763C24.6011 15.542 24.0368 12.9596 22.9105 11.1575C21.7385 9.28228 19.9912 8.3125 17.7812 8.3125V10.3125C19.3005 10.3125 20.4073 10.9261 21.2145 12.2175C22.0673 13.5821 22.6073 15.7497 22.7194 18.8487L24.7181 18.7763ZM17.7812 8.3125C15.3863 8.3125 13.5279 9.5996 12.2255 11.8789L13.962 12.8711C14.9929 11.0671 16.2596 10.3125 17.7812 10.3125V8.3125ZM12.2217 11.8856C11.5606 13.0635 11.1084 14.7047 10.815 16.7318C10.5193 18.7747 10.375 21.2846 10.375 24.25H12.375C12.375 21.3404 12.5172 18.9336 12.7944 17.0182C13.0739 15.087 13.4811 13.7281 13.9658 12.8644L12.2217 11.8856ZM10.375 24.25C10.375 29.4997 10.8949 33.345 12.0877 35.5667L13.8498 34.6208C12.9176 32.8842 12.375 29.5003 12.375 24.25H10.375ZM12.0898 35.5706C12.6886 36.6743 13.465 37.5515 14.4375 38.1489C15.4124 38.7479 16.5284 39.0312 17.75 39.0312V37.0312C16.8466 37.0312 16.1032 36.825 15.4844 36.4448C14.8631 36.0631 14.3114 35.4715 13.8477 34.6169L12.0898 35.5706ZM17.75 39.0312C19.792 39.0312 21.4502 38.1526 22.6379 36.4665C23.7851 34.8377 24.466 32.5005 24.7757 29.574L22.7868 29.3635C22.4924 32.1453 21.8659 34.0894 21.0028 35.3148C20.18 36.4828 19.1247 37.0312 17.75 37.0312V39.0312ZM51.5625 21.0625L50.6284 21.4197L50.6331 21.4315L51.5625 21.0625ZM45.8125 20.9688L46.7287 21.3696L46.7309 21.3644L45.8125 20.9688ZM51.625 37.2812L52.5682 37.6134L52.5697 37.6093L51.625 37.2812ZM60.5 29.2188C60.5 34.5955 59.4476 38.444 57.5082 40.9321C55.6057 43.3728 52.7285 44.6562 48.6875 44.6562V46.6562C53.1882 46.6562 56.7172 45.2001 59.0856 42.1616C61.417 39.1706 62.5 34.8003 62.5 29.2188H60.5ZM48.6875 44.6562C44.6352 44.6562 41.75 43.3722 39.8427 40.9312C37.8986 38.4432 36.8438 34.5951 36.8438 29.2188H34.8438C34.8438 34.8007 35.9295 39.1714 38.2667 42.1626C40.6406 45.2007 44.1773 46.6562 48.6875 46.6562V44.6562ZM36.8438 29.2188C36.8438 23.8531 37.8985 20.0132 39.8421 17.5305C41.7492 15.0944 44.6346 13.8125 48.6875 13.8125V11.8125C44.1779 11.8125 40.6414 13.265 38.2673 16.2976C35.9296 19.2837 34.8438 23.6469 34.8438 29.2188H36.8438ZM48.6875 13.8125C52.7292 13.8125 55.6065 15.0938 57.5087 17.5296C59.4477 20.0124 60.5 23.8527 60.5 29.2188H62.5C62.5 23.6473 61.4169 19.2845 59.085 16.2986C56.7164 13.2656 53.1875 11.8125 48.6875 11.8125V13.8125ZM53.4062 29.2188C53.4062 27.1883 53.3354 25.4665 53.19 24.0612C53.0461 22.6705 52.8238 21.5292 52.4919 20.6935L50.6331 21.4315C50.8637 22.0124 51.0632 22.9389 51.2006 24.267C51.3365 25.5803 51.4062 27.2283 51.4062 29.2188H53.4062ZM52.4966 20.7054C52.176 19.8669 51.7015 19.1595 51.0319 18.6646C50.355 18.1643 49.5548 17.9375 48.6875 17.9375V19.9375C49.1952 19.9375 49.5616 20.0649 49.8431 20.2729C50.1319 20.4863 50.4074 20.8415 50.6284 21.4196L52.4966 20.7054ZM48.6875 17.9375C47.8434 17.9375 47.0621 18.155 46.3917 18.6286C45.728 19.0975 45.2401 19.7699 44.8941 20.5731L46.7309 21.3644C46.9683 20.8134 47.2512 20.4702 47.5458 20.262C47.8338 20.0586 48.1982 19.9375 48.6875 19.9375V17.9375ZM44.8963 20.5679C44.5417 21.3785 44.3106 22.5232 44.1618 23.9258C44.0109 25.3486 43.9375 27.1159 43.9375 29.2188H45.9375C45.9375 27.1549 46.0099 25.4639 46.1507 24.1367C46.2936 22.7893 46.5 21.8923 46.7287 21.3696L44.8963 20.5679ZM43.9375 29.2188C43.9375 33.0698 44.1819 35.8956 44.7388 37.5662L46.6362 36.9338C46.1931 35.6044 45.9375 33.076 45.9375 29.2188H43.9375ZM44.7388 37.5662C45.0361 38.458 45.5114 39.2116 46.2125 39.7375C46.9181 40.2667 47.7656 40.5 48.6875 40.5V38.5C48.1094 38.5 47.7069 38.3583 47.4125 38.1375C47.1136 37.9134 46.8389 37.542 46.6362 36.9338L44.7388 37.5662ZM48.6875 40.5C49.5851 40.5 50.411 40.2657 51.1027 39.7433C51.7875 39.2261 52.2606 38.4871 52.5682 37.6134L50.6818 36.9491C50.4686 37.5546 50.1917 37.925 49.8973 38.1474C49.6098 38.3645 49.2274 38.5 48.6875 38.5V40.5ZM52.5697 37.6093C53.1518 35.9326 53.4062 33.0902 53.4062 29.2188H51.4062C51.4062 33.0973 51.1398 35.6299 50.6803 36.9532L52.5697 37.6093ZM66.625 13.4375V12.4375H65.625V13.4375H66.625ZM74.9688 13.4375H75.9688V12.4375H74.9688V13.4375ZM74.9688 17.75H73.9688L75.883 18.1551L74.9688 17.75ZM87.9688 14.2188L87.3936 15.0368L87.4008 15.0419L87.4082 15.0469L87.9688 14.2188ZM91.125 45V46H92.125V45H91.125ZM82.3125 45H81.3125V46H82.3125V45ZM76.1875 21.0938L77.0741 21.5563L77.0781 21.5485L76.1875 21.0938ZM75.4375 45V46H76.4375V45H75.4375ZM66.625 45H65.625V46H66.625V45ZM66.625 14.4375H74.9688V12.4375H66.625V14.4375ZM73.9688 13.4375V17.75H75.9688V13.4375H73.9688ZM75.883 18.1551C76.5444 16.6623 77.4464 15.596 78.5688 14.8951C79.695 14.1917 81.1135 13.8125 82.875 13.8125V11.8125C80.824 11.8125 79.0185 12.2562 77.5094 13.1987C75.9963 14.1436 74.8514 15.5461 74.0545 17.3449L75.883 18.1551ZM82.875 13.8125C84.7864 13.8125 86.2686 14.2457 87.3936 15.0368L88.5439 13.4007C87.0023 12.3168 85.0886 11.8125 82.875 11.8125V13.8125ZM87.4082 15.0469C88.5831 15.8422 89.2875 16.8242 89.5949 18.0024L91.5301 17.4976C91.0875 15.8008 90.0627 14.4286 88.5293 13.3906L87.4082 15.0469ZM89.5949 18.0024C89.9364 19.3118 90.125 21.3943 90.125 24.3125H92.125C92.125 21.3557 91.9386 19.0632 91.5301 17.4976L89.5949 18.0024ZM90.125 24.3125V45H92.125V24.3125H90.125ZM91.125 44H82.3125V46H91.125V44ZM83.3125 45V24.3125H81.3125V45H83.3125ZM83.3125 24.3125C83.3125 23.2166 83.2434 22.2819 83.0887 21.5323C82.9412 20.8172 82.6844 20.1074 82.1783 19.6402L80.8217 21.1098C80.8573 21.1426 81.0067 21.339 81.13 21.9365C81.2462 22.4993 81.3125 23.2834 81.3125 24.3125H83.3125ZM82.1783 19.6402C81.4097 18.9307 80.4166 18.625 79.3125 18.625V20.625C80.0418 20.625 80.507 20.8193 80.8217 21.1098L82.1783 19.6402ZM79.3125 18.625C77.5405 18.625 76.0388 19.1861 75.2969 20.639L77.0781 21.5485C77.3362 21.0431 77.9179 20.625 79.3125 20.625V18.625ZM75.3009 20.6312C74.9738 21.2581 74.766 22.0786 74.6345 23.0267C74.501 23.9886 74.4375 25.1498 74.4375 26.5H76.4375C76.4375 25.2044 76.499 24.1416 76.6155 23.3015C76.734 22.4474 76.9012 21.8877 77.0741 21.5563L75.3009 20.6312ZM74.4375 26.5V45H76.4375V26.5H74.4375ZM75.4375 44H66.625V46H75.4375V44ZM67.625 45V13.4375H65.625V45H67.625ZM98.5 3.75L98.4672 2.75054L97.5 2.78231V3.75H98.5ZM107.062 3.46875H108.062V2.43536L107.03 2.46929L107.062 3.46875ZM107.062 13.4375H106.062V14.4375H107.062V13.4375ZM112.875 13.4375H113.875V12.4375H112.875V13.4375ZM112.875 20.375V21.375H113.875V20.375H112.875ZM107.062 20.375V19.375H106.062V20.375H107.062ZM107.188 36.1562L106.196 36.2842L106.198 36.3025L106.201 36.3206L107.188 36.1562ZM108.125 37.75L107.482 38.5157L107.498 38.5295L107.515 38.5426L108.125 37.75ZM113.312 38.3125H114.312V37.27L113.271 37.3134L113.312 38.3125ZM113.312 45L113.531 45.9759L114.312 45.8012V45H113.312ZM98.5 20.375H99.5V19.375H98.5V20.375ZM95 20.375H94V21.375H95V20.375ZM95 13.4375V12.4375H94V13.4375H95ZM98.5 13.4375V14.4375H99.5V13.4375H98.5ZM98.5328 4.74946L107.095 4.46821L107.03 2.46929L98.4672 2.75054L98.5328 4.74946ZM106.062 3.46875V13.4375H108.062V3.46875H106.062ZM107.062 14.4375H112.875V12.4375H107.062V14.4375ZM111.875 13.4375V20.375H113.875V13.4375H111.875ZM112.875 19.375H107.062V21.375H112.875V19.375ZM106.062 20.375V31.9688H108.062V20.375H106.062ZM106.062 31.9688C106.062 34.0993 106.103 35.5626 106.196 36.2842L108.179 36.0283C108.106 35.4582 108.062 34.1299 108.062 31.9688H106.062ZM106.201 36.3206C106.347 37.1986 106.793 37.9372 107.482 38.5157L108.768 36.9843C108.415 36.6878 108.236 36.3639 108.174 35.9919L106.201 36.3206ZM107.515 38.5426C108.326 39.1665 109.502 39.375 110.812 39.375V37.375C109.623 37.375 109.007 37.1669 108.735 36.9574L107.515 38.5426ZM110.812 39.375C111.498 39.375 112.346 39.3536 113.354 39.3116L113.271 37.3134C112.279 37.3547 111.46 37.375 110.812 37.375V39.375ZM112.312 38.3125V45H114.312V38.3125H112.312ZM113.094 44.0241C111.192 44.4491 109.474 44.6562 107.938 44.6562V46.6562C109.651 46.6562 111.517 46.4259 113.531 45.9759L113.094 44.0241ZM107.938 44.6562C105.377 44.6562 103.575 44.1626 102.397 43.3137L101.228 44.9363C102.883 46.1291 105.165 46.6562 107.938 46.6562V44.6562ZM102.397 43.3137C101.151 42.4155 100.394 41.325 100.062 40.0326L98.1252 40.5299C98.585 42.3208 99.6411 43.7929 101.228 44.9363L102.397 43.3137ZM100.062 40.0326C99.6997 38.6203 99.5 36.279 99.5 32.9375H97.5C97.5 36.3043 97.6961 38.8589 98.1252 40.5299L100.062 40.0326ZM99.5 32.9375V20.375H97.5V32.9375H99.5ZM98.5 19.375H95V21.375H98.5V19.375ZM96 20.375V13.4375H94V20.375H96ZM95 14.4375H98.5V12.4375H95V14.4375ZM99.5 13.4375V3.75H97.5V13.4375H99.5ZM125.812 23.4688L125.716 24.464L126.737 24.5635L126.81 23.5395L125.812 23.4688ZM117.469 22.6562L116.476 22.5322L116.349 23.5519L117.372 23.6515L117.469 22.6562ZM121.5 15.3438L120.906 14.5394L120.902 14.542L121.5 15.3438ZM137.344 14.5L136.805 15.3425L136.812 15.3469L137.344 14.5ZM140.719 18.4375L139.762 18.7297L139.766 18.7418L140.719 18.4375ZM141.969 45V46H143.547L142.873 44.573L141.969 45ZM133.812 45L132.866 45.3231L133.097 46H133.812V45ZM133.375 40.1562H134.375L132.491 39.6891L133.375 40.1562ZM118.719 43.4688L118.026 44.1904L118.032 44.1952L118.719 43.4688ZM119.906 28.875L120.541 29.6477L120.545 29.6443L119.906 28.875ZM132.656 25.4062L132.717 26.4044L133.656 26.3473V25.4062H132.656ZM132 19.8438L131.11 20.3001L131.115 20.309L131.12 20.3178L132 19.8438ZM132.656 29.9062H133.656V28.786L132.543 28.9127L132.656 29.9062ZM127.156 31.625L127.766 32.4176L127.768 32.416L127.156 31.625ZM131.344 38.0938L130.534 37.5072L130.532 37.5098L131.344 38.0938ZM125.909 22.4735L117.566 21.661L117.372 23.6515L125.716 24.464L125.909 22.4735ZM118.461 22.7803C118.827 19.8492 120.051 17.6713 122.098 16.1455L120.902 14.542C118.366 16.4328 116.902 19.13 116.476 22.5322L118.461 22.7803ZM122.094 16.1481C124.2 14.5924 126.885 13.7812 130.219 13.7812V11.7812C126.552 11.7812 123.425 12.6784 120.906 14.5394L122.094 16.1481ZM130.219 13.7812C133.058 13.7812 135.226 14.3323 136.805 15.3424L137.883 13.6576C135.879 12.376 133.296 11.7812 130.219 11.7812V13.7812ZM136.812 15.3469C138.472 16.389 139.396 17.5293 139.762 18.7297L141.675 18.1453C141.125 16.3457 139.799 14.861 137.876 13.6531L136.812 15.3469ZM139.766 18.7418C140.196 20.0879 140.438 22.2822 140.438 25.4062H142.438C142.438 22.2387 142.2 19.7871 141.671 18.1332L139.766 18.7418ZM140.438 25.4062V38H142.438V25.4062H140.438ZM140.438 38C140.438 39.9692 140.482 41.5602 140.573 42.7632C140.619 43.3642 140.677 43.8827 140.751 44.3104C140.822 44.721 140.917 45.1148 141.065 45.427L142.873 44.573C142.843 44.5102 142.784 44.3311 142.722 43.9708C142.663 43.6278 142.61 43.1774 142.567 42.6118C142.482 41.4814 142.438 39.9474 142.438 38H140.438ZM141.969 44H133.812V46H141.969V44ZM134.759 44.6769C134.528 44.0005 134.375 42.5444 134.375 40.1562H132.375C132.375 42.5181 132.514 44.2911 132.866 45.3231L134.759 44.6769ZM132.491 39.6891C131.586 41.4013 130.489 42.6318 129.222 43.4372C127.958 44.24 126.469 44.6562 124.719 44.6562V46.6562C126.802 46.6562 128.672 46.1558 130.294 45.1253C131.912 44.0974 133.226 42.5779 134.259 40.6234L132.491 39.6891ZM124.719 44.6562C122.473 44.6562 120.733 43.9972 119.406 42.7423L118.032 44.1952C119.788 45.8569 122.048 46.6562 124.719 46.6562V44.6562ZM119.411 42.7472C118.123 41.511 117.406 39.6614 117.406 37.0312H115.406C115.406 40.0261 116.232 42.4682 118.026 44.1903L119.411 42.7472ZM117.406 37.0312C117.406 33.7542 118.479 31.3419 120.541 29.6477L119.272 28.1023C116.667 30.2415 115.406 33.2666 115.406 37.0312H117.406ZM120.545 29.6443C122.616 27.9252 126.581 26.7776 132.717 26.4044L132.596 24.4081C126.399 24.7849 121.864 25.9498 119.267 28.1057L120.545 29.6443ZM133.656 25.4062V24.2188H131.656V25.4062H133.656ZM133.656 24.2188C133.656 22.11 133.448 20.4233 132.88 19.3697L131.12 20.3178C131.427 20.8892 131.656 22.1192 131.656 24.2188H133.656ZM132.89 19.3874C132.243 18.1255 130.985 17.625 129.531 17.625V19.625C130.536 19.625 130.924 19.937 131.11 20.3001L132.89 19.3874ZM129.531 17.625C128.133 17.625 126.952 18.1448 126.121 19.227C125.33 20.2566 124.936 21.6935 124.815 23.398L126.81 23.5395C126.918 22.0148 127.258 21.0298 127.707 20.4449C128.116 19.9125 128.679 19.625 129.531 19.625V17.625ZM132.543 28.9127C129.93 29.2101 127.87 29.8082 126.544 30.834L127.768 32.416C128.65 31.7335 130.258 31.1857 132.769 30.8998L132.543 28.9127ZM126.547 30.8324C125.119 31.9307 124.531 33.7144 124.531 35.875H126.531C126.531 34.0356 127.027 32.9859 127.766 32.4176L126.547 30.8324ZM124.531 35.875C124.531 37.3013 124.788 38.5522 125.46 39.4669C126.174 40.4393 127.238 40.875 128.469 40.875V38.875C127.742 38.875 127.337 38.6441 127.072 38.2831C126.764 37.8645 126.531 37.1154 126.531 35.875H124.531ZM128.469 40.875C129.965 40.875 131.19 40.0201 132.156 38.6777L130.532 37.5098C129.789 38.5424 129.098 38.875 128.469 38.875V40.875ZM132.154 38.6803C133.231 37.1922 133.656 34.693 133.656 31.4688H131.656C131.656 34.6611 131.206 36.5786 130.534 37.5072L132.154 38.6803ZM133.656 31.4688V29.9062H131.656V31.4688H133.656ZM171.5 25.0625L171.538 26.0618L172.579 26.022L172.497 24.9837L171.5 25.0625ZM163.312 25.375L162.315 25.4394L162.377 26.4114L163.351 26.3743L163.312 25.375ZM162.375 21L161.481 21.4472L161.484 21.4548L162.375 21ZM156.469 36.375L155.572 36.817L155.577 36.8274L156.469 36.375ZM163.312 32.6875L163.377 31.6896L162.368 31.6241L162.314 32.6341L163.312 32.6875ZM171.5 33.2188L172.496 33.3064L172.586 32.2871L171.565 32.2208L171.5 33.2188ZM149.781 41.5625L148.993 42.1777L148.998 42.1843L149.781 41.5625ZM149.938 17.0312L149.159 16.403L149.157 16.4066L149.938 17.0312ZM171.462 24.0632L163.274 24.3757L163.351 26.3743L171.538 26.0618L171.462 24.0632ZM164.31 25.3106C164.182 23.3254 163.858 21.7056 163.266 20.5452L161.484 21.4548C161.892 22.2528 162.193 23.5496 162.315 25.4394L164.31 25.3106ZM163.269 20.5528C162.946 19.9057 162.486 19.3758 161.877 19.0147C161.271 18.6557 160.579 18.5 159.844 18.5V20.5C160.296 20.5 160.619 20.5943 160.857 20.7353C161.092 20.8742 161.304 21.0943 161.481 21.4472L163.269 20.5528ZM159.844 18.5C158.919 18.5 158.067 18.7461 157.329 19.2626C156.599 19.773 156.037 20.5072 155.613 21.398C154.777 23.1529 154.406 25.6607 154.406 28.8125H156.406C156.406 25.7559 156.775 23.6075 157.418 22.2583C157.734 21.597 158.096 21.1671 158.476 20.9014C158.847 20.6419 159.289 20.5 159.844 20.5V18.5ZM154.406 28.8125C154.406 32.4244 154.752 35.1535 155.572 36.817L157.366 35.933C156.769 34.7215 156.406 32.409 156.406 28.8125H154.406ZM155.577 36.8274C156 37.6615 156.554 38.3474 157.264 38.823C157.981 39.3033 158.801 39.5312 159.688 39.5312V37.5312C159.157 37.5312 158.733 37.3998 158.377 37.1614C158.014 36.9182 157.667 36.526 157.361 35.9226L155.577 36.8274ZM159.688 39.5312C161.153 39.5312 162.322 38.8518 163.1 37.5974C163.835 36.413 164.203 34.7536 164.311 32.7409L162.314 32.6341C162.213 34.5173 161.874 35.7797 161.4 36.5432C160.97 37.2367 160.43 37.5312 159.688 37.5312V39.5312ZM163.248 33.6854L171.435 34.2167L171.565 32.2208L163.377 31.6896L163.248 33.6854ZM170.504 33.1311C170.151 37.1408 168.99 39.9925 167.15 41.8416C165.325 43.676 162.699 44.6562 159.125 44.6562V46.6562C163.072 46.6562 166.268 45.5636 168.568 43.2522C170.854 40.9554 172.12 37.5884 172.496 33.3064L170.504 33.1311ZM159.125 44.6562C155.311 44.6562 152.509 43.3897 150.564 40.9407L148.998 42.1843C151.387 45.1936 154.814 46.6562 159.125 46.6562V44.6562ZM150.57 40.9473C148.618 38.4467 147.562 34.6223 147.562 29.3125H145.562C145.562 34.836 146.652 39.1783 148.993 42.1777L150.57 40.9473ZM147.562 29.3125C147.562 24.0573 148.665 20.2224 150.718 17.6559L149.157 16.4066C146.71 19.4651 145.562 23.8177 145.562 29.3125H147.562ZM150.716 17.6595C152.77 15.1145 155.643 13.8125 159.469 13.8125V11.8125C155.127 11.8125 151.646 13.323 149.159 16.403L150.716 17.6595ZM159.469 13.8125C162.969 13.8125 165.527 14.7765 167.294 16.5757C169.077 18.3904 170.191 21.193 170.503 25.1413L172.497 24.9837C172.163 20.7653 170.949 17.4429 168.721 15.1743C166.478 12.8901 163.343 11.8125 159.469 11.8125V13.8125ZM177.625 3.75L177.592 2.75054L176.625 2.78231V3.75H177.625ZM186.188 3.46875H187.188V2.43536L186.155 2.46929L186.188 3.46875ZM186.188 13.4375H185.188V14.4375H186.188V13.4375ZM192 13.4375H193V12.4375H192V13.4375ZM192 20.375V21.375H193V20.375H192ZM186.188 20.375V19.375H185.188V20.375H186.188ZM186.312 36.1562L185.321 36.2842L185.323 36.3025L185.326 36.3206L186.312 36.1562ZM187.25 37.75L186.607 38.5157L186.623 38.5295L186.64 38.5426L187.25 37.75ZM192.438 38.3125H193.438V37.27L192.396 37.3134L192.438 38.3125ZM192.438 45L192.656 45.9759L193.438 45.8012V45H192.438ZM177.625 20.375H178.625V19.375H177.625V20.375ZM174.125 20.375H173.125V21.375H174.125V20.375ZM174.125 13.4375V12.4375H173.125V13.4375H174.125ZM177.625 13.4375V14.4375H178.625V13.4375H177.625ZM177.658 4.74946L186.22 4.46821L186.155 2.46929L177.592 2.75054L177.658 4.74946ZM185.188 3.46875V13.4375H187.188V3.46875H185.188ZM186.188 14.4375H192V12.4375H186.188V14.4375ZM191 13.4375V20.375H193V13.4375H191ZM192 19.375H186.188V21.375H192V19.375ZM185.188 20.375V31.9688H187.188V20.375H185.188ZM185.188 31.9688C185.188 34.0993 185.228 35.5626 185.321 36.2842L187.304 36.0283C187.231 35.4582 187.188 34.1299 187.188 31.9688H185.188ZM185.326 36.3206C185.472 37.1986 185.918 37.9372 186.607 38.5157L187.893 36.9843C187.54 36.6878 187.361 36.3639 187.299 35.9919L185.326 36.3206ZM186.64 38.5426C187.451 39.1665 188.627 39.375 189.938 39.375V37.375C188.748 37.375 188.132 37.1669 187.86 36.9574L186.64 38.5426ZM189.938 39.375C190.623 39.375 191.471 39.3536 192.479 39.3116L192.396 37.3134C191.404 37.3547 190.585 37.375 189.938 37.375V39.375ZM191.438 38.3125V45H193.438V38.3125H191.438ZM192.219 44.0241C190.317 44.4491 188.599 44.6562 187.062 44.6562V46.6562C188.776 46.6562 190.642 46.4259 192.656 45.9759L192.219 44.0241ZM187.062 44.6562C184.502 44.6562 182.7 44.1626 181.522 43.3137L180.353 44.9363C182.008 46.1291 184.29 46.6562 187.062 46.6562V44.6562ZM181.522 43.3137C180.276 42.4155 179.519 41.325 179.187 40.0326L177.25 40.5299C177.71 42.3208 178.766 43.7929 180.353 44.9363L181.522 43.3137ZM179.187 40.0326C178.825 38.6203 178.625 36.279 178.625 32.9375H176.625C176.625 36.3043 176.821 38.8589 177.25 40.5299L179.187 40.0326ZM178.625 32.9375V20.375H176.625V32.9375H178.625ZM177.625 19.375H174.125V21.375H177.625V19.375ZM175.125 20.375V13.4375H173.125V20.375H175.125ZM174.125 14.4375H177.625V12.4375H174.125V14.4375ZM178.625 13.4375V3.75H176.625V13.4375H178.625ZM237.312 20.5938L237.489 19.6095L236.535 19.4383L236.334 20.387L237.312 20.5938ZM244.281 21.8438L245.256 22.0654L245.488 21.0443L244.458 20.8595L244.281 21.8438ZM238.469 35.5L237.639 34.9424L237.189 35.611L237.747 36.1923L238.469 35.5ZM244.281 37.75H245.281V36.696L244.229 36.7514L244.281 37.75ZM244.281 45L244.524 45.9701L245.281 45.7808V45H244.281ZM232.75 41.4062L233.474 40.7162L232.836 40.0469L232.119 40.6308L232.75 41.4062ZM210.812 41.875L210.054 42.5268L210.057 42.5304L210.812 41.875ZM217.25 20.75L217.639 21.6711L218.802 21.1799L218.058 20.1604L217.25 20.75ZM216.406 4.53125L217.075 5.27454L217.076 5.27418L216.406 4.53125ZM232.5 4.625L231.793 5.33212L231.797 5.33584L232.5 4.625ZM228.094 22.125L227.635 21.2367L226.583 21.7805L227.295 22.7265L228.094 22.125ZM234 29.9688L233.201 30.5703L234.085 31.7436L234.852 30.4915L234 29.9688ZM224.469 17.25L223.662 17.8405L224.185 18.5557L224.958 18.1221L224.469 17.25ZM227.469 8.84375L226.674 9.4512L226.684 9.46426L226.695 9.47699L227.469 8.84375ZM220.812 25.6875L221.617 25.0929L221.075 24.3605L220.295 24.8316L220.812 25.6875ZM228.531 36.125L229.23 36.8408L229.854 36.2317L229.335 35.5304L228.531 36.125ZM237.136 21.578L244.105 22.828L244.458 20.8595L237.489 19.6095L237.136 21.578ZM243.306 21.6221C242.186 26.5507 240.295 30.9877 237.639 34.9424L239.299 36.0576C242.1 31.8873 244.085 27.2202 245.256 22.0654L243.306 21.6221ZM237.747 36.1923C239.32 37.8314 241.011 38.8125 242.812 38.8125V36.8125C241.78 36.8125 240.576 36.2519 239.19 34.8077L237.747 36.1923ZM242.812 38.8125C243.032 38.8125 243.553 38.7897 244.334 38.7486L244.229 36.7514C243.426 36.7936 242.968 36.8125 242.812 36.8125V38.8125ZM243.281 37.75V45H245.281V37.75H243.281ZM244.039 44.0299C242.936 44.3056 241.935 44.4375 241.031 44.4375V46.4375C242.128 46.4375 243.293 46.2778 244.524 45.9701L244.039 44.0299ZM241.031 44.4375C238.413 44.4375 235.899 43.2594 233.474 40.7162L232.026 42.0963C234.726 44.9281 237.733 46.4375 241.031 46.4375V44.4375ZM232.119 40.6308C228.807 43.3276 225.163 44.6562 221.156 44.6562V46.6562C225.65 46.6562 229.735 45.1515 233.381 42.1817L232.119 40.6308ZM221.156 44.6562C216.614 44.6562 213.497 43.4431 211.568 41.2196L210.057 42.5304C212.503 45.3486 216.281 46.6562 221.156 46.6562V44.6562ZM211.571 41.2232C209.562 38.8855 208.562 36.1799 208.562 33.0625H206.562C206.562 36.6535 207.73 39.8228 210.054 42.5268L211.571 41.2232ZM208.562 33.0625C208.562 30.5353 209.302 28.3601 210.77 26.4933C212.251 24.6119 214.515 22.9916 217.639 21.6711L216.861 19.8289C213.527 21.2376 210.947 23.034 209.198 25.2567C207.438 27.4941 206.562 30.1105 206.562 33.0625H208.562ZM218.058 20.1604C215.465 16.6076 214.281 13.6292 214.281 11.1875H212.281C212.281 14.2458 213.744 17.6424 216.442 21.3396L218.058 20.1604ZM214.281 11.1875C214.281 8.93695 215.18 6.97981 217.075 5.27454L215.737 3.78796C213.465 5.83269 212.281 8.31305 212.281 11.1875H214.281ZM217.076 5.27418C218.966 3.5714 221.421 2.6875 224.531 2.6875V0.6875C221.016 0.6875 218.055 1.69944 215.737 3.78832L217.076 5.27418ZM224.531 2.6875C227.68 2.6875 230.06 3.59971 231.793 5.33211L233.207 3.91789C231.023 1.73362 228.091 0.6875 224.531 0.6875V2.6875ZM231.797 5.33584C233.579 7.0996 234.469 9.25731 234.469 11.875H236.469C236.469 8.74269 235.379 6.06707 233.203 3.91416L231.797 5.33584ZM234.469 11.875C234.469 15.6805 232.332 18.8082 227.635 21.2367L228.553 23.0133C233.689 20.3585 236.469 16.6529 236.469 11.875H234.469ZM227.295 22.7265L233.201 30.5703L234.799 29.3672L228.893 21.5235L227.295 22.7265ZM234.852 30.4915C236.291 28.1454 237.425 24.8956 238.291 20.8005L236.334 20.387C235.491 24.3752 234.417 27.3754 233.148 29.446L234.852 30.4915ZM224.958 18.1221C227.766 16.5467 229.312 14.2892 229.312 11.375H227.312C227.312 13.4191 226.296 15.0783 223.979 16.3779L224.958 18.1221ZM229.312 11.375C229.312 10.1749 228.97 9.09912 228.243 8.21051L226.695 9.47699C227.093 9.96338 227.312 10.5751 227.312 11.375H229.312ZM228.263 8.2363C227.487 7.22179 226.333 6.78125 225 6.78125V8.78125C225.875 8.78125 226.367 9.04905 226.674 9.4512L228.263 8.2363ZM225 6.78125C223.732 6.78125 222.617 7.16156 221.8 8.03643L223.262 9.40107C223.612 9.02594 224.143 8.78125 225 8.78125V6.78125ZM221.8 8.03643C221.019 8.87362 220.656 9.93209 220.656 11.125H222.656C222.656 10.3596 222.877 9.81388 223.262 9.40107L221.8 8.03643ZM220.656 11.125C220.656 12.9904 221.773 15.2589 223.662 17.8405L225.276 16.6595C223.415 14.1161 222.656 12.3012 222.656 11.125H220.656ZM220.295 24.8316C217.174 26.7179 215.469 29.2795 215.469 32.5H217.469C217.469 30.1372 218.659 28.1571 221.33 26.5434L220.295 24.8316ZM215.469 32.5C215.469 34.5042 216.07 36.2283 217.329 37.5862L218.796 36.2263C217.93 35.2925 217.469 34.0792 217.469 32.5H215.469ZM217.329 37.5862C218.625 38.9832 220.418 39.625 222.562 39.625V37.625C220.832 37.625 219.625 37.1209 218.796 36.2263L217.329 37.5862ZM222.562 39.625C225.109 39.625 227.345 38.6794 229.23 36.8408L227.833 35.4092C226.301 36.904 224.558 37.625 222.562 37.625V39.625ZM229.335 35.5304L221.617 25.0929L220.008 26.2821L227.727 36.7196L229.335 35.5304ZM262.031 2.34375V1.34375H261.031V2.34375H262.031ZM271.406 2.34375H272.406V1.34375H271.406V2.34375ZM271.406 37H270.406V38H271.406V37ZM285.156 37H286.156V36H285.156V37ZM285.156 45V46H286.156V45H285.156ZM262.031 45H261.031V46H262.031V45ZM262.031 3.34375H271.406V1.34375H262.031V3.34375ZM270.406 2.34375V37H272.406V2.34375H270.406ZM271.406 38H285.156V36H271.406V38ZM284.156 37V45H286.156V37H284.156ZM285.156 44H262.031V46H285.156V44ZM263.031 45V2.34375H261.031V45H263.031ZM297.344 10.8438V11.8438H298.344V10.8438H297.344ZM288.406 10.8438H287.406V11.8438H288.406V10.8438ZM288.406 2.125V1.125H287.406V2.125H288.406ZM297.344 2.125H298.344V1.125H297.344V2.125ZM288.469 13.4375V12.4375H287.469V13.4375H288.469ZM297.281 13.4375H298.281V12.4375H297.281V13.4375ZM297.281 45V46H298.281V45H297.281ZM288.469 45H287.469V46H288.469V45ZM297.344 9.84375H288.406V11.8438H297.344V9.84375ZM289.406 10.8438V2.125H287.406V10.8438H289.406ZM288.406 3.125H297.344V1.125H288.406V3.125ZM296.344 2.125V10.8438H298.344V2.125H296.344ZM288.469 14.4375H297.281V12.4375H288.469V14.4375ZM296.281 13.4375V45H298.281V13.4375H296.281ZM297.281 44H288.469V46H297.281V44ZM289.469 45V13.4375H287.469V45H289.469ZM303.75 13.4375V12.4375H302.75V13.4375H303.75ZM312.094 13.4375H313.094V12.4375H312.094V13.4375ZM312.094 17.75H311.094L313.008 18.1551L312.094 17.75ZM325.094 14.2188L324.519 15.0368L324.526 15.0419L324.533 15.0469L325.094 14.2188ZM328.25 45V46H329.25V45H328.25ZM319.438 45H318.438V46H319.438V45ZM313.312 21.0938L314.199 21.5563L314.203 21.5485L313.312 21.0938ZM312.562 45V46H313.562V45H312.562ZM303.75 45H302.75V46H303.75V45ZM303.75 14.4375H312.094V12.4375H303.75V14.4375ZM311.094 13.4375V17.75H313.094V13.4375H311.094ZM313.008 18.1551C313.669 16.6623 314.571 15.596 315.694 14.8951C316.82 14.1917 318.238 13.8125 320 13.8125V11.8125C317.949 11.8125 316.144 12.2562 314.634 13.1987C313.121 14.1436 311.976 15.5461 311.179 17.3449L313.008 18.1551ZM320 13.8125C321.911 13.8125 323.394 14.2457 324.519 15.0368L325.669 13.4007C324.127 12.3168 322.214 11.8125 320 11.8125V13.8125ZM324.533 15.0469C325.708 15.8422 326.413 16.8242 326.72 18.0024L328.655 17.4976C328.212 15.8008 327.188 14.4286 325.654 13.3906L324.533 15.0469ZM326.72 18.0024C327.061 19.3118 327.25 21.3943 327.25 24.3125H329.25C329.25 21.3557 329.064 19.0632 328.655 17.4976L326.72 18.0024ZM327.25 24.3125V45H329.25V24.3125H327.25ZM328.25 44H319.438V46H328.25V44ZM320.438 45V24.3125H318.438V45H320.438ZM320.438 24.3125C320.438 23.2166 320.368 22.2819 320.214 21.5323C320.066 20.8172 319.809 20.1074 319.303 19.6402L317.947 21.1098C317.982 21.1426 318.132 21.339 318.255 21.9365C318.371 22.4993 318.438 23.2834 318.438 24.3125H320.438ZM319.303 19.6402C318.535 18.9307 317.542 18.625 316.438 18.625V20.625C317.167 20.625 317.632 20.8193 317.947 21.1098L319.303 19.6402ZM316.438 18.625C314.665 18.625 313.164 19.1861 312.422 20.639L314.203 21.5485C314.461 21.0431 315.043 20.625 316.438 20.625V18.625ZM312.426 20.6312C312.099 21.2581 311.891 22.0786 311.759 23.0267C311.626 23.9886 311.562 25.1498 311.562 26.5H313.562C313.562 25.2044 313.624 24.1416 313.741 23.3015C313.859 22.4474 314.026 21.8877 314.199 21.5563L312.426 20.6312ZM311.562 26.5V45H313.562V26.5H311.562ZM312.562 44H303.75V46H312.562V44ZM304.75 45V13.4375H302.75V45H304.75ZM334.312 2.34375V1.34375H333.312V2.34375H334.312ZM343.125 2.34375H344.125V1.34375H343.125V2.34375ZM343.125 25.625H342.125V28.697L343.933 26.2137L343.125 25.625ZM352 13.4375V12.4375H351.491L351.192 12.8488L352 13.4375ZM360 13.4375L360.799 14.0386L362.004 12.4375H360V13.4375ZM352.031 24.0312L351.232 23.4301L350.888 23.8878L351.108 24.4164L352.031 24.0312ZM360.781 45V46H362.282L361.704 44.6149L360.781 45ZM351.281 45L350.334 45.3193L350.563 46H351.281V45ZM346.344 30.3438L347.291 30.0245L346.673 28.1874L345.534 29.7566L346.344 30.3438ZM343.125 34.7812L342.316 34.1941L342.125 34.4568V34.7812H343.125ZM343.125 45V46H344.125V45H343.125ZM334.312 45H333.312V46H334.312V45ZM334.312 3.34375H343.125V1.34375H334.312V3.34375ZM342.125 2.34375V25.625H344.125V2.34375H342.125ZM343.933 26.2137L352.808 14.0262L351.192 12.8488L342.317 25.0363L343.933 26.2137ZM352 14.4375H360V12.4375H352V14.4375ZM359.201 12.8364L351.232 23.4301L352.83 24.6324L360.799 14.0386L359.201 12.8364ZM351.108 24.4164L359.858 45.3851L361.704 44.6149L352.954 23.6461L351.108 24.4164ZM360.781 44H351.281V46H360.781V44ZM352.229 44.6807L347.291 30.0245L345.396 30.663L350.334 45.3193L352.229 44.6807ZM345.534 29.7566L342.316 34.1941L343.934 35.3684L347.153 30.9309L345.534 29.7566ZM342.125 34.7812V45H344.125V34.7812H342.125ZM343.125 44H334.312V46H343.125V44ZM335.312 45V2.34375H333.312V45H335.312ZM384.562 21.0312L384.849 21.9895L385.787 21.7092L385.526 20.7647L384.562 21.0312ZM378.281 22.9062L377.321 23.1865L377.603 24.1522L378.567 23.8645L378.281 22.9062ZM376.188 25.6875L376.521 24.7447L376.517 24.7435L376.188 25.6875ZM384.344 30.875L383.481 31.3814L383.485 31.3875L384.344 30.875ZM361.719 36.25L361.56 35.2627L360.609 35.4156L360.726 36.372L361.719 36.25ZM368.719 35.125L369.702 34.9427L369.524 33.9828L368.56 34.1377L368.719 35.125ZM372.156 32.7812L371.85 33.7332L371.855 33.7348L372.156 32.7812ZM365.844 15.5312L365.194 14.7709L365.191 14.7741L365.844 15.5312ZM384.276 20.073L377.995 21.948L378.567 23.8645L384.849 21.9895L384.276 20.073ZM379.241 22.626C378.794 21.0936 378.127 19.8388 377.179 18.9615C376.21 18.064 375.014 17.625 373.656 17.625V19.625C374.549 19.625 375.249 19.8996 375.821 20.4292C376.415 20.9789 376.935 21.8647 377.321 23.1865L379.241 22.626ZM373.656 17.625C372.585 17.625 371.599 17.8934 370.887 18.6054C370.175 19.3174 369.906 20.3042 369.906 21.375H371.906C371.906 20.6125 372.096 20.2243 372.301 20.0196C372.506 19.815 372.894 19.625 373.656 19.625V17.625ZM369.906 21.375C369.906 22.658 370.344 23.7673 371.319 24.5355L372.556 22.9645C372.156 22.6494 371.906 22.1754 371.906 21.375H369.906ZM371.319 24.5355C372.154 25.1938 373.723 25.8853 375.858 26.6315L376.517 24.7435C374.361 23.9897 373.096 23.3896 372.556 22.9645L371.319 24.5355ZM375.854 26.6303C378.258 27.4798 379.959 28.2057 381.002 28.8048L381.998 27.0702C380.791 26.3777 378.951 25.6035 376.521 24.7447L375.854 26.6303ZM381.002 28.8048C381.952 29.3501 382.783 30.1927 383.481 31.3814L385.206 30.3686C384.363 28.9323 383.298 27.8166 381.998 27.0702L381.002 28.8048ZM383.485 31.3875C384.153 32.5059 384.5 33.8142 384.5 35.3438H386.5C386.5 33.4983 386.077 31.8274 385.202 30.3625L383.485 31.3875ZM384.5 35.3438C384.5 37.9876 383.56 40.171 381.659 41.9591L383.029 43.4159C385.336 41.2457 386.5 38.5332 386.5 35.3438H384.5ZM381.659 41.9591C379.791 43.7157 377.128 44.6562 373.531 44.6562V46.6562C377.477 46.6562 380.688 45.6177 383.029 43.4159L381.659 41.9591ZM373.531 44.6562C370.114 44.6562 367.604 43.9012 365.873 42.5224C364.158 41.157 363.073 39.0732 362.711 36.128L360.726 36.372C361.135 39.6976 362.404 42.317 364.627 44.087C366.833 45.8436 369.844 46.6562 373.531 46.6562V44.6562ZM361.877 37.2373L368.877 36.1123L368.56 34.1377L361.56 35.2627L361.877 37.2373ZM367.736 35.3073C368.051 37.0069 368.678 38.4095 369.71 39.3892C370.759 40.3856 372.12 40.8438 373.688 40.8438V38.8438C372.526 38.8438 371.694 38.5155 371.087 37.9389C370.462 37.3457 369.97 36.3889 369.702 34.9427L367.736 35.3073ZM373.688 40.8438C374.97 40.8438 376.118 40.5784 376.955 39.8753C377.827 39.1442 378.188 38.09 378.188 36.9062H376.188C376.188 37.6808 375.965 38.0954 375.67 38.3434C375.341 38.6196 374.739 38.8438 373.688 38.8438V40.8438ZM378.188 36.9062C378.188 35.6233 377.75 34.514 376.775 33.7458L375.537 35.3167C375.937 35.6319 376.188 36.1059 376.188 36.9062H378.188ZM376.775 33.7458C375.93 33.0798 374.436 32.4527 372.457 31.8277L371.855 33.7348C373.834 34.3598 375.008 34.8994 375.537 35.3167L376.775 33.7458ZM372.463 31.8293C368.895 30.6813 366.63 29.3489 365.46 27.9271L363.915 29.1979C365.454 31.0678 368.167 32.5479 371.85 33.7332L372.463 31.8293ZM365.46 27.9271C364.255 26.4635 363.656 24.7828 363.656 22.8438H361.656C361.656 25.238 362.411 27.3698 363.915 29.1979L365.46 27.9271ZM363.656 22.8438C363.656 20.0653 364.612 17.9145 366.497 16.2884L365.191 14.7741C362.825 16.8147 361.656 19.5388 361.656 22.8438H363.656ZM366.493 16.2915C368.433 14.634 370.87 13.7812 373.875 13.7812V11.7812C370.463 11.7812 367.546 12.7618 365.194 14.771L366.493 16.2915ZM373.875 13.7812C376.511 13.7812 378.572 14.4258 380.139 15.6353C381.708 16.8463 382.88 18.6999 383.599 21.2978L385.526 20.7647C384.724 17.8626 383.355 15.5912 381.361 14.0522C379.366 12.5117 376.843 11.7812 373.875 11.7812V13.7812Z" fill="#F5F5F5"/>
</svg>
