<svg width="432" height="673" viewBox="0 0 432 673" fill="none" xmlns="http://www.w3.org/2000/svg">
<path pathLength="1" d="M146.43 600.18C141.8 611.06 146.56 621.3 148.68 628.06C150.8 634.82 143.56 639.43 137.06 641.06C130.56 642.69 114.06 660.43 114.06 660.43C114.06 660.43 94.0599 672.8 87.1799 671.43C80.2999 670.06 94.7999 655.68 94.7999 655.68L112.18 624.3C112.43 621.06 117.8 607.3 117.8 607.3L127.74 557.1L129.06 550.43L164.3 548.3C164.3 548.3 162.45 554.02 159.9 561.75C155.61 574.75 149.33 593.39 146.43 600.18Z" fill="#F5F5F5" fill-opacity="0.5" stroke="#F5F5F5" stroke-width="2"/>
<path pathLength="1" d="M430.531 330.254C429.602 332.777 415.73 337.498 415.73 337.498L406.426 340.609C406.426 340.609 391.824 350.358 380.422 351.859L320.264 369.452L312.193 371.816L307.607 336.977C307.607 336.977 311.808 336.867 317.751 336.65C331.019 336.073 352.923 334.742 355.645 332.205C359.58 328.54 360.859 316.269 368.346 316.675C375.834 317.081 385.84 325.971 385.84 325.971C385.84 325.971 396.638 329.461 406.226 325.678C415.814 321.894 431.46 327.731 430.531 330.254Z" fill="#F5F5F5" fill-opacity="0.5" stroke="#F5F5F5" stroke-width="2"/>
<path pathLength="1" d="M201.803 392.669L223.5 397.24C229.758 399.809 254.856 398.899 261.414 397.24C271.459 394.712 281.734 388.312 294 388.24L298.293 383.604C298.293 383.604 311.795 379.871 313.228 374.439C314.065 371.235 315.132 368.095 316.42 365.044C316.42 365.044 318.979 339.471 305.831 336.015C305.831 336.015 292.504 336.148 288.944 333.601C285.383 331.054 266.549 330.313 261.414 332.32C256.28 334.327 241.047 340.053 241.047 340.053C241.047 340.053 232.782 335.057 230.27 336.635C227.759 338.213 217.5 333.601 217.5 333.601C217.5 333.601 215.5 332.32 207.569 325.758C201.9 316.924 185.199 318.394 185.199 318.394L201.803 392.669Z" fill="#F5F5F5" fill-opacity="0.5" stroke="#F5F5F5" stroke-width="2"/>
<path pathLength="1" d="M180.93 189.46L177.25 190.15H177.02L176.48 190.25L170.18 191.42L168.24 193.72L168.16 193.8L161.93 201.18L156.68 206.33L156.63 206.39L152.19 210.71L144.68 218.18L143.42 221.29L140.68 228.18L139.97 229.93L132.47 237.93L127.68 248.18L116.48 254.68L104.43 248.43L98.9298 240.43L100.18 228.97L100.43 226.68L104.1 220.79L107.43 215.43L113.93 206.18L126.43 197.68L128.67 197.09L131.18 196.43C131.372 196.156 131.549 195.873 131.71 195.58C131.922 195.228 132.112 194.864 132.28 194.49C135.09 188.43 134.1 179.42 132.2 171.43C130.744 165.453 128.814 159.601 126.43 153.93L159.43 149.18C159.43 149.18 159.11 155.58 159.11 165.56C159.11 168.06 159.11 170.77 159.18 173.67C159.34 182.67 167.7 186.57 174.01 188.23C175.635 188.663 177.285 188.997 178.95 189.23C180.17 189.42 180.93 189.46 180.93 189.46Z" fill="#F5F5F5" fill-opacity="0.5" stroke="#F5F5F5" stroke-width="2"/>
<path pathLength="1" d="M128.93 194.18C128.93 194.18 130.43 188.18 118.43 172.93C106.43 157.68 104.18 132.43 104.18 132.43C104.18 132.43 101.18 119.43 104.18 115.68C107.18 111.93 112.18 70.6803 112.18 70.6803L120.43 47.4303C120.43 47.4303 160.68 6.43033 143.93 1.43033C132.55 -1.96967 118.93 15.5403 111.44 27.1003C107.74 32.7813 105.349 39.2123 104.44 45.9303L81.6798 108.18C81.6798 108.18 79.4298 115.68 81.6798 128.68C83.9298 141.68 88.9298 164.68 88.9298 164.68L101.68 196.96C101.68 196.96 108.39 217.06 104.91 219.51L112.68 208.02L128.93 194.18Z" fill="#F5F5F5" fill-opacity="0.5" stroke="#F5F5F5" stroke-width="2"/>
<path pathLength="1" d="M348.57 209.3C348.57 209.3 333 217.937 328.5 219.27C324 220.603 282.5 225.18 282.5 225.18C282.5 225.18 252.25 224.46 245 224.71C234 223.24 194.401 226.293 194.43 224.71C194.43 224.71 192.09 227.79 189.48 231.03C186.64 234.58 183.48 238.33 182.68 238.46C181.18 238.71 157.93 241.96 157.93 241.96L142.18 234.71L140.68 228.18L139.97 225.18L143.46 221.29L148.05 216.18L156.66 206.36L156.71 206.3L168.2 193.81L168.28 193.73L175.64 190.73L177.06 190.15H177.29C178.17 190 181.55 189.69 186.08 192.25C189.235 194.037 192.738 195.121 196.35 195.43C204 198.74 213.68 200.21 218 200.74C222.32 201.27 240.026 204.974 271.25 205.4L325 200.74C325 200.74 347.32 182.99 355.82 189.24C364.32 195.49 348.57 209.3 348.57 209.3Z" fill="#F5F5F5" fill-opacity="0.5" stroke="#F5F5F5" stroke-width="2"/>
<path pathLength="1" d="M132.18 196.46L128.98 193.18C128.98 193.18 117.43 194.76 110.26 207.1C110.26 207.1 106.91 216.35 105.88 217.01C104.85 217.67 98.9299 230.6 98.9299 230.6C98.9299 230.6 91.8499 251.51 97.7599 264.35C103.67 277.19 103.93 283.1 103.93 283.1L108.35 302.1L110.18 318.76L126.06 358.01L142 367.43C142 367.43 139.31 394.21 136.31 396.34C133.31 398.47 134.68 409.46 134.68 409.46L132.81 438.34C132.81 438.34 126.93 446.96 126.56 460.96C126.19 474.96 124.06 478.96 124.06 478.96C124.06 478.96 123.06 490.71 125.81 496.09C128.56 501.47 121.43 507.09 121.43 507.09L127.56 527.96L125.18 554.46C125.18 554.46 153.43 562.34 163.93 559.09C174.43 555.84 179.93 558.09 179.93 558.09L198.68 482.18L205.18 422.56C205.18 422.56 205.56 380.31 211.18 367.43C216 356.43 209.68 317.24 187.97 309.84C183.44 308.3 181.14 303.16 177.27 300.34C173.81 297.83 168.16 291.9 170.93 281.18C174.81 266.18 184.56 242.56 184.56 242.56L191.78 228.18C191.78 228.18 183.93 240.88 169.56 237.63H169.43C154.8 237.37 147.35 219.92 157.24 209.14L170.18 195C170.18 195 177.31 188.43 182.56 190.09L176.81 187.63C176.81 187.63 160.62 193.63 153.81 205.5L138.41 222.75C138.41 222.75 115.56 238.18 112.18 243.84C112.18 243.84 100.06 239.34 101.43 233.34C101.43 233.34 100.43 225.63 105.91 219.82C106.91 218.82 107.83 217.76 108.75 216.69C113.68 210.93 127.31 195.65 132.18 196.46Z" fill="#F5F5F5" fill-opacity="0.5" stroke="#F5F5F5" stroke-width="2"/>
<path pathLength="1" d="M5.02087 417.073C12.2729 400.755 72.0209 358.573 108.521 340.073C118.187 337.073 144.121 327.373 170.521 312.573C203.521 294.073 300.521 280.073 304.521 295.073C317.854 345.073 240.354 386.239 185.521 410.073C141.187 429.073 -26.9794 489.073 5.02087 417.073Z" fill="#F5F5F5" fill-opacity="0.5" stroke="#F5F5F5" stroke-width="2"/>
<path pathLength="1" d="M5.02087 417.073C12.2729 400.755 72.0209 358.573 108.521 340.073C118.187 337.073 144.121 327.373 170.521 312.573C203.521 294.073 300.521 280.073 304.521 295.073C317.854 345.073 240.354 386.239 185.521 410.073C141.187 429.073 -26.9794 489.073 5.02087 417.073Z" fill="#F5F5F5" fill-opacity="0.5" stroke="#F5F5F5" stroke-width="2"/>
<path pathLength="1" opacity="0.1" d="M134.06 299.46C134.06 299.46 130.43 325.84 133.18 331.21L134.06 299.46Z" fill="#F5F5F5" fill-opacity="0.5" stroke="#F5F5F5" stroke-width="2"/>
<path pathLength="1" opacity="0.1" d="M136.43 309.71L140.31 324.84C140.31 324.84 141.68 315.59 136.43 309.71Z" fill="#F5F5F5" fill-opacity="0.5" stroke="#F5F5F5" stroke-width="2"/>
<path pathLength="1" opacity="0.1" d="M113.43 306.18C113.43 306.18 115 316.11 123.5 327.74L113.43 306.18Z" fill="#F5F5F5" fill-opacity="0.5" stroke="#F5F5F5" stroke-width="2"/>
<path pathLength="1" opacity="0.1" d="M167.581 372.923C167.581 372.923 154.331 385.423 149.201 384.513C149.201 384.513 169.581 385.393 175.951 374.643C175.951 374.673 171.831 371.673 167.581 372.923Z" fill="#F5F5F5" fill-opacity="0.5" stroke="#F5F5F5" stroke-width="2"/>
<path pathLength="1" opacity="0.1" d="M185.951 371.923C185.951 371.923 168.951 384.293 165.581 385.423C165.581 385.423 183.951 380.173 185.951 371.923Z" fill="#F5F5F5" fill-opacity="0.5" stroke="#F5F5F5" stroke-width="2"/>
<path pathLength="1" opacity="0.1" d="M128.93 259.71C128.93 259.71 120.43 270.59 116.18 269.34C116.18 269.34 126.56 269.71 128.93 259.71Z" fill="#F5F5F5" fill-opacity="0.5" stroke="#F5F5F5" stroke-width="2"/>
<path pathLength="1" opacity="0.1" d="M138.56 273.71C138.56 273.71 157.06 248.59 165.81 249.59C165.81 249.59 144.81 267.84 138.56 273.71Z" fill="#F5F5F5" fill-opacity="0.5" stroke="#F5F5F5" stroke-width="2"/>
<path pathLength="1" opacity="0.1" d="M39.5209 406.073C39.5209 406.073 85.6859 356.143 107.521 358.131C107.521 358.131 55.1169 394.405 39.5209 406.073Z" fill="#F5F5F5" fill-opacity="0.5" stroke="#F5F5F5" stroke-width="2"/>
<path pathLength="1" opacity="0.1" d="M94.5209 429.573C94.5209 429.573 120.521 360.131 132.521 360.131C132.521 360.131 110.117 417.905 94.5209 429.573Z" fill="#F5F5F5" fill-opacity="0.5" stroke="#F5F5F5" stroke-width="2"/>
<path pathLength="1" opacity="0.1" d="M256.021 360.573C256.021 360.573 168.021 342.073 180.021 342.073C180.021 342.073 271.617 348.905 256.021 360.573Z" fill="#F5F5F5" fill-opacity="0.5" stroke="#F5F5F5" stroke-width="2"/>
<path pathLength="1" opacity="0.1" d="M269.021 296.073C269.021 296.073 191.521 334.573 185.021 330.073C185.021 330.073 284.617 284.405 269.021 296.073Z" fill="#F5F5F5" fill-opacity="0.5" stroke="#F5F5F5" stroke-width="2"/>
<path pathLength="1" opacity="0.1" d="M164.18 264.57C164.18 264.57 152.43 270.46 153.68 272.18C154.93 273.9 164.18 264.57 164.18 264.57Z" fill="#F5F5F5" fill-opacity="0.5" stroke="#F5F5F5" stroke-width="2"/>
<path pathLength="1" opacity="0.1" d="M172.68 457.46C172.68 457.46 133.43 480.34 129.81 481.46C129.81 481.46 136.56 486.59 142.93 484.09C149.3 481.59 172.68 457.46 172.68 457.46Z" fill="#F5F5F5" fill-opacity="0.5" stroke="#F5F5F5" stroke-width="2"/>
<path pathLength="1" opacity="0.1" d="M139.81 505.09C139.81 505.09 124.06 503.46 124.68 508.59C125.3 513.72 139.81 505.09 139.81 505.09Z" fill="#F5F5F5" fill-opacity="0.5" stroke="#F5F5F5" stroke-width="2"/>
<path pathLength="1" opacity="0.1" d="M159.43 149.18C159.43 149.18 159.11 155.58 159.11 165.56C155.407 168.595 151.038 170.708 146.36 171.726C141.682 172.745 136.829 172.64 132.2 171.42C130.744 165.443 128.814 159.591 126.43 153.92L159.43 149.18Z" fill="#F5F5F5" fill-opacity="0.5" stroke="#F5F5F5" stroke-width="2"/>
<path pathLength="1" d="M139.93 170.47C156.637 170.47 170.18 156.927 170.18 140.22C170.18 116.24 163.5 104.74 139.93 104.74C123.223 104.74 109.68 123.513 109.68 140.22C109.68 156.927 123.223 170.47 139.93 170.47Z" fill="#F5F5F5" fill-opacity="0.5" stroke="#F5F5F5" stroke-width="2"/>
<g opacity="0.1">
<path pathLength="1" d="M112.41 242.82C112.874 238.873 114.175 235.071 116.225 231.667C118.275 228.263 121.028 225.336 124.3 223.08" fill="#F5F5F5" fill-opacity="0.5"/>
<path pathLength="1" d="M112.41 242.82C112.874 238.873 114.175 235.071 116.225 231.667C118.275 228.263 121.028 225.336 124.3 223.08" stroke="#F5F5F5" stroke-width="2"/>
</g>
<path pathLength="1" d="M110.24 268.43L106.57 276.43L118.24 274.1L110.24 268.43Z" fill="#F5F5F5" fill-opacity="0.5" stroke="#F5F5F5" stroke-width="2"/>
<path pathLength="1" opacity="0.1" d="M110.24 268.43L107.22 276.43H106.57L110.24 268.43Z" fill="#F5F5F5" fill-opacity="0.5" stroke="#F5F5F5" stroke-width="2"/>
<path pathLength="1" d="M142 111.077C138.321 110.313 134.972 110.186 132 110.484C129.988 110.685 128.15 111.08 126.5 111.604C125.009 112.077 123.672 112.655 122.5 113.289C121.086 114.054 119.913 114.899 119 115.74C118.5 114.907 117.5 112.689 117.5 110.484C117.5 108.278 119.925 107.736 121.138 107.74C121.051 104.796 121.874 102.366 122.5 101.74C123.3 100.94 125.431 103.073 126.397 104.24C126.836 100.061 128.293 99.5933 129 99.2403C129.8 98.8403 131.819 101.407 132.729 102.74C133.535 98.6493 135.119 95.0003 138 95.2403C140.957 95.4863 142.042 99.4993 142.283 103.74C143.522 102.74 146.869 99.6093 148 100.74C149.079 101.819 149.401 104.159 149.421 106.74C150.447 105.573 152.9 103.44 154.5 104.24C155.452 104.716 155.838 107.159 155.926 109.74C157.284 108.983 160.4 108.295 162 111.604C163.6 114.913 163.306 119.407 162.959 121.24C160.394 119.311 157.905 117.686 155.5 116.329C153.293 115.083 151.156 114.063 149.097 113.24C146.616 112.249 144.247 111.544 142 111.077Z" fill="#F5F5F5" fill-opacity="0.5" stroke="#F5F5F5" stroke-width="2"/>
<path pathLength="1" d="M169 126.24C166.944 124.383 164.929 122.722 162.959 121.24L169 126.24ZM132 110.484C134.972 110.186 138.321 110.313 142 111.077L132 110.484ZM132 110.484C132 108.386 132.192 105.465 132.729 102.74L132 110.484ZM132 110.484C129.988 110.685 128.15 111.08 126.5 111.604L132 110.484ZM142 111.077C142.256 109.114 142.433 106.383 142.283 103.74L142 111.077ZM142 111.077C144.247 111.544 146.616 112.249 149.097 113.24L142 111.077ZM149.097 113.24C149.235 111.321 149.438 108.943 149.421 106.74L149.097 113.24ZM149.097 113.24C151.156 114.063 153.293 115.083 155.5 116.329L149.097 113.24ZM126.5 111.604C126.207 108.341 126.214 105.972 126.397 104.24L126.5 111.604ZM126.5 111.604C125.009 112.077 123.672 112.655 122.5 113.289L126.5 111.604ZM155.5 116.329C155.762 115.589 156.024 112.581 155.926 109.74L155.5 116.329ZM155.5 116.329C157.905 117.686 160.394 119.311 162.959 121.24L155.5 116.329ZM122.5 113.289C121.086 114.054 119.913 114.899 119 115.74C118.5 114.907 117.5 112.689 117.5 110.484C117.5 108.278 119.925 107.736 121.138 107.74L122.5 113.289ZM122.5 113.289C121.566 111.438 121.19 109.497 121.138 107.74L122.5 113.289ZM155.926 109.74C157.284 108.983 160.4 108.295 162 111.604C163.6 114.913 163.306 119.407 162.959 121.24" fill="#F5F5F5" fill-opacity="0.5"/>
<path pathLength="1" d="M162.959 121.24C164.929 122.722 166.944 124.383 169 126.24L162.959 121.24ZM162.959 121.24C160.394 119.311 157.905 117.686 155.5 116.329M162.959 121.24L155.5 116.329M162.959 121.24C163.306 119.407 163.6 114.913 162 111.604C160.4 108.295 157.284 108.983 155.926 109.74M132 110.484C134.972 110.186 138.321 110.313 142 111.077M132 110.484L142 111.077M132 110.484C132 108.386 132.192 105.465 132.729 102.74M132 110.484L132.729 102.74M132 110.484C129.988 110.685 128.15 111.08 126.5 111.604M132 110.484L126.5 111.604M142 111.077C142.256 109.114 142.433 106.383 142.283 103.74M142 111.077L142.283 103.74M142 111.077C144.247 111.544 146.616 112.249 149.097 113.24M142 111.077L149.097 113.24M132.729 102.74C133.535 98.6493 135.119 95.0003 138 95.2403C140.957 95.4863 142.042 99.4993 142.283 103.74M132.729 102.74C131.819 101.407 129.8 98.8403 129 99.2403C128.293 99.5933 126.836 100.061 126.397 104.24M126.5 111.604C126.207 108.341 126.214 105.972 126.397 104.24M126.5 111.604L126.397 104.24M126.5 111.604C125.009 112.077 123.672 112.655 122.5 113.289M126.5 111.604L122.5 113.289M142.283 103.74C143.522 102.74 146.869 99.6093 148 100.74C149.079 101.819 149.401 104.159 149.421 106.74M149.097 113.24C149.235 111.321 149.438 108.943 149.421 106.74M149.097 113.24L149.421 106.74M149.097 113.24C151.156 114.063 153.293 115.083 155.5 116.329M149.097 113.24L155.5 116.329M149.421 106.74C150.447 105.573 152.9 103.44 154.5 104.24C155.452 104.716 155.838 107.159 155.926 109.74M155.5 116.329C155.762 115.589 156.024 112.581 155.926 109.74M155.5 116.329L155.926 109.74M126.397 104.24C125.431 103.073 123.3 100.94 122.5 101.74C121.874 102.366 121.051 104.796 121.138 107.74M122.5 113.289C121.086 114.054 119.913 114.899 119 115.74C118.5 114.907 117.5 112.689 117.5 110.484C117.5 108.278 119.925 107.736 121.138 107.74M122.5 113.289L121.138 107.74M122.5 113.289C121.566 111.438 121.19 109.497 121.138 107.74" stroke="#F5F5F5" stroke-width="2"/>
<path pathLength="1" d="M135.5 105.24L137.5 102.24L139 105.24L137 108.24L135.5 105.24Z" fill="#F5F5F5" fill-opacity="0.5" stroke="#F5F5F5" stroke-width="2"/>
</svg>
