<svg width="28" height="32" viewBox="0 0 28 32" fill="none" xmlns="http://www.w3.org/2000/svg">
<path d="M28 0L25.4491 28.4659L13.9829 31.6324L2.54817 28.4703L0 0H28Z" fill="#264DE4"/>
<path d="M23.2653 26.6533L25.4452 2.32788H14V29.2121L23.2653 26.6533Z" fill="#2965F1"/>
<path d="M5.84161 12.887L6.15578 16.3787H14V12.887H5.84161Z" fill="#EBEBEB"/>
<path d="M14 5.81982H13.9879H5.21033L5.52897 9.31163H14V5.81982Z" fill="#EBEBEB"/>
<path d="M14 25.5885V21.9556L13.9847 21.9597L10.0808 20.9096L9.83122 18.1248H7.93423H6.31244L6.80353 23.6073L13.9839 25.593L14 25.5885Z" fill="#EBEBEB"/>
<path d="M18.3043 16.379L17.8974 20.9076L13.9879 21.9587V25.5914L21.174 23.6075L21.2267 23.0176L22.0504 13.8249L22.1359 12.8873L22.7688 5.81982H13.9879V9.31163H18.9272L18.6083 12.8873H13.9879V16.379H18.3043Z" fill="white"/>
</svg>
