<svg width="23" height="32" viewBox="0 0 23 32" fill="none" xmlns="http://www.w3.org/2000/svg">
<path d="M7.40736 24.1174C7.40736 24.1174 6.21563 24.8105 8.25548 25.045C10.7267 25.3269 11.9897 25.2865 14.713 24.771C14.713 24.771 15.429 25.22 16.4289 25.6088C10.324 28.2253 2.61228 25.4573 7.40736 24.1174Z" fill="#5382A1"/>
<path d="M6.66141 20.7031C6.66141 20.7031 5.32477 21.6925 7.36612 21.9037C10.006 22.176 12.0907 22.1983 15.6981 21.5037C15.6981 21.5037 16.197 22.0095 16.9816 22.2861C9.60039 24.4445 1.37906 22.4563 6.66141 20.7031Z" fill="#5382A1"/>
<path d="M12.9503 14.9115C14.4546 16.6433 12.5551 18.2018 12.5551 18.2018C12.5551 18.2018 16.3746 16.23 14.6205 13.7609C12.9822 11.4583 11.7258 10.3142 18.5273 6.36963C18.5273 6.36963 7.85123 9.03602 12.9503 14.9115Z" fill="#E76F00"/>
<path d="M21.0245 26.6429C21.0245 26.6429 21.9065 27.3696 20.0533 27.9317C16.5295 28.9992 5.38672 29.3216 2.29132 27.9743C1.1786 27.4902 3.26526 26.8184 3.92164 26.6775C4.60619 26.529 4.99738 26.5567 4.99738 26.5567C3.75992 25.6849 -3.00103 28.2684 1.56315 29.0082C14.0103 31.0268 24.2532 28.0992 21.0245 26.6429Z" fill="#5382A1"/>
<path d="M7.98048 17.1655C7.98048 17.1655 2.31257 18.5117 5.97333 19.0006C7.51902 19.2075 10.6003 19.1607 13.4704 18.9202C15.8161 18.7223 18.1714 18.3016 18.1714 18.3016C18.1714 18.3016 17.3443 18.6559 16.7459 19.0644C10.9902 20.5782 -0.128633 19.874 3.07235 18.3256C5.77942 17.017 7.98048 17.1655 7.98048 17.1655Z" fill="#5382A1"/>
<path d="M18.148 22.8488C23.9989 19.8085 21.2937 16.8867 19.4054 17.2804C18.9426 17.3767 18.7363 17.4602 18.7363 17.4602C18.7363 17.4602 18.9081 17.191 19.2362 17.0745C22.9717 15.7612 25.8446 20.9478 18.0304 23.0021C18.0304 23.0021 18.1209 22.9212 18.148 22.8488Z" fill="#5382A1"/>
<path d="M14.6205 0C14.6205 0 17.8608 3.24141 11.5472 8.22578C6.48432 12.2241 10.3927 14.5038 11.5451 17.1085C8.58981 14.4421 6.42103 12.0949 7.87602 9.91032C10.0116 6.70355 15.9279 5.14878 14.6205 0Z" fill="#E76F00"/>
<path d="M8.55542 31.0876C14.1715 31.4471 22.7957 30.8881 23 28.2307C23 28.2307 22.6074 29.2381 18.3586 30.0381C13.5651 30.9402 7.653 30.8349 4.14648 30.2568C4.14657 30.2567 4.86431 30.8509 8.55542 31.0876Z" fill="#5382A1"/>
</svg>
