<svg width="35" height="32" viewBox="0 0 35 32" fill="none" xmlns="http://www.w3.org/2000/svg">
<path d="M35 15.5883C35 13.2697 32.0964 11.0724 27.6447 9.70979C28.672 5.17248 28.2155 1.56262 26.2036 0.406889C25.7399 0.135792 25.1977 0.00737815 24.6056 0.00737815V1.59829C24.9338 1.59829 25.1977 1.66249 25.4189 1.78377C26.3891 2.34024 26.81 4.45907 26.4819 7.18431C26.4034 7.85491 26.275 8.56119 26.118 9.28174C24.7197 8.9393 23.193 8.67534 21.5879 8.50412C20.6247 7.18431 19.626 5.98577 18.6201 4.93706C20.9458 2.77542 23.1288 1.59115 24.6127 1.59115V0.000244141C22.6508 0.000244141 20.0826 1.39853 17.4857 3.82413C14.8889 1.4128 12.3206 0.0287807 10.3587 0.0287807V1.61969C11.8355 1.61969 14.0257 2.79682 16.3514 4.94419C15.3526 5.99291 14.3539 7.18431 13.405 8.50412C11.7927 8.67534 10.266 8.9393 8.86771 9.28887C8.70363 8.57546 8.58235 7.88345 8.49674 7.21998C8.16144 4.49474 8.57521 2.37591 9.53832 1.81231C9.75234 1.6839 10.0306 1.62682 10.3587 1.62682V0.0359148C9.75948 0.0359148 9.21729 0.164329 8.74643 0.435426C6.74174 1.59115 6.2923 5.19388 7.32674 9.71692C2.88932 11.0867 0 13.2768 0 15.5883C0 17.9069 2.90359 20.1042 7.35528 21.4668C6.32797 26.0041 6.78455 29.614 8.79637 30.7697C9.26009 31.0408 9.80228 31.1692 10.4016 31.1692C12.3634 31.1692 14.9317 29.7709 17.5285 27.3453C20.1254 29.7567 22.6936 31.1407 24.6555 31.1407C25.2548 31.1407 25.797 31.0123 26.2678 30.7412C28.2725 29.5854 28.722 25.9827 27.6875 21.4597C32.1107 20.0971 35 17.8998 35 15.5883ZM25.7114 10.8298C25.4474 11.7501 25.1192 12.699 24.7483 13.6478C24.4558 13.0771 24.149 12.5064 23.8137 11.9356C23.4855 11.3649 23.136 10.8084 22.7864 10.2662C23.7994 10.4161 24.7768 10.6016 25.7114 10.8298ZM22.4439 18.4277C21.8875 19.3908 21.3168 20.304 20.7246 21.1529C19.6616 21.2457 18.5844 21.2956 17.5 21.2956C16.4227 21.2956 15.3455 21.2457 14.2896 21.1601C13.6975 20.3111 13.1196 19.4051 12.5632 18.4491C12.021 17.5145 11.5287 16.5657 11.0793 15.6097C11.5216 14.6537 12.021 13.6978 12.5561 12.7632C13.1125 11.8001 13.6832 10.8869 14.2754 10.038C15.3384 9.94521 16.4156 9.89527 17.5 9.89527C18.5773 9.89527 19.6545 9.94521 20.7104 10.0308C21.3025 10.8798 21.8804 11.7858 22.4368 12.7418C22.979 13.6764 23.4713 14.6252 23.9207 15.5812C23.4713 16.5371 22.979 17.4931 22.4439 18.4277ZM24.7483 17.5002C25.1335 18.4562 25.4617 19.4122 25.7328 20.3396C24.7982 20.5679 23.8137 20.7605 22.7935 20.9104C23.1431 20.361 23.4927 19.7974 23.8208 19.2196C24.149 18.6488 24.4558 18.071 24.7483 17.5002ZM17.5143 25.1124C16.8508 24.4275 16.1873 23.6641 15.531 22.8294C16.1731 22.858 16.8294 22.8794 17.4929 22.8794C18.1635 22.8794 18.8269 22.8651 19.4762 22.8294C18.8341 23.6641 18.1706 24.4275 17.5143 25.1124ZM12.2065 20.9104C11.1934 20.7605 10.2161 20.5751 9.28149 20.3468C9.54545 19.4265 9.87362 18.4776 10.2446 17.5288C10.5371 18.0995 10.8439 18.6702 11.1792 19.241C11.5145 19.8117 11.8569 20.3682 12.2065 20.9104ZM17.4786 6.06425C18.1421 6.74912 18.8055 7.51248 19.4619 8.34717C18.8198 8.31863 18.1635 8.29723 17.5 8.29723C16.8294 8.29723 16.1659 8.3115 15.5167 8.34717C16.1588 7.51248 16.8223 6.74912 17.4786 6.06425ZM12.1993 10.2662C11.8498 10.8156 11.5002 11.3792 11.172 11.957C10.8439 12.5278 10.5371 13.0985 10.2446 13.6692C9.85936 12.7133 9.53119 11.7573 9.26009 10.8298C10.1947 10.6087 11.1792 10.4161 12.1993 10.2662ZM5.74297 19.1982C3.21749 18.1209 1.58377 16.7084 1.58377 15.5883C1.58377 14.4682 3.21749 13.0486 5.74297 11.9784C6.3565 11.7145 7.02711 11.479 7.71912 11.2579C8.12576 12.6562 8.66082 14.1115 9.3243 15.6026C8.66796 17.0865 8.14003 18.5347 7.74052 19.9258C7.03425 19.7047 6.36364 19.4621 5.74297 19.1982ZM9.58113 29.3928C8.61088 28.8364 8.18997 26.7175 8.51814 23.9923C8.59662 23.3217 8.72503 22.6154 8.88198 21.8949C10.2803 22.2373 11.807 22.5013 13.4122 22.6725C14.3753 23.9923 15.374 25.1908 16.3799 26.2395C14.0542 28.4012 11.8712 29.5855 10.3873 29.5855C10.0662 29.5783 9.79515 29.5141 9.58113 29.3928ZM26.5033 23.9566C26.8386 26.6819 26.4248 28.8007 25.4617 29.3643C25.2477 29.4927 24.9694 29.5498 24.6413 29.5498C23.1645 29.5498 20.9743 28.3727 18.6486 26.2253C19.6474 25.1766 20.6462 23.9852 21.595 22.6654C23.2073 22.4941 24.734 22.2302 26.1323 21.8806C26.2964 22.6011 26.4248 23.2932 26.5033 23.9566ZM29.2499 19.1982C28.6364 19.4621 27.9658 19.6976 27.2737 19.9187C26.8671 18.5204 26.332 17.0651 25.6686 15.574C26.3249 14.0901 26.8528 12.6419 27.2523 11.2508C27.9586 11.4719 28.6292 11.7145 29.257 11.9784C31.7825 13.0557 33.4162 14.4682 33.4162 15.5883C33.4091 16.7084 31.7754 18.128 29.2499 19.1982Z" fill="#61DAFB"/>
<path d="M17.4929 18.8487C19.2935 18.8487 20.7532 17.389 20.7532 15.5884C20.7532 13.7878 19.2935 12.3281 17.4929 12.3281C15.6923 12.3281 14.2326 13.7878 14.2326 15.5884C14.2326 17.389 15.6923 18.8487 17.4929 18.8487Z" fill="#61DAFB"/>
</svg>
