<svg width="31" height="31" viewBox="0 0 31 31" fill="none" xmlns="http://www.w3.org/2000/svg">
<path d="M31 0H0V31H31V0Z" fill="#F7DF1E"/>
<path d="M20.8241 24.2189C21.4486 25.2385 22.261 25.9879 23.6978 25.9879C24.9048 25.9879 25.6759 25.3846 25.6759 24.551C25.6759 23.5521 24.8837 23.1984 23.5551 22.6172L22.8268 22.3048C20.7247 21.4092 19.3283 20.2873 19.3283 17.9156C19.3283 15.7308 20.9929 14.0676 23.5944 14.0676C25.4466 14.0676 26.7781 14.7122 27.7376 16.4L25.4692 17.8565C24.9698 16.961 24.431 16.6081 23.5944 16.6081C22.7412 16.6081 22.2004 17.1494 22.2004 17.8565C22.2004 18.7304 22.7417 19.0842 23.9915 19.6255L24.7198 19.9375C27.1949 20.9988 28.5923 22.0809 28.5923 24.5136C28.5923 27.1363 26.5321 28.5732 23.7652 28.5732C21.0598 28.5732 19.312 27.284 18.4568 25.5942L20.8241 24.2189ZM10.5336 24.4713C10.9912 25.2832 11.4075 25.9697 12.4084 25.9697C13.3654 25.9697 13.9692 25.5952 13.9692 24.1392V14.2339H16.8822V24.1785C16.8822 27.1949 15.1137 28.5678 12.5324 28.5678C10.2 28.5678 8.84927 27.3607 8.16235 25.9069L10.5336 24.4713Z" fill="black"/>
</svg>
