<svg width="464" height="464" viewBox="0 0 464 464" fill="none" xmlns="http://www.w3.org/2000/svg">
<circle cx="232" cy="232" r="230" stroke="#F5F5F5" stroke-width="3"/>
<circle cx="232" cy="232" r="214.041" stroke="#F5F5F5" stroke-width="3"/>
<path pathLength="1" d="M161 433C173.209 417.913 198.943 376.292 215.142 377.96M215.142 377.96C212.164 390.665 212.164 417.087 235.986 421.137C238.614 421.584 241.409 421.953 244.324 422.253M215.142 377.96C215.142 372.468 215.379 367.385 215.763 362.773M336.038 277.61C332.724 273.934 326.98 272.13 319.767 271.861M336.038 277.61C343.595 285.994 347.392 299.381 349.299 312.747M336.038 277.61C342.359 278.24 356.5 283.7 362.5 300.5C372.5 306.833 393.1 320.2 395.5 323C398.5 326.5 418 327.5 422.5 327M319.767 271.861C325.594 285.093 339.659 311.794 349.299 312.747M319.767 271.861C318.441 270.303 315.789 264.806 315.789 255.277M349.299 312.747C351.24 326.346 351.224 339.923 351.224 348.182C351.224 372.302 328.395 405.454 313.109 421.137C299.069 422.638 267.823 424.674 244.324 422.253M219.906 364.262C222.902 368.048 226.827 372.895 231.065 377.96M259.808 407.142C255.659 406.277 242.271 391.355 231.065 377.96M231.065 377.96C230.323 391.508 231.936 419.334 244.324 422.253" stroke="#F5F5F5" stroke-width="2"/>
<path pathLength="1" d="M167.796 226.988C171.171 234.036 180.128 248.148 181.5 259.5C183.08 272.577 176.747 272.548 183 279.992C188.003 285.948 199.261 283.962 206.804 279.992C218.219 273.143 232.413 261.828 230.031 257.361C229.534 250.612 223.777 246.641 211.271 249.024" stroke="#F5F5F5" stroke-width="2"/>
<path pathLength="1" d="M140.103 232.922C134.878 236.407 129.858 241.562 125.81 249.024M140.103 232.922C144.271 230.142 148.569 228.425 152.609 227.449M140.103 232.922C139.11 236.16 139.448 242.949 148.738 244.193M125.81 249.024C131.159 249.184 140.101 248.099 148.738 244.193M125.81 249.024C127.001 240.686 125.81 238.304 140.103 226.988C151.537 217.936 163.329 223.216 167.796 226.988M125.81 249.024C124.857 255.694 138.515 251.803 145.463 249.024C150.723 246.046 161.483 239.733 162.436 238.304C163.627 236.517 167.796 235.028 167.796 226.988M148.738 244.193C152.079 242.682 155.373 240.749 158.397 238.304M167.796 226.988C164.213 226.192 158.705 225.977 152.609 227.449M167.796 226.988C165.328 231.622 162.062 235.34 158.397 238.304M152.609 227.449C155.376 227.494 160.407 229.728 158.397 238.304" stroke="#F5F5F5" stroke-width="2"/>
<path pathLength="1" d="M211.271 190.66C211.767 193.538 214.487 199.772 221.395 201.677M224.373 183.811C227.35 185.796 233.246 193.042 230.626 197.806M197.871 208.824C203.032 197.509 218.953 176.843 241.346 184.704C241.346 193.935 220.74 205.727 197.871 208.824ZM250.279 180.535C234.1 175.573 199.955 174.818 192.809 211.504C207.598 213.092 239.797 209.122 250.279 180.535Z" stroke="#F5F5F5" stroke-width="2"/>
<path pathLength="1" d="M95.7345 214.779C116.182 253.292 161.245 331.745 177.92 337.462C198.764 344.609 199.955 374.684 260.106 362.773C320.256 350.862 321.447 228.477 311.323 226.988C314.301 228.08 321.268 228.715 325.318 222.522C330.38 214.779 323.532 163.86 311.323 154.629C307.52 151.754 304.196 152.336 301.431 154.629M95.7345 214.779C89.4812 194.531 84.6774 172.488 112.708 131.403C134.445 99.541 194.198 84.2553 226.457 84.0568M95.7345 214.779C72.5081 196.913 77.868 179.344 71.6148 171.305C65.3615 163.265 71.6148 109.963 118.961 69.4659C156.838 37.0681 213.951 55.9668 237.773 69.4659M226.457 84.0568C237.654 119.075 258.518 134.778 267.55 138.252C273.506 160.406 286.905 177.856 292.861 183.811V171.305C294.134 166.031 297.095 158.226 301.431 154.629M226.457 84.0568C231.46 74.5281 236.085 70.3592 237.773 69.4659M301.431 154.629C298.078 124.554 280.652 65.4161 237.773 69.4659" stroke="#F5F5F5" stroke-width="2"/>
<path pathLength="1" d="M148.143 206.74C138.415 207.435 116.579 212.1 107.05 225.202C97.5211 238.304 130.475 218.353 148.143 206.74Z" stroke="#F5F5F5" stroke-width="2"/>
<path pathLength="1" d="M176.133 184.704C194.794 168.625 233.961 140.157 241.346 154.927C230.13 158.6 201.385 169.697 176.133 184.704Z" stroke="#F5F5F5" stroke-width="2"/>
<path pathLength="1" d="M260.701 275.526C260.106 285.948 252.959 299.212 242.239 307.983C238.964 310.663 228.839 317.214 216.035 319.894C210.874 319.894 200.491 322.812 195.489 317.81M260.701 275.526C254.269 281.719 239.162 290.414 232.413 293.988C222.407 300.658 203.628 309.869 195.489 313.641C192.63 314.594 194.298 316.817 195.489 317.81M260.701 275.526C260.701 276.717 255.54 283.963 252.959 287.437C235.569 304.35 207.4 314.733 195.489 317.81" stroke="#F5F5F5" stroke-width="2"/>
</svg>
