<svg width="463" height="464" viewBox="0 0 463 464" fill="none" xmlns="http://www.w3.org/2000/svg">
<path pathLength="1" fill-rule="evenodd" clip-rule="evenodd" d="M231.996 3.5C106.355 3.5 4.49146 105.797 4.49146 232C4.49146 358.203 106.355 460.5 231.996 460.5C357.637 460.5 459.5 358.203 459.5 232C459.5 105.797 357.637 3.5 231.996 3.5ZM1.49146 232C1.49146 104.152 104.686 0.5 231.996 0.5C359.306 0.5 462.5 104.152 462.5 232C462.5 359.848 359.306 463.5 231.996 463.5C104.686 463.5 1.49146 359.848 1.49146 232Z" fill="#F5F5F5" stroke="#F5F5F5"/>
<path pathLength="1" fill-rule="evenodd" clip-rule="evenodd" d="M231.996 19.4591C115.131 19.4591 20.3816 114.611 20.3816 232C20.3816 349.389 115.131 444.541 231.996 444.541C348.861 444.541 443.61 349.389 443.61 232C443.61 114.611 348.861 19.4591 231.996 19.4591ZM17.3816 232C17.3816 112.966 113.462 16.4591 231.996 16.4591C350.53 16.4591 446.61 112.966 446.61 232C446.61 351.034 350.53 447.541 231.996 447.541C113.462 447.541 17.3816 351.034 17.3816 232Z" fill="#F5F5F5" stroke="#F5F5F5"/>
<path pathLength="1" d="M165 434.5C177.156 419.413 204.082 376.292 220.21 377.96M220.21 377.96C217.246 390.665 217.246 417.087 240.964 421.137C243.581 421.584 246.364 421.953 249.266 422.253M220.21 377.96C220.21 372.468 220.446 367.385 220.829 362.773M340.583 277.61C337.284 273.934 331.564 272.13 324.383 271.861M340.583 277.61C348.108 285.994 351.888 299.381 353.787 312.747M340.583 277.61C346.877 278.24 360.957 283.7 366.931 300.5C376.887 306.833 397.398 320.2 399.788 323C402.775 326.5 418.519 327.5 423 327M324.383 271.861C330.185 285.093 344.189 311.794 353.787 312.747M324.383 271.861C323.063 270.303 320.422 264.806 320.422 255.277M353.787 312.747C355.719 326.346 355.704 339.923 355.704 348.182C355.704 372.302 332.973 405.454 317.754 421.137C303.774 422.638 272.663 424.674 249.266 422.253M224.954 364.262C227.937 368.048 231.845 372.895 236.065 377.96M264.683 407.142C260.553 406.277 247.222 391.355 236.065 377.96M236.065 377.96C235.326 391.508 236.932 419.334 249.266 422.253" stroke="#F5F5F5" stroke-width="2"/>
<path pathLength="1" d="M173.069 226.988C176.43 234.036 185.349 248.148 186.714 259.5C188.287 272.577 181.982 272.548 188.208 279.992C193.189 285.948 204.398 283.962 211.909 279.992C223.274 273.143 237.407 261.828 235.035 257.361C234.541 250.612 228.808 246.641 216.356 249.024" stroke="#F5F5F5" stroke-width="2"/>
<path pathLength="1" d="M145.496 232.922C140.294 236.407 135.295 241.562 131.265 249.024M145.496 232.922C149.646 230.142 153.926 228.425 157.949 227.449M145.496 232.922C144.508 236.16 144.844 242.949 154.094 244.193M131.265 249.024C136.591 249.184 145.494 248.099 154.094 244.193M131.265 249.024C132.451 240.686 131.265 238.304 145.496 226.988C156.881 217.936 168.622 223.216 173.069 226.988M131.265 249.024C130.316 255.694 143.915 251.803 150.833 249.024C156.071 246.046 166.784 239.733 167.733 238.304C168.919 236.517 173.069 235.028 173.069 226.988M154.094 244.193C157.42 242.682 160.701 240.749 163.712 238.304M173.069 226.988C169.502 226.192 164.018 225.977 157.949 227.449M173.069 226.988C170.613 231.622 167.36 235.34 163.712 238.304M157.949 227.449C160.703 227.494 165.713 229.728 163.712 238.304" stroke="#F5F5F5" stroke-width="2"/>
<path pathLength="1" d="M216.356 190.66C216.85 193.538 219.558 199.772 226.436 201.677M229.401 183.811C232.366 185.796 238.237 193.042 235.627 197.806M203.014 208.824C208.153 197.509 224.005 176.843 246.301 184.704C246.301 193.935 225.784 205.727 203.014 208.824ZM255.195 180.535C239.086 175.573 205.09 174.818 197.974 211.504C212.699 213.092 244.759 209.122 255.195 180.535Z" stroke="#F5F5F5" stroke-width="2"/>
<path pathLength="1" d="M101.32 214.779C121.679 253.292 166.547 331.745 183.15 337.462C203.904 344.609 205.09 374.684 264.98 362.773C324.87 350.862 326.056 228.477 315.975 226.988C318.94 228.08 325.878 228.715 329.91 222.522C334.95 214.779 328.131 163.86 315.975 154.629C312.189 151.754 308.879 152.336 306.126 154.629M101.32 214.779C95.0938 194.531 90.3108 172.488 118.22 131.403C139.863 99.541 199.358 84.2553 231.477 84.0568M101.32 214.779C78.1942 196.913 83.5309 179.344 77.3047 171.305C71.0785 163.265 77.3047 109.963 124.446 69.4659C162.159 37.0681 219.024 55.9668 242.743 69.4659M231.477 84.0568C242.625 119.075 263.398 134.778 272.392 138.252C278.321 160.406 291.663 177.856 297.593 183.811V171.305C298.86 166.031 301.808 158.226 306.126 154.629M231.477 84.0568C236.458 74.5281 241.063 70.3592 242.743 69.4659M306.126 154.629C302.788 124.554 285.437 65.4161 242.743 69.4659" stroke="#F5F5F5" stroke-width="2"/>
<path pathLength="1" d="M153.501 206.74C143.816 207.435 122.074 212.1 112.586 225.202C103.099 238.304 135.91 218.353 153.501 206.74Z" stroke="#F5F5F5" stroke-width="2"/>
<path pathLength="1" d="M181.371 184.704C199.951 168.625 238.948 140.157 246.301 154.927C235.133 158.6 206.513 169.697 181.371 184.704Z" stroke="#F5F5F5" stroke-width="2"/>
<path pathLength="1" d="M265.573 275.526C264.98 285.948 257.864 299.212 247.19 307.983C243.929 310.663 233.849 317.214 221.1 319.894C215.961 319.894 205.623 322.812 200.642 317.81M265.573 275.526C259.168 281.719 244.127 290.414 237.406 293.988C227.445 300.658 208.746 309.869 200.642 313.641C197.796 314.594 199.456 316.817 200.642 317.81M265.573 275.526C265.573 276.717 260.433 283.963 257.864 287.437C240.549 304.35 212.502 314.733 200.642 317.81" stroke="#F5F5F5" stroke-width="2"/>
</svg>
