<svg width="576" height="45" viewBox="0 0 576 45" fill="none" xmlns="http://www.w3.org/2000/svg">
<path pathLength="1" d="M11.6797 3.00781H18.7578L27.8984 35H20.7031L19.1094 28.3906H10.1094L8.53906 35H2.07031L11.6797 3.00781ZM17.7734 22.9062L14.5625 9.85156L11.4453 22.9062H17.7734ZM30.5703 3.00781H37.0625V13.5547C38.3438 11.8516 39.9844 11 41.9844 11C44.1719 11 45.9922 11.9844 47.4453 13.9531C48.8984 15.9219 49.625 18.9453 49.625 23.0234C49.625 26.9453 48.9141 30.0078 47.4922 32.2109C46.0703 34.3984 43.9922 35.4922 41.2578 35.4922C38.5703 35.4922 36.7266 34.2969 35.7266 31.9062C35.2734 32.7188 34.8594 33.75 34.4844 35H30.5703V3.00781ZM37.0625 25.1797C37.0625 27.3516 37.2656 28.8516 37.6719 29.6797C38.0781 30.5078 38.7969 30.9219 39.8281 30.9219C40.9688 30.9219 41.75 30.3359 42.1719 29.1641C42.5938 27.9766 42.8047 25.9844 42.8047 23.1875C42.8047 20.4844 42.6016 18.5078 42.1953 17.2578C41.7891 16.0078 41.0391 15.3828 39.9453 15.3828C38.0234 15.3828 37.0625 16.8281 37.0625 19.7188V25.1797ZM71.7266 23.1641C71.7266 31.3828 68.5234 35.4922 62.1172 35.4922C55.6953 35.4922 52.4844 31.3828 52.4844 23.1641C52.4844 14.9609 55.6953 10.8594 62.1172 10.8594C68.5234 10.8594 71.7266 14.9609 71.7266 23.1641ZM64.9062 23.1641C64.9062 20.1484 64.6953 18.1094 64.2734 17.0469C63.8672 15.9844 63.1484 15.4531 62.1172 15.4531C61.1172 15.4531 60.3984 15.9609 59.9609 16.9766C59.5234 17.9766 59.3047 20.0391 59.3047 23.1641C59.3047 26.0547 59.4922 28.0625 59.8672 29.1875C60.2422 30.3125 60.9922 30.875 62.1172 30.875C63.1953 30.875 63.9297 30.3203 64.3203 29.2109C64.7109 28.0859 64.9062 26.0703 64.9062 23.1641ZM75.2422 11.3281H81.8516V26.5156C81.8516 28.0469 81.9922 29.0703 82.2734 29.5859C82.5547 30.1016 83.1641 30.3594 84.1016 30.3594C84.9609 30.3594 85.6094 30.1484 86.0469 29.7266C86.5 29.3047 86.7734 28.7266 86.8672 27.9922C86.9609 27.2422 87.0078 25.7109 87.0078 23.3984V11.3281H93.6172V35H87.4062V31.7656C86.4688 33.375 85.5312 34.3984 84.5938 34.8359C83.6719 35.2734 82.5781 35.4922 81.3125 35.4922C79.6094 35.4922 78.3047 35.1406 77.3984 34.4375C76.4922 33.7344 75.9062 32.8438 75.6406 31.7656C75.375 30.6875 75.2422 29.0078 75.2422 26.7266V11.3281ZM99.4766 4.0625L105.898 3.85156V11.3281H110.258V16.5312H105.898V25.2266C105.898 26.8359 105.93 27.8828 105.992 28.3672C106.07 28.8359 106.305 29.2344 106.695 29.5625C107.102 29.875 107.773 30.0312 108.711 30.0312C109.211 30.0312 109.836 30.0156 110.586 29.9844V35C109.117 35.3281 107.773 35.4922 106.555 35.4922C104.555 35.4922 103.023 35.1094 101.961 34.3438C100.898 33.5781 100.219 32.6172 99.9219 31.4609C99.625 30.3047 99.4766 28.4688 99.4766 25.9531V16.5312H96.8516V11.3281H99.4766V4.0625ZM122.75 3.00781H133.062L137.586 22.7656L142.672 3.00781H152.68V35H146.094V8.21094L139.555 35H134.445L128.469 8.21094V35H122.75V3.00781ZM155.07 11.3281H161.68L164.867 25.7891L167.938 11.3281H173.633L166.508 35.375C165.82 37.6719 165.234 39.2812 164.75 40.2031C164.266 41.125 163.539 41.8828 162.57 42.4766C161.602 43.0859 160.367 43.3906 158.867 43.3906C157.945 43.3906 157.008 43.2656 156.055 43.0156V37.8125C156.711 37.9062 157.328 37.9531 157.906 37.9531C159.188 37.9531 160.062 37.7422 160.531 37.3203C161.016 36.8984 161.469 35.9766 161.891 34.5547L155.07 11.3281ZM190.977 17.0234L186.266 18.4297C185.641 16.2891 184.484 15.2188 182.797 15.2188C181.422 15.2188 180.734 15.9062 180.734 17.2812C180.734 18.0625 180.992 18.6562 181.508 19.0625C182.023 19.4688 183.086 19.9531 184.695 20.5156C186.508 21.1562 187.836 21.7188 188.68 22.2031C189.523 22.6875 190.234 23.4219 190.812 24.4062C191.391 25.375 191.68 26.4922 191.68 27.7578C191.68 29.9453 190.891 31.7812 189.312 33.2656C187.734 34.75 185.531 35.4922 182.703 35.4922C177.375 35.4922 174.422 33.1406 173.844 28.4375L179.094 27.5938C179.531 29.9531 180.773 31.1328 182.82 31.1328C184.57 31.1328 185.445 30.3984 185.445 28.9297C185.445 28.1484 185.188 27.5547 184.672 27.1484C184.156 26.7422 183.156 26.3047 181.672 25.8359C178.953 24.9609 177.086 23.9062 176.07 22.6719C175.055 21.4375 174.547 20.0078 174.547 18.3828C174.547 16.1016 175.344 14.2734 176.938 12.8984C178.547 11.5234 180.555 10.8359 182.961 10.8359C187.164 10.8359 189.836 12.8984 190.977 17.0234ZM213.219 24.2656H200.797V25.5781C200.797 27.7031 201.086 29.125 201.664 29.8438C202.242 30.5625 203 30.9219 203.938 30.9219C205.953 30.9219 207.086 29.5703 207.336 26.8672L213.219 27.2422C212.172 32.7422 209.039 35.4922 203.82 35.4922C200.602 35.4922 198.156 34.4062 196.484 32.2344C194.812 30.0625 193.977 27.1562 193.977 23.5156C193.977 19.4062 194.859 16.2734 196.625 14.1172C198.406 11.9453 200.789 10.8594 203.773 10.8594C206.461 10.8594 208.703 11.8203 210.5 13.7422C212.312 15.6484 213.219 19.1562 213.219 24.2656ZM206.984 20.4453C207 20.1641 207.008 19.9453 207.008 19.7891C207.008 16.7422 205.977 15.2188 203.914 15.2188C201.883 15.2188 200.859 16.9609 200.844 20.4453H206.984ZM217.062 3.00781H223.672V35H217.062V3.00781ZM235.977 11.3281H240.148V16.5312H235.977V35H229.648V16.5312H226.953V11.3281H229.648C229.664 9 229.844 7.25781 230.188 6.10156C230.531 4.94531 231.273 3.92969 232.414 3.05469C233.555 2.17969 235.109 1.74219 237.078 1.74219C238.234 1.74219 239.344 1.82031 240.406 1.97656V7.13281C239.875 7.07031 239.383 7.03906 238.93 7.03906C237.664 7.03906 236.852 7.3125 236.492 7.85938C236.148 8.39062 235.977 9.54688 235.977 11.3281ZM257.727 18.8516L251.469 18.2422C251.766 15.8672 252.773 14.0391 254.492 12.7578C256.227 11.4766 258.406 10.8359 261.031 10.8359C263.25 10.8359 265.031 11.2656 266.375 12.125C267.719 12.9688 268.562 13.9531 268.906 15.0781C269.266 16.2031 269.445 17.9453 269.445 20.3047V29.75C269.445 32.6875 269.578 34.4375 269.844 35H263.727C263.508 34.3594 263.398 33.1484 263.398 31.3672C261.945 34.1172 259.781 35.4922 256.906 35.4922C255.062 35.4922 253.562 34.9453 252.406 33.8516C251.25 32.7422 250.672 31.1328 250.672 29.0234C250.672 26.3828 251.547 24.3438 253.297 22.9062C255.047 21.4531 258.234 20.5859 262.859 20.3047V19.4141C262.859 17.8359 262.695 16.7422 262.367 16.1328C262.055 15.5234 261.438 15.2188 260.516 15.2188C258.828 15.2188 257.898 16.4297 257.727 18.8516ZM262.859 23.6797C260.938 23.8984 259.562 24.3281 258.734 24.9688C257.922 25.5938 257.516 26.6562 257.516 28.1562C257.516 30.1562 258.25 31.1562 259.719 31.1562C260.516 31.1562 261.234 30.7109 261.875 29.8203C262.531 28.9141 262.859 27.2578 262.859 24.8516V23.6797ZM274.32 11.3281H280.578V14.5625C281.672 12.0938 283.648 10.8594 286.508 10.8594C288.055 10.8594 289.328 11.2109 290.328 11.9141C291.344 12.6016 291.992 13.4844 292.273 14.5625C292.555 15.6406 292.695 17.2812 292.695 19.4844V35H286.086V19.4844C286.086 17.8906 285.883 16.9062 285.477 16.5312C285.07 16.1562 284.523 15.9688 283.836 15.9688C282.648 15.9688 281.867 16.3359 281.492 17.0703C281.117 17.7891 280.93 19.1406 280.93 21.125V35H274.32V11.3281ZM308.82 3.00781H315.312V35H309.195V31.0859C308.195 33.9141 306.398 35.3281 303.805 35.3281C301.258 35.3281 299.359 34.2188 298.109 32C296.859 29.7812 296.234 26.8672 296.234 23.2578C296.234 19.1484 296.945 16.0781 298.367 14.0469C299.805 12.0156 301.719 11 304.109 11C306.312 11 307.883 11.8438 308.82 13.5312V3.00781ZM308.82 21.2422C308.82 18.9141 308.57 17.3594 308.07 16.5781C307.586 15.7812 306.875 15.3828 305.938 15.3828C304.828 15.3828 304.07 15.9297 303.664 17.0234C303.273 18.1172 303.078 20.3828 303.078 23.8203C303.078 26.3828 303.297 28.1797 303.734 29.2109C304.172 30.2422 304.891 30.7578 305.891 30.7578C306.734 30.7578 307.43 30.4141 307.977 29.7266C308.539 29.0234 308.82 27.5938 308.82 25.4375V21.2422ZM326.281 11.3281H332.703L335.492 25.7188L338.141 11.3281H344.562L346.719 25.7188L349.906 11.3281H355.086L349.156 35H343.625L340.578 18.8984L337.602 35H332.234L326.281 11.3281ZM356.914 3.00781H363.523V13.8359C364.711 11.8359 366.648 10.8359 369.336 10.8359C370.945 10.8359 372.211 11.2109 373.133 11.9609C374.07 12.7109 374.664 13.6641 374.914 14.8203C375.164 15.9609 375.289 17.625 375.289 19.8125V35H368.68V19.8125C368.68 18.2656 368.531 17.2422 368.234 16.7422C367.953 16.2266 367.359 15.9688 366.453 15.9688C365.562 15.9688 364.852 16.2109 364.32 16.6953C363.789 17.1797 363.523 18.2812 363.523 20V35H356.914V3.00781ZM386.164 18.8516L379.906 18.2422C380.203 15.8672 381.211 14.0391 382.93 12.7578C384.664 11.4766 386.844 10.8359 389.469 10.8359C391.688 10.8359 393.469 11.2656 394.812 12.125C396.156 12.9688 397 13.9531 397.344 15.0781C397.703 16.2031 397.883 17.9453 397.883 20.3047V29.75C397.883 32.6875 398.016 34.4375 398.281 35H392.164C391.945 34.3594 391.836 33.1484 391.836 31.3672C390.383 34.1172 388.219 35.4922 385.344 35.4922C383.5 35.4922 382 34.9453 380.844 33.8516C379.688 32.7422 379.109 31.1328 379.109 29.0234C379.109 26.3828 379.984 24.3438 381.734 22.9062C383.484 21.4531 386.672 20.5859 391.297 20.3047V19.4141C391.297 17.8359 391.133 16.7422 390.805 16.1328C390.492 15.5234 389.875 15.2188 388.953 15.2188C387.266 15.2188 386.336 16.4297 386.164 18.8516ZM391.297 23.6797C389.375 23.8984 388 24.3281 387.172 24.9688C386.359 25.5938 385.953 26.6562 385.953 28.1562C385.953 30.1562 386.688 31.1562 388.156 31.1562C388.953 31.1562 389.672 30.7109 390.312 29.8203C390.969 28.9141 391.297 27.2578 391.297 24.8516V23.6797ZM403.742 4.0625L410.164 3.85156V11.3281H414.523V16.5312H410.164V25.2266C410.164 26.8359 410.195 27.8828 410.258 28.3672C410.336 28.8359 410.57 29.2344 410.961 29.5625C411.367 29.875 412.039 30.0312 412.977 30.0312C413.477 30.0312 414.102 30.0156 414.852 29.9844V35C413.383 35.3281 412.039 35.4922 410.82 35.4922C408.82 35.4922 407.289 35.1094 406.227 34.3438C405.164 33.5781 404.484 32.6172 404.188 31.4609C403.891 30.3047 403.742 28.4688 403.742 25.9531V16.5312H401.117V11.3281H403.742V4.0625ZM427.016 3.00781H434.047V35H427.016V3.00781ZM448.461 3.00781H455.07V20.4688L461.727 11.3281H467.727L461.75 19.2734L468.312 35H461.188L457.484 24.0078L455.07 27.3359V35H448.461V3.00781ZM470.539 11.3281H476.797V14.5625C477.891 12.0938 479.867 10.8594 482.727 10.8594C484.273 10.8594 485.547 11.2109 486.547 11.9141C487.562 12.6016 488.211 13.4844 488.492 14.5625C488.773 15.6406 488.914 17.2812 488.914 19.4844V35H482.305V19.4844C482.305 17.8906 482.102 16.9062 481.695 16.5312C481.289 16.1562 480.742 15.9688 480.055 15.9688C478.867 15.9688 478.086 16.3359 477.711 17.0703C477.336 17.7891 477.148 19.1406 477.148 21.125V35H470.539V11.3281ZM511.695 23.1641C511.695 31.3828 508.492 35.4922 502.086 35.4922C495.664 35.4922 492.453 31.3828 492.453 23.1641C492.453 14.9609 495.664 10.8594 502.086 10.8594C508.492 10.8594 511.695 14.9609 511.695 23.1641ZM504.875 23.1641C504.875 20.1484 504.664 18.1094 504.242 17.0469C503.836 15.9844 503.117 15.4531 502.086 15.4531C501.086 15.4531 500.367 15.9609 499.93 16.9766C499.492 17.9766 499.273 20.0391 499.273 23.1641C499.273 26.0547 499.461 28.0625 499.836 29.1875C500.211 30.3125 500.961 30.875 502.086 30.875C503.164 30.875 503.898 30.3203 504.289 29.2109C504.68 28.0859 504.875 26.0703 504.875 23.1641ZM512.703 11.3281H519.125L521.914 25.7188L524.562 11.3281H530.984L533.141 25.7188L536.328 11.3281H541.508L535.578 35H530.047L527 18.8984L524.023 35H518.656L512.703 11.3281ZM543.008 27.9219H549.547V35H543.008V27.9219ZM555.289 27.9219H561.828V35H555.289V27.9219ZM567.57 27.9219H574.109V35H567.57V27.9219Z" fill="#F5F5F5" fill-opacity="0.5"/>
<path pathLength="1" d="M11.6797 3.00781V2.00781H10.9359L10.722 2.72014L11.6797 3.00781ZM18.7578 3.00781L19.7193 2.73309L19.5121 2.00781H18.7578V3.00781ZM27.8984 35V36H29.2242L28.86 34.7253L27.8984 35ZM20.7031 35L19.731 35.2344L19.9156 36H20.7031V35ZM19.1094 28.3906L20.0815 28.1562L19.8969 27.3906H19.1094V28.3906ZM10.1094 28.3906V27.3906H9.31913L9.13646 28.1595L10.1094 28.3906ZM8.53906 35V36H9.32931L9.51198 35.2312L8.53906 35ZM2.07031 35L1.11258 34.7123L0.72581 36H2.07031V35ZM17.7734 22.9062V23.9062H19.0492L18.7445 22.6674L17.7734 22.9062ZM14.5625 9.85156L15.5336 9.61272L13.5898 9.61931L14.5625 9.85156ZM11.4453 22.9062L10.4727 22.674L10.1784 23.9062H11.4453V22.9062ZM11.6797 4.00781H18.7578V2.00781H11.6797V4.00781ZM17.7963 3.28253L26.9369 35.2747L28.86 34.7253L19.7193 2.73309L17.7963 3.28253ZM27.8984 34H20.7031V36H27.8984V34ZM21.6753 34.7656L20.0815 28.1562L18.1372 28.625L19.731 35.2344L21.6753 34.7656ZM19.1094 27.3906H10.1094V29.3906H19.1094V27.3906ZM9.13646 28.1595L7.56615 34.7688L9.51198 35.2312L11.0823 28.6218L9.13646 28.1595ZM8.53906 34H2.07031V36H8.53906V34ZM3.02804 35.2877L12.6374 3.29548L10.722 2.72014L1.11258 34.7123L3.02804 35.2877ZM18.7445 22.6674L15.5336 9.61272L13.5914 10.0904L16.8024 23.1451L18.7445 22.6674ZM13.5898 9.61931L10.4727 22.674L12.418 23.1385L15.5352 10.0838L13.5898 9.61931ZM11.4453 23.9062H17.7734V21.9062H11.4453V23.9062ZM30.5703 3.00781V2.00781H29.5703V3.00781H30.5703ZM37.0625 3.00781H38.0625V2.00781H37.0625V3.00781ZM37.0625 13.5547H36.0625V16.5474L37.8616 14.1559L37.0625 13.5547ZM47.4922 32.2109L48.3306 32.7559L48.3324 32.7532L47.4922 32.2109ZM35.7266 31.9062L36.6491 31.5204L35.8552 29.6225L34.8532 31.4192L35.7266 31.9062ZM34.4844 35V36H35.2284L35.4422 35.2873L34.4844 35ZM30.5703 35H29.5703V36H30.5703V35ZM42.1719 29.1641L43.1128 29.5028L43.1142 29.4988L42.1719 29.1641ZM30.5703 4.00781H37.0625V2.00781H30.5703V4.00781ZM36.0625 3.00781V13.5547H38.0625V3.00781H36.0625ZM37.8616 14.1559C38.9684 12.6847 40.3219 12 41.9844 12V10C39.6469 10 37.7191 11.0185 36.2634 12.9535L37.8616 14.1559ZM41.9844 12C43.8134 12 45.3504 12.7987 46.6407 14.547L48.2499 13.3593C46.634 11.17 44.5303 10 41.9844 10V12ZM46.6407 14.547C47.9071 16.2627 48.625 19.0296 48.625 23.0234H50.625C50.625 18.861 49.8898 15.581 48.2499 13.3593L46.6407 14.547ZM48.625 23.0234C48.625 26.8422 47.9299 29.6886 46.652 31.6687L48.3324 32.7532C49.8983 30.327 50.625 27.0484 50.625 23.0234H48.625ZM46.6537 31.6659C45.4267 33.5537 43.6733 34.4922 41.2578 34.4922V36.4922C44.3111 36.4922 46.7139 35.2432 48.3306 32.7559L46.6537 31.6659ZM41.2578 34.4922C40.0638 34.4922 39.1304 34.2279 38.4034 33.7566C37.679 33.287 37.0857 32.564 36.6491 31.5204L34.804 32.2921C35.3675 33.6391 36.196 34.7091 37.3154 35.4348C38.4321 36.1588 39.7643 36.4922 41.2578 36.4922V34.4922ZM34.8532 31.4192C34.3538 32.3146 33.9147 33.4187 33.5265 34.7127L35.4422 35.2873C35.804 34.0813 36.1931 33.1229 36.5999 32.3933L34.8532 31.4192ZM34.4844 34H30.5703V36H34.4844V34ZM31.5703 35V3.00781H29.5703V35H31.5703ZM36.0625 25.1797C36.0625 27.3508 36.2557 29.0634 36.7741 30.1201L38.5697 29.2393C38.2756 28.6398 38.0625 27.3523 38.0625 25.1797H36.0625ZM36.7741 30.1201C37.0546 30.6919 37.4658 31.1606 38.0164 31.4778C38.5604 31.7912 39.1795 31.9219 39.8281 31.9219V29.9219C39.4455 29.9219 39.1896 29.8455 39.0148 29.7448C38.8467 29.648 38.6954 29.4956 38.5697 29.2393L36.7741 30.1201ZM39.8281 31.9219C40.5771 31.9219 41.2779 31.7261 41.8695 31.2824C42.4543 30.8439 42.8538 30.2222 43.1128 29.5028L41.231 28.8253C41.0681 29.2778 40.866 29.535 40.6695 29.6824C40.4799 29.8246 40.2198 29.9219 39.8281 29.9219V31.9219ZM43.1142 29.4988C43.5982 28.1365 43.8047 25.9936 43.8047 23.1875H41.8047C41.8047 25.9751 41.5893 27.8166 41.2296 28.8293L43.1142 29.4988ZM43.8047 23.1875C43.8047 20.466 43.6039 18.3566 43.1463 16.9487L41.2443 17.5669C41.5992 18.659 41.8047 20.5028 41.8047 23.1875H43.8047ZM43.1463 16.9487C42.9045 16.2047 42.5301 15.5515 41.9683 15.0833C41.3919 14.603 40.6962 14.3828 39.9453 14.3828V16.3828C40.2882 16.3828 40.5144 16.4752 40.6879 16.6198C40.8761 16.7766 41.0798 17.0609 41.2443 17.5669L43.1463 16.9487ZM39.9453 14.3828C38.6919 14.3828 37.6386 14.8782 36.9505 15.9131C36.3102 16.8762 36.0625 18.1943 36.0625 19.7188H38.0625C38.0625 18.3526 38.2953 17.5027 38.6159 17.0205C38.8888 16.6101 39.2768 16.3828 39.9453 16.3828V14.3828ZM36.0625 19.7188V25.1797H38.0625V19.7188H36.0625ZM64.2734 17.0469L63.3393 17.404L63.344 17.4159L64.2734 17.0469ZM59.9609 16.9766L60.8771 17.3774L60.8794 17.3722L59.9609 16.9766ZM64.3203 29.2109L65.2636 29.5431L65.265 29.5389L64.3203 29.2109ZM70.7266 23.1641C70.7266 27.171 69.941 29.9922 68.5355 31.7954C67.1669 33.5512 65.0905 34.4922 62.1172 34.4922V36.4922C65.5502 36.4922 68.2784 35.3785 70.1129 33.0249C71.9105 30.7187 72.7266 27.3758 72.7266 23.1641H70.7266ZM62.1172 34.4922C59.1352 34.4922 57.0528 33.5506 55.6806 31.7945C54.2717 29.9914 53.4844 27.1706 53.4844 23.1641H51.4844C51.4844 27.3762 52.3025 30.7196 54.1046 33.0259C55.9433 35.3791 58.6773 36.4922 62.1172 36.4922V34.4922ZM53.4844 23.1641C53.4844 19.1656 54.2716 16.3511 55.68 14.552C57.0519 12.7995 59.1346 11.8594 62.1172 11.8594V9.85938C58.6779 9.85938 55.9441 10.9701 54.1052 13.3191C52.3027 15.6216 51.4844 18.9594 51.4844 23.1641H53.4844ZM62.1172 11.8594C65.0911 11.8594 67.1677 12.7989 68.5361 14.551C69.9412 16.3502 70.7266 19.1652 70.7266 23.1641H72.7266C72.7266 18.9598 71.9104 15.6224 70.1124 13.32C68.2776 10.9707 65.5495 9.85938 62.1172 9.85938V11.8594ZM65.9062 23.1641C65.9062 21.6363 65.853 20.3357 65.7427 19.2701C65.634 18.2193 65.4644 17.3365 65.2029 16.6778L63.344 17.4159C63.5044 17.8197 63.6511 18.4877 63.7534 19.4759C63.8541 20.4495 63.9062 21.6762 63.9062 23.1641H65.9062ZM65.2075 16.6897C64.9546 16.0283 64.5739 15.4538 64.0241 15.0474C63.467 14.6356 62.8126 14.4531 62.1172 14.4531V16.4531C62.453 16.4531 62.6736 16.5362 62.8353 16.6557C63.0043 16.7806 63.186 17.0029 63.3394 17.404L65.2075 16.6897ZM62.1172 14.4531C61.4398 14.4531 60.8017 14.6283 60.2511 15.0173C59.7072 15.4016 59.3156 15.947 59.0425 16.5809L60.8794 17.3722C61.0438 16.9905 61.2303 16.7742 61.4052 16.6507C61.5733 16.5319 61.7946 16.4531 62.1172 16.4531V14.4531ZM59.0448 16.5757C58.7631 17.2197 58.5866 18.1091 58.4743 19.168C58.3599 20.247 58.3047 21.582 58.3047 23.1641H60.3047C60.3047 21.6211 60.3589 20.3624 60.4632 19.3789C60.5696 18.3753 60.7213 17.7335 60.8771 17.3774L59.0448 16.5757ZM58.3047 23.1641C58.3047 26.0516 58.4866 28.2081 58.9185 29.5037L60.8159 28.8713C60.4977 27.9169 60.3047 26.0578 60.3047 23.1641H58.3047ZM58.9185 29.5037C59.1533 30.208 59.5348 30.821 60.1109 31.2531C60.6915 31.6886 61.3828 31.875 62.1172 31.875V29.875C61.7266 29.875 61.4803 29.7802 61.3109 29.6531C61.1371 29.5227 60.9561 29.292 60.8159 28.8713L58.9185 29.5037ZM62.1172 31.875C62.8351 31.875 63.51 31.6869 64.0793 31.2569C64.6416 30.8322 65.021 30.2319 65.2635 29.5431L63.3771 28.8788C63.229 29.2993 63.0459 29.5311 62.8738 29.661C62.7088 29.7857 62.4774 29.875 62.1172 29.875V31.875ZM65.265 29.5389C65.7169 28.2373 65.9062 26.0668 65.9062 23.1641H63.9062C63.9062 26.0738 63.7049 27.9346 63.3756 28.8829L65.265 29.5389ZM75.2422 11.3281V10.3281H74.2422V11.3281H75.2422ZM81.8516 11.3281H82.8516V10.3281H81.8516V11.3281ZM86.0469 29.7266L85.3655 28.9947L85.359 29.0006L85.3527 29.0067L86.0469 29.7266ZM86.8672 27.9922L87.8591 28.1188L87.8595 28.1162L86.8672 27.9922ZM87.0078 11.3281V10.3281H86.0078V11.3281H87.0078ZM93.6172 11.3281H94.6172V10.3281H93.6172V11.3281ZM93.6172 35V36H94.6172V35H93.6172ZM87.4062 35H86.4062V36H87.4062V35ZM87.4062 31.7656H88.4062V28.0623L86.5422 31.2623L87.4062 31.7656ZM84.5938 34.8359L84.1709 33.9297L84.165 33.9325L84.5938 34.8359ZM75.2422 12.3281H81.8516V10.3281H75.2422V12.3281ZM80.8516 11.3281V26.5156H82.8516V11.3281H80.8516ZM80.8516 26.5156C80.8516 27.3073 80.8876 27.9951 80.9663 28.5678C81.0426 29.1227 81.1686 29.6488 81.3955 30.0648L83.1513 29.1071C83.097 29.0075 83.0121 28.7641 82.9477 28.2955C82.8858 27.8448 82.8516 27.2552 82.8516 26.5156H80.8516ZM81.3955 30.0648C81.9409 31.0645 83.0315 31.3594 84.1016 31.3594V29.3594C83.2966 29.3594 83.1685 29.1386 83.1513 29.1071L81.3955 30.0648ZM84.1016 31.3594C85.1121 31.3594 86.0518 31.111 86.741 30.4464L85.3527 29.0067C85.167 29.1859 84.8098 29.3594 84.1016 29.3594V31.3594ZM86.7283 30.4585C87.3844 29.8476 87.7418 29.0377 87.8591 28.1188L85.8752 27.8656C85.805 28.4154 85.6156 28.7618 85.3655 28.9947L86.7283 30.4585ZM87.8595 28.1162C87.9623 27.2938 88.0078 25.6995 88.0078 23.3984H86.0078C86.0078 25.7223 85.9596 27.1905 85.8749 27.8682L87.8595 28.1162ZM88.0078 23.3984V11.3281H86.0078V23.3984H88.0078ZM87.0078 12.3281H93.6172V10.3281H87.0078V12.3281ZM92.6172 11.3281V35H94.6172V11.3281H92.6172ZM93.6172 34H87.4062V36H93.6172V34ZM88.4062 35V31.7656H86.4062V35H88.4062ZM86.5422 31.2623C85.6357 32.8185 84.827 33.6236 84.1709 33.9298L85.0166 35.7421C86.2355 35.1733 87.3018 33.9315 88.2703 32.269L86.5422 31.2623ZM84.165 33.9325C83.4053 34.293 82.4646 34.4922 81.3125 34.4922V36.4922C82.6917 36.4922 83.9384 36.2538 85.0225 35.7394L84.165 33.9325ZM81.3125 34.4922C79.7282 34.4922 78.6753 34.1625 78.0114 33.6474L76.7854 35.2276C77.9341 36.1188 79.4905 36.4922 81.3125 36.4922V34.4922ZM78.0114 33.6474C77.2768 33.0774 76.8214 32.3782 76.6116 31.5264L74.6697 32.0048C74.9911 33.3093 75.7076 34.3913 76.7854 35.2276L78.0114 33.6474ZM76.6116 31.5264C76.3764 30.5717 76.2422 28.9931 76.2422 26.7266H74.2422C74.2422 29.0225 74.3736 30.8033 74.6697 32.0048L76.6116 31.5264ZM76.2422 26.7266V11.3281H74.2422V26.7266H76.2422ZM99.4766 4.0625L99.4437 3.06304L98.4766 3.09481V4.0625H99.4766ZM105.898 3.85156H106.898V2.81818L105.866 2.8521L105.898 3.85156ZM105.898 11.3281H104.898V12.3281H105.898V11.3281ZM110.258 11.3281H111.258V10.3281H110.258V11.3281ZM110.258 16.5312V17.5312H111.258V16.5312H110.258ZM105.898 16.5312V15.5312H104.898V16.5312H105.898ZM105.992 28.3672L105 28.4952L105.003 28.5134L105.006 28.5316L105.992 28.3672ZM106.695 29.5625L106.052 30.3282L106.069 30.342L106.086 30.3551L106.695 29.5625ZM110.586 29.9844H111.586V28.9418L110.544 28.9852L110.586 29.9844ZM110.586 35L110.804 35.9759L111.586 35.8012V35H110.586ZM99.4766 16.5312H100.477V15.5312H99.4766V16.5312ZM96.8516 16.5312H95.8516V17.5312H96.8516V16.5312ZM96.8516 11.3281V10.3281H95.8516V11.3281H96.8516ZM99.4766 11.3281V12.3281H100.477V11.3281H99.4766ZM99.5094 5.06196L105.931 4.85102L105.866 2.8521L99.4437 3.06304L99.5094 5.06196ZM104.898 3.85156V11.3281H106.898V3.85156H104.898ZM105.898 12.3281H110.258V10.3281H105.898V12.3281ZM109.258 11.3281V16.5312H111.258V11.3281H109.258ZM110.258 15.5312H105.898V17.5312H110.258V15.5312ZM104.898 16.5312V25.2266H106.898V16.5312H104.898ZM104.898 25.2266C104.898 26.8206 104.928 27.935 105 28.4952L106.984 28.2392C106.931 27.8306 106.898 26.8512 106.898 25.2266H104.898ZM105.006 28.5316C105.126 29.2533 105.494 29.8591 106.052 30.3282L107.339 28.7968C107.116 28.6097 107.015 28.4186 106.979 28.2028L105.006 28.5316ZM106.086 30.3551C106.761 30.8748 107.713 31.0312 108.711 31.0312V29.0312C107.834 29.0312 107.442 28.8752 107.305 28.7699L106.086 30.3551ZM108.711 31.0312C109.23 31.0312 109.87 31.0151 110.628 30.9835L110.544 28.9852C109.802 29.0162 109.192 29.0312 108.711 29.0312V31.0312ZM109.586 29.9844V35H111.586V29.9844H109.586ZM110.368 34.0241C108.955 34.3398 107.685 34.4922 106.555 34.4922V36.4922C107.862 36.4922 109.28 36.3165 110.804 35.9759L110.368 34.0241ZM106.555 34.4922C104.661 34.4922 103.369 34.1261 102.546 33.5324L101.376 35.1551C102.677 36.0927 104.449 36.4922 106.555 36.4922V34.4922ZM102.546 33.5324C101.653 32.8894 101.123 32.1193 100.89 31.2122L98.9533 31.7096C99.3141 33.1151 100.144 34.2668 101.376 35.1551L102.546 33.5324ZM100.89 31.2122C100.627 30.1854 100.477 28.4561 100.477 25.9531H98.4766C98.4766 28.4814 98.6232 30.424 98.9533 31.7096L100.89 31.2122ZM100.477 25.9531V16.5312H98.4766V25.9531H100.477ZM99.4766 15.5312H96.8516V17.5312H99.4766V15.5312ZM97.8516 16.5312V11.3281H95.8516V16.5312H97.8516ZM96.8516 12.3281H99.4766V10.3281H96.8516V12.3281ZM100.477 11.3281V4.0625H98.4766V11.3281H100.477ZM122.75 3.00781V2.00781H121.75V3.00781H122.75ZM133.062 3.00781L134.037 2.78464L133.859 2.00781H133.062V3.00781ZM137.586 22.7656L136.611 22.9888L138.554 23.0149L137.586 22.7656ZM142.672 3.00781V2.00781H141.897L141.703 2.75853L142.672 3.00781ZM152.68 3.00781H153.68V2.00781H152.68V3.00781ZM152.68 35V36H153.68V35H152.68ZM146.094 35H145.094V36H146.094V35ZM146.094 8.21094H147.094L145.122 7.97381L146.094 8.21094ZM139.555 35V36H140.34L140.526 35.2371L139.555 35ZM134.445 35L133.469 35.2177L133.644 36H134.445V35ZM128.469 8.21094L129.445 7.99319L127.469 8.21094H128.469ZM128.469 35V36H129.469V35H128.469ZM122.75 35H121.75V36H122.75V35ZM122.75 4.00781H133.062V2.00781H122.75V4.00781ZM132.088 3.23098L136.611 22.9888L138.561 22.5425L134.037 2.78464L132.088 3.23098ZM138.554 23.0149L143.64 3.2571L141.703 2.75853L136.618 22.5163L138.554 23.0149ZM142.672 4.00781H152.68V2.00781H142.672V4.00781ZM151.68 3.00781V35H153.68V3.00781H151.68ZM152.68 34H146.094V36H152.68V34ZM147.094 35V8.21094H145.094V35H147.094ZM145.122 7.97381L138.583 34.7629L140.526 35.2371L147.065 8.44807L145.122 7.97381ZM139.555 34H134.445V36H139.555V34ZM135.421 34.7823L129.445 7.99319L127.493 8.42868L133.469 35.2177L135.421 34.7823ZM127.469 8.21094V35H129.469V8.21094H127.469ZM128.469 34H122.75V36H128.469V34ZM123.75 35V3.00781H121.75V35H123.75ZM155.07 11.3281V10.3281H153.734L154.111 11.6099L155.07 11.3281ZM161.68 11.3281L162.656 11.1129L162.483 10.3281H161.68V11.3281ZM164.867 25.7891L163.891 26.0043L165.845 25.9968L164.867 25.7891ZM167.938 11.3281V10.3281H167.128L166.959 11.1204L167.938 11.3281ZM173.633 11.3281L174.592 11.6122L174.972 10.3281H173.633V11.3281ZM166.508 35.375L167.466 35.6618L167.467 35.6591L166.508 35.375ZM162.57 42.4766L162.048 41.6239L162.038 41.6301L162.57 42.4766ZM156.055 43.0156H155.055V43.7872L155.801 43.9829L156.055 43.0156ZM156.055 37.8125L156.196 36.8226L155.055 36.6595V37.8125H156.055ZM160.531 37.3203L159.874 36.5662L159.868 36.5716L159.862 36.577L160.531 37.3203ZM161.891 34.5547L162.849 34.8391L162.933 34.5562L162.85 34.2729L161.891 34.5547ZM155.07 12.3281H161.68V10.3281H155.07V12.3281ZM160.703 11.5434L163.891 26.0043L165.844 25.5738L162.656 11.1129L160.703 11.5434ZM165.845 25.9968L168.916 11.5358L166.959 11.1204L163.889 25.5814L165.845 25.9968ZM167.938 12.3281H173.633V10.3281H167.938V12.3281ZM172.674 11.044L165.549 35.0909L167.467 35.6591L174.592 11.6122L172.674 11.044ZM165.55 35.0883C164.863 37.382 164.3 38.9094 163.865 39.738L165.635 40.6683C166.169 39.6531 166.777 37.9617 167.466 35.6617L165.55 35.0883ZM163.865 39.738C163.472 40.486 162.877 41.1155 162.048 41.624L163.093 43.3292C164.201 42.6501 165.06 41.764 165.635 40.6683L163.865 39.738ZM162.038 41.6301C161.271 42.1125 160.236 42.3906 158.867 42.3906V44.3906C160.498 44.3906 161.932 44.0594 163.103 43.323L162.038 41.6301ZM158.867 42.3906C158.037 42.3906 157.184 42.2781 156.308 42.0483L155.801 43.9829C156.831 44.2531 157.854 44.3906 158.867 44.3906V42.3906ZM157.055 43.0156V37.8125H155.055V43.0156H157.055ZM155.913 38.8024C156.61 38.9019 157.275 38.9531 157.906 38.9531V36.9531C157.382 36.9531 156.812 36.9106 156.196 36.8226L155.913 38.8024ZM157.906 38.9531C159.218 38.9531 160.434 38.7535 161.2 38.0636L159.862 36.577C159.691 36.7309 159.157 36.9531 157.906 36.9531V38.9531ZM161.188 38.0744C161.573 37.7395 161.878 37.2707 162.132 36.7536C162.391 36.2255 162.629 35.5825 162.849 34.8391L160.932 34.2702C160.731 34.9488 160.53 35.4776 160.337 35.8714C160.138 36.2762 159.974 36.4792 159.874 36.5662L161.188 38.0744ZM162.85 34.2729L156.03 11.0464L154.111 11.6099L160.931 34.8364L162.85 34.2729ZM190.977 17.0234L191.263 17.9817L192.202 17.7014L191.94 16.7569L190.977 17.0234ZM186.266 18.4297L185.306 18.71L185.588 19.6757L186.552 19.3879L186.266 18.4297ZM184.695 20.5156L185.029 19.5728L185.025 19.5716L184.695 20.5156ZM190.812 24.4062L189.95 24.9127L189.954 24.9187L190.812 24.4062ZM173.844 28.4375L173.685 27.4502L172.734 27.6031L172.851 28.5595L173.844 28.4375ZM179.094 27.5938L180.077 27.4114L179.899 26.4515L178.935 26.6064L179.094 27.5938ZM181.672 25.8359L181.366 26.7879L181.371 26.7895L181.672 25.8359ZM176.938 12.8984L176.288 12.1381L176.284 12.1413L176.938 12.8984ZM190.691 16.0652L185.98 17.4715L186.552 19.3879L191.263 17.9817L190.691 16.0652ZM187.226 18.1494C186.882 16.9738 186.364 15.9866 185.609 15.2876C184.832 14.5685 183.873 14.2188 182.797 14.2188V16.2188C183.408 16.2188 183.871 16.4041 184.25 16.7553C184.652 17.1267 185.024 17.7449 185.306 18.71L187.226 18.1494ZM182.797 14.2188C181.955 14.2188 181.14 14.4298 180.543 15.0273C179.945 15.6247 179.734 16.4396 179.734 17.2812H181.734C181.734 16.7479 181.867 16.5316 181.957 16.4415C182.047 16.3514 182.264 16.2188 182.797 16.2188V14.2188ZM179.734 17.2812C179.734 18.3038 180.086 19.2152 180.889 19.848L182.127 18.277C181.899 18.0973 181.734 17.8212 181.734 17.2812H179.734ZM180.889 19.848C181.553 20.3709 182.767 20.9009 184.365 21.4596L185.025 19.5716C183.405 19.0053 182.494 18.5666 182.127 18.277L180.889 19.848ZM184.362 21.4585C186.161 22.0944 187.419 22.6327 188.182 23.0704L189.178 21.3359C188.252 20.8048 186.854 20.2181 185.029 19.5728L184.362 21.4585ZM188.182 23.0704C188.85 23.4542 189.445 24.052 189.95 24.9127L191.675 23.8998C191.024 22.7917 190.196 21.9208 189.178 21.3359L188.182 23.0704ZM189.954 24.9187C190.429 25.7142 190.68 26.6501 190.68 27.7578H192.68C192.68 26.3343 192.353 25.0358 191.671 23.8938L189.954 24.9187ZM190.68 27.7578C190.68 29.6725 190.002 31.2439 188.627 32.5372L189.998 33.994C191.779 32.3186 192.68 30.2181 192.68 27.7578H190.68ZM188.627 32.5372C187.286 33.799 185.357 34.4922 182.703 34.4922V36.4922C185.706 36.4922 188.183 35.701 189.998 33.994L188.627 32.5372ZM182.703 34.4922C180.174 34.4922 178.354 33.9331 177.115 32.9462C175.893 31.9728 175.102 30.4768 174.836 28.3155L172.851 28.5595C173.164 31.1013 174.139 33.1327 175.869 34.5108C177.583 35.8755 179.904 36.4922 182.703 36.4922V34.4922ZM174.002 29.4248L179.252 28.5811L178.935 26.6064L173.685 27.4502L174.002 29.4248ZM178.111 27.7761C178.353 29.0824 178.84 30.1901 179.665 30.9732C180.507 31.7729 181.594 32.1328 182.82 32.1328V30.1328C182 30.1328 181.442 29.9028 181.042 29.5229C180.624 29.1263 180.272 28.4644 180.077 27.4114L178.111 27.7761ZM182.82 32.1328C183.811 32.1328 184.74 31.9286 185.432 31.348C186.157 30.7392 186.445 29.8687 186.445 28.9297H184.445C184.445 29.4595 184.296 29.6905 184.146 29.8161C183.963 29.9698 183.58 30.1328 182.82 30.1328V32.1328ZM186.445 28.9297C186.445 27.9071 186.094 26.9957 185.291 26.3629L184.053 27.9339C184.281 28.1136 184.445 28.3898 184.445 28.9297H186.445ZM185.291 26.3629C184.617 25.8324 183.457 25.3511 181.973 24.8824L181.371 26.7895C182.855 27.2583 183.695 27.652 184.053 27.9339L185.291 26.3629ZM181.978 24.884C179.317 24.0276 177.674 23.0468 176.843 22.0365L175.298 23.3072C176.498 24.7657 178.589 25.8943 181.366 26.7879L181.978 24.884ZM176.843 22.0365C175.977 20.9843 175.547 19.7802 175.547 18.3828H173.547C173.547 20.2354 174.133 21.8907 175.298 23.3072L176.843 22.0365ZM175.547 18.3828C175.547 16.3648 176.237 14.8234 177.591 13.6556L176.284 12.1413C174.45 13.7235 173.547 15.8383 173.547 18.3828H175.547ZM177.587 13.6587C178.991 12.4595 180.758 11.8359 182.961 11.8359V9.83594C180.351 9.83594 178.103 10.5873 176.288 12.1381L177.587 13.6587ZM182.961 11.8359C184.897 11.8359 186.384 12.3086 187.506 13.1744C188.63 14.0416 189.484 15.3796 190.013 17.29L191.94 16.7569C191.328 14.5423 190.277 12.7865 188.728 11.5912C187.178 10.3946 185.228 9.83594 182.961 9.83594V11.8359ZM213.219 24.2656V25.2656H214.219V24.2656H213.219ZM200.797 24.2656V23.2656H199.797V24.2656H200.797ZM207.336 26.8672L207.4 25.8692L206.43 25.8074L206.34 26.7751L207.336 26.8672ZM213.219 27.2422L214.201 27.4292L214.413 26.3163L213.282 26.2442L213.219 27.2422ZM196.625 14.1172L195.852 13.483L195.851 13.4836L196.625 14.1172ZM210.5 13.7422L209.77 14.4252L209.775 14.4312L210.5 13.7422ZM206.984 20.4453V21.4453H207.93L207.983 20.5008L206.984 20.4453ZM200.844 20.4453L199.844 20.4408L199.839 21.4453H200.844V20.4453ZM213.219 23.2656H200.797V25.2656H213.219V23.2656ZM199.797 24.2656V25.5781H201.797V24.2656H199.797ZM199.797 25.5781C199.797 26.6797 199.871 27.6384 200.034 28.4375C200.194 29.2242 200.454 29.9353 200.885 30.4705L202.443 29.217C202.296 29.0334 202.123 28.6743 201.994 28.0391C201.867 27.4162 201.797 26.6015 201.797 25.5781H199.797ZM200.885 30.4705C201.656 31.4297 202.703 31.9219 203.938 31.9219V29.9219C203.297 29.9219 202.828 29.6953 202.443 29.217L200.885 30.4705ZM203.938 31.9219C205.194 31.9219 206.28 31.487 207.065 30.5506C207.815 29.6556 208.197 28.4115 208.332 26.9593L206.34 26.7751C206.224 28.026 205.915 28.8092 205.532 29.2658C205.184 29.681 204.697 29.9219 203.938 29.9219V31.9219ZM207.272 27.8652L213.155 28.2402L213.282 26.2442L207.4 25.8692L207.272 27.8652ZM212.236 27.0552C211.74 29.6611 210.774 31.4935 209.424 32.6782C208.083 33.8556 206.25 34.4922 203.82 34.4922V36.4922C206.609 36.4922 208.952 35.7537 210.744 34.1812C212.527 32.6159 213.65 30.3233 214.201 27.4292L212.236 27.0552ZM203.82 34.4922C200.851 34.4922 198.725 33.5058 197.277 31.6244L195.692 32.8444C197.587 35.3067 200.352 36.4922 203.82 36.4922V34.4922ZM197.277 31.6244C195.778 29.6771 194.977 27.0078 194.977 23.5156H192.977C192.977 27.3047 193.847 30.4479 195.692 32.8444L197.277 31.6244ZM194.977 23.5156C194.977 19.5312 195.835 16.6606 197.399 14.7507L195.851 13.4836C193.884 15.8863 192.977 19.2813 192.977 23.5156H194.977ZM197.398 14.7513C198.976 12.8272 201.067 11.8594 203.773 11.8594V9.85938C200.511 9.85938 197.836 11.0635 195.852 13.483L197.398 14.7513ZM203.773 11.8594C206.191 11.8594 208.166 12.7104 209.77 14.4251L211.23 13.0592C209.24 10.9302 206.731 9.85938 203.773 9.85938V11.8594ZM209.775 14.4312C211.306 16.0406 212.219 19.2014 212.219 24.2656H214.219C214.219 19.1111 213.319 15.2563 211.225 13.0531L209.775 14.4312ZM207.983 20.5008C207.999 20.2132 208.008 19.9729 208.008 19.7891H206.008C206.008 19.9177 206.001 20.115 205.986 20.3898L207.983 20.5008ZM208.008 19.7891C208.008 18.1841 207.742 16.8044 207.062 15.8008C206.336 14.7275 205.23 14.2188 203.914 14.2188V16.2188C204.66 16.2188 205.102 16.4718 205.406 16.9219C205.758 17.4417 206.008 18.3471 206.008 19.7891H208.008ZM203.914 14.2188C202.546 14.2188 201.453 14.8401 200.761 16.0189C200.116 17.1161 199.852 18.6339 199.844 20.4408L201.844 20.4498C201.851 18.7723 202.106 17.6769 202.485 17.0319C202.816 16.4685 203.251 16.2188 203.914 16.2188V14.2188ZM200.844 21.4453H206.984V19.4453H200.844V21.4453ZM217.062 3.00781V2.00781H216.062V3.00781H217.062ZM223.672 3.00781H224.672V2.00781H223.672V3.00781ZM223.672 35V36H224.672V35H223.672ZM217.062 35H216.062V36H217.062V35ZM217.062 4.00781H223.672V2.00781H217.062V4.00781ZM222.672 3.00781V35H224.672V3.00781H222.672ZM223.672 34H217.062V36H223.672V34ZM218.062 35V3.00781H216.062V35H218.062ZM235.977 11.3281H234.977V12.3281H235.977V11.3281ZM240.148 11.3281H241.148V10.3281H240.148V11.3281ZM240.148 16.5312V17.5312H241.148V16.5312H240.148ZM235.977 16.5312V15.5312H234.977V16.5312H235.977ZM235.977 35V36H236.977V35H235.977ZM229.648 35H228.648V36H229.648V35ZM229.648 16.5312H230.648V15.5312H229.648V16.5312ZM226.953 16.5312H225.953V17.5312H226.953V16.5312ZM226.953 11.3281V10.3281H225.953V11.3281H226.953ZM229.648 11.3281V12.3281H230.642L230.648 11.3348L229.648 11.3281ZM240.406 1.97656H241.406V1.11287L240.552 0.987203L240.406 1.97656ZM240.406 7.13281L240.289 8.12596L241.406 8.25736V7.13281H240.406ZM236.492 7.85938L235.656 7.31018L235.653 7.31612L236.492 7.85938ZM235.977 12.3281H240.148V10.3281H235.977V12.3281ZM239.148 11.3281V16.5312H241.148V11.3281H239.148ZM240.148 15.5312H235.977V17.5312H240.148V15.5312ZM234.977 16.5312V35H236.977V16.5312H234.977ZM235.977 34H229.648V36H235.977V34ZM230.648 35V16.5312H228.648V35H230.648ZM229.648 15.5312H226.953V17.5312H229.648V15.5312ZM227.953 16.5312V11.3281H225.953V16.5312H227.953ZM226.953 12.3281H229.648V10.3281H226.953V12.3281ZM230.648 11.3348C230.664 9.03066 230.844 7.40351 231.146 6.38653L229.229 5.81659C228.844 7.11211 228.664 8.96934 228.648 11.3214L230.648 11.3348ZM231.146 6.38653C231.419 5.46888 232.016 4.62003 233.023 3.84812L231.805 2.26126C230.53 3.23934 229.644 4.42175 229.229 5.81659L231.146 6.38653ZM233.023 3.84812C233.934 3.14884 235.249 2.74219 237.078 2.74219V0.742188C234.969 0.742188 233.175 1.21053 231.805 2.26126L233.023 3.84812ZM237.078 2.74219C238.189 2.74219 239.25 2.81727 240.261 2.96592L240.552 0.987203C239.438 0.823353 238.279 0.742188 237.078 0.742188V2.74219ZM239.406 1.97656V7.13281H241.406V1.97656H239.406ZM240.523 6.13966C239.96 6.07339 239.428 6.03906 238.93 6.03906V8.03906C239.338 8.03906 239.79 8.06724 240.289 8.12596L240.523 6.13966ZM238.93 6.03906C237.624 6.03906 236.319 6.30151 235.656 7.3102L237.328 8.40855C237.384 8.32349 237.704 8.03906 238.93 8.03906V6.03906ZM235.653 7.31612C235.363 7.76438 235.208 8.35834 235.116 8.97797C235.02 9.62295 234.977 10.4109 234.977 11.3281H236.977C236.977 10.4641 237.019 9.7833 237.095 9.27203C237.174 8.73541 237.278 8.48562 237.332 8.40263L235.653 7.31612ZM257.727 18.8516L257.63 19.8469L258.651 19.9463L258.724 18.9224L257.727 18.8516ZM251.469 18.2422L250.476 18.1182L250.349 19.1379L251.372 19.2375L251.469 18.2422ZM254.492 12.7578L253.898 11.9535L253.895 11.9561L254.492 12.7578ZM266.375 12.125L265.836 12.9675L265.843 12.9719L266.375 12.125ZM268.906 15.0781L267.95 15.3704L267.954 15.3824L268.906 15.0781ZM269.844 35V36H271.422L270.748 34.573L269.844 35ZM263.727 35L262.78 35.3231L263.011 36H263.727V35ZM263.398 31.3672H264.398L262.514 30.9L263.398 31.3672ZM252.406 33.8516L251.714 34.5732L251.719 34.578L252.406 33.8516ZM253.297 22.9062L253.932 23.679L253.936 23.6756L253.297 22.9062ZM262.859 20.3047L262.92 21.3028L263.859 21.2457V20.3047H262.859ZM262.367 16.1328L261.477 16.5891L261.482 16.5981L261.487 16.6069L262.367 16.1328ZM262.859 23.6797H263.859V22.5594L262.746 22.6861L262.859 23.6797ZM258.734 24.9688L259.344 25.7614L259.346 25.7597L258.734 24.9688ZM261.875 29.8203L261.065 29.2338L261.063 29.2364L261.875 29.8203ZM257.823 17.8563L251.566 17.2469L251.372 19.2375L257.63 19.8469L257.823 17.8563ZM252.461 18.3662C252.728 16.2268 253.616 14.6583 255.09 13.5596L253.895 11.9561C251.931 13.4198 250.803 15.5076 250.476 18.1182L252.461 18.3662ZM255.086 13.5621C256.614 12.4336 258.573 11.8359 261.031 11.8359V9.83594C258.24 9.83594 255.839 10.5196 253.898 11.9535L255.086 13.5621ZM261.031 11.8359C263.131 11.8359 264.705 12.2438 265.836 12.9674L266.914 11.2826C265.358 10.2875 263.369 9.83594 261.031 9.83594V11.8359ZM265.843 12.9719C267.055 13.7327 267.698 14.5449 267.95 15.3703L269.863 14.7859C269.427 13.3614 268.383 12.2048 266.907 11.2781L265.843 12.9719ZM267.954 15.3824C268.264 16.3535 268.445 17.9671 268.445 20.3047H270.445C270.445 17.9236 270.267 16.0527 269.859 14.7738L267.954 15.3824ZM268.445 20.3047V29.75H270.445V20.3047H268.445ZM268.445 29.75C268.445 31.2297 268.479 32.43 268.548 33.3413C268.582 33.7965 268.627 34.1939 268.684 34.5253C268.738 34.8395 268.814 35.1617 268.94 35.427L270.748 34.573C270.748 34.5734 270.735 34.5449 270.716 34.4723C270.697 34.4027 270.676 34.3085 270.655 34.1857C270.612 33.939 270.574 33.6097 270.542 33.1899C270.478 32.3512 270.445 31.2078 270.445 29.75H268.445ZM269.844 34H263.727V36H269.844V34ZM264.673 34.6769C264.515 34.2141 264.398 33.1616 264.398 31.3672H262.398C262.398 33.1353 262.501 34.5047 262.78 35.3231L264.673 34.6769ZM262.514 30.9C261.852 32.1539 261.056 33.0406 260.149 33.6169C259.246 34.1905 258.178 34.4922 256.906 34.4922V36.4922C258.51 36.4922 259.961 36.1064 261.222 35.305C262.479 34.5063 263.492 33.3305 264.283 31.8344L262.514 30.9ZM256.906 34.4922C255.275 34.4922 254.035 34.0154 253.093 33.1251L251.719 34.578C253.09 35.8752 254.85 36.4922 256.906 36.4922V34.4922ZM253.099 33.13C252.196 32.2636 251.672 30.9504 251.672 29.0234H249.672C249.672 31.3152 250.304 33.2208 251.714 34.5731L253.099 33.13ZM251.672 29.0234C251.672 26.6266 252.453 24.8939 253.932 23.679L252.662 22.1335C250.641 23.7936 249.672 26.139 249.672 29.0234H251.672ZM253.936 23.6756C255.423 22.4408 258.325 21.5823 262.92 21.3028L262.799 19.3065C258.143 19.5896 254.671 20.4655 252.658 22.1369L253.936 23.6756ZM263.859 20.3047V19.4141H261.859V20.3047H263.859ZM263.859 19.4141C263.859 17.8313 263.706 16.5093 263.248 15.6587L261.487 16.6069C261.685 16.9751 261.859 17.8406 261.859 19.4141H263.859ZM263.257 15.6765C262.714 14.6177 261.662 14.2188 260.516 14.2188V16.2188C261.213 16.2188 261.395 16.4292 261.477 16.5891L263.257 15.6765ZM260.516 14.2188C259.399 14.2188 258.435 14.6376 257.76 15.518C257.124 16.3458 256.821 17.48 256.729 18.7808L258.724 18.9224C258.804 17.8012 259.052 17.119 259.346 16.7359C259.6 16.4053 259.945 16.2188 260.516 16.2188V14.2188ZM262.746 22.6861C260.774 22.9106 259.173 23.3655 258.123 24.1778L259.346 25.7597C259.952 25.2907 261.101 24.8863 262.972 24.6733L262.746 22.6861ZM258.125 24.1761C256.968 25.0661 256.516 26.4957 256.516 28.1562H258.516C258.516 26.8168 258.876 26.1214 259.344 25.7614L258.125 24.1761ZM256.516 28.1562C256.516 29.2492 256.711 30.2501 257.26 30.9982C257.852 31.8038 258.732 32.1562 259.719 32.1562V30.1562C259.236 30.1562 259.015 30.0087 258.872 29.8143C258.687 29.5624 258.516 29.0633 258.516 28.1562H256.516ZM259.719 32.1562C260.949 32.1562 261.935 31.4498 262.687 30.4042L261.063 29.2364C260.534 29.9721 260.082 30.1562 259.719 30.1562V32.1562ZM262.685 30.4068C263.544 29.2208 263.859 27.2738 263.859 24.8516H261.859C261.859 27.2419 261.519 28.6073 261.065 29.2338L262.685 30.4068ZM263.859 24.8516V23.6797H261.859V24.8516H263.859ZM274.32 11.3281V10.3281H273.32V11.3281H274.32ZM280.578 11.3281H281.578V10.3281H280.578V11.3281ZM280.578 14.5625H279.578L281.492 14.9676L280.578 14.5625ZM290.328 11.9141L289.753 12.7321L289.76 12.7372L289.768 12.7422L290.328 11.9141ZM292.695 35V36H293.695V35H292.695ZM286.086 35H285.086V36H286.086V35ZM281.492 17.0703L282.379 17.5329L282.383 17.5251L281.492 17.0703ZM280.93 35V36H281.93V35H280.93ZM274.32 35H273.32V36H274.32V35ZM274.32 12.3281H280.578V10.3281H274.32V12.3281ZM279.578 11.3281V14.5625H281.578V11.3281H279.578ZM281.492 14.9676C281.971 13.8862 282.618 13.1285 283.411 12.6333C284.207 12.1357 285.223 11.8594 286.508 11.8594V9.85938C284.933 9.85938 283.531 10.2002 282.351 10.937C281.168 11.6761 280.279 12.77 279.664 14.1574L281.492 14.9676ZM286.508 11.8594C287.904 11.8594 288.961 12.1754 289.753 12.7321L290.903 11.096C289.695 10.2464 288.206 9.85938 286.508 9.85938V11.8594ZM289.768 12.7422C290.604 13.3083 291.092 13.996 291.306 14.8149L293.241 14.3101C292.892 12.9727 292.084 11.8948 290.889 11.086L289.768 12.7422ZM291.306 14.8149C291.554 15.7649 291.695 17.3006 291.695 19.4844H293.695C293.695 17.2619 293.556 15.5164 293.241 14.3101L291.306 14.8149ZM291.695 19.4844V35H293.695V19.4844H291.695ZM292.695 34H286.086V36H292.695V34ZM287.086 35V19.4844H285.086V35H287.086ZM287.086 19.4844C287.086 18.6541 287.034 17.9343 286.913 17.3487C286.799 16.7977 286.593 16.2011 286.155 15.7964L284.798 17.2661C284.766 17.2364 284.865 17.3195 284.954 17.7529C285.037 18.1517 285.086 18.7209 285.086 19.4844H287.086ZM286.155 15.7964C285.522 15.212 284.711 14.9688 283.836 14.9688V16.9688C284.336 16.9688 284.619 17.1005 284.798 17.2661L286.155 15.7964ZM283.836 14.9688C282.46 14.9688 281.218 15.4075 280.602 16.6155L282.383 17.5251C282.516 17.2644 282.837 16.9688 283.836 16.9688V14.9688ZM280.606 16.6077C280.341 17.1149 280.18 17.7629 280.08 18.4856C279.978 19.2223 279.93 20.1055 279.93 21.125H281.93C281.93 20.1601 281.976 19.3754 282.061 18.7605C282.148 18.1316 282.268 17.7445 282.379 17.5329L280.606 16.6077ZM279.93 21.125V35H281.93V21.125H279.93ZM280.93 34H274.32V36H280.93V34ZM275.32 35V11.3281H273.32V35H275.32ZM308.82 3.00781V2.00781H307.82V3.00781H308.82ZM315.312 3.00781H316.312V2.00781H315.312V3.00781ZM315.312 35V36H316.312V35H315.312ZM309.195 35H308.195V36H309.195V35ZM309.195 31.0859H310.195L308.253 30.7526L309.195 31.0859ZM298.367 14.0469L297.551 13.4692L297.548 13.4734L298.367 14.0469ZM308.82 13.5312L307.946 14.0169L309.82 17.3904V13.5312H308.82ZM308.07 16.5781L307.216 17.0975L307.222 17.1074L307.228 17.1172L308.07 16.5781ZM303.664 17.0234L302.727 16.6752L302.722 16.6871L303.664 17.0234ZM307.977 29.7266L307.196 29.1019L307.194 29.104L307.977 29.7266ZM308.82 4.00781H315.312V2.00781H308.82V4.00781ZM314.312 3.00781V35H316.312V3.00781H314.312ZM315.312 34H309.195V36H315.312V34ZM310.195 35V31.0859H308.195V35H310.195ZM308.253 30.7526C307.796 32.0427 307.189 32.9231 306.479 33.4817C305.78 34.0316 304.909 34.3281 303.805 34.3281V36.3281C305.294 36.3281 306.618 35.9176 307.716 35.0534C308.803 34.198 309.594 32.9573 310.138 31.4193L308.253 30.7526ZM303.805 34.3281C301.619 34.3281 300.053 33.4133 298.981 31.5092L297.238 32.4908C298.665 35.0242 300.897 36.3281 303.805 36.3281V34.3281ZM298.981 31.5092C297.843 29.4899 297.234 26.763 297.234 23.2578H295.234C295.234 26.9714 295.876 30.0726 297.238 32.4908L298.981 31.5092ZM297.234 23.2578C297.234 19.2315 297.937 16.4055 299.186 14.6203L297.548 13.4734C295.954 15.7508 295.234 19.0654 295.234 23.2578H297.234ZM299.183 14.6245C300.443 12.8453 302.059 12 304.109 12V10C301.379 10 299.167 11.1859 297.551 13.4692L299.183 14.6245ZM304.109 12C306.011 12 307.213 12.6976 307.946 14.0169L309.694 13.0456C308.552 10.9899 306.614 10 304.109 10V12ZM309.82 13.5312V3.00781H307.82V13.5312H309.82ZM309.82 21.2422C309.82 20.0476 309.757 19.0196 309.62 18.1713C309.486 17.3401 309.271 16.5988 308.913 16.0391L307.228 17.1172C307.37 17.3387 307.529 17.7654 307.645 18.4888C307.759 19.1953 307.82 20.1087 307.82 21.2422H309.82ZM308.925 16.0587C308.258 14.9615 307.222 14.3828 305.938 14.3828V16.3828C306.528 16.3828 306.914 16.601 307.216 17.0975L308.925 16.0587ZM305.938 14.3828C305.213 14.3828 304.531 14.564 303.952 14.9821C303.377 15.3973 302.982 15.9889 302.727 16.6753L304.601 17.3716C304.753 16.9642 304.94 16.7355 305.122 16.6039C305.301 16.4751 305.553 16.3828 305.938 16.3828V14.3828ZM302.722 16.6871C302.482 17.3591 302.328 18.3039 302.228 19.4571C302.127 20.6289 302.078 22.0858 302.078 23.8203H304.078C304.078 22.1173 304.127 20.7226 304.221 19.6289C304.317 18.5164 304.455 17.7815 304.606 17.3598L302.722 16.6871ZM302.078 23.8203C302.078 26.3879 302.29 28.3667 302.814 29.6015L304.655 28.8204C304.304 27.9927 304.078 26.3778 304.078 23.8203H302.078ZM302.814 29.6015C303.085 30.2416 303.475 30.7938 304.019 31.1836C304.57 31.5789 305.21 31.7578 305.891 31.7578V29.7578C305.571 29.7578 305.352 29.6789 305.184 29.5586C305.009 29.4328 304.821 29.2115 304.655 28.8204L302.814 29.6015ZM305.891 31.7578C307.053 31.7578 308.032 31.2637 308.759 30.3491L307.194 29.104C306.828 29.5644 306.415 29.7578 305.891 29.7578V31.7578ZM308.757 30.3513C309.183 29.8194 309.436 29.1058 309.591 28.32C309.748 27.5192 309.82 26.5527 309.82 25.4375H307.82C307.82 26.4785 307.752 27.305 307.628 27.9339C307.502 28.5778 307.333 28.9306 307.196 29.1019L308.757 30.3513ZM309.82 25.4375V21.2422H307.82V25.4375H309.82ZM326.281 11.3281V10.3281H324.999L325.311 11.572L326.281 11.3281ZM332.703 11.3281L333.685 11.1379L333.528 10.3281H332.703V11.3281ZM335.492 25.7188L334.51 25.909L336.476 25.8997L335.492 25.7188ZM338.141 11.3281V10.3281H337.308L337.157 11.1471L338.141 11.3281ZM344.562 11.3281L345.551 11.1799L345.424 10.3281H344.562V11.3281ZM346.719 25.7188L345.73 25.8669L347.695 25.935L346.719 25.7188ZM349.906 11.3281V10.3281H349.104L348.93 11.1119L349.906 11.3281ZM355.086 11.3281L356.056 11.5711L356.367 10.3281H355.086V11.3281ZM349.156 35V36H349.937L350.126 35.243L349.156 35ZM343.625 35L342.642 35.1859L342.796 36H343.625V35ZM340.578 18.8984L341.561 18.7125L339.595 18.7167L340.578 18.8984ZM337.602 35V36H338.434L338.585 35.1818L337.602 35ZM332.234 35L331.265 35.2439L331.455 36H332.234V35ZM326.281 12.3281H332.703V10.3281H326.281V12.3281ZM331.721 11.5184L334.51 25.909L336.474 25.5285L333.685 11.1379L331.721 11.5184ZM336.476 25.8997L339.124 11.5091L337.157 11.1471L334.509 25.5378L336.476 25.8997ZM338.141 12.3281H344.562V10.3281H338.141V12.3281ZM343.574 11.4763L345.73 25.8669L347.708 25.5706L345.551 11.1799L343.574 11.4763ZM347.695 25.935L350.883 11.5444L348.93 11.1119L345.742 25.5025L347.695 25.935ZM349.906 12.3281H355.086V10.3281H349.906V12.3281ZM354.116 11.0851L348.186 34.757L350.126 35.243L356.056 11.5711L354.116 11.0851ZM349.156 34H343.625V36H349.156V34ZM344.608 34.8141L341.561 18.7125L339.596 19.0844L342.642 35.1859L344.608 34.8141ZM339.595 18.7167L336.618 34.8182L338.585 35.1818L341.561 19.0802L339.595 18.7167ZM337.602 34H332.234V36H337.602V34ZM333.204 34.7561L327.251 11.0842L325.311 11.572L331.265 35.2439L333.204 34.7561ZM356.914 3.00781V2.00781H355.914V3.00781H356.914ZM363.523 3.00781H364.523V2.00781H363.523V3.00781ZM363.523 13.8359H362.523V17.4789L364.383 14.3465L363.523 13.8359ZM373.133 11.9609L372.502 12.7367L372.508 12.7418L373.133 11.9609ZM374.914 14.8203L373.937 15.0316L373.937 15.0344L374.914 14.8203ZM375.289 35V36H376.289V35H375.289ZM368.68 35H367.68V36H368.68V35ZM368.234 16.7422L367.356 17.221L367.365 17.237L367.375 17.2527L368.234 16.7422ZM363.523 35V36H364.523V35H363.523ZM356.914 35H355.914V36H356.914V35ZM356.914 4.00781H363.523V2.00781H356.914V4.00781ZM362.523 3.00781V13.8359H364.523V3.00781H362.523ZM364.383 14.3465C365.36 12.7021 366.936 11.8359 369.336 11.8359V9.83594C366.361 9.83594 364.062 10.9698 362.664 13.3254L364.383 14.3465ZM369.336 11.8359C370.797 11.8359 371.812 12.1758 372.502 12.7366L373.764 11.1852C372.609 10.246 371.094 9.83594 369.336 9.83594V11.8359ZM372.508 12.7418C373.269 13.3505 373.736 14.1038 373.937 15.0316L375.891 14.609C375.592 13.2244 374.872 12.0714 373.758 11.1801L372.508 12.7418ZM373.937 15.0344C374.164 16.0682 374.289 17.6462 374.289 19.8125H376.289C376.289 17.6038 376.164 15.8537 375.891 14.6062L373.937 15.0344ZM374.289 19.8125V35H376.289V19.8125H374.289ZM375.289 34H368.68V36H375.289V34ZM369.68 35V19.8125H367.68V35H369.68ZM369.68 19.8125C369.68 19.0121 369.642 18.3176 369.558 17.7412C369.477 17.185 369.343 16.6501 369.094 16.2316L367.375 17.2527C367.423 17.3343 367.511 17.5611 367.579 18.0283C367.644 18.4754 367.68 19.066 367.68 19.8125H369.68ZM369.112 16.2633C368.572 15.2735 367.51 14.9688 366.453 14.9688V16.9688C367.209 16.9688 367.334 17.1796 367.356 17.221L369.112 16.2633ZM366.453 14.9688C365.375 14.9688 364.403 15.2664 363.647 15.9564L364.994 17.4343C365.3 17.1555 365.75 16.9688 366.453 16.9688V14.9688ZM363.647 15.9564C363.171 16.3902 362.905 17.0084 362.751 17.6503C362.592 18.3065 362.523 19.0978 362.523 20H364.523C364.523 19.1835 364.587 18.5646 364.695 18.1192C364.806 17.6595 364.939 17.4848 364.994 17.4343L363.647 15.9564ZM362.523 20V35H364.523V20H362.523ZM363.523 34H356.914V36H363.523V34ZM357.914 35V3.00781H355.914V35H357.914ZM386.164 18.8516L386.067 19.8469L387.089 19.9463L387.162 18.9224L386.164 18.8516ZM379.906 18.2422L378.914 18.1182L378.787 19.1379L379.809 19.2375L379.906 18.2422ZM382.93 12.7578L382.335 11.9535L382.332 11.9561L382.93 12.7578ZM394.812 12.125L394.274 12.9675L394.281 12.9719L394.812 12.125ZM397.344 15.0781L396.387 15.3704L396.391 15.3824L397.344 15.0781ZM398.281 35V36H399.859L399.185 34.573L398.281 35ZM392.164 35L391.218 35.3231L391.449 36H392.164V35ZM391.836 31.3672H392.836L390.952 30.9L391.836 31.3672ZM380.844 33.8516L380.151 34.5732L380.157 34.578L380.844 33.8516ZM381.734 22.9062L382.369 23.679L382.373 23.6756L381.734 22.9062ZM391.297 20.3047L391.358 21.3028L392.297 21.2457V20.3047H391.297ZM390.805 16.1328L389.915 16.5891L389.919 16.5981L389.924 16.6069L390.805 16.1328ZM391.297 23.6797H392.297V22.5594L391.184 22.6861L391.297 23.6797ZM387.172 24.9688L387.782 25.7614L387.784 25.7597L387.172 24.9688ZM390.312 29.8203L389.503 29.2338L389.501 29.2364L390.312 29.8203ZM386.261 17.8563L380.003 17.2469L379.809 19.2375L386.067 19.8469L386.261 17.8563ZM380.899 18.3662C381.166 16.2268 382.053 14.6583 383.527 13.5596L382.332 11.9561C380.368 13.4198 379.24 15.5076 378.914 18.1182L380.899 18.3662ZM383.524 13.5621C385.052 12.4336 387.01 11.8359 389.469 11.8359V9.83594C386.677 9.83594 384.277 10.5196 382.336 11.9535L383.524 13.5621ZM389.469 11.8359C391.568 11.8359 393.142 12.2438 394.274 12.9674L395.351 11.2826C393.795 10.2875 391.807 9.83594 389.469 9.83594V11.8359ZM394.281 12.9719C395.492 13.7327 396.135 14.5449 396.387 15.3703L398.3 14.7859C397.865 13.3614 396.82 12.2048 395.344 11.2781L394.281 12.9719ZM396.391 15.3824C396.701 16.3535 396.883 17.9671 396.883 20.3047H398.883C398.883 17.9236 398.705 16.0527 398.296 14.7738L396.391 15.3824ZM396.883 20.3047V29.75H398.883V20.3047H396.883ZM396.883 29.75C396.883 31.2297 396.916 32.43 396.985 33.3413C397.02 33.7965 397.064 34.1939 397.121 34.5253C397.176 34.8395 397.252 35.1617 397.377 35.427L399.185 34.573C399.186 34.5734 399.173 34.5449 399.153 34.4723C399.134 34.4027 399.114 34.3085 399.092 34.1857C399.05 33.939 399.011 33.6097 398.98 33.1899C398.916 32.3512 398.883 31.2078 398.883 29.75H396.883ZM398.281 34H392.164V36H398.281V34ZM393.11 34.6769C392.952 34.2141 392.836 33.1616 392.836 31.3672H390.836C390.836 33.1353 390.938 34.5047 391.218 35.3231L393.11 34.6769ZM390.952 30.9C390.289 32.1539 389.494 33.0406 388.587 33.6169C387.684 34.1905 386.615 34.4922 385.344 34.4922V36.4922C386.947 36.4922 388.398 36.1064 389.659 35.305C390.916 34.5063 391.93 33.3305 392.72 31.8344L390.952 30.9ZM385.344 34.4922C383.712 34.4922 382.472 34.0154 381.531 33.1251L380.157 34.578C381.528 35.8752 383.288 36.4922 385.344 36.4922V34.4922ZM381.536 33.13C380.633 32.2636 380.109 30.9504 380.109 29.0234H378.109C378.109 31.3152 378.742 33.2208 380.151 34.5731L381.536 33.13ZM380.109 29.0234C380.109 26.6266 380.89 24.8939 382.369 23.679L381.1 22.1335C379.079 23.7936 378.109 26.139 378.109 29.0234H380.109ZM382.373 23.6756C383.86 22.4408 386.763 21.5823 391.358 21.3028L391.236 19.3065C386.581 19.5896 383.108 20.4655 381.096 22.1369L382.373 23.6756ZM392.297 20.3047V19.4141H390.297V20.3047H392.297ZM392.297 19.4141C392.297 17.8313 392.143 16.5093 391.685 15.6587L389.924 16.6069C390.122 16.9751 390.297 17.8406 390.297 19.4141H392.297ZM391.695 15.6765C391.152 14.6177 390.099 14.2188 388.953 14.2188V16.2188C389.651 16.2188 389.833 16.4292 389.915 16.5891L391.695 15.6765ZM388.953 14.2188C387.836 14.2188 386.873 14.6376 386.197 15.518C385.561 16.3458 385.259 17.48 385.167 18.7808L387.162 18.9224C387.241 17.8012 387.489 17.119 387.783 16.7359C388.037 16.4053 388.383 16.2188 388.953 16.2188V14.2188ZM391.184 22.6861C389.211 22.9106 387.61 23.3655 386.56 24.1778L387.784 25.7597C388.39 25.2907 389.539 24.8863 391.41 24.6733L391.184 22.6861ZM386.562 24.1761C385.405 25.0661 384.953 26.4957 384.953 28.1562H386.953C386.953 26.8168 387.314 26.1214 387.782 25.7614L386.562 24.1761ZM384.953 28.1562C384.953 29.2492 385.149 30.2501 385.698 30.9982C386.29 31.8038 387.17 32.1562 388.156 32.1562V30.1562C387.674 30.1562 387.453 30.0087 387.31 29.8143C387.125 29.5624 386.953 29.0633 386.953 28.1562H384.953ZM388.156 32.1562C389.387 32.1562 390.372 31.4498 391.124 30.4042L389.501 29.2364C388.972 29.9721 388.52 30.1562 388.156 30.1562V32.1562ZM391.122 30.4068C391.981 29.2208 392.297 27.2738 392.297 24.8516H390.297C390.297 27.2419 389.956 28.6073 389.503 29.2338L391.122 30.4068ZM392.297 24.8516V23.6797H390.297V24.8516H392.297ZM403.742 4.0625L403.709 3.06304L402.742 3.09481V4.0625H403.742ZM410.164 3.85156H411.164V2.81818L410.131 2.8521L410.164 3.85156ZM410.164 11.3281H409.164V12.3281H410.164V11.3281ZM414.523 11.3281H415.523V10.3281H414.523V11.3281ZM414.523 16.5312V17.5312H415.523V16.5312H414.523ZM410.164 16.5312V15.5312H409.164V16.5312H410.164ZM410.258 28.3672L409.266 28.4952L409.268 28.5134L409.271 28.5316L410.258 28.3672ZM410.961 29.5625L410.318 30.3282L410.334 30.342L410.351 30.3551L410.961 29.5625ZM414.852 29.9844H415.852V28.9418L414.81 28.9852L414.852 29.9844ZM414.852 35L415.07 35.9759L415.852 35.8012V35H414.852ZM403.742 16.5312H404.742V15.5312H403.742V16.5312ZM401.117 16.5312H400.117V17.5312H401.117V16.5312ZM401.117 11.3281V10.3281H400.117V11.3281H401.117ZM403.742 11.3281V12.3281H404.742V11.3281H403.742ZM403.775 5.06196L410.197 4.85102L410.131 2.8521L403.709 3.06304L403.775 5.06196ZM409.164 3.85156V11.3281H411.164V3.85156H409.164ZM410.164 12.3281H414.523V10.3281H410.164V12.3281ZM413.523 11.3281V16.5312H415.523V11.3281H413.523ZM414.523 15.5312H410.164V17.5312H414.523V15.5312ZM409.164 16.5312V25.2266H411.164V16.5312H409.164ZM409.164 25.2266C409.164 26.8206 409.194 27.935 409.266 28.4952L411.25 28.2392C411.197 27.8306 411.164 26.8512 411.164 25.2266H409.164ZM409.271 28.5316C409.392 29.2533 409.759 29.8591 410.318 30.3282L411.604 28.7968C411.381 28.6097 411.28 28.4186 411.244 28.2028L409.271 28.5316ZM410.351 30.3551C411.027 30.8748 411.979 31.0312 412.977 31.0312V29.0312C412.099 29.0312 411.708 28.8752 411.571 28.7699L410.351 30.3551ZM412.977 31.0312C413.495 31.0312 414.135 31.0151 414.893 30.9835L414.81 28.9852C414.068 29.0162 413.458 29.0312 412.977 29.0312V31.0312ZM413.852 29.9844V35H415.852V29.9844H413.852ZM414.634 34.0241C413.22 34.3398 411.951 34.4922 410.82 34.4922V36.4922C412.127 36.4922 413.545 36.3165 415.07 35.9759L414.634 34.0241ZM410.82 34.4922C408.926 34.4922 407.635 34.1261 406.811 33.5324L405.642 35.1551C406.943 36.0927 408.714 36.4922 410.82 36.4922V34.4922ZM406.811 33.5324C405.919 32.8894 405.389 32.1193 405.156 31.2122L403.219 31.7096C403.58 33.1151 404.409 34.2668 405.642 35.1551L406.811 33.5324ZM405.156 31.2122C404.892 30.1854 404.742 28.4561 404.742 25.9531H402.742C402.742 28.4814 402.889 30.424 403.219 31.7096L405.156 31.2122ZM404.742 25.9531V16.5312H402.742V25.9531H404.742ZM403.742 15.5312H401.117V17.5312H403.742V15.5312ZM402.117 16.5312V11.3281H400.117V16.5312H402.117ZM401.117 12.3281H403.742V10.3281H401.117V12.3281ZM404.742 11.3281V4.0625H402.742V11.3281H404.742ZM427.016 3.00781V2.00781H426.016V3.00781H427.016ZM434.047 3.00781H435.047V2.00781H434.047V3.00781ZM434.047 35V36H435.047V35H434.047ZM427.016 35H426.016V36H427.016V35ZM427.016 4.00781H434.047V2.00781H427.016V4.00781ZM433.047 3.00781V35H435.047V3.00781H433.047ZM434.047 34H427.016V36H434.047V34ZM428.016 35V3.00781H426.016V35H428.016ZM448.461 3.00781V2.00781H447.461V3.00781H448.461ZM455.07 3.00781H456.07V2.00781H455.07V3.00781ZM455.07 20.4688H454.07V23.5407L455.879 21.0574L455.07 20.4688ZM461.727 11.3281V10.3281H461.218L460.918 10.7395L461.727 11.3281ZM467.727 11.3281L468.526 11.9293L469.73 10.3281H467.727V11.3281ZM461.75 19.2734L460.951 18.6723L460.607 19.13L460.827 19.6585L461.75 19.2734ZM468.312 35V36H469.813L469.235 34.6149L468.312 35ZM461.188 35L460.24 35.3193L460.469 36H461.188V35ZM457.484 24.0078L458.432 23.6886L457.813 21.8514L456.675 23.4207L457.484 24.0078ZM455.07 27.3359L454.261 26.7488L454.07 27.0114V27.3359H455.07ZM455.07 35V36H456.07V35H455.07ZM448.461 35H447.461V36H448.461V35ZM448.461 4.00781H455.07V2.00781H448.461V4.00781ZM454.07 3.00781V20.4688H456.07V3.00781H454.07ZM455.879 21.0574L462.535 11.9168L460.918 10.7395L454.262 19.8801L455.879 21.0574ZM461.727 12.3281H467.727V10.3281H461.727V12.3281ZM466.927 10.727L460.951 18.6723L462.549 19.8746L468.526 11.9293L466.927 10.727ZM460.827 19.6585L467.39 35.3851L469.235 34.6149L462.673 18.8883L460.827 19.6585ZM468.312 34H461.188V36H468.312V34ZM462.135 34.6807L458.432 23.6886L456.537 24.3271L460.24 35.3193L462.135 34.6807ZM456.675 23.4207L454.261 26.7488L455.88 27.9231L458.294 24.595L456.675 23.4207ZM454.07 27.3359V35H456.07V27.3359H454.07ZM455.07 34H448.461V36H455.07V34ZM449.461 35V3.00781H447.461V35H449.461ZM470.539 11.3281V10.3281H469.539V11.3281H470.539ZM476.797 11.3281H477.797V10.3281H476.797V11.3281ZM476.797 14.5625H475.797L477.711 14.9676L476.797 14.5625ZM486.547 11.9141L485.972 12.7321L485.979 12.7372L485.986 12.7422L486.547 11.9141ZM488.914 35V36H489.914V35H488.914ZM482.305 35H481.305V36H482.305V35ZM477.711 17.0703L478.598 17.5329L478.602 17.5251L477.711 17.0703ZM477.148 35V36H478.148V35H477.148ZM470.539 35H469.539V36H470.539V35ZM470.539 12.3281H476.797V10.3281H470.539V12.3281ZM475.797 11.3281V14.5625H477.797V11.3281H475.797ZM477.711 14.9676C478.19 13.8862 478.836 13.1285 479.629 12.6333C480.426 12.1357 481.442 11.8594 482.727 11.8594V9.85938C481.152 9.85938 479.75 10.2002 478.57 10.937C477.386 11.6761 476.497 12.77 475.883 14.1574L477.711 14.9676ZM482.727 11.8594C484.122 11.8594 485.18 12.1754 485.972 12.7321L487.122 11.096C485.914 10.2464 484.424 9.85938 482.727 9.85938V11.8594ZM485.986 12.7422C486.823 13.3083 487.311 13.996 487.525 14.8149L489.46 14.3101C489.111 12.9727 488.302 11.8948 487.107 11.086L485.986 12.7422ZM487.525 14.8149C487.772 15.7649 487.914 17.3006 487.914 19.4844H489.914C489.914 17.2619 489.774 15.5164 489.46 14.3101L487.525 14.8149ZM487.914 19.4844V35H489.914V19.4844H487.914ZM488.914 34H482.305V36H488.914V34ZM483.305 35V19.4844H481.305V35H483.305ZM483.305 19.4844C483.305 18.6541 483.253 17.9343 483.132 17.3487C483.018 16.7977 482.812 16.2011 482.374 15.7964L481.017 17.2661C480.985 17.2364 481.084 17.3195 481.173 17.7529C481.255 18.1517 481.305 18.7209 481.305 19.4844H483.305ZM482.374 15.7964C481.74 15.212 480.93 14.9688 480.055 14.9688V16.9688C480.555 16.9688 480.838 17.1005 481.017 17.2661L482.374 15.7964ZM480.055 14.9688C478.678 14.9688 477.437 15.4075 476.82 16.6155L478.602 17.5251C478.735 17.2644 479.056 16.9688 480.055 16.9688V14.9688ZM476.824 16.6077C476.56 17.1149 476.399 17.7629 476.299 18.4856C476.196 19.2223 476.148 20.1055 476.148 21.125H478.148C478.148 20.1601 478.194 19.3754 478.28 18.7605C478.367 18.1316 478.487 17.7445 478.598 17.5329L476.824 16.6077ZM476.148 21.125V35H478.148V21.125H476.148ZM477.148 34H470.539V36H477.148V34ZM471.539 35V11.3281H469.539V35H471.539ZM504.242 17.0469L503.308 17.404L503.313 17.4159L504.242 17.0469ZM499.93 16.9766L500.846 17.3774L500.848 17.3722L499.93 16.9766ZM504.289 29.2109L505.232 29.5431L505.234 29.5389L504.289 29.2109ZM510.695 23.1641C510.695 27.171 509.91 29.9922 508.504 31.7954C507.136 33.5512 505.059 34.4922 502.086 34.4922V36.4922C505.519 36.4922 508.247 35.3785 510.082 33.0249C511.879 30.7187 512.695 27.3758 512.695 23.1641H510.695ZM502.086 34.4922C499.104 34.4922 497.022 33.5506 495.649 31.7945C494.24 29.9914 493.453 27.1706 493.453 23.1641H491.453C491.453 27.3762 492.271 30.7196 494.073 33.0259C495.912 35.3791 498.646 36.4922 502.086 36.4922V34.4922ZM493.453 23.1641C493.453 19.1656 494.24 16.3511 495.649 14.552C497.021 12.7995 499.103 11.8594 502.086 11.8594V9.85938C498.647 9.85938 495.913 10.9701 494.074 13.3191C492.271 15.6216 491.453 18.9594 491.453 23.1641H493.453ZM502.086 11.8594C505.06 11.8594 507.136 12.7989 508.505 14.551C509.91 16.3502 510.695 19.1652 510.695 23.1641H512.695C512.695 18.9598 511.879 15.6224 510.081 13.32C508.246 10.9707 505.518 9.85938 502.086 9.85938V11.8594ZM505.875 23.1641C505.875 21.6363 505.822 20.3357 505.711 19.2701C505.603 18.2193 505.433 17.3365 505.172 16.6778L503.313 17.4159C503.473 17.8197 503.62 18.4877 503.722 19.4759C503.823 20.4495 503.875 21.6762 503.875 23.1641H505.875ZM505.176 16.6897C504.923 16.0283 504.543 15.4538 503.993 15.0474C503.436 14.6356 502.781 14.4531 502.086 14.4531V16.4531C502.422 16.4531 502.642 16.5362 502.804 16.6557C502.973 16.7806 503.155 17.0029 503.308 17.404L505.176 16.6897ZM502.086 14.4531C501.409 14.4531 500.77 14.6283 500.22 15.0173C499.676 15.4016 499.284 15.947 499.011 16.5809L500.848 17.3722C501.013 16.9905 501.199 16.7742 501.374 16.6507C501.542 16.5319 501.763 16.4531 502.086 16.4531V14.4531ZM499.014 16.5757C498.732 17.2197 498.555 18.1091 498.443 19.168C498.329 20.247 498.273 21.582 498.273 23.1641H500.273C500.273 21.6211 500.328 20.3624 500.432 19.3789C500.538 18.3753 500.69 17.7335 500.846 17.3774L499.014 16.5757ZM498.273 23.1641C498.273 26.0516 498.455 28.2081 498.887 29.5037L500.785 28.8713C500.466 27.9169 500.273 26.0578 500.273 23.1641H498.273ZM498.887 29.5037C499.122 30.208 499.504 30.821 500.08 31.2531C500.66 31.6886 501.352 31.875 502.086 31.875V29.875C501.695 29.875 501.449 29.7802 501.28 29.6531C501.106 29.5227 500.925 29.292 500.785 28.8713L498.887 29.5037ZM502.086 31.875C502.804 31.875 503.479 31.6869 504.048 31.2569C504.61 30.8322 504.99 30.2319 505.232 29.5431L503.346 28.8788C503.198 29.2993 503.015 29.5311 502.843 29.661C502.678 29.7857 502.446 29.875 502.086 29.875V31.875ZM505.234 29.5389C505.686 28.2373 505.875 26.0668 505.875 23.1641H503.875C503.875 26.0738 503.674 27.9346 503.344 28.8829L505.234 29.5389ZM512.703 11.3281V10.3281H511.421L511.733 11.572L512.703 11.3281ZM519.125 11.3281L520.107 11.1379L519.95 10.3281H519.125V11.3281ZM521.914 25.7188L520.932 25.909L522.898 25.8997L521.914 25.7188ZM524.562 11.3281V10.3281H523.73L523.579 11.1471L524.562 11.3281ZM530.984 11.3281L531.973 11.1799L531.846 10.3281H530.984V11.3281ZM533.141 25.7188L532.152 25.8669L534.117 25.935L533.141 25.7188ZM536.328 11.3281V10.3281H535.525L535.352 11.1119L536.328 11.3281ZM541.508 11.3281L542.478 11.5711L542.789 10.3281H541.508V11.3281ZM535.578 35V36H536.359L536.548 35.243L535.578 35ZM530.047 35L529.064 35.1859L529.218 36H530.047V35ZM527 18.8984L527.983 18.7125L526.017 18.7167L527 18.8984ZM524.023 35V36H524.856L525.007 35.1818L524.023 35ZM518.656 35L517.686 35.2439L517.877 36H518.656V35ZM512.703 12.3281H519.125V10.3281H512.703V12.3281ZM518.143 11.5184L520.932 25.909L522.896 25.5285L520.107 11.1379L518.143 11.5184ZM522.898 25.8997L525.546 11.5091L523.579 11.1471L520.931 25.5378L522.898 25.8997ZM524.562 12.3281H530.984V10.3281H524.562V12.3281ZM529.995 11.4763L532.152 25.8669L534.13 25.5706L531.973 11.1799L529.995 11.4763ZM534.117 25.935L537.304 11.5444L535.352 11.1119L532.164 25.5025L534.117 25.935ZM536.328 12.3281H541.508V10.3281H536.328V12.3281ZM540.538 11.0851L534.608 34.757L536.548 35.243L542.478 11.5711L540.538 11.0851ZM535.578 34H530.047V36H535.578V34ZM531.029 34.8141L527.983 18.7125L526.017 19.0844L529.064 35.1859L531.029 34.8141ZM526.017 18.7167L523.04 34.8182L525.007 35.1818L527.983 19.0802L526.017 18.7167ZM524.023 34H518.656V36H524.023V34ZM519.626 34.7561L513.673 11.0842L511.733 11.572L517.686 35.2439L519.626 34.7561ZM543.008 27.9219V26.9219H542.008V27.9219H543.008ZM549.547 27.9219H550.547V26.9219H549.547V27.9219ZM549.547 35V36H550.547V35H549.547ZM543.008 35H542.008V36H543.008V35ZM543.008 28.9219H549.547V26.9219H543.008V28.9219ZM548.547 27.9219V35H550.547V27.9219H548.547ZM549.547 34H543.008V36H549.547V34ZM544.008 35V27.9219H542.008V35H544.008ZM555.289 27.9219V26.9219H554.289V27.9219H555.289ZM561.828 27.9219H562.828V26.9219H561.828V27.9219ZM561.828 35V36H562.828V35H561.828ZM555.289 35H554.289V36H555.289V35ZM555.289 28.9219H561.828V26.9219H555.289V28.9219ZM560.828 27.9219V35H562.828V27.9219H560.828ZM561.828 34H555.289V36H561.828V34ZM556.289 35V27.9219H554.289V35H556.289ZM567.57 27.9219V26.9219H566.57V27.9219H567.57ZM574.109 27.9219H575.109V26.9219H574.109V27.9219ZM574.109 35V36H575.109V35H574.109ZM567.57 35H566.57V36H567.57V35ZM567.57 28.9219H574.109V26.9219H567.57V28.9219ZM573.109 27.9219V35H575.109V27.9219H573.109ZM574.109 34H567.57V36H574.109V34ZM568.57 35V27.9219H566.57V35H568.57Z" fill="#F5F5F5"/>
</svg>
