<svg width="148" height="46" viewBox="0 0 148 46" fill="none" xmlns="http://www.w3.org/2000/svg">
<path pathLength="1" className="texture" d="M14.5625 1.34375H24L36.1875 44H26.5938L24.4688 35.1875H12.4688L10.375 44H1.75L14.5625 1.34375ZM22.6875 27.875L18.4062 10.4688L14.25 27.875H22.6875ZM39.75 1.34375H48.4062V15.4062C50.1146 13.1354 52.3021 12 54.9688 12C57.8854 12 60.3125 13.3125 62.25 15.9375C64.1875 18.5625 65.1562 22.5938 65.1562 28.0312C65.1562 33.2604 64.2083 37.3438 62.3125 40.2812C60.4167 43.1979 57.6458 44.6562 54 44.6562C50.4167 44.6562 47.9583 43.0625 46.625 39.875C46.0208 40.9583 45.4688 42.3333 44.9688 44H39.75V1.34375ZM48.4062 30.9062C48.4062 33.8021 48.6771 35.8021 49.2188 36.9062C49.7604 38.0104 50.7188 38.5625 52.0938 38.5625C53.6146 38.5625 54.6562 37.7812 55.2188 36.2188C55.7812 34.6354 56.0625 31.9792 56.0625 28.25C56.0625 24.6458 55.7917 22.0104 55.25 20.3438C54.7083 18.6771 53.7083 17.8438 52.25 17.8438C49.6875 17.8438 48.4062 19.7708 48.4062 23.625V30.9062ZM94.625 28.2188C94.625 39.1771 90.3542 44.6562 81.8125 44.6562C73.25 44.6562 68.9688 39.1771 68.9688 28.2188C68.9688 17.2812 73.25 11.8125 81.8125 11.8125C90.3542 11.8125 94.625 17.2812 94.625 28.2188ZM85.5312 28.2188C85.5312 24.1979 85.25 21.4792 84.6875 20.0625C84.1458 18.6458 83.1875 17.9375 81.8125 17.9375C80.4792 17.9375 79.5208 18.6146 78.9375 19.9688C78.3542 21.3021 78.0625 24.0521 78.0625 28.2188C78.0625 32.0729 78.3125 34.75 78.8125 36.25C79.3125 37.75 80.3125 38.5 81.8125 38.5C83.25 38.5 84.2292 37.7604 84.75 36.2812C85.2708 34.7812 85.5312 32.0938 85.5312 28.2188ZM99.3125 12.4375H108.125V32.6875C108.125 34.7292 108.312 36.0938 108.688 36.7812C109.062 37.4688 109.875 37.8125 111.125 37.8125C112.271 37.8125 113.135 37.5312 113.719 36.9688C114.323 36.4062 114.688 35.6354 114.812 34.6562C114.938 33.6562 115 31.6146 115 28.5312V12.4375H123.812V44H115.531V39.6875C114.281 41.8333 113.031 43.1979 111.781 43.7812C110.552 44.3646 109.094 44.6562 107.406 44.6562C105.135 44.6562 103.396 44.1875 102.188 43.25C100.979 42.3125 100.198 41.125 99.8438 39.6875C99.4896 38.25 99.3125 36.0104 99.3125 32.9688V12.4375ZM131.625 2.75L140.188 2.46875V12.4375H146V19.375H140.188V30.9688C140.188 33.1146 140.229 34.5104 140.312 35.1562C140.417 35.7812 140.729 36.3125 141.25 36.75C141.792 37.1667 142.688 37.375 143.938 37.375C144.604 37.375 145.438 37.3542 146.438 37.3125V44C144.479 44.4375 142.688 44.6562 141.062 44.6562C138.396 44.6562 136.354 44.1458 134.938 43.125C133.521 42.1042 132.615 40.8229 132.219 39.2812C131.823 37.7396 131.625 35.2917 131.625 31.9375V19.375H128.125V12.4375H131.625V2.75Z" fill="#F5F5F5" fill-opacity="0.0"/>
<path pathLength="1" d="M14.5625 1.34375V0.34375H13.8187L13.6048 1.05608L14.5625 1.34375ZM24 1.34375L24.9615 1.06903L24.7543 0.34375H24V1.34375ZM36.1875 44V45H37.5132L37.149 43.7253L36.1875 44ZM26.5938 44L25.6216 44.2344L25.8062 45H26.5938V44ZM24.4688 35.1875L25.4409 34.9531L25.2563 34.1875H24.4688V35.1875ZM12.4688 35.1875V34.1875H11.6785L11.4958 34.9563L12.4688 35.1875ZM10.375 44V45H11.1652L11.3479 44.2312L10.375 44ZM1.75 44L0.79227 43.7123L0.405498 45H1.75V44ZM22.6875 27.875V28.875H23.9633L23.6586 27.6362L22.6875 27.875ZM18.4062 10.4688L19.3773 10.2299L17.4336 10.2365L18.4062 10.4688ZM14.25 27.875L13.2773 27.6427L12.9831 28.875H14.25V27.875ZM14.5625 2.34375H24V0.34375H14.5625V2.34375ZM23.0385 1.61847L35.226 44.2747L37.149 43.7253L24.9615 1.06903L23.0385 1.61847ZM36.1875 43H26.5938V45H36.1875V43ZM27.5659 43.7656L25.4409 34.9531L23.4966 35.4219L25.6216 44.2344L27.5659 43.7656ZM24.4688 34.1875H12.4688V36.1875H24.4688V34.1875ZM11.4958 34.9563L9.40208 43.7688L11.3479 44.2312L13.4417 35.4187L11.4958 34.9563ZM10.375 43H1.75V45H10.375V43ZM2.70773 44.2877L15.5202 1.63142L13.6048 1.05608L0.79227 43.7123L2.70773 44.2877ZM23.6586 27.6362L19.3773 10.2299L17.4352 10.7076L21.7164 28.1138L23.6586 27.6362ZM17.4336 10.2365L13.2773 27.6427L15.2227 28.1073L19.3789 10.701L17.4336 10.2365ZM14.25 28.875H22.6875V26.875H14.25V28.875ZM39.75 1.34375V0.34375H38.75V1.34375H39.75ZM48.4062 1.34375H49.4062V0.34375H48.4062V1.34375ZM48.4062 15.4062H47.4062V18.3989L49.2054 16.0074L48.4062 15.4062ZM62.3125 40.2812L63.1509 40.8262L63.1527 40.8235L62.3125 40.2812ZM46.625 39.875L47.5475 39.4891L46.7537 37.5912L45.7516 39.3879L46.625 39.875ZM44.9688 44V45H45.7128L45.9266 44.2873L44.9688 44ZM39.75 44H38.75V45H39.75V44ZM55.2188 36.2188L56.1596 36.5575L56.1611 36.5535L55.2188 36.2188ZM39.75 2.34375H48.4062V0.34375H39.75V2.34375ZM47.4062 1.34375V15.4062H49.4062V1.34375H47.4062ZM49.2054 16.0074C50.7392 13.9685 52.6396 13 54.9688 13V11C51.9646 11 49.4899 12.3023 47.6071 14.8051L49.2054 16.0074ZM54.9688 13C57.527 13 59.6707 14.1269 61.4454 16.5314L63.0546 15.3436C60.9543 12.4981 58.2439 11 54.9688 11V13ZM61.4454 16.5314C63.1962 18.9033 64.1562 22.6781 64.1562 28.0312H66.1562C66.1562 22.5094 65.1788 18.2217 63.0546 15.3436L61.4454 16.5314ZM64.1562 28.0312C64.1562 33.1573 63.2241 37.0246 61.4723 39.739L63.1527 40.8235C65.1925 37.6629 66.1562 33.3635 66.1562 28.0312H64.1562ZM61.4741 39.7363C59.7731 42.3531 57.3269 43.6562 54 43.6562V45.6562C57.9648 45.6562 61.0602 44.0427 63.1509 40.8262L61.4741 39.7363ZM54 43.6562C52.3581 43.6562 51.047 43.2924 50.0127 42.6218C48.981 41.953 48.1508 40.9312 47.5475 39.4891L45.7025 40.2609C46.4326 42.0063 47.4981 43.3751 48.9248 44.3C50.3488 45.2232 52.0586 45.6562 54 45.6562V43.6562ZM45.7516 39.3879C45.1012 40.5542 44.5241 42.002 44.0109 43.7127L45.9266 44.2873C46.4134 42.6647 46.9404 41.3625 47.4984 40.3621L45.7516 39.3879ZM44.9688 43H39.75V45H44.9688V43ZM40.75 44V1.34375H38.75V44H40.75ZM47.4062 30.9062C47.4062 33.8013 47.6671 36.0139 48.321 37.3467L50.1165 36.4658C49.687 35.5903 49.4062 33.8028 49.4062 30.9062H47.4062ZM48.321 37.3467C48.6692 38.0565 49.1741 38.6287 49.8446 39.0149C50.5083 39.3973 51.2732 39.5625 52.0938 39.5625V37.5625C51.5393 37.5625 51.1375 37.4516 50.8429 37.2819C50.5551 37.1161 50.31 36.8602 50.1165 36.4658L48.321 37.3467ZM52.0938 39.5625C53.0328 39.5625 53.8938 39.3179 54.6156 38.7766C55.3306 38.2404 55.8303 37.4722 56.1596 36.5575L54.2779 35.88C54.0447 36.5278 53.7423 36.9315 53.4156 37.1766C53.0958 37.4164 52.6755 37.5625 52.0938 37.5625V39.5625ZM56.1611 36.5535C56.7857 34.7954 57.0625 31.9884 57.0625 28.25H55.0625C55.0625 31.9699 54.7768 34.4755 54.2764 35.884L56.1611 36.5535ZM57.0625 28.25C57.0625 24.6274 56.794 21.8592 56.201 20.0347L54.299 20.6528C54.7893 22.1616 55.0625 24.6642 55.0625 28.25H57.0625ZM56.201 20.0347C55.8915 19.0823 55.4208 18.2729 54.7339 17.7005C54.0325 17.116 53.1831 16.8438 52.25 16.8438V18.8438C52.7752 18.8438 53.155 18.9882 53.4536 19.237C53.7667 19.4979 54.0668 19.9385 54.299 20.6528L56.201 20.0347ZM52.25 16.8438C50.6763 16.8438 49.3827 17.4596 48.5344 18.7354C47.734 19.9394 47.4062 21.6187 47.4062 23.625H49.4062C49.4062 21.7771 49.7191 20.5659 50.1999 19.8427C50.6329 19.1915 51.2612 18.8438 52.25 18.8438V16.8438ZM47.4062 23.625V30.9062H49.4062V23.625H47.4062ZM84.6875 20.0625L83.7534 20.4197L83.7581 20.4315L84.6875 20.0625ZM78.9375 19.9688L79.8537 20.3696L79.8559 20.3644L78.9375 19.9688ZM84.75 36.2812L85.6932 36.6134L85.6947 36.6093L84.75 36.2812ZM93.625 28.2188C93.625 33.5955 92.5726 37.444 90.6332 39.9321C88.7307 42.3728 85.8535 43.6562 81.8125 43.6562V45.6562C86.3132 45.6562 89.8422 44.2001 92.2106 41.1616C94.542 38.1706 95.625 33.8003 95.625 28.2188H93.625ZM81.8125 43.6562C77.7602 43.6562 74.875 42.3722 72.9677 39.9312C71.0236 37.4432 69.9688 33.5951 69.9688 28.2188H67.9688C67.9688 33.8007 69.0545 38.1714 71.3917 41.1626C73.7656 44.2007 77.3023 45.6562 81.8125 45.6562V43.6562ZM69.9688 28.2188C69.9688 22.8531 71.0235 19.0132 72.9671 16.5305C74.8742 14.0944 77.7596 12.8125 81.8125 12.8125V10.8125C77.3029 10.8125 73.7664 12.265 71.3923 15.2976C69.0546 18.2837 67.9688 22.6469 67.9688 28.2188H69.9688ZM81.8125 12.8125C85.8542 12.8125 88.7315 14.0938 90.6337 16.5296C92.5727 19.0124 93.625 22.8527 93.625 28.2188H95.625C95.625 22.6473 94.5419 18.2845 92.21 15.2986C89.8414 12.2656 86.3125 10.8125 81.8125 10.8125V12.8125ZM86.5312 28.2188C86.5312 26.1883 86.4604 24.4665 86.315 23.0612C86.1711 21.6705 85.9488 20.5292 85.6169 19.6935L83.7581 20.4315C83.9887 21.0124 84.1882 21.9389 84.3256 23.267C84.4615 24.5803 84.5312 26.2283 84.5312 28.2188H86.5312ZM85.6216 19.7054C85.301 18.8669 84.8265 18.1595 84.1569 17.6646C83.48 17.1643 82.6798 16.9375 81.8125 16.9375V18.9375C82.3202 18.9375 82.6866 19.0649 82.9681 19.2729C83.2569 19.4863 83.5324 19.8415 83.7534 20.4196L85.6216 19.7054ZM81.8125 16.9375C80.9684 16.9375 80.1871 17.155 79.5167 17.6286C78.853 18.0975 78.3651 18.7699 78.0191 19.5731L79.8559 20.3644C80.0933 19.8134 80.3762 19.4702 80.6708 19.262C80.9588 19.0586 81.3232 18.9375 81.8125 18.9375V16.9375ZM78.0213 19.5679C77.6667 20.3785 77.4356 21.5232 77.2868 22.9258C77.1359 24.3486 77.0625 26.1159 77.0625 28.2188H79.0625C79.0625 26.1549 79.1349 24.4639 79.2757 23.1367C79.4186 21.7893 79.625 20.8923 79.8537 20.3696L78.0213 19.5679ZM77.0625 28.2188C77.0625 32.0698 77.3069 34.8956 77.8638 36.5662L79.7612 35.9338C79.3181 34.6044 79.0625 32.076 79.0625 28.2188H77.0625ZM77.8638 36.5662C78.1611 37.458 78.6364 38.2116 79.3375 38.7375C80.0431 39.2667 80.8906 39.5 81.8125 39.5V37.5C81.2344 37.5 80.8319 37.3583 80.5375 37.1375C80.2386 36.9134 79.9639 36.542 79.7612 35.9338L77.8638 36.5662ZM81.8125 39.5C82.7101 39.5 83.536 39.2657 84.2277 38.7433C84.9125 38.2261 85.3856 37.4871 85.6932 36.6134L83.8068 35.9491C83.5936 36.5546 83.3167 36.925 83.0223 37.1474C82.7348 37.3645 82.3524 37.5 81.8125 37.5V39.5ZM85.6947 36.6093C86.2768 34.9326 86.5312 32.0902 86.5312 28.2188H84.5312C84.5312 32.0973 84.2648 34.6299 83.8053 35.9532L85.6947 36.6093ZM99.3125 12.4375V11.4375H98.3125V12.4375H99.3125ZM108.125 12.4375H109.125V11.4375H108.125V12.4375ZM113.719 36.9688L113.037 36.2369L113.031 36.2428L113.025 36.2489L113.719 36.9688ZM114.812 34.6562L115.804 34.7829L115.805 34.7803L114.812 34.6562ZM115 12.4375V11.4375H114V12.4375H115ZM123.812 12.4375H124.812V11.4375H123.812V12.4375ZM123.812 44V45H124.812V44H123.812ZM115.531 44H114.531V45H115.531V44ZM115.531 39.6875H116.531V35.9841L114.667 39.1842L115.531 39.6875ZM111.781 43.7812L111.358 42.875L111.353 42.8778L111.781 43.7812ZM99.3125 13.4375H108.125V11.4375H99.3125V13.4375ZM107.125 12.4375V32.6875H109.125V12.4375H107.125ZM107.125 32.6875C107.125 33.7344 107.173 34.635 107.275 35.3783C107.375 36.1038 107.536 36.7582 107.81 37.2601L109.565 36.3024C109.464 36.1168 109.344 35.7452 109.256 35.1061C109.171 34.4848 109.125 33.6823 109.125 32.6875H107.125ZM107.81 37.2601C108.449 38.4317 109.742 38.8125 111.125 38.8125V36.8125C110.008 36.8125 109.676 36.5058 109.565 36.3024L107.81 37.2601ZM111.125 38.8125C112.422 38.8125 113.578 38.4938 114.413 37.6886L113.025 36.2489C112.693 36.5687 112.12 36.8125 111.125 36.8125V38.8125ZM114.4 37.7006C115.207 36.9491 115.656 35.9465 115.804 34.7829L113.821 34.5296C113.719 35.3243 113.438 35.8634 113.037 36.2369L114.4 37.7006ZM115.805 34.7803C115.939 33.7079 116 31.6032 116 28.5312H114C114 31.626 113.936 33.6046 113.82 34.5322L115.805 34.7803ZM116 28.5312V12.4375H114V28.5312H116ZM115 13.4375H123.812V11.4375H115V13.4375ZM122.812 12.4375V44H124.812V12.4375H122.812ZM123.812 43H115.531V45H123.812V43ZM116.531 44V39.6875H114.531V44H116.531ZM114.667 39.1842C113.448 41.2768 112.327 42.4231 111.358 42.8751L112.204 44.6874C113.736 43.9728 115.114 42.3899 116.395 40.1908L114.667 39.1842ZM111.353 42.8778C110.286 43.3842 108.98 43.6562 107.406 43.6562V45.6562C109.207 45.6562 110.819 45.345 112.21 44.6847L111.353 42.8778ZM107.406 43.6562C105.254 43.6562 103.766 43.2094 102.8 42.4599L101.575 44.0401C103.025 45.1656 105.017 45.6562 107.406 45.6562V43.6562ZM102.8 42.4599C101.764 41.6556 101.113 40.6594 100.815 39.4483L98.8728 39.9267C99.2827 41.5906 100.195 42.9694 101.575 44.0401L102.8 42.4599ZM100.815 39.4483C100.491 38.1342 100.312 35.9957 100.312 32.9688H98.3125C98.3125 36.0251 98.4882 38.3658 98.8728 39.9267L100.815 39.4483ZM100.312 32.9688V12.4375H98.3125V32.9688H100.312ZM131.625 2.75L131.592 1.75054L130.625 1.78231V2.75H131.625ZM140.188 2.46875H141.188V1.43536L140.155 1.46929L140.188 2.46875ZM140.188 12.4375H139.188V13.4375H140.188V12.4375ZM146 12.4375H147V11.4375H146V12.4375ZM146 19.375V20.375H147V19.375H146ZM140.188 19.375V18.375H139.188V19.375H140.188ZM140.312 35.1562L139.321 35.2842L139.323 35.3025L139.326 35.3206L140.312 35.1562ZM141.25 36.75L140.607 37.5157L140.623 37.5295L140.64 37.5426L141.25 36.75ZM146.438 37.3125H147.438V36.27L146.396 36.3134L146.438 37.3125ZM146.438 44L146.656 44.9759L147.438 44.8012V44H146.438ZM131.625 19.375H132.625V18.375H131.625V19.375ZM128.125 19.375H127.125V20.375H128.125V19.375ZM128.125 12.4375V11.4375H127.125V12.4375H128.125ZM131.625 12.4375V13.4375H132.625V12.4375H131.625ZM131.658 3.74946L140.22 3.46821L140.155 1.46929L131.592 1.75054L131.658 3.74946ZM139.188 2.46875V12.4375H141.188V2.46875H139.188ZM140.188 13.4375H146V11.4375H140.188V13.4375ZM145 12.4375V19.375H147V12.4375H145ZM146 18.375H140.188V20.375H146V18.375ZM139.188 19.375V30.9688H141.188V19.375H139.188ZM139.188 30.9688C139.188 33.0993 139.228 34.5626 139.321 35.2842L141.304 35.0283C141.231 34.4582 141.188 33.1299 141.188 30.9688H139.188ZM139.326 35.3206C139.472 36.1986 139.918 36.9372 140.607 37.5157L141.893 35.9843C141.54 35.6878 141.361 35.3639 141.299 34.9919L139.326 35.3206ZM140.64 37.5426C141.451 38.1665 142.627 38.375 143.938 38.375V36.375C142.748 36.375 142.132 36.1669 141.86 35.9574L140.64 37.5426ZM143.938 38.375C144.623 38.375 145.471 38.3536 146.479 38.3116L146.396 36.3134C145.404 36.3547 144.585 36.375 143.938 36.375V38.375ZM145.438 37.3125V44H147.438V37.3125H145.438ZM146.219 43.0241C144.317 43.4491 142.599 43.6562 141.062 43.6562V45.6562C142.776 45.6562 144.642 45.4259 146.656 44.9759L146.219 43.0241ZM141.062 43.6562C138.502 43.6562 136.7 43.1626 135.522 42.3137L134.353 43.9363C136.008 45.1291 138.29 45.6562 141.062 45.6562V43.6562ZM135.522 42.3137C134.276 41.4155 133.519 40.325 133.187 39.0326L131.25 39.5299C131.71 41.3208 132.766 42.7929 134.353 43.9363L135.522 42.3137ZM133.187 39.0326C132.825 37.6203 132.625 35.279 132.625 31.9375H130.625C130.625 35.3043 130.821 37.8589 131.25 39.5299L133.187 39.0326ZM132.625 31.9375V19.375H130.625V31.9375H132.625ZM131.625 18.375H128.125V20.375H131.625V18.375ZM129.125 19.375V12.4375H127.125V19.375H129.125ZM128.125 13.4375H131.625V11.4375H128.125V13.4375ZM132.625 12.4375V2.75H130.625V12.4375H132.625Z" stroke="#f5f5f5" fill="#F5F5F5"/>
</svg>
