<svg width="218" height="52" viewBox="0 0 218 52" fill="none" xmlns="http://www.w3.org/2000/svg">
<path pathLength="1" className="texture" d="M26.8789 32.5273L36.6172 33.125C36.2656 38.3281 34.6133 42.5703 31.6602 45.8516C28.707 49.1094 24.8047 50.7383 19.9531 50.7383C14.0469 50.7383 9.54688 48.5469 6.45312 44.1641C3.35938 39.7812 1.8125 33.7461 1.8125 26.0586C1.8125 18.3008 3.34766 12.2305 6.41797 7.84766C9.48828 3.46484 14.0469 1.27344 20.0938 1.27344C30.1016 1.27344 35.5508 7.46094 36.4414 19.8359L26.8086 20.5391C26.5508 13.4141 24.3242 9.85156 20.1289 9.85156C17.9258 9.85156 16.168 11 14.8555 13.2969C13.5664 15.5938 12.9219 20.0469 12.9219 26.6562C12.9219 32.5625 13.5195 36.6289 14.7148 38.8555C15.9102 41.0586 17.7031 42.1602 20.0938 42.1602C23.9375 42.1602 26.1992 38.9492 26.8789 32.5273ZM69.3125 32.2461C69.3125 44.5742 64.5078 50.7383 54.8984 50.7383C45.2656 50.7383 40.4492 44.5742 40.4492 32.2461C40.4492 19.9414 45.2656 13.7891 54.8984 13.7891C64.5078 13.7891 69.3125 19.9414 69.3125 32.2461ZM59.082 32.2461C59.082 27.7227 58.7656 24.6641 58.1328 23.0703C57.5234 21.4766 56.4453 20.6797 54.8984 20.6797C53.3984 20.6797 52.3203 21.4414 51.6641 22.9648C51.0078 24.4648 50.6797 27.5586 50.6797 32.2461C50.6797 36.582 50.9609 39.5938 51.5234 41.2812C52.0859 42.9688 53.2109 43.8125 54.8984 43.8125C56.5156 43.8125 57.6172 42.9805 58.2031 41.3164C58.7891 39.6289 59.082 36.6055 59.082 32.2461ZM75.0781 14.4922H84.4648V19.3438C86.1055 15.6406 89.0703 13.7891 93.3594 13.7891C95.6797 13.7891 97.5898 14.3164 99.0898 15.3711C100.613 16.4023 101.586 17.7266 102.008 19.3438C102.43 20.9609 102.641 23.4219 102.641 26.7266V50H92.7266V26.7266C92.7266 24.3359 92.4219 22.8594 91.8125 22.2969C91.2031 21.7344 90.3828 21.4531 89.3516 21.4531C87.5703 21.4531 86.3984 22.0039 85.8359 23.1055C85.2734 24.1836 84.9922 26.2109 84.9922 29.1875V50H75.0781V14.4922ZM110.938 3.59375L120.57 3.27734V14.4922H127.109V22.2969H120.57V35.3398C120.57 37.7539 120.617 39.3242 120.711 40.0508C120.828 40.7539 121.18 41.3516 121.766 41.8438C122.375 42.3125 123.383 42.5469 124.789 42.5469C125.539 42.5469 126.477 42.5234 127.602 42.4766V50C125.398 50.4922 123.383 50.7383 121.555 50.7383C118.555 50.7383 116.258 50.1641 114.664 49.0156C113.07 47.8672 112.051 46.4258 111.605 44.6914C111.16 42.957 110.938 40.2031 110.938 36.4297V22.2969H107V14.4922H110.938V3.59375ZM141.664 25.7773L132.277 24.8633C132.723 21.3008 134.234 18.5586 136.812 16.6367C139.414 14.7148 142.684 13.7539 146.621 13.7539C149.949 13.7539 152.621 14.3984 154.637 15.6875C156.652 16.9531 157.918 18.4297 158.434 20.1172C158.973 21.8047 159.242 24.418 159.242 27.957V42.125C159.242 46.5312 159.441 49.1562 159.84 50H150.664C150.336 49.0391 150.172 47.2227 150.172 44.5508C147.992 48.6758 144.746 50.7383 140.434 50.7383C137.668 50.7383 135.418 49.918 133.684 48.2773C131.949 46.6133 131.082 44.1992 131.082 41.0352C131.082 37.0742 132.395 34.0156 135.02 31.8594C137.645 29.6797 142.426 28.3789 149.363 27.957V26.6211C149.363 24.2539 149.117 22.6133 148.625 21.6992C148.156 20.7852 147.23 20.3281 145.848 20.3281C143.316 20.3281 141.922 22.1445 141.664 25.7773ZM149.363 33.0195C146.48 33.3477 144.418 33.9922 143.176 34.9531C141.957 35.8906 141.348 37.4844 141.348 39.7344C141.348 42.7344 142.449 44.2344 144.652 44.2344C145.848 44.2344 146.926 43.5664 147.887 42.2305C148.871 40.8711 149.363 38.3867 149.363 34.7773V33.0195ZM193.062 27.5703L183.852 27.9219C183.711 25.7422 183.359 24.1016 182.797 23C182.234 21.875 181.285 21.3125 179.949 21.3125C176.621 21.3125 174.957 24.8047 174.957 31.7891C174.957 35.8438 175.355 38.6797 176.152 40.2969C176.973 41.9141 178.18 42.7227 179.773 42.7227C182.258 42.7227 183.617 40.5312 183.852 36.1484L193.062 36.7461C192.242 46.0742 187.602 50.7383 179.141 50.7383C174.57 50.7383 171.066 49.2031 168.629 46.1328C166.215 43.0391 165.008 38.4453 165.008 32.3516C165.008 26.3047 166.273 21.6992 168.805 18.5352C171.359 15.3711 174.934 13.7891 179.527 13.7891C187.824 13.7891 192.336 18.3828 193.062 27.5703ZM199.953 3.59375L209.586 3.27734V14.4922H216.125V22.2969H209.586V35.3398C209.586 37.7539 209.633 39.3242 209.727 40.0508C209.844 40.7539 210.195 41.3516 210.781 41.8438C211.391 42.3125 212.398 42.5469 213.805 42.5469C214.555 42.5469 215.492 42.5234 216.617 42.4766V50C214.414 50.4922 212.398 50.7383 210.57 50.7383C207.57 50.7383 205.273 50.1641 203.68 49.0156C202.086 47.8672 201.066 46.4258 200.621 44.6914C200.176 42.957 199.953 40.2031 199.953 36.4297V22.2969H196.016V14.4922H199.953V3.59375Z" fill="#F5F5F5" fill-opacity="0.0"/>
<path pathLength="1" d="M26.8789 32.5273L26.9402 31.5292L25.9852 31.4706L25.8845 32.4221L26.8789 32.5273ZM36.6172 33.125L37.6149 33.1924L37.6827 32.1885L36.6784 32.1269L36.6172 33.125ZM31.6602 45.8516L32.4011 46.5232L32.4035 46.5205L31.6602 45.8516ZM36.4414 19.8359L36.5142 20.8333L37.5105 20.7606L37.4388 19.7642L36.4414 19.8359ZM26.8086 20.5391L25.8092 20.5752L25.8468 21.6119L26.8814 21.5364L26.8086 20.5391ZM14.8555 13.2969L13.9872 12.8007L13.9834 12.8075L14.8555 13.2969ZM14.7148 38.8555L13.8338 39.3285L13.8359 39.3324L14.7148 38.8555ZM26.8176 33.5255L36.5559 34.1231L36.6784 32.1269L26.9402 31.5292L26.8176 33.5255ZM35.6195 33.0576C35.2801 38.0795 33.6943 42.0966 30.9169 45.1826L32.4035 46.5205C35.5323 43.044 37.2511 38.5768 37.6149 33.1924L35.6195 33.0576ZM30.9193 45.18C28.1765 48.2057 24.555 49.7383 19.9531 49.7383V51.7383C25.0544 51.7383 29.2376 50.0131 32.4011 46.5232L30.9193 45.18ZM19.9531 49.7383C14.3335 49.7383 10.1554 47.6749 7.27009 43.5874L5.63616 44.7407C8.93832 49.4188 13.7602 51.7383 19.9531 51.7383V49.7383ZM7.27009 43.5874C4.33688 39.432 2.8125 33.6255 2.8125 26.0586H0.8125C0.8125 33.8667 2.38187 40.1305 5.63616 44.7407L7.27009 43.5874ZM2.8125 26.0586C2.8125 18.4178 4.32659 12.576 7.23699 8.42141L5.59894 7.2739C2.36872 11.885 0.8125 18.1837 0.8125 26.0586H2.8125ZM7.23699 8.42141C10.0936 4.34364 14.3239 2.27344 20.0938 2.27344V0.273438C13.7699 0.273438 8.88295 2.58604 5.59894 7.2739L7.23699 8.42141ZM20.0938 2.27344C24.8773 2.27344 28.4414 3.74235 30.9361 6.57498C33.4595 9.44027 35.0068 13.8336 35.444 19.9077L37.4388 19.7642C36.9854 13.4632 35.3628 8.57535 32.437 5.25315C29.4824 1.89827 25.318 0.273438 20.0938 0.273438V2.27344ZM36.3686 18.8386L26.7358 19.5417L26.8814 21.5364L36.5142 20.8333L36.3686 18.8386ZM27.8079 20.5029C27.6766 16.8727 27.0433 13.9935 25.7933 11.9934C24.4976 9.9203 22.5719 8.85156 20.1289 8.85156V10.8516C21.8812 10.8516 23.1665 11.5641 24.0973 13.0534C25.0739 14.6159 25.6828 17.0804 25.8092 20.5752L27.8079 20.5029ZM20.1289 8.85156C17.4891 8.85156 15.4355 10.2663 13.9872 12.8007L15.7237 13.793C16.9004 11.7337 18.3624 10.8516 20.1289 10.8516V8.85156ZM13.9834 12.8075C13.2507 14.113 12.7448 15.9416 12.4156 18.2161C12.0841 20.5065 11.9219 23.3236 11.9219 26.6562H13.9219C13.9219 23.3795 14.0819 20.6654 14.395 18.5026C14.7103 16.324 15.1712 14.7776 15.7275 13.7863L13.9834 12.8075ZM11.9219 26.6562C11.9219 32.5622 12.5082 36.8593 13.8338 39.3285L15.5959 38.3825C14.5308 36.3985 13.9219 32.5628 13.9219 26.6562H11.9219ZM13.8359 39.3324C14.5011 40.5584 15.3605 41.5274 16.4326 42.186C17.5071 42.8462 18.7394 43.1602 20.0938 43.1602V41.1602C19.0575 41.1602 18.198 40.9233 17.4795 40.4819C16.7586 40.039 16.1239 39.3556 15.5938 38.3786L13.8359 39.3324ZM20.0938 43.1602C22.3493 43.1602 24.1771 42.1923 25.4904 40.3278C26.7633 38.5206 27.5259 35.9159 27.8734 32.6326L25.8845 32.4221C25.5523 35.5607 24.8441 37.7723 23.8553 39.1761C22.9069 40.5225 21.682 41.1602 20.0938 41.1602V43.1602ZM58.1328 23.0703L57.1987 23.4275L57.2034 23.4393L58.1328 23.0703ZM51.6641 22.9648L52.5802 23.3657L52.5825 23.3605L51.6641 22.9648ZM58.2031 41.3164L59.1464 41.6485L59.1478 41.6444L58.2031 41.3164ZM68.3125 32.2461C68.3125 38.3078 67.1266 42.6699 64.9203 45.5005C62.7509 48.2836 59.4733 49.7383 54.8984 49.7383V51.7383C59.933 51.7383 63.8624 50.1109 66.4977 46.73C69.0961 43.3965 70.3125 38.5125 70.3125 32.2461H68.3125ZM54.8984 49.7383C50.311 49.7383 47.0244 48.283 44.8495 45.4995C42.6379 42.6691 41.4492 38.3074 41.4492 32.2461H39.4492C39.4492 38.513 40.6687 43.3973 43.2735 46.7309C45.915 50.1115 49.853 51.7383 54.8984 51.7383V49.7383ZM41.4492 32.2461C41.4492 26.1969 42.6378 21.8442 44.8489 19.0197C47.0236 16.2419 50.3103 14.7891 54.8984 14.7891V12.7891C49.8537 12.7891 45.9158 14.4124 43.2741 17.7869C40.6689 21.1148 39.4492 25.9906 39.4492 32.2461H41.4492ZM54.8984 14.7891C59.4739 14.7891 62.7517 16.2412 64.9208 19.0188C67.1267 21.8434 68.3125 26.1965 68.3125 32.2461H70.3125C70.3125 25.991 69.0959 21.1156 66.4971 17.7878C63.8616 14.4131 59.9323 12.7891 54.8984 12.7891V14.7891ZM60.082 32.2461C60.082 29.9644 60.0024 28.032 59.8394 26.4567C59.678 24.8961 59.4292 23.6256 59.0622 22.7013L57.2034 23.4393C57.4692 24.1088 57.6951 25.1645 57.85 26.6625C58.0035 28.1458 58.082 30.0044 58.082 32.2461H60.082ZM59.0669 22.7132C58.7124 21.7862 58.1911 21.0124 57.4616 20.4732C56.7248 19.9286 55.8517 19.6797 54.8984 19.6797V21.6797C55.4921 21.6797 55.9314 21.8292 56.2728 22.0815C56.6214 22.3392 56.9438 22.7607 57.1988 23.4274L59.0669 22.7132ZM54.8984 19.6797C53.971 19.6797 53.1181 19.9183 52.3878 20.4343C51.6642 20.9455 51.1281 21.6814 50.7456 22.5692L52.5825 23.3605C52.8563 22.7248 53.1874 22.3182 53.5419 22.0677C53.8897 21.8219 54.3258 21.6797 54.8984 21.6797V19.6797ZM50.7479 22.564C50.3568 23.4579 50.0983 24.7302 49.9314 26.3047C49.7622 27.8994 49.6797 29.8828 49.6797 32.2461H51.6797C51.6797 29.9219 51.7612 28.0147 51.9202 26.5156C52.0813 24.9964 52.3151 23.9718 52.5802 23.3657L50.7479 22.564ZM49.6797 32.2461C49.6797 36.579 49.9554 39.7394 50.5748 41.5975L52.4721 40.965C51.9665 39.4481 51.6797 36.5851 51.6797 32.2461H49.6797ZM50.5748 41.5975C50.9033 42.583 51.4254 43.407 52.1891 43.9797C52.9572 44.5558 53.8828 44.8125 54.8984 44.8125V42.8125C54.2266 42.8125 53.746 42.6474 53.3891 42.3797C53.0277 42.1087 52.7061 41.667 52.4721 40.965L50.5748 41.5975ZM54.8984 44.8125C55.8859 44.8125 56.7873 44.5551 57.5402 43.9864C58.2861 43.423 58.8062 42.6147 59.1464 41.6485L57.2599 40.9843C57.0142 41.6822 56.6904 42.1219 56.3348 42.3905C55.9861 42.6539 55.5282 42.8125 54.8984 42.8125V44.8125ZM59.1478 41.6444C59.7951 39.7803 60.082 36.602 60.082 32.2461H58.082C58.082 36.609 57.7831 39.4775 57.2585 40.9884L59.1478 41.6444ZM75.0781 14.4922V13.4922H74.0781V14.4922H75.0781ZM84.4648 14.4922H85.4648V13.4922H84.4648V14.4922ZM84.4648 19.3438H83.4648L85.3791 19.7488L84.4648 19.3438ZM99.0898 15.3711L98.5147 16.1891L98.5219 16.1942L98.5293 16.1992L99.0898 15.3711ZM102.641 50V51H103.641V50H102.641ZM92.7266 50H91.7266V51H92.7266V50ZM85.8359 23.1055L86.7226 23.5681L86.7265 23.5602L85.8359 23.1055ZM84.9922 50V51H85.9922V50H84.9922ZM75.0781 50H74.0781V51H75.0781V50ZM75.0781 15.4922H84.4648V13.4922H75.0781V15.4922ZM83.4648 14.4922V19.3438H85.4648V14.4922H83.4648ZM85.3791 19.7488C86.1317 18.0503 87.1615 16.8297 88.4486 16.0259C89.7396 15.2197 91.3596 14.7891 93.3594 14.7891V12.7891C91.0701 12.7891 89.0631 13.2842 87.3892 14.3295C85.7115 15.3773 84.4387 16.9341 83.5506 18.9387L85.3791 19.7488ZM93.3594 14.7891C95.5286 14.7891 97.223 15.2809 98.5147 16.1891L99.665 14.5531C97.9567 13.3519 95.8307 12.7891 93.3594 12.7891V14.7891ZM98.5293 16.1992C99.8735 17.1091 100.686 18.2382 101.04 19.5962L102.975 19.0913C102.486 17.2149 101.353 15.6956 99.6504 14.543L98.5293 16.1992ZM101.04 19.5962C101.429 21.0852 101.641 23.4412 101.641 26.7266H103.641C103.641 23.4025 103.431 20.8367 102.975 19.0913L101.04 19.5962ZM101.641 26.7266V50H103.641V26.7266H101.641ZM102.641 49H92.7266V51H102.641V49ZM93.7266 50V26.7266H91.7266V50H93.7266ZM93.7266 26.7266C93.7266 25.4979 93.649 24.4558 93.4774 23.6241C93.3129 22.827 93.0308 22.0605 92.4908 21.5621L91.1342 23.0317C91.2036 23.0957 91.3785 23.3488 91.5187 24.0283C91.6518 24.6731 91.7266 25.5646 91.7266 26.7266H93.7266ZM92.4908 21.5621C91.6545 20.7901 90.5702 20.4531 89.3516 20.4531V22.4531C90.1954 22.4531 90.7518 22.6786 91.1342 23.0317L92.4908 21.5621ZM89.3516 20.4531C87.3816 20.4531 85.7497 21.0754 84.9453 22.6507L86.7265 23.5602C87.0472 22.9324 87.759 22.4531 89.3516 22.4531V20.4531ZM84.9494 22.6429C84.591 23.3297 84.3598 24.2365 84.2126 25.2972C84.0635 26.3717 83.9922 27.6719 83.9922 29.1875H85.9922C85.9922 27.7265 86.0615 26.5248 86.1936 25.572C86.3277 24.6053 86.5184 23.9593 86.7225 23.568L84.9494 22.6429ZM83.9922 29.1875V50H85.9922V29.1875H83.9922ZM84.9922 49H75.0781V51H84.9922V49ZM76.0781 50V14.4922H74.0781V50H76.0781ZM110.938 3.59375L110.905 2.59429L109.938 2.62606V3.59375H110.938ZM120.57 3.27734H121.57V2.24396L120.537 2.27788L120.57 3.27734ZM120.57 14.4922H119.57V15.4922H120.57V14.4922ZM127.109 14.4922H128.109V13.4922H127.109V14.4922ZM127.109 22.2969V23.2969H128.109V22.2969H127.109ZM120.57 22.2969V21.2969H119.57V22.2969H120.57ZM120.711 40.0508L119.719 40.1788L119.722 40.197L119.725 40.2152L120.711 40.0508ZM121.766 41.8438L121.122 42.6095L121.139 42.6233L121.156 42.6364L121.766 41.8438ZM127.602 42.4766H128.602V41.434L127.56 41.4774L127.602 42.4766ZM127.602 50L127.82 50.9759L128.602 50.8012V50H127.602ZM110.938 22.2969H111.938V21.2969H110.938V22.2969ZM107 22.2969H106V23.2969H107V22.2969ZM107 14.4922V13.4922H106V14.4922H107ZM110.938 14.4922V15.4922H111.938V14.4922H110.938ZM110.97 4.59321L120.603 4.2768L120.537 2.27788L110.905 2.59429L110.97 4.59321ZM119.57 3.27734V14.4922H121.57V3.27734H119.57ZM120.57 15.4922H127.109V13.4922H120.57V15.4922ZM126.109 14.4922V22.2969H128.109V14.4922H126.109ZM127.109 21.2969H120.57V23.2969H127.109V21.2969ZM119.57 22.2969V35.3398H121.57V22.2969H119.57ZM119.57 35.3398C119.57 37.7386 119.616 39.3764 119.719 40.1788L121.703 39.9228C121.619 39.272 121.57 37.7692 121.57 35.3398H119.57ZM119.725 40.2152C119.884 41.1712 120.369 41.9763 121.122 42.6095L122.409 41.078C121.991 40.7269 121.772 40.3366 121.697 39.8864L119.725 40.2152ZM121.156 42.6364C122.035 43.3123 123.322 43.5469 124.789 43.5469V41.5469C123.443 41.5469 122.715 41.3127 122.375 41.0511L121.156 42.6364ZM124.789 43.5469C125.558 43.5469 126.51 43.5229 127.643 43.4757L127.56 41.4774C126.443 41.524 125.52 41.5469 124.789 41.5469V43.5469ZM126.602 42.4766V50H128.602V42.4766H126.602ZM127.384 49.0241C125.236 49.5038 123.295 49.7383 121.555 49.7383V51.7383C123.471 51.7383 125.561 51.4806 127.82 50.9759L127.384 49.0241ZM121.555 49.7383C118.661 49.7383 116.604 49.1808 115.249 48.2043L114.079 49.8269C115.912 51.1473 118.449 51.7383 121.555 51.7383V49.7383ZM115.249 48.2043C113.825 47.1785 112.955 45.9279 112.574 44.4427L110.637 44.9401C111.146 46.9237 112.316 48.5559 114.079 49.8269L115.249 48.2043ZM112.574 44.4427C112.162 42.8377 111.938 40.1904 111.938 36.4297H109.938C109.938 40.2158 110.158 43.0764 110.637 44.9401L112.574 44.4427ZM111.938 36.4297V22.2969H109.938V36.4297H111.938ZM110.938 21.2969H107V23.2969H110.938V21.2969ZM108 22.2969V14.4922H106V22.2969H108ZM107 15.4922H110.938V13.4922H107V15.4922ZM111.938 14.4922V3.59375H109.938V14.4922H111.938ZM141.664 25.7773L141.567 26.7726L142.589 26.8721L142.662 25.8481L141.664 25.7773ZM132.277 24.8633L131.285 24.7392L131.158 25.759L132.18 25.8586L132.277 24.8633ZM136.812 16.6367L136.218 15.8324L136.215 15.835L136.812 16.6367ZM154.637 15.6875L154.098 16.53L154.105 16.5344L154.637 15.6875ZM158.434 20.1172L157.477 20.4094L157.481 20.4215L158.434 20.1172ZM159.84 50V51H161.418L160.744 49.573L159.84 50ZM150.664 50L149.718 50.3231L149.949 51H150.664V50ZM150.172 44.5508H151.172L149.288 44.0836L150.172 44.5508ZM133.684 48.2773L132.991 48.9989L132.996 49.0038L133.684 48.2773ZM135.02 31.8594L135.654 32.6321L135.658 32.6287L135.02 31.8594ZM149.363 27.957L149.424 28.9552L150.363 28.8981V27.957H149.363ZM148.625 21.6992L147.735 22.1555L147.74 22.1645L147.745 22.1733L148.625 21.6992ZM149.363 33.0195H150.363V31.8993L149.25 32.0259L149.363 33.0195ZM143.176 34.9531L143.785 35.7458L143.788 35.7441L143.176 34.9531ZM147.887 42.2305L147.077 41.644L147.075 41.6465L147.887 42.2305ZM141.761 24.7821L132.374 23.868L132.18 25.8586L141.567 26.7726L141.761 24.7821ZM133.27 24.9873C133.685 21.6604 135.077 19.1778 137.41 17.4385L136.215 15.835C133.392 17.9394 131.76 20.9412 131.285 24.7392L133.27 24.9873ZM137.407 17.441C139.802 15.6719 142.85 14.7539 146.621 14.7539V12.7539C142.517 12.7539 139.027 13.7578 136.218 15.8324L137.407 17.441ZM146.621 14.7539C149.83 14.7539 152.295 15.3766 154.098 16.5299L155.175 14.8451C152.948 13.4203 150.068 12.7539 146.621 12.7539V14.7539ZM154.105 16.5344C155.989 17.7171 157.053 19.0215 157.477 20.4094L159.39 19.825C158.783 17.8379 157.316 16.1892 155.168 14.8406L154.105 16.5344ZM157.481 20.4215C157.971 21.9551 158.242 24.4397 158.242 27.957H160.242C160.242 24.3962 159.974 21.6543 159.386 19.8129L157.481 20.4215ZM158.242 27.957V42.125H160.242V27.957H158.242ZM158.242 42.125C158.242 44.339 158.292 46.1253 158.394 47.4741C158.446 48.1481 158.511 48.7271 158.593 49.203C158.672 49.6617 158.777 50.0914 158.936 50.427L160.744 49.573C160.703 49.4867 160.634 49.2719 160.564 48.8634C160.496 48.4722 160.437 47.9613 160.389 47.3228C160.292 46.0465 160.242 44.3172 160.242 42.125H158.242ZM159.84 49H150.664V51H159.84V49ZM151.61 49.6769C151.343 48.8937 151.172 47.2358 151.172 44.5508H149.172C149.172 47.2095 149.329 49.1844 149.718 50.3231L151.61 49.6769ZM149.288 44.0836C148.262 46.025 147.014 47.4273 145.566 48.3474C144.122 49.2647 142.424 49.7383 140.434 49.7383V51.7383C142.756 51.7383 144.837 51.1806 146.639 50.0354C148.437 48.893 149.902 47.2015 151.056 45.018L149.288 44.0836ZM140.434 49.7383C137.88 49.7383 135.89 48.9881 134.371 47.5509L132.996 49.0038C134.946 50.8478 137.456 51.7383 140.434 51.7383V49.7383ZM134.376 47.5558C132.895 46.1346 132.082 44.0169 132.082 41.0352H130.082C130.082 44.3816 131.004 47.0919 132.991 48.9989L134.376 47.5558ZM132.082 41.0352C132.082 37.318 133.3 34.5658 135.654 32.6321L134.385 31.0866C131.489 33.4654 130.082 36.8304 130.082 41.0352H132.082ZM135.658 32.6287C138.02 30.6673 142.517 29.3752 149.424 28.9552L149.303 26.9589C142.335 27.3826 137.269 28.692 134.381 31.09L135.658 32.6287ZM150.363 27.957V26.6211H148.363V27.957H150.363ZM150.363 26.6211C150.363 24.2493 150.128 22.3804 149.505 21.2251L147.745 22.1733C148.107 22.8462 148.363 24.2585 148.363 26.6211H150.363ZM149.515 21.2429C148.816 19.8794 147.455 19.3281 145.848 19.3281V21.3281C147.006 21.3281 147.497 21.6909 147.735 22.1555L149.515 21.2429ZM145.848 19.3281C144.309 19.3281 143.018 19.8984 142.11 21.0815C141.242 22.212 140.802 23.8003 140.667 25.7066L142.662 25.8481C142.784 24.1216 143.17 22.9852 143.697 22.2994C144.183 21.6661 144.855 21.3281 145.848 21.3281V19.3281ZM149.25 32.0259C146.317 32.3598 144.028 33.0296 142.564 34.1622L143.788 35.7441C144.808 34.9548 146.644 34.3355 149.476 34.0131L149.25 32.0259ZM142.566 34.1605C141.003 35.363 140.348 37.3238 140.348 39.7344H142.348C142.348 37.6449 142.911 36.4182 143.785 35.7457L142.566 34.1605ZM140.348 39.7344C140.348 41.3273 140.635 42.7032 141.368 43.7013C142.143 44.757 143.299 45.2344 144.652 45.2344V43.2344C143.803 43.2344 143.306 42.9618 142.98 42.5175C142.611 42.0155 142.348 41.1415 142.348 39.7344H140.348ZM144.652 45.2344C146.281 45.2344 147.626 44.3053 148.699 42.8144L147.075 41.6465C146.225 42.8275 145.414 43.2344 144.652 43.2344V45.2344ZM148.697 42.817C149.884 41.1779 150.363 38.4027 150.363 34.7773H148.363C148.363 38.3708 147.859 40.5643 147.077 41.644L148.697 42.817ZM150.363 34.7773V33.0195H148.363V34.7773H150.363ZM193.062 27.5703L193.101 28.5696L194.142 28.5299L194.059 27.4915L193.062 27.5703ZM183.852 27.9219L182.854 27.9863L182.916 28.9583L183.89 28.9211L183.852 27.9219ZM182.797 23L181.902 23.4472L181.906 23.4548L182.797 23ZM176.152 40.2969L175.255 40.7389L175.261 40.7493L176.152 40.2969ZM183.852 36.1484L183.916 35.1505L182.907 35.085L182.853 36.095L183.852 36.1484ZM193.062 36.7461L194.059 36.8337L194.148 35.8144L193.127 35.7482L193.062 36.7461ZM168.629 46.1328L167.84 46.748L167.846 46.7546L168.629 46.1328ZM168.805 18.5352L168.027 17.9069L168.024 17.9105L168.805 18.5352ZM193.024 26.571L183.813 26.9226L183.89 28.9211L193.101 28.5696L193.024 26.571ZM184.849 27.8575C184.706 25.6301 184.342 23.8279 183.687 22.5452L181.906 23.4548C182.376 24.3752 182.716 25.8543 182.854 27.9863L184.849 27.8575ZM183.691 22.5528C183.337 21.8432 182.835 21.2664 182.173 20.8741C181.514 20.4838 180.759 20.3125 179.949 20.3125V22.3125C180.476 22.3125 180.863 22.4224 181.153 22.5947C181.44 22.7648 181.695 23.0318 181.902 23.4472L183.691 22.5528ZM179.949 20.3125C178.932 20.3125 178 20.5829 177.192 21.1479C176.393 21.7068 175.773 22.5137 175.302 23.5015C174.374 25.4504 173.957 28.2493 173.957 31.7891H175.957C175.957 28.3445 176.372 25.9051 177.108 24.3618C177.469 23.6035 177.889 23.1008 178.338 22.7867C178.779 22.4786 179.302 22.3125 179.949 22.3125V20.3125ZM173.957 31.7891C173.957 35.8515 174.347 38.8957 175.255 40.7389L177.049 39.8549C176.364 38.4637 175.957 35.836 175.957 31.7891H173.957ZM175.261 40.7493C175.729 41.6732 176.339 42.4265 177.116 42.947C177.9 43.4723 178.798 43.7227 179.773 43.7227V41.7227C179.155 41.7227 178.652 41.5687 178.229 41.2854C177.799 40.9973 177.396 40.5377 177.044 39.8445L175.261 40.7493ZM179.773 43.7227C181.377 43.7227 182.652 42.9824 183.506 41.6062C184.316 40.3 184.729 38.458 184.85 36.2018L182.853 36.095C182.739 38.2217 182.356 39.6668 181.806 40.552C181.301 41.3672 180.654 41.7227 179.773 41.7227V43.7227ZM183.787 37.1463L192.998 37.744L193.127 35.7482L183.916 35.1505L183.787 37.1463ZM192.066 36.6585C191.668 41.1864 190.355 44.4268 188.258 46.5349C186.175 48.6285 183.185 49.7383 179.141 49.7383V51.7383C183.558 51.7383 187.118 50.5161 189.676 47.9456C192.219 45.3896 193.637 41.6339 194.059 36.8337L192.066 36.6585ZM179.141 49.7383C174.819 49.7383 171.627 48.3012 169.412 45.511L167.846 46.7546C170.506 50.1051 174.322 51.7383 179.141 51.7383V49.7383ZM169.417 45.5176C167.198 42.6733 166.008 38.3385 166.008 32.3516H164.008C164.008 38.5521 165.232 43.4048 167.841 46.748L169.417 45.5176ZM166.008 32.3516C166.008 26.4244 167.251 22.0779 169.586 19.1599L168.024 17.9105C165.296 21.3206 164.008 26.1849 164.008 32.3516H166.008ZM169.583 19.1634C171.921 16.2668 175.192 14.7891 179.527 14.7891V12.7891C174.676 12.7891 170.797 14.4754 168.027 17.907L169.583 19.1634ZM179.527 14.7891C183.489 14.7891 186.403 15.8807 188.42 17.9351C190.453 20.005 191.713 23.1904 192.066 27.6491L194.059 27.4915C193.685 22.7627 192.326 19.0575 189.847 16.5337C187.353 13.9943 183.863 12.7891 179.527 12.7891V14.7891ZM199.953 3.59375L199.92 2.59429L198.953 2.62606V3.59375H199.953ZM209.586 3.27734H210.586V2.24396L209.553 2.27788L209.586 3.27734ZM209.586 14.4922H208.586V15.4922H209.586V14.4922ZM216.125 14.4922H217.125V13.4922H216.125V14.4922ZM216.125 22.2969V23.2969H217.125V22.2969H216.125ZM209.586 22.2969V21.2969H208.586V22.2969H209.586ZM209.727 40.0508L208.735 40.1788L208.737 40.197L208.74 40.2152L209.727 40.0508ZM210.781 41.8438L210.138 42.6095L210.155 42.6233L210.172 42.6364L210.781 41.8438ZM216.617 42.4766H217.617V41.434L216.576 41.4774L216.617 42.4766ZM216.617 50L216.835 50.9759L217.617 50.8012V50H216.617ZM199.953 22.2969H200.953V21.2969H199.953V22.2969ZM196.016 22.2969H195.016V23.2969H196.016V22.2969ZM196.016 14.4922V13.4922H195.016V14.4922H196.016ZM199.953 14.4922V15.4922H200.953V14.4922H199.953ZM199.986 4.59321L209.619 4.2768L209.553 2.27788L199.92 2.59429L199.986 4.59321ZM208.586 3.27734V14.4922H210.586V3.27734H208.586ZM209.586 15.4922H216.125V13.4922H209.586V15.4922ZM215.125 14.4922V22.2969H217.125V14.4922H215.125ZM216.125 21.2969H209.586V23.2969H216.125V21.2969ZM208.586 22.2969V35.3398H210.586V22.2969H208.586ZM208.586 35.3398C208.586 37.7386 208.631 39.3764 208.735 40.1788L210.718 39.9228C210.634 39.272 210.586 37.7692 210.586 35.3398H208.586ZM208.74 40.2152C208.9 41.1712 209.384 41.9763 210.138 42.6095L211.424 41.078C211.006 40.7269 210.788 40.3366 210.713 39.8864L208.74 40.2152ZM210.172 42.6364C211.05 43.3123 212.338 43.5469 213.805 43.5469V41.5469C212.459 41.5469 211.731 41.3127 211.391 41.0511L210.172 42.6364ZM213.805 43.5469C214.574 43.5469 215.526 43.5229 216.659 43.4757L216.576 41.4774C215.458 41.524 214.536 41.5469 213.805 41.5469V43.5469ZM215.617 42.4766V50H217.617V42.4766H215.617ZM216.399 49.0241C214.252 49.5038 212.31 49.7383 210.57 49.7383V51.7383C212.487 51.7383 214.576 51.4806 216.835 50.9759L216.399 49.0241ZM210.57 49.7383C207.676 49.7383 205.619 49.1808 204.264 48.2043L203.095 49.8269C204.927 51.1473 207.464 51.7383 210.57 51.7383V49.7383ZM204.264 48.2043C202.841 47.1785 201.971 45.9279 201.59 44.4427L199.653 44.9401C200.162 46.9237 201.331 48.5559 203.095 49.8269L204.264 48.2043ZM201.59 44.4427C201.178 42.8377 200.953 40.1904 200.953 36.4297H198.953C198.953 40.2158 199.174 43.0764 199.653 44.9401L201.59 44.4427ZM200.953 36.4297V22.2969H198.953V36.4297H200.953ZM199.953 21.2969H196.016V23.2969H199.953V21.2969ZM197.016 22.2969V14.4922H195.016V22.2969H197.016ZM196.016 15.4922H199.953V13.4922H196.016V15.4922ZM200.953 14.4922V3.59375H198.953V14.4922H200.953Z" fill="#F5F5F5"/>
</svg>
