<svg width="256" height="57" viewBox="0 0 256 57" fill="none" xmlns="http://www.w3.org/2000/svg">
<path pathLength="1" d="M14.5625 1.34375V0.34375H13.8187L13.6048 1.05608L14.5625 1.34375ZM24 1.34375L24.9615 1.06903L24.7543 0.34375H24V1.34375ZM36.1875 44V45H37.5132L37.149 43.7253L36.1875 44ZM26.5938 44L25.6216 44.2344L25.8062 45H26.5938V44ZM24.4688 35.1875L25.4409 34.9531L25.2563 34.1875H24.4688V35.1875ZM12.4688 35.1875V34.1875H11.6785L11.4958 34.9563L12.4688 35.1875ZM10.375 44V45H11.1652L11.3479 44.2312L10.375 44ZM1.75 44L0.79227 43.7123L0.405498 45H1.75V44ZM22.6875 27.875V28.875H23.9633L23.6586 27.6362L22.6875 27.875ZM18.4062 10.4688L19.3773 10.2299L17.4336 10.2365L18.4062 10.4688ZM14.25 27.875L13.2773 27.6427L12.9831 28.875H14.25V27.875ZM14.5625 2.34375H24V0.34375H14.5625V2.34375ZM23.0385 1.61847L35.226 44.2747L37.149 43.7253L24.9615 1.06903L23.0385 1.61847ZM36.1875 43H26.5938V45H36.1875V43ZM27.5659 43.7656L25.4409 34.9531L23.4966 35.4219L25.6216 44.2344L27.5659 43.7656ZM24.4688 34.1875H12.4688V36.1875H24.4688V34.1875ZM11.4958 34.9563L9.40208 43.7688L11.3479 44.2312L13.4417 35.4187L11.4958 34.9563ZM10.375 43H1.75V45H10.375V43ZM2.70773 44.2877L15.5202 1.63142L13.6048 1.05608L0.79227 43.7123L2.70773 44.2877ZM23.6586 27.6362L19.3773 10.2299L17.4352 10.7076L21.7164 28.1138L23.6586 27.6362ZM17.4336 10.2365L13.2773 27.6427L15.2227 28.1073L19.3789 10.701L17.4336 10.2365ZM14.25 28.875H22.6875V26.875H14.25V28.875ZM38.9688 1.34375V0.34375H37.9688V1.34375H38.9688ZM47.7812 1.34375H48.7812V0.34375H47.7812V1.34375ZM47.7812 44V45H48.7812V44H47.7812ZM38.9688 44H37.9688V45H38.9688V44ZM38.9688 2.34375H47.7812V0.34375H38.9688V2.34375ZM46.7812 1.34375V44H48.7812V1.34375H46.7812ZM47.7812 43H38.9688V45H47.7812V43ZM39.9688 44V1.34375H37.9688V44H39.9688ZM54.2188 1.34375V0.34375H53.2188V1.34375H54.2188ZM63.0312 1.34375H64.0312V0.34375H63.0312V1.34375ZM63.0312 44V45H64.0312V44H63.0312ZM54.2188 44H53.2188V45H54.2188V44ZM54.2188 2.34375H63.0312V0.34375H54.2188V2.34375ZM62.0312 1.34375V44H64.0312V1.34375H62.0312ZM63.0312 43H54.2188V45H63.0312V43ZM55.2188 44V1.34375H53.2188V44H55.2188ZM77.9375 22.4688L77.8406 23.464L78.8623 23.5635L78.935 22.5395L77.9375 22.4688ZM69.5938 21.6562L68.6015 21.5322L68.474 22.5519L69.4968 22.6515L69.5938 21.6562ZM73.625 14.3438L73.0308 13.5394L73.0273 13.542L73.625 14.3438ZM89.4688 13.5L88.93 14.3425L88.937 14.3469L89.4688 13.5ZM92.8438 17.4375L91.8873 17.7297L91.8912 17.7418L92.8438 17.4375ZM94.0938 44V45H95.6719L94.998 43.573L94.0938 44ZM85.9375 44L84.9912 44.3231L85.2223 45H85.9375V44ZM85.5 39.1562H86.5L84.6158 38.6891L85.5 39.1562ZM70.8438 42.4688L70.1514 43.1904L70.1566 43.1952L70.8438 42.4688ZM72.0312 27.875L72.666 28.6477L72.6701 28.6443L72.0312 27.875ZM84.7812 24.4062L84.8419 25.4044L85.7812 25.3473V24.4062H84.7812ZM84.125 18.8438L83.2352 19.3001L83.2398 19.309L83.2445 19.3178L84.125 18.8438ZM84.7812 28.9062H85.7812V27.786L84.6682 27.9127L84.7812 28.9062ZM79.2812 30.625L79.891 31.4176L79.8931 31.416L79.2812 30.625ZM83.4688 37.0938L82.6588 36.5072L82.6569 36.5098L83.4688 37.0938ZM78.0344 21.4735L69.6907 20.661L69.4968 22.6515L77.8406 23.464L78.0344 21.4735ZM70.586 21.7803C70.9524 18.8492 72.1758 16.6713 74.2227 15.1455L73.0273 13.542C70.4908 15.4328 69.0267 18.13 68.6015 21.5322L70.586 21.7803ZM74.2192 15.1481C76.325 13.5924 79.0101 12.7812 82.3438 12.7812V10.7812C78.6774 10.7812 75.55 11.6784 73.0308 13.5394L74.2192 15.1481ZM82.3438 12.7812C85.1829 12.7812 87.3505 13.3323 88.93 14.3424L90.0075 12.6576C88.0037 11.376 85.4213 10.7812 82.3438 10.7812V12.7812ZM88.937 14.3469C90.5966 15.389 91.5206 16.5293 91.8874 17.7297L93.8001 17.1453C93.2502 15.3457 91.9242 13.861 90.0005 12.6531L88.937 14.3469ZM91.8912 17.7418C92.3212 19.0879 92.5625 21.2822 92.5625 24.4062H94.5625C94.5625 21.2387 94.3247 18.7871 93.7963 17.1332L91.8912 17.7418ZM92.5625 24.4062V37H94.5625V24.4062H92.5625ZM92.5625 37C92.5625 38.9692 92.6069 40.5602 92.6982 41.7632C92.7438 42.3642 92.8021 42.8827 92.8758 43.3104C92.9466 43.721 93.0421 44.1148 93.1895 44.427L94.998 43.573C94.9683 43.5102 94.9089 43.3311 94.8468 42.9708C94.7877 42.6278 94.7354 42.1774 94.6924 41.6118C94.6067 40.4814 94.5625 38.9474 94.5625 37H92.5625ZM94.0938 43H85.9375V45H94.0938V43ZM86.8838 43.6769C86.6529 43.0005 86.5 41.5444 86.5 39.1562H84.5C84.5 41.5181 84.6388 43.2911 84.9912 44.3231L86.8838 43.6769ZM84.6158 38.6891C83.7111 40.4013 82.6142 41.6318 81.3465 42.4372C80.0831 43.24 78.5942 43.6562 76.8438 43.6562V45.6562C78.9266 45.6562 80.7971 45.1558 82.4191 44.1253C84.0369 43.0974 85.3514 41.5779 86.3842 39.6234L84.6158 38.6891ZM76.8438 43.6562C74.5976 43.6562 72.8576 42.9972 71.5309 41.7423L70.1566 43.1952C71.9132 44.8569 74.1733 45.6562 76.8438 45.6562V43.6562ZM71.5361 41.7472C70.2476 40.511 69.5312 38.6614 69.5312 36.0312H67.5312C67.5312 39.0261 68.3565 41.4682 70.1514 43.1903L71.5361 41.7472ZM69.5312 36.0312C69.5312 32.7542 70.6036 30.3419 72.666 28.6477L71.3965 27.1023C68.7923 29.2415 67.5312 32.2666 67.5312 36.0312H69.5312ZM72.6701 28.6443C74.7405 26.9252 78.7055 25.7776 84.8419 25.4044L84.7206 23.4081C78.5236 23.7849 73.9887 24.9498 71.3924 27.1057L72.6701 28.6443ZM85.7812 24.4062V23.2188H83.7812V24.4062H85.7812ZM85.7812 23.2188C85.7812 21.11 85.5728 19.4233 85.0055 18.3697L83.2445 19.3178C83.5522 19.8892 83.7812 21.1192 83.7812 23.2188H85.7812ZM85.0148 18.3874C84.3677 17.1255 83.1099 16.625 81.6562 16.625V18.625C82.6609 18.625 83.049 18.937 83.2352 19.3001L85.0148 18.3874ZM81.6562 16.625C80.258 16.625 79.0767 17.1448 78.2459 18.227C77.4554 19.2566 77.061 20.6935 76.94 22.398L78.935 22.5395C79.0432 21.0148 79.3832 20.0298 79.8323 19.4449C80.241 18.9125 80.8045 18.625 81.6562 18.625V16.625ZM84.6682 27.9127C82.055 28.2101 79.9954 28.8082 78.6694 29.834L79.8931 31.416C80.7754 30.7335 82.3825 30.1857 84.8943 29.8998L84.6682 27.9127ZM78.6715 29.8324C77.2437 30.9307 76.6562 32.7144 76.6562 34.875H78.6562C78.6562 33.0356 79.1522 31.9859 79.891 31.4176L78.6715 29.8324ZM76.6562 34.875C76.6562 36.3013 76.9129 37.5522 77.5846 38.4669C78.2987 39.4393 79.3626 39.875 80.5938 39.875V37.875C79.8666 37.875 79.4617 37.6441 79.1966 37.2831C78.8892 36.8645 78.6562 36.1154 78.6562 34.875H76.6562ZM80.5938 39.875C82.0898 39.875 83.3149 39.0201 84.2806 37.6777L82.6569 36.5098C81.9142 37.5424 81.2227 37.875 80.5938 37.875V39.875ZM84.2787 37.6803C85.3563 36.1922 85.7812 33.693 85.7812 30.4688H83.7812C83.7812 33.6611 83.3312 35.5786 82.6588 36.5072L84.2787 37.6803ZM85.7812 30.4688V28.9062H83.7812V30.4688H85.7812ZM100.062 12.4375V11.4375H99.0625V12.4375H100.062ZM108.406 12.4375H109.406V11.4375H108.406V12.4375ZM108.406 16.75H107.406L109.321 17.1551L108.406 16.75ZM121.406 13.2188L120.831 14.0368L120.838 14.0419L120.846 14.0469L121.406 13.2188ZM124.562 44V45H125.562V44H124.562ZM115.75 44H114.75V45H115.75V44ZM109.625 20.0938L110.512 20.5563L110.516 20.5485L109.625 20.0938ZM108.875 44V45H109.875V44H108.875ZM100.062 44H99.0625V45H100.062V44ZM100.062 13.4375H108.406V11.4375H100.062V13.4375ZM107.406 12.4375V16.75H109.406V12.4375H107.406ZM109.321 17.1551C109.982 15.6623 110.884 14.596 112.006 13.8951C113.132 13.1917 114.551 12.8125 116.312 12.8125V10.8125C114.262 10.8125 112.456 11.2562 110.947 12.1987C109.434 13.1436 108.289 14.5461 107.492 16.3449L109.321 17.1551ZM116.312 12.8125C118.224 12.8125 119.706 13.2457 120.831 14.0368L121.981 12.4007C120.44 11.3168 118.526 10.8125 116.312 10.8125V12.8125ZM120.846 14.0469C122.021 14.8422 122.725 15.8242 123.032 17.0024L124.968 16.4976C124.525 14.8008 123.5 13.4286 121.967 12.3906L120.846 14.0469ZM123.032 17.0024C123.374 18.3118 123.562 20.3943 123.562 23.3125H125.562C125.562 20.3557 125.376 18.0632 124.968 16.4976L123.032 17.0024ZM123.562 23.3125V44H125.562V23.3125H123.562ZM124.562 43H115.75V45H124.562V43ZM116.75 44V23.3125H114.75V44H116.75ZM116.75 23.3125C116.75 22.2166 116.681 21.2819 116.526 20.5323C116.379 19.8172 116.122 19.1074 115.616 18.6402L114.259 20.1098C114.295 20.1426 114.444 20.339 114.568 20.9365C114.684 21.4993 114.75 22.2834 114.75 23.3125H116.75ZM115.616 18.6402C114.847 17.9307 113.854 17.625 112.75 17.625V19.625C113.479 19.625 113.944 19.8193 114.259 20.1098L115.616 18.6402ZM112.75 17.625C110.978 17.625 109.476 18.1861 108.734 19.639L110.516 20.5485C110.774 20.0431 111.355 19.625 112.75 19.625V17.625ZM108.738 19.6312C108.411 20.2581 108.204 21.0786 108.072 22.0267C107.939 22.9886 107.875 24.1498 107.875 25.5H109.875C109.875 24.2044 109.936 23.1416 110.053 22.3015C110.171 21.4474 110.339 20.8877 110.512 20.5563L108.738 19.6312ZM107.875 25.5V44H109.875V25.5H107.875ZM108.875 43H100.062V45H108.875V43ZM101.062 44V12.4375H99.0625V44H101.062ZM143.344 1.34375V0.34375H142.344V1.34375H143.344ZM152.719 1.34375H153.719V0.34375H152.719V1.34375ZM152.719 36H151.719V37H152.719V36ZM166.469 36H167.469V35H166.469V36ZM166.469 44V45H167.469V44H166.469ZM143.344 44H142.344V45H143.344V44ZM143.344 2.34375H152.719V0.34375H143.344V2.34375ZM151.719 1.34375V36H153.719V1.34375H151.719ZM152.719 37H166.469V35H152.719V37ZM165.469 36V44H167.469V36H165.469ZM166.469 43H143.344V45H166.469V43ZM144.344 44V1.34375H142.344V44H144.344ZM178.25 22.4688L178.153 23.464L179.175 23.5635L179.247 22.5395L178.25 22.4688ZM169.906 21.6562L168.914 21.5322L168.787 22.5519L169.809 22.6515L169.906 21.6562ZM173.938 14.3438L173.343 13.5394L173.34 13.542L173.938 14.3438ZM189.781 13.5L189.242 14.3425L189.249 14.3469L189.781 13.5ZM193.156 17.4375L192.2 17.7297L192.204 17.7418L193.156 17.4375ZM194.406 44V45H195.984L195.31 43.573L194.406 44ZM186.25 44L185.304 44.3231L185.535 45H186.25V44ZM185.812 39.1562H186.812L184.928 38.6891L185.812 39.1562ZM171.156 42.4688L170.464 43.1904L170.469 43.1952L171.156 42.4688ZM172.344 27.875L172.978 28.6477L172.983 28.6443L172.344 27.875ZM185.094 24.4062L185.154 25.4044L186.094 25.3473V24.4062H185.094ZM184.438 18.8438L183.548 19.3001L183.552 19.309L183.557 19.3178L184.438 18.8438ZM185.094 28.9062H186.094V27.786L184.981 27.9127L185.094 28.9062ZM179.594 30.625L180.203 31.4176L180.206 31.416L179.594 30.625ZM183.781 37.0938L182.971 36.5072L182.969 36.5098L183.781 37.0938ZM178.347 21.4735L170.003 20.661L169.809 22.6515L178.153 23.464L178.347 21.4735ZM170.899 21.7803C171.265 18.8492 172.488 16.6713 174.535 15.1455L173.34 13.542C170.803 15.4328 169.339 18.13 168.914 21.5322L170.899 21.7803ZM174.532 15.1481C176.638 13.5924 179.323 12.7812 182.656 12.7812V10.7812C178.99 10.7812 175.862 11.6784 173.343 13.5394L174.532 15.1481ZM182.656 12.7812C185.495 12.7812 187.663 13.3323 189.242 14.3424L190.32 12.6576C188.316 11.376 185.734 10.7812 182.656 10.7812V12.7812ZM189.249 14.3469C190.909 15.389 191.833 16.5293 192.2 17.7297L194.113 17.1453C193.563 15.3457 192.237 13.861 190.313 12.6531L189.249 14.3469ZM192.204 17.7418C192.634 19.0879 192.875 21.2822 192.875 24.4062H194.875C194.875 21.2387 194.637 18.7871 194.109 17.1332L192.204 17.7418ZM192.875 24.4062V37H194.875V24.4062H192.875ZM192.875 37C192.875 38.9692 192.919 40.5602 193.011 41.7632C193.056 42.3642 193.115 42.8827 193.188 43.3104C193.259 43.721 193.355 44.1148 193.502 44.427L195.31 43.573C195.281 43.5102 195.221 43.3311 195.159 42.9708C195.1 42.6278 195.048 42.1774 195.005 41.6118C194.919 40.4814 194.875 38.9474 194.875 37H192.875ZM194.406 43H186.25V45H194.406V43ZM187.196 43.6769C186.965 43.0005 186.812 41.5444 186.812 39.1562H184.812C184.812 41.5181 184.951 43.2911 185.304 44.3231L187.196 43.6769ZM184.928 38.6891C184.024 40.4013 182.927 41.6318 181.659 42.4372C180.396 43.24 178.907 43.6562 177.156 43.6562V45.6562C179.239 45.6562 181.11 45.1558 182.732 44.1253C184.349 43.0974 185.664 41.5779 186.697 39.6234L184.928 38.6891ZM177.156 43.6562C174.91 43.6562 173.17 42.9972 171.843 41.7423L170.469 43.1952C172.226 44.8569 174.486 45.6562 177.156 45.6562V43.6562ZM171.849 41.7472C170.56 40.511 169.844 38.6614 169.844 36.0312H167.844C167.844 39.0261 168.669 41.4682 170.464 43.1903L171.849 41.7472ZM169.844 36.0312C169.844 32.7542 170.916 30.3419 172.978 28.6477L171.709 27.1023C169.105 29.2415 167.844 32.2666 167.844 36.0312H169.844ZM172.983 28.6443C175.053 26.9252 179.018 25.7776 185.154 25.4044L185.033 23.4081C178.836 23.7849 174.301 24.9498 171.705 27.1057L172.983 28.6443ZM186.094 24.4062V23.2188H184.094V24.4062H186.094ZM186.094 23.2188C186.094 21.11 185.885 19.4233 185.318 18.3697L183.557 19.3178C183.865 19.8892 184.094 21.1192 184.094 23.2188H186.094ZM185.327 18.3874C184.68 17.1255 183.422 16.625 181.969 16.625V18.625C182.973 18.625 183.361 18.937 183.548 19.3001L185.327 18.3874ZM181.969 16.625C180.571 16.625 179.389 17.1448 178.558 18.227C177.768 19.2566 177.373 20.6935 177.253 22.398L179.247 22.5395C179.356 21.0148 179.696 20.0298 180.145 19.4449C180.554 18.9125 181.117 18.625 181.969 18.625V16.625ZM184.981 27.9127C182.367 28.2101 180.308 28.8082 178.982 29.834L180.206 31.416C181.088 30.7335 182.695 30.1857 185.207 29.8998L184.981 27.9127ZM178.984 29.8324C177.556 30.9307 176.969 32.7144 176.969 34.875H178.969C178.969 33.0356 179.465 31.9859 180.203 31.4176L178.984 29.8324ZM176.969 34.875C176.969 36.3013 177.225 37.5522 177.897 38.4669C178.611 39.4393 179.675 39.875 180.906 39.875V37.875C180.179 37.875 179.774 37.6441 179.509 37.2831C179.202 36.8645 178.969 36.1154 178.969 34.875H176.969ZM180.906 39.875C182.402 39.875 183.627 39.0201 184.593 37.6777L182.969 36.5098C182.227 37.5424 181.535 37.875 180.906 37.875V39.875ZM184.591 37.6803C185.669 36.1922 186.094 33.693 186.094 30.4688H184.094C184.094 33.6611 183.644 35.5786 182.971 36.5072L184.591 37.6803ZM186.094 30.4688V28.9062H184.094V30.4688H186.094ZM227.219 7.25H228.219V6.50176L227.501 6.29063L227.219 7.25ZM227.219 13L226.976 13.9701L228.219 14.2808V13H227.219ZM221.969 15.5938L220.99 15.3894L220.883 15.9023L221.244 16.2823L221.969 15.5938ZM221.125 28.7812L221.752 29.5606L221.756 29.5569L221.125 28.7812ZM208.781 30.8125L209.02 29.8415L208.643 29.7486L208.302 29.9346L208.781 30.8125ZM214.188 35.625L214.247 34.6267L214.242 34.6265L214.188 35.625ZM221.281 36.5625L221.012 37.5255L221.015 37.5264L221.281 36.5625ZM225.219 39.25L224.426 39.8597L224.432 39.8673L225.219 39.25ZM203.625 41.75L203.941 42.6987L206.313 41.9079L204.05 40.8449L203.625 41.75ZM204.938 29.3438L205.405 30.2278L207.135 29.3129L205.38 28.4469L204.938 29.3438ZM203.469 14.2812L202.864 13.4849L202.86 13.4878L203.469 14.2812ZM218.875 13.1875L218.476 14.1043L219.731 14.6512L219.87 13.2888L218.875 13.1875ZM210.031 17.7812L209.164 17.2828L209.16 17.2899L210.031 17.7812ZM208.5 42.625L208.628 41.6332L208.343 41.5964L208.082 41.7167L208.5 42.625ZM218.5 44.3125L217.747 44.971L217.749 44.9731L218.5 44.3125ZM216.781 43.375L216.574 44.3532L216.591 44.3568L216.607 44.3598L216.781 43.375ZM212.406 43L212.343 43.998L212.351 43.9985L212.36 43.9989L212.406 43ZM226.219 7.25V13H228.219V7.25H226.219ZM227.461 12.0299C226.726 11.846 226.009 11.75 225.312 11.75V13.75C225.825 13.75 226.378 13.8206 226.976 13.9701L227.461 12.0299ZM225.312 11.75C224.22 11.75 223.234 12.0356 222.454 12.6992C221.68 13.3575 221.218 14.2944 220.99 15.3894L222.948 15.7981C223.115 14.9973 223.409 14.5123 223.749 14.2227C224.084 13.9384 224.571 13.75 225.312 13.75V11.75ZM221.244 16.2823C222.606 17.7178 223.312 19.5642 223.312 21.9062H225.312C225.312 19.1233 224.456 16.7613 222.694 14.9052L221.244 16.2823ZM223.312 21.9062C223.312 24.4741 222.374 26.4753 220.494 28.0056L221.756 29.5569C224.126 27.6289 225.312 25.0468 225.312 21.9062H223.312ZM220.498 28.0019C218.59 29.5361 216.078 30.3438 212.875 30.3438V32.3438C216.422 32.3438 219.41 31.4431 221.752 29.5606L220.498 28.0019ZM212.875 30.3438C211.675 30.3438 210.391 30.1792 209.02 29.8415L208.542 31.7835C210.047 32.1542 211.492 32.3438 212.875 32.3438V30.3438ZM208.302 29.9346C206.812 30.7476 205.719 31.8749 205.719 33.4062H207.719C207.719 32.9792 208.001 32.3774 209.26 31.6904L208.302 29.9346ZM205.719 33.4062C205.719 33.9677 205.858 34.5176 206.204 34.9855C206.549 35.4513 207.033 35.747 207.566 35.92L208.184 34.0175C207.946 33.9405 207.852 33.8508 207.812 33.7958C207.772 33.7428 207.719 33.6364 207.719 33.4062H205.719ZM207.566 35.92C208.065 36.0817 208.883 36.2063 209.928 36.315C211.003 36.4267 212.407 36.5294 214.133 36.6235L214.242 34.6265C212.531 34.5331 211.164 34.4326 210.135 34.3257C209.076 34.2156 208.456 34.1058 208.184 34.0175L207.566 35.92ZM214.128 36.6233C217.278 36.8097 219.555 37.1177 221.012 37.5255L221.551 35.5995C219.882 35.1323 217.431 34.8153 214.247 34.6267L214.128 36.6233ZM221.015 37.5264C222.38 37.9036 223.511 38.6702 224.426 39.8597L226.011 38.6403C224.843 37.1215 223.349 36.0964 221.548 35.5986L221.015 37.5264ZM224.432 39.8673C225.321 41.0008 225.812 42.5452 225.812 44.5938H227.812C227.812 42.2257 227.241 40.2075 226.005 38.6327L224.432 39.8673ZM225.812 44.5938C225.812 47.8351 224.652 50.1436 222.395 51.6909C220.071 53.2847 216.458 54.1562 211.406 54.1562V56.1562C216.625 56.1562 220.716 55.2674 223.526 53.3404C226.405 51.3668 227.812 48.3941 227.812 44.5938H225.812ZM211.406 54.1562C207.158 54.1562 204.135 53.5322 202.206 52.4092C200.36 51.3345 199.469 49.7822 199.469 47.625H197.469C197.469 50.4887 198.734 52.702 201.2 54.1377C203.583 55.5251 207.029 56.1562 211.406 56.1562V54.1562ZM199.469 47.625C199.469 46.4656 199.821 45.5223 200.509 44.7378C201.215 43.934 202.328 43.2364 203.941 42.6987L203.309 40.8013C201.484 41.4094 200.02 42.264 199.006 43.4185C197.976 44.5923 197.469 46.0136 197.469 47.625H199.469ZM204.05 40.8449C201.529 39.6607 200.5 38.129 200.5 36.2812H198.5C198.5 39.1419 200.221 41.256 203.2 42.6551L204.05 40.8449ZM200.5 36.2812C200.5 34.1144 201.922 32.0692 205.405 30.2278L204.47 28.4597C200.703 30.4516 198.5 33.0314 198.5 36.2812H200.5ZM205.38 28.4469C203.966 27.7492 202.95 26.8313 202.281 25.7073C201.61 24.5795 201.25 23.1814 201.25 21.4688H199.25C199.25 23.4644 199.671 25.233 200.563 26.7302C201.456 28.2312 202.784 29.3966 204.495 30.2406L205.38 28.4469ZM201.25 21.4688C201.25 18.5765 202.22 16.4989 204.077 15.0747L202.86 13.4878C200.425 15.3552 199.25 18.0693 199.25 21.4688H201.25ZM204.074 15.0776C206.017 13.6011 208.669 12.8125 212.125 12.8125V10.8125C208.373 10.8125 205.253 11.6698 202.864 13.4849L204.074 15.0776ZM212.125 12.8125C214.39 12.8125 216.503 13.2449 218.476 14.1043L219.274 12.2707C217.039 11.2968 214.652 10.8125 212.125 10.8125V12.8125ZM219.87 13.2888C220.091 11.1149 220.621 9.77692 221.293 9.05788L219.832 7.69212C218.712 8.88974 218.117 10.7601 217.88 13.0862L219.87 13.2888ZM221.293 9.05788C221.927 8.37986 223.013 7.9375 224.781 7.9375V5.9375C222.717 5.9375 220.99 6.45347 219.832 7.69212L221.293 9.05788ZM224.781 7.9375C225.624 7.9375 226.339 8.03356 226.937 8.20937L227.501 6.29063C226.682 6.04977 225.771 5.9375 224.781 5.9375V7.9375ZM216.219 21.625C216.219 19.8688 215.985 18.3942 215.401 17.3255C215.101 16.7761 214.698 16.3155 214.175 15.9961C213.65 15.6754 213.059 15.5312 212.438 15.5312V17.5312C212.743 17.5312 212.963 17.5994 213.133 17.7031C213.305 17.8082 213.482 17.9844 213.646 18.2839C213.989 18.9131 214.219 19.9854 214.219 21.625H216.219ZM212.438 15.5312C211.027 15.5312 209.855 16.081 209.164 17.2828L210.898 18.2797C211.165 17.8148 211.598 17.5312 212.438 17.5312V15.5312ZM209.16 17.2899C208.567 18.3411 208.344 19.9194 208.344 21.8438H210.344C210.344 19.9765 210.579 18.8464 210.902 18.2726L209.16 17.2899ZM208.344 21.8438C208.344 23.5109 208.602 24.9323 209.257 25.9651C209.961 27.0751 211.051 27.625 212.375 27.625V25.625C211.678 25.625 211.253 25.3781 210.946 24.8942C210.591 24.3334 210.344 23.3641 210.344 21.8438H208.344ZM212.375 27.625C213.677 27.625 214.775 27.1201 215.426 26.0039L213.699 24.9961C213.475 25.3799 213.114 25.625 212.375 25.625V27.625ZM215.426 26.0039C216.008 25.0067 216.219 23.479 216.219 21.625H214.219C214.219 23.4377 213.992 24.4933 213.699 24.9961L215.426 26.0039ZM208.082 41.7167C207.044 42.1945 206.196 42.8212 205.606 43.6294C205.009 44.4487 204.719 45.3982 204.719 46.4375H206.719C206.719 45.7893 206.893 45.2596 207.222 44.8081C207.559 44.3455 208.101 43.9097 208.918 43.5333L208.082 41.7167ZM204.719 46.4375C204.719 47.1724 204.933 47.8527 205.375 48.4362C205.808 49.0068 206.417 49.4306 207.129 49.7436C208.529 50.3594 210.51 50.625 212.969 50.625V48.625C210.594 48.625 208.95 48.3594 207.934 47.9127C207.437 47.6944 207.14 47.4541 206.969 47.2279C206.807 47.0145 206.719 46.7651 206.719 46.4375H204.719ZM212.969 50.625C215.098 50.625 216.85 50.347 218.103 49.6795C218.744 49.3378 219.277 48.882 219.647 48.2922C220.018 47.6991 220.188 47.0271 220.188 46.3125H218.188C218.188 46.7021 218.098 46.9962 217.951 47.2312C217.802 47.4695 217.558 47.7039 217.163 47.9143C216.343 48.3509 214.986 48.625 212.969 48.625V50.625ZM220.188 46.3125C220.188 45.3008 219.897 44.3858 219.251 43.6519L217.749 44.9731C218.02 45.2808 218.188 45.6992 218.188 46.3125H220.188ZM219.253 43.654C218.652 42.9679 217.868 42.5513 216.955 42.3902L216.607 44.3598C217.111 44.4487 217.473 44.6571 217.747 44.971L219.253 43.654ZM216.989 42.3968C216.207 42.231 214.665 42.1045 212.453 42.0011L212.36 43.9989C214.606 44.1039 215.98 44.2273 216.574 44.3532L216.989 42.3968ZM212.47 42.002C211.179 41.92 209.898 41.7971 208.628 41.6332L208.372 43.6168C209.685 43.7862 211.009 43.9133 212.343 43.998L212.47 42.002ZM244.188 20.0625L243.253 20.4197L243.258 20.4315L244.188 20.0625ZM238.438 19.9688L239.354 20.3696L239.356 20.3644L238.438 19.9688ZM244.25 36.2812L245.193 36.6134L245.195 36.6093L244.25 36.2812ZM253.125 28.2188C253.125 33.5955 252.073 37.444 250.133 39.9321C248.231 42.3728 245.353 43.6562 241.312 43.6562V45.6562C245.813 45.6562 249.342 44.2001 251.711 41.1616C254.042 38.1706 255.125 33.8003 255.125 28.2188H253.125ZM241.312 43.6562C237.26 43.6562 234.375 42.3722 232.468 39.9312C230.524 37.4432 229.469 33.5951 229.469 28.2188H227.469C227.469 33.8007 228.554 38.1714 230.892 41.1626C233.266 44.2007 236.802 45.6562 241.312 45.6562V43.6562ZM229.469 28.2188C229.469 22.8531 230.524 19.0132 232.467 16.5305C234.374 14.0944 237.26 12.8125 241.312 12.8125V10.8125C236.803 10.8125 233.266 12.265 230.892 15.2976C228.555 18.2837 227.469 22.6469 227.469 28.2188H229.469ZM241.312 12.8125C245.354 12.8125 248.232 14.0938 250.134 16.5296C252.073 19.0124 253.125 22.8527 253.125 28.2188H255.125C255.125 22.6473 254.042 18.2845 251.71 15.2986C249.341 12.2656 245.813 10.8125 241.312 10.8125V12.8125ZM246.031 28.2188C246.031 26.1883 245.96 24.4665 245.815 23.0612C245.671 21.6705 245.449 20.5292 245.117 19.6935L243.258 20.4315C243.489 21.0124 243.688 21.9389 243.826 23.267C243.961 24.5803 244.031 26.2283 244.031 28.2188H246.031ZM245.122 19.7054C244.801 18.8669 244.326 18.1595 243.657 17.6646C242.98 17.1643 242.18 16.9375 241.312 16.9375V18.9375C241.82 18.9375 242.187 19.0649 242.468 19.2729C242.757 19.4863 243.032 19.8415 243.253 20.4196L245.122 19.7054ZM241.312 16.9375C240.468 16.9375 239.687 17.155 239.017 17.6286C238.353 18.0975 237.865 18.7699 237.519 19.5731L239.356 20.3644C239.593 19.8134 239.876 19.4702 240.171 19.262C240.459 19.0586 240.823 18.9375 241.312 18.9375V16.9375ZM237.521 19.5679C237.167 20.3785 236.936 21.5232 236.787 22.9258C236.636 24.3486 236.562 26.1159 236.562 28.2188H238.562C238.562 26.1549 238.635 24.4639 238.776 23.1367C238.919 21.7893 239.125 20.8923 239.354 20.3696L237.521 19.5679ZM236.562 28.2188C236.562 32.0698 236.807 34.8956 237.364 36.5662L239.261 35.9338C238.818 34.6044 238.562 32.076 238.562 28.2188H236.562ZM237.364 36.5662C237.661 37.458 238.136 38.2116 238.838 38.7375C239.543 39.2667 240.391 39.5 241.312 39.5V37.5C240.734 37.5 240.332 37.3583 240.037 37.1375C239.739 36.9134 239.464 36.542 239.261 35.9338L237.364 36.5662ZM241.312 39.5C242.21 39.5 243.036 39.2657 243.728 38.7433C244.412 38.2261 244.886 37.4871 245.193 36.6134L243.307 35.9491C243.094 36.5546 242.817 36.925 242.522 37.1474C242.235 37.3645 241.852 37.5 241.312 37.5V39.5ZM245.195 36.6093C245.777 34.9326 246.031 32.0902 246.031 28.2188H244.031C244.031 32.0973 243.765 34.6299 243.305 35.9532L245.195 36.6093Z" fill="#F5F5F5"/>
</svg>
