<svg width="137" height="46" viewBox="0 0 137 46" fill="none" xmlns="http://www.w3.org/2000/svg">
<path className="texture" pathLength="1" d="M1.03125 1.34375H10.4062V18.5625H20.6562V1.34375H30.0312V44H20.6562V26.5625H10.4062V44H1.03125V1.34375ZM61.625 28.2188C61.625 39.1771 57.3542 44.6562 48.8125 44.6562C40.25 44.6562 35.9688 39.1771 35.9688 28.2188C35.9688 17.2812 40.25 11.8125 48.8125 11.8125C57.3542 11.8125 61.625 17.2812 61.625 28.2188ZM52.5312 28.2188C52.5312 24.1979 52.25 21.4792 51.6875 20.0625C51.1458 18.6458 50.1875 17.9375 48.8125 17.9375C47.4792 17.9375 46.5208 18.6146 45.9375 19.9688C45.3542 21.3021 45.0625 24.0521 45.0625 28.2188C45.0625 32.0729 45.3125 34.75 45.8125 36.25C46.3125 37.75 47.3125 38.5 48.8125 38.5C50.25 38.5 51.2292 37.7604 51.75 36.2812C52.2708 34.7812 52.5312 32.0938 52.5312 28.2188ZM66.75 12.4375H75.0938V16.75C76.5938 13.4583 79.1458 11.8125 82.75 11.8125C86.5 11.8125 88.7708 13.4583 89.5625 16.75C90.9792 13.4583 93.5312 11.8125 97.2188 11.8125C99.2812 11.8125 100.917 12.1875 102.125 12.9375C103.354 13.6875 104.208 14.7188 104.688 16.0312C105.167 17.3229 105.406 19.7708 105.406 23.375V44H96.625V24.2812C96.625 21.9271 96.4583 20.3958 96.125 19.6875C95.7917 18.9792 95.0521 18.625 93.9062 18.625C92.5312 18.625 91.6354 19.0938 91.2188 20.0312C90.8021 20.9479 90.5938 22.8125 90.5938 25.625V44H81.7812V24C81.7812 21.75 81.6146 20.2917 81.2812 19.625C80.9688 18.9583 80.2396 18.625 79.0938 18.625C77.6771 18.625 76.7292 19.1146 76.25 20.0938C75.7917 21.0521 75.5625 22.8958 75.5625 25.625V44H66.75V12.4375ZM135.719 29.6875H119.156V31.4375C119.156 34.2708 119.542 36.1667 120.312 37.125C121.083 38.0833 122.094 38.5625 123.344 38.5625C126.031 38.5625 127.542 36.7604 127.875 33.1562L135.719 33.6562C134.323 40.9896 130.146 44.6562 123.188 44.6562C118.896 44.6562 115.635 43.2083 113.406 40.3125C111.177 37.4167 110.062 33.5417 110.062 28.6875C110.062 23.2083 111.24 19.0312 113.594 16.1562C115.969 13.2604 119.146 11.8125 123.125 11.8125C126.708 11.8125 129.698 13.0938 132.094 15.6562C134.51 18.1979 135.719 22.875 135.719 29.6875ZM127.406 24.5938C127.427 24.2188 127.438 23.9271 127.438 23.7188C127.438 19.6562 126.062 17.625 123.312 17.625C120.604 17.625 119.24 19.9479 119.219 24.5938H127.406Z" fill="#F5F5F5" fill-opacity="0.0"/>
<path pathLength="1" d="M1.03125 1.34375V0.34375H0.03125V1.34375H1.03125ZM10.4062 1.34375H11.4062V0.34375H10.4062V1.34375ZM10.4062 18.5625H9.40625V19.5625H10.4062V18.5625ZM20.6562 18.5625V19.5625H21.6562V18.5625H20.6562ZM20.6562 1.34375V0.34375H19.6562V1.34375H20.6562ZM30.0312 1.34375H31.0312V0.34375H30.0312V1.34375ZM30.0312 44V45H31.0312V44H30.0312ZM20.6562 44H19.6562V45H20.6562V44ZM20.6562 26.5625H21.6562V25.5625H20.6562V26.5625ZM10.4062 26.5625V25.5625H9.40625V26.5625H10.4062ZM10.4062 44V45H11.4062V44H10.4062ZM1.03125 44H0.03125V45H1.03125V44ZM1.03125 2.34375H10.4062V0.34375H1.03125V2.34375ZM9.40625 1.34375V18.5625H11.4062V1.34375H9.40625ZM10.4062 19.5625H20.6562V17.5625H10.4062V19.5625ZM21.6562 18.5625V1.34375H19.6562V18.5625H21.6562ZM20.6562 2.34375H30.0312V0.34375H20.6562V2.34375ZM29.0312 1.34375V44H31.0312V1.34375H29.0312ZM30.0312 43H20.6562V45H30.0312V43ZM21.6562 44V26.5625H19.6562V44H21.6562ZM20.6562 25.5625H10.4062V27.5625H20.6562V25.5625ZM9.40625 26.5625V44H11.4062V26.5625H9.40625ZM10.4062 43H1.03125V45H10.4062V43ZM2.03125 44V1.34375H0.03125V44H2.03125ZM51.6875 20.0625L50.7534 20.4197L50.7581 20.4315L51.6875 20.0625ZM45.9375 19.9688L46.8537 20.3696L46.8559 20.3644L45.9375 19.9688ZM51.75 36.2812L52.6932 36.6134L52.6947 36.6093L51.75 36.2812ZM60.625 28.2188C60.625 33.5955 59.5726 37.444 57.6332 39.9321C55.7307 42.3728 52.8535 43.6562 48.8125 43.6562V45.6562C53.3132 45.6562 56.8422 44.2001 59.2106 41.1616C61.542 38.1706 62.625 33.8003 62.625 28.2188H60.625ZM48.8125 43.6562C44.7602 43.6562 41.875 42.3722 39.9677 39.9312C38.0236 37.4432 36.9688 33.5951 36.9688 28.2188H34.9688C34.9688 33.8007 36.0545 38.1714 38.3917 41.1626C40.7656 44.2007 44.3023 45.6562 48.8125 45.6562V43.6562ZM36.9688 28.2188C36.9688 22.8531 38.0235 19.0132 39.9671 16.5305C41.8742 14.0944 44.7596 12.8125 48.8125 12.8125V10.8125C44.3029 10.8125 40.7664 12.265 38.3923 15.2976C36.0546 18.2837 34.9688 22.6469 34.9688 28.2188H36.9688ZM48.8125 12.8125C52.8542 12.8125 55.7315 14.0938 57.6337 16.5296C59.5727 19.0124 60.625 22.8527 60.625 28.2188H62.625C62.625 22.6473 61.5419 18.2845 59.21 15.2986C56.8414 12.2656 53.3125 10.8125 48.8125 10.8125V12.8125ZM53.5312 28.2188C53.5312 26.1883 53.4604 24.4665 53.315 23.0612C53.1711 21.6705 52.9488 20.5292 52.6169 19.6935L50.7581 20.4315C50.9887 21.0124 51.1882 21.9389 51.3256 23.267C51.4615 24.5803 51.5312 26.2283 51.5312 28.2188H53.5312ZM52.6216 19.7054C52.301 18.8669 51.8265 18.1595 51.1569 17.6646C50.48 17.1643 49.6798 16.9375 48.8125 16.9375V18.9375C49.3202 18.9375 49.6866 19.0649 49.9681 19.2729C50.2569 19.4863 50.5324 19.8415 50.7534 20.4196L52.6216 19.7054ZM48.8125 16.9375C47.9684 16.9375 47.1871 17.155 46.5167 17.6286C45.853 18.0975 45.3651 18.7699 45.0191 19.5731L46.8559 20.3644C47.0933 19.8134 47.3762 19.4702 47.6708 19.262C47.9588 19.0586 48.3232 18.9375 48.8125 18.9375V16.9375ZM45.0213 19.5679C44.6667 20.3785 44.4356 21.5232 44.2868 22.9258C44.1359 24.3486 44.0625 26.1159 44.0625 28.2188H46.0625C46.0625 26.1549 46.1349 24.4639 46.2757 23.1367C46.4186 21.7893 46.625 20.8923 46.8537 20.3696L45.0213 19.5679ZM44.0625 28.2188C44.0625 32.0698 44.3069 34.8956 44.8638 36.5662L46.7612 35.9338C46.3181 34.6044 46.0625 32.076 46.0625 28.2188H44.0625ZM44.8638 36.5662C45.1611 37.458 45.6364 38.2116 46.3375 38.7375C47.0431 39.2667 47.8906 39.5 48.8125 39.5V37.5C48.2344 37.5 47.8319 37.3583 47.5375 37.1375C47.2386 36.9134 46.9639 36.542 46.7612 35.9338L44.8638 36.5662ZM48.8125 39.5C49.7101 39.5 50.536 39.2657 51.2277 38.7433C51.9125 38.2261 52.3856 37.4871 52.6932 36.6134L50.8068 35.9491C50.5936 36.5546 50.3167 36.925 50.0223 37.1474C49.7348 37.3645 49.3524 37.5 48.8125 37.5V39.5ZM52.6947 36.6093C53.2768 34.9326 53.5312 32.0902 53.5312 28.2188H51.5312C51.5312 32.0973 51.2648 34.6299 50.8053 35.9532L52.6947 36.6093ZM66.75 12.4375V11.4375H65.75V12.4375H66.75ZM75.0938 12.4375H76.0938V11.4375H75.0938V12.4375ZM75.0938 16.75H74.0938L76.0037 17.1647L75.0938 16.75ZM89.5625 16.75L88.5902 16.9838L89.293 19.9058L90.481 17.1453L89.5625 16.75ZM102.125 12.9375L101.598 13.7872L101.604 13.7911L102.125 12.9375ZM104.688 16.0312L103.748 16.3742L103.75 16.3791L104.688 16.0312ZM105.406 44V45H106.406V44H105.406ZM96.625 44H95.625V45H96.625V44ZM91.2188 20.0312L92.1291 20.4451L92.1326 20.4374L91.2188 20.0312ZM90.5938 44V45H91.5938V44H90.5938ZM81.7812 44H80.7812V45H81.7812V44ZM81.2812 19.625L80.3758 20.0494L80.3812 20.0609L80.3868 20.0722L81.2812 19.625ZM76.25 20.0938L75.3517 19.6542L75.3479 19.6623L76.25 20.0938ZM75.5625 44V45H76.5625V44H75.5625ZM66.75 44H65.75V45H66.75V44ZM66.75 13.4375H75.0938V11.4375H66.75V13.4375ZM74.0938 12.4375V16.75H76.0938V12.4375H74.0938ZM76.0037 17.1647C76.6897 15.6593 77.5882 14.588 78.6748 13.8873C79.7611 13.1867 81.1037 12.8125 82.75 12.8125V10.8125C80.7921 10.8125 79.0566 11.2612 77.5908 12.2065C76.1253 13.1516 74.9978 14.549 74.1838 16.3353L76.0037 17.1647ZM82.75 12.8125C84.4844 12.8125 85.7632 13.193 86.6788 13.8566C87.5832 14.5121 88.2381 15.5196 88.5902 16.9838L90.5348 16.5162C90.0953 14.6887 89.2189 13.2275 87.8525 12.2372C86.4972 11.2549 84.7656 10.8125 82.75 10.8125V12.8125ZM90.481 17.1453C91.1253 15.6484 92.0002 14.5843 93.081 13.8873C94.1638 13.189 95.5257 12.8125 97.2188 12.8125V10.8125C95.2243 10.8125 93.4664 11.2589 91.9971 12.2065C90.5258 13.1553 89.4164 14.5599 88.644 16.3547L90.481 17.1453ZM97.2188 12.8125C99.1741 12.8125 100.604 13.1702 101.598 13.7871L102.652 12.0879C101.23 11.2048 99.3884 10.8125 97.2188 10.8125V12.8125ZM101.604 13.7911C102.646 14.4271 103.349 15.2813 103.748 16.3742L105.627 15.6883C105.068 14.1562 104.062 12.9479 102.646 12.0839L101.604 13.7911ZM103.75 16.3791C104.159 17.4805 104.406 19.7571 104.406 23.375H106.406C106.406 19.7846 106.175 17.1653 105.625 15.6834L103.75 16.3791ZM104.406 23.375V44H106.406V23.375H104.406ZM105.406 43H96.625V45H105.406V43ZM97.625 44V24.2812H95.625V44H97.625ZM97.625 24.2812C97.625 23.0847 97.5828 22.074 97.4941 21.259C97.4081 20.4684 97.2699 19.7718 97.0298 19.2617L95.2202 20.1133C95.3135 20.3115 95.4253 20.7348 95.5059 21.4754C95.5838 22.1916 95.625 23.1236 95.625 24.2812H97.625ZM97.0298 19.2617C96.4593 18.0493 95.2346 17.625 93.9062 17.625V19.625C94.8696 19.625 95.1241 19.909 95.2202 20.1133L97.0298 19.2617ZM93.9062 17.625C92.2965 17.625 90.9385 18.1997 90.3049 19.6251L92.1326 20.4374C92.3324 19.9878 92.766 19.625 93.9062 19.625V17.625ZM90.3084 19.6174C90.0337 20.2217 89.8638 21.0431 89.7562 22.0061C89.6464 22.9886 89.5938 24.198 89.5938 25.625H91.5938C91.5938 24.2395 91.6453 23.1104 91.7438 22.2282C91.8445 21.3267 91.9871 20.7575 92.1291 20.4451L90.3084 19.6174ZM89.5938 25.625V44H91.5938V25.625H89.5938ZM90.5938 43H81.7812V45H90.5938V43ZM82.7812 44V24H80.7812V44H82.7812ZM82.7812 24C82.7812 22.8547 82.739 21.8863 82.6498 21.1052C82.5635 20.35 82.4238 19.6741 82.1757 19.1778L80.3868 20.0722C80.472 20.2426 80.5824 20.6292 80.6627 21.3323C80.7401 22.0095 80.7812 22.8953 80.7812 24H82.7812ZM82.1867 19.2006C81.6276 18.0079 80.3876 17.625 79.0938 17.625V19.625C80.0916 19.625 80.3099 19.9088 80.3758 20.0494L82.1867 19.2006ZM79.0938 17.625C77.4308 17.625 76.0511 18.2251 75.3518 19.6542L77.1482 20.5333C77.4072 20.004 77.9233 19.625 79.0938 19.625V17.625ZM75.3479 19.6623C75.0499 20.2852 74.8615 21.1106 74.742 22.072C74.6206 23.0489 74.5625 24.2364 74.5625 25.625H76.5625C76.5625 24.2845 76.619 23.1855 76.7267 22.3187C76.8364 21.4363 76.9917 20.8606 77.1521 20.5252L75.3479 19.6623ZM74.5625 25.625V44H76.5625V25.625H74.5625ZM75.5625 43H66.75V45H75.5625V43ZM67.75 44V12.4375H65.75V44H67.75ZM135.719 29.6875V30.6875H136.719V29.6875H135.719ZM119.156 29.6875V28.6875H118.156V29.6875H119.156ZM127.875 33.1562L127.939 32.1583L126.969 32.0965L126.879 33.0642L127.875 33.1562ZM135.719 33.6562L136.701 33.8432L136.913 32.7303L135.782 32.6583L135.719 33.6562ZM113.594 16.1562L112.821 15.5221L112.82 15.5227L113.594 16.1562ZM132.094 15.6562L131.363 16.3392L131.369 16.3453L132.094 15.6562ZM127.406 24.5938V25.5938H128.352L128.405 24.6492L127.406 24.5938ZM119.219 24.5938L118.219 24.5893L118.214 25.5938H119.219V24.5938ZM135.719 28.6875H119.156V30.6875H135.719V28.6875ZM118.156 29.6875V31.4375H120.156V29.6875H118.156ZM118.156 31.4375C118.156 32.8933 118.255 34.1476 118.465 35.1836C118.673 36.2073 119.006 37.0968 119.533 37.7518L121.092 36.4982C120.848 36.1949 120.603 35.6573 120.425 34.7852C120.25 33.9254 120.156 32.8151 120.156 31.4375H118.156ZM119.533 37.7518C120.498 38.9505 121.797 39.5625 123.344 39.5625V37.5625C122.391 37.5625 121.669 37.2161 121.092 36.4982L119.533 37.7518ZM123.344 39.5625C124.936 39.5625 126.285 39.0149 127.259 37.8533C128.197 36.7331 128.695 35.1511 128.871 33.2483L126.879 33.0642C126.722 34.7656 126.297 35.8867 125.726 36.5686C125.189 37.209 124.439 37.5625 123.344 37.5625V39.5625ZM127.811 34.1542L135.655 34.6542L135.782 32.6583L127.939 32.1583L127.811 34.1542ZM134.736 33.4693C134.066 36.9918 132.751 39.5117 130.879 41.1547C129.016 42.7905 126.487 43.6562 123.188 43.6562V45.6562C126.846 45.6562 129.885 44.6886 132.199 42.6578C134.504 40.6341 135.976 37.654 136.701 33.8432L134.736 33.4693ZM123.188 43.6562C119.145 43.6562 116.204 42.3078 114.199 39.7025L112.614 40.9225C115.067 44.1088 118.646 45.6562 123.188 45.6562V43.6562ZM114.199 39.7025C112.142 37.0313 111.062 33.3933 111.062 28.6875H109.062C109.062 33.6901 110.212 37.8021 112.614 40.9225L114.199 39.7025ZM111.062 28.6875C111.062 23.3333 112.215 19.4184 114.367 16.7898L112.82 15.5227C110.264 18.6441 109.062 23.0834 109.062 28.6875H111.062ZM114.367 16.7904C116.539 14.1423 119.424 12.8125 123.125 12.8125V10.8125C118.868 10.8125 115.399 12.3786 112.821 15.5221L114.367 16.7904ZM123.125 12.8125C126.438 12.8125 129.161 13.9838 131.363 16.3392L132.824 14.9733C130.235 12.2037 126.978 10.8125 123.125 10.8125V12.8125ZM131.369 16.3453C133.503 18.5901 134.719 22.9202 134.719 29.6875H136.719C136.719 22.8298 135.517 17.8057 132.818 14.9672L131.369 16.3453ZM128.405 24.6492C128.426 24.2679 128.438 23.9547 128.438 23.7188H126.438C126.438 23.8995 126.428 24.1696 126.408 24.5383L128.405 24.6492ZM128.438 23.7188C128.438 21.606 128.086 19.8455 127.234 18.5879C126.336 17.2607 124.972 16.625 123.312 16.625V18.625C124.403 18.625 125.102 19.005 125.578 19.709C126.102 20.4827 126.438 21.769 126.438 23.7188H128.438ZM123.312 16.625C121.606 16.625 120.259 17.3915 119.396 18.8607C118.58 20.2482 118.229 22.2016 118.219 24.5893L120.219 24.5982C120.229 22.34 120.571 20.8091 121.12 19.8737C121.622 19.02 122.311 18.625 123.312 18.625V16.625ZM119.219 25.5938H127.406V23.5938H119.219V25.5938Z" fill="#F5F5F5"/>
</svg>
