<svg width="224" height="65" viewBox="0 0 224 65" fill="none" xmlns="http://www.w3.org/2000/svg">
<path pathLength="1" className="texture" d="M1.53516 2.01172H15.3516C19.5469 2.01172 22.793 2.36328 25.0898 3.06641C27.4102 3.76953 29.3555 5.36328 30.9258 7.84766C32.4961 10.3086 33.2812 13.3672 33.2812 17.0234C33.2812 20.5391 32.6484 23.4453 31.3828 25.7422C30.1172 28.0391 28.3594 29.7031 26.1094 30.7344C23.8828 31.7422 20.4492 32.2461 15.8086 32.2461H12.082V50H1.53516V2.01172ZM12.082 9.78125V23.9844H15.3516C18.2344 23.9844 20.0859 23.3164 20.9062 21.9805C21.75 20.6445 22.1719 18.9102 22.1719 16.7773C22.1719 14.9727 21.8438 13.5195 21.1875 12.418C20.5547 11.293 19.8047 10.5781 18.9375 10.2734C18.0938 9.94531 16.8984 9.78125 15.3516 9.78125H12.082ZM37.5 14.4922H46.2188V23.0703C47.7891 17.0469 50.5898 14.0352 54.6211 14.0352C55.1133 14.0352 55.6758 14.0938 56.3086 14.2109V23.8789C55.582 23.7852 55.0312 23.7383 54.6562 23.7383C49.8281 23.7383 47.4141 27.3945 47.4141 34.707V50H37.5V14.4922ZM87.6328 32.2461C87.6328 44.5742 82.8281 50.7383 73.2188 50.7383C63.5859 50.7383 58.7695 44.5742 58.7695 32.2461C58.7695 19.9414 63.5859 13.7891 73.2188 13.7891C82.8281 13.7891 87.6328 19.9414 87.6328 32.2461ZM77.4023 32.2461C77.4023 27.7227 77.0859 24.6641 76.4531 23.0703C75.8438 21.4766 74.7656 20.6797 73.2188 20.6797C71.7188 20.6797 70.6406 21.4414 69.9844 22.9648C69.3281 24.4648 69 27.5586 69 32.2461C69 36.582 69.2812 39.5938 69.8438 41.2812C70.4062 42.9688 71.5312 43.8125 73.2188 43.8125C74.8359 43.8125 75.9375 42.9805 76.5234 41.3164C77.1094 39.6289 77.4023 36.6055 77.4023 32.2461ZM103.699 11.5742H93.6445V1.76562H103.699V11.5742ZM93.7148 14.4922H103.629V48.8398C103.629 52.4961 103.43 55.2383 103.031 57.0664C102.633 58.8945 101.684 60.3359 100.184 61.3906C98.6836 62.4688 96.7734 63.0078 94.4531 63.0078C92.9766 63.0078 91.207 62.8438 89.1445 62.5156V54.3945C89.6367 54.4648 90.0703 54.5 90.4453 54.5C91.8984 54.5 92.8008 54.1367 93.1523 53.4102C93.5273 52.6836 93.7148 51.0664 93.7148 48.5586V14.4922ZM137.871 33.8984H119.238V35.8672C119.238 39.0547 119.672 41.1875 120.539 42.2656C121.406 43.3438 122.543 43.8828 123.949 43.8828C126.973 43.8828 128.672 41.8555 129.047 37.8008L137.871 38.3633C136.301 46.6133 131.602 50.7383 123.773 50.7383C118.945 50.7383 115.277 49.1094 112.77 45.8516C110.262 42.5938 109.008 38.2344 109.008 32.7734C109.008 26.6094 110.332 21.9102 112.98 18.6758C115.652 15.418 119.227 13.7891 123.703 13.7891C127.734 13.7891 131.098 15.2305 133.793 18.1133C136.512 20.9727 137.871 26.2344 137.871 33.8984ZM128.52 28.168C128.543 27.7461 128.555 27.418 128.555 27.1836C128.555 22.6133 127.008 20.3281 123.914 20.3281C120.867 20.3281 119.332 22.9414 119.309 28.168H128.52ZM170.18 27.5703L160.969 27.9219C160.828 25.7422 160.477 24.1016 159.914 23C159.352 21.875 158.402 21.3125 157.066 21.3125C153.738 21.3125 152.074 24.8047 152.074 31.7891C152.074 35.8438 152.473 38.6797 153.27 40.2969C154.09 41.9141 155.297 42.7227 156.891 42.7227C159.375 42.7227 160.734 40.5312 160.969 36.1484L170.18 36.7461C169.359 46.0742 164.719 50.7383 156.258 50.7383C151.688 50.7383 148.184 49.2031 145.746 46.1328C143.332 43.0391 142.125 38.4453 142.125 32.3516C142.125 26.3047 143.391 21.6992 145.922 18.5352C148.477 15.3711 152.051 13.7891 156.645 13.7891C164.941 13.7891 169.453 18.3828 170.18 27.5703ZM177.07 3.59375L186.703 3.27734V14.4922H193.242V22.2969H186.703V35.3398C186.703 37.7539 186.75 39.3242 186.844 40.0508C186.961 40.7539 187.312 41.3516 187.898 41.8438C188.508 42.3125 189.516 42.5469 190.922 42.5469C191.672 42.5469 192.609 42.5234 193.734 42.4766V50C191.531 50.4922 189.516 50.7383 187.688 50.7383C184.688 50.7383 182.391 50.1641 180.797 49.0156C179.203 47.8672 178.184 46.4258 177.738 44.6914C177.293 42.957 177.07 40.2031 177.07 36.4297V22.2969H173.133V14.4922H177.07V3.59375ZM221.086 23.0352L214.02 25.1445C213.082 21.9336 211.348 20.3281 208.816 20.3281C206.754 20.3281 205.723 21.3594 205.723 23.4219C205.723 24.5938 206.109 25.4844 206.883 26.0938C207.656 26.7031 209.25 27.4297 211.664 28.2734C214.383 29.2344 216.375 30.0781 217.641 30.8047C218.906 31.5312 219.973 32.6328 220.84 34.1094C221.707 35.5625 222.141 37.2383 222.141 39.1367C222.141 42.418 220.957 45.1719 218.59 47.3984C216.223 49.625 212.918 50.7383 208.676 50.7383C200.684 50.7383 196.254 47.2109 195.387 40.1562L203.262 38.8906C203.918 42.4297 205.781 44.1992 208.852 44.1992C211.477 44.1992 212.789 43.0977 212.789 40.8945C212.789 39.7227 212.402 38.832 211.629 38.2227C210.855 37.6133 209.355 36.957 207.129 36.2539C203.051 34.9414 200.25 33.3594 198.727 31.5078C197.203 29.6562 196.441 27.5117 196.441 25.0742C196.441 21.6523 197.637 18.9102 200.027 16.8477C202.441 14.7852 205.453 13.7539 209.062 13.7539C215.367 13.7539 219.375 16.8477 221.086 23.0352Z" fill="#F5F5F5" fill-opacity="0.0"/>
<path pathLength="1" d="M1.53516 2.01172V1.01172H0.535156V2.01172H1.53516ZM25.0898 3.06641L24.7971 4.02261L24.7998 4.02343L25.0898 3.06641ZM30.9258 7.84766L30.0805 8.38195L30.0828 8.38557L30.9258 7.84766ZM26.1094 30.7344L26.5217 31.6454L26.526 31.6434L26.1094 30.7344ZM12.082 32.2461V31.2461H11.082V32.2461H12.082ZM12.082 50V51H13.082V50H12.082ZM1.53516 50H0.535156V51H1.53516V50ZM12.082 9.78125V8.78125H11.082V9.78125H12.082ZM12.082 23.9844H11.082V24.9844H12.082V23.9844ZM20.9062 21.9805L20.0607 21.4464L20.0541 21.4572L20.9062 21.9805ZM21.1875 12.418L20.3159 12.9082L20.322 12.9191L20.3284 12.9298L21.1875 12.418ZM18.9375 10.2734L18.5751 11.2054L18.5904 11.2114L18.606 11.2169L18.9375 10.2734ZM1.53516 3.01172H15.3516V1.01172H1.53516V3.01172ZM15.3516 3.01172C19.5099 3.01172 22.6404 3.36238 24.7971 4.02261L25.3826 2.11021C22.9456 1.36419 19.5838 1.01172 15.3516 1.01172V3.01172ZM24.7998 4.02343C26.844 4.64288 28.6101 6.05561 30.0805 8.38195L31.7711 7.31336C30.1009 4.67096 27.9763 2.89618 25.3799 2.10938L24.7998 4.02343ZM30.0828 8.38557C31.5275 10.6497 32.2812 13.5098 32.2812 17.0234H34.2812C34.2812 13.2245 33.4647 9.96749 31.7688 7.30974L30.0828 8.38557ZM32.2812 17.0234C32.2812 20.4255 31.6681 23.1523 30.507 25.2596L32.2587 26.2248C33.6288 23.7383 34.2812 20.6526 34.2812 17.0234H32.2812ZM30.507 25.2596C29.3382 27.3807 27.7359 28.8888 25.6927 29.8253L26.526 31.6434C28.9828 30.5174 30.8962 28.6974 32.2587 26.2248L30.507 25.2596ZM25.697 29.8234C23.6701 30.7408 20.4122 31.2461 15.8086 31.2461V33.2461C20.4863 33.2461 24.0955 32.7436 26.5217 31.6454L25.697 29.8234ZM15.8086 31.2461H12.082V33.2461H15.8086V31.2461ZM11.082 32.2461V50H13.082V32.2461H11.082ZM12.082 49H1.53516V51H12.082V49ZM2.53516 50V2.01172H0.535156V50H2.53516ZM11.082 9.78125V23.9844H13.082V9.78125H11.082ZM12.082 24.9844H15.3516V22.9844H12.082V24.9844ZM15.3516 24.9844C18.2962 24.9844 20.645 24.3171 21.7584 22.5037L20.0541 21.4572C19.5269 22.3157 18.1725 22.9844 15.3516 22.9844V24.9844ZM21.7517 22.5145C22.726 20.972 23.1719 19.035 23.1719 16.7773H21.1719C21.1719 18.7853 20.774 20.3171 20.0608 21.4465L21.7517 22.5145ZM23.1719 16.7773C23.1719 14.8623 22.8252 13.2131 22.0466 11.9062L20.3284 12.9298C20.8623 13.8259 21.1719 15.083 21.1719 16.7773H23.1719ZM22.0591 11.9277C21.3551 10.6762 20.4431 9.7425 19.269 9.32998L18.606 11.2169C19.1663 11.4137 19.7543 11.9098 20.3159 12.9082L22.0591 11.9277ZM19.2999 9.34143C18.2868 8.94742 16.9472 8.78125 15.3516 8.78125V10.7812C16.8497 10.7812 17.9007 10.9432 18.5751 11.2054L19.2999 9.34143ZM15.3516 8.78125H12.082V10.7812H15.3516V8.78125ZM37.5 14.4922V13.4922H36.5V14.4922H37.5ZM46.2188 14.4922H47.2188V13.4922H46.2188V14.4922ZM46.2188 23.0703H45.2188L47.1864 23.3226L46.2188 23.0703ZM56.3086 14.2109H57.3086V13.3791L56.4907 13.2277L56.3086 14.2109ZM56.3086 23.8789L56.1806 24.8707L57.3086 25.0162V23.8789H56.3086ZM47.4141 50V51H48.4141V50H47.4141ZM37.5 50H36.5V51H37.5V50ZM37.5 15.4922H46.2188V13.4922H37.5V15.4922ZM45.2188 14.4922V23.0703H47.2188V14.4922H45.2188ZM47.1864 23.3226C47.9495 20.3956 48.985 18.3131 50.2294 16.9749C51.4449 15.6679 52.8896 15.0352 54.6211 15.0352V13.0352C52.3214 13.0352 50.35 13.9083 48.7648 15.6129C47.2084 17.2866 46.0583 19.7216 45.2511 22.818L47.1864 23.3226ZM54.6211 15.0352C55.0369 15.0352 55.5366 15.085 56.1265 15.1942L56.4907 13.2277C55.815 13.1025 55.1897 13.0352 54.6211 13.0352V15.0352ZM55.3086 14.2109V23.8789H57.3086V14.2109H55.3086ZM56.4366 22.8871C55.6995 22.792 55.0973 22.7383 54.6562 22.7383V24.7383C54.9652 24.7383 55.4646 24.7783 56.1806 24.8707L56.4366 22.8871ZM54.6562 22.7383C51.9467 22.7383 49.8035 23.7888 48.3901 25.9295C47.0247 27.9974 46.4141 30.9725 46.4141 34.707H48.4141C48.4141 31.1291 49.0104 28.6198 50.0591 27.0315C51.0598 25.5158 52.5376 24.7383 54.6562 24.7383V22.7383ZM46.4141 34.707V50H48.4141V34.707H46.4141ZM47.4141 49H37.5V51H47.4141V49ZM38.5 50V14.4922H36.5V50H38.5ZM76.4531 23.0703L75.519 23.4275L75.5237 23.4393L76.4531 23.0703ZM69.9844 22.9648L70.9005 23.3657L70.9028 23.3605L69.9844 22.9648ZM76.5234 41.3164L77.4667 41.6485L77.4681 41.6444L76.5234 41.3164ZM86.6328 32.2461C86.6328 38.3078 85.4469 42.6699 83.2406 45.5005C81.0712 48.2836 77.7936 49.7383 73.2188 49.7383V51.7383C78.2533 51.7383 82.1827 50.1109 84.818 46.73C87.4164 43.3965 88.6328 38.5126 88.6328 32.2461H86.6328ZM73.2188 49.7383C68.6313 49.7383 65.3448 48.283 63.1698 45.4995C60.9582 42.6691 59.7695 38.3074 59.7695 32.2461H57.7695C57.7695 38.513 58.9891 43.3973 61.5939 46.7309C64.2353 50.1115 68.1734 51.7383 73.2188 51.7383V49.7383ZM59.7695 32.2461C59.7695 26.1969 60.9581 21.8442 63.1692 19.0197C65.3439 16.2419 68.6307 14.7891 73.2188 14.7891V12.7891C68.174 12.7891 64.2361 14.4124 61.5944 17.7869C58.9892 21.1148 57.7695 25.9906 57.7695 32.2461H59.7695ZM73.2188 14.7891C77.7943 14.7891 81.072 16.2412 83.2412 19.0188C85.447 21.8434 86.6328 26.1965 86.6328 32.2461H88.6328C88.6328 25.991 87.4163 21.1156 84.8174 17.7878C82.1819 14.413 78.2526 12.7891 73.2188 12.7891V14.7891ZM78.4023 32.2461C78.4023 29.9644 78.3227 28.032 78.1597 26.4567C77.9983 24.8961 77.7495 23.6256 77.3825 22.7013L75.5237 23.4393C75.7895 24.1088 76.0154 25.1645 76.1703 26.6625C76.3238 28.1458 76.4023 30.0044 76.4023 32.2461H78.4023ZM77.3872 22.7132C77.0327 21.7862 76.5114 21.0124 75.7819 20.4732C75.0451 19.9286 74.172 19.6797 73.2188 19.6797V21.6797C73.8124 21.6797 74.2517 21.8292 74.5931 22.0815C74.9417 22.3392 75.2641 22.7607 75.5191 23.4274L77.3872 22.7132ZM73.2188 19.6797C72.2913 19.6797 71.4384 19.9183 70.7081 20.4343C69.9845 20.9455 69.4484 21.6814 69.066 22.5692L70.9028 23.3605C71.1766 22.7248 71.5077 22.3182 71.8622 22.0677C72.2101 21.8219 72.6462 21.6797 73.2188 21.6797V19.6797ZM69.0682 22.564C68.6771 23.4579 68.4187 24.7302 68.2517 26.3047C68.0825 27.8994 68 29.8828 68 32.2461H70C70 29.9219 70.0815 28.0147 70.2405 26.5156C70.4016 24.9964 70.6354 23.9718 70.9005 23.3657L69.0682 22.564ZM68 32.2461C68 36.579 68.2757 39.7394 68.8951 41.5975L70.7924 40.965C70.2868 39.4481 70 36.5851 70 32.2461H68ZM68.8951 41.5975C69.2236 42.583 69.7457 43.407 70.5094 43.9797C71.2775 44.5558 72.2031 44.8125 73.2188 44.8125V42.8125C72.5469 42.8125 72.0663 42.6474 71.7094 42.3797C71.348 42.1087 71.0264 41.667 70.7924 40.965L68.8951 41.5975ZM73.2188 44.8125C74.2062 44.8125 75.1076 44.5551 75.8605 43.9864C76.6065 43.423 77.1265 42.6147 77.4667 41.6485L75.5802 40.9843C75.3345 41.6822 75.0107 42.1219 74.6551 42.3905C74.3064 42.6539 73.8485 42.8125 73.2188 42.8125V44.8125ZM77.4681 41.6444C78.1154 39.7803 78.4023 36.602 78.4023 32.2461H76.4023C76.4023 36.609 76.1034 39.4775 75.5788 40.9884L77.4681 41.6444ZM103.699 11.5742V12.5742H104.699V11.5742H103.699ZM93.6445 11.5742H92.6445V12.5742H93.6445V11.5742ZM93.6445 1.76562V0.765625H92.6445V1.76562H93.6445ZM103.699 1.76562H104.699V0.765625H103.699V1.76562ZM93.7148 14.4922V13.4922H92.7148V14.4922H93.7148ZM103.629 14.4922H104.629V13.4922H103.629V14.4922ZM100.184 61.3906L99.6084 60.5726L99.6 60.5786L100.184 61.3906ZM89.1445 62.5156H88.1445V63.3691L88.9874 63.5032L89.1445 62.5156ZM89.1445 54.3945L89.2859 53.4046L88.1445 53.2415V54.3945H89.1445ZM93.1523 53.4102L92.2637 52.9515L92.2578 52.963L92.2522 52.9746L93.1523 53.4102ZM103.699 10.5742H93.6445V12.5742H103.699V10.5742ZM94.6445 11.5742V1.76562H92.6445V11.5742H94.6445ZM93.6445 2.76562H103.699V0.765625H93.6445V2.76562ZM102.699 1.76562V11.5742H104.699V1.76562H102.699ZM93.7148 15.4922H103.629V13.4922H93.7148V15.4922ZM102.629 14.4922V48.8398H104.629V14.4922H102.629ZM102.629 48.8398C102.629 52.4786 102.429 55.1335 102.054 56.8535L104.008 57.2794C104.43 55.3431 104.629 52.5135 104.629 48.8398H102.629ZM102.054 56.8535C101.708 58.4422 100.899 59.6653 99.6084 60.5726L100.759 62.2087C102.468 61.0066 103.558 59.3469 104.008 57.2794L102.054 56.8535ZM99.6 60.5786C98.3092 61.5063 96.6181 62.0078 94.4531 62.0078V64.0078C96.9288 64.0078 99.058 63.4312 100.767 62.2026L99.6 60.5786ZM94.4531 62.0078C93.0458 62.0078 91.3316 61.851 89.3016 61.528L88.9874 63.5032C91.0824 63.8365 92.9074 64.0078 94.4531 64.0078V62.0078ZM90.1445 62.5156V54.3945H88.1445V62.5156H90.1445ZM89.0031 55.3845C89.528 55.4595 90.0106 55.5 90.4453 55.5V53.5C90.13 53.5 89.7454 53.4702 89.2859 53.4046L89.0031 55.3845ZM90.4453 55.5C91.9649 55.5 93.4302 55.1319 94.0525 53.8457L92.2522 52.9746C92.1714 53.1415 91.8319 53.5 90.4453 53.5V55.5ZM94.041 53.8688C94.3151 53.3376 94.4709 52.6013 94.5676 51.7675C94.6674 50.9061 94.7148 49.8328 94.7148 48.5586H92.7148C92.7148 49.7922 92.6685 50.7814 92.5809 51.5372C92.49 52.3206 92.3646 52.7561 92.2637 52.9515L94.041 53.8688ZM94.7148 48.5586V14.4922H92.7148V48.5586H94.7148ZM137.871 33.8984V34.8984H138.871V33.8984H137.871ZM119.238 33.8984V32.8984H118.238V33.8984H119.238ZM129.047 37.8008L129.11 36.8028L128.141 36.741L128.051 37.7087L129.047 37.8008ZM137.871 38.3633L138.853 38.5503L139.065 37.4374L137.935 37.3653L137.871 38.3633ZM112.98 18.6758L112.207 18.0416L112.207 18.0422L112.98 18.6758ZM133.793 18.1133L133.062 18.7963L133.068 18.8023L133.793 18.1133ZM128.52 28.168V29.168H129.466L129.518 28.2234L128.52 28.168ZM119.309 28.168L118.309 28.1635L118.304 29.168H119.309V28.168ZM137.871 32.8984H119.238V34.8984H137.871V32.8984ZM118.238 33.8984V35.8672H120.238V33.8984H118.238ZM118.238 35.8672C118.238 37.5 118.349 38.9021 118.584 40.0566C118.816 41.1988 119.185 42.1775 119.76 42.8924L121.318 41.6389C121.026 41.2756 120.745 40.6489 120.543 39.6582C120.345 38.6799 120.238 37.4218 120.238 35.8672H118.238ZM119.76 42.8924C120.82 44.211 122.246 44.8828 123.949 44.8828V42.8828C122.84 42.8828 121.992 42.4765 121.318 41.6389L119.76 42.8924ZM123.949 44.8828C125.709 44.8828 127.19 44.2789 128.258 43.0047C129.291 41.7718 129.846 40.0209 130.043 37.8929L128.051 37.7087C127.873 39.6354 127.391 40.9254 126.725 41.7199C126.094 42.473 125.212 42.8828 123.949 42.8828V44.8828ZM128.983 38.7988L137.807 39.3613L137.935 37.3653L129.11 36.8028L128.983 38.7988ZM136.889 38.1763C136.131 42.1572 134.642 45.0208 132.509 46.893C130.385 48.758 127.508 49.7383 123.773 49.7383V51.7383C127.867 51.7383 131.254 50.6561 133.829 48.3961C136.395 46.1432 138.041 42.8194 138.853 38.5503L136.889 38.1763ZM123.773 49.7383C119.195 49.7383 115.846 48.2089 113.562 45.2416L111.977 46.4615C114.709 50.0099 118.696 51.7383 123.773 51.7383V49.7383ZM113.562 45.2416C111.227 42.2083 110.008 38.086 110.008 32.7734H108.008C108.008 38.3828 109.296 42.9792 111.977 46.4615L113.562 45.2416ZM110.008 32.7734C110.008 26.7343 111.308 22.2973 113.754 19.3093L112.207 18.0422C109.357 21.523 108.008 26.4844 108.008 32.7734H110.008ZM113.754 19.3099C116.222 16.2998 119.505 14.7891 123.703 14.7891V12.7891C118.949 12.7891 115.082 14.5361 112.207 18.0416L113.754 19.3099ZM123.703 14.7891C127.464 14.7891 130.561 16.1205 133.062 18.7962L134.523 17.4303C131.634 14.3404 128.005 12.7891 123.703 12.7891V14.7891ZM133.068 18.8023C135.505 21.3648 136.871 26.2796 136.871 33.8984H138.871C138.871 26.1892 137.519 20.5805 134.518 17.4242L133.068 18.8023ZM129.518 28.2234C129.542 27.7952 129.555 27.4456 129.555 27.1836H127.555C127.555 27.3904 127.544 27.697 127.521 28.1125L129.518 28.2234ZM129.555 27.1836C129.555 24.8169 129.16 22.866 128.223 21.4814C127.238 20.0273 125.746 19.3281 123.914 19.3281V21.3281C125.176 21.3281 126.004 21.7716 126.566 22.6026C127.176 23.5032 127.555 24.9799 127.555 27.1836H129.555ZM123.914 19.3281C122.038 19.3281 120.564 20.1672 119.615 21.7816C118.715 23.3143 118.321 25.4855 118.309 28.1635L120.309 28.1725C120.32 25.6239 120.705 23.8752 121.34 22.7946C121.927 21.7957 122.743 21.3281 123.914 21.3281V19.3281ZM119.309 29.168H128.52V27.168H119.309V29.168ZM170.18 27.5703L170.218 28.5696L171.259 28.5299L171.177 27.4915L170.18 27.5703ZM160.969 27.9219L159.971 27.9863L160.034 28.9583L161.007 28.9211L160.969 27.9219ZM159.914 23L159.02 23.4472L159.023 23.4548L159.914 23ZM153.27 40.2969L152.372 40.7389L152.378 40.7493L153.27 40.2969ZM160.969 36.1484L161.033 35.1505L160.024 35.085L159.97 36.095L160.969 36.1484ZM170.18 36.7461L171.176 36.8337L171.265 35.8144L170.244 35.7482L170.18 36.7461ZM145.746 46.1328L144.958 46.748L144.963 46.7546L145.746 46.1328ZM145.922 18.5352L145.144 17.9069L145.141 17.9105L145.922 18.5352ZM170.142 26.571L160.931 26.9226L161.007 28.9211L170.218 28.5696L170.142 26.571ZM161.967 27.8575C161.823 25.6301 161.46 23.8279 160.805 22.5452L159.023 23.4548C159.493 24.3752 159.833 25.8543 159.971 27.9863L161.967 27.8575ZM160.808 22.5528C160.454 21.8432 159.952 21.2664 159.29 20.8741C158.632 20.4838 157.876 20.3125 157.066 20.3125V22.3125C157.593 22.3125 157.98 22.4224 158.27 22.5947C158.558 22.7648 158.812 23.0318 159.02 23.4472L160.808 22.5528ZM157.066 20.3125C156.049 20.3125 155.117 20.5829 154.309 21.1479C153.51 21.7068 152.89 22.5137 152.42 23.5015C151.491 25.4504 151.074 28.2493 151.074 31.7891H153.074C153.074 28.3445 153.49 25.9051 154.225 24.3618C154.586 23.6035 155.006 23.1008 155.456 22.7867C155.896 22.4786 156.42 22.3125 157.066 22.3125V20.3125ZM151.074 31.7891C151.074 35.8515 151.464 38.8957 152.373 40.7389L154.167 39.8549C153.481 38.4637 153.074 35.836 153.074 31.7891H151.074ZM152.378 40.7493C152.846 41.6732 153.456 42.4265 154.233 42.947C155.018 43.4723 155.916 43.7227 156.891 43.7227V41.7227C156.272 41.7227 155.77 41.5687 155.347 41.2854C154.917 40.9973 154.513 40.5377 154.161 39.8445L152.378 40.7493ZM156.891 43.7227C158.494 43.7227 159.77 42.9824 160.623 41.6062C161.434 40.3 161.847 38.458 161.967 36.2018L159.97 36.095C159.856 38.2217 159.473 39.6668 158.924 40.552C158.418 41.3672 157.771 41.7227 156.891 41.7227V43.7227ZM160.904 37.1463L170.115 37.744L170.244 35.7482L161.033 35.1505L160.904 37.1463ZM169.184 36.6585C168.785 41.1864 167.473 44.4268 165.375 46.5349C163.292 48.6285 160.302 49.7383 156.258 49.7383V51.7383C160.675 51.7383 164.235 50.5161 166.793 47.9456C169.336 45.3896 170.754 41.6339 171.176 36.8337L169.184 36.6585ZM156.258 49.7383C151.936 49.7383 148.744 48.3012 146.529 45.511L144.963 46.7546C147.623 50.1051 151.439 51.7383 156.258 51.7383V49.7383ZM146.534 45.5176C144.315 42.6733 143.125 38.3385 143.125 32.3516H141.125C141.125 38.5521 142.349 43.4048 144.958 46.748L146.534 45.5176ZM143.125 32.3516C143.125 26.4244 144.368 22.0779 146.703 19.1599L145.141 17.9105C142.413 21.3206 141.125 26.1849 141.125 32.3516H143.125ZM146.7 19.1634C149.039 16.2668 152.309 14.7891 156.645 14.7891V12.7891C151.793 12.7891 147.915 14.4754 145.144 17.907L146.7 19.1634ZM156.645 14.7891C160.606 14.7891 163.52 15.8807 165.538 17.9351C167.57 20.005 168.83 23.1904 169.183 27.6491L171.177 27.4915C170.803 22.7627 169.443 19.0575 166.964 16.5337C164.47 13.9943 160.98 12.7891 156.645 12.7891V14.7891ZM177.07 3.59375L177.037 2.59429L176.07 2.62606V3.59375H177.07ZM186.703 3.27734H187.703V2.24396L186.67 2.27788L186.703 3.27734ZM186.703 14.4922H185.703V15.4922H186.703V14.4922ZM193.242 14.4922H194.242V13.4922H193.242V14.4922ZM193.242 22.2969V23.2969H194.242V22.2969H193.242ZM186.703 22.2969V21.2969H185.703V22.2969H186.703ZM186.844 40.0508L185.852 40.1788L185.854 40.197L185.857 40.2152L186.844 40.0508ZM187.898 41.8438L187.255 42.6095L187.272 42.6233L187.289 42.6364L187.898 41.8438ZM193.734 42.4766H194.734V41.434L193.693 41.4774L193.734 42.4766ZM193.734 50L193.952 50.9759L194.734 50.8012V50H193.734ZM177.07 22.2969H178.07V21.2969H177.07V22.2969ZM173.133 22.2969H172.133V23.2969H173.133V22.2969ZM173.133 14.4922V13.4922H172.133V14.4922H173.133ZM177.07 14.4922V15.4922H178.07V14.4922H177.07ZM177.103 4.59321L186.736 4.2768L186.67 2.27788L177.037 2.59429L177.103 4.59321ZM185.703 3.27734V14.4922H187.703V3.27734H185.703ZM186.703 15.4922H193.242V13.4922H186.703V15.4922ZM192.242 14.4922V22.2969H194.242V14.4922H192.242ZM193.242 21.2969H186.703V23.2969H193.242V21.2969ZM185.703 22.2969V35.3398H187.703V22.2969H185.703ZM185.703 35.3398C185.703 37.7386 185.748 39.3764 185.852 40.1788L187.836 39.9228C187.752 39.272 187.703 37.7692 187.703 35.3398H185.703ZM185.857 40.2152C186.017 41.1712 186.501 41.9763 187.255 42.6095L188.542 41.078C188.124 40.7269 187.905 40.3366 187.83 39.8864L185.857 40.2152ZM187.289 42.6364C188.167 43.3123 189.455 43.5469 190.922 43.5469V41.5469C189.576 41.5469 188.848 41.3127 188.508 41.0511L187.289 42.6364ZM190.922 43.5469C191.691 43.5469 192.643 43.5229 193.776 43.4757L193.693 41.4774C192.576 41.524 191.653 41.5469 190.922 41.5469V43.5469ZM192.734 42.4766V50H194.734V42.4766H192.734ZM193.516 49.0241C191.369 49.5038 189.428 49.7383 187.688 49.7383V51.7383C189.604 51.7383 191.694 51.4806 193.952 50.9759L193.516 49.0241ZM187.688 49.7383C184.793 49.7383 182.737 49.1808 181.382 48.2043L180.212 49.8269C182.045 51.1473 184.582 51.7383 187.688 51.7383V49.7383ZM181.382 48.2043C179.958 47.1785 179.088 45.9279 178.707 44.4427L176.77 44.9401C177.279 46.9237 178.448 48.5559 180.212 49.8269L181.382 48.2043ZM178.707 44.4427C178.295 42.8377 178.07 40.1904 178.07 36.4297H176.07C176.07 40.2158 176.291 43.0764 176.77 44.9401L178.707 44.4427ZM178.07 36.4297V22.2969H176.07V36.4297H178.07ZM177.07 21.2969H173.133V23.2969H177.07V21.2969ZM174.133 22.2969V14.4922H172.133V22.2969H174.133ZM173.133 15.4922H177.07V13.4922H173.133V15.4922ZM178.07 14.4922V3.59375H176.07V14.4922H178.07ZM221.086 23.0352L221.372 23.9934L222.311 23.7131L222.05 22.7686L221.086 23.0352ZM214.02 25.1445L213.06 25.4248L213.342 26.3905L214.306 26.1027L214.02 25.1445ZM211.664 28.2734L211.997 27.3306L211.994 27.3294L211.664 28.2734ZM220.84 34.1094L219.978 34.6158L219.981 34.6218L220.84 34.1094ZM195.387 40.1562L195.228 39.1689L194.277 39.3218L194.394 40.2783L195.387 40.1562ZM203.262 38.8906L204.245 38.7083L204.067 37.7484L203.103 37.9033L203.262 38.8906ZM207.129 36.2539L206.823 37.2058L206.828 37.2075L207.129 36.2539ZM200.027 16.8477L199.378 16.0873L199.374 16.0905L200.027 16.8477ZM220.8 22.0769L213.733 24.1863L214.306 26.1027L221.372 23.9934L220.8 22.0769ZM214.979 24.8643C214.48 23.1535 213.739 21.7649 212.695 20.7984C211.629 19.8117 210.314 19.3281 208.816 19.3281V21.3281C209.85 21.3281 210.668 21.6473 211.336 22.2661C212.027 22.905 212.622 23.9246 213.06 25.4248L214.979 24.8643ZM208.816 19.3281C207.631 19.3281 206.558 19.6252 205.789 20.3945C205.02 21.1638 204.723 22.2365 204.723 23.4219H206.723C206.723 22.5448 206.941 22.0706 207.203 21.8087C207.465 21.5467 207.939 21.3281 208.816 21.3281V19.3281ZM204.723 23.4219C204.723 24.8351 205.203 26.0433 206.264 26.8792L207.502 25.3083C207.016 24.9254 206.723 24.3524 206.723 23.4219H204.723ZM206.264 26.8792C207.185 27.6052 208.931 28.3775 211.334 29.2174L211.994 27.3294C209.569 26.4819 208.127 25.801 207.502 25.3083L206.264 26.8792ZM211.331 29.2163C214.036 30.1725 215.959 30.9921 217.143 31.6719L218.138 29.9374C216.791 29.1641 214.729 28.2962 211.997 27.3306L211.331 29.2163ZM217.143 31.6719C218.233 32.298 219.183 33.263 219.978 34.6158L221.702 33.603C220.762 32.0027 219.579 30.7645 218.138 29.9374L217.143 31.6719ZM219.981 34.6218C220.745 35.9017 221.141 37.3962 221.141 39.1367H223.141C223.141 37.0804 222.669 35.2233 221.699 33.5969L219.981 34.6218ZM221.141 39.1367C221.141 42.1452 220.069 44.6345 217.905 46.67L219.275 48.1268C221.845 45.7092 223.141 42.6908 223.141 39.1367H221.141ZM217.905 46.67C215.774 48.674 212.744 49.7383 208.676 49.7383V51.7383C213.092 51.7383 216.671 50.576 219.275 48.1268L217.905 46.67ZM208.676 49.7383C204.815 49.7383 201.96 48.8853 199.982 47.3105C198.022 45.7491 196.789 43.3714 196.379 40.0342L194.394 40.2783C194.851 43.9958 196.268 46.9091 198.736 48.8751C201.188 50.8276 204.545 51.7383 208.676 51.7383V49.7383ZM195.545 41.1436L203.42 39.878L203.103 37.9033L195.228 39.1689L195.545 41.1436ZM202.278 39.0729C202.63 40.9692 203.328 42.5192 204.463 43.5972C205.615 44.6919 207.113 45.1992 208.852 45.1992V43.1992C207.52 43.1992 206.551 42.8218 205.84 42.147C205.112 41.4554 204.55 40.3512 204.245 38.7083L202.278 39.0729ZM208.852 45.1992C210.28 45.1992 211.537 44.9032 212.448 44.139C213.392 43.3466 213.789 42.2007 213.789 40.8945H211.789C211.789 41.7915 211.53 42.2979 211.162 42.6071C210.76 42.9444 210.048 43.1992 208.852 43.1992V45.1992ZM213.789 40.8945C213.789 39.4813 213.309 38.2731 212.248 37.4372L211.01 39.0081C211.496 39.391 211.789 39.964 211.789 40.8945H213.789ZM212.248 37.4372C211.317 36.7035 209.657 36.0034 207.43 35.3003L206.828 37.2075C209.054 37.9106 210.394 38.5231 211.01 39.0081L212.248 37.4372ZM207.435 35.302C203.415 34.0081 200.838 32.4999 199.499 30.8724L197.954 32.1432C199.662 34.2188 202.687 35.8747 206.823 37.2058L207.435 35.302ZM199.499 30.8724C198.125 29.2031 197.441 27.2841 197.441 25.0742H195.441C195.441 27.7393 196.281 30.1094 197.954 32.1432L199.499 30.8724ZM197.441 25.0742C197.441 21.9156 198.53 19.4601 200.681 17.6048L199.374 16.0905C196.743 18.3602 195.441 21.3891 195.441 25.0742H197.441ZM200.677 17.608C202.885 15.7213 205.657 14.7539 209.062 14.7539V12.7539C205.25 12.7539 201.998 13.8491 199.378 16.0874L200.677 17.608ZM209.062 14.7539C212.049 14.7539 214.396 15.4844 216.186 16.8658C217.977 18.2486 219.309 20.36 220.122 23.3017L222.05 22.7686C221.152 19.5228 219.624 16.9936 217.408 15.2826C215.19 13.5703 212.381 12.7539 209.062 12.7539V14.7539Z" fill="#F5F5F5"/>
</svg>
